<?xml version="1.0" encoding="utf-8" standalone="no"?>
<!DOCTYPE svg PUBLIC "-//W3C//DTD SVG 1.1//EN"
  "http://www.w3.org/Graphics/SVG/1.1/DTD/svg11.dtd">
<svg xmlns:xlink="http://www.w3.org/1999/xlink" width="792pt" height="504pt" viewBox="0 0 792 504" xmlns="http://www.w3.org/2000/svg" version="1.1">
 <metadata>
  <rdf:RDF xmlns:dc="http://purl.org/dc/elements/1.1/" xmlns:cc="http://creativecommons.org/ns#" xmlns:rdf="http://www.w3.org/1999/02/22-rdf-syntax-ns#">
   <cc:Work>
    <dc:type rdf:resource="http://purl.org/dc/dcmitype/StillImage"/>
    <dc:date>2026-01-07T12:44:20.587182</dc:date>
    <dc:format>image/svg+xml</dc:format>
    <dc:creator>
     <cc:Agent>
      <dc:title>Matplotlib v3.10.0, https://matplotlib.org/</dc:title>
     </cc:Agent>
    </dc:creator>
   </cc:Work>
  </rdf:RDF>
 </metadata>
 <defs>
  <style type="text/css">*{stroke-linejoin: round; stroke-linecap: butt}</style>
 </defs>
 <g id="figure_1">
  <g id="patch_1">
   <path d="M 0 504 
L 792 504 
L 792 0 
L 0 0 
z
" style="fill: #ffffff"/>
  </g>
  <g id="axes_1">
   <g id="patch_2">
    <path d="M 67.79 444.76 
L 774.72 444.76 
L 774.72 39.12 
L 67.79 39.12 
z
" style="fill: #ffffff"/>
   </g>
   <g id="FillBetweenPolyCollection_1">
    <path d="M 99.923182 264.148047 
L 99.923182 264.548809 
L 126.700833 264.548809 
L 153.478485 264.548809 
L 180.256136 264.548809 
L 207.033788 264.548809 
L 233.811439 264.548809 
L 260.589091 264.548809 
L 287.366742 159.4025 
L 314.144394 127.654593 
L 340.922045 89.145275 
L 367.699697 77.867344 
L 394.477348 68.180137 
L 421.255 64.510764 
L 448.032652 64.324033 
L 474.810303 61.657685 
L 501.587955 61.33745 
L 528.365606 60.20879 
L 555.143258 60.20879 
L 581.920909 60.45429 
L 608.698561 61.706403 
L 635.476212 63.250543 
L 662.253864 64.038632 
L 689.031515 64.500258 
L 715.809167 63.843877 
L 742.586818 63.084764 
L 742.586818 59.230768 
L 742.586818 59.230768 
L 715.809167 59.672218 
L 689.031515 59.02035 
L 662.253864 58.881695 
L 635.476212 58.471478 
L 608.698561 57.018725 
L 581.920909 56.472252 
L 555.143258 55.521703 
L 528.365606 55.521703 
L 501.587955 56.787397 
L 474.810303 56.464906 
L 448.032652 56.797707 
L 421.255 58.405049 
L 394.477348 63.126072 
L 367.699697 70.824452 
L 340.922045 86.523067 
L 314.144394 113.345101 
L 287.366742 143.335887 
L 260.589091 264.148047 
L 233.811439 264.148047 
L 207.033788 264.148047 
L 180.256136 264.148047 
L 153.478485 264.148047 
L 126.700833 264.148047 
L 99.923182 264.148047 
z
" clip-path="url(#pfca530099c)" style="fill: #1f77b4; fill-opacity: 0.15"/>
   </g>
   <g id="FillBetweenPolyCollection_2">
    <path d="M 99.923182 189.589907 
L 99.923182 189.832901 
L 126.700833 189.832901 
L 153.478485 189.832901 
L 180.256136 189.832901 
L 207.033788 189.832901 
L 233.811439 189.832901 
L 260.589091 189.832901 
L 287.366742 198.562571 
L 314.144394 116.291722 
L 340.922045 101.424442 
L 367.699697 92.005041 
L 394.477348 85.052719 
L 421.255 80.759191 
L 448.032652 78.994574 
L 474.810303 81.706447 
L 501.587955 80.531518 
L 528.365606 78.386062 
L 555.143258 78.966851 
L 581.920909 79.532026 
L 608.698561 79.849889 
L 635.476212 80.598328 
L 662.253864 79.971914 
L 689.031515 80.594353 
L 715.809167 80.594353 
L 742.586818 80.594353 
L 742.586818 75.372016 
L 742.586818 75.372016 
L 715.809167 75.372016 
L 689.031515 75.372016 
L 662.253864 74.637736 
L 635.476212 75.370933 
L 608.698561 74.079956 
L 581.920909 74.397818 
L 555.143258 75.639907 
L 528.365606 74.861084 
L 501.587955 76.117549 
L 474.810303 78.335862 
L 448.032652 76.968901 
L 421.255 77.914829 
L 394.477348 80.404893 
L 367.699697 87.714025 
L 340.922045 93.915689 
L 314.144394 107.577101 
L 287.366742 186.272646 
L 260.589091 189.589907 
L 233.811439 189.589907 
L 207.033788 189.589907 
L 180.256136 189.589907 
L 153.478485 189.589907 
L 126.700833 189.589907 
L 99.923182 189.589907 
z
" clip-path="url(#pfca530099c)" style="fill: #ff7f0e; fill-opacity: 0.15"/>
   </g>
   <g id="FillBetweenPolyCollection_3">
    <path d="M 99.923182 240.691915 
L 99.923182 241.027277 
L 126.700833 241.027277 
L 153.478485 241.027277 
L 180.256136 241.027277 
L 207.033788 241.027277 
L 233.811439 241.027277 
L 260.589091 241.027277 
L 287.366742 204.858417 
L 314.144394 100.903295 
L 340.922045 89.659609 
L 367.699697 81.933071 
L 394.477348 80.942123 
L 421.255 78.52809 
L 448.032652 73.612805 
L 474.810303 72.860966 
L 501.587955 71.64351 
L 528.365606 72.49421 
L 555.143258 74.983062 
L 581.920909 75.817008 
L 608.698561 75.025656 
L 635.476212 73.869929 
L 662.253864 74.325663 
L 689.031515 74.899926 
L 715.809167 74.899926 
L 742.586818 74.719349 
L 742.586818 71.626606 
L 742.586818 71.626606 
L 715.809167 72.097973 
L 689.031515 72.097973 
L 662.253864 72.020291 
L 635.476212 70.517508 
L 608.698561 71.317615 
L 581.920909 71.175526 
L 555.143258 69.393644 
L 528.365606 67.970827 
L 501.587955 66.865693 
L 474.810303 68.918692 
L 448.032652 71.423894 
L 421.255 73.030739 
L 394.477348 77.146885 
L 367.699697 77.457143 
L 340.922045 81.46561 
L 314.144394 93.056087 
L 287.366742 181.024902 
L 260.589091 240.691915 
L 233.811439 240.691915 
L 207.033788 240.691915 
L 180.256136 240.691915 
L 153.478485 240.691915 
L 126.700833 240.691915 
L 99.923182 240.691915 
z
" clip-path="url(#pfca530099c)" style="fill: #2ca02c; fill-opacity: 0.15"/>
   </g>
   <g id="FillBetweenPolyCollection_4">
    <path d="M 99.923182 203.926127 
L 99.923182 204.914727 
L 126.700833 204.914727 
L 153.478485 204.914727 
L 180.256136 204.914727 
L 207.033788 204.914727 
L 233.811439 204.914727 
L 260.589091 204.914727 
L 287.366742 89.781918 
L 314.144394 77.550974 
L 340.922045 64.648663 
L 367.699697 60.124896 
L 394.477348 54.282622 
L 421.255 52.628543 
L 448.032652 51.866945 
L 474.810303 50.847476 
L 501.587955 50.229922 
L 528.365606 50.781605 
L 555.143258 50.781605 
L 581.920909 50.387207 
L 608.698561 50.387207 
L 635.476212 50.387207 
L 662.253864 50.781605 
L 689.031515 50.781605 
L 715.809167 51.865126 
L 742.586818 52.128419 
L 742.586818 49.685274 
L 742.586818 49.685274 
L 715.809167 48.990286 
L 689.031515 48.157247 
L 662.253864 48.157247 
L 635.476212 47.593364 
L 608.698561 47.593364 
L 581.920909 47.593364 
L 555.143258 48.157247 
L 528.365606 48.157247 
L 501.587955 48.714737 
L 474.810303 49.055464 
L 448.032652 49.952555 
L 421.255 51.113325 
L 394.477348 52.345702 
L 367.699697 55.151181 
L 340.922045 59.263552 
L 314.144394 70.341475 
L 287.366742 82.096575 
L 260.589091 203.926127 
L 233.811439 203.926127 
L 207.033788 203.926127 
L 180.256136 203.926127 
L 153.478485 203.926127 
L 126.700833 203.926127 
L 99.923182 203.926127 
z
" clip-path="url(#pfca530099c)" style="fill: #d62728; fill-opacity: 0.15"/>
   </g>
   <g id="FillBetweenPolyCollection_5">
    <path d="M 99.923182 227.202215 
L 99.923182 228.37188 
L 126.700833 228.37188 
L 153.478485 228.37188 
L 180.256136 228.37188 
L 207.033788 228.37188 
L 233.811439 228.37188 
L 260.589091 228.37188 
L 287.366742 228.37188 
L 314.144394 178.065008 
L 340.922045 151.046656 
L 367.699697 115.217972 
L 394.477348 98.625455 
L 421.255 90.81215 
L 448.032652 78.678978 
L 474.810303 73.712571 
L 501.587955 76.315363 
L 528.365606 79.115495 
L 555.143258 81.681993 
L 581.920909 84.706818 
L 608.698561 85.291651 
L 635.476212 83.419803 
L 662.253864 83.419803 
L 689.031515 84.404157 
L 715.809167 87.506447 
L 742.586818 85.326141 
L 742.586818 74.322579 
L 742.586818 74.322579 
L 715.809167 74.481603 
L 689.031515 77.583894 
L 662.253864 77.398582 
L 635.476212 77.398582 
L 608.698561 76.6964 
L 581.920909 76.111567 
L 555.143258 73.288064 
L 528.365606 72.345566 
L 501.587955 70.467036 
L 474.810303 70.730497 
L 448.032652 71.612417 
L 421.255 84.042221 
L 394.477348 92.604233 
L 367.699697 107.592686 
L 340.922045 143.113598 
L 314.144394 162.881866 
L 287.366742 227.202215 
L 260.589091 227.202215 
L 233.811439 227.202215 
L 207.033788 227.202215 
L 180.256136 227.202215 
L 153.478485 227.202215 
L 126.700833 227.202215 
L 99.923182 227.202215 
z
" clip-path="url(#pfca530099c)" style="fill: #9467bd; fill-opacity: 0.15"/>
   </g>
   <g id="FillBetweenPolyCollection_6">
    <path d="M 99.923182 237.648138 
L 99.923182 237.811863 
L 126.700833 237.811863 
L 153.478485 237.811863 
L 180.256136 237.811863 
L 207.033788 237.811863 
L 233.811439 237.811863 
L 260.589091 141.828507 
L 287.366742 119.280774 
L 314.144394 107.061575 
L 340.922045 102.00517 
L 367.699697 94.183588 
L 394.477348 91.64321 
L 421.255 87.14942 
L 448.032652 85.954817 
L 474.810303 85.398101 
L 501.587955 86.628451 
L 528.365606 86.29873 
L 555.143258 86.326287 
L 581.920909 85.92494 
L 608.698561 85.717665 
L 635.476212 85.816098 
L 662.253864 85.816098 
L 689.031515 85.942756 
L 715.809167 85.92494 
L 742.586818 85.92494 
L 742.586818 84.106773 
L 742.586818 84.106773 
L 715.809167 84.106773 
L 689.031515 84.403957 
L 662.253864 84.215615 
L 635.476212 84.215615 
L 608.698561 83.999049 
L 581.920909 84.106773 
L 555.143258 84.019803 
L 528.365606 83.102362 
L 501.587955 82.771397 
L 474.810303 81.797999 
L 448.032652 84.076274 
L 421.255 83.822933 
L 394.477348 87.831004 
L 367.699697 90.959985 
L 340.922045 98.251509 
L 314.144394 105.161955 
L 287.366742 116.241478 
L 260.589091 134.625566 
L 233.811439 237.648138 
L 207.033788 237.648138 
L 180.256136 237.648138 
L 153.478485 237.648138 
L 126.700833 237.648138 
L 99.923182 237.648138 
z
" clip-path="url(#pfca530099c)" style="fill: #8c564b; fill-opacity: 0.15"/>
   </g>
   <g id="FillBetweenPolyCollection_7">
    <path d="M 99.923182 258.356417 
L 99.923182 258.870469 
L 126.700833 258.870469 
L 153.478485 258.870469 
L 180.256136 258.870469 
L 207.033788 258.870469 
L 233.811439 258.870469 
L 260.589091 154.900936 
L 287.366742 127.907154 
L 314.144394 104.186892 
L 340.922045 96.703713 
L 367.699697 87.481635 
L 394.477348 78.55285 
L 421.255 74.603341 
L 448.032652 70.129041 
L 474.810303 69.166535 
L 501.587955 68.15996 
L 528.365606 67.44514 
L 555.143258 67.732856 
L 581.920909 69.311459 
L 608.698561 71.148498 
L 635.476212 74.426101 
L 662.253864 76.419069 
L 689.031515 77.286181 
L 715.809167 79.617552 
L 742.586818 79.1224 
L 742.586818 72.946641 
L 742.586818 72.946641 
L 715.809167 72.451488 
L 689.031515 71.425086 
L 662.253864 70.19359 
L 635.476212 69.668227 
L 608.698561 67.489449 
L 581.920909 66.388436 
L 555.143258 65.028988 
L 528.365606 64.47726 
L 501.587955 65.861049 
L 474.810303 65.274196 
L 448.032652 66.410298 
L 421.255 69.91071 
L 394.477348 74.355634 
L 367.699697 81.795994 
L 340.922045 91.461391 
L 314.144394 102.026243 
L 287.366742 124.895085 
L 260.589091 151.205954 
L 233.811439 258.356417 
L 207.033788 258.356417 
L 180.256136 258.356417 
L 153.478485 258.356417 
L 126.700833 258.356417 
L 99.923182 258.356417 
z
" clip-path="url(#pfca530099c)" style="fill: #e377c2; fill-opacity: 0.15"/>
   </g>
   <g id="FillBetweenPolyCollection_8">
    <path d="M 99.923182 237.036332 
L 99.923182 237.210375 
L 126.700833 237.210375 
L 153.478485 237.210375 
L 180.256136 237.210375 
L 207.033788 237.210375 
L 233.811439 115.685526 
L 260.589091 98.130042 
L 287.366742 93.994019 
L 314.144394 84.816705 
L 340.922045 77.221839 
L 367.699697 69.550272 
L 394.477348 66.32106 
L 421.255 63.108282 
L 448.032652 62.074418 
L 474.810303 62.439135 
L 501.587955 63.485557 
L 528.365606 65.101241 
L 555.143258 66.144463 
L 581.920909 68.124434 
L 608.698561 70.286124 
L 635.476212 73.006919 
L 662.253864 75.563596 
L 689.031515 77.078242 
L 715.809167 76.90879 
L 742.586818 76.994292 
L 742.586818 75.188618 
L 742.586818 75.188618 
L 715.809167 74.393736 
L 689.031515 74.224588 
L 662.253864 73.760877 
L 635.476212 71.261651 
L 608.698561 67.388529 
L 581.920909 66.692694 
L 555.143258 64.496538 
L 528.365606 63.561099 
L 501.587955 61.660412 
L 474.810303 61.387625 
L 448.032652 59.994309 
L 421.255 62.037079 
L 394.477348 64.537529 
L 367.699697 65.922661 
L 340.922045 72.539635 
L 314.144394 79.23331 
L 287.366742 91.824003 
L 260.589091 95.383517 
L 233.811439 111.899842 
L 207.033788 237.036332 
L 180.256136 237.036332 
L 153.478485 237.036332 
L 126.700833 237.036332 
L 99.923182 237.036332 
z
" clip-path="url(#pfca530099c)" style="fill: #7f7f7f; fill-opacity: 0.15"/>
   </g>
   <g id="FillBetweenPolyCollection_9">
    <path d="M 99.923182 217.56642 
L 99.923182 217.994622 
L 126.700833 217.994622 
L 153.478485 217.994622 
L 180.256136 217.994622 
L 207.033788 217.994622 
L 233.811439 217.994622 
L 260.589091 79.416391 
L 287.366742 62.054145 
L 314.144394 57.883228 
L 340.922045 56.150601 
L 367.699697 55.224648 
L 394.477348 54.309058 
L 421.255 53.662415 
L 448.032652 53.772042 
L 474.810303 53.275709 
L 501.587955 53.064997 
L 528.365606 53.491432 
L 555.143258 53.598233 
L 581.920909 54.199131 
L 608.698561 54.581324 
L 635.476212 54.250799 
L 662.253864 53.859309 
L 689.031515 54.329357 
L 715.809167 53.945792 
L 742.586818 53.36955 
L 742.586818 52.955381 
L 742.586818 52.955381 
L 715.809167 52.798861 
L 689.031515 53.25696 
L 662.253864 52.466732 
L 635.476212 52.494964 
L 608.698561 53.006103 
L 581.920909 52.968574 
L 555.143258 51.889475 
L 528.365606 52.415998 
L 501.587955 51.581047 
L 474.810303 52.208668 
L 448.032652 52.551778 
L 421.255 52.241684 
L 394.477348 52.434485 
L 367.699697 52.77917 
L 340.922045 53.532103 
L 314.144394 54.741969 
L 287.366742 59.810481 
L 260.589091 73.938463 
L 233.811439 217.56642 
L 207.033788 217.56642 
L 180.256136 217.56642 
L 153.478485 217.56642 
L 126.700833 217.56642 
L 99.923182 217.56642 
z
" clip-path="url(#pfca530099c)" style="fill: #bcbd22; fill-opacity: 0.15"/>
   </g>
   <g id="matplotlib.axis_1">
    <g id="xtick_1">
     <g id="line2d_1">
      <defs>
       <path id="m67adc24b15" d="M 0 0 
L 0 3.5 
" style="stroke: #000000; stroke-width: 0.8"/>
      </defs>
      <g>
       <use xlink:href="#m67adc24b15" x="99.923182" y="444.76" style="stroke: #000000; stroke-width: 0.8"/>
      </g>
     </g>
     <g id="text_1">
      <!-- −4 -->
      <g transform="translate(89.603651 462.397812) scale(0.14 -0.14)">
       <defs>
        <path id="DejaVuSans-2212" d="M 678 2272 
L 4684 2272 
L 4684 1741 
L 678 1741 
L 678 2272 
z
" transform="scale(0.015625)"/>
        <path id="DejaVuSans-34" d="M 2419 4116 
L 825 1625 
L 2419 1625 
L 2419 4116 
z
M 2253 4666 
L 3047 4666 
L 3047 1625 
L 3713 1625 
L 3713 1100 
L 3047 1100 
L 3047 0 
L 2419 0 
L 2419 1100 
L 313 1100 
L 313 1709 
L 2253 4666 
z
" transform="scale(0.015625)"/>
       </defs>
       <use xlink:href="#DejaVuSans-2212"/>
       <use xlink:href="#DejaVuSans-34" transform="translate(83.789062 0)"/>
      </g>
     </g>
    </g>
    <g id="xtick_2">
     <g id="line2d_2">
      <g>
       <use xlink:href="#m67adc24b15" x="207.033788" y="444.76" style="stroke: #000000; stroke-width: 0.8"/>
      </g>
     </g>
     <g id="text_2">
      <!-- −3 -->
      <g transform="translate(196.714257 462.397812) scale(0.14 -0.14)">
       <defs>
        <path id="DejaVuSans-33" d="M 2597 2516 
Q 3050 2419 3304 2112 
Q 3559 1806 3559 1356 
Q 3559 666 3084 287 
Q 2609 -91 1734 -91 
Q 1441 -91 1130 -33 
Q 819 25 488 141 
L 488 750 
Q 750 597 1062 519 
Q 1375 441 1716 441 
Q 2309 441 2620 675 
Q 2931 909 2931 1356 
Q 2931 1769 2642 2001 
Q 2353 2234 1838 2234 
L 1294 2234 
L 1294 2753 
L 1863 2753 
Q 2328 2753 2575 2939 
Q 2822 3125 2822 3475 
Q 2822 3834 2567 4026 
Q 2313 4219 1838 4219 
Q 1578 4219 1281 4162 
Q 984 4106 628 3988 
L 628 4550 
Q 988 4650 1302 4700 
Q 1616 4750 1894 4750 
Q 2613 4750 3031 4423 
Q 3450 4097 3450 3541 
Q 3450 3153 3228 2886 
Q 3006 2619 2597 2516 
z
" transform="scale(0.015625)"/>
       </defs>
       <use xlink:href="#DejaVuSans-2212"/>
       <use xlink:href="#DejaVuSans-33" transform="translate(83.789062 0)"/>
      </g>
     </g>
    </g>
    <g id="xtick_3">
     <g id="line2d_3">
      <g>
       <use xlink:href="#m67adc24b15" x="314.144394" y="444.76" style="stroke: #000000; stroke-width: 0.8"/>
      </g>
     </g>
     <g id="text_3">
      <!-- −2 -->
      <g transform="translate(303.824863 462.397812) scale(0.14 -0.14)">
       <defs>
        <path id="DejaVuSans-32" d="M 1228 531 
L 3431 531 
L 3431 0 
L 469 0 
L 469 531 
Q 828 903 1448 1529 
Q 2069 2156 2228 2338 
Q 2531 2678 2651 2914 
Q 2772 3150 2772 3378 
Q 2772 3750 2511 3984 
Q 2250 4219 1831 4219 
Q 1534 4219 1204 4116 
Q 875 4013 500 3803 
L 500 4441 
Q 881 4594 1212 4672 
Q 1544 4750 1819 4750 
Q 2544 4750 2975 4387 
Q 3406 4025 3406 3419 
Q 3406 3131 3298 2873 
Q 3191 2616 2906 2266 
Q 2828 2175 2409 1742 
Q 1991 1309 1228 531 
z
" transform="scale(0.015625)"/>
       </defs>
       <use xlink:href="#DejaVuSans-2212"/>
       <use xlink:href="#DejaVuSans-32" transform="translate(83.789062 0)"/>
      </g>
     </g>
    </g>
    <g id="xtick_4">
     <g id="line2d_4">
      <g>
       <use xlink:href="#m67adc24b15" x="421.255" y="444.76" style="stroke: #000000; stroke-width: 0.8"/>
      </g>
     </g>
     <g id="text_4">
      <!-- −1 -->
      <g transform="translate(410.935469 462.397812) scale(0.14 -0.14)">
       <defs>
        <path id="DejaVuSans-31" d="M 794 531 
L 1825 531 
L 1825 4091 
L 703 3866 
L 703 4441 
L 1819 4666 
L 2450 4666 
L 2450 531 
L 3481 531 
L 3481 0 
L 794 0 
L 794 531 
z
" transform="scale(0.015625)"/>
       </defs>
       <use xlink:href="#DejaVuSans-2212"/>
       <use xlink:href="#DejaVuSans-31" transform="translate(83.789062 0)"/>
      </g>
     </g>
    </g>
    <g id="xtick_5">
     <g id="line2d_5">
      <g>
       <use xlink:href="#m67adc24b15" x="528.365606" y="444.76" style="stroke: #000000; stroke-width: 0.8"/>
      </g>
     </g>
     <g id="text_5">
      <!-- 0 -->
      <g transform="translate(523.911856 462.397812) scale(0.14 -0.14)">
       <defs>
        <path id="DejaVuSans-30" d="M 2034 4250 
Q 1547 4250 1301 3770 
Q 1056 3291 1056 2328 
Q 1056 1369 1301 889 
Q 1547 409 2034 409 
Q 2525 409 2770 889 
Q 3016 1369 3016 2328 
Q 3016 3291 2770 3770 
Q 2525 4250 2034 4250 
z
M 2034 4750 
Q 2819 4750 3233 4129 
Q 3647 3509 3647 2328 
Q 3647 1150 3233 529 
Q 2819 -91 2034 -91 
Q 1250 -91 836 529 
Q 422 1150 422 2328 
Q 422 3509 836 4129 
Q 1250 4750 2034 4750 
z
" transform="scale(0.015625)"/>
       </defs>
       <use xlink:href="#DejaVuSans-30"/>
      </g>
     </g>
    </g>
    <g id="xtick_6">
     <g id="line2d_6">
      <g>
       <use xlink:href="#m67adc24b15" x="635.476212" y="444.76" style="stroke: #000000; stroke-width: 0.8"/>
      </g>
     </g>
     <g id="text_6">
      <!-- 1 -->
      <g transform="translate(631.022462 462.397812) scale(0.14 -0.14)">
       <use xlink:href="#DejaVuSans-31"/>
      </g>
     </g>
    </g>
    <g id="xtick_7">
     <g id="line2d_7">
      <g>
       <use xlink:href="#m67adc24b15" x="742.586818" y="444.76" style="stroke: #000000; stroke-width: 0.8"/>
      </g>
     </g>
     <g id="text_7">
      <!-- 2 -->
      <g transform="translate(738.133068 462.397812) scale(0.14 -0.14)">
       <use xlink:href="#DejaVuSans-32"/>
      </g>
     </g>
    </g>
    <g id="text_8">
     <!-- log10(C) -->
     <g transform="translate(382.774375 482.986562) scale(0.18 -0.18)">
      <defs>
       <path id="DejaVuSans-6c" d="M 603 4863 
L 1178 4863 
L 1178 0 
L 603 0 
L 603 4863 
z
" transform="scale(0.015625)"/>
       <path id="DejaVuSans-6f" d="M 1959 3097 
Q 1497 3097 1228 2736 
Q 959 2375 959 1747 
Q 959 1119 1226 758 
Q 1494 397 1959 397 
Q 2419 397 2687 759 
Q 2956 1122 2956 1747 
Q 2956 2369 2687 2733 
Q 2419 3097 1959 3097 
z
M 1959 3584 
Q 2709 3584 3137 3096 
Q 3566 2609 3566 1747 
Q 3566 888 3137 398 
Q 2709 -91 1959 -91 
Q 1206 -91 779 398 
Q 353 888 353 1747 
Q 353 2609 779 3096 
Q 1206 3584 1959 3584 
z
" transform="scale(0.015625)"/>
       <path id="DejaVuSans-67" d="M 2906 1791 
Q 2906 2416 2648 2759 
Q 2391 3103 1925 3103 
Q 1463 3103 1205 2759 
Q 947 2416 947 1791 
Q 947 1169 1205 825 
Q 1463 481 1925 481 
Q 2391 481 2648 825 
Q 2906 1169 2906 1791 
z
M 3481 434 
Q 3481 -459 3084 -895 
Q 2688 -1331 1869 -1331 
Q 1566 -1331 1297 -1286 
Q 1028 -1241 775 -1147 
L 775 -588 
Q 1028 -725 1275 -790 
Q 1522 -856 1778 -856 
Q 2344 -856 2625 -561 
Q 2906 -266 2906 331 
L 2906 616 
Q 2728 306 2450 153 
Q 2172 0 1784 0 
Q 1141 0 747 490 
Q 353 981 353 1791 
Q 353 2603 747 3093 
Q 1141 3584 1784 3584 
Q 2172 3584 2450 3431 
Q 2728 3278 2906 2969 
L 2906 3500 
L 3481 3500 
L 3481 434 
z
" transform="scale(0.015625)"/>
       <path id="DejaVuSans-28" d="M 1984 4856 
Q 1566 4138 1362 3434 
Q 1159 2731 1159 2009 
Q 1159 1288 1364 580 
Q 1569 -128 1984 -844 
L 1484 -844 
Q 1016 -109 783 600 
Q 550 1309 550 2009 
Q 550 2706 781 3412 
Q 1013 4119 1484 4856 
L 1984 4856 
z
" transform="scale(0.015625)"/>
       <path id="DejaVuSans-43" d="M 4122 4306 
L 4122 3641 
Q 3803 3938 3442 4084 
Q 3081 4231 2675 4231 
Q 1875 4231 1450 3742 
Q 1025 3253 1025 2328 
Q 1025 1406 1450 917 
Q 1875 428 2675 428 
Q 3081 428 3442 575 
Q 3803 722 4122 1019 
L 4122 359 
Q 3791 134 3420 21 
Q 3050 -91 2638 -91 
Q 1578 -91 968 557 
Q 359 1206 359 2328 
Q 359 3453 968 4101 
Q 1578 4750 2638 4750 
Q 3056 4750 3426 4639 
Q 3797 4528 4122 4306 
z
" transform="scale(0.015625)"/>
       <path id="DejaVuSans-29" d="M 513 4856 
L 1013 4856 
Q 1481 4119 1714 3412 
Q 1947 2706 1947 2009 
Q 1947 1309 1714 600 
Q 1481 -109 1013 -844 
L 513 -844 
Q 928 -128 1133 580 
Q 1338 1288 1338 2009 
Q 1338 2731 1133 3434 
Q 928 4138 513 4856 
z
" transform="scale(0.015625)"/>
      </defs>
      <use xlink:href="#DejaVuSans-6c"/>
      <use xlink:href="#DejaVuSans-6f" transform="translate(27.783203 0)"/>
      <use xlink:href="#DejaVuSans-67" transform="translate(88.964844 0)"/>
      <use xlink:href="#DejaVuSans-31" transform="translate(152.441406 0)"/>
      <use xlink:href="#DejaVuSans-30" transform="translate(216.064453 0)"/>
      <use xlink:href="#DejaVuSans-28" transform="translate(279.6875 0)"/>
      <use xlink:href="#DejaVuSans-43" transform="translate(318.701172 0)"/>
      <use xlink:href="#DejaVuSans-29" transform="translate(388.525391 0)"/>
     </g>
    </g>
   </g>
   <g id="matplotlib.axis_2">
    <g id="ytick_1">
     <g id="line2d_8">
      <defs>
       <path id="m861211ed74" d="M 0 0 
L -3.5 0 
" style="stroke: #000000; stroke-width: 0.8"/>
      </defs>
      <g>
       <use xlink:href="#m861211ed74" x="67.79" y="444.76" style="stroke: #000000; stroke-width: 0.8"/>
      </g>
     </g>
     <g id="text_9">
      <!-- 0.0 -->
      <g transform="translate(38.525625 450.078906) scale(0.14 -0.14)">
       <defs>
        <path id="DejaVuSans-2e" d="M 684 794 
L 1344 794 
L 1344 0 
L 684 0 
L 684 794 
z
" transform="scale(0.015625)"/>
       </defs>
       <use xlink:href="#DejaVuSans-30"/>
       <use xlink:href="#DejaVuSans-2e" transform="translate(63.623047 0)"/>
       <use xlink:href="#DejaVuSans-30" transform="translate(95.410156 0)"/>
      </g>
     </g>
    </g>
    <g id="ytick_2">
     <g id="line2d_9">
      <g>
       <use xlink:href="#m861211ed74" x="67.79" y="365.222745" style="stroke: #000000; stroke-width: 0.8"/>
      </g>
     </g>
     <g id="text_10">
      <!-- 0.2 -->
      <g transform="translate(38.525625 370.541651) scale(0.14 -0.14)">
       <use xlink:href="#DejaVuSans-30"/>
       <use xlink:href="#DejaVuSans-2e" transform="translate(63.623047 0)"/>
       <use xlink:href="#DejaVuSans-32" transform="translate(95.410156 0)"/>
      </g>
     </g>
    </g>
    <g id="ytick_3">
     <g id="line2d_10">
      <g>
       <use xlink:href="#m861211ed74" x="67.79" y="285.68549" style="stroke: #000000; stroke-width: 0.8"/>
      </g>
     </g>
     <g id="text_11">
      <!-- 0.4 -->
      <g transform="translate(38.525625 291.004396) scale(0.14 -0.14)">
       <use xlink:href="#DejaVuSans-30"/>
       <use xlink:href="#DejaVuSans-2e" transform="translate(63.623047 0)"/>
       <use xlink:href="#DejaVuSans-34" transform="translate(95.410156 0)"/>
      </g>
     </g>
    </g>
    <g id="ytick_4">
     <g id="line2d_11">
      <g>
       <use xlink:href="#m861211ed74" x="67.79" y="206.148235" style="stroke: #000000; stroke-width: 0.8"/>
      </g>
     </g>
     <g id="text_12">
      <!-- 0.6 -->
      <g transform="translate(38.525625 211.467142) scale(0.14 -0.14)">
       <defs>
        <path id="DejaVuSans-36" d="M 2113 2584 
Q 1688 2584 1439 2293 
Q 1191 2003 1191 1497 
Q 1191 994 1439 701 
Q 1688 409 2113 409 
Q 2538 409 2786 701 
Q 3034 994 3034 1497 
Q 3034 2003 2786 2293 
Q 2538 2584 2113 2584 
z
M 3366 4563 
L 3366 3988 
Q 3128 4100 2886 4159 
Q 2644 4219 2406 4219 
Q 1781 4219 1451 3797 
Q 1122 3375 1075 2522 
Q 1259 2794 1537 2939 
Q 1816 3084 2150 3084 
Q 2853 3084 3261 2657 
Q 3669 2231 3669 1497 
Q 3669 778 3244 343 
Q 2819 -91 2113 -91 
Q 1303 -91 875 529 
Q 447 1150 447 2328 
Q 447 3434 972 4092 
Q 1497 4750 2381 4750 
Q 2619 4750 2861 4703 
Q 3103 4656 3366 4563 
z
" transform="scale(0.015625)"/>
       </defs>
       <use xlink:href="#DejaVuSans-30"/>
       <use xlink:href="#DejaVuSans-2e" transform="translate(63.623047 0)"/>
       <use xlink:href="#DejaVuSans-36" transform="translate(95.410156 0)"/>
      </g>
     </g>
    </g>
    <g id="ytick_5">
     <g id="line2d_12">
      <g>
       <use xlink:href="#m861211ed74" x="67.79" y="126.61098" style="stroke: #000000; stroke-width: 0.8"/>
      </g>
     </g>
     <g id="text_13">
      <!-- 0.8 -->
      <g transform="translate(38.525625 131.929887) scale(0.14 -0.14)">
       <defs>
        <path id="DejaVuSans-38" d="M 2034 2216 
Q 1584 2216 1326 1975 
Q 1069 1734 1069 1313 
Q 1069 891 1326 650 
Q 1584 409 2034 409 
Q 2484 409 2743 651 
Q 3003 894 3003 1313 
Q 3003 1734 2745 1975 
Q 2488 2216 2034 2216 
z
M 1403 2484 
Q 997 2584 770 2862 
Q 544 3141 544 3541 
Q 544 4100 942 4425 
Q 1341 4750 2034 4750 
Q 2731 4750 3128 4425 
Q 3525 4100 3525 3541 
Q 3525 3141 3298 2862 
Q 3072 2584 2669 2484 
Q 3125 2378 3379 2068 
Q 3634 1759 3634 1313 
Q 3634 634 3220 271 
Q 2806 -91 2034 -91 
Q 1263 -91 848 271 
Q 434 634 434 1313 
Q 434 1759 690 2068 
Q 947 2378 1403 2484 
z
M 1172 3481 
Q 1172 3119 1398 2916 
Q 1625 2713 2034 2713 
Q 2441 2713 2670 2916 
Q 2900 3119 2900 3481 
Q 2900 3844 2670 4047 
Q 2441 4250 2034 4250 
Q 1625 4250 1398 4047 
Q 1172 3844 1172 3481 
z
" transform="scale(0.015625)"/>
       </defs>
       <use xlink:href="#DejaVuSans-30"/>
       <use xlink:href="#DejaVuSans-2e" transform="translate(63.623047 0)"/>
       <use xlink:href="#DejaVuSans-38" transform="translate(95.410156 0)"/>
      </g>
     </g>
    </g>
    <g id="ytick_6">
     <g id="line2d_13">
      <g>
       <use xlink:href="#m861211ed74" x="67.79" y="47.073725" style="stroke: #000000; stroke-width: 0.8"/>
      </g>
     </g>
     <g id="text_14">
      <!-- 1.0 -->
      <g transform="translate(38.525625 52.392632) scale(0.14 -0.14)">
       <use xlink:href="#DejaVuSans-31"/>
       <use xlink:href="#DejaVuSans-2e" transform="translate(63.623047 0)"/>
       <use xlink:href="#DejaVuSans-30" transform="translate(95.410156 0)"/>
      </g>
     </g>
    </g>
    <g id="text_15">
     <!-- CV accuracy (train only) -->
     <g transform="translate(30.782188 350.577031) rotate(-90) scale(0.18 -0.18)">
      <defs>
       <path id="DejaVuSans-56" d="M 1831 0 
L 50 4666 
L 709 4666 
L 2188 738 
L 3669 4666 
L 4325 4666 
L 2547 0 
L 1831 0 
z
" transform="scale(0.015625)"/>
       <path id="DejaVuSans-20" transform="scale(0.015625)"/>
       <path id="DejaVuSans-61" d="M 2194 1759 
Q 1497 1759 1228 1600 
Q 959 1441 959 1056 
Q 959 750 1161 570 
Q 1363 391 1709 391 
Q 2188 391 2477 730 
Q 2766 1069 2766 1631 
L 2766 1759 
L 2194 1759 
z
M 3341 1997 
L 3341 0 
L 2766 0 
L 2766 531 
Q 2569 213 2275 61 
Q 1981 -91 1556 -91 
Q 1019 -91 701 211 
Q 384 513 384 1019 
Q 384 1609 779 1909 
Q 1175 2209 1959 2209 
L 2766 2209 
L 2766 2266 
Q 2766 2663 2505 2880 
Q 2244 3097 1772 3097 
Q 1472 3097 1187 3025 
Q 903 2953 641 2809 
L 641 3341 
Q 956 3463 1253 3523 
Q 1550 3584 1831 3584 
Q 2591 3584 2966 3190 
Q 3341 2797 3341 1997 
z
" transform="scale(0.015625)"/>
       <path id="DejaVuSans-63" d="M 3122 3366 
L 3122 2828 
Q 2878 2963 2633 3030 
Q 2388 3097 2138 3097 
Q 1578 3097 1268 2742 
Q 959 2388 959 1747 
Q 959 1106 1268 751 
Q 1578 397 2138 397 
Q 2388 397 2633 464 
Q 2878 531 3122 666 
L 3122 134 
Q 2881 22 2623 -34 
Q 2366 -91 2075 -91 
Q 1284 -91 818 406 
Q 353 903 353 1747 
Q 353 2603 823 3093 
Q 1294 3584 2113 3584 
Q 2378 3584 2631 3529 
Q 2884 3475 3122 3366 
z
" transform="scale(0.015625)"/>
       <path id="DejaVuSans-75" d="M 544 1381 
L 544 3500 
L 1119 3500 
L 1119 1403 
Q 1119 906 1312 657 
Q 1506 409 1894 409 
Q 2359 409 2629 706 
Q 2900 1003 2900 1516 
L 2900 3500 
L 3475 3500 
L 3475 0 
L 2900 0 
L 2900 538 
Q 2691 219 2414 64 
Q 2138 -91 1772 -91 
Q 1169 -91 856 284 
Q 544 659 544 1381 
z
M 1991 3584 
L 1991 3584 
z
" transform="scale(0.015625)"/>
       <path id="DejaVuSans-72" d="M 2631 2963 
Q 2534 3019 2420 3045 
Q 2306 3072 2169 3072 
Q 1681 3072 1420 2755 
Q 1159 2438 1159 1844 
L 1159 0 
L 581 0 
L 581 3500 
L 1159 3500 
L 1159 2956 
Q 1341 3275 1631 3429 
Q 1922 3584 2338 3584 
Q 2397 3584 2469 3576 
Q 2541 3569 2628 3553 
L 2631 2963 
z
" transform="scale(0.015625)"/>
       <path id="DejaVuSans-79" d="M 2059 -325 
Q 1816 -950 1584 -1140 
Q 1353 -1331 966 -1331 
L 506 -1331 
L 506 -850 
L 844 -850 
Q 1081 -850 1212 -737 
Q 1344 -625 1503 -206 
L 1606 56 
L 191 3500 
L 800 3500 
L 1894 763 
L 2988 3500 
L 3597 3500 
L 2059 -325 
z
" transform="scale(0.015625)"/>
       <path id="DejaVuSans-74" d="M 1172 4494 
L 1172 3500 
L 2356 3500 
L 2356 3053 
L 1172 3053 
L 1172 1153 
Q 1172 725 1289 603 
Q 1406 481 1766 481 
L 2356 481 
L 2356 0 
L 1766 0 
Q 1100 0 847 248 
Q 594 497 594 1153 
L 594 3053 
L 172 3053 
L 172 3500 
L 594 3500 
L 594 4494 
L 1172 4494 
z
" transform="scale(0.015625)"/>
       <path id="DejaVuSans-69" d="M 603 3500 
L 1178 3500 
L 1178 0 
L 603 0 
L 603 3500 
z
M 603 4863 
L 1178 4863 
L 1178 4134 
L 603 4134 
L 603 4863 
z
" transform="scale(0.015625)"/>
       <path id="DejaVuSans-6e" d="M 3513 2113 
L 3513 0 
L 2938 0 
L 2938 2094 
Q 2938 2591 2744 2837 
Q 2550 3084 2163 3084 
Q 1697 3084 1428 2787 
Q 1159 2491 1159 1978 
L 1159 0 
L 581 0 
L 581 3500 
L 1159 3500 
L 1159 2956 
Q 1366 3272 1645 3428 
Q 1925 3584 2291 3584 
Q 2894 3584 3203 3211 
Q 3513 2838 3513 2113 
z
" transform="scale(0.015625)"/>
      </defs>
      <use xlink:href="#DejaVuSans-43"/>
      <use xlink:href="#DejaVuSans-56" transform="translate(69.824219 0)"/>
      <use xlink:href="#DejaVuSans-20" transform="translate(138.232422 0)"/>
      <use xlink:href="#DejaVuSans-61" transform="translate(170.019531 0)"/>
      <use xlink:href="#DejaVuSans-63" transform="translate(231.298828 0)"/>
      <use xlink:href="#DejaVuSans-63" transform="translate(286.279297 0)"/>
      <use xlink:href="#DejaVuSans-75" transform="translate(341.259766 0)"/>
      <use xlink:href="#DejaVuSans-72" transform="translate(404.638672 0)"/>
      <use xlink:href="#DejaVuSans-61" transform="translate(445.751953 0)"/>
      <use xlink:href="#DejaVuSans-63" transform="translate(507.03125 0)"/>
      <use xlink:href="#DejaVuSans-79" transform="translate(562.011719 0)"/>
      <use xlink:href="#DejaVuSans-20" transform="translate(621.191406 0)"/>
      <use xlink:href="#DejaVuSans-28" transform="translate(652.978516 0)"/>
      <use xlink:href="#DejaVuSans-74" transform="translate(691.992188 0)"/>
      <use xlink:href="#DejaVuSans-72" transform="translate(731.201172 0)"/>
      <use xlink:href="#DejaVuSans-61" transform="translate(772.314453 0)"/>
      <use xlink:href="#DejaVuSans-69" transform="translate(833.59375 0)"/>
      <use xlink:href="#DejaVuSans-6e" transform="translate(861.376953 0)"/>
      <use xlink:href="#DejaVuSans-20" transform="translate(924.755859 0)"/>
      <use xlink:href="#DejaVuSans-6f" transform="translate(956.542969 0)"/>
      <use xlink:href="#DejaVuSans-6e" transform="translate(1017.724609 0)"/>
      <use xlink:href="#DejaVuSans-6c" transform="translate(1081.103516 0)"/>
      <use xlink:href="#DejaVuSans-79" transform="translate(1108.886719 0)"/>
      <use xlink:href="#DejaVuSans-29" transform="translate(1168.066406 0)"/>
     </g>
    </g>
   </g>
   <g id="line2d_14">
    <path d="M 99.923182 264.348428 
L 126.700833 264.348428 
L 153.478485 264.348428 
L 180.256136 264.348428 
L 207.033788 264.348428 
L 233.811439 264.348428 
L 260.589091 264.348428 
L 287.366742 151.369194 
L 314.144394 120.499847 
L 340.922045 87.834171 
L 367.699697 74.345898 
L 394.477348 65.653105 
L 421.255 61.457907 
L 448.032652 60.56087 
L 474.810303 59.061295 
L 501.587955 59.062424 
L 528.365606 57.865246 
L 555.143258 57.865246 
L 581.920909 58.463271 
L 608.698561 59.362564 
L 635.476212 60.86101 
L 662.253864 61.460163 
L 689.031515 61.760304 
L 715.809167 61.758047 
L 742.586818 61.157766 
" clip-path="url(#pfca530099c)" style="fill: none; stroke: #1f77b4; stroke-width: 2.5; stroke-linecap: square"/>
   </g>
   <g id="line2d_15">
    <path d="M 99.923182 189.711404 
L 126.700833 189.711404 
L 153.478485 189.711404 
L 180.256136 189.711404 
L 207.033788 189.711404 
L 233.811439 189.711404 
L 260.589091 189.711404 
L 287.366742 192.417609 
L 314.144394 111.934411 
L 340.922045 97.670065 
L 367.699697 89.859533 
L 394.477348 82.728806 
L 421.255 79.33701 
L 448.032652 77.981738 
L 474.810303 80.021155 
L 501.587955 78.324533 
L 528.365606 76.623573 
L 555.143258 77.303379 
L 581.920909 76.964922 
L 608.698561 76.964922 
L 635.476212 77.984631 
L 662.253864 77.304825 
L 689.031515 77.983184 
L 715.809167 77.983184 
L 742.586818 77.983184 
" clip-path="url(#pfca530099c)" style="fill: none; stroke: #ff7f0e; stroke-width: 2.5; stroke-linecap: square"/>
   </g>
   <g id="line2d_16">
    <path d="M 99.923182 240.859596 
L 126.700833 240.859596 
L 153.478485 240.859596 
L 180.256136 240.859596 
L 207.033788 240.859596 
L 233.811439 240.859596 
L 260.589091 240.859596 
L 287.366742 192.94166 
L 314.144394 96.979691 
L 340.922045 85.56261 
L 367.699697 79.695107 
L 394.477348 79.044504 
L 421.255 75.779415 
L 448.032652 72.51835 
L 474.810303 70.889829 
L 501.587955 69.254602 
L 528.365606 70.232519 
L 555.143258 72.188353 
L 581.920909 73.496267 
L 608.698561 73.171636 
L 635.476212 72.193719 
L 662.253864 73.172977 
L 689.031515 73.49895 
L 715.809167 73.49895 
L 742.586818 73.172977 
" clip-path="url(#pfca530099c)" style="fill: none; stroke: #2ca02c; stroke-width: 2.5; stroke-linecap: square"/>
   </g>
   <g id="line2d_17">
    <path d="M 99.923182 204.420427 
L 126.700833 204.420427 
L 153.478485 204.420427 
L 180.256136 204.420427 
L 207.033788 204.420427 
L 233.811439 204.420427 
L 260.589091 204.420427 
L 287.366742 85.939246 
L 314.144394 73.946225 
L 340.922045 61.956107 
L 367.699697 57.638038 
L 394.477348 53.314162 
L 421.255 51.870934 
L 448.032652 50.90975 
L 474.810303 49.95147 
L 501.587955 49.47233 
L 528.365606 49.469426 
L 555.143258 49.469426 
L 581.920909 48.990286 
L 608.698561 48.990286 
L 635.476212 48.990286 
L 662.253864 49.469426 
L 689.031515 49.469426 
L 715.809167 50.427706 
L 742.586818 50.906846 
" clip-path="url(#pfca530099c)" style="fill: none; stroke: #d62728; stroke-width: 2.5; stroke-linecap: square"/>
   </g>
   <g id="line2d_18">
    <path d="M 99.923182 227.787047 
L 126.700833 227.787047 
L 153.478485 227.787047 
L 180.256136 227.787047 
L 207.033788 227.787047 
L 233.811439 227.787047 
L 260.589091 227.787047 
L 287.366742 227.787047 
L 314.144394 170.473437 
L 340.922045 147.080127 
L 367.699697 111.405329 
L 394.477348 95.614844 
L 421.255 87.427186 
L 448.032652 75.145698 
L 474.810303 72.221534 
L 501.587955 73.3912 
L 528.365606 75.730531 
L 555.143258 77.485029 
L 581.920909 80.409193 
L 608.698561 80.994025 
L 635.476212 80.409193 
L 662.253864 80.409193 
L 689.031515 80.994025 
L 715.809167 80.994025 
L 742.586818 79.82436 
" clip-path="url(#pfca530099c)" style="fill: none; stroke: #9467bd; stroke-width: 2.5; stroke-linecap: square"/>
   </g>
   <g id="line2d_19">
    <path d="M 99.923182 237.730001 
L 126.700833 237.730001 
L 153.478485 237.730001 
L 180.256136 237.730001 
L 207.033788 237.730001 
L 233.811439 237.730001 
L 260.589091 138.227036 
L 287.366742 117.761126 
L 314.144394 106.111765 
L 340.922045 100.12834 
L 367.699697 92.571787 
L 394.477348 89.737107 
L 421.255 85.486176 
L 448.032652 85.015545 
L 474.810303 83.59805 
L 501.587955 84.699924 
L 528.365606 84.700546 
L 555.143258 85.173045 
L 581.920909 85.015857 
L 608.698561 84.858357 
L 635.476212 85.015857 
L 662.253864 85.015857 
L 689.031515 85.173356 
L 715.809167 85.015857 
L 742.586818 85.015857 
" clip-path="url(#pfca530099c)" style="fill: none; stroke: #8c564b; stroke-width: 2.5; stroke-linecap: square"/>
   </g>
   <g id="line2d_20">
    <path d="M 99.923182 258.613443 
L 126.700833 258.613443 
L 153.478485 258.613443 
L 180.256136 258.613443 
L 207.033788 258.613443 
L 233.811439 258.613443 
L 260.589091 153.053445 
L 287.366742 126.40112 
L 314.144394 103.106567 
L 340.922045 94.082552 
L 367.699697 84.638814 
L 394.477348 76.454242 
L 421.255 72.257025 
L 448.032652 68.269669 
L 474.810303 67.220365 
L 501.587955 67.010504 
L 528.365606 65.9612 
L 555.143258 66.380922 
L 581.920909 67.849948 
L 608.698561 69.318974 
L 635.476212 72.047164 
L 662.253864 73.306329 
L 689.031515 74.355634 
L 715.809167 76.03452 
L 742.586818 76.03452 
" clip-path="url(#pfca530099c)" style="fill: none; stroke: #e377c2; stroke-width: 2.5; stroke-linecap: square"/>
   </g>
   <g id="line2d_21">
    <path d="M 99.923182 237.123353 
L 126.700833 237.123353 
L 153.478485 237.123353 
L 180.256136 237.123353 
L 207.033788 237.123353 
L 233.811439 113.792684 
L 260.589091 96.756779 
L 287.366742 92.909011 
L 314.144394 82.025007 
L 340.922045 74.880737 
L 367.699697 67.736467 
L 394.477348 65.429295 
L 421.255 62.572681 
L 448.032652 61.034364 
L 474.810303 61.91338 
L 501.587955 62.572985 
L 528.365606 64.33117 
L 555.143258 65.3205 
L 581.920909 67.408564 
L 608.698561 68.837327 
L 635.476212 72.134285 
L 662.253864 74.662236 
L 689.031515 75.651415 
L 715.809167 75.651263 
L 742.586818 76.091455 
" clip-path="url(#pfca530099c)" style="fill: none; stroke: #7f7f7f; stroke-width: 2.5; stroke-linecap: square"/>
   </g>
   <g id="line2d_22">
    <path d="M 99.923182 217.780521 
L 126.700833 217.780521 
L 153.478485 217.780521 
L 180.256136 217.780521 
L 207.033788 217.780521 
L 233.811439 217.780521 
L 260.589091 76.677427 
L 287.366742 60.932313 
L 314.144394 56.312599 
L 340.922045 54.841352 
L 367.699697 54.001909 
L 394.477348 53.371771 
L 421.255 52.95205 
L 448.032652 53.16191 
L 474.810303 52.742189 
L 501.587955 52.323022 
L 528.365606 52.953715 
L 555.143258 52.743854 
L 581.920909 53.583853 
L 608.698561 53.793714 
L 635.476212 53.372882 
L 662.253864 53.163021 
L 689.031515 53.793158 
L 715.809167 53.372326 
L 742.586818 53.162466 
" clip-path="url(#pfca530099c)" style="fill: none; stroke: #bcbd22; stroke-width: 2.5; stroke-linecap: square"/>
   </g>
   <g id="line2d_23">
    <path d="M 67.79 245.916863 
L 774.72 245.916863 
" clip-path="url(#pfca530099c)" style="fill: none; stroke-dasharray: 7.4,3.2; stroke-dashoffset: 0; stroke: #808080; stroke-opacity: 0.7; stroke-width: 2"/>
   </g>
   <g id="patch_3">
    <path d="M 67.79 444.76 
L 67.79 39.12 
" style="fill: none; stroke: #000000; stroke-width: 0.8; stroke-linejoin: miter; stroke-linecap: square"/>
   </g>
   <g id="patch_4">
    <path d="M 774.72 444.76 
L 774.72 39.12 
" style="fill: none; stroke: #000000; stroke-width: 0.8; stroke-linejoin: miter; stroke-linecap: square"/>
   </g>
   <g id="patch_5">
    <path d="M 67.79 444.76 
L 774.72 444.76 
" style="fill: none; stroke: #000000; stroke-width: 0.8; stroke-linejoin: miter; stroke-linecap: square"/>
   </g>
   <g id="patch_6">
    <path d="M 67.79 39.12 
L 774.72 39.12 
" style="fill: none; stroke: #000000; stroke-width: 0.8; stroke-linejoin: miter; stroke-linecap: square"/>
   </g>
   <g id="text_16">
    <!-- L1 Logistic Regression: CV accuracy vs C -->
    <g transform="translate(217.089375 33.12) scale(0.2 -0.2)">
     <defs>
      <path id="DejaVuSans-4c" d="M 628 4666 
L 1259 4666 
L 1259 531 
L 3531 531 
L 3531 0 
L 628 0 
L 628 4666 
z
" transform="scale(0.015625)"/>
      <path id="DejaVuSans-73" d="M 2834 3397 
L 2834 2853 
Q 2591 2978 2328 3040 
Q 2066 3103 1784 3103 
Q 1356 3103 1142 2972 
Q 928 2841 928 2578 
Q 928 2378 1081 2264 
Q 1234 2150 1697 2047 
L 1894 2003 
Q 2506 1872 2764 1633 
Q 3022 1394 3022 966 
Q 3022 478 2636 193 
Q 2250 -91 1575 -91 
Q 1294 -91 989 -36 
Q 684 19 347 128 
L 347 722 
Q 666 556 975 473 
Q 1284 391 1588 391 
Q 1994 391 2212 530 
Q 2431 669 2431 922 
Q 2431 1156 2273 1281 
Q 2116 1406 1581 1522 
L 1381 1569 
Q 847 1681 609 1914 
Q 372 2147 372 2553 
Q 372 3047 722 3315 
Q 1072 3584 1716 3584 
Q 2034 3584 2315 3537 
Q 2597 3491 2834 3397 
z
" transform="scale(0.015625)"/>
      <path id="DejaVuSans-52" d="M 2841 2188 
Q 3044 2119 3236 1894 
Q 3428 1669 3622 1275 
L 4263 0 
L 3584 0 
L 2988 1197 
Q 2756 1666 2539 1819 
Q 2322 1972 1947 1972 
L 1259 1972 
L 1259 0 
L 628 0 
L 628 4666 
L 2053 4666 
Q 2853 4666 3247 4331 
Q 3641 3997 3641 3322 
Q 3641 2881 3436 2590 
Q 3231 2300 2841 2188 
z
M 1259 4147 
L 1259 2491 
L 2053 2491 
Q 2509 2491 2742 2702 
Q 2975 2913 2975 3322 
Q 2975 3731 2742 3939 
Q 2509 4147 2053 4147 
L 1259 4147 
z
" transform="scale(0.015625)"/>
      <path id="DejaVuSans-65" d="M 3597 1894 
L 3597 1613 
L 953 1613 
Q 991 1019 1311 708 
Q 1631 397 2203 397 
Q 2534 397 2845 478 
Q 3156 559 3463 722 
L 3463 178 
Q 3153 47 2828 -22 
Q 2503 -91 2169 -91 
Q 1331 -91 842 396 
Q 353 884 353 1716 
Q 353 2575 817 3079 
Q 1281 3584 2069 3584 
Q 2775 3584 3186 3129 
Q 3597 2675 3597 1894 
z
M 3022 2063 
Q 3016 2534 2758 2815 
Q 2500 3097 2075 3097 
Q 1594 3097 1305 2825 
Q 1016 2553 972 2059 
L 3022 2063 
z
" transform="scale(0.015625)"/>
      <path id="DejaVuSans-3a" d="M 750 794 
L 1409 794 
L 1409 0 
L 750 0 
L 750 794 
z
M 750 3309 
L 1409 3309 
L 1409 2516 
L 750 2516 
L 750 3309 
z
" transform="scale(0.015625)"/>
      <path id="DejaVuSans-76" d="M 191 3500 
L 800 3500 
L 1894 563 
L 2988 3500 
L 3597 3500 
L 2284 0 
L 1503 0 
L 191 3500 
z
" transform="scale(0.015625)"/>
     </defs>
     <use xlink:href="#DejaVuSans-4c"/>
     <use xlink:href="#DejaVuSans-31" transform="translate(55.712891 0)"/>
     <use xlink:href="#DejaVuSans-20" transform="translate(119.335938 0)"/>
     <use xlink:href="#DejaVuSans-4c" transform="translate(151.123047 0)"/>
     <use xlink:href="#DejaVuSans-6f" transform="translate(205.085938 0)"/>
     <use xlink:href="#DejaVuSans-67" transform="translate(266.267578 0)"/>
     <use xlink:href="#DejaVuSans-69" transform="translate(329.744141 0)"/>
     <use xlink:href="#DejaVuSans-73" transform="translate(357.527344 0)"/>
     <use xlink:href="#DejaVuSans-74" transform="translate(409.626953 0)"/>
     <use xlink:href="#DejaVuSans-69" transform="translate(448.835938 0)"/>
     <use xlink:href="#DejaVuSans-63" transform="translate(476.619141 0)"/>
     <use xlink:href="#DejaVuSans-20" transform="translate(531.599609 0)"/>
     <use xlink:href="#DejaVuSans-52" transform="translate(563.386719 0)"/>
     <use xlink:href="#DejaVuSans-65" transform="translate(628.369141 0)"/>
     <use xlink:href="#DejaVuSans-67" transform="translate(689.892578 0)"/>
     <use xlink:href="#DejaVuSans-72" transform="translate(753.369141 0)"/>
     <use xlink:href="#DejaVuSans-65" transform="translate(792.232422 0)"/>
     <use xlink:href="#DejaVuSans-73" transform="translate(853.755859 0)"/>
     <use xlink:href="#DejaVuSans-73" transform="translate(905.855469 0)"/>
     <use xlink:href="#DejaVuSans-69" transform="translate(957.955078 0)"/>
     <use xlink:href="#DejaVuSans-6f" transform="translate(985.738281 0)"/>
     <use xlink:href="#DejaVuSans-6e" transform="translate(1046.919922 0)"/>
     <use xlink:href="#DejaVuSans-3a" transform="translate(1110.298828 0)"/>
     <use xlink:href="#DejaVuSans-20" transform="translate(1143.990234 0)"/>
     <use xlink:href="#DejaVuSans-43" transform="translate(1175.777344 0)"/>
     <use xlink:href="#DejaVuSans-56" transform="translate(1245.601562 0)"/>
     <use xlink:href="#DejaVuSans-20" transform="translate(1314.009766 0)"/>
     <use xlink:href="#DejaVuSans-61" transform="translate(1345.796875 0)"/>
     <use xlink:href="#DejaVuSans-63" transform="translate(1407.076172 0)"/>
     <use xlink:href="#DejaVuSans-63" transform="translate(1462.056641 0)"/>
     <use xlink:href="#DejaVuSans-75" transform="translate(1517.037109 0)"/>
     <use xlink:href="#DejaVuSans-72" transform="translate(1580.416016 0)"/>
     <use xlink:href="#DejaVuSans-61" transform="translate(1621.529297 0)"/>
     <use xlink:href="#DejaVuSans-63" transform="translate(1682.808594 0)"/>
     <use xlink:href="#DejaVuSans-79" transform="translate(1737.789062 0)"/>
     <use xlink:href="#DejaVuSans-20" transform="translate(1796.96875 0)"/>
     <use xlink:href="#DejaVuSans-76" transform="translate(1828.755859 0)"/>
     <use xlink:href="#DejaVuSans-73" transform="translate(1887.935547 0)"/>
     <use xlink:href="#DejaVuSans-20" transform="translate(1940.035156 0)"/>
     <use xlink:href="#DejaVuSans-43" transform="translate(1971.822266 0)"/>
    </g>
   </g>
   <g id="legend_1">
    <g id="patch_7">
     <path d="M 76.19 438.76 
L 307.90625 438.76 
Q 310.30625 438.76 310.30625 436.36 
L 310.30625 349.49125 
Q 310.30625 347.09125 307.90625 347.09125 
L 76.19 347.09125 
Q 73.79 347.09125 73.79 349.49125 
L 73.79 436.36 
Q 73.79 438.76 76.19 438.76 
z
" style="fill: #ffffff; opacity: 0.8; stroke: #cccccc; stroke-linejoin: miter"/>
    </g>
    <g id="line2d_24">
     <path d="M 78.59 356.809375 
L 90.59 356.809375 
L 102.59 356.809375 
" style="fill: none; stroke: #1f77b4; stroke-width: 2.5; stroke-linecap: square"/>
    </g>
    <g id="text_17">
     <!-- Dataset 1 -->
     <g transform="translate(112.19 361.009375) scale(0.12 -0.12)">
      <defs>
       <path id="DejaVuSans-44" d="M 1259 4147 
L 1259 519 
L 2022 519 
Q 2988 519 3436 956 
Q 3884 1394 3884 2338 
Q 3884 3275 3436 3711 
Q 2988 4147 2022 4147 
L 1259 4147 
z
M 628 4666 
L 1925 4666 
Q 3281 4666 3915 4102 
Q 4550 3538 4550 2338 
Q 4550 1131 3912 565 
Q 3275 0 1925 0 
L 628 0 
L 628 4666 
z
" transform="scale(0.015625)"/>
      </defs>
      <use xlink:href="#DejaVuSans-44"/>
      <use xlink:href="#DejaVuSans-61" transform="translate(77.001953 0)"/>
      <use xlink:href="#DejaVuSans-74" transform="translate(138.28125 0)"/>
      <use xlink:href="#DejaVuSans-61" transform="translate(177.490234 0)"/>
      <use xlink:href="#DejaVuSans-73" transform="translate(238.769531 0)"/>
      <use xlink:href="#DejaVuSans-65" transform="translate(290.869141 0)"/>
      <use xlink:href="#DejaVuSans-74" transform="translate(352.392578 0)"/>
      <use xlink:href="#DejaVuSans-20" transform="translate(391.601562 0)"/>
      <use xlink:href="#DejaVuSans-31" transform="translate(423.388672 0)"/>
     </g>
    </g>
    <g id="line2d_25">
     <path d="M 78.59 374.423125 
L 90.59 374.423125 
L 102.59 374.423125 
" style="fill: none; stroke: #ff7f0e; stroke-width: 2.5; stroke-linecap: square"/>
    </g>
    <g id="text_18">
     <!-- Dataset 2 -->
     <g transform="translate(112.19 378.623125) scale(0.12 -0.12)">
      <use xlink:href="#DejaVuSans-44"/>
      <use xlink:href="#DejaVuSans-61" transform="translate(77.001953 0)"/>
      <use xlink:href="#DejaVuSans-74" transform="translate(138.28125 0)"/>
      <use xlink:href="#DejaVuSans-61" transform="translate(177.490234 0)"/>
      <use xlink:href="#DejaVuSans-73" transform="translate(238.769531 0)"/>
      <use xlink:href="#DejaVuSans-65" transform="translate(290.869141 0)"/>
      <use xlink:href="#DejaVuSans-74" transform="translate(352.392578 0)"/>
      <use xlink:href="#DejaVuSans-20" transform="translate(391.601562 0)"/>
      <use xlink:href="#DejaVuSans-32" transform="translate(423.388672 0)"/>
     </g>
    </g>
    <g id="line2d_26">
     <path d="M 78.59 392.036875 
L 90.59 392.036875 
L 102.59 392.036875 
" style="fill: none; stroke: #2ca02c; stroke-width: 2.5; stroke-linecap: square"/>
    </g>
    <g id="text_19">
     <!-- Dataset 3 -->
     <g transform="translate(112.19 396.236875) scale(0.12 -0.12)">
      <use xlink:href="#DejaVuSans-44"/>
      <use xlink:href="#DejaVuSans-61" transform="translate(77.001953 0)"/>
      <use xlink:href="#DejaVuSans-74" transform="translate(138.28125 0)"/>
      <use xlink:href="#DejaVuSans-61" transform="translate(177.490234 0)"/>
      <use xlink:href="#DejaVuSans-73" transform="translate(238.769531 0)"/>
      <use xlink:href="#DejaVuSans-65" transform="translate(290.869141 0)"/>
      <use xlink:href="#DejaVuSans-74" transform="translate(352.392578 0)"/>
      <use xlink:href="#DejaVuSans-20" transform="translate(391.601562 0)"/>
      <use xlink:href="#DejaVuSans-33" transform="translate(423.388672 0)"/>
     </g>
    </g>
    <g id="line2d_27">
     <path d="M 78.59 409.650625 
L 90.59 409.650625 
L 102.59 409.650625 
" style="fill: none; stroke: #d62728; stroke-width: 2.5; stroke-linecap: square"/>
    </g>
    <g id="text_20">
     <!-- Dataset 4 -->
     <g transform="translate(112.19 413.850625) scale(0.12 -0.12)">
      <use xlink:href="#DejaVuSans-44"/>
      <use xlink:href="#DejaVuSans-61" transform="translate(77.001953 0)"/>
      <use xlink:href="#DejaVuSans-74" transform="translate(138.28125 0)"/>
      <use xlink:href="#DejaVuSans-61" transform="translate(177.490234 0)"/>
      <use xlink:href="#DejaVuSans-73" transform="translate(238.769531 0)"/>
      <use xlink:href="#DejaVuSans-65" transform="translate(290.869141 0)"/>
      <use xlink:href="#DejaVuSans-74" transform="translate(352.392578 0)"/>
      <use xlink:href="#DejaVuSans-20" transform="translate(391.601562 0)"/>
      <use xlink:href="#DejaVuSans-34" transform="translate(423.388672 0)"/>
     </g>
    </g>
    <g id="line2d_28">
     <path d="M 78.59 427.264375 
L 90.59 427.264375 
L 102.59 427.264375 
" style="fill: none; stroke: #9467bd; stroke-width: 2.5; stroke-linecap: square"/>
    </g>
    <g id="text_21">
     <!-- Dataset 5 -->
     <g transform="translate(112.19 431.464375) scale(0.12 -0.12)">
      <defs>
       <path id="DejaVuSans-35" d="M 691 4666 
L 3169 4666 
L 3169 4134 
L 1269 4134 
L 1269 2991 
Q 1406 3038 1543 3061 
Q 1681 3084 1819 3084 
Q 2600 3084 3056 2656 
Q 3513 2228 3513 1497 
Q 3513 744 3044 326 
Q 2575 -91 1722 -91 
Q 1428 -91 1123 -41 
Q 819 9 494 109 
L 494 744 
Q 775 591 1075 516 
Q 1375 441 1709 441 
Q 2250 441 2565 725 
Q 2881 1009 2881 1497 
Q 2881 1984 2565 2268 
Q 2250 2553 1709 2553 
Q 1456 2553 1204 2497 
Q 953 2441 691 2322 
L 691 4666 
z
" transform="scale(0.015625)"/>
      </defs>
      <use xlink:href="#DejaVuSans-44"/>
      <use xlink:href="#DejaVuSans-61" transform="translate(77.001953 0)"/>
      <use xlink:href="#DejaVuSans-74" transform="translate(138.28125 0)"/>
      <use xlink:href="#DejaVuSans-61" transform="translate(177.490234 0)"/>
      <use xlink:href="#DejaVuSans-73" transform="translate(238.769531 0)"/>
      <use xlink:href="#DejaVuSans-65" transform="translate(290.869141 0)"/>
      <use xlink:href="#DejaVuSans-74" transform="translate(352.392578 0)"/>
      <use xlink:href="#DejaVuSans-20" transform="translate(391.601562 0)"/>
      <use xlink:href="#DejaVuSans-35" transform="translate(423.388672 0)"/>
     </g>
    </g>
    <g id="line2d_29">
     <path d="M 194.63 356.809375 
L 206.63 356.809375 
L 218.63 356.809375 
" style="fill: none; stroke: #8c564b; stroke-width: 2.5; stroke-linecap: square"/>
    </g>
    <g id="text_22">
     <!-- Dataset 6 -->
     <g transform="translate(228.23 361.009375) scale(0.12 -0.12)">
      <use xlink:href="#DejaVuSans-44"/>
      <use xlink:href="#DejaVuSans-61" transform="translate(77.001953 0)"/>
      <use xlink:href="#DejaVuSans-74" transform="translate(138.28125 0)"/>
      <use xlink:href="#DejaVuSans-61" transform="translate(177.490234 0)"/>
      <use xlink:href="#DejaVuSans-73" transform="translate(238.769531 0)"/>
      <use xlink:href="#DejaVuSans-65" transform="translate(290.869141 0)"/>
      <use xlink:href="#DejaVuSans-74" transform="translate(352.392578 0)"/>
      <use xlink:href="#DejaVuSans-20" transform="translate(391.601562 0)"/>
      <use xlink:href="#DejaVuSans-36" transform="translate(423.388672 0)"/>
     </g>
    </g>
    <g id="line2d_30">
     <path d="M 194.63 374.423125 
L 206.63 374.423125 
L 218.63 374.423125 
" style="fill: none; stroke: #e377c2; stroke-width: 2.5; stroke-linecap: square"/>
    </g>
    <g id="text_23">
     <!-- Dataset 7 -->
     <g transform="translate(228.23 378.623125) scale(0.12 -0.12)">
      <defs>
       <path id="DejaVuSans-37" d="M 525 4666 
L 3525 4666 
L 3525 4397 
L 1831 0 
L 1172 0 
L 2766 4134 
L 525 4134 
L 525 4666 
z
" transform="scale(0.015625)"/>
      </defs>
      <use xlink:href="#DejaVuSans-44"/>
      <use xlink:href="#DejaVuSans-61" transform="translate(77.001953 0)"/>
      <use xlink:href="#DejaVuSans-74" transform="translate(138.28125 0)"/>
      <use xlink:href="#DejaVuSans-61" transform="translate(177.490234 0)"/>
      <use xlink:href="#DejaVuSans-73" transform="translate(238.769531 0)"/>
      <use xlink:href="#DejaVuSans-65" transform="translate(290.869141 0)"/>
      <use xlink:href="#DejaVuSans-74" transform="translate(352.392578 0)"/>
      <use xlink:href="#DejaVuSans-20" transform="translate(391.601562 0)"/>
      <use xlink:href="#DejaVuSans-37" transform="translate(423.388672 0)"/>
     </g>
    </g>
    <g id="line2d_31">
     <path d="M 194.63 392.036875 
L 206.63 392.036875 
L 218.63 392.036875 
" style="fill: none; stroke: #7f7f7f; stroke-width: 2.5; stroke-linecap: square"/>
    </g>
    <g id="text_24">
     <!-- Dataset 8 -->
     <g transform="translate(228.23 396.236875) scale(0.12 -0.12)">
      <use xlink:href="#DejaVuSans-44"/>
      <use xlink:href="#DejaVuSans-61" transform="translate(77.001953 0)"/>
      <use xlink:href="#DejaVuSans-74" transform="translate(138.28125 0)"/>
      <use xlink:href="#DejaVuSans-61" transform="translate(177.490234 0)"/>
      <use xlink:href="#DejaVuSans-73" transform="translate(238.769531 0)"/>
      <use xlink:href="#DejaVuSans-65" transform="translate(290.869141 0)"/>
      <use xlink:href="#DejaVuSans-74" transform="translate(352.392578 0)"/>
      <use xlink:href="#DejaVuSans-20" transform="translate(391.601562 0)"/>
      <use xlink:href="#DejaVuSans-38" transform="translate(423.388672 0)"/>
     </g>
    </g>
    <g id="line2d_32">
     <path d="M 194.63 409.650625 
L 206.63 409.650625 
L 218.63 409.650625 
" style="fill: none; stroke: #bcbd22; stroke-width: 2.5; stroke-linecap: square"/>
    </g>
    <g id="text_25">
     <!-- Dataset 9 -->
     <g transform="translate(228.23 413.850625) scale(0.12 -0.12)">
      <defs>
       <path id="DejaVuSans-39" d="M 703 97 
L 703 672 
Q 941 559 1184 500 
Q 1428 441 1663 441 
Q 2288 441 2617 861 
Q 2947 1281 2994 2138 
Q 2813 1869 2534 1725 
Q 2256 1581 1919 1581 
Q 1219 1581 811 2004 
Q 403 2428 403 3163 
Q 403 3881 828 4315 
Q 1253 4750 1959 4750 
Q 2769 4750 3195 4129 
Q 3622 3509 3622 2328 
Q 3622 1225 3098 567 
Q 2575 -91 1691 -91 
Q 1453 -91 1209 -44 
Q 966 3 703 97 
z
M 1959 2075 
Q 2384 2075 2632 2365 
Q 2881 2656 2881 3163 
Q 2881 3666 2632 3958 
Q 2384 4250 1959 4250 
Q 1534 4250 1286 3958 
Q 1038 3666 1038 3163 
Q 1038 2656 1286 2365 
Q 1534 2075 1959 2075 
z
" transform="scale(0.015625)"/>
      </defs>
      <use xlink:href="#DejaVuSans-44"/>
      <use xlink:href="#DejaVuSans-61" transform="translate(77.001953 0)"/>
      <use xlink:href="#DejaVuSans-74" transform="translate(138.28125 0)"/>
      <use xlink:href="#DejaVuSans-61" transform="translate(177.490234 0)"/>
      <use xlink:href="#DejaVuSans-73" transform="translate(238.769531 0)"/>
      <use xlink:href="#DejaVuSans-65" transform="translate(290.869141 0)"/>
      <use xlink:href="#DejaVuSans-74" transform="translate(352.392578 0)"/>
      <use xlink:href="#DejaVuSans-20" transform="translate(391.601562 0)"/>
      <use xlink:href="#DejaVuSans-39" transform="translate(423.388672 0)"/>
     </g>
    </g>
    <g id="line2d_33">
     <path d="M 194.63 427.264375 
L 206.63 427.264375 
L 218.63 427.264375 
" style="fill: none; stroke-dasharray: 7.4,3.2; stroke-dashoffset: 0; stroke: #808080; stroke-opacity: 0.7; stroke-width: 2"/>
    </g>
    <g id="text_26">
     <!-- Chance level -->
     <g transform="translate(228.23 431.464375) scale(0.12 -0.12)">
      <defs>
       <path id="DejaVuSans-68" d="M 3513 2113 
L 3513 0 
L 2938 0 
L 2938 2094 
Q 2938 2591 2744 2837 
Q 2550 3084 2163 3084 
Q 1697 3084 1428 2787 
Q 1159 2491 1159 1978 
L 1159 0 
L 581 0 
L 581 4863 
L 1159 4863 
L 1159 2956 
Q 1366 3272 1645 3428 
Q 1925 3584 2291 3584 
Q 2894 3584 3203 3211 
Q 3513 2838 3513 2113 
z
" transform="scale(0.015625)"/>
      </defs>
      <use xlink:href="#DejaVuSans-43"/>
      <use xlink:href="#DejaVuSans-68" transform="translate(69.824219 0)"/>
      <use xlink:href="#DejaVuSans-61" transform="translate(133.203125 0)"/>
      <use xlink:href="#DejaVuSans-6e" transform="translate(194.482422 0)"/>
      <use xlink:href="#DejaVuSans-63" transform="translate(257.861328 0)"/>
      <use xlink:href="#DejaVuSans-65" transform="translate(312.841797 0)"/>
      <use xlink:href="#DejaVuSans-20" transform="translate(374.365234 0)"/>
      <use xlink:href="#DejaVuSans-6c" transform="translate(406.152344 0)"/>
      <use xlink:href="#DejaVuSans-65" transform="translate(433.935547 0)"/>
      <use xlink:href="#DejaVuSans-76" transform="translate(495.458984 0)"/>
      <use xlink:href="#DejaVuSans-65" transform="translate(554.638672 0)"/>
      <use xlink:href="#DejaVuSans-6c" transform="translate(616.162109 0)"/>
     </g>
    </g>
   </g>
  </g>
 </g>
 <defs>
  <clipPath id="pfca530099c">
   <rect x="67.79" y="39.12" width="706.93" height="405.64"/>
  </clipPath>
 </defs>
</svg>
