<?xml version="1.0" encoding="utf-8" standalone="no"?>
<!DOCTYPE svg PUBLIC "-//W3C//DTD SVG 1.1//EN"
  "http://www.w3.org/Graphics/SVG/1.1/DTD/svg11.dtd">
<svg xmlns:xlink="http://www.w3.org/1999/xlink" width="792pt" height="504pt" viewBox="0 0 792 504" xmlns="http://www.w3.org/2000/svg" version="1.1">
 <metadata>
  <rdf:RDF xmlns:dc="http://purl.org/dc/elements/1.1/" xmlns:cc="http://creativecommons.org/ns#" xmlns:rdf="http://www.w3.org/1999/02/22-rdf-syntax-ns#">
   <cc:Work>
    <dc:type rdf:resource="http://purl.org/dc/dcmitype/StillImage"/>
    <dc:date>2026-01-07T12:44:21.848816</dc:date>
    <dc:format>image/svg+xml</dc:format>
    <dc:creator>
     <cc:Agent>
      <dc:title>Matplotlib v3.10.0, https://matplotlib.org/</dc:title>
     </cc:Agent>
    </dc:creator>
   </cc:Work>
  </rdf:RDF>
 </metadata>
 <defs>
  <style type="text/css">*{stroke-linejoin: round; stroke-linecap: butt}</style>
 </defs>
 <g id="figure_1">
  <g id="patch_1">
   <path d="M 0 504 
L 792 504 
L 792 0 
L 0 0 
z
" style="fill: #ffffff"/>
  </g>
  <g id="axes_1">
   <g id="patch_2">
    <path d="M 67.79 444.76 
L 763.605 444.76 
L 763.605 62.448 
L 67.79 62.448 
z
" style="fill: #ffffff"/>
   </g>
   <g id="FillBetweenPolyCollection_1">
    <path d="M 67.79 274.534882 
L 67.79 274.912597 
L 67.79 274.912597 
L 67.79 274.912597 
L 67.79 274.912597 
L 67.79 274.912597 
L 67.79 274.912597 
L 67.79 274.912597 
L 73.493402 175.813159 
L 92.50474 145.891047 
L 132.428552 109.596365 
L 159.044426 98.967019 
L 174.253497 89.836914 
L 198.968238 86.378564 
L 214.177309 86.202571 
L 244.595451 83.689562 
L 257.903388 83.387744 
L 286.420396 82.323992 
L 316.838538 82.323992 
L 333.948743 82.555374 
L 337.751011 83.735479 
L 351.058948 85.190817 
L 406.191831 85.933583 
L 379.575956 86.368662 
L 411.895232 85.750028 
L 613.415423 85.034571 
L 613.415423 81.402215 
L 613.415423 81.402215 
L 411.895232 81.818278 
L 379.575956 81.203898 
L 406.191831 81.073217 
L 351.058948 80.686591 
L 337.751011 79.317385 
L 333.948743 78.802339 
L 316.838538 77.906455 
L 286.420396 77.906455 
L 257.903388 79.099361 
L 244.595451 78.795415 
L 214.177309 79.109077 
L 198.968238 80.623983 
L 174.253497 85.073504 
L 159.044426 92.329157 
L 132.428552 107.124958 
L 92.50474 132.404481 
L 73.493402 160.670523 
L 67.79 274.534882 
L 67.79 274.534882 
L 67.79 274.534882 
L 67.79 274.534882 
L 67.79 274.534882 
L 67.79 274.534882 
L 67.79 274.534882 
z
" clip-path="url(#pbe39d87ddb)" style="fill: #1f77b4; fill-opacity: 0.15"/>
   </g>
   <g id="FillBetweenPolyCollection_2">
    <path d="M 67.79 204.264514 
L 67.79 204.493534 
L 67.79 204.493534 
L 67.79 204.493534 
L 67.79 204.493534 
L 67.79 204.493534 
L 67.79 204.493534 
L 67.79 204.493534 
L 99.417955 212.721169 
L 141.588561 135.181644 
L 225.929773 121.169368 
L 289.185682 112.291668 
L 331.356288 105.739169 
L 394.612197 101.692558 
L 521.124015 100.029423 
L 563.294621 102.585338 
L 658.178485 101.477978 
L 689.806439 99.455905 
L 731.977045 100.003293 
L 731.977045 100.535966 
L 763.605 100.835548 
L 763.605 101.540946 
L 763.605 100.950557 
L 763.605 101.537199 
L 763.605 101.537199 
L 763.605 101.537199 
L 763.605 96.615194 
L 763.605 96.615194 
L 763.605 96.615194 
L 763.605 96.615194 
L 763.605 95.923142 
L 763.605 96.614174 
L 763.605 95.39744 
L 731.977045 95.697022 
L 731.977045 96.867679 
L 689.806439 96.133646 
L 658.178485 97.317853 
L 563.294621 99.408592 
L 521.124015 98.120244 
L 394.612197 99.011772 
L 331.356288 101.358635 
L 289.185682 108.247425 
L 225.929773 114.092437 
L 141.588561 126.968193 
L 99.417955 201.138027 
L 67.79 204.264514 
L 67.79 204.264514 
L 67.79 204.264514 
L 67.79 204.264514 
L 67.79 204.264514 
L 67.79 204.264514 
L 67.79 204.264514 
z
" clip-path="url(#pbe39d87ddb)" style="fill: #d62728; fill-opacity: 0.15"/>
   </g>
   <g id="FillBetweenPolyCollection_3">
    <path d="M 67.79 252.427691 
L 67.79 252.743767 
L 67.79 252.743767 
L 67.79 252.743767 
L 67.79 252.743767 
L 67.79 252.743767 
L 67.79 252.743767 
L 67.79 252.743767 
L 132.217315 218.654946 
L 183.759167 120.678192 
L 325.499259 110.081121 
L 402.812037 102.798929 
L 441.468426 101.86497 
L 493.010278 99.589765 
L 583.208519 94.957154 
L 647.635833 94.248553 
L 686.292222 93.101112 
L 712.063148 93.902889 
L 724.948611 96.248609 
L 737.834074 97.034595 
L 750.719537 96.288753 
L 763.605 95.199491 
L 763.605 95.629017 
L 763.605 96.170254 
L 763.605 96.170254 
L 763.605 96.000062 
L 763.605 93.085179 
L 763.605 93.085179 
L 763.605 93.529439 
L 763.605 93.529439 
L 763.605 93.456224 
L 763.605 92.039865 
L 750.719537 92.793959 
L 737.834074 92.66004 
L 724.948611 90.980633 
L 712.063148 89.639641 
L 686.292222 88.598063 
L 647.635833 90.532996 
L 583.208519 92.894126 
L 493.010278 94.408562 
L 441.468426 98.287992 
L 402.812037 98.580408 
L 325.499259 102.358351 
L 183.759167 113.28227 
L 132.217315 196.192076 
L 67.79 252.427691 
L 67.79 252.427691 
L 67.79 252.427691 
L 67.79 252.427691 
L 67.79 252.427691 
L 67.79 252.427691 
L 67.79 252.427691 
z
" clip-path="url(#pbe39d87ddb)" style="fill: #e377c2; fill-opacity: 0.15"/>
   </g>
   <g id="FillBetweenPolyCollection_4">
    <path d="M 67.79 217.776272 
L 67.79 218.708018 
L 67.79 218.708018 
L 67.79 218.708018 
L 67.79 218.708018 
L 67.79 218.708018 
L 67.79 218.708018 
L 67.79 218.708018 
L 70.197664 110.196395 
L 82.235986 98.668843 
L 91.866644 86.508532 
L 99.089637 82.244923 
L 99.089637 76.738633 
L 118.350952 75.179679 
L 118.350952 74.461879 
L 130.389273 73.501039 
L 142.427595 72.919001 
L 159.281246 73.438956 
L 166.504239 73.438956 
L 185.765554 73.06724 
L 209.842197 73.06724 
L 200.21154 73.06724 
L 217.06519 73.438956 
L 236.326505 73.438956 
L 383.194031 74.460165 
L 486.723599 74.708316 
L 486.723599 72.405674 
L 486.723599 72.405674 
L 383.194031 71.750654 
L 236.326505 70.965523 
L 217.06519 70.965523 
L 200.21154 70.434069 
L 209.842197 70.434069 
L 185.765554 70.434069 
L 166.504239 70.965523 
L 159.281246 70.965523 
L 142.427595 71.490952 
L 130.389273 71.812084 
L 118.350952 72.657584 
L 118.350952 73.751599 
L 99.089637 74.913104 
L 99.089637 77.557242 
L 91.866644 81.433114 
L 82.235986 91.873956 
L 70.197664 102.95303 
L 67.79 217.776272 
L 67.79 217.776272 
L 67.79 217.776272 
L 67.79 217.776272 
L 67.79 217.776272 
L 67.79 217.776272 
L 67.79 217.776272 
z
" clip-path="url(#pbe39d87ddb)" style="fill: #17becf; fill-opacity: 0.15"/>
   </g>
   <g id="FillBetweenPolyCollection_5">
    <path d="M 67.79 239.713772 
L 67.79 240.816171 
L 67.79 240.816171 
L 67.79 240.816171 
L 67.79 240.816171 
L 67.79 240.816171 
L 67.79 240.816171 
L 67.79 240.816171 
L 67.79 240.816171 
L 79.838745 193.402403 
L 112.972792 167.937852 
L 149.119026 134.169644 
L 179.240887 118.531349 
L 227.435866 111.16738 
L 260.569913 99.731976 
L 302.740519 95.051182 
L 350.935498 97.504291 
L 372.020801 100.143389 
L 417.203593 102.562291 
L 435.27671 105.41316 
L 462.386385 105.96436 
L 474.43513 104.200161 
L 486.483874 104.200161 
L 501.544805 105.127905 
L 522.630108 108.051785 
L 537.691039 105.996867 
L 537.691039 95.626109 
L 537.691039 95.626109 
L 522.630108 95.775989 
L 501.544805 98.699869 
L 486.483874 98.525214 
L 474.43513 98.525214 
L 462.386385 97.863414 
L 435.27671 97.312215 
L 417.203593 94.651089 
L 372.020801 93.762793 
L 350.935498 91.992295 
L 302.740519 92.240605 
L 260.569913 93.071807 
L 227.435866 104.786784 
L 179.240887 112.856402 
L 149.119026 126.982882 
L 112.972792 160.461018 
L 79.838745 179.09243 
L 67.79 239.713772 
L 67.79 239.713772 
L 67.79 239.713772 
L 67.79 239.713772 
L 67.79 239.713772 
L 67.79 239.713772 
L 67.79 239.713772 
L 67.79 239.713772 
z
" clip-path="url(#pbe39d87ddb)" style="fill: #2ca02c; fill-opacity: 0.15"/>
   </g>
   <g id="FillBetweenPolyCollection_6">
    <path d="M 67.79 249.558959 
L 67.79 249.713269 
L 67.79 249.713269 
L 67.79 249.713269 
L 67.79 249.713269 
L 67.79 249.713269 
L 77.590211 249.713269 
L 106.990845 159.249831 
L 146.19169 137.998799 
L 175.592324 126.482315 
L 234.393592 121.716699 
L 332.395704 114.34493 
L 391.196972 111.950646 
L 479.398873 107.71529 
L 518.599718 106.589388 
L 655.802676 106.064688 
L 714.603944 107.224281 
L 753.804789 106.913523 
L 753.804789 106.939495 
L 763.605 106.561229 
L 763.605 106.365874 
L 763.605 106.458647 
L 763.605 106.458647 
L 763.605 106.57802 
L 763.605 106.561229 
L 763.605 106.561229 
L 763.605 104.847623 
L 763.605 104.847623 
L 763.605 104.847623 
L 763.605 105.127716 
L 763.605 104.950206 
L 763.605 104.950206 
L 763.605 104.746094 
L 763.605 104.847623 
L 753.804789 104.765655 
L 753.804789 103.900975 
L 714.603944 103.589043 
L 655.802676 102.671625 
L 518.599718 104.818878 
L 479.398873 104.580106 
L 391.196972 108.357677 
L 332.395704 111.306713 
L 234.393592 118.178908 
L 175.592324 124.69194 
L 146.19169 135.13429 
L 106.990845 152.461124 
L 77.590211 249.558959 
L 67.79 249.558959 
L 67.79 249.558959 
L 67.79 249.558959 
L 67.79 249.558959 
L 67.79 249.558959 
z
" clip-path="url(#pbe39d87ddb)" style="fill: #8c564b; fill-opacity: 0.15"/>
   </g>
   <g id="FillBetweenPolyCollection_7">
    <path d="M 67.79 269.076323 
L 67.79 269.560813 
L 67.79 269.560813 
L 67.79 269.560813 
L 67.79 269.560813 
L 67.79 269.560813 
L 67.79 269.560813 
L 78.92304 171.570476 
L 101.18912 146.129083 
L 123.4552 123.772952 
L 167.98736 116.720124 
L 212.51952 108.028399 
L 273.75124 99.613102 
L 346.116 95.890725 
L 440.74684 91.673738 
L 518.67812 90.766585 
L 607.74244 89.817897 
L 663.40764 89.144186 
L 702.37328 89.415356 
L 730.20588 90.903175 
L 752.47196 92.634567 
L 752.47196 95.723679 
L 746.90544 97.602032 
L 758.03848 98.419277 
L 763.605 100.616573 
L 763.605 100.149897 
L 763.605 94.3293 
L 763.605 94.3293 
L 763.605 93.862624 
L 758.03848 92.895249 
L 746.90544 91.734575 
L 752.47196 91.239426 
L 752.47196 89.185947 
L 730.20588 88.148252 
L 702.37328 86.866985 
L 663.40764 86.346986 
L 607.74244 87.651195 
L 518.67812 87.098091 
L 440.74684 88.168857 
L 346.116 91.467963 
L 273.75124 95.657263 
L 212.51952 102.669735 
L 167.98736 111.779283 
L 123.4552 121.73656 
L 101.18912 143.290235 
L 78.92304 168.08799 
L 67.79 269.076323 
L 67.79 269.076323 
L 67.79 269.076323 
L 67.79 269.076323 
L 67.79 269.076323 
L 67.79 269.076323 
z
" clip-path="url(#pbe39d87ddb)" style="fill: #bcbd22; fill-opacity: 0.15"/>
   </g>
   <g id="FillBetweenPolyCollection_8">
    <path d="M 67.79 248.982338 
L 67.79 249.146372 
L 67.79 249.146372 
L 67.79 249.146372 
L 67.79 249.146372 
L 67.79 249.146372 
L 89.059454 134.61031 
L 98.174934 118.064426 
L 116.405895 114.166263 
L 155.90631 105.516728 
L 207.560699 98.358636 
L 253.1381 91.128254 
L 301.753996 88.084751 
L 405.062773 85.056737 
L 505.333057 84.08233 
L 569.141419 84.426072 
L 611.680328 85.412315 
L 672.450197 86.935082 
L 708.912118 87.91831 
L 724.104585 89.784414 
L 745.374039 91.821788 
L 751.451026 94.386112 
L 751.451026 96.795757 
L 757.528013 98.223297 
L 763.605 98.06359 
L 763.605 98.144175 
L 763.605 96.442344 
L 763.605 96.442344 
L 763.605 95.693174 
L 757.528013 95.533754 
L 751.451026 95.096711 
L 751.451026 92.741213 
L 745.374039 89.090831 
L 724.104585 88.435012 
L 708.912118 86.365155 
L 672.450197 85.483513 
L 611.680328 83.692133 
L 569.141419 83.435034 
L 505.333057 82.121846 
L 405.062773 84.047138 
L 301.753996 86.403789 
L 253.1381 87.709263 
L 207.560699 93.945701 
L 155.90631 100.254428 
L 116.405895 112.121042 
L 98.174934 115.475851 
L 89.059454 131.042337 
L 67.79 248.982338 
L 67.79 248.982338 
L 67.79 248.982338 
L 67.79 248.982338 
L 67.79 248.982338 
z
" clip-path="url(#pbe39d87ddb)" style="fill: #ff7f0e; fill-opacity: 0.15"/>
   </g>
   <g id="FillBetweenPolyCollection_9">
    <path d="M 67.79 230.632124 
L 67.79 231.0357 
L 67.79 231.0357 
L 67.79 231.0357 
L 67.79 231.0357 
L 67.79 231.0357 
L 67.79 231.0357 
L 90.792149 100.426981 
L 105.168492 84.063223 
L 131.045909 80.132171 
L 142.546983 78.499186 
L 154.048058 77.626484 
L 165.549132 76.763548 
L 197.177087 76.154093 
L 225.929773 76.257416 
L 294.936219 75.789627 
L 346.691054 75.591033 
L 363.942665 75.992944 
L 389.820083 76.093603 
L 435.82438 76.659944 
L 478.953409 77.020157 
L 513.456632 76.70864 
L 582.463079 76.339665 
L 539.33405 76.78268 
L 674.471674 76.421174 
L 714.725434 75.878071 
L 714.725434 75.48772 
L 714.725434 75.48772 
L 674.471674 75.340201 
L 539.33405 75.771956 
L 582.463079 75.027173 
L 513.456632 75.053782 
L 478.953409 75.535526 
L 435.82438 75.500155 
L 389.820083 74.483114 
L 363.942665 74.979357 
L 346.691054 74.192423 
L 294.936219 74.783951 
L 225.929773 75.107329 
L 197.177087 74.815068 
L 165.549132 74.99678 
L 154.048058 75.321643 
L 142.546983 76.031276 
L 131.045909 77.171563 
L 105.168492 81.948589 
L 90.792149 95.264084 
L 67.79 230.632124 
L 67.79 230.632124 
L 67.79 230.632124 
L 67.79 230.632124 
L 67.79 230.632124 
L 67.79 230.632124 
z
" clip-path="url(#pbe39d87ddb)" style="fill: #9467bd; fill-opacity: 0.15"/>
   </g>
   <g id="matplotlib.axis_1">
    <g id="xtick_1">
     <g id="line2d_1">
      <defs>
       <path id="m3d485dd761" d="M 0 0 
L 0 3.5 
" style="stroke: #000000; stroke-width: 0.8"/>
      </defs>
      <g>
       <use xlink:href="#m3d485dd761" x="67.79" y="444.76" style="stroke: #000000; stroke-width: 0.8"/>
      </g>
     </g>
     <g id="text_1">
      <!-- 0.0 -->
      <g transform="translate(56.657813 462.397812) scale(0.14 -0.14)">
       <defs>
        <path id="DejaVuSans-30" d="M 2034 4250 
Q 1547 4250 1301 3770 
Q 1056 3291 1056 2328 
Q 1056 1369 1301 889 
Q 1547 409 2034 409 
Q 2525 409 2770 889 
Q 3016 1369 3016 2328 
Q 3016 3291 2770 3770 
Q 2525 4250 2034 4250 
z
M 2034 4750 
Q 2819 4750 3233 4129 
Q 3647 3509 3647 2328 
Q 3647 1150 3233 529 
Q 2819 -91 2034 -91 
Q 1250 -91 836 529 
Q 422 1150 422 2328 
Q 422 3509 836 4129 
Q 1250 4750 2034 4750 
z
" transform="scale(0.015625)"/>
        <path id="DejaVuSans-2e" d="M 684 794 
L 1344 794 
L 1344 0 
L 684 0 
L 684 794 
z
" transform="scale(0.015625)"/>
       </defs>
       <use xlink:href="#DejaVuSans-30"/>
       <use xlink:href="#DejaVuSans-2e" transform="translate(63.623047 0)"/>
       <use xlink:href="#DejaVuSans-30" transform="translate(95.410156 0)"/>
      </g>
     </g>
    </g>
    <g id="xtick_2">
     <g id="line2d_2">
      <g>
       <use xlink:href="#m3d485dd761" x="206.953" y="444.76" style="stroke: #000000; stroke-width: 0.8"/>
      </g>
     </g>
     <g id="text_2">
      <!-- 0.2 -->
      <g transform="translate(195.820813 462.397812) scale(0.14 -0.14)">
       <defs>
        <path id="DejaVuSans-32" d="M 1228 531 
L 3431 531 
L 3431 0 
L 469 0 
L 469 531 
Q 828 903 1448 1529 
Q 2069 2156 2228 2338 
Q 2531 2678 2651 2914 
Q 2772 3150 2772 3378 
Q 2772 3750 2511 3984 
Q 2250 4219 1831 4219 
Q 1534 4219 1204 4116 
Q 875 4013 500 3803 
L 500 4441 
Q 881 4594 1212 4672 
Q 1544 4750 1819 4750 
Q 2544 4750 2975 4387 
Q 3406 4025 3406 3419 
Q 3406 3131 3298 2873 
Q 3191 2616 2906 2266 
Q 2828 2175 2409 1742 
Q 1991 1309 1228 531 
z
" transform="scale(0.015625)"/>
       </defs>
       <use xlink:href="#DejaVuSans-30"/>
       <use xlink:href="#DejaVuSans-2e" transform="translate(63.623047 0)"/>
       <use xlink:href="#DejaVuSans-32" transform="translate(95.410156 0)"/>
      </g>
     </g>
    </g>
    <g id="xtick_3">
     <g id="line2d_3">
      <g>
       <use xlink:href="#m3d485dd761" x="346.116" y="444.76" style="stroke: #000000; stroke-width: 0.8"/>
      </g>
     </g>
     <g id="text_3">
      <!-- 0.4 -->
      <g transform="translate(334.983813 462.397812) scale(0.14 -0.14)">
       <defs>
        <path id="DejaVuSans-34" d="M 2419 4116 
L 825 1625 
L 2419 1625 
L 2419 4116 
z
M 2253 4666 
L 3047 4666 
L 3047 1625 
L 3713 1625 
L 3713 1100 
L 3047 1100 
L 3047 0 
L 2419 0 
L 2419 1100 
L 313 1100 
L 313 1709 
L 2253 4666 
z
" transform="scale(0.015625)"/>
       </defs>
       <use xlink:href="#DejaVuSans-30"/>
       <use xlink:href="#DejaVuSans-2e" transform="translate(63.623047 0)"/>
       <use xlink:href="#DejaVuSans-34" transform="translate(95.410156 0)"/>
      </g>
     </g>
    </g>
    <g id="xtick_4">
     <g id="line2d_4">
      <g>
       <use xlink:href="#m3d485dd761" x="485.279" y="444.76" style="stroke: #000000; stroke-width: 0.8"/>
      </g>
     </g>
     <g id="text_4">
      <!-- 0.6 -->
      <g transform="translate(474.146813 462.397812) scale(0.14 -0.14)">
       <defs>
        <path id="DejaVuSans-36" d="M 2113 2584 
Q 1688 2584 1439 2293 
Q 1191 2003 1191 1497 
Q 1191 994 1439 701 
Q 1688 409 2113 409 
Q 2538 409 2786 701 
Q 3034 994 3034 1497 
Q 3034 2003 2786 2293 
Q 2538 2584 2113 2584 
z
M 3366 4563 
L 3366 3988 
Q 3128 4100 2886 4159 
Q 2644 4219 2406 4219 
Q 1781 4219 1451 3797 
Q 1122 3375 1075 2522 
Q 1259 2794 1537 2939 
Q 1816 3084 2150 3084 
Q 2853 3084 3261 2657 
Q 3669 2231 3669 1497 
Q 3669 778 3244 343 
Q 2819 -91 2113 -91 
Q 1303 -91 875 529 
Q 447 1150 447 2328 
Q 447 3434 972 4092 
Q 1497 4750 2381 4750 
Q 2619 4750 2861 4703 
Q 3103 4656 3366 4563 
z
" transform="scale(0.015625)"/>
       </defs>
       <use xlink:href="#DejaVuSans-30"/>
       <use xlink:href="#DejaVuSans-2e" transform="translate(63.623047 0)"/>
       <use xlink:href="#DejaVuSans-36" transform="translate(95.410156 0)"/>
      </g>
     </g>
    </g>
    <g id="xtick_5">
     <g id="line2d_5">
      <g>
       <use xlink:href="#m3d485dd761" x="624.442" y="444.76" style="stroke: #000000; stroke-width: 0.8"/>
      </g>
     </g>
     <g id="text_5">
      <!-- 0.8 -->
      <g transform="translate(613.309813 462.397812) scale(0.14 -0.14)">
       <defs>
        <path id="DejaVuSans-38" d="M 2034 2216 
Q 1584 2216 1326 1975 
Q 1069 1734 1069 1313 
Q 1069 891 1326 650 
Q 1584 409 2034 409 
Q 2484 409 2743 651 
Q 3003 894 3003 1313 
Q 3003 1734 2745 1975 
Q 2488 2216 2034 2216 
z
M 1403 2484 
Q 997 2584 770 2862 
Q 544 3141 544 3541 
Q 544 4100 942 4425 
Q 1341 4750 2034 4750 
Q 2731 4750 3128 4425 
Q 3525 4100 3525 3541 
Q 3525 3141 3298 2862 
Q 3072 2584 2669 2484 
Q 3125 2378 3379 2068 
Q 3634 1759 3634 1313 
Q 3634 634 3220 271 
Q 2806 -91 2034 -91 
Q 1263 -91 848 271 
Q 434 634 434 1313 
Q 434 1759 690 2068 
Q 947 2378 1403 2484 
z
M 1172 3481 
Q 1172 3119 1398 2916 
Q 1625 2713 2034 2713 
Q 2441 2713 2670 2916 
Q 2900 3119 2900 3481 
Q 2900 3844 2670 4047 
Q 2441 4250 2034 4250 
Q 1625 4250 1398 4047 
Q 1172 3844 1172 3481 
z
" transform="scale(0.015625)"/>
       </defs>
       <use xlink:href="#DejaVuSans-30"/>
       <use xlink:href="#DejaVuSans-2e" transform="translate(63.623047 0)"/>
       <use xlink:href="#DejaVuSans-38" transform="translate(95.410156 0)"/>
      </g>
     </g>
    </g>
    <g id="xtick_6">
     <g id="line2d_6">
      <g>
       <use xlink:href="#m3d485dd761" x="763.605" y="444.76" style="stroke: #000000; stroke-width: 0.8"/>
      </g>
     </g>
     <g id="text_6">
      <!-- 1.0 -->
      <g transform="translate(752.472813 462.397812) scale(0.14 -0.14)">
       <defs>
        <path id="DejaVuSans-31" d="M 794 531 
L 1825 531 
L 1825 4091 
L 703 3866 
L 703 4441 
L 1819 4666 
L 2450 4666 
L 2450 531 
L 3481 531 
L 3481 0 
L 794 0 
L 794 531 
z
" transform="scale(0.015625)"/>
       </defs>
       <use xlink:href="#DejaVuSans-31"/>
       <use xlink:href="#DejaVuSans-2e" transform="translate(63.623047 0)"/>
       <use xlink:href="#DejaVuSans-30" transform="translate(95.410156 0)"/>
      </g>
     </g>
    </g>
    <g id="text_7">
     <!-- Fraction of non-zero coefficients -->
     <g transform="translate(271.350156 482.986562) scale(0.18 -0.18)">
      <defs>
       <path id="DejaVuSans-46" d="M 628 4666 
L 3309 4666 
L 3309 4134 
L 1259 4134 
L 1259 2759 
L 3109 2759 
L 3109 2228 
L 1259 2228 
L 1259 0 
L 628 0 
L 628 4666 
z
" transform="scale(0.015625)"/>
       <path id="DejaVuSans-72" d="M 2631 2963 
Q 2534 3019 2420 3045 
Q 2306 3072 2169 3072 
Q 1681 3072 1420 2755 
Q 1159 2438 1159 1844 
L 1159 0 
L 581 0 
L 581 3500 
L 1159 3500 
L 1159 2956 
Q 1341 3275 1631 3429 
Q 1922 3584 2338 3584 
Q 2397 3584 2469 3576 
Q 2541 3569 2628 3553 
L 2631 2963 
z
" transform="scale(0.015625)"/>
       <path id="DejaVuSans-61" d="M 2194 1759 
Q 1497 1759 1228 1600 
Q 959 1441 959 1056 
Q 959 750 1161 570 
Q 1363 391 1709 391 
Q 2188 391 2477 730 
Q 2766 1069 2766 1631 
L 2766 1759 
L 2194 1759 
z
M 3341 1997 
L 3341 0 
L 2766 0 
L 2766 531 
Q 2569 213 2275 61 
Q 1981 -91 1556 -91 
Q 1019 -91 701 211 
Q 384 513 384 1019 
Q 384 1609 779 1909 
Q 1175 2209 1959 2209 
L 2766 2209 
L 2766 2266 
Q 2766 2663 2505 2880 
Q 2244 3097 1772 3097 
Q 1472 3097 1187 3025 
Q 903 2953 641 2809 
L 641 3341 
Q 956 3463 1253 3523 
Q 1550 3584 1831 3584 
Q 2591 3584 2966 3190 
Q 3341 2797 3341 1997 
z
" transform="scale(0.015625)"/>
       <path id="DejaVuSans-63" d="M 3122 3366 
L 3122 2828 
Q 2878 2963 2633 3030 
Q 2388 3097 2138 3097 
Q 1578 3097 1268 2742 
Q 959 2388 959 1747 
Q 959 1106 1268 751 
Q 1578 397 2138 397 
Q 2388 397 2633 464 
Q 2878 531 3122 666 
L 3122 134 
Q 2881 22 2623 -34 
Q 2366 -91 2075 -91 
Q 1284 -91 818 406 
Q 353 903 353 1747 
Q 353 2603 823 3093 
Q 1294 3584 2113 3584 
Q 2378 3584 2631 3529 
Q 2884 3475 3122 3366 
z
" transform="scale(0.015625)"/>
       <path id="DejaVuSans-74" d="M 1172 4494 
L 1172 3500 
L 2356 3500 
L 2356 3053 
L 1172 3053 
L 1172 1153 
Q 1172 725 1289 603 
Q 1406 481 1766 481 
L 2356 481 
L 2356 0 
L 1766 0 
Q 1100 0 847 248 
Q 594 497 594 1153 
L 594 3053 
L 172 3053 
L 172 3500 
L 594 3500 
L 594 4494 
L 1172 4494 
z
" transform="scale(0.015625)"/>
       <path id="DejaVuSans-69" d="M 603 3500 
L 1178 3500 
L 1178 0 
L 603 0 
L 603 3500 
z
M 603 4863 
L 1178 4863 
L 1178 4134 
L 603 4134 
L 603 4863 
z
" transform="scale(0.015625)"/>
       <path id="DejaVuSans-6f" d="M 1959 3097 
Q 1497 3097 1228 2736 
Q 959 2375 959 1747 
Q 959 1119 1226 758 
Q 1494 397 1959 397 
Q 2419 397 2687 759 
Q 2956 1122 2956 1747 
Q 2956 2369 2687 2733 
Q 2419 3097 1959 3097 
z
M 1959 3584 
Q 2709 3584 3137 3096 
Q 3566 2609 3566 1747 
Q 3566 888 3137 398 
Q 2709 -91 1959 -91 
Q 1206 -91 779 398 
Q 353 888 353 1747 
Q 353 2609 779 3096 
Q 1206 3584 1959 3584 
z
" transform="scale(0.015625)"/>
       <path id="DejaVuSans-6e" d="M 3513 2113 
L 3513 0 
L 2938 0 
L 2938 2094 
Q 2938 2591 2744 2837 
Q 2550 3084 2163 3084 
Q 1697 3084 1428 2787 
Q 1159 2491 1159 1978 
L 1159 0 
L 581 0 
L 581 3500 
L 1159 3500 
L 1159 2956 
Q 1366 3272 1645 3428 
Q 1925 3584 2291 3584 
Q 2894 3584 3203 3211 
Q 3513 2838 3513 2113 
z
" transform="scale(0.015625)"/>
       <path id="DejaVuSans-20" transform="scale(0.015625)"/>
       <path id="DejaVuSans-66" d="M 2375 4863 
L 2375 4384 
L 1825 4384 
Q 1516 4384 1395 4259 
Q 1275 4134 1275 3809 
L 1275 3500 
L 2222 3500 
L 2222 3053 
L 1275 3053 
L 1275 0 
L 697 0 
L 697 3053 
L 147 3053 
L 147 3500 
L 697 3500 
L 697 3744 
Q 697 4328 969 4595 
Q 1241 4863 1831 4863 
L 2375 4863 
z
" transform="scale(0.015625)"/>
       <path id="DejaVuSans-2d" d="M 313 2009 
L 1997 2009 
L 1997 1497 
L 313 1497 
L 313 2009 
z
" transform="scale(0.015625)"/>
       <path id="DejaVuSans-7a" d="M 353 3500 
L 3084 3500 
L 3084 2975 
L 922 459 
L 3084 459 
L 3084 0 
L 275 0 
L 275 525 
L 2438 3041 
L 353 3041 
L 353 3500 
z
" transform="scale(0.015625)"/>
       <path id="DejaVuSans-65" d="M 3597 1894 
L 3597 1613 
L 953 1613 
Q 991 1019 1311 708 
Q 1631 397 2203 397 
Q 2534 397 2845 478 
Q 3156 559 3463 722 
L 3463 178 
Q 3153 47 2828 -22 
Q 2503 -91 2169 -91 
Q 1331 -91 842 396 
Q 353 884 353 1716 
Q 353 2575 817 3079 
Q 1281 3584 2069 3584 
Q 2775 3584 3186 3129 
Q 3597 2675 3597 1894 
z
M 3022 2063 
Q 3016 2534 2758 2815 
Q 2500 3097 2075 3097 
Q 1594 3097 1305 2825 
Q 1016 2553 972 2059 
L 3022 2063 
z
" transform="scale(0.015625)"/>
       <path id="DejaVuSans-73" d="M 2834 3397 
L 2834 2853 
Q 2591 2978 2328 3040 
Q 2066 3103 1784 3103 
Q 1356 3103 1142 2972 
Q 928 2841 928 2578 
Q 928 2378 1081 2264 
Q 1234 2150 1697 2047 
L 1894 2003 
Q 2506 1872 2764 1633 
Q 3022 1394 3022 966 
Q 3022 478 2636 193 
Q 2250 -91 1575 -91 
Q 1294 -91 989 -36 
Q 684 19 347 128 
L 347 722 
Q 666 556 975 473 
Q 1284 391 1588 391 
Q 1994 391 2212 530 
Q 2431 669 2431 922 
Q 2431 1156 2273 1281 
Q 2116 1406 1581 1522 
L 1381 1569 
Q 847 1681 609 1914 
Q 372 2147 372 2553 
Q 372 3047 722 3315 
Q 1072 3584 1716 3584 
Q 2034 3584 2315 3537 
Q 2597 3491 2834 3397 
z
" transform="scale(0.015625)"/>
      </defs>
      <use xlink:href="#DejaVuSans-46"/>
      <use xlink:href="#DejaVuSans-72" transform="translate(50.269531 0)"/>
      <use xlink:href="#DejaVuSans-61" transform="translate(91.382812 0)"/>
      <use xlink:href="#DejaVuSans-63" transform="translate(152.662109 0)"/>
      <use xlink:href="#DejaVuSans-74" transform="translate(207.642578 0)"/>
      <use xlink:href="#DejaVuSans-69" transform="translate(246.851562 0)"/>
      <use xlink:href="#DejaVuSans-6f" transform="translate(274.634766 0)"/>
      <use xlink:href="#DejaVuSans-6e" transform="translate(335.816406 0)"/>
      <use xlink:href="#DejaVuSans-20" transform="translate(399.195312 0)"/>
      <use xlink:href="#DejaVuSans-6f" transform="translate(430.982422 0)"/>
      <use xlink:href="#DejaVuSans-66" transform="translate(492.164062 0)"/>
      <use xlink:href="#DejaVuSans-20" transform="translate(527.369141 0)"/>
      <use xlink:href="#DejaVuSans-6e" transform="translate(559.15625 0)"/>
      <use xlink:href="#DejaVuSans-6f" transform="translate(622.535156 0)"/>
      <use xlink:href="#DejaVuSans-6e" transform="translate(683.716797 0)"/>
      <use xlink:href="#DejaVuSans-2d" transform="translate(747.095703 0)"/>
      <use xlink:href="#DejaVuSans-7a" transform="translate(783.179688 0)"/>
      <use xlink:href="#DejaVuSans-65" transform="translate(835.669922 0)"/>
      <use xlink:href="#DejaVuSans-72" transform="translate(897.193359 0)"/>
      <use xlink:href="#DejaVuSans-6f" transform="translate(936.056641 0)"/>
      <use xlink:href="#DejaVuSans-20" transform="translate(997.238281 0)"/>
      <use xlink:href="#DejaVuSans-63" transform="translate(1029.025391 0)"/>
      <use xlink:href="#DejaVuSans-6f" transform="translate(1084.005859 0)"/>
      <use xlink:href="#DejaVuSans-65" transform="translate(1145.1875 0)"/>
      <use xlink:href="#DejaVuSans-66" transform="translate(1206.710938 0)"/>
      <use xlink:href="#DejaVuSans-66" transform="translate(1241.916016 0)"/>
      <use xlink:href="#DejaVuSans-69" transform="translate(1277.121094 0)"/>
      <use xlink:href="#DejaVuSans-63" transform="translate(1304.904297 0)"/>
      <use xlink:href="#DejaVuSans-69" transform="translate(1359.884766 0)"/>
      <use xlink:href="#DejaVuSans-65" transform="translate(1387.667969 0)"/>
      <use xlink:href="#DejaVuSans-6e" transform="translate(1449.191406 0)"/>
      <use xlink:href="#DejaVuSans-74" transform="translate(1512.570312 0)"/>
      <use xlink:href="#DejaVuSans-73" transform="translate(1551.779297 0)"/>
     </g>
    </g>
   </g>
   <g id="matplotlib.axis_2">
    <g id="ytick_1">
     <g id="line2d_7">
      <defs>
       <path id="mdff9e1919b" d="M 0 0 
L -3.5 0 
" style="stroke: #000000; stroke-width: 0.8"/>
      </defs>
      <g>
       <use xlink:href="#mdff9e1919b" x="67.79" y="444.76" style="stroke: #000000; stroke-width: 0.8"/>
      </g>
     </g>
     <g id="text_8">
      <!-- 0.0 -->
      <g transform="translate(38.525625 450.078906) scale(0.14 -0.14)">
       <use xlink:href="#DejaVuSans-30"/>
       <use xlink:href="#DejaVuSans-2e" transform="translate(63.623047 0)"/>
       <use xlink:href="#DejaVuSans-30" transform="translate(95.410156 0)"/>
      </g>
     </g>
    </g>
    <g id="ytick_2">
     <g id="line2d_8">
      <g>
       <use xlink:href="#mdff9e1919b" x="67.79" y="369.796863" style="stroke: #000000; stroke-width: 0.8"/>
      </g>
     </g>
     <g id="text_9">
      <!-- 0.2 -->
      <g transform="translate(38.525625 375.115769) scale(0.14 -0.14)">
       <use xlink:href="#DejaVuSans-30"/>
       <use xlink:href="#DejaVuSans-2e" transform="translate(63.623047 0)"/>
       <use xlink:href="#DejaVuSans-32" transform="translate(95.410156 0)"/>
      </g>
     </g>
    </g>
    <g id="ytick_3">
     <g id="line2d_9">
      <g>
       <use xlink:href="#mdff9e1919b" x="67.79" y="294.833725" style="stroke: #000000; stroke-width: 0.8"/>
      </g>
     </g>
     <g id="text_10">
      <!-- 0.4 -->
      <g transform="translate(38.525625 300.152632) scale(0.14 -0.14)">
       <use xlink:href="#DejaVuSans-30"/>
       <use xlink:href="#DejaVuSans-2e" transform="translate(63.623047 0)"/>
       <use xlink:href="#DejaVuSans-34" transform="translate(95.410156 0)"/>
      </g>
     </g>
    </g>
    <g id="ytick_4">
     <g id="line2d_10">
      <g>
       <use xlink:href="#mdff9e1919b" x="67.79" y="219.870588" style="stroke: #000000; stroke-width: 0.8"/>
      </g>
     </g>
     <g id="text_11">
      <!-- 0.6 -->
      <g transform="translate(38.525625 225.189494) scale(0.14 -0.14)">
       <use xlink:href="#DejaVuSans-30"/>
       <use xlink:href="#DejaVuSans-2e" transform="translate(63.623047 0)"/>
       <use xlink:href="#DejaVuSans-36" transform="translate(95.410156 0)"/>
      </g>
     </g>
    </g>
    <g id="ytick_5">
     <g id="line2d_11">
      <g>
       <use xlink:href="#mdff9e1919b" x="67.79" y="144.907451" style="stroke: #000000; stroke-width: 0.8"/>
      </g>
     </g>
     <g id="text_12">
      <!-- 0.8 -->
      <g transform="translate(38.525625 150.226357) scale(0.14 -0.14)">
       <use xlink:href="#DejaVuSans-30"/>
       <use xlink:href="#DejaVuSans-2e" transform="translate(63.623047 0)"/>
       <use xlink:href="#DejaVuSans-38" transform="translate(95.410156 0)"/>
      </g>
     </g>
    </g>
    <g id="ytick_6">
     <g id="line2d_12">
      <g>
       <use xlink:href="#mdff9e1919b" x="67.79" y="69.944314" style="stroke: #000000; stroke-width: 0.8"/>
      </g>
     </g>
     <g id="text_13">
      <!-- 1.0 -->
      <g transform="translate(38.525625 75.26322) scale(0.14 -0.14)">
       <use xlink:href="#DejaVuSans-31"/>
       <use xlink:href="#DejaVuSans-2e" transform="translate(63.623047 0)"/>
       <use xlink:href="#DejaVuSans-30" transform="translate(95.410156 0)"/>
      </g>
     </g>
    </g>
    <g id="text_14">
     <!-- CV accuracy (train only) -->
     <g transform="translate(30.782188 362.241031) rotate(-90) scale(0.18 -0.18)">
      <defs>
       <path id="DejaVuSans-43" d="M 4122 4306 
L 4122 3641 
Q 3803 3938 3442 4084 
Q 3081 4231 2675 4231 
Q 1875 4231 1450 3742 
Q 1025 3253 1025 2328 
Q 1025 1406 1450 917 
Q 1875 428 2675 428 
Q 3081 428 3442 575 
Q 3803 722 4122 1019 
L 4122 359 
Q 3791 134 3420 21 
Q 3050 -91 2638 -91 
Q 1578 -91 968 557 
Q 359 1206 359 2328 
Q 359 3453 968 4101 
Q 1578 4750 2638 4750 
Q 3056 4750 3426 4639 
Q 3797 4528 4122 4306 
z
" transform="scale(0.015625)"/>
       <path id="DejaVuSans-56" d="M 1831 0 
L 50 4666 
L 709 4666 
L 2188 738 
L 3669 4666 
L 4325 4666 
L 2547 0 
L 1831 0 
z
" transform="scale(0.015625)"/>
       <path id="DejaVuSans-75" d="M 544 1381 
L 544 3500 
L 1119 3500 
L 1119 1403 
Q 1119 906 1312 657 
Q 1506 409 1894 409 
Q 2359 409 2629 706 
Q 2900 1003 2900 1516 
L 2900 3500 
L 3475 3500 
L 3475 0 
L 2900 0 
L 2900 538 
Q 2691 219 2414 64 
Q 2138 -91 1772 -91 
Q 1169 -91 856 284 
Q 544 659 544 1381 
z
M 1991 3584 
L 1991 3584 
z
" transform="scale(0.015625)"/>
       <path id="DejaVuSans-79" d="M 2059 -325 
Q 1816 -950 1584 -1140 
Q 1353 -1331 966 -1331 
L 506 -1331 
L 506 -850 
L 844 -850 
Q 1081 -850 1212 -737 
Q 1344 -625 1503 -206 
L 1606 56 
L 191 3500 
L 800 3500 
L 1894 763 
L 2988 3500 
L 3597 3500 
L 2059 -325 
z
" transform="scale(0.015625)"/>
       <path id="DejaVuSans-28" d="M 1984 4856 
Q 1566 4138 1362 3434 
Q 1159 2731 1159 2009 
Q 1159 1288 1364 580 
Q 1569 -128 1984 -844 
L 1484 -844 
Q 1016 -109 783 600 
Q 550 1309 550 2009 
Q 550 2706 781 3412 
Q 1013 4119 1484 4856 
L 1984 4856 
z
" transform="scale(0.015625)"/>
       <path id="DejaVuSans-6c" d="M 603 4863 
L 1178 4863 
L 1178 0 
L 603 0 
L 603 4863 
z
" transform="scale(0.015625)"/>
       <path id="DejaVuSans-29" d="M 513 4856 
L 1013 4856 
Q 1481 4119 1714 3412 
Q 1947 2706 1947 2009 
Q 1947 1309 1714 600 
Q 1481 -109 1013 -844 
L 513 -844 
Q 928 -128 1133 580 
Q 1338 1288 1338 2009 
Q 1338 2731 1133 3434 
Q 928 4138 513 4856 
z
" transform="scale(0.015625)"/>
      </defs>
      <use xlink:href="#DejaVuSans-43"/>
      <use xlink:href="#DejaVuSans-56" transform="translate(69.824219 0)"/>
      <use xlink:href="#DejaVuSans-20" transform="translate(138.232422 0)"/>
      <use xlink:href="#DejaVuSans-61" transform="translate(170.019531 0)"/>
      <use xlink:href="#DejaVuSans-63" transform="translate(231.298828 0)"/>
      <use xlink:href="#DejaVuSans-63" transform="translate(286.279297 0)"/>
      <use xlink:href="#DejaVuSans-75" transform="translate(341.259766 0)"/>
      <use xlink:href="#DejaVuSans-72" transform="translate(404.638672 0)"/>
      <use xlink:href="#DejaVuSans-61" transform="translate(445.751953 0)"/>
      <use xlink:href="#DejaVuSans-63" transform="translate(507.03125 0)"/>
      <use xlink:href="#DejaVuSans-79" transform="translate(562.011719 0)"/>
      <use xlink:href="#DejaVuSans-20" transform="translate(621.191406 0)"/>
      <use xlink:href="#DejaVuSans-28" transform="translate(652.978516 0)"/>
      <use xlink:href="#DejaVuSans-74" transform="translate(691.992188 0)"/>
      <use xlink:href="#DejaVuSans-72" transform="translate(731.201172 0)"/>
      <use xlink:href="#DejaVuSans-61" transform="translate(772.314453 0)"/>
      <use xlink:href="#DejaVuSans-69" transform="translate(833.59375 0)"/>
      <use xlink:href="#DejaVuSans-6e" transform="translate(861.376953 0)"/>
      <use xlink:href="#DejaVuSans-20" transform="translate(924.755859 0)"/>
      <use xlink:href="#DejaVuSans-6f" transform="translate(956.542969 0)"/>
      <use xlink:href="#DejaVuSans-6e" transform="translate(1017.724609 0)"/>
      <use xlink:href="#DejaVuSans-6c" transform="translate(1081.103516 0)"/>
      <use xlink:href="#DejaVuSans-79" transform="translate(1108.886719 0)"/>
      <use xlink:href="#DejaVuSans-29" transform="translate(1168.066406 0)"/>
     </g>
    </g>
   </g>
   <g id="line2d_13">
    <path d="M 67.79 274.723739 
L 67.79 274.723739 
L 67.79 274.723739 
L 67.79 274.723739 
L 67.79 274.723739 
L 67.79 274.723739 
L 67.79 274.723739 
L 73.493402 168.241841 
L 92.50474 139.147764 
L 132.428552 108.360662 
L 159.044426 95.648088 
L 174.253497 87.455209 
L 198.968238 83.501273 
L 214.177309 82.655824 
L 244.595451 81.242489 
L 257.903388 81.243552 
L 286.420396 80.115224 
L 316.838538 80.115224 
L 333.948743 80.678856 
L 337.751011 81.526432 
L 351.058948 82.938704 
L 406.191831 83.5034 
L 379.575956 83.78628 
L 411.895232 83.784153 
L 613.415423 83.218393 
" clip-path="url(#pbe39d87ddb)" style="fill: none; stroke: #1f77b4; stroke-width: 2.5; stroke-linecap: square"/>
   </g>
   <g id="line2d_14">
    <path d="M 67.79 204.379024 
L 67.79 204.379024 
L 67.79 204.379024 
L 67.79 204.379024 
L 67.79 204.379024 
L 67.79 204.379024 
L 67.79 204.379024 
L 99.417955 206.929598 
L 141.588561 131.074919 
L 225.929773 117.630902 
L 289.185682 110.269547 
L 331.356288 103.548902 
L 394.612197 100.352165 
L 521.124015 99.074833 
L 563.294621 100.996965 
L 658.178485 99.397915 
L 689.806439 97.794776 
L 731.977045 98.435486 
L 731.977045 98.116494 
L 763.605 98.116494 
L 763.605 99.07756 
L 763.605 98.436849 
L 763.605 99.076197 
L 763.605 99.076197 
L 763.605 99.076197 
" clip-path="url(#pbe39d87ddb)" style="fill: none; stroke: #ff7f0e; stroke-width: 2.5; stroke-linecap: square"/>
   </g>
   <g id="line2d_15">
    <path d="M 67.79 252.585729 
L 67.79 252.585729 
L 67.79 252.585729 
L 67.79 252.585729 
L 67.79 252.585729 
L 67.79 252.585729 
L 67.79 252.585729 
L 132.217315 207.423511 
L 183.759167 116.980231 
L 325.499259 106.219736 
L 402.812037 100.689668 
L 441.468426 100.076481 
L 493.010278 96.999164 
L 583.208519 93.92564 
L 647.635833 92.390774 
L 686.292222 90.849587 
L 712.063148 91.771265 
L 724.948611 93.614621 
L 737.834074 94.847318 
L 750.719537 94.541356 
L 763.605 93.619678 
L 763.605 94.54262 
L 763.605 94.849846 
L 763.605 94.849846 
L 763.605 94.54262 
" clip-path="url(#pbe39d87ddb)" style="fill: none; stroke: #2ca02c; stroke-width: 2.5; stroke-linecap: square"/>
   </g>
   <g id="line2d_16">
    <path d="M 67.79 218.242145 
L 67.79 218.242145 
L 67.79 218.242145 
L 67.79 218.242145 
L 67.79 218.242145 
L 67.79 218.242145 
L 67.79 218.242145 
L 70.197664 106.574713 
L 82.235986 95.271399 
L 91.866644 83.970823 
L 99.089637 79.901082 
L 99.089637 75.825868 
L 118.350952 74.465639 
L 118.350952 73.559732 
L 130.389273 72.656562 
L 142.427595 72.204976 
L 159.281246 72.20224 
L 166.504239 72.20224 
L 185.765554 71.750654 
L 209.842197 71.750654 
L 200.21154 71.750654 
L 217.06519 72.20224 
L 236.326505 72.20224 
L 383.194031 73.10541 
L 486.723599 73.556995 
" clip-path="url(#pbe39d87ddb)" style="fill: none; stroke: #d62728; stroke-width: 2.5; stroke-linecap: square"/>
   </g>
   <g id="line2d_17">
    <path d="M 67.79 240.264971 
L 67.79 240.264971 
L 67.79 240.264971 
L 67.79 240.264971 
L 67.79 240.264971 
L 67.79 240.264971 
L 67.79 240.264971 
L 67.79 240.264971 
L 79.838745 186.247416 
L 112.972792 164.199435 
L 149.119026 130.576263 
L 179.240887 115.693875 
L 227.435866 107.977082 
L 260.569913 96.401892 
L 302.740519 93.645894 
L 350.935498 94.748293 
L 372.020801 96.953091 
L 417.203593 98.60669 
L 435.27671 101.362687 
L 462.386385 101.913887 
L 474.43513 101.362687 
L 486.483874 101.362687 
L 501.544805 101.913887 
L 522.630108 101.913887 
L 537.691039 100.811488 
" clip-path="url(#pbe39d87ddb)" style="fill: none; stroke: #9467bd; stroke-width: 2.5; stroke-linecap: square"/>
   </g>
   <g id="line2d_18">
    <path d="M 67.79 249.636114 
L 67.79 249.636114 
L 67.79 249.636114 
L 67.79 249.636114 
L 67.79 249.636114 
L 77.590211 249.636114 
L 106.990845 155.855478 
L 146.19169 136.566544 
L 175.592324 125.587127 
L 234.393592 119.947804 
L 332.395704 112.825822 
L 391.196972 110.154162 
L 479.398873 106.147698 
L 518.599718 105.704133 
L 655.802676 104.368156 
L 714.603944 105.406662 
L 753.804789 105.407249 
L 753.804789 105.852575 
L 763.605 105.704426 
L 763.605 105.555984 
L 763.605 105.704426 
L 763.605 105.704426 
L 763.605 105.852868 
L 763.605 105.704426 
L 763.605 105.704426 
" clip-path="url(#pbe39d87ddb)" style="fill: none; stroke: #8c564b; stroke-width: 2.5; stroke-linecap: square"/>
   </g>
   <g id="line2d_19">
    <path d="M 67.79 269.318568 
L 67.79 269.318568 
L 67.79 269.318568 
L 67.79 269.318568 
L 67.79 269.318568 
L 67.79 269.318568 
L 78.92304 169.829233 
L 101.18912 144.709659 
L 123.4552 122.754756 
L 167.98736 114.249704 
L 212.51952 105.349067 
L 273.75124 97.635182 
L 346.116 93.679344 
L 440.74684 89.921298 
L 518.67812 88.932338 
L 607.74244 88.734546 
L 663.40764 87.745586 
L 702.37328 88.14117 
L 730.20588 89.525714 
L 752.47196 90.910257 
L 752.47196 93.481552 
L 746.90544 94.668304 
L 758.03848 95.657263 
L 763.605 97.239599 
L 763.605 97.239599 
" clip-path="url(#pbe39d87ddb)" style="fill: none; stroke: #e377c2; stroke-width: 2.5; stroke-linecap: square"/>
   </g>
   <g id="line2d_20">
    <path d="M 67.79 249.064355 
L 67.79 249.064355 
L 67.79 249.064355 
L 67.79 249.064355 
L 67.79 249.064355 
L 89.059454 132.826324 
L 98.174934 116.770139 
L 116.405895 113.143652 
L 155.90631 102.885578 
L 207.560699 96.152168 
L 253.1381 89.418759 
L 301.753996 87.24427 
L 405.062773 84.551938 
L 505.333057 83.102088 
L 569.141419 83.930553 
L 611.680328 84.552224 
L 672.450197 86.209298 
L 708.912118 87.141733 
L 724.104585 89.109713 
L 745.374039 90.456309 
L 751.451026 93.563662 
L 751.451026 95.946234 
L 757.528013 96.878525 
L 763.605 96.878382 
L 763.605 97.293259 
" clip-path="url(#pbe39d87ddb)" style="fill: none; stroke: #7f7f7f; stroke-width: 2.5; stroke-linecap: square"/>
   </g>
   <g id="line2d_21">
    <path d="M 67.79 230.833912 
L 67.79 230.833912 
L 67.79 230.833912 
L 67.79 230.833912 
L 67.79 230.833912 
L 67.79 230.833912 
L 90.792149 97.845533 
L 105.168492 83.005906 
L 131.045909 78.651867 
L 142.546983 77.265231 
L 154.048058 76.474063 
L 165.549132 75.880164 
L 197.177087 75.48458 
L 225.929773 75.682372 
L 294.936219 75.286789 
L 346.691054 74.891728 
L 363.942665 75.48615 
L 389.820083 75.288358 
L 435.82438 76.080049 
L 478.953409 76.277841 
L 513.456632 75.881211 
L 582.463079 75.683419 
L 539.33405 76.277318 
L 674.471674 75.880688 
L 714.725434 75.682896 
" clip-path="url(#pbe39d87ddb)" style="fill: none; stroke: #bcbd22; stroke-width: 2.5; stroke-linecap: square"/>
   </g>
   <g id="patch_3">
    <path d="M 67.79 444.76 
L 67.79 62.448 
" style="fill: none; stroke: #000000; stroke-width: 0.8; stroke-linejoin: miter; stroke-linecap: square"/>
   </g>
   <g id="patch_4">
    <path d="M 763.605 444.76 
L 763.605 62.448 
" style="fill: none; stroke: #000000; stroke-width: 0.8; stroke-linejoin: miter; stroke-linecap: square"/>
   </g>
   <g id="patch_5">
    <path d="M 67.79 444.76 
L 763.605 444.76 
" style="fill: none; stroke: #000000; stroke-width: 0.8; stroke-linejoin: miter; stroke-linecap: square"/>
   </g>
   <g id="patch_6">
    <path d="M 67.79 62.448 
L 763.605 62.448 
" style="fill: none; stroke: #000000; stroke-width: 0.8; stroke-linejoin: miter; stroke-linecap: square"/>
   </g>
   <g id="text_15">
    <!-- L1 Logistic Regression: CV accuracy vs sparsity -->
    <g transform="translate(178.89125 34.052375) scale(0.2 -0.2)">
     <defs>
      <path id="DejaVuSans-4c" d="M 628 4666 
L 1259 4666 
L 1259 531 
L 3531 531 
L 3531 0 
L 628 0 
L 628 4666 
z
" transform="scale(0.015625)"/>
      <path id="DejaVuSans-67" d="M 2906 1791 
Q 2906 2416 2648 2759 
Q 2391 3103 1925 3103 
Q 1463 3103 1205 2759 
Q 947 2416 947 1791 
Q 947 1169 1205 825 
Q 1463 481 1925 481 
Q 2391 481 2648 825 
Q 2906 1169 2906 1791 
z
M 3481 434 
Q 3481 -459 3084 -895 
Q 2688 -1331 1869 -1331 
Q 1566 -1331 1297 -1286 
Q 1028 -1241 775 -1147 
L 775 -588 
Q 1028 -725 1275 -790 
Q 1522 -856 1778 -856 
Q 2344 -856 2625 -561 
Q 2906 -266 2906 331 
L 2906 616 
Q 2728 306 2450 153 
Q 2172 0 1784 0 
Q 1141 0 747 490 
Q 353 981 353 1791 
Q 353 2603 747 3093 
Q 1141 3584 1784 3584 
Q 2172 3584 2450 3431 
Q 2728 3278 2906 2969 
L 2906 3500 
L 3481 3500 
L 3481 434 
z
" transform="scale(0.015625)"/>
      <path id="DejaVuSans-52" d="M 2841 2188 
Q 3044 2119 3236 1894 
Q 3428 1669 3622 1275 
L 4263 0 
L 3584 0 
L 2988 1197 
Q 2756 1666 2539 1819 
Q 2322 1972 1947 1972 
L 1259 1972 
L 1259 0 
L 628 0 
L 628 4666 
L 2053 4666 
Q 2853 4666 3247 4331 
Q 3641 3997 3641 3322 
Q 3641 2881 3436 2590 
Q 3231 2300 2841 2188 
z
M 1259 4147 
L 1259 2491 
L 2053 2491 
Q 2509 2491 2742 2702 
Q 2975 2913 2975 3322 
Q 2975 3731 2742 3939 
Q 2509 4147 2053 4147 
L 1259 4147 
z
" transform="scale(0.015625)"/>
      <path id="DejaVuSans-3a" d="M 750 794 
L 1409 794 
L 1409 0 
L 750 0 
L 750 794 
z
M 750 3309 
L 1409 3309 
L 1409 2516 
L 750 2516 
L 750 3309 
z
" transform="scale(0.015625)"/>
      <path id="DejaVuSans-76" d="M 191 3500 
L 800 3500 
L 1894 563 
L 2988 3500 
L 3597 3500 
L 2284 0 
L 1503 0 
L 191 3500 
z
" transform="scale(0.015625)"/>
      <path id="DejaVuSans-70" d="M 1159 525 
L 1159 -1331 
L 581 -1331 
L 581 3500 
L 1159 3500 
L 1159 2969 
Q 1341 3281 1617 3432 
Q 1894 3584 2278 3584 
Q 2916 3584 3314 3078 
Q 3713 2572 3713 1747 
Q 3713 922 3314 415 
Q 2916 -91 2278 -91 
Q 1894 -91 1617 61 
Q 1341 213 1159 525 
z
M 3116 1747 
Q 3116 2381 2855 2742 
Q 2594 3103 2138 3103 
Q 1681 3103 1420 2742 
Q 1159 2381 1159 1747 
Q 1159 1113 1420 752 
Q 1681 391 2138 391 
Q 2594 391 2855 752 
Q 3116 1113 3116 1747 
z
" transform="scale(0.015625)"/>
     </defs>
     <use xlink:href="#DejaVuSans-4c"/>
     <use xlink:href="#DejaVuSans-31" transform="translate(55.712891 0)"/>
     <use xlink:href="#DejaVuSans-20" transform="translate(119.335938 0)"/>
     <use xlink:href="#DejaVuSans-4c" transform="translate(151.123047 0)"/>
     <use xlink:href="#DejaVuSans-6f" transform="translate(205.085938 0)"/>
     <use xlink:href="#DejaVuSans-67" transform="translate(266.267578 0)"/>
     <use xlink:href="#DejaVuSans-69" transform="translate(329.744141 0)"/>
     <use xlink:href="#DejaVuSans-73" transform="translate(357.527344 0)"/>
     <use xlink:href="#DejaVuSans-74" transform="translate(409.626953 0)"/>
     <use xlink:href="#DejaVuSans-69" transform="translate(448.835938 0)"/>
     <use xlink:href="#DejaVuSans-63" transform="translate(476.619141 0)"/>
     <use xlink:href="#DejaVuSans-20" transform="translate(531.599609 0)"/>
     <use xlink:href="#DejaVuSans-52" transform="translate(563.386719 0)"/>
     <use xlink:href="#DejaVuSans-65" transform="translate(628.369141 0)"/>
     <use xlink:href="#DejaVuSans-67" transform="translate(689.892578 0)"/>
     <use xlink:href="#DejaVuSans-72" transform="translate(753.369141 0)"/>
     <use xlink:href="#DejaVuSans-65" transform="translate(792.232422 0)"/>
     <use xlink:href="#DejaVuSans-73" transform="translate(853.755859 0)"/>
     <use xlink:href="#DejaVuSans-73" transform="translate(905.855469 0)"/>
     <use xlink:href="#DejaVuSans-69" transform="translate(957.955078 0)"/>
     <use xlink:href="#DejaVuSans-6f" transform="translate(985.738281 0)"/>
     <use xlink:href="#DejaVuSans-6e" transform="translate(1046.919922 0)"/>
     <use xlink:href="#DejaVuSans-3a" transform="translate(1110.298828 0)"/>
     <use xlink:href="#DejaVuSans-20" transform="translate(1143.990234 0)"/>
     <use xlink:href="#DejaVuSans-43" transform="translate(1175.777344 0)"/>
     <use xlink:href="#DejaVuSans-56" transform="translate(1245.601562 0)"/>
     <use xlink:href="#DejaVuSans-20" transform="translate(1314.009766 0)"/>
     <use xlink:href="#DejaVuSans-61" transform="translate(1345.796875 0)"/>
     <use xlink:href="#DejaVuSans-63" transform="translate(1407.076172 0)"/>
     <use xlink:href="#DejaVuSans-63" transform="translate(1462.056641 0)"/>
     <use xlink:href="#DejaVuSans-75" transform="translate(1517.037109 0)"/>
     <use xlink:href="#DejaVuSans-72" transform="translate(1580.416016 0)"/>
     <use xlink:href="#DejaVuSans-61" transform="translate(1621.529297 0)"/>
     <use xlink:href="#DejaVuSans-63" transform="translate(1682.808594 0)"/>
     <use xlink:href="#DejaVuSans-79" transform="translate(1737.789062 0)"/>
     <use xlink:href="#DejaVuSans-20" transform="translate(1796.96875 0)"/>
     <use xlink:href="#DejaVuSans-76" transform="translate(1828.755859 0)"/>
     <use xlink:href="#DejaVuSans-73" transform="translate(1887.935547 0)"/>
     <use xlink:href="#DejaVuSans-20" transform="translate(1940.035156 0)"/>
     <use xlink:href="#DejaVuSans-73" transform="translate(1971.822266 0)"/>
     <use xlink:href="#DejaVuSans-70" transform="translate(2023.921875 0)"/>
     <use xlink:href="#DejaVuSans-61" transform="translate(2087.398438 0)"/>
     <use xlink:href="#DejaVuSans-72" transform="translate(2148.677734 0)"/>
     <use xlink:href="#DejaVuSans-73" transform="translate(2189.791016 0)"/>
     <use xlink:href="#DejaVuSans-69" transform="translate(2241.890625 0)"/>
     <use xlink:href="#DejaVuSans-74" transform="translate(2269.673828 0)"/>
     <use xlink:href="#DejaVuSans-79" transform="translate(2308.882812 0)"/>
    </g>
    <!-- (circle = CV-optimal, square = 1-SE) -->
    <g transform="translate(233.930313 56.448) scale(0.2 -0.2)">
     <defs>
      <path id="DejaVuSans-3d" d="M 678 2906 
L 4684 2906 
L 4684 2381 
L 678 2381 
L 678 2906 
z
M 678 1631 
L 4684 1631 
L 4684 1100 
L 678 1100 
L 678 1631 
z
" transform="scale(0.015625)"/>
      <path id="DejaVuSans-6d" d="M 3328 2828 
Q 3544 3216 3844 3400 
Q 4144 3584 4550 3584 
Q 5097 3584 5394 3201 
Q 5691 2819 5691 2113 
L 5691 0 
L 5113 0 
L 5113 2094 
Q 5113 2597 4934 2840 
Q 4756 3084 4391 3084 
Q 3944 3084 3684 2787 
Q 3425 2491 3425 1978 
L 3425 0 
L 2847 0 
L 2847 2094 
Q 2847 2600 2669 2842 
Q 2491 3084 2119 3084 
Q 1678 3084 1418 2786 
Q 1159 2488 1159 1978 
L 1159 0 
L 581 0 
L 581 3500 
L 1159 3500 
L 1159 2956 
Q 1356 3278 1631 3431 
Q 1906 3584 2284 3584 
Q 2666 3584 2933 3390 
Q 3200 3197 3328 2828 
z
" transform="scale(0.015625)"/>
      <path id="DejaVuSans-2c" d="M 750 794 
L 1409 794 
L 1409 256 
L 897 -744 
L 494 -744 
L 750 256 
L 750 794 
z
" transform="scale(0.015625)"/>
      <path id="DejaVuSans-71" d="M 947 1747 
Q 947 1113 1208 752 
Q 1469 391 1925 391 
Q 2381 391 2643 752 
Q 2906 1113 2906 1747 
Q 2906 2381 2643 2742 
Q 2381 3103 1925 3103 
Q 1469 3103 1208 2742 
Q 947 2381 947 1747 
z
M 2906 525 
Q 2725 213 2448 61 
Q 2172 -91 1784 -91 
Q 1150 -91 751 415 
Q 353 922 353 1747 
Q 353 2572 751 3078 
Q 1150 3584 1784 3584 
Q 2172 3584 2448 3432 
Q 2725 3281 2906 2969 
L 2906 3500 
L 3481 3500 
L 3481 -1331 
L 2906 -1331 
L 2906 525 
z
" transform="scale(0.015625)"/>
      <path id="DejaVuSans-53" d="M 3425 4513 
L 3425 3897 
Q 3066 4069 2747 4153 
Q 2428 4238 2131 4238 
Q 1616 4238 1336 4038 
Q 1056 3838 1056 3469 
Q 1056 3159 1242 3001 
Q 1428 2844 1947 2747 
L 2328 2669 
Q 3034 2534 3370 2195 
Q 3706 1856 3706 1288 
Q 3706 609 3251 259 
Q 2797 -91 1919 -91 
Q 1588 -91 1214 -16 
Q 841 59 441 206 
L 441 856 
Q 825 641 1194 531 
Q 1563 422 1919 422 
Q 2459 422 2753 634 
Q 3047 847 3047 1241 
Q 3047 1584 2836 1778 
Q 2625 1972 2144 2069 
L 1759 2144 
Q 1053 2284 737 2584 
Q 422 2884 422 3419 
Q 422 4038 858 4394 
Q 1294 4750 2059 4750 
Q 2388 4750 2728 4690 
Q 3069 4631 3425 4513 
z
" transform="scale(0.015625)"/>
      <path id="DejaVuSans-45" d="M 628 4666 
L 3578 4666 
L 3578 4134 
L 1259 4134 
L 1259 2753 
L 3481 2753 
L 3481 2222 
L 1259 2222 
L 1259 531 
L 3634 531 
L 3634 0 
L 628 0 
L 628 4666 
z
" transform="scale(0.015625)"/>
     </defs>
     <use xlink:href="#DejaVuSans-28"/>
     <use xlink:href="#DejaVuSans-63" transform="translate(39.013672 0)"/>
     <use xlink:href="#DejaVuSans-69" transform="translate(93.994141 0)"/>
     <use xlink:href="#DejaVuSans-72" transform="translate(121.777344 0)"/>
     <use xlink:href="#DejaVuSans-63" transform="translate(160.640625 0)"/>
     <use xlink:href="#DejaVuSans-6c" transform="translate(215.621094 0)"/>
     <use xlink:href="#DejaVuSans-65" transform="translate(243.404297 0)"/>
     <use xlink:href="#DejaVuSans-20" transform="translate(304.927734 0)"/>
     <use xlink:href="#DejaVuSans-3d" transform="translate(336.714844 0)"/>
     <use xlink:href="#DejaVuSans-20" transform="translate(420.503906 0)"/>
     <use xlink:href="#DejaVuSans-43" transform="translate(452.291016 0)"/>
     <use xlink:href="#DejaVuSans-56" transform="translate(522.115234 0)"/>
     <use xlink:href="#DejaVuSans-2d" transform="translate(584.648438 0)"/>
     <use xlink:href="#DejaVuSans-6f" transform="translate(622.607422 0)"/>
     <use xlink:href="#DejaVuSans-70" transform="translate(683.789062 0)"/>
     <use xlink:href="#DejaVuSans-74" transform="translate(747.265625 0)"/>
     <use xlink:href="#DejaVuSans-69" transform="translate(786.474609 0)"/>
     <use xlink:href="#DejaVuSans-6d" transform="translate(814.257812 0)"/>
     <use xlink:href="#DejaVuSans-61" transform="translate(911.669922 0)"/>
     <use xlink:href="#DejaVuSans-6c" transform="translate(972.949219 0)"/>
     <use xlink:href="#DejaVuSans-2c" transform="translate(1000.732422 0)"/>
     <use xlink:href="#DejaVuSans-20" transform="translate(1032.519531 0)"/>
     <use xlink:href="#DejaVuSans-73" transform="translate(1064.306641 0)"/>
     <use xlink:href="#DejaVuSans-71" transform="translate(1116.40625 0)"/>
     <use xlink:href="#DejaVuSans-75" transform="translate(1179.882812 0)"/>
     <use xlink:href="#DejaVuSans-61" transform="translate(1243.261719 0)"/>
     <use xlink:href="#DejaVuSans-72" transform="translate(1304.541016 0)"/>
     <use xlink:href="#DejaVuSans-65" transform="translate(1343.404297 0)"/>
     <use xlink:href="#DejaVuSans-20" transform="translate(1404.927734 0)"/>
     <use xlink:href="#DejaVuSans-3d" transform="translate(1436.714844 0)"/>
     <use xlink:href="#DejaVuSans-20" transform="translate(1520.503906 0)"/>
     <use xlink:href="#DejaVuSans-31" transform="translate(1552.291016 0)"/>
     <use xlink:href="#DejaVuSans-2d" transform="translate(1615.914062 0)"/>
     <use xlink:href="#DejaVuSans-53" transform="translate(1651.998047 0)"/>
     <use xlink:href="#DejaVuSans-45" transform="translate(1715.474609 0)"/>
     <use xlink:href="#DejaVuSans-29" transform="translate(1778.658203 0)"/>
    </g>
   </g>
   <g id="PathCollection_1">
    <defs>
     <path id="m7665cb25a0" d="M 0 3.5 
C 0.928211 3.5 1.81853 3.131218 2.474874 2.474874 
C 3.131218 1.81853 3.5 0.928211 3.5 0 
C 3.5 -0.928211 3.131218 -1.81853 2.474874 -2.474874 
C 1.81853 -3.131218 0.928211 -3.5 0 -3.5 
C -0.928211 -3.5 -1.81853 -3.131218 -2.474874 -2.474874 
C -3.131218 -1.81853 -3.5 -0.928211 -3.5 0 
C -3.5 0.928211 -3.131218 1.81853 -2.474874 2.474874 
C -1.81853 3.131218 -0.928211 3.5 0 3.5 
z
" style="stroke: #ff7f0e"/>
    </defs>
    <g clip-path="url(#pbe39d87ddb)">
     <use xlink:href="#m7665cb25a0" x="286.420396" y="80.115224" style="fill: #ff7f0e; stroke: #ff7f0e"/>
    </g>
   </g>
   <g id="PathCollection_2">
    <defs>
     <path id="mc3b9d34b6a" d="M -3.5 3.5 
L 3.5 3.5 
L 3.5 -3.5 
L -3.5 -3.5 
z
" style="stroke: #2ca02c"/>
    </defs>
    <g clip-path="url(#pbe39d87ddb)">
     <use xlink:href="#mc3b9d34b6a" x="244.595451" y="81.242489" style="fill: #2ca02c; stroke: #2ca02c"/>
    </g>
   </g>
   <g id="PathCollection_3">
    <defs>
     <path id="m948b492b8a" d="M 0 3.5 
C 0.928211 3.5 1.81853 3.131218 2.474874 2.474874 
C 3.131218 1.81853 3.5 0.928211 3.5 0 
C 3.5 -0.928211 3.131218 -1.81853 2.474874 -2.474874 
C 1.81853 -3.131218 0.928211 -3.5 0 -3.5 
C -0.928211 -3.5 -1.81853 -3.131218 -2.474874 -2.474874 
C -3.131218 -1.81853 -3.5 -0.928211 -3.5 0 
C -3.5 0.928211 -3.131218 1.81853 -2.474874 2.474874 
C -1.81853 3.131218 -0.928211 3.5 0 3.5 
z
" style="stroke: #9467bd"/>
    </defs>
    <g clip-path="url(#pbe39d87ddb)">
     <use xlink:href="#m948b492b8a" x="689.806439" y="97.794776" style="fill: #9467bd; stroke: #9467bd"/>
    </g>
   </g>
   <g id="PathCollection_4">
    <defs>
     <path id="m691d3ab056" d="M -3.5 3.5 
L 3.5 3.5 
L 3.5 -3.5 
L -3.5 -3.5 
z
" style="stroke: #8c564b"/>
    </defs>
    <g clip-path="url(#pbe39d87ddb)">
     <use xlink:href="#m691d3ab056" x="521.124015" y="99.074833" style="fill: #8c564b; stroke: #8c564b"/>
    </g>
   </g>
   <g id="PathCollection_5">
    <defs>
     <path id="m16a2f9c058" d="M 0 3.5 
C 0.928211 3.5 1.81853 3.131218 2.474874 2.474874 
C 3.131218 1.81853 3.5 0.928211 3.5 0 
C 3.5 -0.928211 3.131218 -1.81853 2.474874 -2.474874 
C 1.81853 -3.131218 0.928211 -3.5 0 -3.5 
C -0.928211 -3.5 -1.81853 -3.131218 -2.474874 -2.474874 
C -3.131218 -1.81853 -3.5 -0.928211 -3.5 0 
C -3.5 0.928211 -3.131218 1.81853 -2.474874 2.474874 
C -1.81853 3.131218 -0.928211 3.5 0 3.5 
z
" style="stroke: #7f7f7f"/>
    </defs>
    <g clip-path="url(#pbe39d87ddb)">
     <use xlink:href="#m16a2f9c058" x="686.292222" y="90.849587" style="fill: #7f7f7f; stroke: #7f7f7f"/>
    </g>
   </g>
   <g id="PathCollection_6">
    <defs>
     <path id="m8d5e86a531" d="M -3.5 3.5 
L 3.5 3.5 
L 3.5 -3.5 
L -3.5 -3.5 
z
" style="stroke: #bcbd22"/>
    </defs>
    <g clip-path="url(#pbe39d87ddb)">
     <use xlink:href="#m8d5e86a531" x="647.635833" y="92.390774" style="fill: #bcbd22; stroke: #bcbd22"/>
    </g>
   </g>
   <g id="PathCollection_7">
    <defs>
     <path id="m1afb84c2be" d="M 0 3.5 
C 0.928211 3.5 1.81853 3.131218 2.474874 2.474874 
C 3.131218 1.81853 3.5 0.928211 3.5 0 
C 3.5 -0.928211 3.131218 -1.81853 2.474874 -2.474874 
C 1.81853 -3.131218 0.928211 -3.5 0 -3.5 
C -0.928211 -3.5 -1.81853 -3.131218 -2.474874 -2.474874 
C -3.131218 -1.81853 -3.5 -0.928211 -3.5 0 
C -3.5 0.928211 -3.131218 1.81853 -2.474874 2.474874 
C -1.81853 3.131218 -0.928211 3.5 0 3.5 
z
" style="stroke: #1f77b4"/>
    </defs>
    <g clip-path="url(#pbe39d87ddb)">
     <use xlink:href="#m1afb84c2be" x="185.765554" y="71.750654" style="fill: #1f77b4; stroke: #1f77b4"/>
    </g>
   </g>
   <g id="PathCollection_8">
    <defs>
     <path id="m6a85e0f392" d="M -3.5 3.5 
L 3.5 3.5 
L 3.5 -3.5 
L -3.5 -3.5 
z
" style="stroke: #ff7f0e"/>
    </defs>
    <g clip-path="url(#pbe39d87ddb)">
     <use xlink:href="#m6a85e0f392" x="130.389273" y="72.656562" style="fill: #ff7f0e; stroke: #ff7f0e"/>
    </g>
   </g>
   <g id="PathCollection_9">
    <defs>
     <path id="mec13f4773b" d="M 0 3.5 
C 0.928211 3.5 1.81853 3.131218 2.474874 2.474874 
C 3.131218 1.81853 3.5 0.928211 3.5 0 
C 3.5 -0.928211 3.131218 -1.81853 2.474874 -2.474874 
C 1.81853 -3.131218 0.928211 -3.5 0 -3.5 
C -0.928211 -3.5 -1.81853 -3.131218 -2.474874 -2.474874 
C -3.131218 -1.81853 -3.5 -0.928211 -3.5 0 
C -3.5 0.928211 -3.131218 1.81853 -2.474874 2.474874 
C -1.81853 3.131218 -0.928211 3.5 0 3.5 
z
" style="stroke: #d62728"/>
    </defs>
    <g clip-path="url(#pbe39d87ddb)">
     <use xlink:href="#mec13f4773b" x="302.740519" y="93.645894" style="fill: #d62728; stroke: #d62728"/>
    </g>
   </g>
   <g id="PathCollection_10">
    <defs>
     <path id="mf398ffd1ed" d="M -3.5 3.5 
L 3.5 3.5 
L 3.5 -3.5 
L -3.5 -3.5 
z
" style="stroke: #9467bd"/>
    </defs>
    <g clip-path="url(#pbe39d87ddb)">
     <use xlink:href="#mf398ffd1ed" x="302.740519" y="93.645894" style="fill: #9467bd; stroke: #9467bd"/>
    </g>
   </g>
   <g id="PathCollection_11">
    <defs>
     <path id="m18e4bf9f66" d="M 0 3.5 
C 0.928211 3.5 1.81853 3.131218 2.474874 2.474874 
C 3.131218 1.81853 3.5 0.928211 3.5 0 
C 3.5 -0.928211 3.131218 -1.81853 2.474874 -2.474874 
C 1.81853 -3.131218 0.928211 -3.5 0 -3.5 
C -0.928211 -3.5 -1.81853 -3.131218 -2.474874 -2.474874 
C -3.131218 -1.81853 -3.5 -0.928211 -3.5 0 
C -3.5 0.928211 -3.131218 1.81853 -2.474874 2.474874 
C -1.81853 3.131218 -0.928211 3.5 0 3.5 
z
" style="stroke: #e377c2"/>
    </defs>
    <g clip-path="url(#pbe39d87ddb)">
     <use xlink:href="#m18e4bf9f66" x="655.802676" y="104.368156" style="fill: #e377c2; stroke: #e377c2"/>
    </g>
   </g>
   <g id="PathCollection_12">
    <defs>
     <path id="m6392ce05c8" d="M -3.5 3.5 
L 3.5 3.5 
L 3.5 -3.5 
L -3.5 -3.5 
z
" style="stroke: #7f7f7f"/>
    </defs>
    <g clip-path="url(#pbe39d87ddb)">
     <use xlink:href="#m6392ce05c8" x="518.599718" y="105.704133" style="fill: #7f7f7f; stroke: #7f7f7f"/>
    </g>
   </g>
   <g id="PathCollection_13">
    <defs>
     <path id="m8f7cda90a0" d="M 0 3.5 
C 0.928211 3.5 1.81853 3.131218 2.474874 2.474874 
C 3.131218 1.81853 3.5 0.928211 3.5 0 
C 3.5 -0.928211 3.131218 -1.81853 2.474874 -2.474874 
C 1.81853 -3.131218 0.928211 -3.5 0 -3.5 
C -0.928211 -3.5 -1.81853 -3.131218 -2.474874 -2.474874 
C -3.131218 -1.81853 -3.5 -0.928211 -3.5 0 
C -3.5 0.928211 -3.131218 1.81853 -2.474874 2.474874 
C -1.81853 3.131218 -0.928211 3.5 0 3.5 
z
" style="stroke: #17becf"/>
    </defs>
    <g clip-path="url(#pbe39d87ddb)">
     <use xlink:href="#m8f7cda90a0" x="663.40764" y="87.745586" style="fill: #17becf; stroke: #17becf"/>
    </g>
   </g>
   <g id="PathCollection_14">
    <defs>
     <path id="m33a0e59b3c" d="M -3.5 3.5 
L 3.5 3.5 
L 3.5 -3.5 
L -3.5 -3.5 
z
" style="stroke: #1f77b4"/>
    </defs>
    <g clip-path="url(#pbe39d87ddb)">
     <use xlink:href="#m33a0e59b3c" x="518.67812" y="88.932338" style="fill: #1f77b4; stroke: #1f77b4"/>
    </g>
   </g>
   <g id="PathCollection_15">
    <defs>
     <path id="m726cea258f" d="M 0 3.5 
C 0.928211 3.5 1.81853 3.131218 2.474874 2.474874 
C 3.131218 1.81853 3.5 0.928211 3.5 0 
C 3.5 -0.928211 3.131218 -1.81853 2.474874 -2.474874 
C 1.81853 -3.131218 0.928211 -3.5 0 -3.5 
C -0.928211 -3.5 -1.81853 -3.131218 -2.474874 -2.474874 
C -3.131218 -1.81853 -3.5 -0.928211 -3.5 0 
C -3.5 0.928211 -3.131218 1.81853 -2.474874 2.474874 
C -1.81853 3.131218 -0.928211 3.5 0 3.5 
z
" style="stroke: #2ca02c"/>
    </defs>
    <g clip-path="url(#pbe39d87ddb)">
     <use xlink:href="#m726cea258f" x="505.333057" y="83.102088" style="fill: #2ca02c; stroke: #2ca02c"/>
    </g>
   </g>
   <g id="PathCollection_16">
    <defs>
     <path id="m8c92bec2e2" d="M -3.5 3.5 
L 3.5 3.5 
L 3.5 -3.5 
L -3.5 -3.5 
z
" style="stroke: #d62728"/>
    </defs>
    <g clip-path="url(#pbe39d87ddb)">
     <use xlink:href="#m8c92bec2e2" x="505.333057" y="83.102088" style="fill: #d62728; stroke: #d62728"/>
    </g>
   </g>
   <g id="PathCollection_17">
    <defs>
     <path id="mcacd78aab2" d="M 0 3.5 
C 0.928211 3.5 1.81853 3.131218 2.474874 2.474874 
C 3.131218 1.81853 3.5 0.928211 3.5 0 
C 3.5 -0.928211 3.131218 -1.81853 2.474874 -2.474874 
C 1.81853 -3.131218 0.928211 -3.5 0 -3.5 
C -0.928211 -3.5 -1.81853 -3.131218 -2.474874 -2.474874 
C -3.131218 -1.81853 -3.5 -0.928211 -3.5 0 
C -3.5 0.928211 -3.131218 1.81853 -2.474874 2.474874 
C -1.81853 3.131218 -0.928211 3.5 0 3.5 
z
" style="stroke: #8c564b"/>
    </defs>
    <g clip-path="url(#pbe39d87ddb)">
     <use xlink:href="#mcacd78aab2" x="346.691054" y="74.891728" style="fill: #8c564b; stroke: #8c564b"/>
    </g>
   </g>
   <g id="PathCollection_18">
    <defs>
     <path id="m9f646e07ee" d="M -3.5 3.5 
L 3.5 3.5 
L 3.5 -3.5 
L -3.5 -3.5 
z
" style="stroke: #e377c2"/>
    </defs>
    <g clip-path="url(#pbe39d87ddb)">
     <use xlink:href="#m9f646e07ee" x="197.177087" y="75.48458" style="fill: #e377c2; stroke: #e377c2"/>
    </g>
   </g>
   <g id="legend_1">
    <g id="patch_7">
     <path d="M 76.19 438.76 
L 289.07 438.76 
Q 291.47 438.76 291.47 436.36 
L 291.47 349.49125 
Q 291.47 347.09125 289.07 347.09125 
L 76.19 347.09125 
Q 73.79 347.09125 73.79 349.49125 
L 73.79 436.36 
Q 73.79 438.76 76.19 438.76 
z
" style="fill: #ffffff; opacity: 0.8; stroke: #cccccc; stroke-linejoin: miter"/>
    </g>
    <g id="line2d_22">
     <path d="M 78.59 356.809375 
L 90.59 356.809375 
L 102.59 356.809375 
" style="fill: none; stroke: #1f77b4; stroke-width: 2.5; stroke-linecap: square"/>
    </g>
    <g id="text_16">
     <!-- Dataset 1 -->
     <g transform="translate(112.19 361.009375) scale(0.12 -0.12)">
      <defs>
       <path id="DejaVuSans-44" d="M 1259 4147 
L 1259 519 
L 2022 519 
Q 2988 519 3436 956 
Q 3884 1394 3884 2338 
Q 3884 3275 3436 3711 
Q 2988 4147 2022 4147 
L 1259 4147 
z
M 628 4666 
L 1925 4666 
Q 3281 4666 3915 4102 
Q 4550 3538 4550 2338 
Q 4550 1131 3912 565 
Q 3275 0 1925 0 
L 628 0 
L 628 4666 
z
" transform="scale(0.015625)"/>
      </defs>
      <use xlink:href="#DejaVuSans-44"/>
      <use xlink:href="#DejaVuSans-61" transform="translate(77.001953 0)"/>
      <use xlink:href="#DejaVuSans-74" transform="translate(138.28125 0)"/>
      <use xlink:href="#DejaVuSans-61" transform="translate(177.490234 0)"/>
      <use xlink:href="#DejaVuSans-73" transform="translate(238.769531 0)"/>
      <use xlink:href="#DejaVuSans-65" transform="translate(290.869141 0)"/>
      <use xlink:href="#DejaVuSans-74" transform="translate(352.392578 0)"/>
      <use xlink:href="#DejaVuSans-20" transform="translate(391.601562 0)"/>
      <use xlink:href="#DejaVuSans-31" transform="translate(423.388672 0)"/>
     </g>
    </g>
    <g id="line2d_23">
     <path d="M 78.59 374.423125 
L 90.59 374.423125 
L 102.59 374.423125 
" style="fill: none; stroke: #ff7f0e; stroke-width: 2.5; stroke-linecap: square"/>
    </g>
    <g id="text_17">
     <!-- Dataset 2 -->
     <g transform="translate(112.19 378.623125) scale(0.12 -0.12)">
      <use xlink:href="#DejaVuSans-44"/>
      <use xlink:href="#DejaVuSans-61" transform="translate(77.001953 0)"/>
      <use xlink:href="#DejaVuSans-74" transform="translate(138.28125 0)"/>
      <use xlink:href="#DejaVuSans-61" transform="translate(177.490234 0)"/>
      <use xlink:href="#DejaVuSans-73" transform="translate(238.769531 0)"/>
      <use xlink:href="#DejaVuSans-65" transform="translate(290.869141 0)"/>
      <use xlink:href="#DejaVuSans-74" transform="translate(352.392578 0)"/>
      <use xlink:href="#DejaVuSans-20" transform="translate(391.601562 0)"/>
      <use xlink:href="#DejaVuSans-32" transform="translate(423.388672 0)"/>
     </g>
    </g>
    <g id="line2d_24">
     <path d="M 78.59 392.036875 
L 90.59 392.036875 
L 102.59 392.036875 
" style="fill: none; stroke: #2ca02c; stroke-width: 2.5; stroke-linecap: square"/>
    </g>
    <g id="text_18">
     <!-- Dataset 3 -->
     <g transform="translate(112.19 396.236875) scale(0.12 -0.12)">
      <defs>
       <path id="DejaVuSans-33" d="M 2597 2516 
Q 3050 2419 3304 2112 
Q 3559 1806 3559 1356 
Q 3559 666 3084 287 
Q 2609 -91 1734 -91 
Q 1441 -91 1130 -33 
Q 819 25 488 141 
L 488 750 
Q 750 597 1062 519 
Q 1375 441 1716 441 
Q 2309 441 2620 675 
Q 2931 909 2931 1356 
Q 2931 1769 2642 2001 
Q 2353 2234 1838 2234 
L 1294 2234 
L 1294 2753 
L 1863 2753 
Q 2328 2753 2575 2939 
Q 2822 3125 2822 3475 
Q 2822 3834 2567 4026 
Q 2313 4219 1838 4219 
Q 1578 4219 1281 4162 
Q 984 4106 628 3988 
L 628 4550 
Q 988 4650 1302 4700 
Q 1616 4750 1894 4750 
Q 2613 4750 3031 4423 
Q 3450 4097 3450 3541 
Q 3450 3153 3228 2886 
Q 3006 2619 2597 2516 
z
" transform="scale(0.015625)"/>
      </defs>
      <use xlink:href="#DejaVuSans-44"/>
      <use xlink:href="#DejaVuSans-61" transform="translate(77.001953 0)"/>
      <use xlink:href="#DejaVuSans-74" transform="translate(138.28125 0)"/>
      <use xlink:href="#DejaVuSans-61" transform="translate(177.490234 0)"/>
      <use xlink:href="#DejaVuSans-73" transform="translate(238.769531 0)"/>
      <use xlink:href="#DejaVuSans-65" transform="translate(290.869141 0)"/>
      <use xlink:href="#DejaVuSans-74" transform="translate(352.392578 0)"/>
      <use xlink:href="#DejaVuSans-20" transform="translate(391.601562 0)"/>
      <use xlink:href="#DejaVuSans-33" transform="translate(423.388672 0)"/>
     </g>
    </g>
    <g id="line2d_25">
     <path d="M 78.59 409.650625 
L 90.59 409.650625 
L 102.59 409.650625 
" style="fill: none; stroke: #d62728; stroke-width: 2.5; stroke-linecap: square"/>
    </g>
    <g id="text_19">
     <!-- Dataset 4 -->
     <g transform="translate(112.19 413.850625) scale(0.12 -0.12)">
      <use xlink:href="#DejaVuSans-44"/>
      <use xlink:href="#DejaVuSans-61" transform="translate(77.001953 0)"/>
      <use xlink:href="#DejaVuSans-74" transform="translate(138.28125 0)"/>
      <use xlink:href="#DejaVuSans-61" transform="translate(177.490234 0)"/>
      <use xlink:href="#DejaVuSans-73" transform="translate(238.769531 0)"/>
      <use xlink:href="#DejaVuSans-65" transform="translate(290.869141 0)"/>
      <use xlink:href="#DejaVuSans-74" transform="translate(352.392578 0)"/>
      <use xlink:href="#DejaVuSans-20" transform="translate(391.601562 0)"/>
      <use xlink:href="#DejaVuSans-34" transform="translate(423.388672 0)"/>
     </g>
    </g>
    <g id="line2d_26">
     <path d="M 78.59 427.264375 
L 90.59 427.264375 
L 102.59 427.264375 
" style="fill: none; stroke: #9467bd; stroke-width: 2.5; stroke-linecap: square"/>
    </g>
    <g id="text_20">
     <!-- Dataset 5 -->
     <g transform="translate(112.19 431.464375) scale(0.12 -0.12)">
      <defs>
       <path id="DejaVuSans-35" d="M 691 4666 
L 3169 4666 
L 3169 4134 
L 1269 4134 
L 1269 2991 
Q 1406 3038 1543 3061 
Q 1681 3084 1819 3084 
Q 2600 3084 3056 2656 
Q 3513 2228 3513 1497 
Q 3513 744 3044 326 
Q 2575 -91 1722 -91 
Q 1428 -91 1123 -41 
Q 819 9 494 109 
L 494 744 
Q 775 591 1075 516 
Q 1375 441 1709 441 
Q 2250 441 2565 725 
Q 2881 1009 2881 1497 
Q 2881 1984 2565 2268 
Q 2250 2553 1709 2553 
Q 1456 2553 1204 2497 
Q 953 2441 691 2322 
L 691 4666 
z
" transform="scale(0.015625)"/>
      </defs>
      <use xlink:href="#DejaVuSans-44"/>
      <use xlink:href="#DejaVuSans-61" transform="translate(77.001953 0)"/>
      <use xlink:href="#DejaVuSans-74" transform="translate(138.28125 0)"/>
      <use xlink:href="#DejaVuSans-61" transform="translate(177.490234 0)"/>
      <use xlink:href="#DejaVuSans-73" transform="translate(238.769531 0)"/>
      <use xlink:href="#DejaVuSans-65" transform="translate(290.869141 0)"/>
      <use xlink:href="#DejaVuSans-74" transform="translate(352.392578 0)"/>
      <use xlink:href="#DejaVuSans-20" transform="translate(391.601562 0)"/>
      <use xlink:href="#DejaVuSans-35" transform="translate(423.388672 0)"/>
     </g>
    </g>
    <g id="line2d_27">
     <path d="M 194.63 356.809375 
L 206.63 356.809375 
L 218.63 356.809375 
" style="fill: none; stroke: #8c564b; stroke-width: 2.5; stroke-linecap: square"/>
    </g>
    <g id="text_21">
     <!-- Dataset 6 -->
     <g transform="translate(228.23 361.009375) scale(0.12 -0.12)">
      <use xlink:href="#DejaVuSans-44"/>
      <use xlink:href="#DejaVuSans-61" transform="translate(77.001953 0)"/>
      <use xlink:href="#DejaVuSans-74" transform="translate(138.28125 0)"/>
      <use xlink:href="#DejaVuSans-61" transform="translate(177.490234 0)"/>
      <use xlink:href="#DejaVuSans-73" transform="translate(238.769531 0)"/>
      <use xlink:href="#DejaVuSans-65" transform="translate(290.869141 0)"/>
      <use xlink:href="#DejaVuSans-74" transform="translate(352.392578 0)"/>
      <use xlink:href="#DejaVuSans-20" transform="translate(391.601562 0)"/>
      <use xlink:href="#DejaVuSans-36" transform="translate(423.388672 0)"/>
     </g>
    </g>
    <g id="line2d_28">
     <path d="M 194.63 374.423125 
L 206.63 374.423125 
L 218.63 374.423125 
" style="fill: none; stroke: #e377c2; stroke-width: 2.5; stroke-linecap: square"/>
    </g>
    <g id="text_22">
     <!-- Dataset 7 -->
     <g transform="translate(228.23 378.623125) scale(0.12 -0.12)">
      <defs>
       <path id="DejaVuSans-37" d="M 525 4666 
L 3525 4666 
L 3525 4397 
L 1831 0 
L 1172 0 
L 2766 4134 
L 525 4134 
L 525 4666 
z
" transform="scale(0.015625)"/>
      </defs>
      <use xlink:href="#DejaVuSans-44"/>
      <use xlink:href="#DejaVuSans-61" transform="translate(77.001953 0)"/>
      <use xlink:href="#DejaVuSans-74" transform="translate(138.28125 0)"/>
      <use xlink:href="#DejaVuSans-61" transform="translate(177.490234 0)"/>
      <use xlink:href="#DejaVuSans-73" transform="translate(238.769531 0)"/>
      <use xlink:href="#DejaVuSans-65" transform="translate(290.869141 0)"/>
      <use xlink:href="#DejaVuSans-74" transform="translate(352.392578 0)"/>
      <use xlink:href="#DejaVuSans-20" transform="translate(391.601562 0)"/>
      <use xlink:href="#DejaVuSans-37" transform="translate(423.388672 0)"/>
     </g>
    </g>
    <g id="line2d_29">
     <path d="M 194.63 392.036875 
L 206.63 392.036875 
L 218.63 392.036875 
" style="fill: none; stroke: #7f7f7f; stroke-width: 2.5; stroke-linecap: square"/>
    </g>
    <g id="text_23">
     <!-- Dataset 8 -->
     <g transform="translate(228.23 396.236875) scale(0.12 -0.12)">
      <use xlink:href="#DejaVuSans-44"/>
      <use xlink:href="#DejaVuSans-61" transform="translate(77.001953 0)"/>
      <use xlink:href="#DejaVuSans-74" transform="translate(138.28125 0)"/>
      <use xlink:href="#DejaVuSans-61" transform="translate(177.490234 0)"/>
      <use xlink:href="#DejaVuSans-73" transform="translate(238.769531 0)"/>
      <use xlink:href="#DejaVuSans-65" transform="translate(290.869141 0)"/>
      <use xlink:href="#DejaVuSans-74" transform="translate(352.392578 0)"/>
      <use xlink:href="#DejaVuSans-20" transform="translate(391.601562 0)"/>
      <use xlink:href="#DejaVuSans-38" transform="translate(423.388672 0)"/>
     </g>
    </g>
    <g id="line2d_30">
     <path d="M 194.63 409.650625 
L 206.63 409.650625 
L 218.63 409.650625 
" style="fill: none; stroke: #bcbd22; stroke-width: 2.5; stroke-linecap: square"/>
    </g>
    <g id="text_24">
     <!-- Dataset 9 -->
     <g transform="translate(228.23 413.850625) scale(0.12 -0.12)">
      <defs>
       <path id="DejaVuSans-39" d="M 703 97 
L 703 672 
Q 941 559 1184 500 
Q 1428 441 1663 441 
Q 2288 441 2617 861 
Q 2947 1281 2994 2138 
Q 2813 1869 2534 1725 
Q 2256 1581 1919 1581 
Q 1219 1581 811 2004 
Q 403 2428 403 3163 
Q 403 3881 828 4315 
Q 1253 4750 1959 4750 
Q 2769 4750 3195 4129 
Q 3622 3509 3622 2328 
Q 3622 1225 3098 567 
Q 2575 -91 1691 -91 
Q 1453 -91 1209 -44 
Q 966 3 703 97 
z
M 1959 2075 
Q 2384 2075 2632 2365 
Q 2881 2656 2881 3163 
Q 2881 3666 2632 3958 
Q 2384 4250 1959 4250 
Q 1534 4250 1286 3958 
Q 1038 3666 1038 3163 
Q 1038 2656 1286 2365 
Q 1534 2075 1959 2075 
z
" transform="scale(0.015625)"/>
      </defs>
      <use xlink:href="#DejaVuSans-44"/>
      <use xlink:href="#DejaVuSans-61" transform="translate(77.001953 0)"/>
      <use xlink:href="#DejaVuSans-74" transform="translate(138.28125 0)"/>
      <use xlink:href="#DejaVuSans-61" transform="translate(177.490234 0)"/>
      <use xlink:href="#DejaVuSans-73" transform="translate(238.769531 0)"/>
      <use xlink:href="#DejaVuSans-65" transform="translate(290.869141 0)"/>
      <use xlink:href="#DejaVuSans-74" transform="translate(352.392578 0)"/>
      <use xlink:href="#DejaVuSans-20" transform="translate(391.601562 0)"/>
      <use xlink:href="#DejaVuSans-39" transform="translate(423.388672 0)"/>
     </g>
    </g>
   </g>
  </g>
 </g>
 <defs>
  <clipPath id="pbe39d87ddb">
   <rect x="67.79" y="62.448" width="695.815" height="382.312"/>
  </clipPath>
 </defs>
</svg>
