<?xml version="1.0" encoding="utf-8" standalone="no"?>
<!DOCTYPE svg PUBLIC "-//W3C//DTD SVG 1.1//EN"
  "http://www.w3.org/Graphics/SVG/1.1/DTD/svg11.dtd">
<svg xmlns:xlink="http://www.w3.org/1999/xlink" width="1000.433125pt" height="351.034375pt" viewBox="0 0 1000.433125 351.034375" xmlns="http://www.w3.org/2000/svg" version="1.1">
 <metadata>
  <rdf:RDF xmlns:dc="http://purl.org/dc/elements/1.1/" xmlns:cc="http://creativecommons.org/ns#" xmlns:rdf="http://www.w3.org/1999/02/22-rdf-syntax-ns#">
   <cc:Work>
    <dc:type rdf:resource="http://purl.org/dc/dcmitype/StillImage"/>
    <dc:date>2025-11-24T14:57:03.424912</dc:date>
    <dc:format>image/svg+xml</dc:format>
    <dc:creator>
     <cc:Agent>
      <dc:title>Matplotlib v3.10.0, https://matplotlib.org/</dc:title>
     </cc:Agent>
    </dc:creator>
   </cc:Work>
  </rdf:RDF>
 </metadata>
 <defs>
  <style type="text/css">*{stroke-linejoin: round; stroke-linecap: butt}</style>
 </defs>
 <g id="figure_1">
  <g id="patch_1">
   <path d="M 0 351.034375 
L 1000.433125 351.034375 
L 1000.433125 0 
L 0 0 
z
" style="fill: #ffffff"/>
  </g>
  <g id="axes_1">
   <g id="patch_2">
    <path d="M 40.603125 313.478125 
L 509.768125 313.478125 
L 509.768125 22.318125 
L 40.603125 22.318125 
z
" style="fill: #ffffff"/>
   </g>
   <g id="FillBetweenPolyCollection_1">
    <path d="M 61.928807 297.717182 
L 61.928807 310.502265 
L 64.791314 310.679368 
L 67.653822 310.234619 
L 70.51633 308.939671 
L 73.378837 307.096297 
L 76.241345 306.041069 
L 79.103853 305.042239 
L 81.96636 304.923296 
L 84.828868 305.485072 
L 87.691375 304.531112 
L 90.553883 303.20645 
L 93.416391 302.125879 
L 96.278898 301.198165 
L 99.141406 300.526309 
L 102.003914 299.967713 
L 104.866421 299.466677 
L 107.728929 299.073883 
L 110.591436 301.228191 
L 113.453944 303.949729 
L 116.316452 303.301075 
L 119.178959 302.469446 
L 122.041467 302.531606 
L 124.903975 302.83215 
L 127.766482 300.449986 
L 130.62899 299.85269 
L 133.491497 299.784127 
L 136.354005 299.869864 
L 139.216513 300.576601 
L 142.07902 298.654702 
L 144.941528 298.24682 
L 147.804036 299.403319 
L 150.666543 298.864431 
L 153.529051 297.181664 
L 156.391558 298.100671 
L 159.254066 298.617571 
L 162.116574 296.763997 
L 164.979081 292.154882 
L 167.841589 284.739472 
L 170.704097 272.545358 
L 173.566604 257.42764 
L 176.429112 226.252273 
L 179.29162 199.005127 
L 182.154127 184.583142 
L 185.016635 178.916863 
L 187.879142 185.194853 
L 190.74165 194.405346 
L 193.604158 208.836933 
L 196.466665 218.897924 
L 199.329173 228.229674 
L 202.191681 233.258925 
L 205.054188 238.953069 
L 207.916696 244.313177 
L 210.779203 249.370964 
L 213.641711 252.754389 
L 216.504219 259.702176 
L 219.366726 265.022829 
L 222.229234 269.072406 
L 225.091742 270.62974 
L 227.954249 272.023027 
L 230.816757 274.527979 
L 233.679264 274.040134 
L 236.541772 277.71554 
L 239.40428 279.188278 
L 242.266787 279.353091 
L 245.129295 281.429319 
L 247.991803 283.063686 
L 250.85431 285.804315 
L 253.716818 288.135588 
L 256.579325 289.557352 
L 259.441833 288.711557 
L 262.304341 286.822511 
L 265.166848 287.424337 
L 268.029356 288.080307 
L 270.891864 287.582114 
L 273.754371 288.069665 
L 276.616879 290.451017 
L 279.479386 292.369209 
L 282.341894 291.971314 
L 285.204402 292.214932 
L 288.066909 293.593774 
L 290.929417 297.280752 
L 293.791925 294.31538 
L 296.654432 295.145678 
L 299.51694 296.077168 
L 302.379447 297.097178 
L 305.241955 296.776872 
L 308.104463 296.700305 
L 310.96697 296.527335 
L 313.829478 295.20838 
L 316.691986 299.08921 
L 319.554493 297.870549 
L 322.417001 298.931983 
L 325.279508 296.623376 
L 328.142016 296.694394 
L 331.004524 298.615278 
L 333.867031 299.258337 
L 336.729539 298.157579 
L 339.592047 297.617418 
L 342.454554 296.746078 
L 345.317062 298.407598 
L 348.179569 300.025663 
L 351.042077 299.762163 
L 353.904585 301.702372 
L 356.767092 302.90004 
L 359.6296 303.834016 
L 362.492108 304.410941 
L 365.354615 303.044434 
L 368.217123 301.816995 
L 371.07963 302.786622 
L 373.942138 302.594902 
L 376.804646 304.226603 
L 379.667153 303.649598 
L 382.529661 303.06842 
L 385.392169 302.539882 
L 388.254676 302.25884 
L 391.117184 301.847835 
L 393.979692 300.461698 
L 396.842199 299.024735 
L 399.704707 300.273673 
L 402.567214 303.173904 
L 405.429722 305.426941 
L 408.29223 305.759268 
L 411.154737 304.261559 
L 414.017245 305.177384 
L 416.879753 307.677041 
L 419.74226 307.913812 
L 422.604768 304.704066 
L 425.467275 303.704144 
L 428.329783 300.97624 
L 431.192291 301.005117 
L 434.054798 302.296756 
L 436.917306 300.88151 
L 439.779814 301.895188 
L 442.642321 305.261071 
L 445.504829 304.637701 
L 448.367336 303.870453 
L 451.229844 302.087799 
L 454.092352 299.953961 
L 456.954859 301.124671 
L 459.817367 303.219036 
L 462.679875 302.053878 
L 465.542382 305.615879 
L 468.40489 306.221272 
L 471.267397 305.704953 
L 474.129905 304.541272 
L 476.992413 302.210836 
L 479.85492 300.024737 
L 482.717428 298.410514 
L 485.579936 298.5511 
L 488.442443 315.53029 
L 488.442443 288.665697 
L 488.442443 288.665697 
L 485.579936 284.863951 
L 482.717428 282.860413 
L 479.85492 281.336035 
L 476.992413 280.016669 
L 474.129905 278.702086 
L 471.267397 278.463609 
L 468.40489 279.136337 
L 465.542382 279.884566 
L 462.679875 282.197629 
L 459.817367 284.637318 
L 456.954859 285.697683 
L 454.092352 283.853757 
L 451.229844 285.380096 
L 448.367336 284.138248 
L 445.504829 281.668947 
L 442.642321 281.266891 
L 439.779814 281.922189 
L 436.917306 281.244998 
L 434.054798 278.855581 
L 431.192291 280.322995 
L 428.329783 282.457836 
L 425.467275 285.297202 
L 422.604768 286.440484 
L 419.74226 285.050945 
L 416.879753 284.684627 
L 414.017245 285.058127 
L 411.154737 287.058188 
L 408.29223 287.451384 
L 405.429722 286.493313 
L 402.567214 285.316146 
L 399.704707 283.897888 
L 396.842199 282.423274 
L 393.979692 282.553099 
L 391.117184 282.86562 
L 388.254676 283.106371 
L 385.392169 283.167376 
L 382.529661 284.264865 
L 379.667153 285.781976 
L 376.804646 287.024674 
L 373.942138 286.79931 
L 371.07963 286.990988 
L 368.217123 285.911072 
L 365.354615 286.971598 
L 362.492108 286.431264 
L 359.6296 283.869414 
L 356.767092 282.979092 
L 353.904585 283.685829 
L 351.042077 287.390159 
L 348.179569 288.877683 
L 345.317062 288.136933 
L 342.454554 287.411469 
L 339.592047 288.052225 
L 336.729539 288.280954 
L 333.867031 288.874054 
L 331.004524 287.447042 
L 328.142016 287.107907 
L 325.279508 286.567748 
L 322.417001 284.204461 
L 319.554493 282.191152 
L 316.691986 281.163913 
L 313.829478 279.659926 
L 310.96697 281.112379 
L 308.104463 280.643642 
L 305.241955 281.495934 
L 302.379447 283.459917 
L 299.51694 284.300673 
L 296.654432 284.578434 
L 293.791925 284.871969 
L 290.929417 286.09714 
L 288.066909 281.513122 
L 285.204402 279.691058 
L 282.341894 277.660343 
L 279.479386 277.827443 
L 276.616879 277.37629 
L 273.754371 275.665538 
L 270.891864 273.377602 
L 268.029356 274.624159 
L 265.166848 275.167642 
L 262.304341 273.948055 
L 259.441833 276.088923 
L 256.579325 275.487865 
L 253.716818 273.937341 
L 250.85431 271.871649 
L 247.991803 268.168748 
L 245.129295 266.201826 
L 242.266787 260.3096 
L 239.40428 258.923288 
L 236.541772 253.282566 
L 233.679264 248.800204 
L 230.816757 244.441602 
L 227.954249 239.946256 
L 225.091742 234.970267 
L 222.229234 227.439624 
L 219.366726 215.023764 
L 216.504219 201.116117 
L 213.641711 185.073799 
L 210.779203 175.72181 
L 207.916696 168.204261 
L 205.054188 158.339217 
L 202.191681 149.054121 
L 199.329173 145.569905 
L 196.466665 131.94072 
L 193.604158 112.306093 
L 190.74165 82.626708 
L 187.879142 56.739202 
L 185.016635 47.836996 
L 182.154127 56.627945 
L 179.29162 77.793518 
L 176.429112 126.570833 
L 173.566604 170.010617 
L 170.704097 211.376571 
L 167.841589 243.782063 
L 164.979081 266.773001 
L 162.116574 281.232291 
L 159.254066 284.739912 
L 156.391558 285.087357 
L 153.529051 285.085384 
L 150.666543 286.441519 
L 147.804036 287.853552 
L 144.941528 288.033628 
L 142.07902 289.160334 
L 139.216513 290.356495 
L 136.354005 289.691087 
L 133.491497 289.573648 
L 130.62899 289.847675 
L 127.766482 290.076059 
L 124.903975 292.680651 
L 122.041467 291.572145 
L 119.178959 291.013567 
L 116.316452 292.369673 
L 113.453944 291.877501 
L 110.591436 289.390325 
L 107.728929 286.519359 
L 104.866421 289.128206 
L 102.003914 288.481155 
L 99.141406 286.474948 
L 96.278898 284.183975 
L 93.416391 283.464297 
L 90.553883 283.051112 
L 87.691375 282.656161 
L 84.828868 284.256809 
L 81.96636 284.75081 
L 79.103853 285.197668 
L 76.241345 284.532477 
L 73.378837 284.054407 
L 70.51633 285.8781 
L 67.653822 290.467262 
L 64.791314 294.283087 
L 61.928807 297.717182 
z
" clip-path="url(#pca6964c63e)" style="fill: #1f77b4; fill-opacity: 0.3"/>
   </g>
   <g id="matplotlib.axis_1">
    <g id="xtick_1">
     <g id="line2d_1">
      <defs>
       <path id="m4996b8b14a" d="M 0 0 
L 0 3.5 
" style="stroke: #000000; stroke-width: 0.8"/>
      </defs>
      <g>
       <use xlink:href="#m4996b8b14a" x="61.928807" y="313.478125" style="stroke: #000000; stroke-width: 0.8"/>
      </g>
     </g>
     <g id="text_1">
      <!-- 0 -->
      <g transform="translate(58.747557 328.076563) scale(0.1 -0.1)">
       <defs>
        <path id="DejaVuSans-30" d="M 2034 4250 
Q 1547 4250 1301 3770 
Q 1056 3291 1056 2328 
Q 1056 1369 1301 889 
Q 1547 409 2034 409 
Q 2525 409 2770 889 
Q 3016 1369 3016 2328 
Q 3016 3291 2770 3770 
Q 2525 4250 2034 4250 
z
M 2034 4750 
Q 2819 4750 3233 4129 
Q 3647 3509 3647 2328 
Q 3647 1150 3233 529 
Q 2819 -91 2034 -91 
Q 1250 -91 836 529 
Q 422 1150 422 2328 
Q 422 3509 836 4129 
Q 1250 4750 2034 4750 
z
" transform="scale(0.015625)"/>
       </defs>
       <use xlink:href="#DejaVuSans-30"/>
      </g>
     </g>
    </g>
    <g id="xtick_2">
     <g id="line2d_2">
      <g>
       <use xlink:href="#m4996b8b14a" x="113.453944" y="313.478125" style="stroke: #000000; stroke-width: 0.8"/>
      </g>
     </g>
     <g id="text_2">
      <!-- 18 -->
      <g transform="translate(107.091444 328.076563) scale(0.1 -0.1)">
       <defs>
        <path id="DejaVuSans-31" d="M 794 531 
L 1825 531 
L 1825 4091 
L 703 3866 
L 703 4441 
L 1819 4666 
L 2450 4666 
L 2450 531 
L 3481 531 
L 3481 0 
L 794 0 
L 794 531 
z
" transform="scale(0.015625)"/>
        <path id="DejaVuSans-38" d="M 2034 2216 
Q 1584 2216 1326 1975 
Q 1069 1734 1069 1313 
Q 1069 891 1326 650 
Q 1584 409 2034 409 
Q 2484 409 2743 651 
Q 3003 894 3003 1313 
Q 3003 1734 2745 1975 
Q 2488 2216 2034 2216 
z
M 1403 2484 
Q 997 2584 770 2862 
Q 544 3141 544 3541 
Q 544 4100 942 4425 
Q 1341 4750 2034 4750 
Q 2731 4750 3128 4425 
Q 3525 4100 3525 3541 
Q 3525 3141 3298 2862 
Q 3072 2584 2669 2484 
Q 3125 2378 3379 2068 
Q 3634 1759 3634 1313 
Q 3634 634 3220 271 
Q 2806 -91 2034 -91 
Q 1263 -91 848 271 
Q 434 634 434 1313 
Q 434 1759 690 2068 
Q 947 2378 1403 2484 
z
M 1172 3481 
Q 1172 3119 1398 2916 
Q 1625 2713 2034 2713 
Q 2441 2713 2670 2916 
Q 2900 3119 2900 3481 
Q 2900 3844 2670 4047 
Q 2441 4250 2034 4250 
Q 1625 4250 1398 4047 
Q 1172 3844 1172 3481 
z
" transform="scale(0.015625)"/>
       </defs>
       <use xlink:href="#DejaVuSans-31"/>
       <use xlink:href="#DejaVuSans-38" transform="translate(63.623047 0)"/>
      </g>
     </g>
    </g>
    <g id="xtick_3">
     <g id="line2d_3">
      <g>
       <use xlink:href="#m4996b8b14a" x="167.841589" y="313.478125" style="stroke: #000000; stroke-width: 0.8"/>
      </g>
     </g>
     <g id="text_3">
      <!-- 37 -->
      <g transform="translate(161.479089 328.076563) scale(0.1 -0.1)">
       <defs>
        <path id="DejaVuSans-33" d="M 2597 2516 
Q 3050 2419 3304 2112 
Q 3559 1806 3559 1356 
Q 3559 666 3084 287 
Q 2609 -91 1734 -91 
Q 1441 -91 1130 -33 
Q 819 25 488 141 
L 488 750 
Q 750 597 1062 519 
Q 1375 441 1716 441 
Q 2309 441 2620 675 
Q 2931 909 2931 1356 
Q 2931 1769 2642 2001 
Q 2353 2234 1838 2234 
L 1294 2234 
L 1294 2753 
L 1863 2753 
Q 2328 2753 2575 2939 
Q 2822 3125 2822 3475 
Q 2822 3834 2567 4026 
Q 2313 4219 1838 4219 
Q 1578 4219 1281 4162 
Q 984 4106 628 3988 
L 628 4550 
Q 988 4650 1302 4700 
Q 1616 4750 1894 4750 
Q 2613 4750 3031 4423 
Q 3450 4097 3450 3541 
Q 3450 3153 3228 2886 
Q 3006 2619 2597 2516 
z
" transform="scale(0.015625)"/>
        <path id="DejaVuSans-37" d="M 525 4666 
L 3525 4666 
L 3525 4397 
L 1831 0 
L 1172 0 
L 2766 4134 
L 525 4134 
L 525 4666 
z
" transform="scale(0.015625)"/>
       </defs>
       <use xlink:href="#DejaVuSans-33"/>
       <use xlink:href="#DejaVuSans-37" transform="translate(63.623047 0)"/>
      </g>
     </g>
    </g>
    <g id="xtick_4">
     <g id="line2d_4">
      <g>
       <use xlink:href="#m4996b8b14a" x="219.366726" y="313.478125" style="stroke: #000000; stroke-width: 0.8"/>
      </g>
     </g>
     <g id="text_4">
      <!-- 55 -->
      <g transform="translate(213.004226 328.076563) scale(0.1 -0.1)">
       <defs>
        <path id="DejaVuSans-35" d="M 691 4666 
L 3169 4666 
L 3169 4134 
L 1269 4134 
L 1269 2991 
Q 1406 3038 1543 3061 
Q 1681 3084 1819 3084 
Q 2600 3084 3056 2656 
Q 3513 2228 3513 1497 
Q 3513 744 3044 326 
Q 2575 -91 1722 -91 
Q 1428 -91 1123 -41 
Q 819 9 494 109 
L 494 744 
Q 775 591 1075 516 
Q 1375 441 1709 441 
Q 2250 441 2565 725 
Q 2881 1009 2881 1497 
Q 2881 1984 2565 2268 
Q 2250 2553 1709 2553 
Q 1456 2553 1204 2497 
Q 953 2441 691 2322 
L 691 4666 
z
" transform="scale(0.015625)"/>
       </defs>
       <use xlink:href="#DejaVuSans-35"/>
       <use xlink:href="#DejaVuSans-35" transform="translate(63.623047 0)"/>
      </g>
     </g>
    </g>
    <g id="xtick_5">
     <g id="line2d_5">
      <g>
       <use xlink:href="#m4996b8b14a" x="273.754371" y="313.478125" style="stroke: #000000; stroke-width: 0.8"/>
      </g>
     </g>
     <g id="text_5">
      <!-- 74 -->
      <g transform="translate(267.391871 328.076563) scale(0.1 -0.1)">
       <defs>
        <path id="DejaVuSans-34" d="M 2419 4116 
L 825 1625 
L 2419 1625 
L 2419 4116 
z
M 2253 4666 
L 3047 4666 
L 3047 1625 
L 3713 1625 
L 3713 1100 
L 3047 1100 
L 3047 0 
L 2419 0 
L 2419 1100 
L 313 1100 
L 313 1709 
L 2253 4666 
z
" transform="scale(0.015625)"/>
       </defs>
       <use xlink:href="#DejaVuSans-37"/>
       <use xlink:href="#DejaVuSans-34" transform="translate(63.623047 0)"/>
      </g>
     </g>
    </g>
    <g id="xtick_6">
     <g id="line2d_6">
      <g>
       <use xlink:href="#m4996b8b14a" x="328.142016" y="313.478125" style="stroke: #000000; stroke-width: 0.8"/>
      </g>
     </g>
     <g id="text_6">
      <!-- 93 -->
      <g transform="translate(321.779516 328.076563) scale(0.1 -0.1)">
       <defs>
        <path id="DejaVuSans-39" d="M 703 97 
L 703 672 
Q 941 559 1184 500 
Q 1428 441 1663 441 
Q 2288 441 2617 861 
Q 2947 1281 2994 2138 
Q 2813 1869 2534 1725 
Q 2256 1581 1919 1581 
Q 1219 1581 811 2004 
Q 403 2428 403 3163 
Q 403 3881 828 4315 
Q 1253 4750 1959 4750 
Q 2769 4750 3195 4129 
Q 3622 3509 3622 2328 
Q 3622 1225 3098 567 
Q 2575 -91 1691 -91 
Q 1453 -91 1209 -44 
Q 966 3 703 97 
z
M 1959 2075 
Q 2384 2075 2632 2365 
Q 2881 2656 2881 3163 
Q 2881 3666 2632 3958 
Q 2384 4250 1959 4250 
Q 1534 4250 1286 3958 
Q 1038 3666 1038 3163 
Q 1038 2656 1286 2365 
Q 1534 2075 1959 2075 
z
" transform="scale(0.015625)"/>
       </defs>
       <use xlink:href="#DejaVuSans-39"/>
       <use xlink:href="#DejaVuSans-33" transform="translate(63.623047 0)"/>
      </g>
     </g>
    </g>
    <g id="xtick_7">
     <g id="line2d_7">
      <g>
       <use xlink:href="#m4996b8b14a" x="379.667153" y="313.478125" style="stroke: #000000; stroke-width: 0.8"/>
      </g>
     </g>
     <g id="text_7">
      <!-- 111 -->
      <g transform="translate(370.123403 328.076563) scale(0.1 -0.1)">
       <use xlink:href="#DejaVuSans-31"/>
       <use xlink:href="#DejaVuSans-31" transform="translate(63.623047 0)"/>
       <use xlink:href="#DejaVuSans-31" transform="translate(127.246094 0)"/>
      </g>
     </g>
    </g>
    <g id="xtick_8">
     <g id="line2d_8">
      <g>
       <use xlink:href="#m4996b8b14a" x="434.054798" y="313.478125" style="stroke: #000000; stroke-width: 0.8"/>
      </g>
     </g>
     <g id="text_8">
      <!-- 130 -->
      <g transform="translate(424.511048 328.076563) scale(0.1 -0.1)">
       <use xlink:href="#DejaVuSans-31"/>
       <use xlink:href="#DejaVuSans-33" transform="translate(63.623047 0)"/>
       <use xlink:href="#DejaVuSans-30" transform="translate(127.246094 0)"/>
      </g>
     </g>
    </g>
    <g id="xtick_9">
     <g id="line2d_9">
      <g>
       <use xlink:href="#m4996b8b14a" x="488.442443" y="313.478125" style="stroke: #000000; stroke-width: 0.8"/>
      </g>
     </g>
     <g id="text_9">
      <!-- 149 -->
      <g transform="translate(478.898693 328.076563) scale(0.1 -0.1)">
       <use xlink:href="#DejaVuSans-31"/>
       <use xlink:href="#DejaVuSans-34" transform="translate(63.623047 0)"/>
       <use xlink:href="#DejaVuSans-39" transform="translate(127.246094 0)"/>
      </g>
     </g>
    </g>
    <g id="text_10">
     <!-- Spatial bin -->
     <g transform="translate(248.649688 341.754687) scale(0.1 -0.1)">
      <defs>
       <path id="DejaVuSans-53" d="M 3425 4513 
L 3425 3897 
Q 3066 4069 2747 4153 
Q 2428 4238 2131 4238 
Q 1616 4238 1336 4038 
Q 1056 3838 1056 3469 
Q 1056 3159 1242 3001 
Q 1428 2844 1947 2747 
L 2328 2669 
Q 3034 2534 3370 2195 
Q 3706 1856 3706 1288 
Q 3706 609 3251 259 
Q 2797 -91 1919 -91 
Q 1588 -91 1214 -16 
Q 841 59 441 206 
L 441 856 
Q 825 641 1194 531 
Q 1563 422 1919 422 
Q 2459 422 2753 634 
Q 3047 847 3047 1241 
Q 3047 1584 2836 1778 
Q 2625 1972 2144 2069 
L 1759 2144 
Q 1053 2284 737 2584 
Q 422 2884 422 3419 
Q 422 4038 858 4394 
Q 1294 4750 2059 4750 
Q 2388 4750 2728 4690 
Q 3069 4631 3425 4513 
z
" transform="scale(0.015625)"/>
       <path id="DejaVuSans-70" d="M 1159 525 
L 1159 -1331 
L 581 -1331 
L 581 3500 
L 1159 3500 
L 1159 2969 
Q 1341 3281 1617 3432 
Q 1894 3584 2278 3584 
Q 2916 3584 3314 3078 
Q 3713 2572 3713 1747 
Q 3713 922 3314 415 
Q 2916 -91 2278 -91 
Q 1894 -91 1617 61 
Q 1341 213 1159 525 
z
M 3116 1747 
Q 3116 2381 2855 2742 
Q 2594 3103 2138 3103 
Q 1681 3103 1420 2742 
Q 1159 2381 1159 1747 
Q 1159 1113 1420 752 
Q 1681 391 2138 391 
Q 2594 391 2855 752 
Q 3116 1113 3116 1747 
z
" transform="scale(0.015625)"/>
       <path id="DejaVuSans-61" d="M 2194 1759 
Q 1497 1759 1228 1600 
Q 959 1441 959 1056 
Q 959 750 1161 570 
Q 1363 391 1709 391 
Q 2188 391 2477 730 
Q 2766 1069 2766 1631 
L 2766 1759 
L 2194 1759 
z
M 3341 1997 
L 3341 0 
L 2766 0 
L 2766 531 
Q 2569 213 2275 61 
Q 1981 -91 1556 -91 
Q 1019 -91 701 211 
Q 384 513 384 1019 
Q 384 1609 779 1909 
Q 1175 2209 1959 2209 
L 2766 2209 
L 2766 2266 
Q 2766 2663 2505 2880 
Q 2244 3097 1772 3097 
Q 1472 3097 1187 3025 
Q 903 2953 641 2809 
L 641 3341 
Q 956 3463 1253 3523 
Q 1550 3584 1831 3584 
Q 2591 3584 2966 3190 
Q 3341 2797 3341 1997 
z
" transform="scale(0.015625)"/>
       <path id="DejaVuSans-74" d="M 1172 4494 
L 1172 3500 
L 2356 3500 
L 2356 3053 
L 1172 3053 
L 1172 1153 
Q 1172 725 1289 603 
Q 1406 481 1766 481 
L 2356 481 
L 2356 0 
L 1766 0 
Q 1100 0 847 248 
Q 594 497 594 1153 
L 594 3053 
L 172 3053 
L 172 3500 
L 594 3500 
L 594 4494 
L 1172 4494 
z
" transform="scale(0.015625)"/>
       <path id="DejaVuSans-69" d="M 603 3500 
L 1178 3500 
L 1178 0 
L 603 0 
L 603 3500 
z
M 603 4863 
L 1178 4863 
L 1178 4134 
L 603 4134 
L 603 4863 
z
" transform="scale(0.015625)"/>
       <path id="DejaVuSans-6c" d="M 603 4863 
L 1178 4863 
L 1178 0 
L 603 0 
L 603 4863 
z
" transform="scale(0.015625)"/>
       <path id="DejaVuSans-20" transform="scale(0.015625)"/>
       <path id="DejaVuSans-62" d="M 3116 1747 
Q 3116 2381 2855 2742 
Q 2594 3103 2138 3103 
Q 1681 3103 1420 2742 
Q 1159 2381 1159 1747 
Q 1159 1113 1420 752 
Q 1681 391 2138 391 
Q 2594 391 2855 752 
Q 3116 1113 3116 1747 
z
M 1159 2969 
Q 1341 3281 1617 3432 
Q 1894 3584 2278 3584 
Q 2916 3584 3314 3078 
Q 3713 2572 3713 1747 
Q 3713 922 3314 415 
Q 2916 -91 2278 -91 
Q 1894 -91 1617 61 
Q 1341 213 1159 525 
L 1159 0 
L 581 0 
L 581 4863 
L 1159 4863 
L 1159 2969 
z
" transform="scale(0.015625)"/>
       <path id="DejaVuSans-6e" d="M 3513 2113 
L 3513 0 
L 2938 0 
L 2938 2094 
Q 2938 2591 2744 2837 
Q 2550 3084 2163 3084 
Q 1697 3084 1428 2787 
Q 1159 2491 1159 1978 
L 1159 0 
L 581 0 
L 581 3500 
L 1159 3500 
L 1159 2956 
Q 1366 3272 1645 3428 
Q 1925 3584 2291 3584 
Q 2894 3584 3203 3211 
Q 3513 2838 3513 2113 
z
" transform="scale(0.015625)"/>
      </defs>
      <use xlink:href="#DejaVuSans-53"/>
      <use xlink:href="#DejaVuSans-70" transform="translate(63.476562 0)"/>
      <use xlink:href="#DejaVuSans-61" transform="translate(126.953125 0)"/>
      <use xlink:href="#DejaVuSans-74" transform="translate(188.232422 0)"/>
      <use xlink:href="#DejaVuSans-69" transform="translate(227.441406 0)"/>
      <use xlink:href="#DejaVuSans-61" transform="translate(255.224609 0)"/>
      <use xlink:href="#DejaVuSans-6c" transform="translate(316.503906 0)"/>
      <use xlink:href="#DejaVuSans-20" transform="translate(344.287109 0)"/>
      <use xlink:href="#DejaVuSans-62" transform="translate(376.074219 0)"/>
      <use xlink:href="#DejaVuSans-69" transform="translate(439.550781 0)"/>
      <use xlink:href="#DejaVuSans-6e" transform="translate(467.333984 0)"/>
     </g>
    </g>
   </g>
   <g id="matplotlib.axis_2">
    <g id="ytick_1">
     <g id="line2d_10">
      <defs>
       <path id="m33667f4399" d="M 0 0 
L -3.5 0 
" style="stroke: #000000; stroke-width: 0.8"/>
      </defs>
      <g>
       <use xlink:href="#m33667f4399" x="40.603125" y="291.081202" style="stroke: #000000; stroke-width: 0.8"/>
      </g>
     </g>
     <g id="text_11">
      <!-- 0 -->
      <g transform="translate(27.240625 294.880421) scale(0.1 -0.1)">
       <use xlink:href="#DejaVuSans-30"/>
      </g>
     </g>
    </g>
    <g id="ytick_2">
     <g id="line2d_11">
      <g>
       <use xlink:href="#m33667f4399" x="40.603125" y="246.287356" style="stroke: #000000; stroke-width: 0.8"/>
      </g>
     </g>
     <g id="text_12">
      <!-- 2 -->
      <g transform="translate(27.240625 250.086575) scale(0.1 -0.1)">
       <defs>
        <path id="DejaVuSans-32" d="M 1228 531 
L 3431 531 
L 3431 0 
L 469 0 
L 469 531 
Q 828 903 1448 1529 
Q 2069 2156 2228 2338 
Q 2531 2678 2651 2914 
Q 2772 3150 2772 3378 
Q 2772 3750 2511 3984 
Q 2250 4219 1831 4219 
Q 1534 4219 1204 4116 
Q 875 4013 500 3803 
L 500 4441 
Q 881 4594 1212 4672 
Q 1544 4750 1819 4750 
Q 2544 4750 2975 4387 
Q 3406 4025 3406 3419 
Q 3406 3131 3298 2873 
Q 3191 2616 2906 2266 
Q 2828 2175 2409 1742 
Q 1991 1309 1228 531 
z
" transform="scale(0.015625)"/>
       </defs>
       <use xlink:href="#DejaVuSans-32"/>
      </g>
     </g>
    </g>
    <g id="ytick_3">
     <g id="line2d_12">
      <g>
       <use xlink:href="#m33667f4399" x="40.603125" y="201.49351" style="stroke: #000000; stroke-width: 0.8"/>
      </g>
     </g>
     <g id="text_13">
      <!-- 4 -->
      <g transform="translate(27.240625 205.292728) scale(0.1 -0.1)">
       <use xlink:href="#DejaVuSans-34"/>
      </g>
     </g>
    </g>
    <g id="ytick_4">
     <g id="line2d_13">
      <g>
       <use xlink:href="#m33667f4399" x="40.603125" y="156.699663" style="stroke: #000000; stroke-width: 0.8"/>
      </g>
     </g>
     <g id="text_14">
      <!-- 6 -->
      <g transform="translate(27.240625 160.498882) scale(0.1 -0.1)">
       <defs>
        <path id="DejaVuSans-36" d="M 2113 2584 
Q 1688 2584 1439 2293 
Q 1191 2003 1191 1497 
Q 1191 994 1439 701 
Q 1688 409 2113 409 
Q 2538 409 2786 701 
Q 3034 994 3034 1497 
Q 3034 2003 2786 2293 
Q 2538 2584 2113 2584 
z
M 3366 4563 
L 3366 3988 
Q 3128 4100 2886 4159 
Q 2644 4219 2406 4219 
Q 1781 4219 1451 3797 
Q 1122 3375 1075 2522 
Q 1259 2794 1537 2939 
Q 1816 3084 2150 3084 
Q 2853 3084 3261 2657 
Q 3669 2231 3669 1497 
Q 3669 778 3244 343 
Q 2819 -91 2113 -91 
Q 1303 -91 875 529 
Q 447 1150 447 2328 
Q 447 3434 972 4092 
Q 1497 4750 2381 4750 
Q 2619 4750 2861 4703 
Q 3103 4656 3366 4563 
z
" transform="scale(0.015625)"/>
       </defs>
       <use xlink:href="#DejaVuSans-36"/>
      </g>
     </g>
    </g>
    <g id="ytick_5">
     <g id="line2d_14">
      <g>
       <use xlink:href="#m33667f4399" x="40.603125" y="111.905817" style="stroke: #000000; stroke-width: 0.8"/>
      </g>
     </g>
     <g id="text_15">
      <!-- 8 -->
      <g transform="translate(27.240625 115.705036) scale(0.1 -0.1)">
       <use xlink:href="#DejaVuSans-38"/>
      </g>
     </g>
    </g>
    <g id="ytick_6">
     <g id="line2d_15">
      <g>
       <use xlink:href="#m33667f4399" x="40.603125" y="67.111971" style="stroke: #000000; stroke-width: 0.8"/>
      </g>
     </g>
     <g id="text_16">
      <!-- 10 -->
      <g transform="translate(20.878125 70.91119) scale(0.1 -0.1)">
       <use xlink:href="#DejaVuSans-31"/>
       <use xlink:href="#DejaVuSans-30" transform="translate(63.623047 0)"/>
      </g>
     </g>
    </g>
    <g id="ytick_7">
     <g id="line2d_16">
      <g>
       <use xlink:href="#m33667f4399" x="40.603125" y="22.318125" style="stroke: #000000; stroke-width: 0.8"/>
      </g>
     </g>
     <g id="text_17">
      <!-- 12 -->
      <g transform="translate(20.878125 26.117344) scale(0.1 -0.1)">
       <use xlink:href="#DejaVuSans-31"/>
       <use xlink:href="#DejaVuSans-32" transform="translate(63.623047 0)"/>
      </g>
     </g>
    </g>
    <g id="text_18">
     <!-- z-scored dF/F -->
     <g transform="translate(14.798438 201.1325) rotate(-90) scale(0.1 -0.1)">
      <defs>
       <path id="DejaVuSans-7a" d="M 353 3500 
L 3084 3500 
L 3084 2975 
L 922 459 
L 3084 459 
L 3084 0 
L 275 0 
L 275 525 
L 2438 3041 
L 353 3041 
L 353 3500 
z
" transform="scale(0.015625)"/>
       <path id="DejaVuSans-2d" d="M 313 2009 
L 1997 2009 
L 1997 1497 
L 313 1497 
L 313 2009 
z
" transform="scale(0.015625)"/>
       <path id="DejaVuSans-73" d="M 2834 3397 
L 2834 2853 
Q 2591 2978 2328 3040 
Q 2066 3103 1784 3103 
Q 1356 3103 1142 2972 
Q 928 2841 928 2578 
Q 928 2378 1081 2264 
Q 1234 2150 1697 2047 
L 1894 2003 
Q 2506 1872 2764 1633 
Q 3022 1394 3022 966 
Q 3022 478 2636 193 
Q 2250 -91 1575 -91 
Q 1294 -91 989 -36 
Q 684 19 347 128 
L 347 722 
Q 666 556 975 473 
Q 1284 391 1588 391 
Q 1994 391 2212 530 
Q 2431 669 2431 922 
Q 2431 1156 2273 1281 
Q 2116 1406 1581 1522 
L 1381 1569 
Q 847 1681 609 1914 
Q 372 2147 372 2553 
Q 372 3047 722 3315 
Q 1072 3584 1716 3584 
Q 2034 3584 2315 3537 
Q 2597 3491 2834 3397 
z
" transform="scale(0.015625)"/>
       <path id="DejaVuSans-63" d="M 3122 3366 
L 3122 2828 
Q 2878 2963 2633 3030 
Q 2388 3097 2138 3097 
Q 1578 3097 1268 2742 
Q 959 2388 959 1747 
Q 959 1106 1268 751 
Q 1578 397 2138 397 
Q 2388 397 2633 464 
Q 2878 531 3122 666 
L 3122 134 
Q 2881 22 2623 -34 
Q 2366 -91 2075 -91 
Q 1284 -91 818 406 
Q 353 903 353 1747 
Q 353 2603 823 3093 
Q 1294 3584 2113 3584 
Q 2378 3584 2631 3529 
Q 2884 3475 3122 3366 
z
" transform="scale(0.015625)"/>
       <path id="DejaVuSans-6f" d="M 1959 3097 
Q 1497 3097 1228 2736 
Q 959 2375 959 1747 
Q 959 1119 1226 758 
Q 1494 397 1959 397 
Q 2419 397 2687 759 
Q 2956 1122 2956 1747 
Q 2956 2369 2687 2733 
Q 2419 3097 1959 3097 
z
M 1959 3584 
Q 2709 3584 3137 3096 
Q 3566 2609 3566 1747 
Q 3566 888 3137 398 
Q 2709 -91 1959 -91 
Q 1206 -91 779 398 
Q 353 888 353 1747 
Q 353 2609 779 3096 
Q 1206 3584 1959 3584 
z
" transform="scale(0.015625)"/>
       <path id="DejaVuSans-72" d="M 2631 2963 
Q 2534 3019 2420 3045 
Q 2306 3072 2169 3072 
Q 1681 3072 1420 2755 
Q 1159 2438 1159 1844 
L 1159 0 
L 581 0 
L 581 3500 
L 1159 3500 
L 1159 2956 
Q 1341 3275 1631 3429 
Q 1922 3584 2338 3584 
Q 2397 3584 2469 3576 
Q 2541 3569 2628 3553 
L 2631 2963 
z
" transform="scale(0.015625)"/>
       <path id="DejaVuSans-65" d="M 3597 1894 
L 3597 1613 
L 953 1613 
Q 991 1019 1311 708 
Q 1631 397 2203 397 
Q 2534 397 2845 478 
Q 3156 559 3463 722 
L 3463 178 
Q 3153 47 2828 -22 
Q 2503 -91 2169 -91 
Q 1331 -91 842 396 
Q 353 884 353 1716 
Q 353 2575 817 3079 
Q 1281 3584 2069 3584 
Q 2775 3584 3186 3129 
Q 3597 2675 3597 1894 
z
M 3022 2063 
Q 3016 2534 2758 2815 
Q 2500 3097 2075 3097 
Q 1594 3097 1305 2825 
Q 1016 2553 972 2059 
L 3022 2063 
z
" transform="scale(0.015625)"/>
       <path id="DejaVuSans-64" d="M 2906 2969 
L 2906 4863 
L 3481 4863 
L 3481 0 
L 2906 0 
L 2906 525 
Q 2725 213 2448 61 
Q 2172 -91 1784 -91 
Q 1150 -91 751 415 
Q 353 922 353 1747 
Q 353 2572 751 3078 
Q 1150 3584 1784 3584 
Q 2172 3584 2448 3432 
Q 2725 3281 2906 2969 
z
M 947 1747 
Q 947 1113 1208 752 
Q 1469 391 1925 391 
Q 2381 391 2643 752 
Q 2906 1113 2906 1747 
Q 2906 2381 2643 2742 
Q 2381 3103 1925 3103 
Q 1469 3103 1208 2742 
Q 947 2381 947 1747 
z
" transform="scale(0.015625)"/>
       <path id="DejaVuSans-46" d="M 628 4666 
L 3309 4666 
L 3309 4134 
L 1259 4134 
L 1259 2759 
L 3109 2759 
L 3109 2228 
L 1259 2228 
L 1259 0 
L 628 0 
L 628 4666 
z
" transform="scale(0.015625)"/>
       <path id="DejaVuSans-2f" d="M 1625 4666 
L 2156 4666 
L 531 -594 
L 0 -594 
L 1625 4666 
z
" transform="scale(0.015625)"/>
      </defs>
      <use xlink:href="#DejaVuSans-7a"/>
      <use xlink:href="#DejaVuSans-2d" transform="translate(52.490234 0)"/>
      <use xlink:href="#DejaVuSans-73" transform="translate(88.574219 0)"/>
      <use xlink:href="#DejaVuSans-63" transform="translate(140.673828 0)"/>
      <use xlink:href="#DejaVuSans-6f" transform="translate(195.654297 0)"/>
      <use xlink:href="#DejaVuSans-72" transform="translate(256.835938 0)"/>
      <use xlink:href="#DejaVuSans-65" transform="translate(295.699219 0)"/>
      <use xlink:href="#DejaVuSans-64" transform="translate(357.222656 0)"/>
      <use xlink:href="#DejaVuSans-20" transform="translate(420.699219 0)"/>
      <use xlink:href="#DejaVuSans-64" transform="translate(452.486328 0)"/>
      <use xlink:href="#DejaVuSans-46" transform="translate(515.962891 0)"/>
      <use xlink:href="#DejaVuSans-2f" transform="translate(573.482422 0)"/>
      <use xlink:href="#DejaVuSans-46" transform="translate(607.173828 0)"/>
     </g>
    </g>
   </g>
   <g id="line2d_17">
    <path d="M 61.928807 304.109723 
L 64.791314 302.481227 
L 67.653822 300.350941 
L 70.51633 297.408886 
L 73.378837 295.575352 
L 76.241345 295.286773 
L 79.103853 295.119954 
L 81.96636 294.837053 
L 84.828868 294.870941 
L 87.691375 293.593636 
L 90.553883 293.128781 
L 93.416391 292.795088 
L 96.278898 292.69107 
L 102.003914 294.224434 
L 104.866421 294.297441 
L 107.728929 292.796621 
L 113.453944 297.913615 
L 116.316452 297.835374 
L 119.178959 296.741506 
L 122.041467 297.051876 
L 124.903975 297.756401 
L 127.766482 295.263022 
L 130.62899 294.850183 
L 133.491497 294.678887 
L 136.354005 294.780475 
L 139.216513 295.466548 
L 142.07902 293.907518 
L 144.941528 293.140224 
L 147.804036 293.628435 
L 150.666543 292.652975 
L 153.529051 291.133524 
L 156.391558 291.594014 
L 159.254066 291.678741 
L 162.116574 288.998144 
L 164.979081 279.463942 
L 167.841589 264.260767 
L 170.704097 241.960965 
L 173.566604 213.719129 
L 179.29162 138.399323 
L 182.154127 120.605544 
L 185.016635 113.376929 
L 187.879142 120.967028 
L 190.74165 138.516027 
L 193.604158 160.571513 
L 196.466665 175.419322 
L 199.329173 186.89979 
L 202.191681 191.156523 
L 207.916696 206.258719 
L 213.641711 218.914094 
L 216.504219 230.409146 
L 219.366726 240.023297 
L 222.229234 248.256015 
L 225.091742 252.800003 
L 227.954249 255.984641 
L 230.816757 259.48479 
L 233.679264 261.420169 
L 236.541772 265.499053 
L 239.40428 269.055783 
L 242.266787 269.831346 
L 245.129295 273.815573 
L 247.991803 275.616217 
L 250.85431 278.837982 
L 253.716818 281.036464 
L 256.579325 282.522609 
L 259.441833 282.40024 
L 262.304341 280.385283 
L 265.166848 281.29599 
L 268.029356 281.352233 
L 270.891864 280.479858 
L 273.754371 281.867601 
L 276.616879 283.913653 
L 279.479386 285.098326 
L 282.341894 284.815829 
L 285.204402 285.952995 
L 288.066909 287.553448 
L 290.929417 291.688946 
L 293.791925 289.593674 
L 299.51694 290.18892 
L 302.379447 290.278548 
L 305.241955 289.136403 
L 308.104463 288.671973 
L 310.96697 288.819857 
L 313.829478 287.434153 
L 316.691986 290.126561 
L 319.554493 290.030851 
L 322.417001 291.568222 
L 325.279508 291.595562 
L 328.142016 291.901151 
L 333.867031 294.066195 
L 336.729539 293.219267 
L 339.592047 292.834821 
L 342.454554 292.078774 
L 348.179569 294.451673 
L 353.904585 292.694101 
L 356.767092 292.939566 
L 359.6296 293.851715 
L 362.492108 295.421103 
L 365.354615 295.008016 
L 368.217123 293.864034 
L 371.07963 294.888805 
L 373.942138 294.697106 
L 376.804646 295.625639 
L 379.667153 294.715787 
L 382.529661 293.666643 
L 385.392169 292.853629 
L 388.254676 292.682605 
L 391.117184 292.356727 
L 396.842199 290.724005 
L 399.704707 292.08578 
L 402.567214 294.245025 
L 405.429722 295.960127 
L 408.29223 296.605326 
L 411.154737 295.659873 
L 414.017245 295.117755 
L 416.879753 296.180834 
L 419.74226 296.482378 
L 422.604768 295.572275 
L 425.467275 294.500673 
L 428.329783 291.717038 
L 431.192291 290.664056 
L 434.054798 290.576168 
L 436.917306 291.063254 
L 439.779814 291.908689 
L 442.642321 293.263981 
L 445.504829 293.153324 
L 448.367336 294.00435 
L 451.229844 293.733948 
L 454.092352 291.903859 
L 456.954859 293.411177 
L 459.817367 293.928177 
L 462.679875 292.125754 
L 465.542382 292.750223 
L 468.40489 292.678805 
L 471.267397 292.084281 
L 479.85492 290.680386 
L 482.717428 290.635463 
L 485.579936 291.707525 
L 488.442443 302.097993 
L 488.442443 302.097993 
" clip-path="url(#pca6964c63e)" style="fill: none; stroke: #ff0000; stroke-width: 3; stroke-linecap: square"/>
   </g>
   <g id="LineCollection_1">
    <path d="M 205.054188 313.478125 
L 205.054188 22.318125 
" clip-path="url(#pca6964c63e)" style="fill: none; stroke-dasharray: 5.55,2.4; stroke-dashoffset: 0; stroke: #ff0000; stroke-width: 1.5"/>
    <path d="M 348.179569 313.478125 
L 348.179569 22.318125 
" clip-path="url(#pca6964c63e)" style="fill: none; stroke-dasharray: 5.55,2.4; stroke-dashoffset: 0; stroke: #ff0000; stroke-width: 1.5"/>
   </g>
   <g id="patch_3">
    <path d="M 40.603125 313.478125 
L 40.603125 22.318125 
" style="fill: none; stroke: #000000; stroke-width: 0.8; stroke-linejoin: miter; stroke-linecap: square"/>
   </g>
   <g id="patch_4">
    <path d="M 509.768125 313.478125 
L 509.768125 22.318125 
" style="fill: none; stroke: #000000; stroke-width: 0.8; stroke-linejoin: miter; stroke-linecap: square"/>
   </g>
   <g id="patch_5">
    <path d="M 40.603125 313.478125 
L 509.768125 313.478125 
" style="fill: none; stroke: #000000; stroke-width: 0.8; stroke-linejoin: miter; stroke-linecap: square"/>
   </g>
   <g id="patch_6">
    <path d="M 40.603125 22.318125 
L 509.768125 22.318125 
" style="fill: none; stroke: #000000; stroke-width: 0.8; stroke-linejoin: miter; stroke-linecap: square"/>
   </g>
   <g id="text_19">
    <!-- Corridor -0.0 -->
    <g transform="translate(237.269375 16.318125) scale(0.12 -0.12)">
     <defs>
      <path id="DejaVuSans-43" d="M 4122 4306 
L 4122 3641 
Q 3803 3938 3442 4084 
Q 3081 4231 2675 4231 
Q 1875 4231 1450 3742 
Q 1025 3253 1025 2328 
Q 1025 1406 1450 917 
Q 1875 428 2675 428 
Q 3081 428 3442 575 
Q 3803 722 4122 1019 
L 4122 359 
Q 3791 134 3420 21 
Q 3050 -91 2638 -91 
Q 1578 -91 968 557 
Q 359 1206 359 2328 
Q 359 3453 968 4101 
Q 1578 4750 2638 4750 
Q 3056 4750 3426 4639 
Q 3797 4528 4122 4306 
z
" transform="scale(0.015625)"/>
      <path id="DejaVuSans-2e" d="M 684 794 
L 1344 794 
L 1344 0 
L 684 0 
L 684 794 
z
" transform="scale(0.015625)"/>
     </defs>
     <use xlink:href="#DejaVuSans-43"/>
     <use xlink:href="#DejaVuSans-6f" transform="translate(69.824219 0)"/>
     <use xlink:href="#DejaVuSans-72" transform="translate(131.005859 0)"/>
     <use xlink:href="#DejaVuSans-72" transform="translate(170.369141 0)"/>
     <use xlink:href="#DejaVuSans-69" transform="translate(211.482422 0)"/>
     <use xlink:href="#DejaVuSans-64" transform="translate(239.265625 0)"/>
     <use xlink:href="#DejaVuSans-6f" transform="translate(302.742188 0)"/>
     <use xlink:href="#DejaVuSans-72" transform="translate(363.923828 0)"/>
     <use xlink:href="#DejaVuSans-20" transform="translate(405.037109 0)"/>
     <use xlink:href="#DejaVuSans-2d" transform="translate(436.824219 0)"/>
     <use xlink:href="#DejaVuSans-30" transform="translate(472.908203 0)"/>
     <use xlink:href="#DejaVuSans-2e" transform="translate(536.53125 0)"/>
     <use xlink:href="#DejaVuSans-30" transform="translate(568.318359 0)"/>
    </g>
   </g>
  </g>
  <g id="axes_2">
   <g id="patch_7">
    <path d="M 524.068125 313.478125 
L 993.233125 313.478125 
L 993.233125 22.318125 
L 524.068125 22.318125 
z
" style="fill: #ffffff"/>
   </g>
   <g id="FillBetweenPolyCollection_2">
    <path d="M 545.393807 297.973559 
L 545.393807 307.290363 
L 548.256314 305.653124 
L 551.118822 304.291966 
L 553.98133 302.88996 
L 556.843837 302.073842 
L 559.706345 301.745107 
L 562.568853 300.97332 
L 565.43136 300.489176 
L 568.293868 300.458669 
L 571.156375 300.590479 
L 574.018883 299.811759 
L 576.881391 299.094902 
L 579.743898 297.940615 
L 582.606406 297.100246 
L 585.468914 297.302699 
L 588.331421 296.755115 
L 591.193929 296.884233 
L 594.056436 297.133755 
L 596.918944 296.635682 
L 599.781452 296.852709 
L 602.643959 295.583363 
L 605.506467 294.611828 
L 608.368975 295.087311 
L 611.231482 295.373713 
L 614.09399 295.893209 
L 616.956497 296.595431 
L 619.819005 296.891046 
L 622.681513 296.905949 
L 625.54402 296.762968 
L 628.406528 296.736048 
L 631.269036 295.203395 
L 634.131543 295.993719 
L 636.994051 298.654954 
L 639.856558 299.612936 
L 642.719066 299.512611 
L 645.581574 299.5344 
L 648.444081 299.408226 
L 651.306589 298.770123 
L 654.169097 295.709643 
L 657.031604 294.164773 
L 659.894112 293.911699 
L 662.75662 294.123042 
L 665.619127 296.008024 
L 668.481635 295.812176 
L 671.344142 295.888739 
L 674.20665 295.898215 
L 677.069158 295.66286 
L 679.931665 293.305852 
L 682.794173 291.039572 
L 685.656681 291.129946 
L 688.519188 292.212767 
L 691.381696 293.054094 
L 694.244203 295.169377 
L 697.106711 296.616858 
L 699.969219 298.056311 
L 702.831726 299.265784 
L 705.694234 300.825711 
L 708.556742 300.925209 
L 711.419249 300.948779 
L 714.281757 300.055755 
L 717.144264 298.395089 
L 720.006772 298.272764 
L 722.86928 297.9537 
L 725.731787 298.60994 
L 728.594295 299.431097 
L 731.456803 299.343321 
L 734.31931 300.675066 
L 737.181818 303.370158 
L 740.044325 306.961523 
L 742.906833 311.476334 
L 745.769341 311.904372 
L 748.631848 304.15344 
L 751.494356 301.659321 
L 754.356864 303.209406 
L 757.219371 303.932542 
L 760.081879 302.251081 
L 762.944386 302.791883 
L 765.806894 302.899031 
L 768.669402 300.961703 
L 771.531909 301.180459 
L 774.394417 301.640418 
L 777.256925 302.444396 
L 780.119432 303.188531 
L 782.98194 303.33578 
L 785.844447 303.906638 
L 788.706955 305.451727 
L 791.569463 306.255072 
L 794.43197 307.477601 
L 797.294478 306.974685 
L 800.156986 306.334229 
L 803.019493 306.759808 
L 805.882001 304.449956 
L 808.744508 303.425658 
L 811.607016 303.138145 
L 814.469524 303.331653 
L 817.332031 302.920485 
L 820.194539 303.818352 
L 823.057047 303.229731 
L 825.919554 303.095875 
L 828.782062 301.441873 
L 831.644569 300.238459 
L 834.507077 297.916466 
L 837.369585 296.034641 
L 840.232092 298.712622 
L 843.0946 292.189723 
L 845.957108 294.143071 
L 848.819615 293.379696 
L 851.682123 293.847043 
L 854.54463 293.726014 
L 857.407138 292.828881 
L 860.269646 293.678468 
L 863.132153 295.806539 
L 865.994661 296.838314 
L 868.857169 295.356137 
L 871.719676 293.141209 
L 874.582184 290.535446 
L 877.444692 289.112834 
L 880.307199 289.318425 
L 883.169707 290.583069 
L 886.032214 292.65435 
L 888.894722 293.268043 
L 891.75723 294.174262 
L 894.619737 295.15526 
L 897.482245 296.269162 
L 900.344753 296.557718 
L 903.20726 295.817487 
L 906.069768 295.426898 
L 908.932275 294.95986 
L 911.794783 293.95431 
L 914.657291 293.184494 
L 917.519798 293.746965 
L 920.382306 295.56304 
L 923.244814 297.368562 
L 926.107321 297.296047 
L 928.969829 295.267794 
L 931.832336 294.316929 
L 934.694844 294.532949 
L 937.557352 296.222202 
L 940.419859 298.451505 
L 943.282367 300.618431 
L 946.144875 302.094511 
L 949.007382 302.71976 
L 951.86989 302.658126 
L 954.732397 303.873889 
L 957.594905 303.444259 
L 960.457413 304.023244 
L 963.31992 303.759216 
L 966.182428 305.388743 
L 969.044936 308.095915 
L 971.907443 307.649953 
L 971.907443 294.029885 
L 971.907443 294.029885 
L 969.044936 291.030109 
L 966.182428 290.05379 
L 963.31992 285.896516 
L 960.457413 288.051557 
L 957.594905 286.387255 
L 954.732397 282.422283 
L 951.86989 283.80166 
L 949.007382 284.469633 
L 946.144875 284.051437 
L 943.282367 283.712828 
L 940.419859 282.568685 
L 937.557352 280.580562 
L 934.694844 278.118593 
L 931.832336 277.421766 
L 928.969829 279.435939 
L 926.107321 281.086726 
L 923.244814 280.103285 
L 920.382306 276.264485 
L 917.519798 274.98666 
L 914.657291 275.038618 
L 911.794783 276.730083 
L 908.932275 277.811909 
L 906.069768 279.769625 
L 903.20726 279.505874 
L 900.344753 280.223945 
L 897.482245 279.556265 
L 894.619737 279.602819 
L 891.75723 278.31968 
L 888.894722 276.954643 
L 886.032214 275.22371 
L 883.169707 273.284251 
L 880.307199 271.041131 
L 877.444692 272.397031 
L 874.582184 275.208617 
L 871.719676 277.751653 
L 868.857169 279.505138 
L 865.994661 280.647511 
L 863.132153 280.621829 
L 860.269646 279.44952 
L 857.407138 280.097861 
L 854.54463 281.59763 
L 851.682123 281.362627 
L 848.819615 280.885268 
L 845.957108 279.969597 
L 843.0946 279.918199 
L 840.232092 281.619512 
L 837.369585 282.072762 
L 834.507077 282.549145 
L 831.644569 283.486401 
L 828.782062 283.956024 
L 825.919554 285.202209 
L 823.057047 285.810132 
L 820.194539 287.423939 
L 817.332031 287.107326 
L 814.469524 287.820094 
L 811.607016 287.006251 
L 808.744508 286.626955 
L 805.882001 286.667901 
L 803.019493 287.190297 
L 800.156986 287.035942 
L 797.294478 288.865547 
L 794.43197 291.066425 
L 791.569463 291.624635 
L 788.706955 291.787217 
L 785.844447 290.06849 
L 782.98194 288.903102 
L 780.119432 287.912878 
L 777.256925 287.235918 
L 774.394417 287.289941 
L 771.531909 286.959093 
L 768.669402 285.562831 
L 765.806894 287.124633 
L 762.944386 286.640491 
L 760.081879 286.603218 
L 757.219371 289.215181 
L 754.356864 289.286199 
L 751.494356 288.912633 
L 748.631848 286.690743 
L 745.769341 283.474555 
L 742.906833 282.025775 
L 740.044325 283.542201 
L 737.181818 285.050169 
L 734.31931 283.29261 
L 731.456803 284.071867 
L 728.594295 286.160969 
L 725.731787 286.155953 
L 722.86928 285.72722 
L 720.006772 286.061001 
L 717.144264 285.548854 
L 714.281757 286.844283 
L 711.419249 286.306686 
L 708.556742 285.61924 
L 705.694234 286.037131 
L 702.831726 283.817586 
L 699.969219 282.181484 
L 697.106711 279.42019 
L 694.244203 277.891484 
L 691.381696 276.711217 
L 688.519188 277.633353 
L 685.656681 279.012192 
L 682.794173 279.174961 
L 679.931665 280.909824 
L 677.069158 282.411785 
L 674.20665 282.424007 
L 671.344142 283.910376 
L 668.481635 285.065891 
L 665.619127 285.889691 
L 662.75662 282.82845 
L 659.894112 281.109594 
L 657.031604 281.957963 
L 654.169097 283.58386 
L 651.306589 285.56366 
L 648.444081 288.219919 
L 645.581574 289.32846 
L 642.719066 288.710094 
L 639.856558 289.891957 
L 636.994051 290.398744 
L 634.131543 289.41495 
L 631.269036 288.376633 
L 628.406528 288.820407 
L 625.54402 289.385889 
L 622.681513 289.245448 
L 619.819005 288.60882 
L 616.956497 287.535916 
L 614.09399 285.73959 
L 611.231482 285.207291 
L 608.368975 285.767647 
L 605.506467 284.927282 
L 602.643959 285.404887 
L 599.781452 285.672048 
L 596.918944 286.10338 
L 594.056436 287.181338 
L 591.193929 286.677845 
L 588.331421 286.278426 
L 585.468914 287.892082 
L 582.606406 287.398425 
L 579.743898 288.8732 
L 576.881391 289.69603 
L 574.018883 290.546599 
L 571.156375 292.028857 
L 568.293868 292.726901 
L 565.43136 292.626166 
L 562.568853 292.528977 
L 559.706345 293.39505 
L 556.843837 293.319369 
L 553.98133 294.275982 
L 551.118822 295.453764 
L 548.256314 296.287981 
L 545.393807 297.973559 
z
" clip-path="url(#p12026ac86a)" style="fill: #1f77b4; fill-opacity: 0.3"/>
   </g>
   <g id="matplotlib.axis_3">
    <g id="xtick_10">
     <g id="line2d_18">
      <g>
       <use xlink:href="#m4996b8b14a" x="545.393807" y="313.478125" style="stroke: #000000; stroke-width: 0.8"/>
      </g>
     </g>
     <g id="text_20">
      <!-- 0 -->
      <g transform="translate(542.212557 328.076563) scale(0.1 -0.1)">
       <use xlink:href="#DejaVuSans-30"/>
      </g>
     </g>
    </g>
    <g id="xtick_11">
     <g id="line2d_19">
      <g>
       <use xlink:href="#m4996b8b14a" x="596.918944" y="313.478125" style="stroke: #000000; stroke-width: 0.8"/>
      </g>
     </g>
     <g id="text_21">
      <!-- 18 -->
      <g transform="translate(590.556444 328.076563) scale(0.1 -0.1)">
       <use xlink:href="#DejaVuSans-31"/>
       <use xlink:href="#DejaVuSans-38" transform="translate(63.623047 0)"/>
      </g>
     </g>
    </g>
    <g id="xtick_12">
     <g id="line2d_20">
      <g>
       <use xlink:href="#m4996b8b14a" x="651.306589" y="313.478125" style="stroke: #000000; stroke-width: 0.8"/>
      </g>
     </g>
     <g id="text_22">
      <!-- 37 -->
      <g transform="translate(644.944089 328.076563) scale(0.1 -0.1)">
       <use xlink:href="#DejaVuSans-33"/>
       <use xlink:href="#DejaVuSans-37" transform="translate(63.623047 0)"/>
      </g>
     </g>
    </g>
    <g id="xtick_13">
     <g id="line2d_21">
      <g>
       <use xlink:href="#m4996b8b14a" x="702.831726" y="313.478125" style="stroke: #000000; stroke-width: 0.8"/>
      </g>
     </g>
     <g id="text_23">
      <!-- 55 -->
      <g transform="translate(696.469226 328.076563) scale(0.1 -0.1)">
       <use xlink:href="#DejaVuSans-35"/>
       <use xlink:href="#DejaVuSans-35" transform="translate(63.623047 0)"/>
      </g>
     </g>
    </g>
    <g id="xtick_14">
     <g id="line2d_22">
      <g>
       <use xlink:href="#m4996b8b14a" x="757.219371" y="313.478125" style="stroke: #000000; stroke-width: 0.8"/>
      </g>
     </g>
     <g id="text_24">
      <!-- 74 -->
      <g transform="translate(750.856871 328.076563) scale(0.1 -0.1)">
       <use xlink:href="#DejaVuSans-37"/>
       <use xlink:href="#DejaVuSans-34" transform="translate(63.623047 0)"/>
      </g>
     </g>
    </g>
    <g id="xtick_15">
     <g id="line2d_23">
      <g>
       <use xlink:href="#m4996b8b14a" x="811.607016" y="313.478125" style="stroke: #000000; stroke-width: 0.8"/>
      </g>
     </g>
     <g id="text_25">
      <!-- 93 -->
      <g transform="translate(805.244516 328.076563) scale(0.1 -0.1)">
       <use xlink:href="#DejaVuSans-39"/>
       <use xlink:href="#DejaVuSans-33" transform="translate(63.623047 0)"/>
      </g>
     </g>
    </g>
    <g id="xtick_16">
     <g id="line2d_24">
      <g>
       <use xlink:href="#m4996b8b14a" x="863.132153" y="313.478125" style="stroke: #000000; stroke-width: 0.8"/>
      </g>
     </g>
     <g id="text_26">
      <!-- 111 -->
      <g transform="translate(853.588403 328.076563) scale(0.1 -0.1)">
       <use xlink:href="#DejaVuSans-31"/>
       <use xlink:href="#DejaVuSans-31" transform="translate(63.623047 0)"/>
       <use xlink:href="#DejaVuSans-31" transform="translate(127.246094 0)"/>
      </g>
     </g>
    </g>
    <g id="xtick_17">
     <g id="line2d_25">
      <g>
       <use xlink:href="#m4996b8b14a" x="917.519798" y="313.478125" style="stroke: #000000; stroke-width: 0.8"/>
      </g>
     </g>
     <g id="text_27">
      <!-- 130 -->
      <g transform="translate(907.976048 328.076563) scale(0.1 -0.1)">
       <use xlink:href="#DejaVuSans-31"/>
       <use xlink:href="#DejaVuSans-33" transform="translate(63.623047 0)"/>
       <use xlink:href="#DejaVuSans-30" transform="translate(127.246094 0)"/>
      </g>
     </g>
    </g>
    <g id="xtick_18">
     <g id="line2d_26">
      <g>
       <use xlink:href="#m4996b8b14a" x="971.907443" y="313.478125" style="stroke: #000000; stroke-width: 0.8"/>
      </g>
     </g>
     <g id="text_28">
      <!-- 149 -->
      <g transform="translate(962.363693 328.076563) scale(0.1 -0.1)">
       <use xlink:href="#DejaVuSans-31"/>
       <use xlink:href="#DejaVuSans-34" transform="translate(63.623047 0)"/>
       <use xlink:href="#DejaVuSans-39" transform="translate(127.246094 0)"/>
      </g>
     </g>
    </g>
    <g id="text_29">
     <!-- Spatial bin -->
     <g transform="translate(732.114688 341.754687) scale(0.1 -0.1)">
      <use xlink:href="#DejaVuSans-53"/>
      <use xlink:href="#DejaVuSans-70" transform="translate(63.476562 0)"/>
      <use xlink:href="#DejaVuSans-61" transform="translate(126.953125 0)"/>
      <use xlink:href="#DejaVuSans-74" transform="translate(188.232422 0)"/>
      <use xlink:href="#DejaVuSans-69" transform="translate(227.441406 0)"/>
      <use xlink:href="#DejaVuSans-61" transform="translate(255.224609 0)"/>
      <use xlink:href="#DejaVuSans-6c" transform="translate(316.503906 0)"/>
      <use xlink:href="#DejaVuSans-20" transform="translate(344.287109 0)"/>
      <use xlink:href="#DejaVuSans-62" transform="translate(376.074219 0)"/>
      <use xlink:href="#DejaVuSans-69" transform="translate(439.550781 0)"/>
      <use xlink:href="#DejaVuSans-6e" transform="translate(467.333984 0)"/>
     </g>
    </g>
   </g>
   <g id="matplotlib.axis_4">
    <g id="ytick_8">
     <g id="line2d_27">
      <g>
       <use xlink:href="#m33667f4399" x="524.068125" y="291.081202" style="stroke: #000000; stroke-width: 0.8"/>
      </g>
     </g>
    </g>
    <g id="ytick_9">
     <g id="line2d_28">
      <g>
       <use xlink:href="#m33667f4399" x="524.068125" y="246.287356" style="stroke: #000000; stroke-width: 0.8"/>
      </g>
     </g>
    </g>
    <g id="ytick_10">
     <g id="line2d_29">
      <g>
       <use xlink:href="#m33667f4399" x="524.068125" y="201.49351" style="stroke: #000000; stroke-width: 0.8"/>
      </g>
     </g>
    </g>
    <g id="ytick_11">
     <g id="line2d_30">
      <g>
       <use xlink:href="#m33667f4399" x="524.068125" y="156.699663" style="stroke: #000000; stroke-width: 0.8"/>
      </g>
     </g>
    </g>
    <g id="ytick_12">
     <g id="line2d_31">
      <g>
       <use xlink:href="#m33667f4399" x="524.068125" y="111.905817" style="stroke: #000000; stroke-width: 0.8"/>
      </g>
     </g>
    </g>
    <g id="ytick_13">
     <g id="line2d_32">
      <g>
       <use xlink:href="#m33667f4399" x="524.068125" y="67.111971" style="stroke: #000000; stroke-width: 0.8"/>
      </g>
     </g>
    </g>
    <g id="ytick_14">
     <g id="line2d_33">
      <g>
       <use xlink:href="#m33667f4399" x="524.068125" y="22.318125" style="stroke: #000000; stroke-width: 0.8"/>
      </g>
     </g>
    </g>
   </g>
   <g id="line2d_34">
    <path d="M 545.393807 302.631961 
L 548.256314 300.970552 
L 551.118822 299.872865 
L 553.98133 298.582971 
L 556.843837 297.696605 
L 559.706345 297.570078 
L 562.568853 296.751149 
L 565.43136 296.557671 
L 568.293868 296.592785 
L 571.156375 296.309668 
L 574.018883 295.179179 
L 576.881391 294.395466 
L 579.743898 293.406907 
L 582.606406 292.249335 
L 585.468914 292.597391 
L 588.331421 291.51677 
L 591.193929 291.781039 
L 594.056436 292.157547 
L 596.918944 291.369531 
L 599.781452 291.262379 
L 605.506467 289.769555 
L 608.368975 290.427479 
L 611.231482 290.290502 
L 614.09399 290.816399 
L 616.956497 292.065674 
L 619.819005 292.749933 
L 622.681513 293.075698 
L 625.54402 293.074428 
L 628.406528 292.778228 
L 631.269036 291.790014 
L 634.131543 292.704334 
L 636.994051 294.526849 
L 639.856558 294.752446 
L 642.719066 294.111353 
L 645.581574 294.43143 
L 648.444081 293.814073 
L 651.306589 292.166891 
L 654.169097 289.646752 
L 657.031604 288.061368 
L 659.894112 287.510646 
L 662.75662 288.475746 
L 665.619127 290.948857 
L 671.344142 289.899557 
L 674.20665 289.161111 
L 677.069158 289.037322 
L 682.794173 285.107267 
L 685.656681 285.071069 
L 691.381696 284.882655 
L 694.244203 286.530431 
L 697.106711 288.018524 
L 699.969219 290.118897 
L 702.831726 291.541685 
L 705.694234 293.431421 
L 708.556742 293.272225 
L 711.419249 293.627732 
L 714.281757 293.450019 
L 717.144264 291.971972 
L 720.006772 292.166883 
L 722.86928 291.84046 
L 725.731787 292.382946 
L 728.594295 292.796033 
L 731.456803 291.707594 
L 734.31931 291.983838 
L 737.181818 294.210164 
L 740.044325 295.251862 
L 742.906833 296.751055 
L 745.769341 297.689463 
L 748.631848 295.422092 
L 751.494356 295.285977 
L 754.356864 296.247802 
L 757.219371 296.573862 
L 760.081879 294.427149 
L 765.806894 295.011832 
L 768.669402 293.262267 
L 771.531909 294.069776 
L 777.256925 294.840157 
L 780.119432 295.550704 
L 782.98194 296.119441 
L 785.844447 296.987564 
L 788.706955 298.619472 
L 794.43197 299.272013 
L 800.156986 296.685085 
L 803.019493 296.975053 
L 805.882001 295.558928 
L 808.744508 295.026306 
L 811.607016 295.072198 
L 814.469524 295.575874 
L 817.332031 295.013905 
L 820.194539 295.621146 
L 823.057047 294.519932 
L 825.919554 294.149042 
L 828.782062 292.698948 
L 831.644569 291.86243 
L 834.507077 290.232806 
L 837.369585 289.053701 
L 840.232092 290.166067 
L 843.0946 286.053961 
L 845.957108 287.056334 
L 848.819615 287.132482 
L 851.682123 287.604835 
L 854.54463 287.661822 
L 857.407138 286.463371 
L 860.269646 286.563994 
L 863.132153 288.214184 
L 865.994661 288.742912 
L 868.857169 287.430637 
L 871.719676 285.446431 
L 874.582184 282.872031 
L 877.444692 280.754932 
L 880.307199 280.179778 
L 883.169707 281.93366 
L 886.032214 283.93903 
L 894.619737 287.379039 
L 900.344753 288.390831 
L 903.20726 287.661681 
L 906.069768 287.598261 
L 908.932275 286.385884 
L 911.794783 285.342197 
L 914.657291 284.111556 
L 917.519798 284.366812 
L 920.382306 285.913763 
L 923.244814 288.735924 
L 926.107321 289.191387 
L 928.969829 287.351866 
L 931.832336 285.869348 
L 934.694844 286.325771 
L 940.419859 290.510095 
L 943.282367 292.16563 
L 946.144875 293.072974 
L 949.007382 293.594696 
L 951.86989 293.229893 
L 954.732397 293.148086 
L 957.594905 294.915757 
L 960.457413 296.0374 
L 963.31992 294.827866 
L 966.182428 297.721266 
L 969.044936 299.563012 
L 971.907443 300.839919 
L 971.907443 300.839919 
" clip-path="url(#p12026ac86a)" style="fill: none; stroke: #ff0000; stroke-width: 3; stroke-linecap: square"/>
   </g>
   <g id="LineCollection_2">
    <path d="M 688.519188 313.478125 
L 688.519188 22.318125 
" clip-path="url(#p12026ac86a)" style="fill: none; stroke-dasharray: 5.55,2.4; stroke-dashoffset: 0; stroke: #ff0000; stroke-width: 1.5"/>
    <path d="M 831.644569 313.478125 
L 831.644569 22.318125 
" clip-path="url(#p12026ac86a)" style="fill: none; stroke-dasharray: 5.55,2.4; stroke-dashoffset: 0; stroke: #ff0000; stroke-width: 1.5"/>
   </g>
   <g id="patch_8">
    <path d="M 524.068125 313.478125 
L 524.068125 22.318125 
" style="fill: none; stroke: #000000; stroke-width: 0.8; stroke-linejoin: miter; stroke-linecap: square"/>
   </g>
   <g id="patch_9">
    <path d="M 993.233125 313.478125 
L 993.233125 22.318125 
" style="fill: none; stroke: #000000; stroke-width: 0.8; stroke-linejoin: miter; stroke-linecap: square"/>
   </g>
   <g id="patch_10">
    <path d="M 524.068125 313.478125 
L 993.233125 313.478125 
" style="fill: none; stroke: #000000; stroke-width: 0.8; stroke-linejoin: miter; stroke-linecap: square"/>
   </g>
   <g id="patch_11">
    <path d="M 524.068125 22.318125 
L 993.233125 22.318125 
" style="fill: none; stroke: #000000; stroke-width: 0.8; stroke-linejoin: miter; stroke-linecap: square"/>
   </g>
   <g id="text_30">
    <!-- Corridor 50.5 -->
    <g transform="translate(719.081563 16.318125) scale(0.12 -0.12)">
     <use xlink:href="#DejaVuSans-43"/>
     <use xlink:href="#DejaVuSans-6f" transform="translate(69.824219 0)"/>
     <use xlink:href="#DejaVuSans-72" transform="translate(131.005859 0)"/>
     <use xlink:href="#DejaVuSans-72" transform="translate(170.369141 0)"/>
     <use xlink:href="#DejaVuSans-69" transform="translate(211.482422 0)"/>
     <use xlink:href="#DejaVuSans-64" transform="translate(239.265625 0)"/>
     <use xlink:href="#DejaVuSans-6f" transform="translate(302.742188 0)"/>
     <use xlink:href="#DejaVuSans-72" transform="translate(363.923828 0)"/>
     <use xlink:href="#DejaVuSans-20" transform="translate(405.037109 0)"/>
     <use xlink:href="#DejaVuSans-35" transform="translate(436.824219 0)"/>
     <use xlink:href="#DejaVuSans-30" transform="translate(500.447266 0)"/>
     <use xlink:href="#DejaVuSans-2e" transform="translate(564.070312 0)"/>
     <use xlink:href="#DejaVuSans-35" transform="translate(595.857422 0)"/>
    </g>
   </g>
  </g>
 </g>
 <defs>
  <clipPath id="pca6964c63e">
   <rect x="40.603125" y="22.318125" width="469.165" height="291.16"/>
  </clipPath>
  <clipPath id="p12026ac86a">
   <rect x="524.068125" y="22.318125" width="469.165" height="291.16"/>
  </clipPath>
 </defs>
</svg>
