<?xml version="1.0" encoding="utf-8" standalone="no"?>
<!DOCTYPE svg PUBLIC "-//W3C//DTD SVG 1.1//EN"
  "http://www.w3.org/Graphics/SVG/1.1/DTD/svg11.dtd">
<svg xmlns:xlink="http://www.w3.org/1999/xlink" width="1000.46125pt" height="351.034375pt" viewBox="0 0 1000.46125 351.034375" xmlns="http://www.w3.org/2000/svg" version="1.1">
 <metadata>
  <rdf:RDF xmlns:dc="http://purl.org/dc/elements/1.1/" xmlns:cc="http://creativecommons.org/ns#" xmlns:rdf="http://www.w3.org/1999/02/22-rdf-syntax-ns#">
   <cc:Work>
    <dc:type rdf:resource="http://purl.org/dc/dcmitype/StillImage"/>
    <dc:date>2025-10-10T12:40:13.462267</dc:date>
    <dc:format>image/svg+xml</dc:format>
    <dc:creator>
     <cc:Agent>
      <dc:title>Matplotlib v3.10.0, https://matplotlib.org/</dc:title>
     </cc:Agent>
    </dc:creator>
   </cc:Work>
  </rdf:RDF>
 </metadata>
 <defs>
  <style type="text/css">*{stroke-linejoin: round; stroke-linecap: butt}</style>
 </defs>
 <g id="figure_1">
  <g id="patch_1">
   <path d="M 0 351.034375 
L 1000.46125 351.034375 
L 1000.46125 0 
L 0 0 
z
" style="fill: #ffffff"/>
  </g>
  <g id="axes_1">
   <g id="patch_2">
    <path d="M 43.78125 313.478125 
L 511.37125 313.478125 
L 511.37125 22.318125 
L 43.78125 22.318125 
z
" style="fill: #ffffff"/>
   </g>
   <g id="FillBetweenPolyCollection_1">
    <path d="M 65.035341 274.467526 
L 65.035341 290.9889 
L 67.888239 290.126313 
L 70.741137 288.615143 
L 73.594035 286.39321 
L 76.446933 284.898321 
L 79.299831 285.420199 
L 82.15273 285.158894 
L 85.005628 284.495476 
L 87.858526 284.062887 
L 90.711424 283.96285 
L 93.564322 284.718858 
L 96.41722 283.75182 
L 99.270118 282.247017 
L 102.123016 281.754136 
L 104.975914 282.123667 
L 107.828813 281.799405 
L 110.681711 280.070831 
L 113.534609 280.273048 
L 116.387507 281.259759 
L 119.240405 282.327067 
L 122.093303 284.334517 
L 124.946201 282.073699 
L 127.799099 281.687814 
L 130.651997 281.175204 
L 133.504896 281.629465 
L 136.357794 281.073645 
L 139.210692 279.170707 
L 142.06359 279.23359 
L 144.916488 276.761027 
L 147.769386 277.001692 
L 150.622284 275.946835 
L 153.475182 275.694987 
L 156.32808 276.028203 
L 159.180978 276.331273 
L 162.033877 277.338694 
L 164.886775 277.681697 
L 167.739673 277.223063 
L 170.592571 276.911272 
L 173.445469 276.770439 
L 176.298367 277.148981 
L 179.151265 277.531332 
L 182.004163 278.609084 
L 184.857061 276.797628 
L 187.70996 267.122505 
L 190.562858 246.400728 
L 193.415756 220.790859 
L 196.268654 198.75792 
L 199.121552 182.386352 
L 201.97445 178.449147 
L 204.827348 193.505086 
L 207.680246 206.155375 
L 210.533144 212.493711 
L 213.386043 218.455265 
L 216.238941 223.364079 
L 219.091839 230.537907 
L 221.944737 236.865794 
L 224.797635 241.345182 
L 227.650533 244.355365 
L 230.503431 247.08576 
L 233.356329 251.484591 
L 236.209227 256.755322 
L 239.062126 256.828566 
L 241.915024 259.509535 
L 244.767922 262.201898 
L 247.62082 263.000237 
L 250.473718 264.207225 
L 253.326616 265.434733 
L 256.179514 269.664128 
L 259.032412 270.563451 
L 261.88531 269.977883 
L 264.738209 269.281369 
L 267.591107 270.169031 
L 270.444005 271.098078 
L 273.296903 271.453364 
L 276.149801 272.154196 
L 279.002699 273.730254 
L 281.855597 276.213019 
L 284.708495 276.362554 
L 287.561393 275.697821 
L 290.414291 277.847042 
L 293.26719 277.279893 
L 296.120088 275.639152 
L 298.972986 276.382466 
L 301.825884 277.97394 
L 304.678782 280.15576 
L 307.53168 282.635407 
L 310.384578 282.601446 
L 313.237476 282.923929 
L 316.090374 280.851562 
L 318.943273 281.759936 
L 321.796171 280.753506 
L 324.649069 282.236273 
L 327.501967 282.089095 
L 330.354865 281.811115 
L 333.207763 281.373113 
L 336.060661 281.711557 
L 338.913559 281.449076 
L 341.766457 280.442426 
L 344.619356 278.337963 
L 347.472254 279.807592 
L 350.325152 282.367837 
L 353.17805 284.221016 
L 356.030948 284.074271 
L 358.883846 283.808698 
L 361.736744 283.82496 
L 364.589642 284.411749 
L 367.44254 285.932571 
L 370.295439 286.035086 
L 373.148337 284.488412 
L 376.001235 285.21799 
L 378.854133 285.544061 
L 381.707031 286.5327 
L 384.559929 286.703893 
L 387.412827 286.759354 
L 390.265725 286.787158 
L 393.118623 286.287534 
L 395.971522 285.628777 
L 398.82442 284.192148 
L 401.677318 283.564658 
L 404.530216 284.672464 
L 407.383114 286.192525 
L 410.236012 288.172656 
L 413.08891 288.581558 
L 415.941808 292.641573 
L 418.794706 291.280071 
L 421.647604 286.980212 
L 424.500503 282.606878 
L 427.353401 280.04779 
L 430.206299 277.686382 
L 433.059197 281.90391 
L 435.912095 282.125644 
L 438.764993 282.621971 
L 441.617891 283.407656 
L 444.470789 287.54605 
L 447.323687 289.348296 
L 450.176586 289.581973 
L 453.029484 288.224103 
L 455.882382 287.853636 
L 458.73528 286.724225 
L 461.588178 287.803038 
L 464.441076 286.218321 
L 467.293974 287.800108 
L 470.146872 287.616085 
L 472.99977 287.372778 
L 475.852669 286.804564 
L 478.705567 284.299606 
L 481.558465 281.142375 
L 484.411363 278.850525 
L 487.264261 279.962654 
L 490.117159 298.923824 
L 490.117159 271.841029 
L 490.117159 271.841029 
L 487.264261 262.29902 
L 484.411363 262.958243 
L 481.558465 263.185268 
L 478.705567 263.287868 
L 475.852669 263.024774 
L 472.99977 262.671523 
L 470.146872 265.089437 
L 467.293974 264.98162 
L 464.441076 262.050784 
L 461.588178 259.539019 
L 458.73528 262.304576 
L 455.882382 266.730348 
L 453.029484 266.831662 
L 450.176586 268.189702 
L 447.323687 267.257409 
L 444.470789 266.5968 
L 441.617891 266.992213 
L 438.764993 264.153382 
L 435.912095 261.111486 
L 433.059197 261.283691 
L 430.206299 260.430122 
L 427.353401 264.691456 
L 424.500503 269.317601 
L 421.647604 271.82658 
L 418.794706 271.406906 
L 415.941808 272.187073 
L 413.08891 272.944023 
L 410.236012 272.276413 
L 407.383114 270.603746 
L 404.530216 270.338876 
L 401.677318 271.227464 
L 398.82442 272.448121 
L 395.971522 273.436386 
L 393.118623 274.860824 
L 390.265725 277.207676 
L 387.412827 277.071456 
L 384.559929 277.101305 
L 381.707031 276.798328 
L 378.854133 274.888002 
L 376.001235 273.62632 
L 373.148337 272.017494 
L 370.295439 273.249871 
L 367.44254 273.627007 
L 364.589642 273.721338 
L 361.736744 274.629184 
L 358.883846 275.581372 
L 356.030948 275.544749 
L 353.17805 274.631416 
L 350.325152 273.271826 
L 347.472254 271.431694 
L 344.619356 270.968957 
L 341.766457 272.544671 
L 338.913559 272.67753 
L 336.060661 272.21977 
L 333.207763 271.363916 
L 330.354865 270.754224 
L 327.501967 270.940624 
L 324.649069 271.819957 
L 321.796171 271.795976 
L 318.943273 271.649853 
L 316.090374 273.364562 
L 313.237476 275.027443 
L 310.384578 274.760816 
L 307.53168 273.662555 
L 304.678782 271.892297 
L 301.825884 270.218803 
L 298.972986 268.486347 
L 296.120088 266.832498 
L 293.26719 267.364925 
L 290.414291 267.834246 
L 287.561393 265.547536 
L 284.708495 264.609557 
L 281.855597 265.504041 
L 279.002699 264.372953 
L 276.149801 262.051885 
L 273.296903 261.029077 
L 270.444005 260.598152 
L 267.591107 260.517135 
L 264.738209 257.995315 
L 261.88531 255.162294 
L 259.032412 254.018151 
L 256.179514 251.665371 
L 253.326616 247.572898 
L 250.473718 244.645686 
L 247.62082 241.382328 
L 244.767922 237.740748 
L 241.915024 232.433816 
L 239.062126 226.634393 
L 236.209227 221.633892 
L 233.356329 214.456552 
L 230.503431 206.226275 
L 227.650533 197.662149 
L 224.797635 187.825522 
L 221.944737 174.667137 
L 219.091839 162.20271 
L 216.238941 148.050312 
L 213.386043 133.12482 
L 210.533144 120.573898 
L 207.680246 111.027764 
L 204.827348 102.257231 
L 201.97445 94.307391 
L 199.121552 95.772222 
L 196.268654 104.886403 
L 193.415756 123.44801 
L 190.562858 160.519599 
L 187.70996 199.101633 
L 184.857061 219.942366 
L 182.004163 242.828054 
L 179.151265 266.746687 
L 176.298367 268.336731 
L 173.445469 269.016293 
L 170.592571 268.874154 
L 167.739673 267.650758 
L 164.886775 266.861634 
L 162.033877 265.929372 
L 159.180978 265.716567 
L 156.32808 265.880279 
L 153.475182 264.679962 
L 150.622284 263.385051 
L 147.769386 267.528273 
L 144.916488 267.203671 
L 142.06359 267.330169 
L 139.210692 268.840552 
L 136.357794 270.291692 
L 133.504896 270.701964 
L 130.651997 270.529326 
L 127.799099 267.297889 
L 124.946201 264.00648 
L 122.093303 261.493911 
L 119.240405 271.594901 
L 116.387507 270.467507 
L 113.534609 270.683404 
L 110.681711 271.235086 
L 107.828813 273.201657 
L 104.975914 273.095335 
L 102.123016 272.309286 
L 99.270118 271.788603 
L 96.41722 271.211858 
L 93.564322 271.474524 
L 90.711424 272.13864 
L 87.858526 272.472919 
L 85.005628 273.776683 
L 82.15273 274.269987 
L 79.299831 273.634076 
L 76.446933 270.894452 
L 73.594035 273.222845 
L 70.741137 275.541532 
L 67.888239 274.717695 
L 65.035341 274.467526 
z
" clip-path="url(#p6adafcdcca)" style="fill: #1f77b4; fill-opacity: 0.3"/>
   </g>
   <g id="matplotlib.axis_1">
    <g id="xtick_1">
     <g id="line2d_1">
      <defs>
       <path id="ma61ef8ee49" d="M 0 0 
L 0 3.5 
" style="stroke: #000000; stroke-width: 0.8"/>
      </defs>
      <g>
       <use xlink:href="#ma61ef8ee49" x="65.035341" y="313.478125" style="stroke: #000000; stroke-width: 0.8"/>
      </g>
     </g>
     <g id="text_1">
      <!-- 0 -->
      <g transform="translate(61.854091 328.076563) scale(0.1 -0.1)">
       <defs>
        <path id="DejaVuSans-30" d="M 2034 4250 
Q 1547 4250 1301 3770 
Q 1056 3291 1056 2328 
Q 1056 1369 1301 889 
Q 1547 409 2034 409 
Q 2525 409 2770 889 
Q 3016 1369 3016 2328 
Q 3016 3291 2770 3770 
Q 2525 4250 2034 4250 
z
M 2034 4750 
Q 2819 4750 3233 4129 
Q 3647 3509 3647 2328 
Q 3647 1150 3233 529 
Q 2819 -91 2034 -91 
Q 1250 -91 836 529 
Q 422 1150 422 2328 
Q 422 3509 836 4129 
Q 1250 4750 2034 4750 
z
" transform="scale(0.015625)"/>
       </defs>
       <use xlink:href="#DejaVuSans-30"/>
      </g>
     </g>
    </g>
    <g id="xtick_2">
     <g id="line2d_2">
      <g>
       <use xlink:href="#ma61ef8ee49" x="116.387507" y="313.478125" style="stroke: #000000; stroke-width: 0.8"/>
      </g>
     </g>
     <g id="text_2">
      <!-- 18 -->
      <g transform="translate(110.025007 328.076563) scale(0.1 -0.1)">
       <defs>
        <path id="DejaVuSans-31" d="M 794 531 
L 1825 531 
L 1825 4091 
L 703 3866 
L 703 4441 
L 1819 4666 
L 2450 4666 
L 2450 531 
L 3481 531 
L 3481 0 
L 794 0 
L 794 531 
z
" transform="scale(0.015625)"/>
        <path id="DejaVuSans-38" d="M 2034 2216 
Q 1584 2216 1326 1975 
Q 1069 1734 1069 1313 
Q 1069 891 1326 650 
Q 1584 409 2034 409 
Q 2484 409 2743 651 
Q 3003 894 3003 1313 
Q 3003 1734 2745 1975 
Q 2488 2216 2034 2216 
z
M 1403 2484 
Q 997 2584 770 2862 
Q 544 3141 544 3541 
Q 544 4100 942 4425 
Q 1341 4750 2034 4750 
Q 2731 4750 3128 4425 
Q 3525 4100 3525 3541 
Q 3525 3141 3298 2862 
Q 3072 2584 2669 2484 
Q 3125 2378 3379 2068 
Q 3634 1759 3634 1313 
Q 3634 634 3220 271 
Q 2806 -91 2034 -91 
Q 1263 -91 848 271 
Q 434 634 434 1313 
Q 434 1759 690 2068 
Q 947 2378 1403 2484 
z
M 1172 3481 
Q 1172 3119 1398 2916 
Q 1625 2713 2034 2713 
Q 2441 2713 2670 2916 
Q 2900 3119 2900 3481 
Q 2900 3844 2670 4047 
Q 2441 4250 2034 4250 
Q 1625 4250 1398 4047 
Q 1172 3844 1172 3481 
z
" transform="scale(0.015625)"/>
       </defs>
       <use xlink:href="#DejaVuSans-31"/>
       <use xlink:href="#DejaVuSans-38" transform="translate(63.623047 0)"/>
      </g>
     </g>
    </g>
    <g id="xtick_3">
     <g id="line2d_3">
      <g>
       <use xlink:href="#ma61ef8ee49" x="170.592571" y="313.478125" style="stroke: #000000; stroke-width: 0.8"/>
      </g>
     </g>
     <g id="text_3">
      <!-- 37 -->
      <g transform="translate(164.230071 328.076563) scale(0.1 -0.1)">
       <defs>
        <path id="DejaVuSans-33" d="M 2597 2516 
Q 3050 2419 3304 2112 
Q 3559 1806 3559 1356 
Q 3559 666 3084 287 
Q 2609 -91 1734 -91 
Q 1441 -91 1130 -33 
Q 819 25 488 141 
L 488 750 
Q 750 597 1062 519 
Q 1375 441 1716 441 
Q 2309 441 2620 675 
Q 2931 909 2931 1356 
Q 2931 1769 2642 2001 
Q 2353 2234 1838 2234 
L 1294 2234 
L 1294 2753 
L 1863 2753 
Q 2328 2753 2575 2939 
Q 2822 3125 2822 3475 
Q 2822 3834 2567 4026 
Q 2313 4219 1838 4219 
Q 1578 4219 1281 4162 
Q 984 4106 628 3988 
L 628 4550 
Q 988 4650 1302 4700 
Q 1616 4750 1894 4750 
Q 2613 4750 3031 4423 
Q 3450 4097 3450 3541 
Q 3450 3153 3228 2886 
Q 3006 2619 2597 2516 
z
" transform="scale(0.015625)"/>
        <path id="DejaVuSans-37" d="M 525 4666 
L 3525 4666 
L 3525 4397 
L 1831 0 
L 1172 0 
L 2766 4134 
L 525 4134 
L 525 4666 
z
" transform="scale(0.015625)"/>
       </defs>
       <use xlink:href="#DejaVuSans-33"/>
       <use xlink:href="#DejaVuSans-37" transform="translate(63.623047 0)"/>
      </g>
     </g>
    </g>
    <g id="xtick_4">
     <g id="line2d_4">
      <g>
       <use xlink:href="#ma61ef8ee49" x="221.944737" y="313.478125" style="stroke: #000000; stroke-width: 0.8"/>
      </g>
     </g>
     <g id="text_4">
      <!-- 55 -->
      <g transform="translate(215.582237 328.076563) scale(0.1 -0.1)">
       <defs>
        <path id="DejaVuSans-35" d="M 691 4666 
L 3169 4666 
L 3169 4134 
L 1269 4134 
L 1269 2991 
Q 1406 3038 1543 3061 
Q 1681 3084 1819 3084 
Q 2600 3084 3056 2656 
Q 3513 2228 3513 1497 
Q 3513 744 3044 326 
Q 2575 -91 1722 -91 
Q 1428 -91 1123 -41 
Q 819 9 494 109 
L 494 744 
Q 775 591 1075 516 
Q 1375 441 1709 441 
Q 2250 441 2565 725 
Q 2881 1009 2881 1497 
Q 2881 1984 2565 2268 
Q 2250 2553 1709 2553 
Q 1456 2553 1204 2497 
Q 953 2441 691 2322 
L 691 4666 
z
" transform="scale(0.015625)"/>
       </defs>
       <use xlink:href="#DejaVuSans-35"/>
       <use xlink:href="#DejaVuSans-35" transform="translate(63.623047 0)"/>
      </g>
     </g>
    </g>
    <g id="xtick_5">
     <g id="line2d_5">
      <g>
       <use xlink:href="#ma61ef8ee49" x="276.149801" y="313.478125" style="stroke: #000000; stroke-width: 0.8"/>
      </g>
     </g>
     <g id="text_5">
      <!-- 74 -->
      <g transform="translate(269.787301 328.076563) scale(0.1 -0.1)">
       <defs>
        <path id="DejaVuSans-34" d="M 2419 4116 
L 825 1625 
L 2419 1625 
L 2419 4116 
z
M 2253 4666 
L 3047 4666 
L 3047 1625 
L 3713 1625 
L 3713 1100 
L 3047 1100 
L 3047 0 
L 2419 0 
L 2419 1100 
L 313 1100 
L 313 1709 
L 2253 4666 
z
" transform="scale(0.015625)"/>
       </defs>
       <use xlink:href="#DejaVuSans-37"/>
       <use xlink:href="#DejaVuSans-34" transform="translate(63.623047 0)"/>
      </g>
     </g>
    </g>
    <g id="xtick_6">
     <g id="line2d_6">
      <g>
       <use xlink:href="#ma61ef8ee49" x="330.354865" y="313.478125" style="stroke: #000000; stroke-width: 0.8"/>
      </g>
     </g>
     <g id="text_6">
      <!-- 93 -->
      <g transform="translate(323.992365 328.076563) scale(0.1 -0.1)">
       <defs>
        <path id="DejaVuSans-39" d="M 703 97 
L 703 672 
Q 941 559 1184 500 
Q 1428 441 1663 441 
Q 2288 441 2617 861 
Q 2947 1281 2994 2138 
Q 2813 1869 2534 1725 
Q 2256 1581 1919 1581 
Q 1219 1581 811 2004 
Q 403 2428 403 3163 
Q 403 3881 828 4315 
Q 1253 4750 1959 4750 
Q 2769 4750 3195 4129 
Q 3622 3509 3622 2328 
Q 3622 1225 3098 567 
Q 2575 -91 1691 -91 
Q 1453 -91 1209 -44 
Q 966 3 703 97 
z
M 1959 2075 
Q 2384 2075 2632 2365 
Q 2881 2656 2881 3163 
Q 2881 3666 2632 3958 
Q 2384 4250 1959 4250 
Q 1534 4250 1286 3958 
Q 1038 3666 1038 3163 
Q 1038 2656 1286 2365 
Q 1534 2075 1959 2075 
z
" transform="scale(0.015625)"/>
       </defs>
       <use xlink:href="#DejaVuSans-39"/>
       <use xlink:href="#DejaVuSans-33" transform="translate(63.623047 0)"/>
      </g>
     </g>
    </g>
    <g id="xtick_7">
     <g id="line2d_7">
      <g>
       <use xlink:href="#ma61ef8ee49" x="381.707031" y="313.478125" style="stroke: #000000; stroke-width: 0.8"/>
      </g>
     </g>
     <g id="text_7">
      <!-- 111 -->
      <g transform="translate(372.163281 328.076563) scale(0.1 -0.1)">
       <use xlink:href="#DejaVuSans-31"/>
       <use xlink:href="#DejaVuSans-31" transform="translate(63.623047 0)"/>
       <use xlink:href="#DejaVuSans-31" transform="translate(127.246094 0)"/>
      </g>
     </g>
    </g>
    <g id="xtick_8">
     <g id="line2d_8">
      <g>
       <use xlink:href="#ma61ef8ee49" x="435.912095" y="313.478125" style="stroke: #000000; stroke-width: 0.8"/>
      </g>
     </g>
     <g id="text_8">
      <!-- 130 -->
      <g transform="translate(426.368345 328.076563) scale(0.1 -0.1)">
       <use xlink:href="#DejaVuSans-31"/>
       <use xlink:href="#DejaVuSans-33" transform="translate(63.623047 0)"/>
       <use xlink:href="#DejaVuSans-30" transform="translate(127.246094 0)"/>
      </g>
     </g>
    </g>
    <g id="xtick_9">
     <g id="line2d_9">
      <g>
       <use xlink:href="#ma61ef8ee49" x="490.117159" y="313.478125" style="stroke: #000000; stroke-width: 0.8"/>
      </g>
     </g>
     <g id="text_9">
      <!-- 149 -->
      <g transform="translate(480.573409 328.076563) scale(0.1 -0.1)">
       <use xlink:href="#DejaVuSans-31"/>
       <use xlink:href="#DejaVuSans-34" transform="translate(63.623047 0)"/>
       <use xlink:href="#DejaVuSans-39" transform="translate(127.246094 0)"/>
      </g>
     </g>
    </g>
    <g id="text_10">
     <!-- Spatial bin -->
     <g transform="translate(251.040313 341.754687) scale(0.1 -0.1)">
      <defs>
       <path id="DejaVuSans-53" d="M 3425 4513 
L 3425 3897 
Q 3066 4069 2747 4153 
Q 2428 4238 2131 4238 
Q 1616 4238 1336 4038 
Q 1056 3838 1056 3469 
Q 1056 3159 1242 3001 
Q 1428 2844 1947 2747 
L 2328 2669 
Q 3034 2534 3370 2195 
Q 3706 1856 3706 1288 
Q 3706 609 3251 259 
Q 2797 -91 1919 -91 
Q 1588 -91 1214 -16 
Q 841 59 441 206 
L 441 856 
Q 825 641 1194 531 
Q 1563 422 1919 422 
Q 2459 422 2753 634 
Q 3047 847 3047 1241 
Q 3047 1584 2836 1778 
Q 2625 1972 2144 2069 
L 1759 2144 
Q 1053 2284 737 2584 
Q 422 2884 422 3419 
Q 422 4038 858 4394 
Q 1294 4750 2059 4750 
Q 2388 4750 2728 4690 
Q 3069 4631 3425 4513 
z
" transform="scale(0.015625)"/>
       <path id="DejaVuSans-70" d="M 1159 525 
L 1159 -1331 
L 581 -1331 
L 581 3500 
L 1159 3500 
L 1159 2969 
Q 1341 3281 1617 3432 
Q 1894 3584 2278 3584 
Q 2916 3584 3314 3078 
Q 3713 2572 3713 1747 
Q 3713 922 3314 415 
Q 2916 -91 2278 -91 
Q 1894 -91 1617 61 
Q 1341 213 1159 525 
z
M 3116 1747 
Q 3116 2381 2855 2742 
Q 2594 3103 2138 3103 
Q 1681 3103 1420 2742 
Q 1159 2381 1159 1747 
Q 1159 1113 1420 752 
Q 1681 391 2138 391 
Q 2594 391 2855 752 
Q 3116 1113 3116 1747 
z
" transform="scale(0.015625)"/>
       <path id="DejaVuSans-61" d="M 2194 1759 
Q 1497 1759 1228 1600 
Q 959 1441 959 1056 
Q 959 750 1161 570 
Q 1363 391 1709 391 
Q 2188 391 2477 730 
Q 2766 1069 2766 1631 
L 2766 1759 
L 2194 1759 
z
M 3341 1997 
L 3341 0 
L 2766 0 
L 2766 531 
Q 2569 213 2275 61 
Q 1981 -91 1556 -91 
Q 1019 -91 701 211 
Q 384 513 384 1019 
Q 384 1609 779 1909 
Q 1175 2209 1959 2209 
L 2766 2209 
L 2766 2266 
Q 2766 2663 2505 2880 
Q 2244 3097 1772 3097 
Q 1472 3097 1187 3025 
Q 903 2953 641 2809 
L 641 3341 
Q 956 3463 1253 3523 
Q 1550 3584 1831 3584 
Q 2591 3584 2966 3190 
Q 3341 2797 3341 1997 
z
" transform="scale(0.015625)"/>
       <path id="DejaVuSans-74" d="M 1172 4494 
L 1172 3500 
L 2356 3500 
L 2356 3053 
L 1172 3053 
L 1172 1153 
Q 1172 725 1289 603 
Q 1406 481 1766 481 
L 2356 481 
L 2356 0 
L 1766 0 
Q 1100 0 847 248 
Q 594 497 594 1153 
L 594 3053 
L 172 3053 
L 172 3500 
L 594 3500 
L 594 4494 
L 1172 4494 
z
" transform="scale(0.015625)"/>
       <path id="DejaVuSans-69" d="M 603 3500 
L 1178 3500 
L 1178 0 
L 603 0 
L 603 3500 
z
M 603 4863 
L 1178 4863 
L 1178 4134 
L 603 4134 
L 603 4863 
z
" transform="scale(0.015625)"/>
       <path id="DejaVuSans-6c" d="M 603 4863 
L 1178 4863 
L 1178 0 
L 603 0 
L 603 4863 
z
" transform="scale(0.015625)"/>
       <path id="DejaVuSans-20" transform="scale(0.015625)"/>
       <path id="DejaVuSans-62" d="M 3116 1747 
Q 3116 2381 2855 2742 
Q 2594 3103 2138 3103 
Q 1681 3103 1420 2742 
Q 1159 2381 1159 1747 
Q 1159 1113 1420 752 
Q 1681 391 2138 391 
Q 2594 391 2855 752 
Q 3116 1113 3116 1747 
z
M 1159 2969 
Q 1341 3281 1617 3432 
Q 1894 3584 2278 3584 
Q 2916 3584 3314 3078 
Q 3713 2572 3713 1747 
Q 3713 922 3314 415 
Q 2916 -91 2278 -91 
Q 1894 -91 1617 61 
Q 1341 213 1159 525 
L 1159 0 
L 581 0 
L 581 4863 
L 1159 4863 
L 1159 2969 
z
" transform="scale(0.015625)"/>
       <path id="DejaVuSans-6e" d="M 3513 2113 
L 3513 0 
L 2938 0 
L 2938 2094 
Q 2938 2591 2744 2837 
Q 2550 3084 2163 3084 
Q 1697 3084 1428 2787 
Q 1159 2491 1159 1978 
L 1159 0 
L 581 0 
L 581 3500 
L 1159 3500 
L 1159 2956 
Q 1366 3272 1645 3428 
Q 1925 3584 2291 3584 
Q 2894 3584 3203 3211 
Q 3513 2838 3513 2113 
z
" transform="scale(0.015625)"/>
      </defs>
      <use xlink:href="#DejaVuSans-53"/>
      <use xlink:href="#DejaVuSans-70" transform="translate(63.476562 0)"/>
      <use xlink:href="#DejaVuSans-61" transform="translate(126.953125 0)"/>
      <use xlink:href="#DejaVuSans-74" transform="translate(188.232422 0)"/>
      <use xlink:href="#DejaVuSans-69" transform="translate(227.441406 0)"/>
      <use xlink:href="#DejaVuSans-61" transform="translate(255.224609 0)"/>
      <use xlink:href="#DejaVuSans-6c" transform="translate(316.503906 0)"/>
      <use xlink:href="#DejaVuSans-20" transform="translate(344.287109 0)"/>
      <use xlink:href="#DejaVuSans-62" transform="translate(376.074219 0)"/>
      <use xlink:href="#DejaVuSans-69" transform="translate(439.550781 0)"/>
      <use xlink:href="#DejaVuSans-6e" transform="translate(467.333984 0)"/>
     </g>
    </g>
   </g>
   <g id="matplotlib.axis_2">
    <g id="ytick_1">
     <g id="line2d_10">
      <defs>
       <path id="m225ec78f45" d="M 0 0 
L -3.5 0 
" style="stroke: #000000; stroke-width: 0.8"/>
      </defs>
      <g>
       <use xlink:href="#m225ec78f45" x="43.78125" y="287.009034" style="stroke: #000000; stroke-width: 0.8"/>
      </g>
     </g>
     <g id="text_11">
      <!-- 0.0 -->
      <g transform="translate(20.878125 290.808253) scale(0.1 -0.1)">
       <defs>
        <path id="DejaVuSans-2e" d="M 684 794 
L 1344 794 
L 1344 0 
L 684 0 
L 684 794 
z
" transform="scale(0.015625)"/>
       </defs>
       <use xlink:href="#DejaVuSans-30"/>
       <use xlink:href="#DejaVuSans-2e" transform="translate(63.623047 0)"/>
       <use xlink:href="#DejaVuSans-30" transform="translate(95.410156 0)"/>
      </g>
     </g>
    </g>
    <g id="ytick_2">
     <g id="line2d_11">
      <g>
       <use xlink:href="#m225ec78f45" x="43.78125" y="234.070852" style="stroke: #000000; stroke-width: 0.8"/>
      </g>
     </g>
     <g id="text_12">
      <!-- 0.2 -->
      <g transform="translate(20.878125 237.870071) scale(0.1 -0.1)">
       <defs>
        <path id="DejaVuSans-32" d="M 1228 531 
L 3431 531 
L 3431 0 
L 469 0 
L 469 531 
Q 828 903 1448 1529 
Q 2069 2156 2228 2338 
Q 2531 2678 2651 2914 
Q 2772 3150 2772 3378 
Q 2772 3750 2511 3984 
Q 2250 4219 1831 4219 
Q 1534 4219 1204 4116 
Q 875 4013 500 3803 
L 500 4441 
Q 881 4594 1212 4672 
Q 1544 4750 1819 4750 
Q 2544 4750 2975 4387 
Q 3406 4025 3406 3419 
Q 3406 3131 3298 2873 
Q 3191 2616 2906 2266 
Q 2828 2175 2409 1742 
Q 1991 1309 1228 531 
z
" transform="scale(0.015625)"/>
       </defs>
       <use xlink:href="#DejaVuSans-30"/>
       <use xlink:href="#DejaVuSans-2e" transform="translate(63.623047 0)"/>
       <use xlink:href="#DejaVuSans-32" transform="translate(95.410156 0)"/>
      </g>
     </g>
    </g>
    <g id="ytick_3">
     <g id="line2d_12">
      <g>
       <use xlink:href="#m225ec78f45" x="43.78125" y="181.13267" style="stroke: #000000; stroke-width: 0.8"/>
      </g>
     </g>
     <g id="text_13">
      <!-- 0.4 -->
      <g transform="translate(20.878125 184.931889) scale(0.1 -0.1)">
       <use xlink:href="#DejaVuSans-30"/>
       <use xlink:href="#DejaVuSans-2e" transform="translate(63.623047 0)"/>
       <use xlink:href="#DejaVuSans-34" transform="translate(95.410156 0)"/>
      </g>
     </g>
    </g>
    <g id="ytick_4">
     <g id="line2d_13">
      <g>
       <use xlink:href="#m225ec78f45" x="43.78125" y="128.194489" style="stroke: #000000; stroke-width: 0.8"/>
      </g>
     </g>
     <g id="text_14">
      <!-- 0.6 -->
      <g transform="translate(20.878125 131.993707) scale(0.1 -0.1)">
       <defs>
        <path id="DejaVuSans-36" d="M 2113 2584 
Q 1688 2584 1439 2293 
Q 1191 2003 1191 1497 
Q 1191 994 1439 701 
Q 1688 409 2113 409 
Q 2538 409 2786 701 
Q 3034 994 3034 1497 
Q 3034 2003 2786 2293 
Q 2538 2584 2113 2584 
z
M 3366 4563 
L 3366 3988 
Q 3128 4100 2886 4159 
Q 2644 4219 2406 4219 
Q 1781 4219 1451 3797 
Q 1122 3375 1075 2522 
Q 1259 2794 1537 2939 
Q 1816 3084 2150 3084 
Q 2853 3084 3261 2657 
Q 3669 2231 3669 1497 
Q 3669 778 3244 343 
Q 2819 -91 2113 -91 
Q 1303 -91 875 529 
Q 447 1150 447 2328 
Q 447 3434 972 4092 
Q 1497 4750 2381 4750 
Q 2619 4750 2861 4703 
Q 3103 4656 3366 4563 
z
" transform="scale(0.015625)"/>
       </defs>
       <use xlink:href="#DejaVuSans-30"/>
       <use xlink:href="#DejaVuSans-2e" transform="translate(63.623047 0)"/>
       <use xlink:href="#DejaVuSans-36" transform="translate(95.410156 0)"/>
      </g>
     </g>
    </g>
    <g id="ytick_5">
     <g id="line2d_14">
      <g>
       <use xlink:href="#m225ec78f45" x="43.78125" y="75.256307" style="stroke: #000000; stroke-width: 0.8"/>
      </g>
     </g>
     <g id="text_15">
      <!-- 0.8 -->
      <g transform="translate(20.878125 79.055526) scale(0.1 -0.1)">
       <use xlink:href="#DejaVuSans-30"/>
       <use xlink:href="#DejaVuSans-2e" transform="translate(63.623047 0)"/>
       <use xlink:href="#DejaVuSans-38" transform="translate(95.410156 0)"/>
      </g>
     </g>
    </g>
    <g id="ytick_6">
     <g id="line2d_15">
      <g>
       <use xlink:href="#m225ec78f45" x="43.78125" y="22.318125" style="stroke: #000000; stroke-width: 0.8"/>
      </g>
     </g>
     <g id="text_16">
      <!-- 1.0 -->
      <g transform="translate(20.878125 26.117344) scale(0.1 -0.1)">
       <use xlink:href="#DejaVuSans-31"/>
       <use xlink:href="#DejaVuSans-2e" transform="translate(63.623047 0)"/>
       <use xlink:href="#DejaVuSans-30" transform="translate(95.410156 0)"/>
      </g>
     </g>
    </g>
    <g id="text_17">
     <!-- dF/F -->
     <g transform="translate(14.798438 178.508281) rotate(-90) scale(0.1 -0.1)">
      <defs>
       <path id="DejaVuSans-64" d="M 2906 2969 
L 2906 4863 
L 3481 4863 
L 3481 0 
L 2906 0 
L 2906 525 
Q 2725 213 2448 61 
Q 2172 -91 1784 -91 
Q 1150 -91 751 415 
Q 353 922 353 1747 
Q 353 2572 751 3078 
Q 1150 3584 1784 3584 
Q 2172 3584 2448 3432 
Q 2725 3281 2906 2969 
z
M 947 1747 
Q 947 1113 1208 752 
Q 1469 391 1925 391 
Q 2381 391 2643 752 
Q 2906 1113 2906 1747 
Q 2906 2381 2643 2742 
Q 2381 3103 1925 3103 
Q 1469 3103 1208 2742 
Q 947 2381 947 1747 
z
" transform="scale(0.015625)"/>
       <path id="DejaVuSans-46" d="M 628 4666 
L 3309 4666 
L 3309 4134 
L 1259 4134 
L 1259 2759 
L 3109 2759 
L 3109 2228 
L 1259 2228 
L 1259 0 
L 628 0 
L 628 4666 
z
" transform="scale(0.015625)"/>
       <path id="DejaVuSans-2f" d="M 1625 4666 
L 2156 4666 
L 531 -594 
L 0 -594 
L 1625 4666 
z
" transform="scale(0.015625)"/>
      </defs>
      <use xlink:href="#DejaVuSans-64"/>
      <use xlink:href="#DejaVuSans-46" transform="translate(63.476562 0)"/>
      <use xlink:href="#DejaVuSans-2f" transform="translate(120.996094 0)"/>
      <use xlink:href="#DejaVuSans-46" transform="translate(154.6875 0)"/>
     </g>
    </g>
   </g>
   <g id="line2d_16">
    <path d="M 65.035341 282.728213 
L 70.741137 282.078338 
L 73.594035 279.808027 
L 76.446933 277.896386 
L 79.299831 279.527137 
L 82.15273 279.714441 
L 85.005628 279.136079 
L 87.858526 278.267903 
L 90.711424 278.050745 
L 93.564322 278.096691 
L 96.41722 277.481839 
L 99.270118 277.01781 
L 102.123016 277.031711 
L 104.975914 277.609501 
L 107.828813 277.500531 
L 110.681711 275.652958 
L 113.534609 275.478226 
L 116.387507 275.863633 
L 119.240405 276.960984 
L 122.093303 272.914214 
L 124.946201 273.040089 
L 130.651997 275.852265 
L 133.504896 276.165715 
L 136.357794 275.682669 
L 139.210692 274.00563 
L 142.06359 273.281879 
L 144.916488 271.982349 
L 147.769386 272.264983 
L 150.622284 269.665943 
L 153.475182 270.187475 
L 156.32808 270.954241 
L 159.180978 271.02392 
L 164.886775 272.271666 
L 167.739673 272.43691 
L 170.592571 272.892713 
L 173.445469 272.893366 
L 176.298367 272.742856 
L 179.151265 272.139009 
L 182.004163 260.718569 
L 184.857061 248.369997 
L 187.70996 233.112069 
L 190.562858 203.460164 
L 193.415756 172.119435 
L 196.268654 151.822162 
L 199.121552 139.079287 
L 201.97445 136.378269 
L 204.827348 147.881159 
L 207.680246 158.59157 
L 210.533144 166.533804 
L 213.386043 175.790043 
L 216.238941 185.707195 
L 219.091839 196.370308 
L 221.944737 205.766465 
L 224.797635 214.585352 
L 227.650533 221.008757 
L 230.503431 226.656018 
L 236.209227 239.194607 
L 239.062126 241.73148 
L 241.915024 245.971675 
L 244.767922 249.971323 
L 253.326616 256.503815 
L 256.179514 260.66475 
L 259.032412 262.290801 
L 261.88531 262.570089 
L 264.738209 263.638342 
L 267.591107 265.343083 
L 273.296903 266.24122 
L 276.149801 267.103041 
L 279.002699 269.051603 
L 281.855597 270.85853 
L 284.708495 270.486055 
L 287.561393 270.622678 
L 290.414291 272.840644 
L 293.26719 272.322409 
L 296.120088 271.235825 
L 298.972986 272.434406 
L 301.825884 274.096372 
L 304.678782 276.024028 
L 307.53168 278.148981 
L 310.384578 278.681131 
L 313.237476 278.975686 
L 316.090374 277.108062 
L 321.796171 276.274741 
L 324.649069 277.028115 
L 327.501967 276.514859 
L 330.354865 276.28267 
L 333.207763 276.368515 
L 336.060661 276.965664 
L 338.913559 277.063303 
L 341.766457 276.493548 
L 344.619356 274.65346 
L 347.472254 275.619643 
L 350.325152 277.819831 
L 353.17805 279.426216 
L 356.030948 279.80951 
L 358.883846 279.695035 
L 361.736744 279.227072 
L 364.589642 279.066543 
L 367.44254 279.779789 
L 370.295439 279.642478 
L 373.148337 278.252953 
L 376.001235 279.422155 
L 378.854133 280.216031 
L 381.707031 281.665514 
L 384.559929 281.902599 
L 390.265725 281.997417 
L 393.118623 280.574179 
L 395.971522 279.532581 
L 398.82442 278.320135 
L 401.677318 277.396061 
L 404.530216 277.50567 
L 407.383114 278.398136 
L 410.236012 280.224535 
L 413.08891 280.76279 
L 415.941808 282.414323 
L 418.794706 281.343489 
L 421.647604 279.403396 
L 430.206299 269.058252 
L 433.059197 271.593801 
L 435.912095 271.618565 
L 441.617891 275.199935 
L 444.470789 277.071425 
L 447.323687 278.302853 
L 450.176586 278.885838 
L 453.029484 277.527883 
L 455.882382 277.291992 
L 458.73528 274.5144 
L 461.588178 273.671028 
L 464.441076 274.134553 
L 467.293974 276.390864 
L 470.146872 276.352761 
L 472.99977 275.02215 
L 475.852669 274.914669 
L 478.705567 273.793737 
L 481.558465 272.163822 
L 484.411363 270.904384 
L 487.264261 271.130837 
L 490.117159 285.382427 
L 490.117159 285.382427 
" clip-path="url(#p6adafcdcca)" style="fill: none; stroke: #ff0000; stroke-width: 3; stroke-linecap: square"/>
   </g>
   <g id="patch_3">
    <path d="M 43.78125 313.478125 
L 43.78125 22.318125 
" style="fill: none; stroke: #000000; stroke-width: 0.8; stroke-linejoin: miter; stroke-linecap: square"/>
   </g>
   <g id="patch_4">
    <path d="M 511.37125 313.478125 
L 511.37125 22.318125 
" style="fill: none; stroke: #000000; stroke-width: 0.8; stroke-linejoin: miter; stroke-linecap: square"/>
   </g>
   <g id="patch_5">
    <path d="M 43.78125 313.478125 
L 511.37125 313.478125 
" style="fill: none; stroke: #000000; stroke-width: 0.8; stroke-linejoin: miter; stroke-linecap: square"/>
   </g>
   <g id="patch_6">
    <path d="M 43.78125 22.318125 
L 511.37125 22.318125 
" style="fill: none; stroke: #000000; stroke-width: 0.8; stroke-linejoin: miter; stroke-linecap: square"/>
   </g>
   <g id="text_18">
    <!-- Corridor -0.0 -->
    <g transform="translate(239.66 16.318125) scale(0.12 -0.12)">
     <defs>
      <path id="DejaVuSans-43" d="M 4122 4306 
L 4122 3641 
Q 3803 3938 3442 4084 
Q 3081 4231 2675 4231 
Q 1875 4231 1450 3742 
Q 1025 3253 1025 2328 
Q 1025 1406 1450 917 
Q 1875 428 2675 428 
Q 3081 428 3442 575 
Q 3803 722 4122 1019 
L 4122 359 
Q 3791 134 3420 21 
Q 3050 -91 2638 -91 
Q 1578 -91 968 557 
Q 359 1206 359 2328 
Q 359 3453 968 4101 
Q 1578 4750 2638 4750 
Q 3056 4750 3426 4639 
Q 3797 4528 4122 4306 
z
" transform="scale(0.015625)"/>
      <path id="DejaVuSans-6f" d="M 1959 3097 
Q 1497 3097 1228 2736 
Q 959 2375 959 1747 
Q 959 1119 1226 758 
Q 1494 397 1959 397 
Q 2419 397 2687 759 
Q 2956 1122 2956 1747 
Q 2956 2369 2687 2733 
Q 2419 3097 1959 3097 
z
M 1959 3584 
Q 2709 3584 3137 3096 
Q 3566 2609 3566 1747 
Q 3566 888 3137 398 
Q 2709 -91 1959 -91 
Q 1206 -91 779 398 
Q 353 888 353 1747 
Q 353 2609 779 3096 
Q 1206 3584 1959 3584 
z
" transform="scale(0.015625)"/>
      <path id="DejaVuSans-72" d="M 2631 2963 
Q 2534 3019 2420 3045 
Q 2306 3072 2169 3072 
Q 1681 3072 1420 2755 
Q 1159 2438 1159 1844 
L 1159 0 
L 581 0 
L 581 3500 
L 1159 3500 
L 1159 2956 
Q 1341 3275 1631 3429 
Q 1922 3584 2338 3584 
Q 2397 3584 2469 3576 
Q 2541 3569 2628 3553 
L 2631 2963 
z
" transform="scale(0.015625)"/>
      <path id="DejaVuSans-2d" d="M 313 2009 
L 1997 2009 
L 1997 1497 
L 313 1497 
L 313 2009 
z
" transform="scale(0.015625)"/>
     </defs>
     <use xlink:href="#DejaVuSans-43"/>
     <use xlink:href="#DejaVuSans-6f" transform="translate(69.824219 0)"/>
     <use xlink:href="#DejaVuSans-72" transform="translate(131.005859 0)"/>
     <use xlink:href="#DejaVuSans-72" transform="translate(170.369141 0)"/>
     <use xlink:href="#DejaVuSans-69" transform="translate(211.482422 0)"/>
     <use xlink:href="#DejaVuSans-64" transform="translate(239.265625 0)"/>
     <use xlink:href="#DejaVuSans-6f" transform="translate(302.742188 0)"/>
     <use xlink:href="#DejaVuSans-72" transform="translate(363.923828 0)"/>
     <use xlink:href="#DejaVuSans-20" transform="translate(405.037109 0)"/>
     <use xlink:href="#DejaVuSans-2d" transform="translate(436.824219 0)"/>
     <use xlink:href="#DejaVuSans-30" transform="translate(472.908203 0)"/>
     <use xlink:href="#DejaVuSans-2e" transform="translate(536.53125 0)"/>
     <use xlink:href="#DejaVuSans-30" transform="translate(568.318359 0)"/>
    </g>
   </g>
  </g>
  <g id="axes_2">
   <g id="patch_7">
    <path d="M 525.67125 313.478125 
L 993.26125 313.478125 
L 993.26125 22.318125 
L 525.67125 22.318125 
z
" style="fill: #ffffff"/>
   </g>
   <g id="FillBetweenPolyCollection_2">
    <path d="M 546.925341 279.721769 
L 546.925341 289.159181 
L 549.778239 287.331694 
L 552.631137 286.410336 
L 555.484035 284.484458 
L 558.336933 282.094471 
L 561.189831 280.991708 
L 564.04273 280.77299 
L 566.895628 280.554784 
L 569.748526 280.768358 
L 572.601424 281.41364 
L 575.454322 281.653511 
L 578.30722 281.985272 
L 581.160118 281.738396 
L 584.013016 282.020215 
L 586.865914 282.354245 
L 589.718813 279.959381 
L 592.571711 278.602383 
L 595.424609 277.670015 
L 598.277507 277.328616 
L 601.130405 278.742145 
L 603.983303 277.907002 
L 606.836201 277.367865 
L 609.689099 277.698713 
L 612.541997 277.860642 
L 615.394896 278.096131 
L 618.247794 278.287683 
L 621.100692 278.580003 
L 623.95359 279.076224 
L 626.806488 278.820837 
L 629.659386 278.394804 
L 632.512284 277.332471 
L 635.365182 278.526082 
L 638.21808 280.52162 
L 641.070978 281.029573 
L 643.923877 280.077754 
L 646.776775 279.040937 
L 649.629673 279.754279 
L 652.482571 278.978896 
L 655.335469 278.663964 
L 658.188367 278.404514 
L 661.041265 279.180059 
L 663.894163 279.687135 
L 666.747061 278.572544 
L 669.59996 279.638607 
L 672.452858 279.888963 
L 675.305756 278.931029 
L 678.158654 277.500021 
L 681.011552 273.878993 
L 683.86445 271.274392 
L 686.717348 272.158121 
L 689.570246 271.320855 
L 692.423144 272.510489 
L 695.276043 274.482397 
L 698.128941 277.570904 
L 700.981839 281.035124 
L 703.834737 284.187105 
L 706.687635 285.517267 
L 709.540533 285.808547 
L 712.393431 284.975868 
L 715.246329 281.786806 
L 718.099227 278.415805 
L 720.952126 278.644747 
L 723.805024 277.625489 
L 726.657922 277.153944 
L 729.51082 278.342333 
L 732.363718 278.252073 
L 735.216616 278.625853 
L 738.069514 280.435387 
L 740.922412 282.291654 
L 743.77531 286.838334 
L 746.628209 290.541703 
L 749.481107 292.533092 
L 752.334005 280.512981 
L 755.186903 277.582403 
L 758.039801 277.851918 
L 760.892699 278.305045 
L 763.745597 277.483544 
L 766.598495 278.463913 
L 769.451393 278.833077 
L 772.304291 278.813212 
L 775.15719 279.169924 
L 778.010088 279.346597 
L 780.862986 279.581752 
L 783.715884 279.162868 
L 786.568782 278.333105 
L 789.42168 279.209342 
L 792.274578 279.480006 
L 795.127476 277.950846 
L 797.980374 277.059109 
L 800.833273 276.577644 
L 803.686171 277.143555 
L 806.539069 278.067618 
L 809.391967 279.436825 
L 812.244865 281.170769 
L 815.097763 282.468902 
L 817.950661 282.445598 
L 820.803559 280.643557 
L 823.656457 281.190408 
L 826.509356 280.824865 
L 829.362254 279.98567 
L 832.215152 279.469948 
L 835.06805 279.467663 
L 837.920948 278.859711 
L 840.773846 281.277789 
L 843.626744 275.537717 
L 846.479642 278.697875 
L 849.33254 277.593375 
L 852.185439 277.755779 
L 855.038337 276.768673 
L 857.891235 276.22718 
L 860.744133 276.139666 
L 863.597031 276.96782 
L 866.449929 278.262141 
L 869.302827 278.536218 
L 872.155725 278.660817 
L 875.008623 278.239878 
L 877.861522 277.671641 
L 880.71442 277.690448 
L 883.567318 277.915476 
L 886.420216 277.860556 
L 889.273114 277.962993 
L 892.126012 278.63124 
L 894.97891 279.71431 
L 897.831808 280.758506 
L 900.684706 280.811056 
L 903.537604 280.192097 
L 906.390503 279.508174 
L 909.243401 278.316976 
L 912.096299 277.303291 
L 914.949197 276.14997 
L 917.802095 275.700661 
L 920.654993 275.715296 
L 923.507891 276.322226 
L 926.360789 276.270471 
L 929.213687 275.16832 
L 932.066586 275.499114 
L 934.919484 277.146605 
L 937.772382 279.859558 
L 940.62528 282.04421 
L 943.478178 283.637434 
L 946.331076 284.432003 
L 949.183974 284.322812 
L 952.036872 283.708397 
L 954.88977 283.137794 
L 957.742669 281.379177 
L 960.595567 281.735658 
L 963.448465 283.258051 
L 966.301363 284.992128 
L 969.154261 286.544921 
L 972.007159 288.731488 
L 972.007159 271.56219 
L 972.007159 271.56219 
L 969.154261 272.843948 
L 966.301363 275.205331 
L 963.448465 273.842264 
L 960.595567 273.286638 
L 957.742669 272.411506 
L 954.88977 271.859545 
L 952.036872 272.162767 
L 949.183974 272.478183 
L 946.331076 272.110175 
L 943.478178 270.462852 
L 940.62528 268.931074 
L 937.772382 268.215945 
L 934.919484 265.559755 
L 932.066586 263.718714 
L 929.213687 263.354673 
L 926.360789 263.625579 
L 923.507891 263.613051 
L 920.654993 263.217086 
L 917.802095 261.648007 
L 914.949197 263.727872 
L 912.096299 265.932166 
L 909.243401 267.28153 
L 906.390503 268.671901 
L 903.537604 268.25602 
L 900.684706 269.273494 
L 897.831808 269.161961 
L 894.97891 268.780236 
L 892.126012 267.71939 
L 889.273114 266.871686 
L 886.420216 266.149562 
L 883.567318 265.610952 
L 880.71442 266.479664 
L 877.861522 267.85792 
L 875.008623 268.7699 
L 872.155725 268.793168 
L 869.302827 268.275364 
L 866.449929 267.718628 
L 863.597031 266.360892 
L 860.744133 264.615294 
L 857.891235 264.250962 
L 855.038337 264.071274 
L 852.185439 264.440516 
L 849.33254 264.404898 
L 846.479642 264.099563 
L 843.626744 263.587386 
L 840.773846 264.367896 
L 837.920948 263.159963 
L 835.06805 262.514083 
L 832.215152 262.183008 
L 829.362254 262.617078 
L 826.509356 263.090958 
L 823.656457 263.750938 
L 820.803559 263.752413 
L 817.950661 265.382108 
L 815.097763 265.312334 
L 812.244865 264.430593 
L 809.391967 262.882566 
L 806.539069 261.543539 
L 803.686171 260.331443 
L 800.833273 260.298548 
L 797.980374 262.489728 
L 795.127476 264.121779 
L 792.274578 264.880431 
L 789.42168 266.414809 
L 786.568782 266.828384 
L 783.715884 267.87003 
L 780.862986 268.683655 
L 778.010088 268.962842 
L 775.15719 268.773469 
L 772.304291 268.606627 
L 769.451393 268.280638 
L 766.598495 269.37715 
L 763.745597 269.169014 
L 760.892699 271.076739 
L 758.039801 269.901736 
L 755.186903 268.185923 
L 752.334005 266.591806 
L 749.481107 261.389811 
L 746.628209 260.874037 
L 743.77531 263.645037 
L 740.922412 267.27404 
L 738.069514 266.806885 
L 735.216616 268.422858 
L 732.363718 269.94568 
L 729.51082 271.169002 
L 726.657922 270.377635 
L 723.805024 271.181973 
L 720.952126 272.376113 
L 718.099227 271.277583 
L 715.246329 268.122778 
L 712.393431 267.453898 
L 709.540533 266.268861 
L 706.687635 266.387156 
L 703.834737 267.425806 
L 700.981839 266.972821 
L 698.128941 265.586031 
L 695.276043 264.130513 
L 692.423144 263.565048 
L 689.570246 262.771643 
L 686.717348 264.839928 
L 683.86445 265.167566 
L 681.011552 266.499599 
L 678.158654 269.33105 
L 675.305756 271.300633 
L 672.452858 271.787559 
L 669.59996 270.397005 
L 666.747061 270.480082 
L 663.894163 271.58809 
L 661.041265 271.287749 
L 658.188367 270.710457 
L 655.335469 271.599685 
L 652.482571 271.205366 
L 649.629673 271.473103 
L 646.776775 271.522742 
L 643.923877 272.094899 
L 641.070978 274.235402 
L 638.21808 274.265957 
L 635.365182 272.665031 
L 632.512284 272.258916 
L 629.659386 272.721189 
L 626.806488 273.029517 
L 623.95359 272.932524 
L 621.100692 272.058171 
L 618.247794 271.233791 
L 615.394896 271.165659 
L 612.541997 270.971045 
L 609.689099 270.972418 
L 606.836201 270.695806 
L 603.983303 271.035001 
L 601.130405 270.026034 
L 598.277507 269.259751 
L 595.424609 269.047964 
L 592.571711 269.071847 
L 589.718813 270.415169 
L 586.865914 273.611684 
L 584.013016 274.452714 
L 581.160118 275.292642 
L 578.30722 274.775593 
L 575.454322 274.206291 
L 572.601424 273.694258 
L 569.748526 273.485347 
L 566.895628 274.010432 
L 564.04273 274.937227 
L 561.189831 275.150692 
L 558.336933 275.577796 
L 555.484035 277.489201 
L 552.631137 278.90678 
L 549.778239 278.492183 
L 546.925341 279.721769 
z
" clip-path="url(#pcfd789b0ca)" style="fill: #1f77b4; fill-opacity: 0.3"/>
   </g>
   <g id="matplotlib.axis_3">
    <g id="xtick_10">
     <g id="line2d_17">
      <g>
       <use xlink:href="#ma61ef8ee49" x="546.925341" y="313.478125" style="stroke: #000000; stroke-width: 0.8"/>
      </g>
     </g>
     <g id="text_19">
      <!-- 0 -->
      <g transform="translate(543.744091 328.076563) scale(0.1 -0.1)">
       <use xlink:href="#DejaVuSans-30"/>
      </g>
     </g>
    </g>
    <g id="xtick_11">
     <g id="line2d_18">
      <g>
       <use xlink:href="#ma61ef8ee49" x="598.277507" y="313.478125" style="stroke: #000000; stroke-width: 0.8"/>
      </g>
     </g>
     <g id="text_20">
      <!-- 18 -->
      <g transform="translate(591.915007 328.076563) scale(0.1 -0.1)">
       <use xlink:href="#DejaVuSans-31"/>
       <use xlink:href="#DejaVuSans-38" transform="translate(63.623047 0)"/>
      </g>
     </g>
    </g>
    <g id="xtick_12">
     <g id="line2d_19">
      <g>
       <use xlink:href="#ma61ef8ee49" x="652.482571" y="313.478125" style="stroke: #000000; stroke-width: 0.8"/>
      </g>
     </g>
     <g id="text_21">
      <!-- 37 -->
      <g transform="translate(646.120071 328.076563) scale(0.1 -0.1)">
       <use xlink:href="#DejaVuSans-33"/>
       <use xlink:href="#DejaVuSans-37" transform="translate(63.623047 0)"/>
      </g>
     </g>
    </g>
    <g id="xtick_13">
     <g id="line2d_20">
      <g>
       <use xlink:href="#ma61ef8ee49" x="703.834737" y="313.478125" style="stroke: #000000; stroke-width: 0.8"/>
      </g>
     </g>
     <g id="text_22">
      <!-- 55 -->
      <g transform="translate(697.472237 328.076563) scale(0.1 -0.1)">
       <use xlink:href="#DejaVuSans-35"/>
       <use xlink:href="#DejaVuSans-35" transform="translate(63.623047 0)"/>
      </g>
     </g>
    </g>
    <g id="xtick_14">
     <g id="line2d_21">
      <g>
       <use xlink:href="#ma61ef8ee49" x="758.039801" y="313.478125" style="stroke: #000000; stroke-width: 0.8"/>
      </g>
     </g>
     <g id="text_23">
      <!-- 74 -->
      <g transform="translate(751.677301 328.076563) scale(0.1 -0.1)">
       <use xlink:href="#DejaVuSans-37"/>
       <use xlink:href="#DejaVuSans-34" transform="translate(63.623047 0)"/>
      </g>
     </g>
    </g>
    <g id="xtick_15">
     <g id="line2d_22">
      <g>
       <use xlink:href="#ma61ef8ee49" x="812.244865" y="313.478125" style="stroke: #000000; stroke-width: 0.8"/>
      </g>
     </g>
     <g id="text_24">
      <!-- 93 -->
      <g transform="translate(805.882365 328.076563) scale(0.1 -0.1)">
       <use xlink:href="#DejaVuSans-39"/>
       <use xlink:href="#DejaVuSans-33" transform="translate(63.623047 0)"/>
      </g>
     </g>
    </g>
    <g id="xtick_16">
     <g id="line2d_23">
      <g>
       <use xlink:href="#ma61ef8ee49" x="863.597031" y="313.478125" style="stroke: #000000; stroke-width: 0.8"/>
      </g>
     </g>
     <g id="text_25">
      <!-- 111 -->
      <g transform="translate(854.053281 328.076563) scale(0.1 -0.1)">
       <use xlink:href="#DejaVuSans-31"/>
       <use xlink:href="#DejaVuSans-31" transform="translate(63.623047 0)"/>
       <use xlink:href="#DejaVuSans-31" transform="translate(127.246094 0)"/>
      </g>
     </g>
    </g>
    <g id="xtick_17">
     <g id="line2d_24">
      <g>
       <use xlink:href="#ma61ef8ee49" x="917.802095" y="313.478125" style="stroke: #000000; stroke-width: 0.8"/>
      </g>
     </g>
     <g id="text_26">
      <!-- 130 -->
      <g transform="translate(908.258345 328.076563) scale(0.1 -0.1)">
       <use xlink:href="#DejaVuSans-31"/>
       <use xlink:href="#DejaVuSans-33" transform="translate(63.623047 0)"/>
       <use xlink:href="#DejaVuSans-30" transform="translate(127.246094 0)"/>
      </g>
     </g>
    </g>
    <g id="xtick_18">
     <g id="line2d_25">
      <g>
       <use xlink:href="#ma61ef8ee49" x="972.007159" y="313.478125" style="stroke: #000000; stroke-width: 0.8"/>
      </g>
     </g>
     <g id="text_27">
      <!-- 149 -->
      <g transform="translate(962.463409 328.076563) scale(0.1 -0.1)">
       <use xlink:href="#DejaVuSans-31"/>
       <use xlink:href="#DejaVuSans-34" transform="translate(63.623047 0)"/>
       <use xlink:href="#DejaVuSans-39" transform="translate(127.246094 0)"/>
      </g>
     </g>
    </g>
    <g id="text_28">
     <!-- Spatial bin -->
     <g transform="translate(732.930312 341.754687) scale(0.1 -0.1)">
      <use xlink:href="#DejaVuSans-53"/>
      <use xlink:href="#DejaVuSans-70" transform="translate(63.476562 0)"/>
      <use xlink:href="#DejaVuSans-61" transform="translate(126.953125 0)"/>
      <use xlink:href="#DejaVuSans-74" transform="translate(188.232422 0)"/>
      <use xlink:href="#DejaVuSans-69" transform="translate(227.441406 0)"/>
      <use xlink:href="#DejaVuSans-61" transform="translate(255.224609 0)"/>
      <use xlink:href="#DejaVuSans-6c" transform="translate(316.503906 0)"/>
      <use xlink:href="#DejaVuSans-20" transform="translate(344.287109 0)"/>
      <use xlink:href="#DejaVuSans-62" transform="translate(376.074219 0)"/>
      <use xlink:href="#DejaVuSans-69" transform="translate(439.550781 0)"/>
      <use xlink:href="#DejaVuSans-6e" transform="translate(467.333984 0)"/>
     </g>
    </g>
   </g>
   <g id="matplotlib.axis_4">
    <g id="ytick_7">
     <g id="line2d_26">
      <g>
       <use xlink:href="#m225ec78f45" x="525.67125" y="287.009034" style="stroke: #000000; stroke-width: 0.8"/>
      </g>
     </g>
    </g>
    <g id="ytick_8">
     <g id="line2d_27">
      <g>
       <use xlink:href="#m225ec78f45" x="525.67125" y="234.070852" style="stroke: #000000; stroke-width: 0.8"/>
      </g>
     </g>
    </g>
    <g id="ytick_9">
     <g id="line2d_28">
      <g>
       <use xlink:href="#m225ec78f45" x="525.67125" y="181.13267" style="stroke: #000000; stroke-width: 0.8"/>
      </g>
     </g>
    </g>
    <g id="ytick_10">
     <g id="line2d_29">
      <g>
       <use xlink:href="#m225ec78f45" x="525.67125" y="128.194489" style="stroke: #000000; stroke-width: 0.8"/>
      </g>
     </g>
    </g>
    <g id="ytick_11">
     <g id="line2d_30">
      <g>
       <use xlink:href="#m225ec78f45" x="525.67125" y="75.256307" style="stroke: #000000; stroke-width: 0.8"/>
      </g>
     </g>
    </g>
    <g id="ytick_12">
     <g id="line2d_31">
      <g>
       <use xlink:href="#m225ec78f45" x="525.67125" y="22.318125" style="stroke: #000000; stroke-width: 0.8"/>
      </g>
     </g>
    </g>
   </g>
   <g id="line2d_32">
    <path d="M 546.925341 284.440475 
L 549.778239 282.911939 
L 552.631137 282.658558 
L 555.484035 280.986829 
L 558.336933 278.836133 
L 561.189831 278.0712 
L 564.04273 277.855109 
L 566.895628 277.282608 
L 569.748526 277.126853 
L 578.30722 278.380432 
L 581.160118 278.515519 
L 586.865914 277.982965 
L 589.718813 275.187275 
L 592.571711 273.837115 
L 595.424609 273.358989 
L 598.277507 273.294184 
L 601.130405 274.38409 
L 603.983303 274.471001 
L 606.836201 274.031836 
L 609.689099 274.335565 
L 612.541997 274.415843 
L 618.247794 274.760737 
L 621.100692 275.319087 
L 623.95359 276.004374 
L 626.806488 275.925177 
L 629.659386 275.557996 
L 632.512284 274.795693 
L 635.365182 275.595556 
L 638.21808 277.393788 
L 641.070978 277.632488 
L 643.923877 276.086327 
L 646.776775 275.28184 
L 649.629673 275.613691 
L 652.482571 275.092131 
L 655.335469 275.131824 
L 658.188367 274.557486 
L 661.041265 275.233904 
L 663.894163 275.637612 
L 666.747061 274.526313 
L 669.59996 275.017806 
L 672.452858 275.838261 
L 675.305756 275.115831 
L 678.158654 273.415536 
L 681.011552 270.189296 
L 683.86445 268.220979 
L 686.717348 268.499025 
L 689.570246 267.046249 
L 692.423144 268.037768 
L 695.276043 269.306455 
L 698.128941 271.578467 
L 700.981839 274.003972 
L 703.834737 275.806456 
L 712.393431 276.214883 
L 715.246329 274.954792 
L 718.099227 274.846694 
L 720.952126 275.51043 
L 723.805024 274.403731 
L 726.657922 273.765789 
L 729.51082 274.755667 
L 735.216616 273.524356 
L 738.069514 273.621136 
L 740.922412 274.782847 
L 746.628209 275.70787 
L 749.481107 276.961451 
L 752.334005 273.552393 
L 755.186903 272.884163 
L 758.039801 273.876827 
L 760.892699 274.690892 
L 763.745597 273.326279 
L 766.598495 273.920532 
L 769.451393 273.556857 
L 775.15719 273.971697 
L 778.010088 274.15472 
L 780.862986 274.132704 
L 783.715884 273.516449 
L 786.568782 272.580745 
L 789.42168 272.812075 
L 792.274578 272.180219 
L 797.980374 269.774418 
L 800.833273 268.438096 
L 803.686171 268.737499 
L 806.539069 269.805579 
L 809.391967 271.159695 
L 812.244865 272.800681 
L 815.097763 273.890618 
L 817.950661 273.913853 
L 820.803559 272.197985 
L 823.656457 272.470673 
L 826.509356 271.957911 
L 829.362254 271.301374 
L 832.215152 270.826478 
L 835.06805 270.990873 
L 837.920948 271.009837 
L 840.773846 272.822843 
L 843.626744 269.562552 
L 846.479642 271.398719 
L 849.33254 270.999137 
L 852.185439 271.098148 
L 855.038337 270.419973 
L 857.891235 270.239071 
L 860.744133 270.37748 
L 866.449929 272.990384 
L 872.155725 273.726992 
L 875.008623 273.504889 
L 880.71442 272.085056 
L 883.567318 271.763214 
L 886.420216 272.005059 
L 889.273114 272.417339 
L 892.126012 273.175315 
L 894.97891 274.247273 
L 897.831808 274.960233 
L 900.684706 275.042275 
L 903.537604 274.224058 
L 906.390503 274.090038 
L 912.096299 271.617729 
L 914.949197 269.938921 
L 917.802095 268.674334 
L 920.654993 269.466191 
L 923.507891 269.967639 
L 926.360789 269.948025 
L 929.213687 269.261497 
L 932.066586 269.608914 
L 934.919484 271.35318 
L 937.772382 274.037751 
L 946.331076 278.271089 
L 949.183974 278.400497 
L 957.742669 276.895342 
L 960.595567 277.511148 
L 963.448465 278.550157 
L 966.301363 280.098729 
L 969.154261 279.694434 
L 972.007159 280.146839 
L 972.007159 280.146839 
" clip-path="url(#pcfd789b0ca)" style="fill: none; stroke: #ff0000; stroke-width: 3; stroke-linecap: square"/>
   </g>
   <g id="patch_8">
    <path d="M 525.67125 313.478125 
L 525.67125 22.318125 
" style="fill: none; stroke: #000000; stroke-width: 0.8; stroke-linejoin: miter; stroke-linecap: square"/>
   </g>
   <g id="patch_9">
    <path d="M 993.26125 313.478125 
L 993.26125 22.318125 
" style="fill: none; stroke: #000000; stroke-width: 0.8; stroke-linejoin: miter; stroke-linecap: square"/>
   </g>
   <g id="patch_10">
    <path d="M 525.67125 313.478125 
L 993.26125 313.478125 
" style="fill: none; stroke: #000000; stroke-width: 0.8; stroke-linejoin: miter; stroke-linecap: square"/>
   </g>
   <g id="patch_11">
    <path d="M 525.67125 22.318125 
L 993.26125 22.318125 
" style="fill: none; stroke: #000000; stroke-width: 0.8; stroke-linejoin: miter; stroke-linecap: square"/>
   </g>
   <g id="text_29">
    <!-- Corridor 50.5 -->
    <g transform="translate(719.897187 16.318125) scale(0.12 -0.12)">
     <use xlink:href="#DejaVuSans-43"/>
     <use xlink:href="#DejaVuSans-6f" transform="translate(69.824219 0)"/>
     <use xlink:href="#DejaVuSans-72" transform="translate(131.005859 0)"/>
     <use xlink:href="#DejaVuSans-72" transform="translate(170.369141 0)"/>
     <use xlink:href="#DejaVuSans-69" transform="translate(211.482422 0)"/>
     <use xlink:href="#DejaVuSans-64" transform="translate(239.265625 0)"/>
     <use xlink:href="#DejaVuSans-6f" transform="translate(302.742188 0)"/>
     <use xlink:href="#DejaVuSans-72" transform="translate(363.923828 0)"/>
     <use xlink:href="#DejaVuSans-20" transform="translate(405.037109 0)"/>
     <use xlink:href="#DejaVuSans-35" transform="translate(436.824219 0)"/>
     <use xlink:href="#DejaVuSans-30" transform="translate(500.447266 0)"/>
     <use xlink:href="#DejaVuSans-2e" transform="translate(564.070312 0)"/>
     <use xlink:href="#DejaVuSans-35" transform="translate(595.857422 0)"/>
    </g>
   </g>
  </g>
 </g>
 <defs>
  <clipPath id="p6adafcdcca">
   <rect x="43.78125" y="22.318125" width="467.59" height="291.16"/>
  </clipPath>
  <clipPath id="pcfd789b0ca">
   <rect x="525.67125" y="22.318125" width="467.59" height="291.16"/>
  </clipPath>
 </defs>
</svg>
