<?xml version="1.0" encoding="utf-8" standalone="no"?>
<!DOCTYPE svg PUBLIC "-//W3C//DTD SVG 1.1//EN"
  "http://www.w3.org/Graphics/SVG/1.1/DTD/svg11.dtd">
<svg xmlns:xlink="http://www.w3.org/1999/xlink" width="1000.46125pt" height="351.034375pt" viewBox="0 0 1000.46125 351.034375" xmlns="http://www.w3.org/2000/svg" version="1.1">
 <metadata>
  <rdf:RDF xmlns:dc="http://purl.org/dc/elements/1.1/" xmlns:cc="http://creativecommons.org/ns#" xmlns:rdf="http://www.w3.org/1999/02/22-rdf-syntax-ns#">
   <cc:Work>
    <dc:type rdf:resource="http://purl.org/dc/dcmitype/StillImage"/>
    <dc:date>2025-10-10T12:40:15.500799</dc:date>
    <dc:format>image/svg+xml</dc:format>
    <dc:creator>
     <cc:Agent>
      <dc:title>Matplotlib v3.10.0, https://matplotlib.org/</dc:title>
     </cc:Agent>
    </dc:creator>
   </cc:Work>
  </rdf:RDF>
 </metadata>
 <defs>
  <style type="text/css">*{stroke-linejoin: round; stroke-linecap: butt}</style>
 </defs>
 <g id="figure_1">
  <g id="patch_1">
   <path d="M 0 351.034375 
L 1000.46125 351.034375 
L 1000.46125 0 
L 0 0 
z
" style="fill: #ffffff"/>
  </g>
  <g id="axes_1">
   <g id="patch_2">
    <path d="M 43.78125 313.478125 
L 511.37125 313.478125 
L 511.37125 22.318125 
L 43.78125 22.318125 
z
" style="fill: #ffffff"/>
   </g>
   <g id="FillBetweenPolyCollection_1">
    <path d="M 65.035341 262.238639 
L 65.035341 286.106535 
L 67.888239 283.716082 
L 70.741137 282.343574 
L 73.594035 279.789075 
L 76.446933 279.0088 
L 79.299831 279.141938 
L 82.15273 278.207108 
L 85.005628 279.23316 
L 87.858526 279.78452 
L 90.711424 278.153973 
L 93.564322 278.197867 
L 96.41722 280.949829 
L 99.270118 281.273535 
L 102.123016 280.697675 
L 104.975914 280.095323 
L 107.828813 280.446048 
L 110.681711 281.827232 
L 113.534609 281.245956 
L 116.387507 284.301045 
L 119.240405 283.302335 
L 122.093303 282.402894 
L 124.946201 283.702648 
L 127.799099 282.470239 
L 130.651997 279.322156 
L 133.504896 278.814691 
L 136.357794 278.428059 
L 139.210692 278.641151 
L 142.06359 279.082449 
L 144.916488 278.235976 
L 147.769386 277.462068 
L 150.622284 277.543292 
L 153.475182 276.133008 
L 156.32808 273.477393 
L 159.180978 273.001602 
L 162.033877 272.366771 
L 164.886775 270.812796 
L 167.739673 269.812255 
L 170.592571 269.017644 
L 173.445469 268.299212 
L 176.298367 266.974556 
L 179.151265 266.109689 
L 182.004163 265.946094 
L 184.857061 267.405232 
L 187.70996 271.569958 
L 190.562858 273.834512 
L 193.415756 274.292966 
L 196.268654 273.252275 
L 199.121552 270.867936 
L 201.97445 268.662636 
L 204.827348 269.750924 
L 207.680246 271.419592 
L 210.533144 272.228918 
L 213.386043 272.64981 
L 216.238941 274.105831 
L 219.091839 273.904484 
L 221.944737 273.137023 
L 224.797635 273.841297 
L 227.650533 274.061295 
L 230.503431 273.903271 
L 233.356329 274.016061 
L 236.209227 273.892865 
L 239.062126 275.034168 
L 241.915024 273.960218 
L 244.767922 276.146273 
L 247.62082 277.723913 
L 250.473718 278.374135 
L 253.326616 279.535933 
L 256.179514 279.406427 
L 259.032412 278.177886 
L 261.88531 277.510637 
L 264.738209 276.684305 
L 267.591107 277.166058 
L 270.444005 278.697858 
L 273.296903 278.687015 
L 276.149801 279.636778 
L 279.002699 280.953314 
L 281.855597 282.195665 
L 284.708495 279.78204 
L 287.561393 278.597372 
L 290.414291 280.240757 
L 293.26719 283.350188 
L 296.120088 279.731303 
L 298.972986 278.072353 
L 301.825884 279.550587 
L 304.678782 281.234847 
L 307.53168 281.888493 
L 310.384578 283.220963 
L 313.237476 284.472574 
L 316.090374 284.914364 
L 318.943273 285.986064 
L 321.796171 284.678814 
L 324.649069 285.502705 
L 327.501967 285.682543 
L 330.354865 286.159357 
L 333.207763 284.298865 
L 336.060661 284.738823 
L 338.913559 284.623617 
L 341.766457 284.575122 
L 344.619356 281.915081 
L 347.472254 283.368069 
L 350.325152 285.799186 
L 353.17805 286.319047 
L 356.030948 286.29819 
L 358.883846 286.291362 
L 361.736744 286.350088 
L 364.589642 286.120352 
L 367.44254 284.709067 
L 370.295439 282.616088 
L 373.148337 282.154788 
L 376.001235 281.41319 
L 378.854133 283.904997 
L 381.707031 284.862413 
L 384.559929 285.499334 
L 387.412827 284.140674 
L 390.265725 278.968358 
L 393.118623 267.08559 
L 395.971522 254.968994 
L 398.82442 243.767074 
L 401.677318 230.032955 
L 404.530216 220.73387 
L 407.383114 217.020285 
L 410.236012 220.716959 
L 413.08891 226.972078 
L 415.941808 228.323274 
L 418.794706 239.324923 
L 421.647604 236.626437 
L 424.500503 246.735533 
L 427.353401 252.301081 
L 430.206299 259.298776 
L 433.059197 266.910635 
L 435.912095 264.038763 
L 438.764993 265.370907 
L 441.617891 259.416432 
L 444.470789 263.378893 
L 447.323687 265.770104 
L 450.176586 269.7419 
L 453.029484 271.487174 
L 455.882382 270.915999 
L 458.73528 271.180592 
L 461.588178 272.344377 
L 464.441076 274.592985 
L 467.293974 277.403674 
L 470.146872 279.910689 
L 472.99977 278.766907 
L 475.852669 278.18144 
L 478.705567 277.097466 
L 481.558465 275.604802 
L 484.411363 274.526337 
L 487.264261 275.698736 
L 490.117159 293.891603 
L 490.117159 260.33205 
L 490.117159 260.33205 
L 487.264261 250.102789 
L 484.411363 249.993256 
L 481.558465 249.118064 
L 478.705567 248.258506 
L 475.852669 247.723572 
L 472.99977 248.511683 
L 470.146872 250.503174 
L 467.293974 250.104588 
L 464.441076 250.565242 
L 461.588178 246.688364 
L 458.73528 243.792492 
L 455.882382 238.614853 
L 453.029484 234.470331 
L 450.176586 230.126612 
L 447.323687 226.578573 
L 444.470789 224.79632 
L 441.617891 221.623161 
L 438.764993 217.879842 
L 435.912095 213.522155 
L 433.059197 213.511233 
L 430.206299 203.156613 
L 427.353401 193.657505 
L 424.500503 188.746048 
L 421.647604 174.718327 
L 418.794706 170.22898 
L 415.941808 160.850899 
L 413.08891 162.65083 
L 410.236012 165.731895 
L 407.383114 164.884847 
L 404.530216 170.745927 
L 401.677318 180.353463 
L 398.82442 193.860766 
L 395.971522 216.240243 
L 393.118623 242.55416 
L 390.265725 258.217429 
L 387.412827 266.551838 
L 384.559929 269.669623 
L 381.707031 270.293573 
L 378.854133 270.086617 
L 376.001235 268.32907 
L 373.148337 268.754339 
L 370.295439 269.10025 
L 367.44254 271.025145 
L 364.589642 270.79893 
L 361.736744 270.44262 
L 358.883846 272.917518 
L 356.030948 273.615467 
L 353.17805 273.146608 
L 350.325152 272.485478 
L 347.472254 270.374851 
L 344.619356 269.106864 
L 341.766457 268.838412 
L 338.913559 268.457174 
L 336.060661 268.204023 
L 333.207763 267.037792 
L 330.354865 268.851145 
L 327.501967 269.311479 
L 324.649069 270.023594 
L 321.796171 270.081844 
L 318.943273 270.499115 
L 316.090374 269.92638 
L 313.237476 269.970061 
L 310.384578 268.529684 
L 307.53168 267.080806 
L 304.678782 267.153108 
L 301.825884 266.972552 
L 298.972986 266.673839 
L 296.120088 266.967 
L 293.26719 269.375803 
L 290.414291 266.402844 
L 287.561393 265.52413 
L 284.708495 265.997221 
L 281.855597 267.427652 
L 279.002699 266.786703 
L 276.149801 265.36227 
L 273.296903 264.836391 
L 270.444005 265.761072 
L 267.591107 262.893197 
L 264.738209 260.707244 
L 261.88531 260.556781 
L 259.032412 262.824848 
L 256.179514 263.81973 
L 253.326616 264.949398 
L 250.473718 264.85855 
L 247.62082 265.177358 
L 244.767922 265.91323 
L 241.915024 262.351349 
L 239.062126 260.783121 
L 236.209227 259.173383 
L 233.356329 258.910748 
L 230.503431 259.158973 
L 227.650533 259.352434 
L 224.797635 260.635933 
L 221.944737 262.197574 
L 219.091839 262.52366 
L 216.238941 261.095289 
L 213.386043 259.643871 
L 210.533144 258.996579 
L 207.680246 258.155286 
L 204.827348 257.109207 
L 201.97445 255.498838 
L 199.121552 257.640398 
L 196.268654 260.586006 
L 193.415756 260.816142 
L 190.562858 260.881646 
L 187.70996 260.344304 
L 184.857061 257.894241 
L 182.004163 255.770004 
L 179.151265 254.056166 
L 176.298367 253.413988 
L 173.445469 253.936494 
L 170.592571 255.104424 
L 167.739673 257.140198 
L 164.886775 259.260711 
L 162.033877 260.710692 
L 159.180978 261.408668 
L 156.32808 262.282448 
L 153.475182 265.032075 
L 150.622284 266.943052 
L 147.769386 267.850851 
L 144.916488 267.208812 
L 142.06359 268.210134 
L 139.210692 267.811794 
L 136.357794 267.973648 
L 133.504896 267.753522 
L 130.651997 268.328084 
L 127.799099 270.442961 
L 124.946201 270.581812 
L 122.093303 268.970404 
L 119.240405 267.918834 
L 116.387507 266.307413 
L 113.534609 263.018829 
L 110.681711 262.540307 
L 107.828813 264.792772 
L 104.975914 264.411958 
L 102.123016 263.195786 
L 99.270118 262.163804 
L 96.41722 261.683501 
L 93.564322 260.306765 
L 90.711424 259.968813 
L 87.858526 260.069123 
L 85.005628 259.607682 
L 82.15273 259.049397 
L 79.299831 260.123098 
L 76.446933 260.046349 
L 73.594035 260.641044 
L 70.741137 261.710094 
L 67.888239 260.865344 
L 65.035341 262.238639 
z
" clip-path="url(#pe6b2b9eb1b)" style="fill: #1f77b4; fill-opacity: 0.3"/>
   </g>
   <g id="matplotlib.axis_1">
    <g id="xtick_1">
     <g id="line2d_1">
      <defs>
       <path id="mddf887ed97" d="M 0 0 
L 0 3.5 
" style="stroke: #000000; stroke-width: 0.8"/>
      </defs>
      <g>
       <use xlink:href="#mddf887ed97" x="65.035341" y="313.478125" style="stroke: #000000; stroke-width: 0.8"/>
      </g>
     </g>
     <g id="text_1">
      <!-- 0 -->
      <g transform="translate(61.854091 328.076563) scale(0.1 -0.1)">
       <defs>
        <path id="DejaVuSans-30" d="M 2034 4250 
Q 1547 4250 1301 3770 
Q 1056 3291 1056 2328 
Q 1056 1369 1301 889 
Q 1547 409 2034 409 
Q 2525 409 2770 889 
Q 3016 1369 3016 2328 
Q 3016 3291 2770 3770 
Q 2525 4250 2034 4250 
z
M 2034 4750 
Q 2819 4750 3233 4129 
Q 3647 3509 3647 2328 
Q 3647 1150 3233 529 
Q 2819 -91 2034 -91 
Q 1250 -91 836 529 
Q 422 1150 422 2328 
Q 422 3509 836 4129 
Q 1250 4750 2034 4750 
z
" transform="scale(0.015625)"/>
       </defs>
       <use xlink:href="#DejaVuSans-30"/>
      </g>
     </g>
    </g>
    <g id="xtick_2">
     <g id="line2d_2">
      <g>
       <use xlink:href="#mddf887ed97" x="116.387507" y="313.478125" style="stroke: #000000; stroke-width: 0.8"/>
      </g>
     </g>
     <g id="text_2">
      <!-- 18 -->
      <g transform="translate(110.025007 328.076563) scale(0.1 -0.1)">
       <defs>
        <path id="DejaVuSans-31" d="M 794 531 
L 1825 531 
L 1825 4091 
L 703 3866 
L 703 4441 
L 1819 4666 
L 2450 4666 
L 2450 531 
L 3481 531 
L 3481 0 
L 794 0 
L 794 531 
z
" transform="scale(0.015625)"/>
        <path id="DejaVuSans-38" d="M 2034 2216 
Q 1584 2216 1326 1975 
Q 1069 1734 1069 1313 
Q 1069 891 1326 650 
Q 1584 409 2034 409 
Q 2484 409 2743 651 
Q 3003 894 3003 1313 
Q 3003 1734 2745 1975 
Q 2488 2216 2034 2216 
z
M 1403 2484 
Q 997 2584 770 2862 
Q 544 3141 544 3541 
Q 544 4100 942 4425 
Q 1341 4750 2034 4750 
Q 2731 4750 3128 4425 
Q 3525 4100 3525 3541 
Q 3525 3141 3298 2862 
Q 3072 2584 2669 2484 
Q 3125 2378 3379 2068 
Q 3634 1759 3634 1313 
Q 3634 634 3220 271 
Q 2806 -91 2034 -91 
Q 1263 -91 848 271 
Q 434 634 434 1313 
Q 434 1759 690 2068 
Q 947 2378 1403 2484 
z
M 1172 3481 
Q 1172 3119 1398 2916 
Q 1625 2713 2034 2713 
Q 2441 2713 2670 2916 
Q 2900 3119 2900 3481 
Q 2900 3844 2670 4047 
Q 2441 4250 2034 4250 
Q 1625 4250 1398 4047 
Q 1172 3844 1172 3481 
z
" transform="scale(0.015625)"/>
       </defs>
       <use xlink:href="#DejaVuSans-31"/>
       <use xlink:href="#DejaVuSans-38" transform="translate(63.623047 0)"/>
      </g>
     </g>
    </g>
    <g id="xtick_3">
     <g id="line2d_3">
      <g>
       <use xlink:href="#mddf887ed97" x="170.592571" y="313.478125" style="stroke: #000000; stroke-width: 0.8"/>
      </g>
     </g>
     <g id="text_3">
      <!-- 37 -->
      <g transform="translate(164.230071 328.076563) scale(0.1 -0.1)">
       <defs>
        <path id="DejaVuSans-33" d="M 2597 2516 
Q 3050 2419 3304 2112 
Q 3559 1806 3559 1356 
Q 3559 666 3084 287 
Q 2609 -91 1734 -91 
Q 1441 -91 1130 -33 
Q 819 25 488 141 
L 488 750 
Q 750 597 1062 519 
Q 1375 441 1716 441 
Q 2309 441 2620 675 
Q 2931 909 2931 1356 
Q 2931 1769 2642 2001 
Q 2353 2234 1838 2234 
L 1294 2234 
L 1294 2753 
L 1863 2753 
Q 2328 2753 2575 2939 
Q 2822 3125 2822 3475 
Q 2822 3834 2567 4026 
Q 2313 4219 1838 4219 
Q 1578 4219 1281 4162 
Q 984 4106 628 3988 
L 628 4550 
Q 988 4650 1302 4700 
Q 1616 4750 1894 4750 
Q 2613 4750 3031 4423 
Q 3450 4097 3450 3541 
Q 3450 3153 3228 2886 
Q 3006 2619 2597 2516 
z
" transform="scale(0.015625)"/>
        <path id="DejaVuSans-37" d="M 525 4666 
L 3525 4666 
L 3525 4397 
L 1831 0 
L 1172 0 
L 2766 4134 
L 525 4134 
L 525 4666 
z
" transform="scale(0.015625)"/>
       </defs>
       <use xlink:href="#DejaVuSans-33"/>
       <use xlink:href="#DejaVuSans-37" transform="translate(63.623047 0)"/>
      </g>
     </g>
    </g>
    <g id="xtick_4">
     <g id="line2d_4">
      <g>
       <use xlink:href="#mddf887ed97" x="221.944737" y="313.478125" style="stroke: #000000; stroke-width: 0.8"/>
      </g>
     </g>
     <g id="text_4">
      <!-- 55 -->
      <g transform="translate(215.582237 328.076563) scale(0.1 -0.1)">
       <defs>
        <path id="DejaVuSans-35" d="M 691 4666 
L 3169 4666 
L 3169 4134 
L 1269 4134 
L 1269 2991 
Q 1406 3038 1543 3061 
Q 1681 3084 1819 3084 
Q 2600 3084 3056 2656 
Q 3513 2228 3513 1497 
Q 3513 744 3044 326 
Q 2575 -91 1722 -91 
Q 1428 -91 1123 -41 
Q 819 9 494 109 
L 494 744 
Q 775 591 1075 516 
Q 1375 441 1709 441 
Q 2250 441 2565 725 
Q 2881 1009 2881 1497 
Q 2881 1984 2565 2268 
Q 2250 2553 1709 2553 
Q 1456 2553 1204 2497 
Q 953 2441 691 2322 
L 691 4666 
z
" transform="scale(0.015625)"/>
       </defs>
       <use xlink:href="#DejaVuSans-35"/>
       <use xlink:href="#DejaVuSans-35" transform="translate(63.623047 0)"/>
      </g>
     </g>
    </g>
    <g id="xtick_5">
     <g id="line2d_5">
      <g>
       <use xlink:href="#mddf887ed97" x="276.149801" y="313.478125" style="stroke: #000000; stroke-width: 0.8"/>
      </g>
     </g>
     <g id="text_5">
      <!-- 74 -->
      <g transform="translate(269.787301 328.076563) scale(0.1 -0.1)">
       <defs>
        <path id="DejaVuSans-34" d="M 2419 4116 
L 825 1625 
L 2419 1625 
L 2419 4116 
z
M 2253 4666 
L 3047 4666 
L 3047 1625 
L 3713 1625 
L 3713 1100 
L 3047 1100 
L 3047 0 
L 2419 0 
L 2419 1100 
L 313 1100 
L 313 1709 
L 2253 4666 
z
" transform="scale(0.015625)"/>
       </defs>
       <use xlink:href="#DejaVuSans-37"/>
       <use xlink:href="#DejaVuSans-34" transform="translate(63.623047 0)"/>
      </g>
     </g>
    </g>
    <g id="xtick_6">
     <g id="line2d_6">
      <g>
       <use xlink:href="#mddf887ed97" x="330.354865" y="313.478125" style="stroke: #000000; stroke-width: 0.8"/>
      </g>
     </g>
     <g id="text_6">
      <!-- 93 -->
      <g transform="translate(323.992365 328.076563) scale(0.1 -0.1)">
       <defs>
        <path id="DejaVuSans-39" d="M 703 97 
L 703 672 
Q 941 559 1184 500 
Q 1428 441 1663 441 
Q 2288 441 2617 861 
Q 2947 1281 2994 2138 
Q 2813 1869 2534 1725 
Q 2256 1581 1919 1581 
Q 1219 1581 811 2004 
Q 403 2428 403 3163 
Q 403 3881 828 4315 
Q 1253 4750 1959 4750 
Q 2769 4750 3195 4129 
Q 3622 3509 3622 2328 
Q 3622 1225 3098 567 
Q 2575 -91 1691 -91 
Q 1453 -91 1209 -44 
Q 966 3 703 97 
z
M 1959 2075 
Q 2384 2075 2632 2365 
Q 2881 2656 2881 3163 
Q 2881 3666 2632 3958 
Q 2384 4250 1959 4250 
Q 1534 4250 1286 3958 
Q 1038 3666 1038 3163 
Q 1038 2656 1286 2365 
Q 1534 2075 1959 2075 
z
" transform="scale(0.015625)"/>
       </defs>
       <use xlink:href="#DejaVuSans-39"/>
       <use xlink:href="#DejaVuSans-33" transform="translate(63.623047 0)"/>
      </g>
     </g>
    </g>
    <g id="xtick_7">
     <g id="line2d_7">
      <g>
       <use xlink:href="#mddf887ed97" x="381.707031" y="313.478125" style="stroke: #000000; stroke-width: 0.8"/>
      </g>
     </g>
     <g id="text_7">
      <!-- 111 -->
      <g transform="translate(372.163281 328.076563) scale(0.1 -0.1)">
       <use xlink:href="#DejaVuSans-31"/>
       <use xlink:href="#DejaVuSans-31" transform="translate(63.623047 0)"/>
       <use xlink:href="#DejaVuSans-31" transform="translate(127.246094 0)"/>
      </g>
     </g>
    </g>
    <g id="xtick_8">
     <g id="line2d_8">
      <g>
       <use xlink:href="#mddf887ed97" x="435.912095" y="313.478125" style="stroke: #000000; stroke-width: 0.8"/>
      </g>
     </g>
     <g id="text_8">
      <!-- 130 -->
      <g transform="translate(426.368345 328.076563) scale(0.1 -0.1)">
       <use xlink:href="#DejaVuSans-31"/>
       <use xlink:href="#DejaVuSans-33" transform="translate(63.623047 0)"/>
       <use xlink:href="#DejaVuSans-30" transform="translate(127.246094 0)"/>
      </g>
     </g>
    </g>
    <g id="xtick_9">
     <g id="line2d_9">
      <g>
       <use xlink:href="#mddf887ed97" x="490.117159" y="313.478125" style="stroke: #000000; stroke-width: 0.8"/>
      </g>
     </g>
     <g id="text_9">
      <!-- 149 -->
      <g transform="translate(480.573409 328.076563) scale(0.1 -0.1)">
       <use xlink:href="#DejaVuSans-31"/>
       <use xlink:href="#DejaVuSans-34" transform="translate(63.623047 0)"/>
       <use xlink:href="#DejaVuSans-39" transform="translate(127.246094 0)"/>
      </g>
     </g>
    </g>
    <g id="text_10">
     <!-- Spatial bin -->
     <g transform="translate(251.040313 341.754687) scale(0.1 -0.1)">
      <defs>
       <path id="DejaVuSans-53" d="M 3425 4513 
L 3425 3897 
Q 3066 4069 2747 4153 
Q 2428 4238 2131 4238 
Q 1616 4238 1336 4038 
Q 1056 3838 1056 3469 
Q 1056 3159 1242 3001 
Q 1428 2844 1947 2747 
L 2328 2669 
Q 3034 2534 3370 2195 
Q 3706 1856 3706 1288 
Q 3706 609 3251 259 
Q 2797 -91 1919 -91 
Q 1588 -91 1214 -16 
Q 841 59 441 206 
L 441 856 
Q 825 641 1194 531 
Q 1563 422 1919 422 
Q 2459 422 2753 634 
Q 3047 847 3047 1241 
Q 3047 1584 2836 1778 
Q 2625 1972 2144 2069 
L 1759 2144 
Q 1053 2284 737 2584 
Q 422 2884 422 3419 
Q 422 4038 858 4394 
Q 1294 4750 2059 4750 
Q 2388 4750 2728 4690 
Q 3069 4631 3425 4513 
z
" transform="scale(0.015625)"/>
       <path id="DejaVuSans-70" d="M 1159 525 
L 1159 -1331 
L 581 -1331 
L 581 3500 
L 1159 3500 
L 1159 2969 
Q 1341 3281 1617 3432 
Q 1894 3584 2278 3584 
Q 2916 3584 3314 3078 
Q 3713 2572 3713 1747 
Q 3713 922 3314 415 
Q 2916 -91 2278 -91 
Q 1894 -91 1617 61 
Q 1341 213 1159 525 
z
M 3116 1747 
Q 3116 2381 2855 2742 
Q 2594 3103 2138 3103 
Q 1681 3103 1420 2742 
Q 1159 2381 1159 1747 
Q 1159 1113 1420 752 
Q 1681 391 2138 391 
Q 2594 391 2855 752 
Q 3116 1113 3116 1747 
z
" transform="scale(0.015625)"/>
       <path id="DejaVuSans-61" d="M 2194 1759 
Q 1497 1759 1228 1600 
Q 959 1441 959 1056 
Q 959 750 1161 570 
Q 1363 391 1709 391 
Q 2188 391 2477 730 
Q 2766 1069 2766 1631 
L 2766 1759 
L 2194 1759 
z
M 3341 1997 
L 3341 0 
L 2766 0 
L 2766 531 
Q 2569 213 2275 61 
Q 1981 -91 1556 -91 
Q 1019 -91 701 211 
Q 384 513 384 1019 
Q 384 1609 779 1909 
Q 1175 2209 1959 2209 
L 2766 2209 
L 2766 2266 
Q 2766 2663 2505 2880 
Q 2244 3097 1772 3097 
Q 1472 3097 1187 3025 
Q 903 2953 641 2809 
L 641 3341 
Q 956 3463 1253 3523 
Q 1550 3584 1831 3584 
Q 2591 3584 2966 3190 
Q 3341 2797 3341 1997 
z
" transform="scale(0.015625)"/>
       <path id="DejaVuSans-74" d="M 1172 4494 
L 1172 3500 
L 2356 3500 
L 2356 3053 
L 1172 3053 
L 1172 1153 
Q 1172 725 1289 603 
Q 1406 481 1766 481 
L 2356 481 
L 2356 0 
L 1766 0 
Q 1100 0 847 248 
Q 594 497 594 1153 
L 594 3053 
L 172 3053 
L 172 3500 
L 594 3500 
L 594 4494 
L 1172 4494 
z
" transform="scale(0.015625)"/>
       <path id="DejaVuSans-69" d="M 603 3500 
L 1178 3500 
L 1178 0 
L 603 0 
L 603 3500 
z
M 603 4863 
L 1178 4863 
L 1178 4134 
L 603 4134 
L 603 4863 
z
" transform="scale(0.015625)"/>
       <path id="DejaVuSans-6c" d="M 603 4863 
L 1178 4863 
L 1178 0 
L 603 0 
L 603 4863 
z
" transform="scale(0.015625)"/>
       <path id="DejaVuSans-20" transform="scale(0.015625)"/>
       <path id="DejaVuSans-62" d="M 3116 1747 
Q 3116 2381 2855 2742 
Q 2594 3103 2138 3103 
Q 1681 3103 1420 2742 
Q 1159 2381 1159 1747 
Q 1159 1113 1420 752 
Q 1681 391 2138 391 
Q 2594 391 2855 752 
Q 3116 1113 3116 1747 
z
M 1159 2969 
Q 1341 3281 1617 3432 
Q 1894 3584 2278 3584 
Q 2916 3584 3314 3078 
Q 3713 2572 3713 1747 
Q 3713 922 3314 415 
Q 2916 -91 2278 -91 
Q 1894 -91 1617 61 
Q 1341 213 1159 525 
L 1159 0 
L 581 0 
L 581 4863 
L 1159 4863 
L 1159 2969 
z
" transform="scale(0.015625)"/>
       <path id="DejaVuSans-6e" d="M 3513 2113 
L 3513 0 
L 2938 0 
L 2938 2094 
Q 2938 2591 2744 2837 
Q 2550 3084 2163 3084 
Q 1697 3084 1428 2787 
Q 1159 2491 1159 1978 
L 1159 0 
L 581 0 
L 581 3500 
L 1159 3500 
L 1159 2956 
Q 1366 3272 1645 3428 
Q 1925 3584 2291 3584 
Q 2894 3584 3203 3211 
Q 3513 2838 3513 2113 
z
" transform="scale(0.015625)"/>
      </defs>
      <use xlink:href="#DejaVuSans-53"/>
      <use xlink:href="#DejaVuSans-70" transform="translate(63.476562 0)"/>
      <use xlink:href="#DejaVuSans-61" transform="translate(126.953125 0)"/>
      <use xlink:href="#DejaVuSans-74" transform="translate(188.232422 0)"/>
      <use xlink:href="#DejaVuSans-69" transform="translate(227.441406 0)"/>
      <use xlink:href="#DejaVuSans-61" transform="translate(255.224609 0)"/>
      <use xlink:href="#DejaVuSans-6c" transform="translate(316.503906 0)"/>
      <use xlink:href="#DejaVuSans-20" transform="translate(344.287109 0)"/>
      <use xlink:href="#DejaVuSans-62" transform="translate(376.074219 0)"/>
      <use xlink:href="#DejaVuSans-69" transform="translate(439.550781 0)"/>
      <use xlink:href="#DejaVuSans-6e" transform="translate(467.333984 0)"/>
     </g>
    </g>
   </g>
   <g id="matplotlib.axis_2">
    <g id="ytick_1">
     <g id="line2d_10">
      <defs>
       <path id="m2bbca30bca" d="M 0 0 
L -3.5 0 
" style="stroke: #000000; stroke-width: 0.8"/>
      </defs>
      <g>
       <use xlink:href="#m2bbca30bca" x="43.78125" y="287.009034" style="stroke: #000000; stroke-width: 0.8"/>
      </g>
     </g>
     <g id="text_11">
      <!-- 0.0 -->
      <g transform="translate(20.878125 290.808253) scale(0.1 -0.1)">
       <defs>
        <path id="DejaVuSans-2e" d="M 684 794 
L 1344 794 
L 1344 0 
L 684 0 
L 684 794 
z
" transform="scale(0.015625)"/>
       </defs>
       <use xlink:href="#DejaVuSans-30"/>
       <use xlink:href="#DejaVuSans-2e" transform="translate(63.623047 0)"/>
       <use xlink:href="#DejaVuSans-30" transform="translate(95.410156 0)"/>
      </g>
     </g>
    </g>
    <g id="ytick_2">
     <g id="line2d_11">
      <g>
       <use xlink:href="#m2bbca30bca" x="43.78125" y="234.070852" style="stroke: #000000; stroke-width: 0.8"/>
      </g>
     </g>
     <g id="text_12">
      <!-- 0.2 -->
      <g transform="translate(20.878125 237.870071) scale(0.1 -0.1)">
       <defs>
        <path id="DejaVuSans-32" d="M 1228 531 
L 3431 531 
L 3431 0 
L 469 0 
L 469 531 
Q 828 903 1448 1529 
Q 2069 2156 2228 2338 
Q 2531 2678 2651 2914 
Q 2772 3150 2772 3378 
Q 2772 3750 2511 3984 
Q 2250 4219 1831 4219 
Q 1534 4219 1204 4116 
Q 875 4013 500 3803 
L 500 4441 
Q 881 4594 1212 4672 
Q 1544 4750 1819 4750 
Q 2544 4750 2975 4387 
Q 3406 4025 3406 3419 
Q 3406 3131 3298 2873 
Q 3191 2616 2906 2266 
Q 2828 2175 2409 1742 
Q 1991 1309 1228 531 
z
" transform="scale(0.015625)"/>
       </defs>
       <use xlink:href="#DejaVuSans-30"/>
       <use xlink:href="#DejaVuSans-2e" transform="translate(63.623047 0)"/>
       <use xlink:href="#DejaVuSans-32" transform="translate(95.410156 0)"/>
      </g>
     </g>
    </g>
    <g id="ytick_3">
     <g id="line2d_12">
      <g>
       <use xlink:href="#m2bbca30bca" x="43.78125" y="181.13267" style="stroke: #000000; stroke-width: 0.8"/>
      </g>
     </g>
     <g id="text_13">
      <!-- 0.4 -->
      <g transform="translate(20.878125 184.931889) scale(0.1 -0.1)">
       <use xlink:href="#DejaVuSans-30"/>
       <use xlink:href="#DejaVuSans-2e" transform="translate(63.623047 0)"/>
       <use xlink:href="#DejaVuSans-34" transform="translate(95.410156 0)"/>
      </g>
     </g>
    </g>
    <g id="ytick_4">
     <g id="line2d_13">
      <g>
       <use xlink:href="#m2bbca30bca" x="43.78125" y="128.194489" style="stroke: #000000; stroke-width: 0.8"/>
      </g>
     </g>
     <g id="text_14">
      <!-- 0.6 -->
      <g transform="translate(20.878125 131.993707) scale(0.1 -0.1)">
       <defs>
        <path id="DejaVuSans-36" d="M 2113 2584 
Q 1688 2584 1439 2293 
Q 1191 2003 1191 1497 
Q 1191 994 1439 701 
Q 1688 409 2113 409 
Q 2538 409 2786 701 
Q 3034 994 3034 1497 
Q 3034 2003 2786 2293 
Q 2538 2584 2113 2584 
z
M 3366 4563 
L 3366 3988 
Q 3128 4100 2886 4159 
Q 2644 4219 2406 4219 
Q 1781 4219 1451 3797 
Q 1122 3375 1075 2522 
Q 1259 2794 1537 2939 
Q 1816 3084 2150 3084 
Q 2853 3084 3261 2657 
Q 3669 2231 3669 1497 
Q 3669 778 3244 343 
Q 2819 -91 2113 -91 
Q 1303 -91 875 529 
Q 447 1150 447 2328 
Q 447 3434 972 4092 
Q 1497 4750 2381 4750 
Q 2619 4750 2861 4703 
Q 3103 4656 3366 4563 
z
" transform="scale(0.015625)"/>
       </defs>
       <use xlink:href="#DejaVuSans-30"/>
       <use xlink:href="#DejaVuSans-2e" transform="translate(63.623047 0)"/>
       <use xlink:href="#DejaVuSans-36" transform="translate(95.410156 0)"/>
      </g>
     </g>
    </g>
    <g id="ytick_5">
     <g id="line2d_14">
      <g>
       <use xlink:href="#m2bbca30bca" x="43.78125" y="75.256307" style="stroke: #000000; stroke-width: 0.8"/>
      </g>
     </g>
     <g id="text_15">
      <!-- 0.8 -->
      <g transform="translate(20.878125 79.055526) scale(0.1 -0.1)">
       <use xlink:href="#DejaVuSans-30"/>
       <use xlink:href="#DejaVuSans-2e" transform="translate(63.623047 0)"/>
       <use xlink:href="#DejaVuSans-38" transform="translate(95.410156 0)"/>
      </g>
     </g>
    </g>
    <g id="ytick_6">
     <g id="line2d_15">
      <g>
       <use xlink:href="#m2bbca30bca" x="43.78125" y="22.318125" style="stroke: #000000; stroke-width: 0.8"/>
      </g>
     </g>
     <g id="text_16">
      <!-- 1.0 -->
      <g transform="translate(20.878125 26.117344) scale(0.1 -0.1)">
       <use xlink:href="#DejaVuSans-31"/>
       <use xlink:href="#DejaVuSans-2e" transform="translate(63.623047 0)"/>
       <use xlink:href="#DejaVuSans-30" transform="translate(95.410156 0)"/>
      </g>
     </g>
    </g>
    <g id="text_17">
     <!-- dF/F -->
     <g transform="translate(14.798438 178.508281) rotate(-90) scale(0.1 -0.1)">
      <defs>
       <path id="DejaVuSans-64" d="M 2906 2969 
L 2906 4863 
L 3481 4863 
L 3481 0 
L 2906 0 
L 2906 525 
Q 2725 213 2448 61 
Q 2172 -91 1784 -91 
Q 1150 -91 751 415 
Q 353 922 353 1747 
Q 353 2572 751 3078 
Q 1150 3584 1784 3584 
Q 2172 3584 2448 3432 
Q 2725 3281 2906 2969 
z
M 947 1747 
Q 947 1113 1208 752 
Q 1469 391 1925 391 
Q 2381 391 2643 752 
Q 2906 1113 2906 1747 
Q 2906 2381 2643 2742 
Q 2381 3103 1925 3103 
Q 1469 3103 1208 2742 
Q 947 2381 947 1747 
z
" transform="scale(0.015625)"/>
       <path id="DejaVuSans-46" d="M 628 4666 
L 3309 4666 
L 3309 4134 
L 1259 4134 
L 1259 2759 
L 3109 2759 
L 3109 2228 
L 1259 2228 
L 1259 0 
L 628 0 
L 628 4666 
z
" transform="scale(0.015625)"/>
       <path id="DejaVuSans-2f" d="M 1625 4666 
L 2156 4666 
L 531 -594 
L 0 -594 
L 1625 4666 
z
" transform="scale(0.015625)"/>
      </defs>
      <use xlink:href="#DejaVuSans-64"/>
      <use xlink:href="#DejaVuSans-46" transform="translate(63.476562 0)"/>
      <use xlink:href="#DejaVuSans-2f" transform="translate(120.996094 0)"/>
      <use xlink:href="#DejaVuSans-46" transform="translate(154.6875 0)"/>
     </g>
    </g>
   </g>
   <g id="line2d_16">
    <path d="M 65.035341 274.172587 
L 67.888239 272.290713 
L 70.741137 272.026834 
L 73.594035 270.21506 
L 76.446933 269.527575 
L 79.299831 269.632518 
L 82.15273 268.628253 
L 85.005628 269.420421 
L 87.858526 269.926822 
L 90.711424 269.061393 
L 93.564322 269.252316 
L 96.41722 271.316665 
L 99.270118 271.718669 
L 104.975914 272.253641 
L 107.828813 272.61941 
L 110.681711 272.183769 
L 113.534609 272.132392 
L 116.387507 275.304229 
L 119.240405 275.610584 
L 122.093303 275.686649 
L 124.946201 277.14223 
L 127.799099 276.4566 
L 130.651997 273.82512 
L 133.504896 273.284106 
L 139.210692 273.226472 
L 142.06359 273.646291 
L 144.916488 272.722394 
L 147.769386 272.65646 
L 150.622284 272.243172 
L 153.475182 270.582541 
L 156.32808 267.87992 
L 162.033877 266.538732 
L 170.592571 262.061034 
L 176.298367 260.194272 
L 179.151265 260.082927 
L 182.004163 260.858049 
L 184.857061 262.649737 
L 187.70996 265.957131 
L 190.562858 267.358079 
L 193.415756 267.554554 
L 196.268654 266.919141 
L 199.121552 264.254167 
L 201.97445 262.080737 
L 207.680246 264.787439 
L 210.533144 265.612748 
L 213.386043 266.14684 
L 216.238941 267.60056 
L 219.091839 268.214072 
L 221.944737 267.667299 
L 227.650533 266.706865 
L 233.356329 266.463404 
L 236.209227 266.533124 
L 239.062126 267.908645 
L 241.915024 268.155783 
L 244.767922 271.029752 
L 247.62082 271.450635 
L 250.473718 271.616342 
L 253.326616 272.242665 
L 256.179514 271.613078 
L 259.032412 270.501367 
L 261.88531 269.033709 
L 264.738209 268.695775 
L 267.591107 270.029627 
L 270.444005 272.229465 
L 273.296903 271.761703 
L 276.149801 272.499524 
L 279.002699 273.870008 
L 281.855597 274.811658 
L 284.708495 272.88963 
L 287.561393 272.060751 
L 290.414291 273.3218 
L 293.26719 276.362996 
L 296.120088 273.349152 
L 298.972986 272.373096 
L 304.678782 274.193978 
L 307.53168 274.484649 
L 313.237476 277.221318 
L 316.090374 277.420372 
L 318.943273 278.24259 
L 321.796171 277.380329 
L 324.649069 277.76315 
L 327.501967 277.497011 
L 330.354865 277.505251 
L 333.207763 275.668328 
L 336.060661 276.471423 
L 341.766457 276.706767 
L 344.619356 275.510972 
L 347.472254 276.87146 
L 350.325152 279.142332 
L 353.17805 279.732827 
L 356.030948 279.956828 
L 358.883846 279.60444 
L 361.736744 278.396354 
L 364.589642 278.459641 
L 367.44254 277.867106 
L 370.295439 275.858169 
L 373.148337 275.454564 
L 376.001235 274.87113 
L 378.854133 276.995807 
L 381.707031 277.577993 
L 384.559929 277.584478 
L 387.412827 275.346256 
L 390.265725 268.592893 
L 393.118623 254.819875 
L 395.971522 235.604618 
L 398.82442 218.81392 
L 401.677318 205.193209 
L 404.530216 195.739898 
L 407.383114 190.952566 
L 410.236012 193.224427 
L 413.08891 194.811454 
L 415.941808 194.587087 
L 418.794706 204.776951 
L 421.647604 205.672382 
L 424.500503 217.740791 
L 427.353401 222.979293 
L 430.206299 231.227694 
L 433.059197 240.210934 
L 435.912095 238.780459 
L 438.764993 241.625374 
L 441.617891 240.519796 
L 444.470789 244.087606 
L 447.323687 246.174338 
L 450.176586 249.934256 
L 453.029484 252.978753 
L 455.882382 254.765426 
L 458.73528 257.486542 
L 461.588178 259.51637 
L 464.441076 262.579114 
L 467.293974 263.754131 
L 470.146872 265.206932 
L 472.99977 263.639295 
L 475.852669 262.952506 
L 481.558465 262.361433 
L 484.411363 262.259796 
L 487.264261 262.900762 
L 490.117159 277.111827 
L 490.117159 277.111827 
" clip-path="url(#pe6b2b9eb1b)" style="fill: none; stroke: #ff0000; stroke-width: 3; stroke-linecap: square"/>
   </g>
   <g id="patch_3">
    <path d="M 43.78125 313.478125 
L 43.78125 22.318125 
" style="fill: none; stroke: #000000; stroke-width: 0.8; stroke-linejoin: miter; stroke-linecap: square"/>
   </g>
   <g id="patch_4">
    <path d="M 511.37125 313.478125 
L 511.37125 22.318125 
" style="fill: none; stroke: #000000; stroke-width: 0.8; stroke-linejoin: miter; stroke-linecap: square"/>
   </g>
   <g id="patch_5">
    <path d="M 43.78125 313.478125 
L 511.37125 313.478125 
" style="fill: none; stroke: #000000; stroke-width: 0.8; stroke-linejoin: miter; stroke-linecap: square"/>
   </g>
   <g id="patch_6">
    <path d="M 43.78125 22.318125 
L 511.37125 22.318125 
" style="fill: none; stroke: #000000; stroke-width: 0.8; stroke-linejoin: miter; stroke-linecap: square"/>
   </g>
   <g id="text_18">
    <!-- Corridor -0.0 -->
    <g transform="translate(239.66 16.318125) scale(0.12 -0.12)">
     <defs>
      <path id="DejaVuSans-43" d="M 4122 4306 
L 4122 3641 
Q 3803 3938 3442 4084 
Q 3081 4231 2675 4231 
Q 1875 4231 1450 3742 
Q 1025 3253 1025 2328 
Q 1025 1406 1450 917 
Q 1875 428 2675 428 
Q 3081 428 3442 575 
Q 3803 722 4122 1019 
L 4122 359 
Q 3791 134 3420 21 
Q 3050 -91 2638 -91 
Q 1578 -91 968 557 
Q 359 1206 359 2328 
Q 359 3453 968 4101 
Q 1578 4750 2638 4750 
Q 3056 4750 3426 4639 
Q 3797 4528 4122 4306 
z
" transform="scale(0.015625)"/>
      <path id="DejaVuSans-6f" d="M 1959 3097 
Q 1497 3097 1228 2736 
Q 959 2375 959 1747 
Q 959 1119 1226 758 
Q 1494 397 1959 397 
Q 2419 397 2687 759 
Q 2956 1122 2956 1747 
Q 2956 2369 2687 2733 
Q 2419 3097 1959 3097 
z
M 1959 3584 
Q 2709 3584 3137 3096 
Q 3566 2609 3566 1747 
Q 3566 888 3137 398 
Q 2709 -91 1959 -91 
Q 1206 -91 779 398 
Q 353 888 353 1747 
Q 353 2609 779 3096 
Q 1206 3584 1959 3584 
z
" transform="scale(0.015625)"/>
      <path id="DejaVuSans-72" d="M 2631 2963 
Q 2534 3019 2420 3045 
Q 2306 3072 2169 3072 
Q 1681 3072 1420 2755 
Q 1159 2438 1159 1844 
L 1159 0 
L 581 0 
L 581 3500 
L 1159 3500 
L 1159 2956 
Q 1341 3275 1631 3429 
Q 1922 3584 2338 3584 
Q 2397 3584 2469 3576 
Q 2541 3569 2628 3553 
L 2631 2963 
z
" transform="scale(0.015625)"/>
      <path id="DejaVuSans-2d" d="M 313 2009 
L 1997 2009 
L 1997 1497 
L 313 1497 
L 313 2009 
z
" transform="scale(0.015625)"/>
     </defs>
     <use xlink:href="#DejaVuSans-43"/>
     <use xlink:href="#DejaVuSans-6f" transform="translate(69.824219 0)"/>
     <use xlink:href="#DejaVuSans-72" transform="translate(131.005859 0)"/>
     <use xlink:href="#DejaVuSans-72" transform="translate(170.369141 0)"/>
     <use xlink:href="#DejaVuSans-69" transform="translate(211.482422 0)"/>
     <use xlink:href="#DejaVuSans-64" transform="translate(239.265625 0)"/>
     <use xlink:href="#DejaVuSans-6f" transform="translate(302.742188 0)"/>
     <use xlink:href="#DejaVuSans-72" transform="translate(363.923828 0)"/>
     <use xlink:href="#DejaVuSans-20" transform="translate(405.037109 0)"/>
     <use xlink:href="#DejaVuSans-2d" transform="translate(436.824219 0)"/>
     <use xlink:href="#DejaVuSans-30" transform="translate(472.908203 0)"/>
     <use xlink:href="#DejaVuSans-2e" transform="translate(536.53125 0)"/>
     <use xlink:href="#DejaVuSans-30" transform="translate(568.318359 0)"/>
    </g>
   </g>
  </g>
  <g id="axes_2">
   <g id="patch_7">
    <path d="M 525.67125 313.478125 
L 993.26125 313.478125 
L 993.26125 22.318125 
L 525.67125 22.318125 
z
" style="fill: #ffffff"/>
   </g>
   <g id="FillBetweenPolyCollection_2">
    <path d="M 546.925341 269.451684 
L 546.925341 282.707413 
L 549.778239 280.171853 
L 552.631137 280.681524 
L 555.484035 279.480364 
L 558.336933 278.134336 
L 561.189831 278.301306 
L 564.04273 278.515032 
L 566.895628 279.905786 
L 569.748526 278.762847 
L 572.601424 279.313933 
L 575.454322 278.966139 
L 578.30722 278.826168 
L 581.160118 278.87054 
L 584.013016 278.731772 
L 586.865914 276.907839 
L 589.718813 275.566493 
L 592.571711 275.022519 
L 595.424609 274.652016 
L 598.277507 274.514935 
L 601.130405 273.771349 
L 603.983303 272.137546 
L 606.836201 269.660975 
L 609.689099 268.415539 
L 612.541997 266.476595 
L 615.394896 264.804815 
L 618.247794 263.310386 
L 621.100692 264.802679 
L 623.95359 265.366396 
L 626.806488 265.955158 
L 629.659386 265.487028 
L 632.512284 266.073689 
L 635.365182 269.056844 
L 638.21808 270.116079 
L 641.070978 270.46712 
L 643.923877 272.443892 
L 646.776775 274.581267 
L 649.629673 275.264102 
L 652.482571 274.275673 
L 655.335469 275.45492 
L 658.188367 275.950765 
L 661.041265 276.335161 
L 663.894163 276.478141 
L 666.747061 275.067013 
L 669.59996 274.090351 
L 672.452858 273.660708 
L 675.305756 273.507282 
L 678.158654 273.587674 
L 681.011552 272.922241 
L 683.86445 270.711637 
L 686.717348 270.770365 
L 689.570246 271.798737 
L 692.423144 272.309731 
L 695.276043 273.839038 
L 698.128941 275.562324 
L 700.981839 277.304309 
L 703.834737 279.74788 
L 706.687635 283.412459 
L 709.540533 283.729955 
L 712.393431 282.307318 
L 715.246329 280.947734 
L 718.099227 278.716323 
L 720.952126 279.842143 
L 723.805024 281.146231 
L 726.657922 283.010183 
L 729.51082 283.805662 
L 732.363718 282.897489 
L 735.216616 283.176032 
L 738.069514 283.630059 
L 740.922412 285.251257 
L 743.77531 289.410394 
L 746.628209 292.284249 
L 749.481107 290.875246 
L 752.334005 284.293286 
L 755.186903 283.805835 
L 758.039801 285.217472 
L 760.892699 283.385774 
L 763.745597 286.958804 
L 766.598495 285.534505 
L 769.451393 284.176878 
L 772.304291 283.200403 
L 775.15719 282.315109 
L 778.010088 282.219467 
L 780.862986 282.61586 
L 783.715884 282.425911 
L 786.568782 282.868896 
L 789.42168 284.300315 
L 792.274578 285.131598 
L 795.127476 286.624901 
L 797.980374 286.775902 
L 800.833273 286.228942 
L 803.686171 285.74183 
L 806.539069 285.90453 
L 809.391967 286.571492 
L 812.244865 286.997482 
L 815.097763 287.402844 
L 817.950661 287.567506 
L 820.803559 285.930855 
L 823.656457 285.465666 
L 826.509356 284.37464 
L 829.362254 282.605123 
L 832.215152 281.711902 
L 835.06805 280.718842 
L 837.920948 281.126322 
L 840.773846 283.903256 
L 843.626744 284.327481 
L 846.479642 289.946371 
L 849.33254 289.846091 
L 852.185439 287.146467 
L 855.038337 277.429666 
L 857.891235 263.070252 
L 860.744133 252.748035 
L 863.597031 240.283822 
L 866.449929 227.447354 
L 869.302827 217.636448 
L 872.155725 204.638735 
L 875.008623 182.281745 
L 877.861522 161.945726 
L 880.71442 152.583349 
L 883.567318 145.619874 
L 886.420216 144.409615 
L 889.273114 144.842991 
L 892.126012 142.199642 
L 894.97891 141.061193 
L 897.831808 133.355686 
L 900.684706 131.171531 
L 903.537604 134.244213 
L 906.390503 141.645761 
L 909.243401 144.507483 
L 912.096299 158.815929 
L 914.949197 173.096667 
L 917.802095 185.047252 
L 920.654993 194.394261 
L 923.507891 211.180755 
L 926.360789 222.860248 
L 929.213687 228.11944 
L 932.066586 230.973052 
L 934.919484 235.200827 
L 937.772382 243.951523 
L 940.62528 247.740475 
L 943.478178 249.644507 
L 946.331076 251.558113 
L 949.183974 253.42534 
L 952.036872 254.564663 
L 954.88977 260.970412 
L 957.742669 260.34051 
L 960.595567 262.050953 
L 963.448465 264.649612 
L 966.301363 263.884532 
L 969.154261 269.531358 
L 972.007159 278.535657 
L 972.007159 257.6061 
L 972.007159 257.6061 
L 969.154261 238.892365 
L 966.301363 235.479656 
L 963.448465 227.22966 
L 960.595567 225.548363 
L 957.742669 222.049784 
L 954.88977 219.92189 
L 952.036872 209.528749 
L 949.183974 205.945797 
L 946.331076 203.56157 
L 943.478178 201.013834 
L 940.62528 197.777098 
L 937.772382 192.682339 
L 934.919484 185.128879 
L 932.066586 175.443308 
L 929.213687 162.776508 
L 926.360789 149.545434 
L 923.507891 136.731336 
L 920.654993 118.288925 
L 917.802095 95.838025 
L 914.949197 71.45418 
L 912.096299 49.986281 
L 909.243401 36.124196 
L 906.390503 46.613804 
L 903.537604 47.924786 
L 900.684706 48.318659 
L 897.831808 49.057789 
L 894.97891 58.140374 
L 892.126012 55.849671 
L 889.273114 52.848281 
L 886.420216 53.81499 
L 883.567318 57.013956 
L 880.71442 59.058665 
L 877.861522 68.383779 
L 875.008623 91.326054 
L 872.155725 110.639672 
L 869.302827 121.62363 
L 866.449929 132.98422 
L 863.597031 143.017108 
L 860.744133 152.865277 
L 857.891235 167.813804 
L 855.038337 189.796232 
L 852.185439 212.027532 
L 849.33254 222.125743 
L 846.479642 225.812259 
L 843.626744 233.071153 
L 840.773846 242.154903 
L 837.920948 248.598984 
L 835.06805 256.649623 
L 832.215152 260.606331 
L 829.362254 265.110424 
L 826.509356 270.45556 
L 823.656457 273.672732 
L 820.803559 274.905483 
L 817.950661 274.456813 
L 815.097763 274.043222 
L 812.244865 273.484786 
L 809.391967 273.212571 
L 806.539069 272.693913 
L 803.686171 271.926489 
L 800.833273 272.771457 
L 797.980374 272.760129 
L 795.127476 272.38729 
L 792.274578 271.800443 
L 789.42168 271.848954 
L 786.568782 270.465493 
L 783.715884 269.972746 
L 780.862986 269.894186 
L 778.010088 269.882595 
L 775.15719 270.521527 
L 772.304291 271.046835 
L 769.451393 270.810357 
L 766.598495 271.884593 
L 763.745597 272.223066 
L 760.892699 270.546783 
L 758.039801 270.424638 
L 755.186903 269.435043 
L 752.334005 268.360427 
L 749.481107 266.346931 
L 746.628209 266.853052 
L 743.77531 267.406376 
L 740.922412 268.886762 
L 738.069514 270.233087 
L 735.216616 270.260811 
L 732.363718 269.842659 
L 729.51082 271.448717 
L 726.657922 271.079318 
L 723.805024 269.797773 
L 720.952126 268.623823 
L 718.099227 267.885026 
L 715.246329 266.308492 
L 712.393431 264.94191 
L 709.540533 265.657922 
L 706.687635 265.492049 
L 703.834737 262.117195 
L 700.981839 261.367373 
L 698.128941 260.66941 
L 695.276043 259.383241 
L 692.423144 258.432845 
L 689.570246 256.753587 
L 686.717348 256.154946 
L 683.86445 258.494776 
L 681.011552 261.827101 
L 678.158654 263.475209 
L 675.305756 262.72094 
L 672.452858 261.55937 
L 669.59996 261.936196 
L 666.747061 264.187657 
L 663.894163 264.204562 
L 661.041265 265.23421 
L 658.188367 266.469445 
L 655.335469 266.359483 
L 652.482571 265.510799 
L 649.629673 264.383177 
L 646.776775 263.678251 
L 643.923877 262.327195 
L 641.070978 261.13141 
L 638.21808 257.965628 
L 635.365182 254.341882 
L 632.512284 248.059969 
L 629.659386 242.530317 
L 626.806488 238.920384 
L 623.95359 236.944895 
L 621.100692 237.66063 
L 618.247794 237.82041 
L 615.394896 240.688104 
L 612.541997 244.402303 
L 609.689099 248.735866 
L 606.836201 251.601959 
L 603.983303 255.942704 
L 601.130405 258.822922 
L 598.277507 261.577235 
L 595.424609 263.461015 
L 592.571711 264.035946 
L 589.718813 264.338828 
L 586.865914 266.144083 
L 584.013016 266.258924 
L 581.160118 267.242297 
L 578.30722 267.016206 
L 575.454322 267.171048 
L 572.601424 268.352223 
L 569.748526 268.09344 
L 566.895628 269.594529 
L 564.04273 268.139328 
L 561.189831 267.942796 
L 558.336933 267.373413 
L 555.484035 267.36108 
L 552.631137 267.373657 
L 549.778239 263.269843 
L 546.925341 269.451684 
z
" clip-path="url(#p22d7f3ec46)" style="fill: #1f77b4; fill-opacity: 0.3"/>
   </g>
   <g id="matplotlib.axis_3">
    <g id="xtick_10">
     <g id="line2d_17">
      <g>
       <use xlink:href="#mddf887ed97" x="546.925341" y="313.478125" style="stroke: #000000; stroke-width: 0.8"/>
      </g>
     </g>
     <g id="text_19">
      <!-- 0 -->
      <g transform="translate(543.744091 328.076563) scale(0.1 -0.1)">
       <use xlink:href="#DejaVuSans-30"/>
      </g>
     </g>
    </g>
    <g id="xtick_11">
     <g id="line2d_18">
      <g>
       <use xlink:href="#mddf887ed97" x="598.277507" y="313.478125" style="stroke: #000000; stroke-width: 0.8"/>
      </g>
     </g>
     <g id="text_20">
      <!-- 18 -->
      <g transform="translate(591.915007 328.076563) scale(0.1 -0.1)">
       <use xlink:href="#DejaVuSans-31"/>
       <use xlink:href="#DejaVuSans-38" transform="translate(63.623047 0)"/>
      </g>
     </g>
    </g>
    <g id="xtick_12">
     <g id="line2d_19">
      <g>
       <use xlink:href="#mddf887ed97" x="652.482571" y="313.478125" style="stroke: #000000; stroke-width: 0.8"/>
      </g>
     </g>
     <g id="text_21">
      <!-- 37 -->
      <g transform="translate(646.120071 328.076563) scale(0.1 -0.1)">
       <use xlink:href="#DejaVuSans-33"/>
       <use xlink:href="#DejaVuSans-37" transform="translate(63.623047 0)"/>
      </g>
     </g>
    </g>
    <g id="xtick_13">
     <g id="line2d_20">
      <g>
       <use xlink:href="#mddf887ed97" x="703.834737" y="313.478125" style="stroke: #000000; stroke-width: 0.8"/>
      </g>
     </g>
     <g id="text_22">
      <!-- 55 -->
      <g transform="translate(697.472237 328.076563) scale(0.1 -0.1)">
       <use xlink:href="#DejaVuSans-35"/>
       <use xlink:href="#DejaVuSans-35" transform="translate(63.623047 0)"/>
      </g>
     </g>
    </g>
    <g id="xtick_14">
     <g id="line2d_21">
      <g>
       <use xlink:href="#mddf887ed97" x="758.039801" y="313.478125" style="stroke: #000000; stroke-width: 0.8"/>
      </g>
     </g>
     <g id="text_23">
      <!-- 74 -->
      <g transform="translate(751.677301 328.076563) scale(0.1 -0.1)">
       <use xlink:href="#DejaVuSans-37"/>
       <use xlink:href="#DejaVuSans-34" transform="translate(63.623047 0)"/>
      </g>
     </g>
    </g>
    <g id="xtick_15">
     <g id="line2d_22">
      <g>
       <use xlink:href="#mddf887ed97" x="812.244865" y="313.478125" style="stroke: #000000; stroke-width: 0.8"/>
      </g>
     </g>
     <g id="text_24">
      <!-- 93 -->
      <g transform="translate(805.882365 328.076563) scale(0.1 -0.1)">
       <use xlink:href="#DejaVuSans-39"/>
       <use xlink:href="#DejaVuSans-33" transform="translate(63.623047 0)"/>
      </g>
     </g>
    </g>
    <g id="xtick_16">
     <g id="line2d_23">
      <g>
       <use xlink:href="#mddf887ed97" x="863.597031" y="313.478125" style="stroke: #000000; stroke-width: 0.8"/>
      </g>
     </g>
     <g id="text_25">
      <!-- 111 -->
      <g transform="translate(854.053281 328.076563) scale(0.1 -0.1)">
       <use xlink:href="#DejaVuSans-31"/>
       <use xlink:href="#DejaVuSans-31" transform="translate(63.623047 0)"/>
       <use xlink:href="#DejaVuSans-31" transform="translate(127.246094 0)"/>
      </g>
     </g>
    </g>
    <g id="xtick_17">
     <g id="line2d_24">
      <g>
       <use xlink:href="#mddf887ed97" x="917.802095" y="313.478125" style="stroke: #000000; stroke-width: 0.8"/>
      </g>
     </g>
     <g id="text_26">
      <!-- 130 -->
      <g transform="translate(908.258345 328.076563) scale(0.1 -0.1)">
       <use xlink:href="#DejaVuSans-31"/>
       <use xlink:href="#DejaVuSans-33" transform="translate(63.623047 0)"/>
       <use xlink:href="#DejaVuSans-30" transform="translate(127.246094 0)"/>
      </g>
     </g>
    </g>
    <g id="xtick_18">
     <g id="line2d_25">
      <g>
       <use xlink:href="#mddf887ed97" x="972.007159" y="313.478125" style="stroke: #000000; stroke-width: 0.8"/>
      </g>
     </g>
     <g id="text_27">
      <!-- 149 -->
      <g transform="translate(962.463409 328.076563) scale(0.1 -0.1)">
       <use xlink:href="#DejaVuSans-31"/>
       <use xlink:href="#DejaVuSans-34" transform="translate(63.623047 0)"/>
       <use xlink:href="#DejaVuSans-39" transform="translate(127.246094 0)"/>
      </g>
     </g>
    </g>
    <g id="text_28">
     <!-- Spatial bin -->
     <g transform="translate(732.930312 341.754687) scale(0.1 -0.1)">
      <use xlink:href="#DejaVuSans-53"/>
      <use xlink:href="#DejaVuSans-70" transform="translate(63.476562 0)"/>
      <use xlink:href="#DejaVuSans-61" transform="translate(126.953125 0)"/>
      <use xlink:href="#DejaVuSans-74" transform="translate(188.232422 0)"/>
      <use xlink:href="#DejaVuSans-69" transform="translate(227.441406 0)"/>
      <use xlink:href="#DejaVuSans-61" transform="translate(255.224609 0)"/>
      <use xlink:href="#DejaVuSans-6c" transform="translate(316.503906 0)"/>
      <use xlink:href="#DejaVuSans-20" transform="translate(344.287109 0)"/>
      <use xlink:href="#DejaVuSans-62" transform="translate(376.074219 0)"/>
      <use xlink:href="#DejaVuSans-69" transform="translate(439.550781 0)"/>
      <use xlink:href="#DejaVuSans-6e" transform="translate(467.333984 0)"/>
     </g>
    </g>
   </g>
   <g id="matplotlib.axis_4">
    <g id="ytick_7">
     <g id="line2d_26">
      <g>
       <use xlink:href="#m2bbca30bca" x="525.67125" y="287.009034" style="stroke: #000000; stroke-width: 0.8"/>
      </g>
     </g>
    </g>
    <g id="ytick_8">
     <g id="line2d_27">
      <g>
       <use xlink:href="#m2bbca30bca" x="525.67125" y="234.070852" style="stroke: #000000; stroke-width: 0.8"/>
      </g>
     </g>
    </g>
    <g id="ytick_9">
     <g id="line2d_28">
      <g>
       <use xlink:href="#m2bbca30bca" x="525.67125" y="181.13267" style="stroke: #000000; stroke-width: 0.8"/>
      </g>
     </g>
    </g>
    <g id="ytick_10">
     <g id="line2d_29">
      <g>
       <use xlink:href="#m2bbca30bca" x="525.67125" y="128.194489" style="stroke: #000000; stroke-width: 0.8"/>
      </g>
     </g>
    </g>
    <g id="ytick_11">
     <g id="line2d_30">
      <g>
       <use xlink:href="#m2bbca30bca" x="525.67125" y="75.256307" style="stroke: #000000; stroke-width: 0.8"/>
      </g>
     </g>
    </g>
    <g id="ytick_12">
     <g id="line2d_31">
      <g>
       <use xlink:href="#m2bbca30bca" x="525.67125" y="22.318125" style="stroke: #000000; stroke-width: 0.8"/>
      </g>
     </g>
    </g>
   </g>
   <g id="line2d_32">
    <path d="M 546.925341 276.079548 
L 549.778239 271.720848 
L 552.631137 274.027591 
L 558.336933 272.753874 
L 561.189831 273.122051 
L 564.04273 273.32718 
L 566.895628 274.750157 
L 569.748526 273.428143 
L 572.601424 273.833078 
L 575.454322 273.068594 
L 578.30722 272.921187 
L 581.160118 273.056419 
L 584.013016 272.495348 
L 586.865914 271.525961 
L 589.718813 269.95266 
L 595.424609 269.056516 
L 598.277507 268.046085 
L 601.130405 266.297135 
L 603.983303 264.040125 
L 606.836201 260.631467 
L 609.689099 258.575703 
L 612.541997 255.439449 
L 615.394896 252.746459 
L 618.247794 250.565398 
L 621.100692 251.231654 
L 623.95359 251.155645 
L 626.806488 252.437771 
L 629.659386 254.008672 
L 632.512284 257.066829 
L 635.365182 261.699363 
L 638.21808 264.040854 
L 641.070978 265.799265 
L 643.923877 267.385543 
L 646.776775 269.129759 
L 649.629673 269.823639 
L 652.482571 269.893236 
L 655.335469 270.907201 
L 658.188367 271.210105 
L 663.894163 270.341352 
L 666.747061 269.627335 
L 669.59996 268.013274 
L 672.452858 267.610039 
L 678.158654 268.531442 
L 681.011552 267.374671 
L 683.86445 264.603206 
L 686.717348 263.462656 
L 689.570246 264.276162 
L 692.423144 265.371288 
L 695.276043 266.61114 
L 698.128941 268.115867 
L 700.981839 269.335841 
L 703.834737 270.932538 
L 706.687635 274.452254 
L 709.540533 274.693939 
L 712.393431 273.624614 
L 715.246329 273.628113 
L 718.099227 273.300675 
L 720.952126 274.232983 
L 723.805024 275.472002 
L 726.657922 277.044751 
L 729.51082 277.62719 
L 732.363718 276.370074 
L 735.216616 276.718421 
L 740.922412 277.06901 
L 743.77531 278.408385 
L 746.628209 279.56865 
L 749.481107 278.611088 
L 752.334005 276.326856 
L 755.186903 276.620439 
L 758.039801 277.821055 
L 760.892699 276.966278 
L 763.745597 279.590935 
L 766.598495 278.709549 
L 769.451393 277.493618 
L 772.304291 277.123619 
L 775.15719 276.418318 
L 778.010088 276.051031 
L 780.862986 276.255023 
L 783.715884 276.199328 
L 786.568782 276.667195 
L 789.42168 278.074634 
L 792.274578 278.466021 
L 795.127476 279.506095 
L 797.980374 279.768016 
L 800.833273 279.5002 
L 803.686171 278.834159 
L 806.539069 279.299222 
L 809.391967 279.892031 
L 812.244865 280.241134 
L 815.097763 280.723033 
L 817.950661 281.012159 
L 820.803559 280.418169 
L 823.656457 279.569199 
L 826.509356 277.4151 
L 829.362254 273.857774 
L 832.215152 271.159116 
L 835.06805 268.684233 
L 837.920948 264.862653 
L 840.773846 263.02908 
L 843.626744 258.699317 
L 846.479642 257.879315 
L 849.33254 255.985917 
L 852.185439 249.586999 
L 855.038337 233.612949 
L 857.891235 215.442028 
L 860.744133 202.806656 
L 869.302827 169.630039 
L 872.155725 157.639203 
L 877.861522 115.164753 
L 880.71442 105.821007 
L 883.567318 101.316915 
L 886.420216 99.112302 
L 889.273114 98.845636 
L 892.126012 99.024657 
L 894.97891 99.600784 
L 897.831808 91.206738 
L 900.684706 89.745095 
L 903.537604 91.084499 
L 906.390503 94.129783 
L 909.243401 90.315839 
L 912.096299 104.401105 
L 917.802095 140.442639 
L 920.654993 156.341593 
L 923.507891 173.956046 
L 926.360789 186.202841 
L 929.213687 195.447974 
L 932.066586 203.20818 
L 934.919484 210.164853 
L 937.772382 218.316931 
L 940.62528 222.758787 
L 943.478178 225.329171 
L 952.036872 232.046706 
L 954.88977 240.446151 
L 957.742669 241.195147 
L 960.595567 243.799658 
L 963.448465 245.939636 
L 966.301363 249.682094 
L 969.154261 254.211861 
L 972.007159 268.070878 
L 972.007159 268.070878 
" clip-path="url(#p22d7f3ec46)" style="fill: none; stroke: #ff0000; stroke-width: 3; stroke-linecap: square"/>
   </g>
   <g id="patch_8">
    <path d="M 525.67125 313.478125 
L 525.67125 22.318125 
" style="fill: none; stroke: #000000; stroke-width: 0.8; stroke-linejoin: miter; stroke-linecap: square"/>
   </g>
   <g id="patch_9">
    <path d="M 993.26125 313.478125 
L 993.26125 22.318125 
" style="fill: none; stroke: #000000; stroke-width: 0.8; stroke-linejoin: miter; stroke-linecap: square"/>
   </g>
   <g id="patch_10">
    <path d="M 525.67125 313.478125 
L 993.26125 313.478125 
" style="fill: none; stroke: #000000; stroke-width: 0.8; stroke-linejoin: miter; stroke-linecap: square"/>
   </g>
   <g id="patch_11">
    <path d="M 525.67125 22.318125 
L 993.26125 22.318125 
" style="fill: none; stroke: #000000; stroke-width: 0.8; stroke-linejoin: miter; stroke-linecap: square"/>
   </g>
   <g id="text_29">
    <!-- Corridor 50.5 -->
    <g transform="translate(719.897187 16.318125) scale(0.12 -0.12)">
     <use xlink:href="#DejaVuSans-43"/>
     <use xlink:href="#DejaVuSans-6f" transform="translate(69.824219 0)"/>
     <use xlink:href="#DejaVuSans-72" transform="translate(131.005859 0)"/>
     <use xlink:href="#DejaVuSans-72" transform="translate(170.369141 0)"/>
     <use xlink:href="#DejaVuSans-69" transform="translate(211.482422 0)"/>
     <use xlink:href="#DejaVuSans-64" transform="translate(239.265625 0)"/>
     <use xlink:href="#DejaVuSans-6f" transform="translate(302.742188 0)"/>
     <use xlink:href="#DejaVuSans-72" transform="translate(363.923828 0)"/>
     <use xlink:href="#DejaVuSans-20" transform="translate(405.037109 0)"/>
     <use xlink:href="#DejaVuSans-35" transform="translate(436.824219 0)"/>
     <use xlink:href="#DejaVuSans-30" transform="translate(500.447266 0)"/>
     <use xlink:href="#DejaVuSans-2e" transform="translate(564.070312 0)"/>
     <use xlink:href="#DejaVuSans-35" transform="translate(595.857422 0)"/>
    </g>
   </g>
  </g>
 </g>
 <defs>
  <clipPath id="pe6b2b9eb1b">
   <rect x="43.78125" y="22.318125" width="467.59" height="291.16"/>
  </clipPath>
  <clipPath id="p22d7f3ec46">
   <rect x="525.67125" y="22.318125" width="467.59" height="291.16"/>
  </clipPath>
 </defs>
</svg>
