<?xml version="1.0" encoding="utf-8" standalone="no"?>
<!DOCTYPE svg PUBLIC "-//W3C//DTD SVG 1.1//EN"
  "http://www.w3.org/Graphics/SVG/1.1/DTD/svg11.dtd">
<svg xmlns:xlink="http://www.w3.org/1999/xlink" width="1000.380312pt" height="351.034375pt" viewBox="0 0 1000.380312 351.034375" xmlns="http://www.w3.org/2000/svg" version="1.1">
 <metadata>
  <rdf:RDF xmlns:dc="http://purl.org/dc/elements/1.1/" xmlns:cc="http://creativecommons.org/ns#" xmlns:rdf="http://www.w3.org/1999/02/22-rdf-syntax-ns#">
   <cc:Work>
    <dc:type rdf:resource="http://purl.org/dc/dcmitype/StillImage"/>
    <dc:date>2025-11-24T14:24:51.715848</dc:date>
    <dc:format>image/svg+xml</dc:format>
    <dc:creator>
     <cc:Agent>
      <dc:title>Matplotlib v3.10.0, https://matplotlib.org/</dc:title>
     </cc:Agent>
    </dc:creator>
   </cc:Work>
  </rdf:RDF>
 </metadata>
 <defs>
  <style type="text/css">*{stroke-linejoin: round; stroke-linecap: butt}</style>
 </defs>
 <g id="figure_1">
  <g id="patch_1">
   <path d="M 0 351.034375 
L 1000.380312 351.034375 
L 1000.380312 0 
L 0 0 
z
" style="fill: #ffffff"/>
  </g>
  <g id="axes_1">
   <g id="patch_2">
    <path d="M 42.620313 313.478125 
L 510.750313 313.478125 
L 510.750313 22.318125 
L 42.620313 22.318125 
z
" style="fill: #ffffff"/>
   </g>
   <g id="FillBetweenPolyCollection_1">
    <path d="M 63.898949 262.708693 
L 63.898949 273.701928 
L 66.037505 275.298366 
L 68.176062 274.266771 
L 70.314618 273.585666 
L 72.453175 271.89099 
L 74.591731 270.676591 
L 76.730287 270.42039 
L 78.868844 269.568542 
L 81.0074 270.219732 
L 83.145957 270.556509 
L 85.284513 270.921164 
L 87.423069 270.076896 
L 89.561626 269.821695 
L 91.700182 271.280383 
L 93.838739 272.478097 
L 95.977295 273.554076 
L 98.115852 273.598899 
L 100.254408 274.712577 
L 102.392964 276.007895 
L 104.531521 276.864205 
L 106.670077 276.250035 
L 108.808634 275.732628 
L 110.94719 276.73173 
L 113.085746 275.991658 
L 115.224303 276.457794 
L 117.362859 277.012827 
L 119.501416 277.544908 
L 121.639972 277.504917 
L 123.778529 276.686175 
L 125.917085 274.52346 
L 128.055641 271.673137 
L 130.194198 268.957341 
L 132.332754 266.576726 
L 134.471311 263.795382 
L 136.609867 261.438505 
L 138.748424 259.920783 
L 140.88698 259.033846 
L 143.025536 259.164717 
L 145.164093 260.396728 
L 147.302649 261.04709 
L 149.441206 262.004053 
L 151.579762 263.258646 
L 153.718318 265.406475 
L 155.856875 267.302726 
L 157.995431 268.538084 
L 160.133988 269.312479 
L 162.272544 269.036733 
L 164.411101 268.798134 
L 166.549657 268.052891 
L 168.688213 266.369034 
L 170.82677 264.357418 
L 172.965326 262.406061 
L 175.103883 260.625542 
L 177.242439 258.427183 
L 179.380995 258.397052 
L 181.519552 258.618197 
L 183.658108 259.113935 
L 185.796665 260.048893 
L 187.935221 261.472457 
L 190.073778 263.525961 
L 192.212334 264.836769 
L 194.35089 266.046775 
L 196.489447 267.506783 
L 198.628003 268.910304 
L 200.76656 269.398556 
L 202.905116 268.814068 
L 205.043672 267.99082 
L 207.182229 267.370376 
L 209.320785 267.115244 
L 211.459342 266.848999 
L 213.597898 266.460366 
L 215.736455 264.892572 
L 217.875011 263.338174 
L 220.013567 261.238421 
L 222.152124 259.250571 
L 224.29068 259.910217 
L 226.429237 260.253292 
L 228.567793 259.092171 
L 230.70635 259.920991 
L 232.844906 261.101236 
L 234.983462 261.627741 
L 237.122019 261.349791 
L 239.260575 260.843826 
L 241.399132 258.311909 
L 243.537688 257.64298 
L 245.676244 256.984687 
L 247.814801 256.481759 
L 249.953357 257.478462 
L 252.091914 258.138411 
L 254.23047 259.502144 
L 256.369027 259.670324 
L 258.507583 259.591916 
L 260.646139 260.122409 
L 262.784696 261.617704 
L 264.923252 264.45299 
L 267.061809 266.79672 
L 269.200365 269.50658 
L 271.338921 271.017308 
L 273.477478 272.18507 
L 275.616034 273.238631 
L 277.754591 273.832862 
L 279.893147 274.449269 
L 282.031704 275.821557 
L 284.17026 275.988791 
L 286.308816 277.359197 
L 288.447373 277.6153 
L 290.585929 277.772394 
L 292.724486 279.157961 
L 294.863042 278.761633 
L 297.001598 278.760466 
L 299.140155 277.136437 
L 301.278711 275.311716 
L 303.417268 274.433805 
L 305.555824 274.049205 
L 307.694381 274.117783 
L 309.832937 274.597662 
L 311.971493 273.817703 
L 314.11005 274.277843 
L 316.248606 274.618504 
L 318.387163 274.72839 
L 320.525719 274.195148 
L 322.664275 274.475474 
L 324.802832 275.701041 
L 326.941388 276.105645 
L 329.079945 275.833173 
L 331.218501 274.879815 
L 333.357058 273.60491 
L 335.495614 273.047694 
L 337.63417 273.779149 
L 339.772727 275.147685 
L 341.911283 276.027087 
L 344.04984 276.569664 
L 346.188396 276.47021 
L 348.326953 276.692239 
L 350.465509 277.421375 
L 352.604065 277.137316 
L 354.742622 276.704396 
L 356.881178 275.850721 
L 359.019735 274.906535 
L 361.158291 274.223244 
L 363.296847 272.35666 
L 365.435404 271.734554 
L 367.57396 271.105678 
L 369.712517 270.986559 
L 371.851073 271.355937 
L 373.98963 272.248552 
L 376.128186 273.401445 
L 378.266742 274.683992 
L 380.405299 274.950625 
L 382.543855 273.806283 
L 384.682412 272.525371 
L 386.820968 272.123913 
L 388.959524 271.877027 
L 391.098081 270.960253 
L 393.236637 270.132849 
L 395.375194 269.571982 
L 397.51375 269.460873 
L 399.652307 269.959571 
L 401.790863 270.615174 
L 403.929419 271.191301 
L 406.067976 271.057372 
L 408.206532 270.715173 
L 410.345089 270.023484 
L 412.483645 269.208986 
L 414.622201 267.756434 
L 416.760758 266.710786 
L 418.899314 265.024453 
L 421.037871 264.846327 
L 423.176427 265.858662 
L 425.314984 266.849506 
L 427.45354 266.533297 
L 429.592096 267.055042 
L 431.730653 267.488917 
L 433.869209 268.211893 
L 436.007766 269.021457 
L 438.146322 270.698774 
L 440.284879 271.714554 
L 442.423435 273.355647 
L 444.561991 274.466252 
L 446.700548 275.11828 
L 448.839104 275.069357 
L 450.977661 274.482634 
L 453.116217 274.143485 
L 455.254773 273.976068 
L 457.39333 273.653142 
L 459.531886 274.265243 
L 461.670443 275.420812 
L 463.808999 276.903142 
L 465.947556 278.276163 
L 468.086112 279.193392 
L 470.224668 279.979837 
L 472.363225 279.756485 
L 474.501781 278.789541 
L 476.640338 277.55781 
L 478.778894 276.751049 
L 480.91745 276.54851 
L 483.056007 276.785157 
L 485.194563 276.886362 
L 487.33312 275.675159 
L 489.471676 273.100329 
L 489.471676 262.001562 
L 489.471676 262.001562 
L 487.33312 264.244845 
L 485.194563 266.387167 
L 483.056007 266.87269 
L 480.91745 267.718644 
L 478.778894 268.814493 
L 476.640338 269.865397 
L 474.501781 270.774529 
L 472.363225 271.402578 
L 470.224668 271.576531 
L 468.086112 271.154354 
L 465.947556 270.508521 
L 463.808999 269.4158 
L 461.670443 268.108135 
L 459.531886 267.11245 
L 457.39333 266.545923 
L 455.254773 266.826306 
L 453.116217 266.865424 
L 450.977661 266.875723 
L 448.839104 267.025485 
L 446.700548 266.337833 
L 444.561991 264.909562 
L 442.423435 263.247741 
L 440.284879 261.448135 
L 438.146322 260.660934 
L 436.007766 258.284184 
L 433.869209 257.173922 
L 431.730653 256.247383 
L 429.592096 255.820671 
L 427.45354 255.432452 
L 425.314984 255.619665 
L 423.176427 255.026953 
L 421.037871 254.148901 
L 418.899314 254.825468 
L 416.760758 256.28005 
L 414.622201 256.735208 
L 412.483645 257.105739 
L 410.345089 256.837123 
L 408.206532 256.829588 
L 406.067976 256.852547 
L 403.929419 256.96644 
L 401.790863 256.841613 
L 399.652307 256.601506 
L 397.51375 256.516223 
L 395.375194 256.886296 
L 393.236637 257.467798 
L 391.098081 258.242921 
L 388.959524 259.61958 
L 386.820968 260.645066 
L 384.682412 261.34967 
L 382.543855 262.546118 
L 380.405299 263.3255 
L 378.266742 262.882704 
L 376.128186 261.590481 
L 373.98963 260.220496 
L 371.851073 259.180422 
L 369.712517 258.864954 
L 367.57396 259.173042 
L 365.435404 260.027614 
L 363.296847 260.999996 
L 361.158291 263.075042 
L 359.019735 263.893273 
L 356.881178 264.457295 
L 354.742622 264.547247 
L 352.604065 264.785514 
L 350.465509 264.934634 
L 348.326953 264.386512 
L 346.188396 264.269739 
L 344.04984 264.37831 
L 341.911283 264.020783 
L 339.772727 263.467262 
L 337.63417 262.389885 
L 335.495614 261.671906 
L 333.357058 261.881644 
L 331.218501 262.657077 
L 329.079945 263.385379 
L 326.941388 263.494028 
L 324.802832 262.853276 
L 322.664275 261.552194 
L 320.525719 261.01882 
L 318.387163 261.399762 
L 316.248606 261.578026 
L 314.11005 261.614994 
L 311.971493 261.318098 
L 309.832937 262.09997 
L 307.694381 262.090494 
L 305.555824 262.566437 
L 303.417268 263.490661 
L 301.278711 265.120727 
L 299.140155 267.162868 
L 297.001598 268.880221 
L 294.863042 269.404025 
L 292.724486 269.821391 
L 290.585929 269.172385 
L 288.447373 268.378216 
L 286.308816 267.500834 
L 284.17026 266.106836 
L 282.031704 265.408445 
L 279.893147 263.849695 
L 277.754591 262.73115 
L 275.616034 262.072276 
L 273.477478 260.661597 
L 271.338921 258.624198 
L 269.200365 256.434857 
L 267.061809 253.391958 
L 264.923252 250.539406 
L 262.784696 247.517047 
L 260.646139 245.539117 
L 258.507583 244.380159 
L 256.369027 244.119621 
L 254.23047 243.535497 
L 252.091914 242.013138 
L 249.953357 240.99168 
L 247.814801 240.148566 
L 245.676244 241.807401 
L 243.537688 242.968828 
L 241.399132 244.07288 
L 239.260575 246.198669 
L 237.122019 246.344999 
L 234.983462 245.964892 
L 232.844906 245.996825 
L 230.70635 245.289863 
L 228.567793 244.577842 
L 226.429237 245.431099 
L 224.29068 246.133217 
L 222.152124 245.631685 
L 220.013567 247.497064 
L 217.875011 250.110903 
L 215.736455 252.100031 
L 213.597898 254.371276 
L 211.459342 256.084413 
L 209.320785 256.75785 
L 207.182229 256.814094 
L 205.043672 256.915855 
L 202.905116 257.075034 
L 200.76656 256.988662 
L 198.628003 256.085295 
L 196.489447 254.482239 
L 194.35089 252.66289 
L 192.212334 250.290765 
L 190.073778 247.658373 
L 187.935221 245.192218 
L 185.796665 243.35403 
L 183.658108 242.248484 
L 181.519552 242.013755 
L 179.380995 242.545745 
L 177.242439 243.757524 
L 175.103883 246.605728 
L 172.965326 249.22691 
L 170.82677 251.665679 
L 168.688213 254.110381 
L 166.549657 256.001025 
L 164.411101 256.524483 
L 162.272544 256.445983 
L 160.133988 256.168148 
L 157.995431 254.759978 
L 155.856875 252.973378 
L 153.718318 250.831601 
L 151.579762 248.556766 
L 149.441206 246.799881 
L 147.302649 245.287057 
L 145.164093 243.95028 
L 143.025536 242.926418 
L 140.88698 243.399987 
L 138.748424 244.604501 
L 136.609867 246.897462 
L 134.471311 249.670451 
L 132.332754 254.001948 
L 130.194198 257.955821 
L 128.055641 261.474364 
L 125.917085 264.756509 
L 123.778529 267.137767 
L 121.639972 267.99099 
L 119.501416 267.748075 
L 117.362859 266.903244 
L 115.224303 266.008781 
L 113.085746 265.175107 
L 110.94719 265.561567 
L 108.808634 264.51275 
L 106.670077 264.252494 
L 104.531521 263.914738 
L 102.392964 262.793318 
L 100.254408 261.521128 
L 98.115852 260.111525 
L 95.977295 259.300911 
L 93.838739 257.810585 
L 91.700182 256.268759 
L 89.561626 254.721957 
L 87.423069 254.47135 
L 85.284513 255.087687 
L 83.145957 255.406018 
L 81.0074 256.144178 
L 78.868844 256.384613 
L 76.730287 257.389377 
L 74.591731 258.274985 
L 72.453175 260.729016 
L 70.314618 263.544009 
L 68.176062 263.95526 
L 66.037505 265.316492 
L 63.898949 262.708693 
z
" clip-path="url(#p9603b1d9e7)" style="fill: #1f77b4; fill-opacity: 0.3"/>
   </g>
   <g id="matplotlib.axis_1">
    <g id="xtick_1">
     <g id="line2d_1">
      <defs>
       <path id="m17dd37b02d" d="M 0 0 
L 0 3.5 
" style="stroke: #000000; stroke-width: 0.8"/>
      </defs>
      <g>
       <use xlink:href="#m17dd37b02d" x="63.898949" y="313.478125" style="stroke: #000000; stroke-width: 0.8"/>
      </g>
     </g>
     <g id="text_1">
      <!-- 0 -->
      <g transform="translate(60.717699 328.076563) scale(0.1 -0.1)">
       <defs>
        <path id="DejaVuSans-30" d="M 2034 4250 
Q 1547 4250 1301 3770 
Q 1056 3291 1056 2328 
Q 1056 1369 1301 889 
Q 1547 409 2034 409 
Q 2525 409 2770 889 
Q 3016 1369 3016 2328 
Q 3016 3291 2770 3770 
Q 2525 4250 2034 4250 
z
M 2034 4750 
Q 2819 4750 3233 4129 
Q 3647 3509 3647 2328 
Q 3647 1150 3233 529 
Q 2819 -91 2034 -91 
Q 1250 -91 836 529 
Q 422 1150 422 2328 
Q 422 3509 836 4129 
Q 1250 4750 2034 4750 
z
" transform="scale(0.015625)"/>
       </defs>
       <use xlink:href="#DejaVuSans-30"/>
      </g>
     </g>
    </g>
    <g id="xtick_2">
     <g id="line2d_2">
      <g>
       <use xlink:href="#m17dd37b02d" x="115.224303" y="313.478125" style="stroke: #000000; stroke-width: 0.8"/>
      </g>
     </g>
     <g id="text_2">
      <!-- 24 -->
      <g transform="translate(108.861803 328.076563) scale(0.1 -0.1)">
       <defs>
        <path id="DejaVuSans-32" d="M 1228 531 
L 3431 531 
L 3431 0 
L 469 0 
L 469 531 
Q 828 903 1448 1529 
Q 2069 2156 2228 2338 
Q 2531 2678 2651 2914 
Q 2772 3150 2772 3378 
Q 2772 3750 2511 3984 
Q 2250 4219 1831 4219 
Q 1534 4219 1204 4116 
Q 875 4013 500 3803 
L 500 4441 
Q 881 4594 1212 4672 
Q 1544 4750 1819 4750 
Q 2544 4750 2975 4387 
Q 3406 4025 3406 3419 
Q 3406 3131 3298 2873 
Q 3191 2616 2906 2266 
Q 2828 2175 2409 1742 
Q 1991 1309 1228 531 
z
" transform="scale(0.015625)"/>
        <path id="DejaVuSans-34" d="M 2419 4116 
L 825 1625 
L 2419 1625 
L 2419 4116 
z
M 2253 4666 
L 3047 4666 
L 3047 1625 
L 3713 1625 
L 3713 1100 
L 3047 1100 
L 3047 0 
L 2419 0 
L 2419 1100 
L 313 1100 
L 313 1709 
L 2253 4666 
z
" transform="scale(0.015625)"/>
       </defs>
       <use xlink:href="#DejaVuSans-32"/>
       <use xlink:href="#DejaVuSans-34" transform="translate(63.623047 0)"/>
      </g>
     </g>
    </g>
    <g id="xtick_3">
     <g id="line2d_3">
      <g>
       <use xlink:href="#m17dd37b02d" x="168.688213" y="313.478125" style="stroke: #000000; stroke-width: 0.8"/>
      </g>
     </g>
     <g id="text_3">
      <!-- 49 -->
      <g transform="translate(162.325713 328.076563) scale(0.1 -0.1)">
       <defs>
        <path id="DejaVuSans-39" d="M 703 97 
L 703 672 
Q 941 559 1184 500 
Q 1428 441 1663 441 
Q 2288 441 2617 861 
Q 2947 1281 2994 2138 
Q 2813 1869 2534 1725 
Q 2256 1581 1919 1581 
Q 1219 1581 811 2004 
Q 403 2428 403 3163 
Q 403 3881 828 4315 
Q 1253 4750 1959 4750 
Q 2769 4750 3195 4129 
Q 3622 3509 3622 2328 
Q 3622 1225 3098 567 
Q 2575 -91 1691 -91 
Q 1453 -91 1209 -44 
Q 966 3 703 97 
z
M 1959 2075 
Q 2384 2075 2632 2365 
Q 2881 2656 2881 3163 
Q 2881 3666 2632 3958 
Q 2384 4250 1959 4250 
Q 1534 4250 1286 3958 
Q 1038 3666 1038 3163 
Q 1038 2656 1286 2365 
Q 1534 2075 1959 2075 
z
" transform="scale(0.015625)"/>
       </defs>
       <use xlink:href="#DejaVuSans-34"/>
       <use xlink:href="#DejaVuSans-39" transform="translate(63.623047 0)"/>
      </g>
     </g>
    </g>
    <g id="xtick_4">
     <g id="line2d_4">
      <g>
       <use xlink:href="#m17dd37b02d" x="222.152124" y="313.478125" style="stroke: #000000; stroke-width: 0.8"/>
      </g>
     </g>
     <g id="text_4">
      <!-- 74 -->
      <g transform="translate(215.789624 328.076563) scale(0.1 -0.1)">
       <defs>
        <path id="DejaVuSans-37" d="M 525 4666 
L 3525 4666 
L 3525 4397 
L 1831 0 
L 1172 0 
L 2766 4134 
L 525 4134 
L 525 4666 
z
" transform="scale(0.015625)"/>
       </defs>
       <use xlink:href="#DejaVuSans-37"/>
       <use xlink:href="#DejaVuSans-34" transform="translate(63.623047 0)"/>
      </g>
     </g>
    </g>
    <g id="xtick_5">
     <g id="line2d_5">
      <g>
       <use xlink:href="#m17dd37b02d" x="275.616034" y="313.478125" style="stroke: #000000; stroke-width: 0.8"/>
      </g>
     </g>
     <g id="text_5">
      <!-- 99 -->
      <g transform="translate(269.253534 328.076563) scale(0.1 -0.1)">
       <use xlink:href="#DejaVuSans-39"/>
       <use xlink:href="#DejaVuSans-39" transform="translate(63.623047 0)"/>
      </g>
     </g>
    </g>
    <g id="xtick_6">
     <g id="line2d_6">
      <g>
       <use xlink:href="#m17dd37b02d" x="329.079945" y="313.478125" style="stroke: #000000; stroke-width: 0.8"/>
      </g>
     </g>
     <g id="text_6">
      <!-- 124 -->
      <g transform="translate(319.536195 328.076563) scale(0.1 -0.1)">
       <defs>
        <path id="DejaVuSans-31" d="M 794 531 
L 1825 531 
L 1825 4091 
L 703 3866 
L 703 4441 
L 1819 4666 
L 2450 4666 
L 2450 531 
L 3481 531 
L 3481 0 
L 794 0 
L 794 531 
z
" transform="scale(0.015625)"/>
       </defs>
       <use xlink:href="#DejaVuSans-31"/>
       <use xlink:href="#DejaVuSans-32" transform="translate(63.623047 0)"/>
       <use xlink:href="#DejaVuSans-34" transform="translate(127.246094 0)"/>
      </g>
     </g>
    </g>
    <g id="xtick_7">
     <g id="line2d_7">
      <g>
       <use xlink:href="#m17dd37b02d" x="382.543855" y="313.478125" style="stroke: #000000; stroke-width: 0.8"/>
      </g>
     </g>
     <g id="text_7">
      <!-- 149 -->
      <g transform="translate(373.000105 328.076563) scale(0.1 -0.1)">
       <use xlink:href="#DejaVuSans-31"/>
       <use xlink:href="#DejaVuSans-34" transform="translate(63.623047 0)"/>
       <use xlink:href="#DejaVuSans-39" transform="translate(127.246094 0)"/>
      </g>
     </g>
    </g>
    <g id="xtick_8">
     <g id="line2d_8">
      <g>
       <use xlink:href="#m17dd37b02d" x="436.007766" y="313.478125" style="stroke: #000000; stroke-width: 0.8"/>
      </g>
     </g>
     <g id="text_8">
      <!-- 174 -->
      <g transform="translate(426.464016 328.076563) scale(0.1 -0.1)">
       <use xlink:href="#DejaVuSans-31"/>
       <use xlink:href="#DejaVuSans-37" transform="translate(63.623047 0)"/>
       <use xlink:href="#DejaVuSans-34" transform="translate(127.246094 0)"/>
      </g>
     </g>
    </g>
    <g id="xtick_9">
     <g id="line2d_9">
      <g>
       <use xlink:href="#m17dd37b02d" x="489.471676" y="313.478125" style="stroke: #000000; stroke-width: 0.8"/>
      </g>
     </g>
     <g id="text_9">
      <!-- 199 -->
      <g transform="translate(479.927926 328.076563) scale(0.1 -0.1)">
       <use xlink:href="#DejaVuSans-31"/>
       <use xlink:href="#DejaVuSans-39" transform="translate(63.623047 0)"/>
       <use xlink:href="#DejaVuSans-39" transform="translate(127.246094 0)"/>
      </g>
     </g>
    </g>
    <g id="text_10">
     <!-- Spatial bin -->
     <g transform="translate(250.149375 341.754687) scale(0.1 -0.1)">
      <defs>
       <path id="DejaVuSans-53" d="M 3425 4513 
L 3425 3897 
Q 3066 4069 2747 4153 
Q 2428 4238 2131 4238 
Q 1616 4238 1336 4038 
Q 1056 3838 1056 3469 
Q 1056 3159 1242 3001 
Q 1428 2844 1947 2747 
L 2328 2669 
Q 3034 2534 3370 2195 
Q 3706 1856 3706 1288 
Q 3706 609 3251 259 
Q 2797 -91 1919 -91 
Q 1588 -91 1214 -16 
Q 841 59 441 206 
L 441 856 
Q 825 641 1194 531 
Q 1563 422 1919 422 
Q 2459 422 2753 634 
Q 3047 847 3047 1241 
Q 3047 1584 2836 1778 
Q 2625 1972 2144 2069 
L 1759 2144 
Q 1053 2284 737 2584 
Q 422 2884 422 3419 
Q 422 4038 858 4394 
Q 1294 4750 2059 4750 
Q 2388 4750 2728 4690 
Q 3069 4631 3425 4513 
z
" transform="scale(0.015625)"/>
       <path id="DejaVuSans-70" d="M 1159 525 
L 1159 -1331 
L 581 -1331 
L 581 3500 
L 1159 3500 
L 1159 2969 
Q 1341 3281 1617 3432 
Q 1894 3584 2278 3584 
Q 2916 3584 3314 3078 
Q 3713 2572 3713 1747 
Q 3713 922 3314 415 
Q 2916 -91 2278 -91 
Q 1894 -91 1617 61 
Q 1341 213 1159 525 
z
M 3116 1747 
Q 3116 2381 2855 2742 
Q 2594 3103 2138 3103 
Q 1681 3103 1420 2742 
Q 1159 2381 1159 1747 
Q 1159 1113 1420 752 
Q 1681 391 2138 391 
Q 2594 391 2855 752 
Q 3116 1113 3116 1747 
z
" transform="scale(0.015625)"/>
       <path id="DejaVuSans-61" d="M 2194 1759 
Q 1497 1759 1228 1600 
Q 959 1441 959 1056 
Q 959 750 1161 570 
Q 1363 391 1709 391 
Q 2188 391 2477 730 
Q 2766 1069 2766 1631 
L 2766 1759 
L 2194 1759 
z
M 3341 1997 
L 3341 0 
L 2766 0 
L 2766 531 
Q 2569 213 2275 61 
Q 1981 -91 1556 -91 
Q 1019 -91 701 211 
Q 384 513 384 1019 
Q 384 1609 779 1909 
Q 1175 2209 1959 2209 
L 2766 2209 
L 2766 2266 
Q 2766 2663 2505 2880 
Q 2244 3097 1772 3097 
Q 1472 3097 1187 3025 
Q 903 2953 641 2809 
L 641 3341 
Q 956 3463 1253 3523 
Q 1550 3584 1831 3584 
Q 2591 3584 2966 3190 
Q 3341 2797 3341 1997 
z
" transform="scale(0.015625)"/>
       <path id="DejaVuSans-74" d="M 1172 4494 
L 1172 3500 
L 2356 3500 
L 2356 3053 
L 1172 3053 
L 1172 1153 
Q 1172 725 1289 603 
Q 1406 481 1766 481 
L 2356 481 
L 2356 0 
L 1766 0 
Q 1100 0 847 248 
Q 594 497 594 1153 
L 594 3053 
L 172 3053 
L 172 3500 
L 594 3500 
L 594 4494 
L 1172 4494 
z
" transform="scale(0.015625)"/>
       <path id="DejaVuSans-69" d="M 603 3500 
L 1178 3500 
L 1178 0 
L 603 0 
L 603 3500 
z
M 603 4863 
L 1178 4863 
L 1178 4134 
L 603 4134 
L 603 4863 
z
" transform="scale(0.015625)"/>
       <path id="DejaVuSans-6c" d="M 603 4863 
L 1178 4863 
L 1178 0 
L 603 0 
L 603 4863 
z
" transform="scale(0.015625)"/>
       <path id="DejaVuSans-20" transform="scale(0.015625)"/>
       <path id="DejaVuSans-62" d="M 3116 1747 
Q 3116 2381 2855 2742 
Q 2594 3103 2138 3103 
Q 1681 3103 1420 2742 
Q 1159 2381 1159 1747 
Q 1159 1113 1420 752 
Q 1681 391 2138 391 
Q 2594 391 2855 752 
Q 3116 1113 3116 1747 
z
M 1159 2969 
Q 1341 3281 1617 3432 
Q 1894 3584 2278 3584 
Q 2916 3584 3314 3078 
Q 3713 2572 3713 1747 
Q 3713 922 3314 415 
Q 2916 -91 2278 -91 
Q 1894 -91 1617 61 
Q 1341 213 1159 525 
L 1159 0 
L 581 0 
L 581 4863 
L 1159 4863 
L 1159 2969 
z
" transform="scale(0.015625)"/>
       <path id="DejaVuSans-6e" d="M 3513 2113 
L 3513 0 
L 2938 0 
L 2938 2094 
Q 2938 2591 2744 2837 
Q 2550 3084 2163 3084 
Q 1697 3084 1428 2787 
Q 1159 2491 1159 1978 
L 1159 0 
L 581 0 
L 581 3500 
L 1159 3500 
L 1159 2956 
Q 1366 3272 1645 3428 
Q 1925 3584 2291 3584 
Q 2894 3584 3203 3211 
Q 3513 2838 3513 2113 
z
" transform="scale(0.015625)"/>
      </defs>
      <use xlink:href="#DejaVuSans-53"/>
      <use xlink:href="#DejaVuSans-70" transform="translate(63.476562 0)"/>
      <use xlink:href="#DejaVuSans-61" transform="translate(126.953125 0)"/>
      <use xlink:href="#DejaVuSans-74" transform="translate(188.232422 0)"/>
      <use xlink:href="#DejaVuSans-69" transform="translate(227.441406 0)"/>
      <use xlink:href="#DejaVuSans-61" transform="translate(255.224609 0)"/>
      <use xlink:href="#DejaVuSans-6c" transform="translate(316.503906 0)"/>
      <use xlink:href="#DejaVuSans-20" transform="translate(344.287109 0)"/>
      <use xlink:href="#DejaVuSans-62" transform="translate(376.074219 0)"/>
      <use xlink:href="#DejaVuSans-69" transform="translate(439.550781 0)"/>
      <use xlink:href="#DejaVuSans-6e" transform="translate(467.333984 0)"/>
     </g>
    </g>
   </g>
   <g id="matplotlib.axis_2">
    <g id="ytick_1">
     <g id="line2d_10">
      <defs>
       <path id="m9950689d82" d="M 0 0 
L -3.5 0 
" style="stroke: #000000; stroke-width: 0.8"/>
      </defs>
      <g>
       <use xlink:href="#m9950689d82" x="42.620313" y="313.478125" style="stroke: #000000; stroke-width: 0.8"/>
      </g>
     </g>
     <g id="text_11">
      <!-- −1 -->
      <g transform="translate(20.878125 317.277344) scale(0.1 -0.1)">
       <defs>
        <path id="DejaVuSans-2212" d="M 678 2272 
L 4684 2272 
L 4684 1741 
L 678 1741 
L 678 2272 
z
" transform="scale(0.015625)"/>
       </defs>
       <use xlink:href="#DejaVuSans-2212"/>
       <use xlink:href="#DejaVuSans-31" transform="translate(83.789062 0)"/>
      </g>
     </g>
    </g>
    <g id="ytick_2">
     <g id="line2d_11">
      <g>
       <use xlink:href="#m9950689d82" x="42.620313" y="255.246125" style="stroke: #000000; stroke-width: 0.8"/>
      </g>
     </g>
     <g id="text_12">
      <!-- 0 -->
      <g transform="translate(29.257813 259.045344) scale(0.1 -0.1)">
       <use xlink:href="#DejaVuSans-30"/>
      </g>
     </g>
    </g>
    <g id="ytick_3">
     <g id="line2d_12">
      <g>
       <use xlink:href="#m9950689d82" x="42.620313" y="197.014125" style="stroke: #000000; stroke-width: 0.8"/>
      </g>
     </g>
     <g id="text_13">
      <!-- 1 -->
      <g transform="translate(29.257813 200.813344) scale(0.1 -0.1)">
       <use xlink:href="#DejaVuSans-31"/>
      </g>
     </g>
    </g>
    <g id="ytick_4">
     <g id="line2d_13">
      <g>
       <use xlink:href="#m9950689d82" x="42.620313" y="138.782125" style="stroke: #000000; stroke-width: 0.8"/>
      </g>
     </g>
     <g id="text_14">
      <!-- 2 -->
      <g transform="translate(29.257813 142.581344) scale(0.1 -0.1)">
       <use xlink:href="#DejaVuSans-32"/>
      </g>
     </g>
    </g>
    <g id="ytick_5">
     <g id="line2d_14">
      <g>
       <use xlink:href="#m9950689d82" x="42.620313" y="80.550125" style="stroke: #000000; stroke-width: 0.8"/>
      </g>
     </g>
     <g id="text_15">
      <!-- 3 -->
      <g transform="translate(29.257813 84.349344) scale(0.1 -0.1)">
       <defs>
        <path id="DejaVuSans-33" d="M 2597 2516 
Q 3050 2419 3304 2112 
Q 3559 1806 3559 1356 
Q 3559 666 3084 287 
Q 2609 -91 1734 -91 
Q 1441 -91 1130 -33 
Q 819 25 488 141 
L 488 750 
Q 750 597 1062 519 
Q 1375 441 1716 441 
Q 2309 441 2620 675 
Q 2931 909 2931 1356 
Q 2931 1769 2642 2001 
Q 2353 2234 1838 2234 
L 1294 2234 
L 1294 2753 
L 1863 2753 
Q 2328 2753 2575 2939 
Q 2822 3125 2822 3475 
Q 2822 3834 2567 4026 
Q 2313 4219 1838 4219 
Q 1578 4219 1281 4162 
Q 984 4106 628 3988 
L 628 4550 
Q 988 4650 1302 4700 
Q 1616 4750 1894 4750 
Q 2613 4750 3031 4423 
Q 3450 4097 3450 3541 
Q 3450 3153 3228 2886 
Q 3006 2619 2597 2516 
z
" transform="scale(0.015625)"/>
       </defs>
       <use xlink:href="#DejaVuSans-33"/>
      </g>
     </g>
    </g>
    <g id="ytick_6">
     <g id="line2d_15">
      <g>
       <use xlink:href="#m9950689d82" x="42.620313" y="22.318125" style="stroke: #000000; stroke-width: 0.8"/>
      </g>
     </g>
     <g id="text_16">
      <!-- 4 -->
      <g transform="translate(29.257813 26.117344) scale(0.1 -0.1)">
       <use xlink:href="#DejaVuSans-34"/>
      </g>
     </g>
    </g>
    <g id="text_17">
     <!-- z-scored dF/F -->
     <g transform="translate(14.798438 201.1325) rotate(-90) scale(0.1 -0.1)">
      <defs>
       <path id="DejaVuSans-7a" d="M 353 3500 
L 3084 3500 
L 3084 2975 
L 922 459 
L 3084 459 
L 3084 0 
L 275 0 
L 275 525 
L 2438 3041 
L 353 3041 
L 353 3500 
z
" transform="scale(0.015625)"/>
       <path id="DejaVuSans-2d" d="M 313 2009 
L 1997 2009 
L 1997 1497 
L 313 1497 
L 313 2009 
z
" transform="scale(0.015625)"/>
       <path id="DejaVuSans-73" d="M 2834 3397 
L 2834 2853 
Q 2591 2978 2328 3040 
Q 2066 3103 1784 3103 
Q 1356 3103 1142 2972 
Q 928 2841 928 2578 
Q 928 2378 1081 2264 
Q 1234 2150 1697 2047 
L 1894 2003 
Q 2506 1872 2764 1633 
Q 3022 1394 3022 966 
Q 3022 478 2636 193 
Q 2250 -91 1575 -91 
Q 1294 -91 989 -36 
Q 684 19 347 128 
L 347 722 
Q 666 556 975 473 
Q 1284 391 1588 391 
Q 1994 391 2212 530 
Q 2431 669 2431 922 
Q 2431 1156 2273 1281 
Q 2116 1406 1581 1522 
L 1381 1569 
Q 847 1681 609 1914 
Q 372 2147 372 2553 
Q 372 3047 722 3315 
Q 1072 3584 1716 3584 
Q 2034 3584 2315 3537 
Q 2597 3491 2834 3397 
z
" transform="scale(0.015625)"/>
       <path id="DejaVuSans-63" d="M 3122 3366 
L 3122 2828 
Q 2878 2963 2633 3030 
Q 2388 3097 2138 3097 
Q 1578 3097 1268 2742 
Q 959 2388 959 1747 
Q 959 1106 1268 751 
Q 1578 397 2138 397 
Q 2388 397 2633 464 
Q 2878 531 3122 666 
L 3122 134 
Q 2881 22 2623 -34 
Q 2366 -91 2075 -91 
Q 1284 -91 818 406 
Q 353 903 353 1747 
Q 353 2603 823 3093 
Q 1294 3584 2113 3584 
Q 2378 3584 2631 3529 
Q 2884 3475 3122 3366 
z
" transform="scale(0.015625)"/>
       <path id="DejaVuSans-6f" d="M 1959 3097 
Q 1497 3097 1228 2736 
Q 959 2375 959 1747 
Q 959 1119 1226 758 
Q 1494 397 1959 397 
Q 2419 397 2687 759 
Q 2956 1122 2956 1747 
Q 2956 2369 2687 2733 
Q 2419 3097 1959 3097 
z
M 1959 3584 
Q 2709 3584 3137 3096 
Q 3566 2609 3566 1747 
Q 3566 888 3137 398 
Q 2709 -91 1959 -91 
Q 1206 -91 779 398 
Q 353 888 353 1747 
Q 353 2609 779 3096 
Q 1206 3584 1959 3584 
z
" transform="scale(0.015625)"/>
       <path id="DejaVuSans-72" d="M 2631 2963 
Q 2534 3019 2420 3045 
Q 2306 3072 2169 3072 
Q 1681 3072 1420 2755 
Q 1159 2438 1159 1844 
L 1159 0 
L 581 0 
L 581 3500 
L 1159 3500 
L 1159 2956 
Q 1341 3275 1631 3429 
Q 1922 3584 2338 3584 
Q 2397 3584 2469 3576 
Q 2541 3569 2628 3553 
L 2631 2963 
z
" transform="scale(0.015625)"/>
       <path id="DejaVuSans-65" d="M 3597 1894 
L 3597 1613 
L 953 1613 
Q 991 1019 1311 708 
Q 1631 397 2203 397 
Q 2534 397 2845 478 
Q 3156 559 3463 722 
L 3463 178 
Q 3153 47 2828 -22 
Q 2503 -91 2169 -91 
Q 1331 -91 842 396 
Q 353 884 353 1716 
Q 353 2575 817 3079 
Q 1281 3584 2069 3584 
Q 2775 3584 3186 3129 
Q 3597 2675 3597 1894 
z
M 3022 2063 
Q 3016 2534 2758 2815 
Q 2500 3097 2075 3097 
Q 1594 3097 1305 2825 
Q 1016 2553 972 2059 
L 3022 2063 
z
" transform="scale(0.015625)"/>
       <path id="DejaVuSans-64" d="M 2906 2969 
L 2906 4863 
L 3481 4863 
L 3481 0 
L 2906 0 
L 2906 525 
Q 2725 213 2448 61 
Q 2172 -91 1784 -91 
Q 1150 -91 751 415 
Q 353 922 353 1747 
Q 353 2572 751 3078 
Q 1150 3584 1784 3584 
Q 2172 3584 2448 3432 
Q 2725 3281 2906 2969 
z
M 947 1747 
Q 947 1113 1208 752 
Q 1469 391 1925 391 
Q 2381 391 2643 752 
Q 2906 1113 2906 1747 
Q 2906 2381 2643 2742 
Q 2381 3103 1925 3103 
Q 1469 3103 1208 2742 
Q 947 2381 947 1747 
z
" transform="scale(0.015625)"/>
       <path id="DejaVuSans-46" d="M 628 4666 
L 3309 4666 
L 3309 4134 
L 1259 4134 
L 1259 2759 
L 3109 2759 
L 3109 2228 
L 1259 2228 
L 1259 0 
L 628 0 
L 628 4666 
z
" transform="scale(0.015625)"/>
       <path id="DejaVuSans-2f" d="M 1625 4666 
L 2156 4666 
L 531 -594 
L 0 -594 
L 1625 4666 
z
" transform="scale(0.015625)"/>
      </defs>
      <use xlink:href="#DejaVuSans-7a"/>
      <use xlink:href="#DejaVuSans-2d" transform="translate(52.490234 0)"/>
      <use xlink:href="#DejaVuSans-73" transform="translate(88.574219 0)"/>
      <use xlink:href="#DejaVuSans-63" transform="translate(140.673828 0)"/>
      <use xlink:href="#DejaVuSans-6f" transform="translate(195.654297 0)"/>
      <use xlink:href="#DejaVuSans-72" transform="translate(256.835938 0)"/>
      <use xlink:href="#DejaVuSans-65" transform="translate(295.699219 0)"/>
      <use xlink:href="#DejaVuSans-64" transform="translate(357.222656 0)"/>
      <use xlink:href="#DejaVuSans-20" transform="translate(420.699219 0)"/>
      <use xlink:href="#DejaVuSans-64" transform="translate(452.486328 0)"/>
      <use xlink:href="#DejaVuSans-46" transform="translate(515.962891 0)"/>
      <use xlink:href="#DejaVuSans-2f" transform="translate(573.482422 0)"/>
      <use xlink:href="#DejaVuSans-46" transform="translate(607.173828 0)"/>
     </g>
    </g>
   </g>
   <g id="line2d_16">
    <path d="M 63.898949 268.20531 
L 66.037505 270.307429 
L 68.176062 269.111016 
L 70.314618 268.564838 
L 72.453175 266.310003 
L 74.591731 264.475788 
L 76.730287 263.904884 
L 78.868844 262.976578 
L 81.0074 263.181955 
L 83.145957 262.981264 
L 85.284513 263.004426 
L 87.423069 262.274123 
L 89.561626 262.271826 
L 93.838739 265.144341 
L 95.977295 266.427494 
L 98.115852 266.855212 
L 102.392964 269.400607 
L 104.531521 270.389471 
L 108.808634 270.122689 
L 110.94719 271.146649 
L 113.085746 270.583382 
L 119.501416 272.646491 
L 121.639972 272.747954 
L 123.778529 271.911971 
L 125.917085 269.639985 
L 132.332754 260.289337 
L 134.471311 256.732916 
L 136.609867 254.167984 
L 138.748424 252.262642 
L 140.88698 251.216917 
L 143.025536 251.045568 
L 145.164093 252.173504 
L 147.302649 253.167073 
L 149.441206 254.401967 
L 151.579762 255.907706 
L 153.718318 258.119038 
L 155.856875 260.138052 
L 157.995431 261.649031 
L 160.133988 262.740313 
L 164.411101 262.661309 
L 166.549657 262.026958 
L 168.688213 260.239707 
L 175.103883 253.615635 
L 177.242439 251.092354 
L 179.380995 250.471399 
L 181.519552 250.315976 
L 183.658108 250.68121 
L 185.796665 251.701461 
L 187.935221 253.332338 
L 190.073778 255.592167 
L 192.212334 257.563767 
L 194.35089 259.354832 
L 198.628003 262.4978 
L 200.76656 263.193609 
L 202.905116 262.944551 
L 205.043672 262.453338 
L 207.182229 262.092235 
L 209.320785 261.936547 
L 211.459342 261.466706 
L 213.597898 260.415821 
L 217.875011 256.724539 
L 220.013567 254.367742 
L 222.152124 252.441128 
L 224.29068 253.021717 
L 226.429237 252.842196 
L 228.567793 251.835007 
L 230.70635 252.605427 
L 232.844906 253.549031 
L 234.983462 253.796316 
L 237.122019 253.847395 
L 239.260575 253.521248 
L 241.399132 251.192394 
L 245.676244 249.396044 
L 247.814801 248.315163 
L 252.091914 250.075774 
L 254.23047 251.51882 
L 256.369027 251.894973 
L 258.507583 251.986037 
L 260.646139 252.830763 
L 262.784696 254.567375 
L 264.923252 257.496198 
L 267.061809 260.094339 
L 269.200365 262.970718 
L 271.338921 264.820753 
L 273.477478 266.423333 
L 275.616034 267.655454 
L 277.754591 268.282006 
L 279.893147 269.149482 
L 282.031704 270.615001 
L 284.17026 271.047813 
L 286.308816 272.430016 
L 290.585929 273.472389 
L 292.724486 274.489676 
L 294.863042 274.082829 
L 297.001598 273.820344 
L 299.140155 272.149652 
L 301.278711 270.216222 
L 303.417268 268.962233 
L 305.555824 268.307821 
L 307.694381 268.104138 
L 309.832937 268.348816 
L 311.971493 267.567901 
L 314.11005 267.946418 
L 316.248606 268.098265 
L 318.387163 268.064076 
L 320.525719 267.606984 
L 322.664275 268.013834 
L 324.802832 269.277159 
L 326.941388 269.799836 
L 329.079945 269.609276 
L 331.218501 268.768446 
L 333.357058 267.743277 
L 335.495614 267.3598 
L 337.63417 268.084517 
L 339.772727 269.307474 
L 341.911283 270.023935 
L 344.04984 270.473987 
L 346.188396 270.369975 
L 348.326953 270.539375 
L 350.465509 271.178005 
L 352.604065 270.961415 
L 354.742622 270.625821 
L 356.881178 270.154008 
L 361.158291 268.649143 
L 363.296847 266.678328 
L 367.57396 265.13936 
L 369.712517 264.925757 
L 371.851073 265.268179 
L 373.98963 266.234524 
L 378.266742 268.783348 
L 380.405299 269.138062 
L 382.543855 268.176201 
L 384.682412 266.937521 
L 388.959524 265.748303 
L 391.098081 264.601587 
L 393.236637 263.800323 
L 395.375194 263.229139 
L 397.51375 262.988548 
L 399.652307 263.280539 
L 403.929419 264.078871 
L 408.206532 263.77238 
L 412.483645 263.157362 
L 414.622201 262.245821 
L 416.760758 261.495418 
L 418.899314 259.92496 
L 421.037871 259.497614 
L 423.176427 260.442807 
L 425.314984 261.234585 
L 427.45354 260.982874 
L 431.730653 261.86815 
L 433.869209 262.692908 
L 436.007766 263.65282 
L 438.146322 265.679854 
L 440.284879 266.581345 
L 442.423435 268.301694 
L 444.561991 269.687907 
L 446.700548 270.728057 
L 448.839104 271.047421 
L 450.977661 270.679179 
L 457.39333 270.099533 
L 459.531886 270.688846 
L 461.670443 271.764474 
L 463.808999 273.159471 
L 465.947556 274.392342 
L 468.086112 275.173873 
L 470.224668 275.778184 
L 472.363225 275.579531 
L 474.501781 274.782035 
L 476.640338 273.711603 
L 478.778894 272.782771 
L 480.91745 272.133577 
L 483.056007 271.828924 
L 485.194563 271.636765 
L 487.33312 269.960002 
L 489.471676 267.550945 
L 489.471676 267.550945 
" clip-path="url(#p9603b1d9e7)" style="fill: none; stroke: #ff0000; stroke-width: 3; stroke-linecap: square"/>
   </g>
   <g id="LineCollection_1">
    <path d="M 170.82677 313.478125 
L 170.82677 22.318125 
" clip-path="url(#p9603b1d9e7)" style="fill: none; stroke-dasharray: 5.55,2.4; stroke-dashoffset: 0; stroke: #ff0000; stroke-width: 1.5"/>
    <path d="M 384.682412 313.478125 
L 384.682412 22.318125 
" clip-path="url(#p9603b1d9e7)" style="fill: none; stroke-dasharray: 5.55,2.4; stroke-dashoffset: 0; stroke: #ff0000; stroke-width: 1.5"/>
   </g>
   <g id="patch_3">
    <path d="M 42.620313 313.478125 
L 42.620313 22.318125 
" style="fill: none; stroke: #000000; stroke-width: 0.8; stroke-linejoin: miter; stroke-linecap: square"/>
   </g>
   <g id="patch_4">
    <path d="M 510.750313 313.478125 
L 510.750313 22.318125 
" style="fill: none; stroke: #000000; stroke-width: 0.8; stroke-linejoin: miter; stroke-linecap: square"/>
   </g>
   <g id="patch_5">
    <path d="M 42.620313 313.478125 
L 510.750313 313.478125 
" style="fill: none; stroke: #000000; stroke-width: 0.8; stroke-linejoin: miter; stroke-linecap: square"/>
   </g>
   <g id="patch_6">
    <path d="M 42.620313 22.318125 
L 510.750313 22.318125 
" style="fill: none; stroke: #000000; stroke-width: 0.8; stroke-linejoin: miter; stroke-linecap: square"/>
   </g>
   <g id="text_18">
    <!-- Corridor -1.0 -->
    <g transform="translate(238.769063 16.318125) scale(0.12 -0.12)">
     <defs>
      <path id="DejaVuSans-43" d="M 4122 4306 
L 4122 3641 
Q 3803 3938 3442 4084 
Q 3081 4231 2675 4231 
Q 1875 4231 1450 3742 
Q 1025 3253 1025 2328 
Q 1025 1406 1450 917 
Q 1875 428 2675 428 
Q 3081 428 3442 575 
Q 3803 722 4122 1019 
L 4122 359 
Q 3791 134 3420 21 
Q 3050 -91 2638 -91 
Q 1578 -91 968 557 
Q 359 1206 359 2328 
Q 359 3453 968 4101 
Q 1578 4750 2638 4750 
Q 3056 4750 3426 4639 
Q 3797 4528 4122 4306 
z
" transform="scale(0.015625)"/>
      <path id="DejaVuSans-2e" d="M 684 794 
L 1344 794 
L 1344 0 
L 684 0 
L 684 794 
z
" transform="scale(0.015625)"/>
     </defs>
     <use xlink:href="#DejaVuSans-43"/>
     <use xlink:href="#DejaVuSans-6f" transform="translate(69.824219 0)"/>
     <use xlink:href="#DejaVuSans-72" transform="translate(131.005859 0)"/>
     <use xlink:href="#DejaVuSans-72" transform="translate(170.369141 0)"/>
     <use xlink:href="#DejaVuSans-69" transform="translate(211.482422 0)"/>
     <use xlink:href="#DejaVuSans-64" transform="translate(239.265625 0)"/>
     <use xlink:href="#DejaVuSans-6f" transform="translate(302.742188 0)"/>
     <use xlink:href="#DejaVuSans-72" transform="translate(363.923828 0)"/>
     <use xlink:href="#DejaVuSans-20" transform="translate(405.037109 0)"/>
     <use xlink:href="#DejaVuSans-2d" transform="translate(436.824219 0)"/>
     <use xlink:href="#DejaVuSans-31" transform="translate(472.908203 0)"/>
     <use xlink:href="#DejaVuSans-2e" transform="translate(536.53125 0)"/>
     <use xlink:href="#DejaVuSans-30" transform="translate(568.318359 0)"/>
    </g>
   </g>
  </g>
  <g id="axes_2">
   <g id="patch_7">
    <path d="M 525.050313 313.478125 
L 993.180312 313.478125 
L 993.180312 22.318125 
L 525.050313 22.318125 
z
" style="fill: #ffffff"/>
   </g>
   <g id="FillBetweenPolyCollection_2">
    <path d="M 546.328949 258.958546 
L 546.328949 272.493609 
L 548.467505 275.407039 
L 550.606062 276.870503 
L 552.744618 277.567718 
L 554.883175 276.176491 
L 557.021731 274.51995 
L 559.160287 273.06451 
L 561.298844 272.363518 
L 563.4374 271.104353 
L 565.575957 270.249956 
L 567.714513 269.878433 
L 569.853069 268.467613 
L 571.991626 267.449794 
L 574.130182 267.096215 
L 576.268739 266.011509 
L 578.407295 266.251782 
L 580.545852 265.545723 
L 582.684408 264.7065 
L 584.822964 264.427894 
L 586.961521 265.09575 
L 589.100077 265.240788 
L 591.238634 266.288601 
L 593.37719 266.806271 
L 595.515746 267.204294 
L 597.654303 267.448806 
L 599.792859 268.261474 
L 601.931416 270.37395 
L 604.069972 272.014559 
L 606.208529 273.240937 
L 608.347085 276.128729 
L 610.485641 276.636591 
L 612.624198 275.578397 
L 614.762754 276.054131 
L 616.901311 276.530894 
L 619.039867 276.510267 
L 621.178424 276.791025 
L 623.31698 277.564722 
L 625.455536 278.166817 
L 627.594093 279.418188 
L 629.732649 279.779418 
L 631.871206 279.868621 
L 634.009762 279.669499 
L 636.148318 278.52257 
L 638.286875 276.266574 
L 640.425431 273.973994 
L 642.563988 269.999798 
L 644.702544 266.251005 
L 646.841101 263.582309 
L 648.979657 263.596695 
L 651.118213 265.669029 
L 653.25677 266.895222 
L 655.395326 268.76967 
L 657.533883 270.036884 
L 659.672439 271.157128 
L 661.810995 271.513327 
L 663.949552 271.588241 
L 666.088108 271.704178 
L 668.226665 271.072928 
L 670.365221 270.059463 
L 672.503778 269.08465 
L 674.642334 268.429646 
L 676.78089 268.357254 
L 678.919447 268.494115 
L 681.058003 267.180642 
L 683.19656 265.309578 
L 685.335116 264.122016 
L 687.473672 262.701167 
L 689.612229 261.882273 
L 691.750785 261.665674 
L 693.889342 262.415385 
L 696.027898 263.576612 
L 698.166455 262.960511 
L 700.305011 262.773602 
L 702.443567 263.315319 
L 704.582124 264.775266 
L 706.72068 265.980033 
L 708.859237 266.857362 
L 710.997793 266.862459 
L 713.13635 266.876271 
L 715.274906 269.497525 
L 717.413462 270.056468 
L 719.552019 269.916526 
L 721.690575 270.977187 
L 723.829132 273.341644 
L 725.967688 275.573341 
L 728.106244 276.649954 
L 730.244801 278.437211 
L 732.383357 280.287379 
L 734.521914 281.715992 
L 736.66047 282.99546 
L 738.799027 281.873243 
L 740.937583 279.801763 
L 743.076139 276.079467 
L 745.214696 271.284311 
L 747.353252 266.956037 
L 749.491809 263.400445 
L 751.630365 260.50571 
L 753.768921 258.228743 
L 755.907478 255.457432 
L 758.046034 252.64982 
L 760.184591 249.603898 
L 762.323147 246.855804 
L 764.461704 244.780211 
L 766.60026 242.911728 
L 768.738816 241.353142 
L 770.877373 240.838357 
L 773.015929 240.615248 
L 775.154486 240.805208 
L 777.293042 241.793773 
L 779.431598 241.779272 
L 781.570155 241.425007 
L 783.708711 239.808126 
L 785.847268 236.69741 
L 787.985824 232.494049 
L 790.124381 227.401525 
L 792.262937 222.06654 
L 794.401493 215.512713 
L 796.54005 206.861466 
L 798.678606 196.688979 
L 800.817163 186.938036 
L 802.955719 180.086398 
L 805.094275 174.153247 
L 807.232832 169.91845 
L 809.371388 166.693257 
L 811.509945 162.961857 
L 813.648501 163.299099 
L 815.787058 160.821343 
L 817.925614 156.194151 
L 820.06417 151.157586 
L 822.202727 146.819954 
L 824.341283 147.23333 
L 826.47984 146.102092 
L 828.618396 142.010542 
L 830.756953 139.78796 
L 832.895509 138.921162 
L 835.034065 138.918145 
L 837.172622 139.800085 
L 839.311178 140.903861 
L 841.449735 141.146164 
L 843.588291 141.46095 
L 845.726847 141.440949 
L 847.865404 138.560834 
L 850.00396 135.582888 
L 852.142517 133.607033 
L 854.281073 131.023028 
L 856.41963 128.133851 
L 858.558186 127.448793 
L 860.696742 130.837617 
L 862.835299 131.960401 
L 864.973855 130.3954 
L 867.112412 130.008117 
L 869.250968 129.209569 
L 871.389524 130.94325 
L 873.528081 131.753177 
L 875.666637 129.473007 
L 877.805194 128.257335 
L 879.94375 127.634589 
L 882.082307 125.900234 
L 884.220863 126.727333 
L 886.359419 127.072777 
L 888.497976 128.184374 
L 890.636532 127.854154 
L 892.775089 127.609631 
L 894.913645 128.455808 
L 897.052201 131.613966 
L 899.190758 134.54508 
L 901.329314 140.055704 
L 903.467871 144.891145 
L 905.606427 150.800658 
L 907.744984 154.857211 
L 909.88354 158.391768 
L 912.022096 161.960261 
L 914.160653 168.191574 
L 916.299209 176.894252 
L 918.437766 185.418184 
L 920.576322 196.296092 
L 922.714879 201.74438 
L 924.853435 206.339917 
L 926.991991 210.550379 
L 929.130548 213.909428 
L 931.269104 217.51797 
L 933.407661 217.185273 
L 935.546217 216.268526 
L 937.684773 217.899546 
L 939.82333 214.986709 
L 941.961886 219.289026 
L 944.100443 221.223512 
L 946.238999 224.659086 
L 948.377556 227.993606 
L 950.516112 230.212723 
L 952.654668 232.504926 
L 954.793225 234.13219 
L 956.931781 234.456385 
L 959.070338 236.072643 
L 961.208894 236.942618 
L 963.34745 233.959955 
L 965.486007 235.290045 
L 967.624563 236.486615 
L 969.76312 235.301974 
L 971.901676 243.179699 
L 971.901676 221.593224 
L 971.901676 221.593224 
L 969.76312 209.91384 
L 967.624563 207.504543 
L 965.486007 203.354738 
L 963.34745 200.343564 
L 961.208894 200.923247 
L 959.070338 199.387613 
L 956.931781 198.933276 
L 954.793225 198.966674 
L 952.654668 198.301506 
L 950.516112 194.579578 
L 948.377556 190.456551 
L 946.238999 185.39538 
L 944.100443 180.57429 
L 941.961886 178.892477 
L 939.82333 172.384007 
L 937.684773 172.622103 
L 935.546217 169.457665 
L 933.407661 168.14989 
L 931.269104 166.998255 
L 929.130548 161.411112 
L 926.991991 156.071904 
L 924.853435 150.03945 
L 922.714879 143.451854 
L 920.576322 135.319882 
L 918.437766 123.448455 
L 916.299209 113.482519 
L 914.160653 103.417641 
L 912.022096 96.154101 
L 909.88354 90.375192 
L 907.744984 85.081965 
L 905.606427 80.43627 
L 903.467871 74.713568 
L 901.329314 69.202698 
L 899.190758 64.18627 
L 897.052201 60.894569 
L 894.913645 58.108003 
L 892.775089 56.525295 
L 890.636532 56.017515 
L 888.497976 57.208024 
L 886.359419 58.516821 
L 884.220863 59.325428 
L 882.082307 59.182381 
L 879.94375 59.199608 
L 877.805194 59.435349 
L 875.666637 61.27518 
L 873.528081 63.141834 
L 871.389524 63.667382 
L 869.250968 62.710234 
L 867.112412 62.255267 
L 864.973855 61.799521 
L 862.835299 61.793549 
L 860.696742 60.986488 
L 858.558186 59.516383 
L 856.41963 60.087228 
L 854.281073 62.130671 
L 852.142517 64.045722 
L 850.00396 65.441992 
L 847.865404 68.757134 
L 845.726847 72.515975 
L 843.588291 74.120064 
L 841.449735 75.188034 
L 839.311178 74.768171 
L 837.172622 73.814732 
L 835.034065 73.285597 
L 832.895509 73.398833 
L 830.756953 75.048896 
L 828.618396 78.231743 
L 826.47984 82.775785 
L 824.341283 86.910028 
L 822.202727 89.476561 
L 820.06417 94.65612 
L 817.925614 99.832954 
L 815.787058 103.858258 
L 813.648501 106.955314 
L 811.509945 106.07176 
L 809.371388 110.827992 
L 807.232832 115.166748 
L 805.094275 121.202023 
L 802.955719 130.678822 
L 800.817163 141.61017 
L 798.678606 155.239405 
L 796.54005 168.846212 
L 794.401493 180.636316 
L 792.262937 189.597154 
L 790.124381 196.455708 
L 787.985824 202.151878 
L 785.847268 206.434201 
L 783.708711 209.401637 
L 781.570155 211.217262 
L 779.431598 212.035734 
L 777.293042 211.816167 
L 775.154486 211.100434 
L 773.015929 211.362937 
L 770.877373 212.48079 
L 768.738816 214.296865 
L 766.60026 216.999285 
L 764.461704 219.831968 
L 762.323147 222.91044 
L 760.184591 226.554994 
L 758.046034 230.485145 
L 755.907478 234.070686 
L 753.768921 237.299836 
L 751.630365 240.671962 
L 749.491809 244.591987 
L 747.353252 249.54213 
L 745.214696 255.179174 
L 743.076139 260.465981 
L 740.937583 264.077297 
L 738.799027 265.894753 
L 736.66047 266.504882 
L 734.521914 265.235186 
L 732.383357 263.248978 
L 730.244801 261.039668 
L 728.106244 259.178295 
L 725.967688 257.610328 
L 723.829132 255.256283 
L 721.690575 252.66908 
L 719.552019 250.944438 
L 717.413462 249.958652 
L 715.274906 249.499135 
L 713.13635 245.623044 
L 710.997793 245.194443 
L 708.859237 245.040635 
L 706.72068 244.284191 
L 704.582124 243.141695 
L 702.443567 241.945252 
L 700.305011 241.208773 
L 698.166455 241.626654 
L 696.027898 242.664405 
L 693.889342 242.71734 
L 691.750785 239.242026 
L 689.612229 240.095976 
L 687.473672 242.765422 
L 685.335116 246.227037 
L 683.19656 248.192655 
L 681.058003 250.3712 
L 678.919447 252.037502 
L 676.78089 252.552937 
L 674.642334 253.529458 
L 672.503778 254.570657 
L 670.365221 255.659888 
L 668.226665 256.545738 
L 666.088108 257.096247 
L 663.949552 256.963081 
L 661.810995 256.580674 
L 659.672439 255.9769 
L 657.533883 254.635688 
L 655.395326 253.217123 
L 653.25677 251.233363 
L 651.118213 249.607412 
L 648.979657 248.301459 
L 646.841101 248.552528 
L 644.702544 251.447829 
L 642.563988 255.874895 
L 640.425431 261.994099 
L 638.286875 266.198882 
L 636.148318 269.743102 
L 634.009762 272.028514 
L 631.871206 272.129877 
L 629.732649 271.059659 
L 627.594093 269.852357 
L 625.455536 268.128372 
L 623.31698 267.442062 
L 621.178424 266.518561 
L 619.039867 265.958922 
L 616.901311 265.777637 
L 614.762754 265.681926 
L 612.624198 265.499586 
L 610.485641 265.960552 
L 608.347085 265.365882 
L 606.208529 263.111699 
L 604.069972 261.865051 
L 601.931416 260.369504 
L 599.792859 258.124005 
L 597.654303 256.861937 
L 595.515746 256.510774 
L 593.37719 256.12057 
L 591.238634 255.567367 
L 589.100077 254.595985 
L 586.961521 254.033008 
L 584.822964 253.016772 
L 582.684408 252.504131 
L 580.545852 252.188619 
L 578.407295 252.05623 
L 576.268739 251.721808 
L 574.130182 252.249217 
L 571.991626 253.131431 
L 569.853069 254.375852 
L 567.714513 256.507072 
L 565.575957 257.887449 
L 563.4374 259.056487 
L 561.298844 260.201619 
L 559.160287 261.26397 
L 557.021731 262.700487 
L 554.883175 264.009285 
L 552.744618 265.002383 
L 550.606062 264.795676 
L 548.467505 264.15458 
L 546.328949 258.958546 
z
" clip-path="url(#pfcbbf55a3a)" style="fill: #1f77b4; fill-opacity: 0.3"/>
   </g>
   <g id="matplotlib.axis_3">
    <g id="xtick_10">
     <g id="line2d_17">
      <g>
       <use xlink:href="#m17dd37b02d" x="546.328949" y="313.478125" style="stroke: #000000; stroke-width: 0.8"/>
      </g>
     </g>
     <g id="text_19">
      <!-- 0 -->
      <g transform="translate(543.147699 328.076563) scale(0.1 -0.1)">
       <use xlink:href="#DejaVuSans-30"/>
      </g>
     </g>
    </g>
    <g id="xtick_11">
     <g id="line2d_18">
      <g>
       <use xlink:href="#m17dd37b02d" x="597.654303" y="313.478125" style="stroke: #000000; stroke-width: 0.8"/>
      </g>
     </g>
     <g id="text_20">
      <!-- 24 -->
      <g transform="translate(591.291803 328.076563) scale(0.1 -0.1)">
       <use xlink:href="#DejaVuSans-32"/>
       <use xlink:href="#DejaVuSans-34" transform="translate(63.623047 0)"/>
      </g>
     </g>
    </g>
    <g id="xtick_12">
     <g id="line2d_19">
      <g>
       <use xlink:href="#m17dd37b02d" x="651.118213" y="313.478125" style="stroke: #000000; stroke-width: 0.8"/>
      </g>
     </g>
     <g id="text_21">
      <!-- 49 -->
      <g transform="translate(644.755713 328.076563) scale(0.1 -0.1)">
       <use xlink:href="#DejaVuSans-34"/>
       <use xlink:href="#DejaVuSans-39" transform="translate(63.623047 0)"/>
      </g>
     </g>
    </g>
    <g id="xtick_13">
     <g id="line2d_20">
      <g>
       <use xlink:href="#m17dd37b02d" x="704.582124" y="313.478125" style="stroke: #000000; stroke-width: 0.8"/>
      </g>
     </g>
     <g id="text_22">
      <!-- 74 -->
      <g transform="translate(698.219624 328.076563) scale(0.1 -0.1)">
       <use xlink:href="#DejaVuSans-37"/>
       <use xlink:href="#DejaVuSans-34" transform="translate(63.623047 0)"/>
      </g>
     </g>
    </g>
    <g id="xtick_14">
     <g id="line2d_21">
      <g>
       <use xlink:href="#m17dd37b02d" x="758.046034" y="313.478125" style="stroke: #000000; stroke-width: 0.8"/>
      </g>
     </g>
     <g id="text_23">
      <!-- 99 -->
      <g transform="translate(751.683534 328.076563) scale(0.1 -0.1)">
       <use xlink:href="#DejaVuSans-39"/>
       <use xlink:href="#DejaVuSans-39" transform="translate(63.623047 0)"/>
      </g>
     </g>
    </g>
    <g id="xtick_15">
     <g id="line2d_22">
      <g>
       <use xlink:href="#m17dd37b02d" x="811.509945" y="313.478125" style="stroke: #000000; stroke-width: 0.8"/>
      </g>
     </g>
     <g id="text_24">
      <!-- 124 -->
      <g transform="translate(801.966195 328.076563) scale(0.1 -0.1)">
       <use xlink:href="#DejaVuSans-31"/>
       <use xlink:href="#DejaVuSans-32" transform="translate(63.623047 0)"/>
       <use xlink:href="#DejaVuSans-34" transform="translate(127.246094 0)"/>
      </g>
     </g>
    </g>
    <g id="xtick_16">
     <g id="line2d_23">
      <g>
       <use xlink:href="#m17dd37b02d" x="864.973855" y="313.478125" style="stroke: #000000; stroke-width: 0.8"/>
      </g>
     </g>
     <g id="text_25">
      <!-- 149 -->
      <g transform="translate(855.430105 328.076563) scale(0.1 -0.1)">
       <use xlink:href="#DejaVuSans-31"/>
       <use xlink:href="#DejaVuSans-34" transform="translate(63.623047 0)"/>
       <use xlink:href="#DejaVuSans-39" transform="translate(127.246094 0)"/>
      </g>
     </g>
    </g>
    <g id="xtick_17">
     <g id="line2d_24">
      <g>
       <use xlink:href="#m17dd37b02d" x="918.437766" y="313.478125" style="stroke: #000000; stroke-width: 0.8"/>
      </g>
     </g>
     <g id="text_26">
      <!-- 174 -->
      <g transform="translate(908.894016 328.076563) scale(0.1 -0.1)">
       <use xlink:href="#DejaVuSans-31"/>
       <use xlink:href="#DejaVuSans-37" transform="translate(63.623047 0)"/>
       <use xlink:href="#DejaVuSans-34" transform="translate(127.246094 0)"/>
      </g>
     </g>
    </g>
    <g id="xtick_18">
     <g id="line2d_25">
      <g>
       <use xlink:href="#m17dd37b02d" x="971.901676" y="313.478125" style="stroke: #000000; stroke-width: 0.8"/>
      </g>
     </g>
     <g id="text_27">
      <!-- 199 -->
      <g transform="translate(962.357926 328.076563) scale(0.1 -0.1)">
       <use xlink:href="#DejaVuSans-31"/>
       <use xlink:href="#DejaVuSans-39" transform="translate(63.623047 0)"/>
       <use xlink:href="#DejaVuSans-39" transform="translate(127.246094 0)"/>
      </g>
     </g>
    </g>
    <g id="text_28">
     <!-- Spatial bin -->
     <g transform="translate(732.579375 341.754687) scale(0.1 -0.1)">
      <use xlink:href="#DejaVuSans-53"/>
      <use xlink:href="#DejaVuSans-70" transform="translate(63.476562 0)"/>
      <use xlink:href="#DejaVuSans-61" transform="translate(126.953125 0)"/>
      <use xlink:href="#DejaVuSans-74" transform="translate(188.232422 0)"/>
      <use xlink:href="#DejaVuSans-69" transform="translate(227.441406 0)"/>
      <use xlink:href="#DejaVuSans-61" transform="translate(255.224609 0)"/>
      <use xlink:href="#DejaVuSans-6c" transform="translate(316.503906 0)"/>
      <use xlink:href="#DejaVuSans-20" transform="translate(344.287109 0)"/>
      <use xlink:href="#DejaVuSans-62" transform="translate(376.074219 0)"/>
      <use xlink:href="#DejaVuSans-69" transform="translate(439.550781 0)"/>
      <use xlink:href="#DejaVuSans-6e" transform="translate(467.333984 0)"/>
     </g>
    </g>
   </g>
   <g id="matplotlib.axis_4">
    <g id="ytick_7">
     <g id="line2d_26">
      <g>
       <use xlink:href="#m9950689d82" x="525.050313" y="313.478125" style="stroke: #000000; stroke-width: 0.8"/>
      </g>
     </g>
    </g>
    <g id="ytick_8">
     <g id="line2d_27">
      <g>
       <use xlink:href="#m9950689d82" x="525.050313" y="255.246125" style="stroke: #000000; stroke-width: 0.8"/>
      </g>
     </g>
    </g>
    <g id="ytick_9">
     <g id="line2d_28">
      <g>
       <use xlink:href="#m9950689d82" x="525.050313" y="197.014125" style="stroke: #000000; stroke-width: 0.8"/>
      </g>
     </g>
    </g>
    <g id="ytick_10">
     <g id="line2d_29">
      <g>
       <use xlink:href="#m9950689d82" x="525.050313" y="138.782125" style="stroke: #000000; stroke-width: 0.8"/>
      </g>
     </g>
    </g>
    <g id="ytick_11">
     <g id="line2d_30">
      <g>
       <use xlink:href="#m9950689d82" x="525.050313" y="80.550125" style="stroke: #000000; stroke-width: 0.8"/>
      </g>
     </g>
    </g>
    <g id="ytick_12">
     <g id="line2d_31">
      <g>
       <use xlink:href="#m9950689d82" x="525.050313" y="22.318125" style="stroke: #000000; stroke-width: 0.8"/>
      </g>
     </g>
    </g>
   </g>
   <g id="line2d_32">
    <path d="M 546.328949 265.726077 
L 548.467505 269.780809 
L 550.606062 270.83309 
L 552.744618 271.285051 
L 554.883175 270.092888 
L 559.160287 267.16424 
L 561.298844 266.282568 
L 563.4374 265.08042 
L 565.575957 264.068702 
L 567.714513 263.192753 
L 569.853069 261.421733 
L 571.991626 260.290613 
L 574.130182 259.672716 
L 576.268739 258.866658 
L 578.407295 259.154006 
L 582.684408 258.605316 
L 584.822964 258.722333 
L 586.961521 259.564379 
L 589.100077 259.918387 
L 591.238634 260.927984 
L 593.37719 261.463421 
L 597.654303 262.155372 
L 599.792859 263.19274 
L 601.931416 265.371727 
L 604.069972 266.939805 
L 606.208529 268.176318 
L 608.347085 270.747306 
L 610.485641 271.298571 
L 612.624198 270.538991 
L 616.901311 271.154266 
L 619.039867 271.234594 
L 621.178424 271.654793 
L 623.31698 272.503392 
L 625.455536 273.147594 
L 627.594093 274.635272 
L 629.732649 275.419539 
L 631.871206 275.999249 
L 634.009762 275.849007 
L 636.148318 274.132836 
L 638.286875 271.232728 
L 640.425431 267.984047 
L 642.563988 262.937346 
L 644.702544 258.849417 
L 646.841101 256.067419 
L 648.979657 255.949077 
L 651.118213 257.63822 
L 653.25677 259.064293 
L 655.395326 260.993397 
L 659.672439 263.567014 
L 661.810995 264.047 
L 666.088108 264.400213 
L 668.226665 263.809333 
L 674.642334 260.979552 
L 676.78089 260.455095 
L 678.919447 260.265808 
L 681.058003 258.775921 
L 683.19656 256.751117 
L 685.335116 255.174526 
L 687.473672 252.733294 
L 689.612229 250.989124 
L 691.750785 250.45385 
L 693.889342 252.566362 
L 696.027898 253.120508 
L 698.166455 252.293582 
L 700.305011 251.991188 
L 702.443567 252.630286 
L 704.582124 253.95848 
L 706.72068 255.132112 
L 708.859237 255.948999 
L 710.997793 256.028451 
L 713.13635 256.249658 
L 715.274906 259.49833 
L 719.552019 260.430482 
L 721.690575 261.823133 
L 723.829132 264.298963 
L 725.967688 266.591834 
L 728.106244 267.914125 
L 730.244801 269.738439 
L 732.383357 271.768178 
L 734.521914 273.475589 
L 736.66047 274.750171 
L 738.799027 273.883998 
L 740.937583 271.93953 
L 743.076139 268.272724 
L 747.353252 258.249083 
L 749.491809 253.996216 
L 751.630365 250.588836 
L 755.907478 244.764059 
L 758.046034 241.567483 
L 760.184591 238.079446 
L 762.323147 234.883122 
L 764.461704 232.30609 
L 766.60026 229.955506 
L 768.738816 227.825004 
L 770.877373 226.659574 
L 773.015929 225.989092 
L 775.154486 225.952821 
L 777.293042 226.80497 
L 779.431598 226.907503 
L 781.570155 226.321135 
L 783.708711 224.604881 
L 785.847268 221.565805 
L 787.985824 217.322963 
L 790.124381 211.928617 
L 792.262937 205.831847 
L 794.401493 198.074515 
L 796.54005 187.853839 
L 800.817163 164.274103 
L 802.955719 155.38261 
L 805.094275 147.677635 
L 807.232832 142.542599 
L 809.371388 138.760625 
L 811.509945 134.516808 
L 813.648501 135.127206 
L 815.787058 132.3398 
L 817.925614 128.013552 
L 820.06417 122.906853 
L 822.202727 118.148258 
L 824.341283 117.071679 
L 826.47984 114.438939 
L 828.618396 110.121143 
L 830.756953 107.418428 
L 832.895509 106.159997 
L 835.034065 106.101871 
L 837.172622 106.807409 
L 839.311178 107.836016 
L 841.449735 108.167099 
L 843.588291 107.790507 
L 845.726847 106.978462 
L 850.00396 100.51244 
L 852.142517 98.826377 
L 854.281073 96.57685 
L 856.41963 94.11054 
L 858.558186 93.482588 
L 860.696742 95.912053 
L 862.835299 96.876975 
L 864.973855 96.097461 
L 867.112412 96.131692 
L 869.250968 95.959902 
L 871.389524 97.305316 
L 873.528081 97.447505 
L 875.666637 95.374094 
L 877.805194 93.846342 
L 879.94375 93.417098 
L 882.082307 92.541308 
L 884.220863 93.02638 
L 886.359419 92.794799 
L 888.497976 92.696199 
L 890.636532 91.935835 
L 892.775089 92.067463 
L 894.913645 93.281906 
L 899.190758 99.365675 
L 903.467871 109.802357 
L 905.606427 115.618464 
L 909.88354 124.38348 
L 912.022096 129.057181 
L 914.160653 135.804607 
L 918.437766 154.43332 
L 920.576322 165.807987 
L 922.714879 172.598117 
L 924.853435 178.189683 
L 926.991991 183.311141 
L 931.269104 192.258113 
L 933.407661 192.667581 
L 935.546217 192.863096 
L 937.684773 195.260825 
L 939.82333 193.685358 
L 941.961886 199.090752 
L 944.100443 200.898901 
L 948.377556 209.225079 
L 952.654668 215.403216 
L 954.793225 216.549432 
L 956.931781 216.69483 
L 959.070338 217.730128 
L 961.208894 218.932933 
L 963.34745 217.151759 
L 965.486007 219.322392 
L 967.624563 221.995579 
L 969.76312 222.607907 
L 971.901676 232.386462 
L 971.901676 232.386462 
" clip-path="url(#pfcbbf55a3a)" style="fill: none; stroke: #ff0000; stroke-width: 3; stroke-linecap: square"/>
   </g>
   <g id="LineCollection_2">
    <path d="M 653.25677 313.478125 
L 653.25677 22.318125 
" clip-path="url(#pfcbbf55a3a)" style="fill: none; stroke-dasharray: 5.55,2.4; stroke-dashoffset: 0; stroke: #ff0000; stroke-width: 1.5"/>
    <path d="M 760.184591 313.478125 
L 760.184591 22.318125 
" clip-path="url(#pfcbbf55a3a)" style="fill: none; stroke-dasharray: 5.55,2.4; stroke-dashoffset: 0; stroke: #ff0000; stroke-width: 1.5"/>
   </g>
   <g id="patch_8">
    <path d="M 525.050313 313.478125 
L 525.050313 22.318125 
" style="fill: none; stroke: #000000; stroke-width: 0.8; stroke-linejoin: miter; stroke-linecap: square"/>
   </g>
   <g id="patch_9">
    <path d="M 993.180312 313.478125 
L 993.180312 22.318125 
" style="fill: none; stroke: #000000; stroke-width: 0.8; stroke-linejoin: miter; stroke-linecap: square"/>
   </g>
   <g id="patch_10">
    <path d="M 525.050313 313.478125 
L 993.180312 313.478125 
" style="fill: none; stroke: #000000; stroke-width: 0.8; stroke-linejoin: miter; stroke-linecap: square"/>
   </g>
   <g id="patch_11">
    <path d="M 525.050313 22.318125 
L 993.180312 22.318125 
" style="fill: none; stroke: #000000; stroke-width: 0.8; stroke-linejoin: miter; stroke-linecap: square"/>
   </g>
   <g id="text_29">
    <!-- Corridor 0.0 -->
    <g transform="translate(723.36375 16.318125) scale(0.12 -0.12)">
     <use xlink:href="#DejaVuSans-43"/>
     <use xlink:href="#DejaVuSans-6f" transform="translate(69.824219 0)"/>
     <use xlink:href="#DejaVuSans-72" transform="translate(131.005859 0)"/>
     <use xlink:href="#DejaVuSans-72" transform="translate(170.369141 0)"/>
     <use xlink:href="#DejaVuSans-69" transform="translate(211.482422 0)"/>
     <use xlink:href="#DejaVuSans-64" transform="translate(239.265625 0)"/>
     <use xlink:href="#DejaVuSans-6f" transform="translate(302.742188 0)"/>
     <use xlink:href="#DejaVuSans-72" transform="translate(363.923828 0)"/>
     <use xlink:href="#DejaVuSans-20" transform="translate(405.037109 0)"/>
     <use xlink:href="#DejaVuSans-30" transform="translate(436.824219 0)"/>
     <use xlink:href="#DejaVuSans-2e" transform="translate(500.447266 0)"/>
     <use xlink:href="#DejaVuSans-30" transform="translate(532.234375 0)"/>
    </g>
   </g>
  </g>
 </g>
 <defs>
  <clipPath id="p9603b1d9e7">
   <rect x="42.620313" y="22.318125" width="468.13" height="291.16"/>
  </clipPath>
  <clipPath id="pfcbbf55a3a">
   <rect x="525.050313" y="22.318125" width="468.13" height="291.16"/>
  </clipPath>
 </defs>
</svg>
