<?xml version="1.0" encoding="utf-8" standalone="no"?>
<!DOCTYPE svg PUBLIC "-//W3C//DTD SVG 1.1//EN"
  "http://www.w3.org/Graphics/SVG/1.1/DTD/svg11.dtd">
<svg xmlns:xlink="http://www.w3.org/1999/xlink" width="1000.46125pt" height="351.034375pt" viewBox="0 0 1000.46125 351.034375" xmlns="http://www.w3.org/2000/svg" version="1.1">
 <metadata>
  <rdf:RDF xmlns:dc="http://purl.org/dc/elements/1.1/" xmlns:cc="http://creativecommons.org/ns#" xmlns:rdf="http://www.w3.org/1999/02/22-rdf-syntax-ns#">
   <cc:Work>
    <dc:type rdf:resource="http://purl.org/dc/dcmitype/StillImage"/>
    <dc:date>2025-10-10T12:40:11.259045</dc:date>
    <dc:format>image/svg+xml</dc:format>
    <dc:creator>
     <cc:Agent>
      <dc:title>Matplotlib v3.10.0, https://matplotlib.org/</dc:title>
     </cc:Agent>
    </dc:creator>
   </cc:Work>
  </rdf:RDF>
 </metadata>
 <defs>
  <style type="text/css">*{stroke-linejoin: round; stroke-linecap: butt}</style>
 </defs>
 <g id="figure_1">
  <g id="patch_1">
   <path d="M 0 351.034375 
L 1000.46125 351.034375 
L 1000.46125 0 
L 0 0 
z
" style="fill: #ffffff"/>
  </g>
  <g id="axes_1">
   <g id="patch_2">
    <path d="M 43.78125 313.478125 
L 511.37125 313.478125 
L 511.37125 22.318125 
L 43.78125 22.318125 
z
" style="fill: #ffffff"/>
   </g>
   <g id="FillBetweenPolyCollection_1">
    <path d="M 65.035341 280.801777 
L 65.035341 291.857151 
L 67.888239 290.788308 
L 70.741137 289.926044 
L 73.594035 289.819564 
L 76.446933 289.049348 
L 79.299831 286.771169 
L 82.15273 285.266249 
L 85.005628 285.198058 
L 87.858526 285.658721 
L 90.711424 286.032911 
L 93.564322 285.390786 
L 96.41722 282.582518 
L 99.270118 282.013782 
L 102.123016 281.397106 
L 104.975914 281.64102 
L 107.828813 281.041894 
L 110.681711 280.60824 
L 113.534609 282.499113 
L 116.387507 284.05022 
L 119.240405 284.309076 
L 122.093303 283.692664 
L 124.946201 282.31493 
L 127.799099 282.793896 
L 130.651997 282.730336 
L 133.504896 282.064491 
L 136.357794 282.307404 
L 139.210692 280.983299 
L 142.06359 280.039251 
L 144.916488 278.877761 
L 147.769386 278.972559 
L 150.622284 278.69237 
L 153.475182 278.532462 
L 156.32808 277.912202 
L 159.180978 277.86589 
L 162.033877 277.966997 
L 164.886775 277.144725 
L 167.739673 277.201543 
L 170.592571 277.916393 
L 173.445469 278.598481 
L 176.298367 278.925828 
L 179.151265 279.275705 
L 182.004163 279.878187 
L 184.857061 280.865537 
L 187.70996 282.217176 
L 190.562858 281.805449 
L 193.415756 280.837115 
L 196.268654 279.410035 
L 199.121552 277.347887 
L 201.97445 275.73288 
L 204.827348 275.535627 
L 207.680246 275.867852 
L 210.533144 276.547761 
L 213.386043 276.726951 
L 216.238941 277.128114 
L 219.091839 278.000997 
L 221.944737 278.347331 
L 224.797635 278.162087 
L 227.650533 278.330941 
L 230.503431 278.309304 
L 233.356329 279.32596 
L 236.209227 279.577142 
L 239.062126 279.650551 
L 241.915024 279.624646 
L 244.767922 282.278142 
L 247.62082 281.55474 
L 250.473718 281.418904 
L 253.326616 283.686203 
L 256.179514 284.838232 
L 259.032412 284.86853 
L 261.88531 284.257222 
L 264.738209 282.874506 
L 267.591107 282.460218 
L 270.444005 282.380103 
L 273.296903 281.906274 
L 276.149801 282.135572 
L 279.002699 282.407769 
L 281.855597 282.935254 
L 284.708495 283.474322 
L 287.561393 283.348668 
L 290.414291 284.757859 
L 293.26719 285.328813 
L 296.120088 285.706193 
L 298.972986 285.949521 
L 301.825884 286.981637 
L 304.678782 287.518275 
L 307.53168 287.374284 
L 310.384578 287.196475 
L 313.237476 287.106396 
L 316.090374 287.162774 
L 318.943273 286.403329 
L 321.796171 284.932548 
L 324.649069 284.929399 
L 327.501967 285.316143 
L 330.354865 285.70691 
L 333.207763 286.722026 
L 336.060661 286.807649 
L 338.913559 286.90527 
L 341.766457 286.433539 
L 344.619356 284.820385 
L 347.472254 286.347963 
L 350.325152 287.453992 
L 353.17805 287.880855 
L 356.030948 287.865797 
L 358.883846 287.651023 
L 361.736744 288.185987 
L 364.589642 288.623613 
L 367.44254 289.268267 
L 370.295439 288.331112 
L 373.148337 288.919426 
L 376.001235 288.950757 
L 378.854133 289.589552 
L 381.707031 289.040868 
L 384.559929 289.333991 
L 387.412827 288.683316 
L 390.265725 287.966388 
L 393.118623 287.741233 
L 395.971522 287.945997 
L 398.82442 287.715903 
L 401.677318 287.780957 
L 404.530216 287.470762 
L 407.383114 287.195815 
L 410.236012 287.728428 
L 413.08891 287.654368 
L 415.941808 291.634074 
L 418.794706 290.063147 
L 421.647604 285.622427 
L 424.500503 283.576609 
L 427.353401 282.507635 
L 430.206299 280.59737 
L 433.059197 281.092123 
L 435.912095 286.208518 
L 438.764993 284.905032 
L 441.617891 284.615834 
L 444.470789 288.277423 
L 447.323687 291.03975 
L 450.176586 292.780542 
L 453.029484 290.861937 
L 455.882382 288.719426 
L 458.73528 288.289174 
L 461.588178 288.469722 
L 464.441076 288.85782 
L 467.293974 290.61942 
L 470.146872 291.793869 
L 472.99977 291.820781 
L 475.852669 290.941439 
L 478.705567 288.898744 
L 481.558465 286.679634 
L 484.411363 284.962138 
L 487.264261 285.777769 
L 490.117159 301.295538 
L 490.117159 271.299778 
L 490.117159 271.299778 
L 487.264261 262.467537 
L 484.411363 262.312313 
L 481.558465 261.911217 
L 478.705567 261.49513 
L 475.852669 261.555347 
L 472.99977 262.968944 
L 470.146872 265.008943 
L 467.293974 265.563871 
L 464.441076 267.263805 
L 461.588178 266.890713 
L 458.73528 269.262672 
L 455.882382 269.081785 
L 453.029484 268.69517 
L 450.176586 266.436751 
L 447.323687 263.434547 
L 444.470789 261.774174 
L 441.617891 262.656878 
L 438.764993 261.210259 
L 435.912095 261.269632 
L 433.059197 262.813705 
L 430.206299 263.861264 
L 427.353401 265.929122 
L 424.500503 268.917405 
L 421.647604 269.951246 
L 418.794706 268.468838 
L 415.941808 268.294114 
L 413.08891 270.939132 
L 410.236012 272.281394 
L 407.383114 270.649689 
L 404.530216 270.097997 
L 401.677318 270.31179 
L 398.82442 270.712678 
L 395.971522 271.481877 
L 393.118623 272.395518 
L 390.265725 273.885854 
L 387.412827 274.950771 
L 384.559929 275.012776 
L 381.707031 274.367352 
L 378.854133 274.871411 
L 376.001235 274.33084 
L 373.148337 275.321954 
L 370.295439 275.132945 
L 367.44254 276.587741 
L 364.589642 275.691433 
L 361.736744 274.79792 
L 358.883846 273.931138 
L 356.030948 274.125824 
L 353.17805 273.672915 
L 350.325152 273.014939 
L 347.472254 271.419495 
L 344.619356 270.816169 
L 341.766457 271.489035 
L 338.913559 271.630787 
L 336.060661 272.381944 
L 333.207763 272.269653 
L 330.354865 271.67894 
L 327.501967 272.038843 
L 324.649069 272.599304 
L 321.796171 272.704007 
L 318.943273 272.21714 
L 316.090374 271.626443 
L 313.237476 272.194679 
L 310.384578 272.49052 
L 307.53168 271.611365 
L 304.678782 271.674974 
L 301.825884 272.02015 
L 298.972986 271.838396 
L 296.120088 271.850855 
L 293.26719 272.431749 
L 290.414291 270.723276 
L 287.561393 269.160621 
L 284.708495 269.108653 
L 281.855597 268.722901 
L 279.002699 267.959677 
L 276.149801 267.454394 
L 273.296903 267.072332 
L 270.444005 267.845126 
L 267.591107 267.495815 
L 264.738209 267.533637 
L 261.88531 268.086082 
L 259.032412 268.837442 
L 256.179514 269.355356 
L 253.326616 268.997916 
L 250.473718 269.506144 
L 247.62082 270.425174 
L 244.767922 271.367999 
L 241.915024 270.876743 
L 239.062126 270.769449 
L 236.209227 271.434306 
L 233.356329 271.552267 
L 230.503431 271.120141 
L 227.650533 270.360081 
L 224.797635 268.833989 
L 221.944737 268.75927 
L 219.091839 269.450031 
L 216.238941 269.918066 
L 213.386043 269.77533 
L 210.533144 269.523316 
L 207.680246 269.400409 
L 204.827348 269.596564 
L 201.97445 269.140076 
L 199.121552 270.382863 
L 196.268654 272.930994 
L 193.415756 273.456017 
L 190.562858 273.927982 
L 187.70996 273.286802 
L 184.857061 271.668418 
L 182.004163 271.451871 
L 179.151265 271.28806 
L 176.298367 271.364729 
L 173.445469 270.456201 
L 170.592571 269.780122 
L 167.739673 269.356126 
L 164.886775 270.405572 
L 162.033877 271.207099 
L 159.180978 270.960981 
L 156.32808 270.309137 
L 153.475182 269.805136 
L 150.622284 270.204078 
L 147.769386 270.962676 
L 144.916488 271.622363 
L 142.06359 273.08025 
L 139.210692 274.697673 
L 136.357794 275.213539 
L 133.504896 275.177516 
L 130.651997 275.361126 
L 127.799099 275.371778 
L 124.946201 274.081939 
L 122.093303 271.906831 
L 119.240405 265.30709 
L 116.387507 262.083436 
L 113.534609 259.88128 
L 110.681711 268.507654 
L 107.828813 272.944091 
L 104.975914 273.403777 
L 102.123016 273.561783 
L 99.270118 274.006073 
L 96.41722 274.649784 
L 93.564322 275.471149 
L 90.711424 274.804507 
L 87.858526 275.889049 
L 85.005628 276.416846 
L 82.15273 276.170381 
L 79.299831 275.511005 
L 76.446933 276.080022 
L 73.594035 277.747764 
L 70.741137 276.860981 
L 67.888239 276.722015 
L 65.035341 280.801777 
z
" clip-path="url(#p13b6b7244b)" style="fill: #1f77b4; fill-opacity: 0.3"/>
   </g>
   <g id="matplotlib.axis_1">
    <g id="xtick_1">
     <g id="line2d_1">
      <defs>
       <path id="m1d491db85f" d="M 0 0 
L 0 3.5 
" style="stroke: #000000; stroke-width: 0.8"/>
      </defs>
      <g>
       <use xlink:href="#m1d491db85f" x="65.035341" y="313.478125" style="stroke: #000000; stroke-width: 0.8"/>
      </g>
     </g>
     <g id="text_1">
      <!-- 0 -->
      <g transform="translate(61.854091 328.076563) scale(0.1 -0.1)">
       <defs>
        <path id="DejaVuSans-30" d="M 2034 4250 
Q 1547 4250 1301 3770 
Q 1056 3291 1056 2328 
Q 1056 1369 1301 889 
Q 1547 409 2034 409 
Q 2525 409 2770 889 
Q 3016 1369 3016 2328 
Q 3016 3291 2770 3770 
Q 2525 4250 2034 4250 
z
M 2034 4750 
Q 2819 4750 3233 4129 
Q 3647 3509 3647 2328 
Q 3647 1150 3233 529 
Q 2819 -91 2034 -91 
Q 1250 -91 836 529 
Q 422 1150 422 2328 
Q 422 3509 836 4129 
Q 1250 4750 2034 4750 
z
" transform="scale(0.015625)"/>
       </defs>
       <use xlink:href="#DejaVuSans-30"/>
      </g>
     </g>
    </g>
    <g id="xtick_2">
     <g id="line2d_2">
      <g>
       <use xlink:href="#m1d491db85f" x="116.387507" y="313.478125" style="stroke: #000000; stroke-width: 0.8"/>
      </g>
     </g>
     <g id="text_2">
      <!-- 18 -->
      <g transform="translate(110.025007 328.076563) scale(0.1 -0.1)">
       <defs>
        <path id="DejaVuSans-31" d="M 794 531 
L 1825 531 
L 1825 4091 
L 703 3866 
L 703 4441 
L 1819 4666 
L 2450 4666 
L 2450 531 
L 3481 531 
L 3481 0 
L 794 0 
L 794 531 
z
" transform="scale(0.015625)"/>
        <path id="DejaVuSans-38" d="M 2034 2216 
Q 1584 2216 1326 1975 
Q 1069 1734 1069 1313 
Q 1069 891 1326 650 
Q 1584 409 2034 409 
Q 2484 409 2743 651 
Q 3003 894 3003 1313 
Q 3003 1734 2745 1975 
Q 2488 2216 2034 2216 
z
M 1403 2484 
Q 997 2584 770 2862 
Q 544 3141 544 3541 
Q 544 4100 942 4425 
Q 1341 4750 2034 4750 
Q 2731 4750 3128 4425 
Q 3525 4100 3525 3541 
Q 3525 3141 3298 2862 
Q 3072 2584 2669 2484 
Q 3125 2378 3379 2068 
Q 3634 1759 3634 1313 
Q 3634 634 3220 271 
Q 2806 -91 2034 -91 
Q 1263 -91 848 271 
Q 434 634 434 1313 
Q 434 1759 690 2068 
Q 947 2378 1403 2484 
z
M 1172 3481 
Q 1172 3119 1398 2916 
Q 1625 2713 2034 2713 
Q 2441 2713 2670 2916 
Q 2900 3119 2900 3481 
Q 2900 3844 2670 4047 
Q 2441 4250 2034 4250 
Q 1625 4250 1398 4047 
Q 1172 3844 1172 3481 
z
" transform="scale(0.015625)"/>
       </defs>
       <use xlink:href="#DejaVuSans-31"/>
       <use xlink:href="#DejaVuSans-38" transform="translate(63.623047 0)"/>
      </g>
     </g>
    </g>
    <g id="xtick_3">
     <g id="line2d_3">
      <g>
       <use xlink:href="#m1d491db85f" x="170.592571" y="313.478125" style="stroke: #000000; stroke-width: 0.8"/>
      </g>
     </g>
     <g id="text_3">
      <!-- 37 -->
      <g transform="translate(164.230071 328.076563) scale(0.1 -0.1)">
       <defs>
        <path id="DejaVuSans-33" d="M 2597 2516 
Q 3050 2419 3304 2112 
Q 3559 1806 3559 1356 
Q 3559 666 3084 287 
Q 2609 -91 1734 -91 
Q 1441 -91 1130 -33 
Q 819 25 488 141 
L 488 750 
Q 750 597 1062 519 
Q 1375 441 1716 441 
Q 2309 441 2620 675 
Q 2931 909 2931 1356 
Q 2931 1769 2642 2001 
Q 2353 2234 1838 2234 
L 1294 2234 
L 1294 2753 
L 1863 2753 
Q 2328 2753 2575 2939 
Q 2822 3125 2822 3475 
Q 2822 3834 2567 4026 
Q 2313 4219 1838 4219 
Q 1578 4219 1281 4162 
Q 984 4106 628 3988 
L 628 4550 
Q 988 4650 1302 4700 
Q 1616 4750 1894 4750 
Q 2613 4750 3031 4423 
Q 3450 4097 3450 3541 
Q 3450 3153 3228 2886 
Q 3006 2619 2597 2516 
z
" transform="scale(0.015625)"/>
        <path id="DejaVuSans-37" d="M 525 4666 
L 3525 4666 
L 3525 4397 
L 1831 0 
L 1172 0 
L 2766 4134 
L 525 4134 
L 525 4666 
z
" transform="scale(0.015625)"/>
       </defs>
       <use xlink:href="#DejaVuSans-33"/>
       <use xlink:href="#DejaVuSans-37" transform="translate(63.623047 0)"/>
      </g>
     </g>
    </g>
    <g id="xtick_4">
     <g id="line2d_4">
      <g>
       <use xlink:href="#m1d491db85f" x="221.944737" y="313.478125" style="stroke: #000000; stroke-width: 0.8"/>
      </g>
     </g>
     <g id="text_4">
      <!-- 55 -->
      <g transform="translate(215.582237 328.076563) scale(0.1 -0.1)">
       <defs>
        <path id="DejaVuSans-35" d="M 691 4666 
L 3169 4666 
L 3169 4134 
L 1269 4134 
L 1269 2991 
Q 1406 3038 1543 3061 
Q 1681 3084 1819 3084 
Q 2600 3084 3056 2656 
Q 3513 2228 3513 1497 
Q 3513 744 3044 326 
Q 2575 -91 1722 -91 
Q 1428 -91 1123 -41 
Q 819 9 494 109 
L 494 744 
Q 775 591 1075 516 
Q 1375 441 1709 441 
Q 2250 441 2565 725 
Q 2881 1009 2881 1497 
Q 2881 1984 2565 2268 
Q 2250 2553 1709 2553 
Q 1456 2553 1204 2497 
Q 953 2441 691 2322 
L 691 4666 
z
" transform="scale(0.015625)"/>
       </defs>
       <use xlink:href="#DejaVuSans-35"/>
       <use xlink:href="#DejaVuSans-35" transform="translate(63.623047 0)"/>
      </g>
     </g>
    </g>
    <g id="xtick_5">
     <g id="line2d_5">
      <g>
       <use xlink:href="#m1d491db85f" x="276.149801" y="313.478125" style="stroke: #000000; stroke-width: 0.8"/>
      </g>
     </g>
     <g id="text_5">
      <!-- 74 -->
      <g transform="translate(269.787301 328.076563) scale(0.1 -0.1)">
       <defs>
        <path id="DejaVuSans-34" d="M 2419 4116 
L 825 1625 
L 2419 1625 
L 2419 4116 
z
M 2253 4666 
L 3047 4666 
L 3047 1625 
L 3713 1625 
L 3713 1100 
L 3047 1100 
L 3047 0 
L 2419 0 
L 2419 1100 
L 313 1100 
L 313 1709 
L 2253 4666 
z
" transform="scale(0.015625)"/>
       </defs>
       <use xlink:href="#DejaVuSans-37"/>
       <use xlink:href="#DejaVuSans-34" transform="translate(63.623047 0)"/>
      </g>
     </g>
    </g>
    <g id="xtick_6">
     <g id="line2d_6">
      <g>
       <use xlink:href="#m1d491db85f" x="330.354865" y="313.478125" style="stroke: #000000; stroke-width: 0.8"/>
      </g>
     </g>
     <g id="text_6">
      <!-- 93 -->
      <g transform="translate(323.992365 328.076563) scale(0.1 -0.1)">
       <defs>
        <path id="DejaVuSans-39" d="M 703 97 
L 703 672 
Q 941 559 1184 500 
Q 1428 441 1663 441 
Q 2288 441 2617 861 
Q 2947 1281 2994 2138 
Q 2813 1869 2534 1725 
Q 2256 1581 1919 1581 
Q 1219 1581 811 2004 
Q 403 2428 403 3163 
Q 403 3881 828 4315 
Q 1253 4750 1959 4750 
Q 2769 4750 3195 4129 
Q 3622 3509 3622 2328 
Q 3622 1225 3098 567 
Q 2575 -91 1691 -91 
Q 1453 -91 1209 -44 
Q 966 3 703 97 
z
M 1959 2075 
Q 2384 2075 2632 2365 
Q 2881 2656 2881 3163 
Q 2881 3666 2632 3958 
Q 2384 4250 1959 4250 
Q 1534 4250 1286 3958 
Q 1038 3666 1038 3163 
Q 1038 2656 1286 2365 
Q 1534 2075 1959 2075 
z
" transform="scale(0.015625)"/>
       </defs>
       <use xlink:href="#DejaVuSans-39"/>
       <use xlink:href="#DejaVuSans-33" transform="translate(63.623047 0)"/>
      </g>
     </g>
    </g>
    <g id="xtick_7">
     <g id="line2d_7">
      <g>
       <use xlink:href="#m1d491db85f" x="381.707031" y="313.478125" style="stroke: #000000; stroke-width: 0.8"/>
      </g>
     </g>
     <g id="text_7">
      <!-- 111 -->
      <g transform="translate(372.163281 328.076563) scale(0.1 -0.1)">
       <use xlink:href="#DejaVuSans-31"/>
       <use xlink:href="#DejaVuSans-31" transform="translate(63.623047 0)"/>
       <use xlink:href="#DejaVuSans-31" transform="translate(127.246094 0)"/>
      </g>
     </g>
    </g>
    <g id="xtick_8">
     <g id="line2d_8">
      <g>
       <use xlink:href="#m1d491db85f" x="435.912095" y="313.478125" style="stroke: #000000; stroke-width: 0.8"/>
      </g>
     </g>
     <g id="text_8">
      <!-- 130 -->
      <g transform="translate(426.368345 328.076563) scale(0.1 -0.1)">
       <use xlink:href="#DejaVuSans-31"/>
       <use xlink:href="#DejaVuSans-33" transform="translate(63.623047 0)"/>
       <use xlink:href="#DejaVuSans-30" transform="translate(127.246094 0)"/>
      </g>
     </g>
    </g>
    <g id="xtick_9">
     <g id="line2d_9">
      <g>
       <use xlink:href="#m1d491db85f" x="490.117159" y="313.478125" style="stroke: #000000; stroke-width: 0.8"/>
      </g>
     </g>
     <g id="text_9">
      <!-- 149 -->
      <g transform="translate(480.573409 328.076563) scale(0.1 -0.1)">
       <use xlink:href="#DejaVuSans-31"/>
       <use xlink:href="#DejaVuSans-34" transform="translate(63.623047 0)"/>
       <use xlink:href="#DejaVuSans-39" transform="translate(127.246094 0)"/>
      </g>
     </g>
    </g>
    <g id="text_10">
     <!-- Spatial bin -->
     <g transform="translate(251.040313 341.754687) scale(0.1 -0.1)">
      <defs>
       <path id="DejaVuSans-53" d="M 3425 4513 
L 3425 3897 
Q 3066 4069 2747 4153 
Q 2428 4238 2131 4238 
Q 1616 4238 1336 4038 
Q 1056 3838 1056 3469 
Q 1056 3159 1242 3001 
Q 1428 2844 1947 2747 
L 2328 2669 
Q 3034 2534 3370 2195 
Q 3706 1856 3706 1288 
Q 3706 609 3251 259 
Q 2797 -91 1919 -91 
Q 1588 -91 1214 -16 
Q 841 59 441 206 
L 441 856 
Q 825 641 1194 531 
Q 1563 422 1919 422 
Q 2459 422 2753 634 
Q 3047 847 3047 1241 
Q 3047 1584 2836 1778 
Q 2625 1972 2144 2069 
L 1759 2144 
Q 1053 2284 737 2584 
Q 422 2884 422 3419 
Q 422 4038 858 4394 
Q 1294 4750 2059 4750 
Q 2388 4750 2728 4690 
Q 3069 4631 3425 4513 
z
" transform="scale(0.015625)"/>
       <path id="DejaVuSans-70" d="M 1159 525 
L 1159 -1331 
L 581 -1331 
L 581 3500 
L 1159 3500 
L 1159 2969 
Q 1341 3281 1617 3432 
Q 1894 3584 2278 3584 
Q 2916 3584 3314 3078 
Q 3713 2572 3713 1747 
Q 3713 922 3314 415 
Q 2916 -91 2278 -91 
Q 1894 -91 1617 61 
Q 1341 213 1159 525 
z
M 3116 1747 
Q 3116 2381 2855 2742 
Q 2594 3103 2138 3103 
Q 1681 3103 1420 2742 
Q 1159 2381 1159 1747 
Q 1159 1113 1420 752 
Q 1681 391 2138 391 
Q 2594 391 2855 752 
Q 3116 1113 3116 1747 
z
" transform="scale(0.015625)"/>
       <path id="DejaVuSans-61" d="M 2194 1759 
Q 1497 1759 1228 1600 
Q 959 1441 959 1056 
Q 959 750 1161 570 
Q 1363 391 1709 391 
Q 2188 391 2477 730 
Q 2766 1069 2766 1631 
L 2766 1759 
L 2194 1759 
z
M 3341 1997 
L 3341 0 
L 2766 0 
L 2766 531 
Q 2569 213 2275 61 
Q 1981 -91 1556 -91 
Q 1019 -91 701 211 
Q 384 513 384 1019 
Q 384 1609 779 1909 
Q 1175 2209 1959 2209 
L 2766 2209 
L 2766 2266 
Q 2766 2663 2505 2880 
Q 2244 3097 1772 3097 
Q 1472 3097 1187 3025 
Q 903 2953 641 2809 
L 641 3341 
Q 956 3463 1253 3523 
Q 1550 3584 1831 3584 
Q 2591 3584 2966 3190 
Q 3341 2797 3341 1997 
z
" transform="scale(0.015625)"/>
       <path id="DejaVuSans-74" d="M 1172 4494 
L 1172 3500 
L 2356 3500 
L 2356 3053 
L 1172 3053 
L 1172 1153 
Q 1172 725 1289 603 
Q 1406 481 1766 481 
L 2356 481 
L 2356 0 
L 1766 0 
Q 1100 0 847 248 
Q 594 497 594 1153 
L 594 3053 
L 172 3053 
L 172 3500 
L 594 3500 
L 594 4494 
L 1172 4494 
z
" transform="scale(0.015625)"/>
       <path id="DejaVuSans-69" d="M 603 3500 
L 1178 3500 
L 1178 0 
L 603 0 
L 603 3500 
z
M 603 4863 
L 1178 4863 
L 1178 4134 
L 603 4134 
L 603 4863 
z
" transform="scale(0.015625)"/>
       <path id="DejaVuSans-6c" d="M 603 4863 
L 1178 4863 
L 1178 0 
L 603 0 
L 603 4863 
z
" transform="scale(0.015625)"/>
       <path id="DejaVuSans-20" transform="scale(0.015625)"/>
       <path id="DejaVuSans-62" d="M 3116 1747 
Q 3116 2381 2855 2742 
Q 2594 3103 2138 3103 
Q 1681 3103 1420 2742 
Q 1159 2381 1159 1747 
Q 1159 1113 1420 752 
Q 1681 391 2138 391 
Q 2594 391 2855 752 
Q 3116 1113 3116 1747 
z
M 1159 2969 
Q 1341 3281 1617 3432 
Q 1894 3584 2278 3584 
Q 2916 3584 3314 3078 
Q 3713 2572 3713 1747 
Q 3713 922 3314 415 
Q 2916 -91 2278 -91 
Q 1894 -91 1617 61 
Q 1341 213 1159 525 
L 1159 0 
L 581 0 
L 581 4863 
L 1159 4863 
L 1159 2969 
z
" transform="scale(0.015625)"/>
       <path id="DejaVuSans-6e" d="M 3513 2113 
L 3513 0 
L 2938 0 
L 2938 2094 
Q 2938 2591 2744 2837 
Q 2550 3084 2163 3084 
Q 1697 3084 1428 2787 
Q 1159 2491 1159 1978 
L 1159 0 
L 581 0 
L 581 3500 
L 1159 3500 
L 1159 2956 
Q 1366 3272 1645 3428 
Q 1925 3584 2291 3584 
Q 2894 3584 3203 3211 
Q 3513 2838 3513 2113 
z
" transform="scale(0.015625)"/>
      </defs>
      <use xlink:href="#DejaVuSans-53"/>
      <use xlink:href="#DejaVuSans-70" transform="translate(63.476562 0)"/>
      <use xlink:href="#DejaVuSans-61" transform="translate(126.953125 0)"/>
      <use xlink:href="#DejaVuSans-74" transform="translate(188.232422 0)"/>
      <use xlink:href="#DejaVuSans-69" transform="translate(227.441406 0)"/>
      <use xlink:href="#DejaVuSans-61" transform="translate(255.224609 0)"/>
      <use xlink:href="#DejaVuSans-6c" transform="translate(316.503906 0)"/>
      <use xlink:href="#DejaVuSans-20" transform="translate(344.287109 0)"/>
      <use xlink:href="#DejaVuSans-62" transform="translate(376.074219 0)"/>
      <use xlink:href="#DejaVuSans-69" transform="translate(439.550781 0)"/>
      <use xlink:href="#DejaVuSans-6e" transform="translate(467.333984 0)"/>
     </g>
    </g>
   </g>
   <g id="matplotlib.axis_2">
    <g id="ytick_1">
     <g id="line2d_10">
      <defs>
       <path id="m106a5c4b6e" d="M 0 0 
L -3.5 0 
" style="stroke: #000000; stroke-width: 0.8"/>
      </defs>
      <g>
       <use xlink:href="#m106a5c4b6e" x="43.78125" y="287.009034" style="stroke: #000000; stroke-width: 0.8"/>
      </g>
     </g>
     <g id="text_11">
      <!-- 0.0 -->
      <g transform="translate(20.878125 290.808253) scale(0.1 -0.1)">
       <defs>
        <path id="DejaVuSans-2e" d="M 684 794 
L 1344 794 
L 1344 0 
L 684 0 
L 684 794 
z
" transform="scale(0.015625)"/>
       </defs>
       <use xlink:href="#DejaVuSans-30"/>
       <use xlink:href="#DejaVuSans-2e" transform="translate(63.623047 0)"/>
       <use xlink:href="#DejaVuSans-30" transform="translate(95.410156 0)"/>
      </g>
     </g>
    </g>
    <g id="ytick_2">
     <g id="line2d_11">
      <g>
       <use xlink:href="#m106a5c4b6e" x="43.78125" y="234.070852" style="stroke: #000000; stroke-width: 0.8"/>
      </g>
     </g>
     <g id="text_12">
      <!-- 0.2 -->
      <g transform="translate(20.878125 237.870071) scale(0.1 -0.1)">
       <defs>
        <path id="DejaVuSans-32" d="M 1228 531 
L 3431 531 
L 3431 0 
L 469 0 
L 469 531 
Q 828 903 1448 1529 
Q 2069 2156 2228 2338 
Q 2531 2678 2651 2914 
Q 2772 3150 2772 3378 
Q 2772 3750 2511 3984 
Q 2250 4219 1831 4219 
Q 1534 4219 1204 4116 
Q 875 4013 500 3803 
L 500 4441 
Q 881 4594 1212 4672 
Q 1544 4750 1819 4750 
Q 2544 4750 2975 4387 
Q 3406 4025 3406 3419 
Q 3406 3131 3298 2873 
Q 3191 2616 2906 2266 
Q 2828 2175 2409 1742 
Q 1991 1309 1228 531 
z
" transform="scale(0.015625)"/>
       </defs>
       <use xlink:href="#DejaVuSans-30"/>
       <use xlink:href="#DejaVuSans-2e" transform="translate(63.623047 0)"/>
       <use xlink:href="#DejaVuSans-32" transform="translate(95.410156 0)"/>
      </g>
     </g>
    </g>
    <g id="ytick_3">
     <g id="line2d_12">
      <g>
       <use xlink:href="#m106a5c4b6e" x="43.78125" y="181.13267" style="stroke: #000000; stroke-width: 0.8"/>
      </g>
     </g>
     <g id="text_13">
      <!-- 0.4 -->
      <g transform="translate(20.878125 184.931889) scale(0.1 -0.1)">
       <use xlink:href="#DejaVuSans-30"/>
       <use xlink:href="#DejaVuSans-2e" transform="translate(63.623047 0)"/>
       <use xlink:href="#DejaVuSans-34" transform="translate(95.410156 0)"/>
      </g>
     </g>
    </g>
    <g id="ytick_4">
     <g id="line2d_13">
      <g>
       <use xlink:href="#m106a5c4b6e" x="43.78125" y="128.194489" style="stroke: #000000; stroke-width: 0.8"/>
      </g>
     </g>
     <g id="text_14">
      <!-- 0.6 -->
      <g transform="translate(20.878125 131.993707) scale(0.1 -0.1)">
       <defs>
        <path id="DejaVuSans-36" d="M 2113 2584 
Q 1688 2584 1439 2293 
Q 1191 2003 1191 1497 
Q 1191 994 1439 701 
Q 1688 409 2113 409 
Q 2538 409 2786 701 
Q 3034 994 3034 1497 
Q 3034 2003 2786 2293 
Q 2538 2584 2113 2584 
z
M 3366 4563 
L 3366 3988 
Q 3128 4100 2886 4159 
Q 2644 4219 2406 4219 
Q 1781 4219 1451 3797 
Q 1122 3375 1075 2522 
Q 1259 2794 1537 2939 
Q 1816 3084 2150 3084 
Q 2853 3084 3261 2657 
Q 3669 2231 3669 1497 
Q 3669 778 3244 343 
Q 2819 -91 2113 -91 
Q 1303 -91 875 529 
Q 447 1150 447 2328 
Q 447 3434 972 4092 
Q 1497 4750 2381 4750 
Q 2619 4750 2861 4703 
Q 3103 4656 3366 4563 
z
" transform="scale(0.015625)"/>
       </defs>
       <use xlink:href="#DejaVuSans-30"/>
       <use xlink:href="#DejaVuSans-2e" transform="translate(63.623047 0)"/>
       <use xlink:href="#DejaVuSans-36" transform="translate(95.410156 0)"/>
      </g>
     </g>
    </g>
    <g id="ytick_5">
     <g id="line2d_14">
      <g>
       <use xlink:href="#m106a5c4b6e" x="43.78125" y="75.256307" style="stroke: #000000; stroke-width: 0.8"/>
      </g>
     </g>
     <g id="text_15">
      <!-- 0.8 -->
      <g transform="translate(20.878125 79.055526) scale(0.1 -0.1)">
       <use xlink:href="#DejaVuSans-30"/>
       <use xlink:href="#DejaVuSans-2e" transform="translate(63.623047 0)"/>
       <use xlink:href="#DejaVuSans-38" transform="translate(95.410156 0)"/>
      </g>
     </g>
    </g>
    <g id="ytick_6">
     <g id="line2d_15">
      <g>
       <use xlink:href="#m106a5c4b6e" x="43.78125" y="22.318125" style="stroke: #000000; stroke-width: 0.8"/>
      </g>
     </g>
     <g id="text_16">
      <!-- 1.0 -->
      <g transform="translate(20.878125 26.117344) scale(0.1 -0.1)">
       <use xlink:href="#DejaVuSans-31"/>
       <use xlink:href="#DejaVuSans-2e" transform="translate(63.623047 0)"/>
       <use xlink:href="#DejaVuSans-30" transform="translate(95.410156 0)"/>
      </g>
     </g>
    </g>
    <g id="text_17">
     <!-- dF/F -->
     <g transform="translate(14.798438 178.508281) rotate(-90) scale(0.1 -0.1)">
      <defs>
       <path id="DejaVuSans-64" d="M 2906 2969 
L 2906 4863 
L 3481 4863 
L 3481 0 
L 2906 0 
L 2906 525 
Q 2725 213 2448 61 
Q 2172 -91 1784 -91 
Q 1150 -91 751 415 
Q 353 922 353 1747 
Q 353 2572 751 3078 
Q 1150 3584 1784 3584 
Q 2172 3584 2448 3432 
Q 2725 3281 2906 2969 
z
M 947 1747 
Q 947 1113 1208 752 
Q 1469 391 1925 391 
Q 2381 391 2643 752 
Q 2906 1113 2906 1747 
Q 2906 2381 2643 2742 
Q 2381 3103 1925 3103 
Q 1469 3103 1208 2742 
Q 947 2381 947 1747 
z
" transform="scale(0.015625)"/>
       <path id="DejaVuSans-46" d="M 628 4666 
L 3309 4666 
L 3309 4134 
L 1259 4134 
L 1259 2759 
L 3109 2759 
L 3109 2228 
L 1259 2228 
L 1259 0 
L 628 0 
L 628 4666 
z
" transform="scale(0.015625)"/>
       <path id="DejaVuSans-2f" d="M 1625 4666 
L 2156 4666 
L 531 -594 
L 0 -594 
L 1625 4666 
z
" transform="scale(0.015625)"/>
      </defs>
      <use xlink:href="#DejaVuSans-64"/>
      <use xlink:href="#DejaVuSans-46" transform="translate(63.476562 0)"/>
      <use xlink:href="#DejaVuSans-2f" transform="translate(120.996094 0)"/>
      <use xlink:href="#DejaVuSans-46" transform="translate(154.6875 0)"/>
     </g>
    </g>
   </g>
   <g id="line2d_16">
    <path d="M 65.035341 286.329464 
L 67.888239 283.755162 
L 70.741137 283.393513 
L 73.594035 283.783664 
L 76.446933 282.564685 
L 79.299831 281.141087 
L 82.15273 280.718315 
L 85.005628 280.807452 
L 87.858526 280.773885 
L 90.711424 280.418709 
L 93.564322 280.430968 
L 96.41722 278.616151 
L 102.123016 277.479444 
L 104.975914 277.522399 
L 107.828813 276.992993 
L 110.681711 274.557947 
L 113.534609 271.190196 
L 116.387507 273.066828 
L 119.240405 274.808083 
L 122.093303 277.799747 
L 124.946201 278.198435 
L 127.799099 279.082837 
L 130.651997 279.045731 
L 133.504896 278.621003 
L 136.357794 278.760472 
L 139.210692 277.840486 
L 144.916488 275.250062 
L 147.769386 274.967617 
L 150.622284 274.448224 
L 153.475182 274.168799 
L 156.32808 274.110669 
L 159.180978 274.413435 
L 162.033877 274.587048 
L 164.886775 273.775148 
L 167.739673 273.278834 
L 173.445469 274.527341 
L 176.298367 275.145278 
L 179.151265 275.281882 
L 182.004163 275.665029 
L 184.857061 276.266978 
L 187.70996 277.751989 
L 190.562858 277.866716 
L 193.415756 277.146566 
L 196.268654 276.170514 
L 199.121552 273.865375 
L 201.97445 272.436478 
L 207.680246 272.634131 
L 210.533144 273.035538 
L 219.091839 273.725514 
L 221.944737 273.553301 
L 224.797635 273.498038 
L 227.650533 274.345511 
L 230.503431 274.714722 
L 233.356329 275.439113 
L 236.209227 275.505724 
L 239.062126 275.21 
L 241.915024 275.250695 
L 244.767922 276.823071 
L 247.62082 275.989957 
L 250.473718 275.462524 
L 253.326616 276.342059 
L 256.179514 277.096794 
L 259.032412 276.852986 
L 261.88531 276.171652 
L 264.738209 275.204071 
L 267.591107 274.978017 
L 270.444005 275.112614 
L 273.296903 274.489303 
L 279.002699 275.183723 
L 281.855597 275.829077 
L 284.708495 276.291488 
L 287.561393 276.254645 
L 290.414291 277.740568 
L 293.26719 278.880281 
L 296.120088 278.778524 
L 298.972986 278.893959 
L 301.825884 279.500894 
L 304.678782 279.596624 
L 307.53168 279.492825 
L 310.384578 279.843498 
L 318.943273 279.310235 
L 321.796171 278.818278 
L 330.354865 278.692925 
L 333.207763 279.495839 
L 336.060661 279.594797 
L 341.766457 278.961287 
L 344.619356 277.818277 
L 347.472254 278.883729 
L 350.325152 280.234465 
L 353.17805 280.776885 
L 356.030948 280.995811 
L 358.883846 280.79108 
L 367.44254 282.928004 
L 370.295439 281.732028 
L 373.148337 282.12069 
L 376.001235 281.640798 
L 378.854133 282.230481 
L 381.707031 281.70411 
L 384.559929 282.173383 
L 387.412827 281.817043 
L 393.118623 280.068375 
L 395.971522 279.713937 
L 398.82442 279.21429 
L 404.530216 278.78438 
L 407.383114 278.922752 
L 410.236012 280.004911 
L 413.08891 279.29675 
L 415.941808 279.964094 
L 418.794706 279.265992 
L 424.500503 276.247007 
L 430.206299 272.229317 
L 433.059197 271.952914 
L 435.912095 273.739075 
L 438.764993 273.057645 
L 441.617891 273.636356 
L 444.470789 275.025799 
L 447.323687 277.237148 
L 450.176586 279.608647 
L 453.029484 279.778554 
L 455.882382 278.900606 
L 458.73528 278.775923 
L 461.588178 277.680217 
L 464.441076 278.060813 
L 467.293974 278.091645 
L 470.146872 278.401406 
L 472.99977 277.394862 
L 478.705567 275.196937 
L 481.558465 274.295425 
L 484.411363 273.637226 
L 487.264261 274.122653 
L 490.117159 286.297658 
L 490.117159 286.297658 
" clip-path="url(#p13b6b7244b)" style="fill: none; stroke: #ff0000; stroke-width: 3; stroke-linecap: square"/>
   </g>
   <g id="patch_3">
    <path d="M 43.78125 313.478125 
L 43.78125 22.318125 
" style="fill: none; stroke: #000000; stroke-width: 0.8; stroke-linejoin: miter; stroke-linecap: square"/>
   </g>
   <g id="patch_4">
    <path d="M 511.37125 313.478125 
L 511.37125 22.318125 
" style="fill: none; stroke: #000000; stroke-width: 0.8; stroke-linejoin: miter; stroke-linecap: square"/>
   </g>
   <g id="patch_5">
    <path d="M 43.78125 313.478125 
L 511.37125 313.478125 
" style="fill: none; stroke: #000000; stroke-width: 0.8; stroke-linejoin: miter; stroke-linecap: square"/>
   </g>
   <g id="patch_6">
    <path d="M 43.78125 22.318125 
L 511.37125 22.318125 
" style="fill: none; stroke: #000000; stroke-width: 0.8; stroke-linejoin: miter; stroke-linecap: square"/>
   </g>
   <g id="text_18">
    <!-- Corridor -0.0 -->
    <g transform="translate(239.66 16.318125) scale(0.12 -0.12)">
     <defs>
      <path id="DejaVuSans-43" d="M 4122 4306 
L 4122 3641 
Q 3803 3938 3442 4084 
Q 3081 4231 2675 4231 
Q 1875 4231 1450 3742 
Q 1025 3253 1025 2328 
Q 1025 1406 1450 917 
Q 1875 428 2675 428 
Q 3081 428 3442 575 
Q 3803 722 4122 1019 
L 4122 359 
Q 3791 134 3420 21 
Q 3050 -91 2638 -91 
Q 1578 -91 968 557 
Q 359 1206 359 2328 
Q 359 3453 968 4101 
Q 1578 4750 2638 4750 
Q 3056 4750 3426 4639 
Q 3797 4528 4122 4306 
z
" transform="scale(0.015625)"/>
      <path id="DejaVuSans-6f" d="M 1959 3097 
Q 1497 3097 1228 2736 
Q 959 2375 959 1747 
Q 959 1119 1226 758 
Q 1494 397 1959 397 
Q 2419 397 2687 759 
Q 2956 1122 2956 1747 
Q 2956 2369 2687 2733 
Q 2419 3097 1959 3097 
z
M 1959 3584 
Q 2709 3584 3137 3096 
Q 3566 2609 3566 1747 
Q 3566 888 3137 398 
Q 2709 -91 1959 -91 
Q 1206 -91 779 398 
Q 353 888 353 1747 
Q 353 2609 779 3096 
Q 1206 3584 1959 3584 
z
" transform="scale(0.015625)"/>
      <path id="DejaVuSans-72" d="M 2631 2963 
Q 2534 3019 2420 3045 
Q 2306 3072 2169 3072 
Q 1681 3072 1420 2755 
Q 1159 2438 1159 1844 
L 1159 0 
L 581 0 
L 581 3500 
L 1159 3500 
L 1159 2956 
Q 1341 3275 1631 3429 
Q 1922 3584 2338 3584 
Q 2397 3584 2469 3576 
Q 2541 3569 2628 3553 
L 2631 2963 
z
" transform="scale(0.015625)"/>
      <path id="DejaVuSans-2d" d="M 313 2009 
L 1997 2009 
L 1997 1497 
L 313 1497 
L 313 2009 
z
" transform="scale(0.015625)"/>
     </defs>
     <use xlink:href="#DejaVuSans-43"/>
     <use xlink:href="#DejaVuSans-6f" transform="translate(69.824219 0)"/>
     <use xlink:href="#DejaVuSans-72" transform="translate(131.005859 0)"/>
     <use xlink:href="#DejaVuSans-72" transform="translate(170.369141 0)"/>
     <use xlink:href="#DejaVuSans-69" transform="translate(211.482422 0)"/>
     <use xlink:href="#DejaVuSans-64" transform="translate(239.265625 0)"/>
     <use xlink:href="#DejaVuSans-6f" transform="translate(302.742188 0)"/>
     <use xlink:href="#DejaVuSans-72" transform="translate(363.923828 0)"/>
     <use xlink:href="#DejaVuSans-20" transform="translate(405.037109 0)"/>
     <use xlink:href="#DejaVuSans-2d" transform="translate(436.824219 0)"/>
     <use xlink:href="#DejaVuSans-30" transform="translate(472.908203 0)"/>
     <use xlink:href="#DejaVuSans-2e" transform="translate(536.53125 0)"/>
     <use xlink:href="#DejaVuSans-30" transform="translate(568.318359 0)"/>
    </g>
   </g>
  </g>
  <g id="axes_2">
   <g id="patch_7">
    <path d="M 525.67125 313.478125 
L 993.26125 313.478125 
L 993.26125 22.318125 
L 525.67125 22.318125 
z
" style="fill: #ffffff"/>
   </g>
   <g id="FillBetweenPolyCollection_2">
    <path d="M 546.925341 283.471629 
L 546.925341 292.083776 
L 549.778239 289.313858 
L 552.631137 289.02761 
L 555.484035 287.160179 
L 558.336933 285.276424 
L 561.189831 284.534693 
L 564.04273 283.1234 
L 566.895628 283.019504 
L 569.748526 281.734703 
L 572.601424 280.796428 
L 575.454322 279.615912 
L 578.30722 278.439037 
L 581.160118 277.827057 
L 584.013016 276.848936 
L 586.865914 277.123672 
L 589.718813 275.258142 
L 592.571711 274.840748 
L 595.424609 275.360377 
L 598.277507 276.044369 
L 601.130405 276.844616 
L 603.983303 276.680029 
L 606.836201 277.169139 
L 609.689099 277.768994 
L 612.541997 277.99389 
L 615.394896 278.502318 
L 618.247794 279.139599 
L 621.100692 279.937124 
L 623.95359 280.469825 
L 626.806488 280.443646 
L 629.659386 280.690517 
L 632.512284 280.951616 
L 635.365182 281.312134 
L 638.21808 281.237968 
L 641.070978 281.272989 
L 643.923877 281.915974 
L 646.776775 282.875173 
L 649.629673 283.08556 
L 652.482571 282.124055 
L 655.335469 279.6118 
L 658.188367 278.075112 
L 661.041265 273.764107 
L 663.894163 271.288188 
L 666.747061 268.607549 
L 669.59996 258.351596 
L 672.452858 251.347174 
L 675.305756 246.411731 
L 678.158654 235.468079 
L 681.011552 222.239785 
L 683.86445 213.215484 
L 686.717348 205.807153 
L 689.570246 206.657832 
L 692.423144 199.584676 
L 695.276043 197.795381 
L 698.128941 203.294454 
L 700.981839 211.407365 
L 703.834737 220.726306 
L 706.687635 231.178914 
L 709.540533 239.096993 
L 712.393431 246.381232 
L 715.246329 250.858461 
L 718.099227 254.846348 
L 720.952126 260.332953 
L 723.805024 262.225315 
L 726.657922 262.995882 
L 729.51082 263.947001 
L 732.363718 264.354012 
L 735.216616 265.643823 
L 738.069514 267.504101 
L 740.922412 272.109122 
L 743.77531 275.963492 
L 746.628209 279.289193 
L 749.481107 278.964789 
L 752.334005 273.961892 
L 755.186903 273.134159 
L 758.039801 274.272406 
L 760.892699 277.982269 
L 763.745597 277.073255 
L 766.598495 279.824971 
L 769.451393 277.554664 
L 772.304291 276.026378 
L 775.15719 276.976759 
L 778.010088 275.908762 
L 780.862986 275.774614 
L 783.715884 276.496722 
L 786.568782 278.187431 
L 789.42168 279.700378 
L 792.274578 280.752468 
L 795.127476 280.50497 
L 797.980374 280.252254 
L 800.833273 279.626694 
L 803.686171 279.194204 
L 806.539069 279.93352 
L 809.391967 280.431621 
L 812.244865 280.541632 
L 815.097763 280.797888 
L 817.950661 280.75983 
L 820.803559 281.179684 
L 823.656457 281.169785 
L 826.509356 282.445868 
L 829.362254 281.33351 
L 832.215152 279.485099 
L 835.06805 278.843563 
L 837.920948 278.497649 
L 840.773846 283.386259 
L 843.626744 277.118977 
L 846.479642 278.38272 
L 849.33254 276.425628 
L 852.185439 275.795134 
L 855.038337 275.871939 
L 857.891235 276.008932 
L 860.744133 276.962586 
L 863.597031 277.299396 
L 866.449929 276.68299 
L 869.302827 276.890223 
L 872.155725 277.523897 
L 875.008623 277.794301 
L 877.861522 277.800521 
L 880.71442 277.896683 
L 883.567318 278.159846 
L 886.420216 281.731142 
L 889.273114 283.706597 
L 892.126012 283.948712 
L 894.97891 284.618304 
L 897.831808 284.930213 
L 900.684706 284.786482 
L 903.537604 283.951839 
L 906.390503 284.000533 
L 909.243401 285.043828 
L 912.096299 282.163332 
L 914.949197 279.542865 
L 917.802095 279.175136 
L 920.654993 279.433412 
L 923.507891 280.9314 
L 926.360789 280.158014 
L 929.213687 280.471697 
L 932.066586 280.820775 
L 934.919484 280.233915 
L 937.772382 279.431709 
L 940.62528 279.097488 
L 943.478178 279.255987 
L 946.331076 279.774711 
L 949.183974 280.347125 
L 952.036872 281.492296 
L 954.88977 283.728936 
L 957.742669 282.708446 
L 960.595567 283.373694 
L 963.448465 286.090193 
L 966.301363 286.461691 
L 969.154261 287.964046 
L 972.007159 294.486892 
L 972.007159 280.465314 
L 972.007159 280.465314 
L 969.154261 273.100044 
L 966.301363 272.8831 
L 963.448465 269.481136 
L 960.595567 266.791791 
L 957.742669 264.503726 
L 954.88977 267.543868 
L 952.036872 261.872921 
L 949.183974 260.089037 
L 946.331076 259.516399 
L 943.478178 259.263254 
L 940.62528 259.367772 
L 937.772382 259.662579 
L 934.919484 259.126511 
L 932.066586 258.704973 
L 929.213687 262.389442 
L 926.360789 262.542303 
L 923.507891 261.343605 
L 920.654993 258.070493 
L 917.802095 255.690496 
L 914.949197 252.617939 
L 912.096299 247.809218 
L 909.243401 240.327944 
L 906.390503 243.280265 
L 903.537604 244.855679 
L 900.684706 245.653658 
L 897.831808 245.1987 
L 894.97891 246.772263 
L 892.126012 244.555027 
L 889.273114 242.676093 
L 886.420216 246.95943 
L 883.567318 258.930076 
L 880.71442 262.824719 
L 877.861522 262.664944 
L 875.008623 263.190653 
L 872.155725 262.598373 
L 869.302827 261.517273 
L 866.449929 261.127501 
L 863.597031 261.501419 
L 860.744133 263.297309 
L 857.891235 262.564768 
L 855.038337 261.803439 
L 852.185439 261.589522 
L 849.33254 262.324669 
L 846.479642 263.392209 
L 843.626744 264.778106 
L 840.773846 265.852708 
L 837.920948 265.475391 
L 835.06805 266.398861 
L 832.215152 267.585642 
L 829.362254 268.828175 
L 826.509356 269.355663 
L 823.656457 268.098252 
L 820.803559 268.18788 
L 817.950661 266.899642 
L 815.097763 267.136543 
L 812.244865 266.870328 
L 809.391967 266.447834 
L 806.539069 265.59064 
L 803.686171 263.567817 
L 800.833273 262.144486 
L 797.980374 261.165319 
L 795.127476 259.252874 
L 792.274578 257.337451 
L 789.42168 256.635309 
L 786.568782 253.763664 
L 783.715884 250.767685 
L 780.862986 248.315792 
L 778.010088 245.573598 
L 775.15719 243.815767 
L 772.304291 242.392777 
L 769.451393 244.012492 
L 766.598495 246.490229 
L 763.745597 243.352576 
L 760.892699 242.405561 
L 758.039801 242.25097 
L 755.186903 242.935113 
L 752.334005 243.087429 
L 749.481107 240.339732 
L 746.628209 237.578304 
L 743.77531 234.404551 
L 740.922412 231.774213 
L 738.069514 227.988179 
L 735.216616 225.195758 
L 732.363718 223.004787 
L 729.51082 220.590596 
L 726.657922 217.125319 
L 723.805024 211.883589 
L 720.952126 203.776698 
L 718.099227 194.377855 
L 715.246329 194.520344 
L 712.393431 189.363796 
L 709.540533 181.402842 
L 706.687635 171.206412 
L 703.834737 159.754931 
L 700.981839 150.257857 
L 698.128941 141.210368 
L 695.276043 134.063485 
L 692.423144 132.425184 
L 689.570246 135.087039 
L 686.717348 133.893397 
L 683.86445 136.38528 
L 681.011552 138.003379 
L 678.158654 147.562585 
L 675.305756 158.302954 
L 672.452858 170.007537 
L 669.59996 190.453994 
L 666.747061 216.716814 
L 663.894163 229.445033 
L 661.041265 246.015231 
L 658.188367 264.955379 
L 655.335469 271.861554 
L 652.482571 273.311989 
L 649.629673 273.853081 
L 646.776775 273.001245 
L 643.923877 272.349252 
L 641.070978 272.199001 
L 638.21808 272.496648 
L 635.365182 273.364714 
L 632.512284 272.847528 
L 629.659386 271.929426 
L 626.806488 271.631762 
L 623.95359 272.337871 
L 621.100692 272.368894 
L 618.247794 271.463809 
L 615.394896 270.657389 
L 612.541997 270.248237 
L 609.689099 270.641702 
L 606.836201 270.197709 
L 603.983303 269.701564 
L 601.130405 268.929499 
L 598.277507 267.750143 
L 595.424609 267.510568 
L 592.571711 267.176434 
L 589.718813 267.875913 
L 586.865914 269.94125 
L 584.013016 269.834081 
L 581.160118 269.4605 
L 578.30722 270.285319 
L 575.454322 271.587416 
L 572.601424 272.369268 
L 569.748526 272.491716 
L 566.895628 273.93067 
L 564.04273 274.127914 
L 561.189831 275.781149 
L 558.336933 276.56685 
L 555.484035 278.751822 
L 552.631137 280.546366 
L 549.778239 280.678468 
L 546.925341 283.471629 
z
" clip-path="url(#pbf88373744)" style="fill: #1f77b4; fill-opacity: 0.3"/>
   </g>
   <g id="matplotlib.axis_3">
    <g id="xtick_10">
     <g id="line2d_17">
      <g>
       <use xlink:href="#m1d491db85f" x="546.925341" y="313.478125" style="stroke: #000000; stroke-width: 0.8"/>
      </g>
     </g>
     <g id="text_19">
      <!-- 0 -->
      <g transform="translate(543.744091 328.076563) scale(0.1 -0.1)">
       <use xlink:href="#DejaVuSans-30"/>
      </g>
     </g>
    </g>
    <g id="xtick_11">
     <g id="line2d_18">
      <g>
       <use xlink:href="#m1d491db85f" x="598.277507" y="313.478125" style="stroke: #000000; stroke-width: 0.8"/>
      </g>
     </g>
     <g id="text_20">
      <!-- 18 -->
      <g transform="translate(591.915007 328.076563) scale(0.1 -0.1)">
       <use xlink:href="#DejaVuSans-31"/>
       <use xlink:href="#DejaVuSans-38" transform="translate(63.623047 0)"/>
      </g>
     </g>
    </g>
    <g id="xtick_12">
     <g id="line2d_19">
      <g>
       <use xlink:href="#m1d491db85f" x="652.482571" y="313.478125" style="stroke: #000000; stroke-width: 0.8"/>
      </g>
     </g>
     <g id="text_21">
      <!-- 37 -->
      <g transform="translate(646.120071 328.076563) scale(0.1 -0.1)">
       <use xlink:href="#DejaVuSans-33"/>
       <use xlink:href="#DejaVuSans-37" transform="translate(63.623047 0)"/>
      </g>
     </g>
    </g>
    <g id="xtick_13">
     <g id="line2d_20">
      <g>
       <use xlink:href="#m1d491db85f" x="703.834737" y="313.478125" style="stroke: #000000; stroke-width: 0.8"/>
      </g>
     </g>
     <g id="text_22">
      <!-- 55 -->
      <g transform="translate(697.472237 328.076563) scale(0.1 -0.1)">
       <use xlink:href="#DejaVuSans-35"/>
       <use xlink:href="#DejaVuSans-35" transform="translate(63.623047 0)"/>
      </g>
     </g>
    </g>
    <g id="xtick_14">
     <g id="line2d_21">
      <g>
       <use xlink:href="#m1d491db85f" x="758.039801" y="313.478125" style="stroke: #000000; stroke-width: 0.8"/>
      </g>
     </g>
     <g id="text_23">
      <!-- 74 -->
      <g transform="translate(751.677301 328.076563) scale(0.1 -0.1)">
       <use xlink:href="#DejaVuSans-37"/>
       <use xlink:href="#DejaVuSans-34" transform="translate(63.623047 0)"/>
      </g>
     </g>
    </g>
    <g id="xtick_15">
     <g id="line2d_22">
      <g>
       <use xlink:href="#m1d491db85f" x="812.244865" y="313.478125" style="stroke: #000000; stroke-width: 0.8"/>
      </g>
     </g>
     <g id="text_24">
      <!-- 93 -->
      <g transform="translate(805.882365 328.076563) scale(0.1 -0.1)">
       <use xlink:href="#DejaVuSans-39"/>
       <use xlink:href="#DejaVuSans-33" transform="translate(63.623047 0)"/>
      </g>
     </g>
    </g>
    <g id="xtick_16">
     <g id="line2d_23">
      <g>
       <use xlink:href="#m1d491db85f" x="863.597031" y="313.478125" style="stroke: #000000; stroke-width: 0.8"/>
      </g>
     </g>
     <g id="text_25">
      <!-- 111 -->
      <g transform="translate(854.053281 328.076563) scale(0.1 -0.1)">
       <use xlink:href="#DejaVuSans-31"/>
       <use xlink:href="#DejaVuSans-31" transform="translate(63.623047 0)"/>
       <use xlink:href="#DejaVuSans-31" transform="translate(127.246094 0)"/>
      </g>
     </g>
    </g>
    <g id="xtick_17">
     <g id="line2d_24">
      <g>
       <use xlink:href="#m1d491db85f" x="917.802095" y="313.478125" style="stroke: #000000; stroke-width: 0.8"/>
      </g>
     </g>
     <g id="text_26">
      <!-- 130 -->
      <g transform="translate(908.258345 328.076563) scale(0.1 -0.1)">
       <use xlink:href="#DejaVuSans-31"/>
       <use xlink:href="#DejaVuSans-33" transform="translate(63.623047 0)"/>
       <use xlink:href="#DejaVuSans-30" transform="translate(127.246094 0)"/>
      </g>
     </g>
    </g>
    <g id="xtick_18">
     <g id="line2d_25">
      <g>
       <use xlink:href="#m1d491db85f" x="972.007159" y="313.478125" style="stroke: #000000; stroke-width: 0.8"/>
      </g>
     </g>
     <g id="text_27">
      <!-- 149 -->
      <g transform="translate(962.463409 328.076563) scale(0.1 -0.1)">
       <use xlink:href="#DejaVuSans-31"/>
       <use xlink:href="#DejaVuSans-34" transform="translate(63.623047 0)"/>
       <use xlink:href="#DejaVuSans-39" transform="translate(127.246094 0)"/>
      </g>
     </g>
    </g>
    <g id="text_28">
     <!-- Spatial bin -->
     <g transform="translate(732.930312 341.754687) scale(0.1 -0.1)">
      <use xlink:href="#DejaVuSans-53"/>
      <use xlink:href="#DejaVuSans-70" transform="translate(63.476562 0)"/>
      <use xlink:href="#DejaVuSans-61" transform="translate(126.953125 0)"/>
      <use xlink:href="#DejaVuSans-74" transform="translate(188.232422 0)"/>
      <use xlink:href="#DejaVuSans-69" transform="translate(227.441406 0)"/>
      <use xlink:href="#DejaVuSans-61" transform="translate(255.224609 0)"/>
      <use xlink:href="#DejaVuSans-6c" transform="translate(316.503906 0)"/>
      <use xlink:href="#DejaVuSans-20" transform="translate(344.287109 0)"/>
      <use xlink:href="#DejaVuSans-62" transform="translate(376.074219 0)"/>
      <use xlink:href="#DejaVuSans-69" transform="translate(439.550781 0)"/>
      <use xlink:href="#DejaVuSans-6e" transform="translate(467.333984 0)"/>
     </g>
    </g>
   </g>
   <g id="matplotlib.axis_4">
    <g id="ytick_7">
     <g id="line2d_26">
      <g>
       <use xlink:href="#m106a5c4b6e" x="525.67125" y="287.009034" style="stroke: #000000; stroke-width: 0.8"/>
      </g>
     </g>
    </g>
    <g id="ytick_8">
     <g id="line2d_27">
      <g>
       <use xlink:href="#m106a5c4b6e" x="525.67125" y="234.070852" style="stroke: #000000; stroke-width: 0.8"/>
      </g>
     </g>
    </g>
    <g id="ytick_9">
     <g id="line2d_28">
      <g>
       <use xlink:href="#m106a5c4b6e" x="525.67125" y="181.13267" style="stroke: #000000; stroke-width: 0.8"/>
      </g>
     </g>
    </g>
    <g id="ytick_10">
     <g id="line2d_29">
      <g>
       <use xlink:href="#m106a5c4b6e" x="525.67125" y="128.194489" style="stroke: #000000; stroke-width: 0.8"/>
      </g>
     </g>
    </g>
    <g id="ytick_11">
     <g id="line2d_30">
      <g>
       <use xlink:href="#m106a5c4b6e" x="525.67125" y="75.256307" style="stroke: #000000; stroke-width: 0.8"/>
      </g>
     </g>
    </g>
    <g id="ytick_12">
     <g id="line2d_31">
      <g>
       <use xlink:href="#m106a5c4b6e" x="525.67125" y="22.318125" style="stroke: #000000; stroke-width: 0.8"/>
      </g>
     </g>
    </g>
   </g>
   <g id="line2d_32">
    <path d="M 546.925341 287.777702 
L 549.778239 284.996163 
L 552.631137 284.786988 
L 555.484035 282.956001 
L 558.336933 280.921637 
L 561.189831 280.157921 
L 564.04273 278.625657 
L 566.895628 278.475087 
L 569.748526 277.11321 
L 572.601424 276.582848 
L 575.454322 275.601664 
L 578.30722 274.362178 
L 581.160118 273.643779 
L 584.013016 273.341508 
L 586.865914 273.532461 
L 589.718813 271.567027 
L 592.571711 271.008591 
L 598.277507 271.897256 
L 601.130405 272.887058 
L 603.983303 273.190797 
L 609.689099 274.205348 
L 612.541997 274.121063 
L 615.394896 274.579854 
L 618.247794 275.301704 
L 621.100692 276.153009 
L 623.95359 276.403848 
L 626.806488 276.037704 
L 629.659386 276.309971 
L 632.512284 276.899572 
L 635.365182 277.338424 
L 638.21808 276.867308 
L 641.070978 276.735995 
L 643.923877 277.132613 
L 646.776775 277.938209 
L 649.629673 278.469321 
L 652.482571 277.718022 
L 655.335469 275.736677 
L 658.188367 271.515246 
L 661.041265 259.889669 
L 663.894163 250.36661 
L 666.747061 242.662181 
L 669.59996 224.402795 
L 672.452858 210.677356 
L 675.305756 202.357342 
L 678.158654 191.515332 
L 681.011552 180.121582 
L 683.86445 174.800382 
L 686.717348 169.850275 
L 689.570246 170.872435 
L 692.423144 166.00493 
L 695.276043 165.929433 
L 698.128941 172.252411 
L 700.981839 180.832611 
L 703.834737 190.240619 
L 706.687635 201.192663 
L 709.540533 210.249917 
L 712.393431 217.872514 
L 715.246329 222.689402 
L 718.099227 224.612102 
L 720.952126 232.054826 
L 723.805024 237.054452 
L 726.657922 240.060601 
L 729.51082 242.268798 
L 732.363718 243.6794 
L 735.216616 245.41979 
L 738.069514 247.74614 
L 740.922412 251.941668 
L 746.628209 258.433749 
L 749.481107 259.652261 
L 752.334005 258.524661 
L 755.186903 258.034636 
L 758.039801 258.261688 
L 760.892699 260.193915 
L 763.745597 260.212915 
L 766.598495 263.1576 
L 769.451393 260.783578 
L 772.304291 259.209577 
L 775.15719 260.396263 
L 778.010088 260.74118 
L 780.862986 262.045203 
L 783.715884 263.632204 
L 786.568782 265.975547 
L 789.42168 268.167844 
L 797.980374 270.708787 
L 800.833273 270.88559 
L 803.686171 271.381011 
L 806.539069 272.76208 
L 809.391967 273.439727 
L 815.097763 273.967216 
L 817.950661 273.829736 
L 820.803559 274.683782 
L 823.656457 274.634018 
L 826.509356 275.900765 
L 829.362254 275.080843 
L 832.215152 273.53537 
L 835.06805 272.621212 
L 837.920948 271.98652 
L 840.773846 274.619483 
L 843.626744 270.948542 
L 846.479642 270.887464 
L 849.33254 269.375149 
L 852.185439 268.692328 
L 855.038337 268.837689 
L 857.891235 269.28685 
L 860.744133 270.129947 
L 863.597031 269.400408 
L 866.449929 268.905245 
L 869.302827 269.203748 
L 872.155725 270.061135 
L 875.008623 270.492477 
L 877.861522 270.232733 
L 880.71442 270.360701 
L 883.567318 268.544961 
L 886.420216 264.345286 
L 889.273114 263.191345 
L 892.126012 264.251869 
L 894.97891 265.695283 
L 897.831808 265.064456 
L 900.684706 265.22007 
L 909.243401 262.685886 
L 912.096299 264.986275 
L 914.949197 266.080402 
L 920.654993 268.751953 
L 923.507891 271.137502 
L 926.360789 271.350158 
L 929.213687 271.43057 
L 932.066586 269.762874 
L 937.772382 269.547144 
L 940.62528 269.23263 
L 943.478178 269.25962 
L 946.331076 269.645555 
L 949.183974 270.218081 
L 952.036872 271.682608 
L 954.88977 275.636402 
L 957.742669 273.606086 
L 960.595567 275.082742 
L 963.448465 277.785665 
L 966.301363 279.672396 
L 969.154261 280.532045 
L 972.007159 287.476103 
L 972.007159 287.476103 
" clip-path="url(#pbf88373744)" style="fill: none; stroke: #ff0000; stroke-width: 3; stroke-linecap: square"/>
   </g>
   <g id="patch_8">
    <path d="M 525.67125 313.478125 
L 525.67125 22.318125 
" style="fill: none; stroke: #000000; stroke-width: 0.8; stroke-linejoin: miter; stroke-linecap: square"/>
   </g>
   <g id="patch_9">
    <path d="M 993.26125 313.478125 
L 993.26125 22.318125 
" style="fill: none; stroke: #000000; stroke-width: 0.8; stroke-linejoin: miter; stroke-linecap: square"/>
   </g>
   <g id="patch_10">
    <path d="M 525.67125 313.478125 
L 993.26125 313.478125 
" style="fill: none; stroke: #000000; stroke-width: 0.8; stroke-linejoin: miter; stroke-linecap: square"/>
   </g>
   <g id="patch_11">
    <path d="M 525.67125 22.318125 
L 993.26125 22.318125 
" style="fill: none; stroke: #000000; stroke-width: 0.8; stroke-linejoin: miter; stroke-linecap: square"/>
   </g>
   <g id="text_29">
    <!-- Corridor 50.5 -->
    <g transform="translate(719.897187 16.318125) scale(0.12 -0.12)">
     <use xlink:href="#DejaVuSans-43"/>
     <use xlink:href="#DejaVuSans-6f" transform="translate(69.824219 0)"/>
     <use xlink:href="#DejaVuSans-72" transform="translate(131.005859 0)"/>
     <use xlink:href="#DejaVuSans-72" transform="translate(170.369141 0)"/>
     <use xlink:href="#DejaVuSans-69" transform="translate(211.482422 0)"/>
     <use xlink:href="#DejaVuSans-64" transform="translate(239.265625 0)"/>
     <use xlink:href="#DejaVuSans-6f" transform="translate(302.742188 0)"/>
     <use xlink:href="#DejaVuSans-72" transform="translate(363.923828 0)"/>
     <use xlink:href="#DejaVuSans-20" transform="translate(405.037109 0)"/>
     <use xlink:href="#DejaVuSans-35" transform="translate(436.824219 0)"/>
     <use xlink:href="#DejaVuSans-30" transform="translate(500.447266 0)"/>
     <use xlink:href="#DejaVuSans-2e" transform="translate(564.070312 0)"/>
     <use xlink:href="#DejaVuSans-35" transform="translate(595.857422 0)"/>
    </g>
   </g>
  </g>
 </g>
 <defs>
  <clipPath id="p13b6b7244b">
   <rect x="43.78125" y="22.318125" width="467.59" height="291.16"/>
  </clipPath>
  <clipPath id="pbf88373744">
   <rect x="525.67125" y="22.318125" width="467.59" height="291.16"/>
  </clipPath>
 </defs>
</svg>
