<?xml version="1.0" encoding="utf-8" standalone="no"?>
<!DOCTYPE svg PUBLIC "-//W3C//DTD SVG 1.1//EN"
  "http://www.w3.org/Graphics/SVG/1.1/DTD/svg11.dtd">
<svg xmlns:xlink="http://www.w3.org/1999/xlink" width="1000.380312pt" height="351.034375pt" viewBox="0 0 1000.380312 351.034375" xmlns="http://www.w3.org/2000/svg" version="1.1">
 <metadata>
  <rdf:RDF xmlns:dc="http://purl.org/dc/elements/1.1/" xmlns:cc="http://creativecommons.org/ns#" xmlns:rdf="http://www.w3.org/1999/02/22-rdf-syntax-ns#">
   <cc:Work>
    <dc:type rdf:resource="http://purl.org/dc/dcmitype/StillImage"/>
    <dc:date>2025-11-24T14:05:46.972226</dc:date>
    <dc:format>image/svg+xml</dc:format>
    <dc:creator>
     <cc:Agent>
      <dc:title>Matplotlib v3.10.0, https://matplotlib.org/</dc:title>
     </cc:Agent>
    </dc:creator>
   </cc:Work>
  </rdf:RDF>
 </metadata>
 <defs>
  <style type="text/css">*{stroke-linejoin: round; stroke-linecap: butt}</style>
 </defs>
 <g id="figure_1">
  <g id="patch_1">
   <path d="M 0 351.034375 
L 1000.380312 351.034375 
L 1000.380312 0 
L 0 0 
z
" style="fill: #ffffff"/>
  </g>
  <g id="axes_1">
   <g id="patch_2">
    <path d="M 42.620313 313.478125 
L 510.750313 313.478125 
L 510.750313 22.318125 
L 42.620313 22.318125 
z
" style="fill: #ffffff"/>
   </g>
   <g id="FillBetweenPolyCollection_1">
    <path d="M 63.898949 271.506652 
L 63.898949 287.317353 
L 66.755142 289.983633 
L 69.611334 286.783613 
L 72.467527 282.540073 
L 75.32372 279.586707 
L 78.179913 276.176612 
L 81.036106 277.870254 
L 83.892298 276.721457 
L 86.748491 276.099311 
L 89.604684 273.826525 
L 92.460877 272.595885 
L 95.31707 272.305532 
L 98.173262 273.893357 
L 101.029455 273.016462 
L 103.885648 269.986869 
L 106.741841 273.837263 
L 109.598034 274.462636 
L 112.454226 276.242432 
L 115.310419 276.552781 
L 118.166612 276.513422 
L 121.022805 273.919277 
L 123.878998 270.102961 
L 126.73519 267.986728 
L 129.591383 267.84155 
L 132.447576 267.111328 
L 135.303769 266.528205 
L 138.159962 271.014052 
L 141.016154 272.819601 
L 143.872347 272.165999 
L 146.72854 275.449467 
L 149.584733 274.733831 
L 152.440926 273.368111 
L 155.297118 267.250149 
L 158.153311 263.864753 
L 161.009504 262.538566 
L 163.865697 259.617479 
L 166.72189 254.527955 
L 169.578082 252.737954 
L 172.434275 249.966461 
L 175.290468 248.833821 
L 178.146661 242.711454 
L 181.002854 240.517526 
L 183.859046 238.782418 
L 186.715239 235.042912 
L 189.571432 232.751314 
L 192.427625 219.241905 
L 195.283818 209.741006 
L 198.14001 201.113747 
L 200.996203 194.85316 
L 203.852396 191.040776 
L 206.708589 183.819005 
L 209.564782 176.315609 
L 212.420974 167.538043 
L 215.277167 164.34006 
L 218.13336 157.6001 
L 220.989553 151.35795 
L 223.845746 146.869336 
L 226.701938 141.82228 
L 229.558131 138.441222 
L 232.414324 138.541322 
L 235.270517 141.180005 
L 238.12671 143.076897 
L 240.982902 146.935441 
L 243.839095 149.897017 
L 246.695288 154.272362 
L 249.551481 167.366172 
L 252.407674 174.242141 
L 255.263866 183.695414 
L 258.120059 193.651979 
L 260.976252 194.418418 
L 263.832445 196.132506 
L 266.688638 197.620178 
L 269.54483 201.151908 
L 272.401023 205.986113 
L 275.257216 211.243588 
L 278.113409 213.818787 
L 280.969602 216.902088 
L 283.825795 217.782845 
L 286.681987 211.416333 
L 289.53818 206.249559 
L 292.394373 202.466347 
L 295.250566 197.08335 
L 298.106759 197.410714 
L 300.962951 202.698176 
L 303.819144 205.024521 
L 306.675337 200.093737 
L 309.53153 195.365032 
L 312.387723 195.123952 
L 315.243915 199.313535 
L 318.100108 195.866912 
L 320.956301 183.543242 
L 323.812494 181.752786 
L 326.668687 185.423444 
L 329.524879 188.710356 
L 332.381072 190.535534 
L 335.237265 190.142735 
L 338.093458 193.908258 
L 340.949651 192.587088 
L 343.805843 196.798807 
L 346.662036 199.18358 
L 349.518229 201.415163 
L 352.374422 188.328703 
L 355.230615 192.766642 
L 358.086807 193.351848 
L 360.943 191.20431 
L 363.799193 190.89533 
L 366.655386 192.681136 
L 369.511579 189.098762 
L 372.367771 177.731331 
L 375.223964 177.186056 
L 378.080157 180.082698 
L 380.93635 179.84171 
L 383.792543 177.800867 
L 386.648735 172.107355 
L 389.504928 169.450868 
L 392.361121 166.628895 
L 395.217314 166.887401 
L 398.073507 164.812142 
L 400.929699 162.664046 
L 403.785892 160.818334 
L 406.642085 153.786864 
L 409.498278 146.341703 
L 412.354471 143.469723 
L 415.210663 141.158415 
L 418.066856 140.267306 
L 420.923049 140.143137 
L 423.779242 134.568329 
L 426.635435 127.92304 
L 429.491627 130.360086 
L 432.34782 135.960676 
L 435.204013 142.310443 
L 438.060206 147.639681 
L 440.916399 147.241154 
L 443.772591 155.229367 
L 446.628784 159.573389 
L 449.484977 155.721816 
L 452.34117 152.604248 
L 455.197363 159.817357 
L 458.053555 171.524249 
L 460.909748 194.598141 
L 463.765941 204.792498 
L 466.622134 220.329799 
L 469.478327 228.487522 
L 472.334519 245.351555 
L 475.190712 242.698882 
L 478.046905 245.757876 
L 480.903098 248.898701 
L 483.759291 254.294813 
L 486.615483 257.951087 
L 489.471676 267.007299 
L 489.471676 243.45172 
L 489.471676 243.45172 
L 486.615483 235.823591 
L 483.759291 222.338911 
L 480.903098 211.582859 
L 478.046905 212.234187 
L 475.190712 206.232439 
L 472.334519 205.308156 
L 469.478327 192.566278 
L 466.622134 180.251566 
L 463.765941 159.331116 
L 460.909748 138.246399 
L 458.053555 119.91567 
L 455.197363 111.083747 
L 452.34117 109.824954 
L 449.484977 110.915842 
L 446.628784 108.573506 
L 443.772591 102.723896 
L 440.916399 98.387556 
L 438.060206 104.443807 
L 435.204013 98.611387 
L 432.34782 94.452914 
L 429.491627 88.545062 
L 426.635435 85.27637 
L 423.779242 88.519903 
L 420.923049 90.705557 
L 418.066856 91.630457 
L 415.210663 93.988666 
L 412.354471 97.29976 
L 409.498278 99.884601 
L 406.642085 103.489931 
L 403.785892 110.613102 
L 400.929699 115.242823 
L 398.073507 118.025578 
L 395.217314 120.599548 
L 392.361121 122.235578 
L 389.504928 126.810383 
L 386.648735 129.147003 
L 383.792543 136.492749 
L 380.93635 140.062491 
L 378.080157 143.466286 
L 375.223964 142.116361 
L 372.367771 143.482814 
L 369.511579 146.282316 
L 366.655386 142.817741 
L 363.799193 138.146212 
L 360.943 138.667974 
L 358.086807 142.857873 
L 355.230615 140.626233 
L 352.374422 133.204757 
L 349.518229 143.959337 
L 346.662036 148.071671 
L 343.805843 150.698942 
L 340.949651 149.608223 
L 338.093458 148.472979 
L 335.237265 145.931274 
L 332.381072 143.196339 
L 329.524879 139.926547 
L 326.668687 135.737123 
L 323.812494 131.316596 
L 320.956301 130.818109 
L 318.100108 144.97131 
L 315.243915 153.70861 
L 312.387723 153.461536 
L 309.53153 155.933074 
L 306.675337 159.270129 
L 303.819144 161.434998 
L 300.962951 155.688697 
L 298.106759 149.540102 
L 295.250566 149.723007 
L 292.394373 155.368968 
L 289.53818 162.478318 
L 286.681987 170.773837 
L 283.825795 179.754761 
L 280.969602 178.866808 
L 278.113409 173.509189 
L 275.257216 170.620075 
L 272.401023 166.825063 
L 269.54483 161.815683 
L 266.688638 157.87806 
L 263.832445 159.096205 
L 260.976252 156.704479 
L 258.120059 150.327985 
L 255.263866 137.972689 
L 252.407674 125.529979 
L 249.551481 117.257428 
L 246.695288 106.808195 
L 243.839095 102.048568 
L 240.982902 101.043126 
L 238.12671 97.427989 
L 235.270517 94.927738 
L 232.414324 94.786366 
L 229.558131 98.867642 
L 226.701938 105.16526 
L 223.845746 109.699008 
L 220.989553 112.525853 
L 218.13336 115.540891 
L 215.277167 121.38804 
L 212.420974 127.823692 
L 209.564782 135.504495 
L 206.708589 141.20676 
L 203.852396 149.107652 
L 200.996203 154.09197 
L 198.14001 157.922939 
L 195.283818 169.143565 
L 192.427625 179.945767 
L 189.571432 191.231365 
L 186.715239 192.429949 
L 183.859046 197.984599 
L 181.002854 205.510206 
L 178.146661 204.415185 
L 175.290468 214.679878 
L 172.434275 224.169105 
L 169.578082 228.625353 
L 166.72189 229.751145 
L 163.865697 234.403943 
L 161.009504 237.141722 
L 158.153311 233.989388 
L 155.297118 230.72423 
L 152.440926 237.60372 
L 149.584733 238.979353 
L 146.72854 243.63693 
L 143.872347 246.272742 
L 141.016154 236.297924 
L 138.159962 237.95851 
L 135.303769 239.976934 
L 132.447576 237.39037 
L 129.591383 233.815767 
L 126.73519 236.520725 
L 123.878998 244.680722 
L 121.022805 255.677222 
L 118.166612 260.267672 
L 115.310419 258.042246 
L 112.454226 257.742566 
L 109.598034 256.922771 
L 106.741841 254.99165 
L 103.885648 250.832245 
L 101.029455 248.963481 
L 98.173262 243.864137 
L 95.31707 239.321757 
L 92.460877 238.30281 
L 89.604684 240.998236 
L 86.748491 247.595765 
L 83.892298 251.574382 
L 81.036106 251.969456 
L 78.179913 248.763064 
L 75.32372 255.701156 
L 72.467527 261.121007 
L 69.611334 263.61891 
L 66.755142 274.962373 
L 63.898949 271.506652 
z
" clip-path="url(#pd1716b8062)" style="fill: #1f77b4; fill-opacity: 0.3"/>
   </g>
   <g id="matplotlib.axis_1">
    <g id="xtick_1">
     <g id="line2d_1">
      <defs>
       <path id="m38198ef2e5" d="M 0 0 
L 0 3.5 
" style="stroke: #000000; stroke-width: 0.8"/>
      </defs>
      <g>
       <use xlink:href="#m38198ef2e5" x="63.898949" y="313.478125" style="stroke: #000000; stroke-width: 0.8"/>
      </g>
     </g>
     <g id="text_1">
      <!-- 0 -->
      <g transform="translate(60.717699 328.076563) scale(0.1 -0.1)">
       <defs>
        <path id="DejaVuSans-30" d="M 2034 4250 
Q 1547 4250 1301 3770 
Q 1056 3291 1056 2328 
Q 1056 1369 1301 889 
Q 1547 409 2034 409 
Q 2525 409 2770 889 
Q 3016 1369 3016 2328 
Q 3016 3291 2770 3770 
Q 2525 4250 2034 4250 
z
M 2034 4750 
Q 2819 4750 3233 4129 
Q 3647 3509 3647 2328 
Q 3647 1150 3233 529 
Q 2819 -91 2034 -91 
Q 1250 -91 836 529 
Q 422 1150 422 2328 
Q 422 3509 836 4129 
Q 1250 4750 2034 4750 
z
" transform="scale(0.015625)"/>
       </defs>
       <use xlink:href="#DejaVuSans-30"/>
      </g>
     </g>
    </g>
    <g id="xtick_2">
     <g id="line2d_2">
      <g>
       <use xlink:href="#m38198ef2e5" x="115.310419" y="313.478125" style="stroke: #000000; stroke-width: 0.8"/>
      </g>
     </g>
     <g id="text_2">
      <!-- 18 -->
      <g transform="translate(108.947919 328.076563) scale(0.1 -0.1)">
       <defs>
        <path id="DejaVuSans-31" d="M 794 531 
L 1825 531 
L 1825 4091 
L 703 3866 
L 703 4441 
L 1819 4666 
L 2450 4666 
L 2450 531 
L 3481 531 
L 3481 0 
L 794 0 
L 794 531 
z
" transform="scale(0.015625)"/>
        <path id="DejaVuSans-38" d="M 2034 2216 
Q 1584 2216 1326 1975 
Q 1069 1734 1069 1313 
Q 1069 891 1326 650 
Q 1584 409 2034 409 
Q 2484 409 2743 651 
Q 3003 894 3003 1313 
Q 3003 1734 2745 1975 
Q 2488 2216 2034 2216 
z
M 1403 2484 
Q 997 2584 770 2862 
Q 544 3141 544 3541 
Q 544 4100 942 4425 
Q 1341 4750 2034 4750 
Q 2731 4750 3128 4425 
Q 3525 4100 3525 3541 
Q 3525 3141 3298 2862 
Q 3072 2584 2669 2484 
Q 3125 2378 3379 2068 
Q 3634 1759 3634 1313 
Q 3634 634 3220 271 
Q 2806 -91 2034 -91 
Q 1263 -91 848 271 
Q 434 634 434 1313 
Q 434 1759 690 2068 
Q 947 2378 1403 2484 
z
M 1172 3481 
Q 1172 3119 1398 2916 
Q 1625 2713 2034 2713 
Q 2441 2713 2670 2916 
Q 2900 3119 2900 3481 
Q 2900 3844 2670 4047 
Q 2441 4250 2034 4250 
Q 1625 4250 1398 4047 
Q 1172 3844 1172 3481 
z
" transform="scale(0.015625)"/>
       </defs>
       <use xlink:href="#DejaVuSans-31"/>
       <use xlink:href="#DejaVuSans-38" transform="translate(63.623047 0)"/>
      </g>
     </g>
    </g>
    <g id="xtick_3">
     <g id="line2d_3">
      <g>
       <use xlink:href="#m38198ef2e5" x="169.578082" y="313.478125" style="stroke: #000000; stroke-width: 0.8"/>
      </g>
     </g>
     <g id="text_3">
      <!-- 37 -->
      <g transform="translate(163.215582 328.076563) scale(0.1 -0.1)">
       <defs>
        <path id="DejaVuSans-33" d="M 2597 2516 
Q 3050 2419 3304 2112 
Q 3559 1806 3559 1356 
Q 3559 666 3084 287 
Q 2609 -91 1734 -91 
Q 1441 -91 1130 -33 
Q 819 25 488 141 
L 488 750 
Q 750 597 1062 519 
Q 1375 441 1716 441 
Q 2309 441 2620 675 
Q 2931 909 2931 1356 
Q 2931 1769 2642 2001 
Q 2353 2234 1838 2234 
L 1294 2234 
L 1294 2753 
L 1863 2753 
Q 2328 2753 2575 2939 
Q 2822 3125 2822 3475 
Q 2822 3834 2567 4026 
Q 2313 4219 1838 4219 
Q 1578 4219 1281 4162 
Q 984 4106 628 3988 
L 628 4550 
Q 988 4650 1302 4700 
Q 1616 4750 1894 4750 
Q 2613 4750 3031 4423 
Q 3450 4097 3450 3541 
Q 3450 3153 3228 2886 
Q 3006 2619 2597 2516 
z
" transform="scale(0.015625)"/>
        <path id="DejaVuSans-37" d="M 525 4666 
L 3525 4666 
L 3525 4397 
L 1831 0 
L 1172 0 
L 2766 4134 
L 525 4134 
L 525 4666 
z
" transform="scale(0.015625)"/>
       </defs>
       <use xlink:href="#DejaVuSans-33"/>
       <use xlink:href="#DejaVuSans-37" transform="translate(63.623047 0)"/>
      </g>
     </g>
    </g>
    <g id="xtick_4">
     <g id="line2d_4">
      <g>
       <use xlink:href="#m38198ef2e5" x="220.989553" y="313.478125" style="stroke: #000000; stroke-width: 0.8"/>
      </g>
     </g>
     <g id="text_4">
      <!-- 55 -->
      <g transform="translate(214.627053 328.076563) scale(0.1 -0.1)">
       <defs>
        <path id="DejaVuSans-35" d="M 691 4666 
L 3169 4666 
L 3169 4134 
L 1269 4134 
L 1269 2991 
Q 1406 3038 1543 3061 
Q 1681 3084 1819 3084 
Q 2600 3084 3056 2656 
Q 3513 2228 3513 1497 
Q 3513 744 3044 326 
Q 2575 -91 1722 -91 
Q 1428 -91 1123 -41 
Q 819 9 494 109 
L 494 744 
Q 775 591 1075 516 
Q 1375 441 1709 441 
Q 2250 441 2565 725 
Q 2881 1009 2881 1497 
Q 2881 1984 2565 2268 
Q 2250 2553 1709 2553 
Q 1456 2553 1204 2497 
Q 953 2441 691 2322 
L 691 4666 
z
" transform="scale(0.015625)"/>
       </defs>
       <use xlink:href="#DejaVuSans-35"/>
       <use xlink:href="#DejaVuSans-35" transform="translate(63.623047 0)"/>
      </g>
     </g>
    </g>
    <g id="xtick_5">
     <g id="line2d_5">
      <g>
       <use xlink:href="#m38198ef2e5" x="275.257216" y="313.478125" style="stroke: #000000; stroke-width: 0.8"/>
      </g>
     </g>
     <g id="text_5">
      <!-- 74 -->
      <g transform="translate(268.894716 328.076563) scale(0.1 -0.1)">
       <defs>
        <path id="DejaVuSans-34" d="M 2419 4116 
L 825 1625 
L 2419 1625 
L 2419 4116 
z
M 2253 4666 
L 3047 4666 
L 3047 1625 
L 3713 1625 
L 3713 1100 
L 3047 1100 
L 3047 0 
L 2419 0 
L 2419 1100 
L 313 1100 
L 313 1709 
L 2253 4666 
z
" transform="scale(0.015625)"/>
       </defs>
       <use xlink:href="#DejaVuSans-37"/>
       <use xlink:href="#DejaVuSans-34" transform="translate(63.623047 0)"/>
      </g>
     </g>
    </g>
    <g id="xtick_6">
     <g id="line2d_6">
      <g>
       <use xlink:href="#m38198ef2e5" x="329.524879" y="313.478125" style="stroke: #000000; stroke-width: 0.8"/>
      </g>
     </g>
     <g id="text_6">
      <!-- 93 -->
      <g transform="translate(323.162379 328.076563) scale(0.1 -0.1)">
       <defs>
        <path id="DejaVuSans-39" d="M 703 97 
L 703 672 
Q 941 559 1184 500 
Q 1428 441 1663 441 
Q 2288 441 2617 861 
Q 2947 1281 2994 2138 
Q 2813 1869 2534 1725 
Q 2256 1581 1919 1581 
Q 1219 1581 811 2004 
Q 403 2428 403 3163 
Q 403 3881 828 4315 
Q 1253 4750 1959 4750 
Q 2769 4750 3195 4129 
Q 3622 3509 3622 2328 
Q 3622 1225 3098 567 
Q 2575 -91 1691 -91 
Q 1453 -91 1209 -44 
Q 966 3 703 97 
z
M 1959 2075 
Q 2384 2075 2632 2365 
Q 2881 2656 2881 3163 
Q 2881 3666 2632 3958 
Q 2384 4250 1959 4250 
Q 1534 4250 1286 3958 
Q 1038 3666 1038 3163 
Q 1038 2656 1286 2365 
Q 1534 2075 1959 2075 
z
" transform="scale(0.015625)"/>
       </defs>
       <use xlink:href="#DejaVuSans-39"/>
       <use xlink:href="#DejaVuSans-33" transform="translate(63.623047 0)"/>
      </g>
     </g>
    </g>
    <g id="xtick_7">
     <g id="line2d_7">
      <g>
       <use xlink:href="#m38198ef2e5" x="380.93635" y="313.478125" style="stroke: #000000; stroke-width: 0.8"/>
      </g>
     </g>
     <g id="text_7">
      <!-- 111 -->
      <g transform="translate(371.3926 328.076563) scale(0.1 -0.1)">
       <use xlink:href="#DejaVuSans-31"/>
       <use xlink:href="#DejaVuSans-31" transform="translate(63.623047 0)"/>
       <use xlink:href="#DejaVuSans-31" transform="translate(127.246094 0)"/>
      </g>
     </g>
    </g>
    <g id="xtick_8">
     <g id="line2d_8">
      <g>
       <use xlink:href="#m38198ef2e5" x="435.204013" y="313.478125" style="stroke: #000000; stroke-width: 0.8"/>
      </g>
     </g>
     <g id="text_8">
      <!-- 130 -->
      <g transform="translate(425.660263 328.076563) scale(0.1 -0.1)">
       <use xlink:href="#DejaVuSans-31"/>
       <use xlink:href="#DejaVuSans-33" transform="translate(63.623047 0)"/>
       <use xlink:href="#DejaVuSans-30" transform="translate(127.246094 0)"/>
      </g>
     </g>
    </g>
    <g id="xtick_9">
     <g id="line2d_9">
      <g>
       <use xlink:href="#m38198ef2e5" x="489.471676" y="313.478125" style="stroke: #000000; stroke-width: 0.8"/>
      </g>
     </g>
     <g id="text_9">
      <!-- 149 -->
      <g transform="translate(479.927926 328.076563) scale(0.1 -0.1)">
       <use xlink:href="#DejaVuSans-31"/>
       <use xlink:href="#DejaVuSans-34" transform="translate(63.623047 0)"/>
       <use xlink:href="#DejaVuSans-39" transform="translate(127.246094 0)"/>
      </g>
     </g>
    </g>
    <g id="text_10">
     <!-- Spatial bin -->
     <g transform="translate(250.149375 341.754687) scale(0.1 -0.1)">
      <defs>
       <path id="DejaVuSans-53" d="M 3425 4513 
L 3425 3897 
Q 3066 4069 2747 4153 
Q 2428 4238 2131 4238 
Q 1616 4238 1336 4038 
Q 1056 3838 1056 3469 
Q 1056 3159 1242 3001 
Q 1428 2844 1947 2747 
L 2328 2669 
Q 3034 2534 3370 2195 
Q 3706 1856 3706 1288 
Q 3706 609 3251 259 
Q 2797 -91 1919 -91 
Q 1588 -91 1214 -16 
Q 841 59 441 206 
L 441 856 
Q 825 641 1194 531 
Q 1563 422 1919 422 
Q 2459 422 2753 634 
Q 3047 847 3047 1241 
Q 3047 1584 2836 1778 
Q 2625 1972 2144 2069 
L 1759 2144 
Q 1053 2284 737 2584 
Q 422 2884 422 3419 
Q 422 4038 858 4394 
Q 1294 4750 2059 4750 
Q 2388 4750 2728 4690 
Q 3069 4631 3425 4513 
z
" transform="scale(0.015625)"/>
       <path id="DejaVuSans-70" d="M 1159 525 
L 1159 -1331 
L 581 -1331 
L 581 3500 
L 1159 3500 
L 1159 2969 
Q 1341 3281 1617 3432 
Q 1894 3584 2278 3584 
Q 2916 3584 3314 3078 
Q 3713 2572 3713 1747 
Q 3713 922 3314 415 
Q 2916 -91 2278 -91 
Q 1894 -91 1617 61 
Q 1341 213 1159 525 
z
M 3116 1747 
Q 3116 2381 2855 2742 
Q 2594 3103 2138 3103 
Q 1681 3103 1420 2742 
Q 1159 2381 1159 1747 
Q 1159 1113 1420 752 
Q 1681 391 2138 391 
Q 2594 391 2855 752 
Q 3116 1113 3116 1747 
z
" transform="scale(0.015625)"/>
       <path id="DejaVuSans-61" d="M 2194 1759 
Q 1497 1759 1228 1600 
Q 959 1441 959 1056 
Q 959 750 1161 570 
Q 1363 391 1709 391 
Q 2188 391 2477 730 
Q 2766 1069 2766 1631 
L 2766 1759 
L 2194 1759 
z
M 3341 1997 
L 3341 0 
L 2766 0 
L 2766 531 
Q 2569 213 2275 61 
Q 1981 -91 1556 -91 
Q 1019 -91 701 211 
Q 384 513 384 1019 
Q 384 1609 779 1909 
Q 1175 2209 1959 2209 
L 2766 2209 
L 2766 2266 
Q 2766 2663 2505 2880 
Q 2244 3097 1772 3097 
Q 1472 3097 1187 3025 
Q 903 2953 641 2809 
L 641 3341 
Q 956 3463 1253 3523 
Q 1550 3584 1831 3584 
Q 2591 3584 2966 3190 
Q 3341 2797 3341 1997 
z
" transform="scale(0.015625)"/>
       <path id="DejaVuSans-74" d="M 1172 4494 
L 1172 3500 
L 2356 3500 
L 2356 3053 
L 1172 3053 
L 1172 1153 
Q 1172 725 1289 603 
Q 1406 481 1766 481 
L 2356 481 
L 2356 0 
L 1766 0 
Q 1100 0 847 248 
Q 594 497 594 1153 
L 594 3053 
L 172 3053 
L 172 3500 
L 594 3500 
L 594 4494 
L 1172 4494 
z
" transform="scale(0.015625)"/>
       <path id="DejaVuSans-69" d="M 603 3500 
L 1178 3500 
L 1178 0 
L 603 0 
L 603 3500 
z
M 603 4863 
L 1178 4863 
L 1178 4134 
L 603 4134 
L 603 4863 
z
" transform="scale(0.015625)"/>
       <path id="DejaVuSans-6c" d="M 603 4863 
L 1178 4863 
L 1178 0 
L 603 0 
L 603 4863 
z
" transform="scale(0.015625)"/>
       <path id="DejaVuSans-20" transform="scale(0.015625)"/>
       <path id="DejaVuSans-62" d="M 3116 1747 
Q 3116 2381 2855 2742 
Q 2594 3103 2138 3103 
Q 1681 3103 1420 2742 
Q 1159 2381 1159 1747 
Q 1159 1113 1420 752 
Q 1681 391 2138 391 
Q 2594 391 2855 752 
Q 3116 1113 3116 1747 
z
M 1159 2969 
Q 1341 3281 1617 3432 
Q 1894 3584 2278 3584 
Q 2916 3584 3314 3078 
Q 3713 2572 3713 1747 
Q 3713 922 3314 415 
Q 2916 -91 2278 -91 
Q 1894 -91 1617 61 
Q 1341 213 1159 525 
L 1159 0 
L 581 0 
L 581 4863 
L 1159 4863 
L 1159 2969 
z
" transform="scale(0.015625)"/>
       <path id="DejaVuSans-6e" d="M 3513 2113 
L 3513 0 
L 2938 0 
L 2938 2094 
Q 2938 2591 2744 2837 
Q 2550 3084 2163 3084 
Q 1697 3084 1428 2787 
Q 1159 2491 1159 1978 
L 1159 0 
L 581 0 
L 581 3500 
L 1159 3500 
L 1159 2956 
Q 1366 3272 1645 3428 
Q 1925 3584 2291 3584 
Q 2894 3584 3203 3211 
Q 3513 2838 3513 2113 
z
" transform="scale(0.015625)"/>
      </defs>
      <use xlink:href="#DejaVuSans-53"/>
      <use xlink:href="#DejaVuSans-70" transform="translate(63.476562 0)"/>
      <use xlink:href="#DejaVuSans-61" transform="translate(126.953125 0)"/>
      <use xlink:href="#DejaVuSans-74" transform="translate(188.232422 0)"/>
      <use xlink:href="#DejaVuSans-69" transform="translate(227.441406 0)"/>
      <use xlink:href="#DejaVuSans-61" transform="translate(255.224609 0)"/>
      <use xlink:href="#DejaVuSans-6c" transform="translate(316.503906 0)"/>
      <use xlink:href="#DejaVuSans-20" transform="translate(344.287109 0)"/>
      <use xlink:href="#DejaVuSans-62" transform="translate(376.074219 0)"/>
      <use xlink:href="#DejaVuSans-69" transform="translate(439.550781 0)"/>
      <use xlink:href="#DejaVuSans-6e" transform="translate(467.333984 0)"/>
     </g>
    </g>
   </g>
   <g id="matplotlib.axis_2">
    <g id="ytick_1">
     <g id="line2d_10">
      <defs>
       <path id="mfb17f8bfdf" d="M 0 0 
L -3.5 0 
" style="stroke: #000000; stroke-width: 0.8"/>
      </defs>
      <g>
       <use xlink:href="#mfb17f8bfdf" x="42.620313" y="313.478125" style="stroke: #000000; stroke-width: 0.8"/>
      </g>
     </g>
     <g id="text_11">
      <!-- −1 -->
      <g transform="translate(20.878125 317.277344) scale(0.1 -0.1)">
       <defs>
        <path id="DejaVuSans-2212" d="M 678 2272 
L 4684 2272 
L 4684 1741 
L 678 1741 
L 678 2272 
z
" transform="scale(0.015625)"/>
       </defs>
       <use xlink:href="#DejaVuSans-2212"/>
       <use xlink:href="#DejaVuSans-31" transform="translate(83.789062 0)"/>
      </g>
     </g>
    </g>
    <g id="ytick_2">
     <g id="line2d_11">
      <g>
       <use xlink:href="#mfb17f8bfdf" x="42.620313" y="255.246125" style="stroke: #000000; stroke-width: 0.8"/>
      </g>
     </g>
     <g id="text_12">
      <!-- 0 -->
      <g transform="translate(29.257813 259.045344) scale(0.1 -0.1)">
       <use xlink:href="#DejaVuSans-30"/>
      </g>
     </g>
    </g>
    <g id="ytick_3">
     <g id="line2d_12">
      <g>
       <use xlink:href="#mfb17f8bfdf" x="42.620313" y="197.014125" style="stroke: #000000; stroke-width: 0.8"/>
      </g>
     </g>
     <g id="text_13">
      <!-- 1 -->
      <g transform="translate(29.257813 200.813344) scale(0.1 -0.1)">
       <use xlink:href="#DejaVuSans-31"/>
      </g>
     </g>
    </g>
    <g id="ytick_4">
     <g id="line2d_13">
      <g>
       <use xlink:href="#mfb17f8bfdf" x="42.620313" y="138.782125" style="stroke: #000000; stroke-width: 0.8"/>
      </g>
     </g>
     <g id="text_14">
      <!-- 2 -->
      <g transform="translate(29.257813 142.581344) scale(0.1 -0.1)">
       <defs>
        <path id="DejaVuSans-32" d="M 1228 531 
L 3431 531 
L 3431 0 
L 469 0 
L 469 531 
Q 828 903 1448 1529 
Q 2069 2156 2228 2338 
Q 2531 2678 2651 2914 
Q 2772 3150 2772 3378 
Q 2772 3750 2511 3984 
Q 2250 4219 1831 4219 
Q 1534 4219 1204 4116 
Q 875 4013 500 3803 
L 500 4441 
Q 881 4594 1212 4672 
Q 1544 4750 1819 4750 
Q 2544 4750 2975 4387 
Q 3406 4025 3406 3419 
Q 3406 3131 3298 2873 
Q 3191 2616 2906 2266 
Q 2828 2175 2409 1742 
Q 1991 1309 1228 531 
z
" transform="scale(0.015625)"/>
       </defs>
       <use xlink:href="#DejaVuSans-32"/>
      </g>
     </g>
    </g>
    <g id="ytick_5">
     <g id="line2d_14">
      <g>
       <use xlink:href="#mfb17f8bfdf" x="42.620313" y="80.550125" style="stroke: #000000; stroke-width: 0.8"/>
      </g>
     </g>
     <g id="text_15">
      <!-- 3 -->
      <g transform="translate(29.257813 84.349344) scale(0.1 -0.1)">
       <use xlink:href="#DejaVuSans-33"/>
      </g>
     </g>
    </g>
    <g id="ytick_6">
     <g id="line2d_15">
      <g>
       <use xlink:href="#mfb17f8bfdf" x="42.620313" y="22.318125" style="stroke: #000000; stroke-width: 0.8"/>
      </g>
     </g>
     <g id="text_16">
      <!-- 4 -->
      <g transform="translate(29.257813 26.117344) scale(0.1 -0.1)">
       <use xlink:href="#DejaVuSans-34"/>
      </g>
     </g>
    </g>
    <g id="text_17">
     <!-- z-scored dF/F -->
     <g transform="translate(14.798438 201.1325) rotate(-90) scale(0.1 -0.1)">
      <defs>
       <path id="DejaVuSans-7a" d="M 353 3500 
L 3084 3500 
L 3084 2975 
L 922 459 
L 3084 459 
L 3084 0 
L 275 0 
L 275 525 
L 2438 3041 
L 353 3041 
L 353 3500 
z
" transform="scale(0.015625)"/>
       <path id="DejaVuSans-2d" d="M 313 2009 
L 1997 2009 
L 1997 1497 
L 313 1497 
L 313 2009 
z
" transform="scale(0.015625)"/>
       <path id="DejaVuSans-73" d="M 2834 3397 
L 2834 2853 
Q 2591 2978 2328 3040 
Q 2066 3103 1784 3103 
Q 1356 3103 1142 2972 
Q 928 2841 928 2578 
Q 928 2378 1081 2264 
Q 1234 2150 1697 2047 
L 1894 2003 
Q 2506 1872 2764 1633 
Q 3022 1394 3022 966 
Q 3022 478 2636 193 
Q 2250 -91 1575 -91 
Q 1294 -91 989 -36 
Q 684 19 347 128 
L 347 722 
Q 666 556 975 473 
Q 1284 391 1588 391 
Q 1994 391 2212 530 
Q 2431 669 2431 922 
Q 2431 1156 2273 1281 
Q 2116 1406 1581 1522 
L 1381 1569 
Q 847 1681 609 1914 
Q 372 2147 372 2553 
Q 372 3047 722 3315 
Q 1072 3584 1716 3584 
Q 2034 3584 2315 3537 
Q 2597 3491 2834 3397 
z
" transform="scale(0.015625)"/>
       <path id="DejaVuSans-63" d="M 3122 3366 
L 3122 2828 
Q 2878 2963 2633 3030 
Q 2388 3097 2138 3097 
Q 1578 3097 1268 2742 
Q 959 2388 959 1747 
Q 959 1106 1268 751 
Q 1578 397 2138 397 
Q 2388 397 2633 464 
Q 2878 531 3122 666 
L 3122 134 
Q 2881 22 2623 -34 
Q 2366 -91 2075 -91 
Q 1284 -91 818 406 
Q 353 903 353 1747 
Q 353 2603 823 3093 
Q 1294 3584 2113 3584 
Q 2378 3584 2631 3529 
Q 2884 3475 3122 3366 
z
" transform="scale(0.015625)"/>
       <path id="DejaVuSans-6f" d="M 1959 3097 
Q 1497 3097 1228 2736 
Q 959 2375 959 1747 
Q 959 1119 1226 758 
Q 1494 397 1959 397 
Q 2419 397 2687 759 
Q 2956 1122 2956 1747 
Q 2956 2369 2687 2733 
Q 2419 3097 1959 3097 
z
M 1959 3584 
Q 2709 3584 3137 3096 
Q 3566 2609 3566 1747 
Q 3566 888 3137 398 
Q 2709 -91 1959 -91 
Q 1206 -91 779 398 
Q 353 888 353 1747 
Q 353 2609 779 3096 
Q 1206 3584 1959 3584 
z
" transform="scale(0.015625)"/>
       <path id="DejaVuSans-72" d="M 2631 2963 
Q 2534 3019 2420 3045 
Q 2306 3072 2169 3072 
Q 1681 3072 1420 2755 
Q 1159 2438 1159 1844 
L 1159 0 
L 581 0 
L 581 3500 
L 1159 3500 
L 1159 2956 
Q 1341 3275 1631 3429 
Q 1922 3584 2338 3584 
Q 2397 3584 2469 3576 
Q 2541 3569 2628 3553 
L 2631 2963 
z
" transform="scale(0.015625)"/>
       <path id="DejaVuSans-65" d="M 3597 1894 
L 3597 1613 
L 953 1613 
Q 991 1019 1311 708 
Q 1631 397 2203 397 
Q 2534 397 2845 478 
Q 3156 559 3463 722 
L 3463 178 
Q 3153 47 2828 -22 
Q 2503 -91 2169 -91 
Q 1331 -91 842 396 
Q 353 884 353 1716 
Q 353 2575 817 3079 
Q 1281 3584 2069 3584 
Q 2775 3584 3186 3129 
Q 3597 2675 3597 1894 
z
M 3022 2063 
Q 3016 2534 2758 2815 
Q 2500 3097 2075 3097 
Q 1594 3097 1305 2825 
Q 1016 2553 972 2059 
L 3022 2063 
z
" transform="scale(0.015625)"/>
       <path id="DejaVuSans-64" d="M 2906 2969 
L 2906 4863 
L 3481 4863 
L 3481 0 
L 2906 0 
L 2906 525 
Q 2725 213 2448 61 
Q 2172 -91 1784 -91 
Q 1150 -91 751 415 
Q 353 922 353 1747 
Q 353 2572 751 3078 
Q 1150 3584 1784 3584 
Q 2172 3584 2448 3432 
Q 2725 3281 2906 2969 
z
M 947 1747 
Q 947 1113 1208 752 
Q 1469 391 1925 391 
Q 2381 391 2643 752 
Q 2906 1113 2906 1747 
Q 2906 2381 2643 2742 
Q 2381 3103 1925 3103 
Q 1469 3103 1208 2742 
Q 947 2381 947 1747 
z
" transform="scale(0.015625)"/>
       <path id="DejaVuSans-46" d="M 628 4666 
L 3309 4666 
L 3309 4134 
L 1259 4134 
L 1259 2759 
L 3109 2759 
L 3109 2228 
L 1259 2228 
L 1259 0 
L 628 0 
L 628 4666 
z
" transform="scale(0.015625)"/>
       <path id="DejaVuSans-2f" d="M 1625 4666 
L 2156 4666 
L 531 -594 
L 0 -594 
L 1625 4666 
z
" transform="scale(0.015625)"/>
      </defs>
      <use xlink:href="#DejaVuSans-7a"/>
      <use xlink:href="#DejaVuSans-2d" transform="translate(52.490234 0)"/>
      <use xlink:href="#DejaVuSans-73" transform="translate(88.574219 0)"/>
      <use xlink:href="#DejaVuSans-63" transform="translate(140.673828 0)"/>
      <use xlink:href="#DejaVuSans-6f" transform="translate(195.654297 0)"/>
      <use xlink:href="#DejaVuSans-72" transform="translate(256.835938 0)"/>
      <use xlink:href="#DejaVuSans-65" transform="translate(295.699219 0)"/>
      <use xlink:href="#DejaVuSans-64" transform="translate(357.222656 0)"/>
      <use xlink:href="#DejaVuSans-20" transform="translate(420.699219 0)"/>
      <use xlink:href="#DejaVuSans-64" transform="translate(452.486328 0)"/>
      <use xlink:href="#DejaVuSans-46" transform="translate(515.962891 0)"/>
      <use xlink:href="#DejaVuSans-2f" transform="translate(573.482422 0)"/>
      <use xlink:href="#DejaVuSans-46" transform="translate(607.173828 0)"/>
     </g>
    </g>
   </g>
   <g id="line2d_16">
    <path d="M 63.898949 279.412002 
L 66.755142 282.473003 
L 69.611334 275.201261 
L 72.467527 271.83054 
L 75.32372 267.643931 
L 78.179913 262.469838 
L 81.036106 264.919855 
L 83.892298 264.147919 
L 86.748491 261.847538 
L 89.604684 257.412381 
L 92.460877 255.449348 
L 95.31707 255.813644 
L 98.173262 258.878747 
L 101.029455 260.989972 
L 103.885648 260.409557 
L 106.741841 264.414457 
L 112.454226 266.992499 
L 115.310419 267.297513 
L 118.166612 268.390547 
L 121.022805 264.79825 
L 123.878998 257.391842 
L 126.73519 252.253726 
L 129.591383 250.828659 
L 132.447576 252.250849 
L 135.303769 253.25257 
L 138.159962 254.486281 
L 141.016154 254.558762 
L 143.872347 259.21937 
L 146.72854 259.543198 
L 149.584733 256.856592 
L 152.440926 255.485916 
L 155.297118 248.987189 
L 158.153311 248.92707 
L 161.009504 249.840144 
L 163.865697 247.010711 
L 166.72189 242.13955 
L 169.578082 240.681654 
L 172.434275 237.067783 
L 175.290468 231.75685 
L 178.146661 223.563319 
L 181.002854 223.013866 
L 186.715239 213.73643 
L 189.571432 211.991339 
L 192.427625 199.593836 
L 198.14001 179.518343 
L 200.996203 174.472565 
L 203.852396 170.074214 
L 206.708589 162.512882 
L 209.564782 155.910052 
L 212.420974 147.680868 
L 215.277167 142.86405 
L 218.13336 136.570496 
L 220.989553 131.941902 
L 223.845746 128.284172 
L 229.558131 118.654432 
L 232.414324 116.663844 
L 235.270517 118.053871 
L 238.12671 120.252443 
L 240.982902 123.989283 
L 243.839095 125.972792 
L 246.695288 130.540279 
L 249.551481 142.3118 
L 252.407674 149.88606 
L 258.120059 171.989982 
L 260.976252 175.561448 
L 263.832445 177.614356 
L 266.688638 177.749119 
L 269.54483 181.483795 
L 272.401023 186.405588 
L 275.257216 190.931832 
L 278.113409 193.663988 
L 280.969602 197.884448 
L 283.825795 198.768803 
L 286.681987 191.095085 
L 289.53818 184.363939 
L 295.250566 173.403179 
L 298.106759 173.475408 
L 300.962951 179.193437 
L 303.819144 183.22976 
L 306.675337 179.681933 
L 309.53153 175.649053 
L 312.387723 174.292744 
L 315.243915 176.511073 
L 318.100108 170.419111 
L 320.956301 157.180676 
L 323.812494 156.534691 
L 326.668687 160.580284 
L 329.524879 164.318452 
L 332.381072 166.865937 
L 335.237265 168.037004 
L 338.093458 171.190619 
L 340.949651 171.097656 
L 343.805843 173.748875 
L 346.662036 173.627625 
L 349.518229 172.68725 
L 352.374422 160.76673 
L 355.230615 166.696438 
L 358.086807 168.104861 
L 360.943 164.936142 
L 363.799193 164.520771 
L 366.655386 167.749439 
L 369.511579 167.690539 
L 372.367771 160.607072 
L 375.223964 159.651208 
L 378.080157 161.774492 
L 380.93635 159.9521 
L 383.792543 157.146808 
L 386.648735 150.627179 
L 389.504928 148.130625 
L 392.361121 144.432237 
L 395.217314 143.743475 
L 400.929699 138.953434 
L 403.785892 135.715718 
L 406.642085 128.638397 
L 409.498278 123.113152 
L 415.210663 117.573541 
L 418.066856 115.948882 
L 420.923049 115.424347 
L 423.779242 111.544116 
L 426.635435 106.599705 
L 429.491627 109.452574 
L 432.34782 115.206795 
L 435.204013 120.460915 
L 438.060206 126.041744 
L 440.916399 122.814355 
L 443.772591 128.976631 
L 446.628784 134.073448 
L 449.484977 133.318829 
L 452.34117 131.214601 
L 455.197363 135.450552 
L 458.053555 145.71996 
L 460.909748 166.42227 
L 463.765941 182.061807 
L 466.622134 200.290683 
L 469.478327 210.5269 
L 472.334519 225.329855 
L 475.190712 224.46566 
L 478.046905 228.996032 
L 480.903098 230.24078 
L 483.759291 238.316862 
L 489.471676 255.229509 
L 489.471676 255.229509 
" clip-path="url(#pd1716b8062)" style="fill: none; stroke: #ff0000; stroke-width: 3; stroke-linecap: square"/>
   </g>
   <g id="LineCollection_1">
    <path d="M 206.708589 313.478125 
L 206.708589 22.318125 
" clip-path="url(#pd1716b8062)" style="fill: none; stroke-dasharray: 5.55,2.4; stroke-dashoffset: 0; stroke: #ff0000; stroke-width: 1.5"/>
    <path d="M 435.204013 313.478125 
L 435.204013 22.318125 
" clip-path="url(#pd1716b8062)" style="fill: none; stroke-dasharray: 5.55,2.4; stroke-dashoffset: 0; stroke: #ff0000; stroke-width: 1.5"/>
   </g>
   <g id="patch_3">
    <path d="M 42.620313 313.478125 
L 42.620313 22.318125 
" style="fill: none; stroke: #000000; stroke-width: 0.8; stroke-linejoin: miter; stroke-linecap: square"/>
   </g>
   <g id="patch_4">
    <path d="M 510.750313 313.478125 
L 510.750313 22.318125 
" style="fill: none; stroke: #000000; stroke-width: 0.8; stroke-linejoin: miter; stroke-linecap: square"/>
   </g>
   <g id="patch_5">
    <path d="M 42.620312 313.478125 
L 510.750312 313.478125 
" style="fill: none; stroke: #000000; stroke-width: 0.8; stroke-linejoin: miter; stroke-linecap: square"/>
   </g>
   <g id="patch_6">
    <path d="M 42.620312 22.318125 
L 510.750312 22.318125 
" style="fill: none; stroke: #000000; stroke-width: 0.8; stroke-linejoin: miter; stroke-linecap: square"/>
   </g>
   <g id="text_18">
    <!-- Corridor 0.0 -->
    <g transform="translate(240.93375 16.318125) scale(0.12 -0.12)">
     <defs>
      <path id="DejaVuSans-43" d="M 4122 4306 
L 4122 3641 
Q 3803 3938 3442 4084 
Q 3081 4231 2675 4231 
Q 1875 4231 1450 3742 
Q 1025 3253 1025 2328 
Q 1025 1406 1450 917 
Q 1875 428 2675 428 
Q 3081 428 3442 575 
Q 3803 722 4122 1019 
L 4122 359 
Q 3791 134 3420 21 
Q 3050 -91 2638 -91 
Q 1578 -91 968 557 
Q 359 1206 359 2328 
Q 359 3453 968 4101 
Q 1578 4750 2638 4750 
Q 3056 4750 3426 4639 
Q 3797 4528 4122 4306 
z
" transform="scale(0.015625)"/>
      <path id="DejaVuSans-2e" d="M 684 794 
L 1344 794 
L 1344 0 
L 684 0 
L 684 794 
z
" transform="scale(0.015625)"/>
     </defs>
     <use xlink:href="#DejaVuSans-43"/>
     <use xlink:href="#DejaVuSans-6f" transform="translate(69.824219 0)"/>
     <use xlink:href="#DejaVuSans-72" transform="translate(131.005859 0)"/>
     <use xlink:href="#DejaVuSans-72" transform="translate(170.369141 0)"/>
     <use xlink:href="#DejaVuSans-69" transform="translate(211.482422 0)"/>
     <use xlink:href="#DejaVuSans-64" transform="translate(239.265625 0)"/>
     <use xlink:href="#DejaVuSans-6f" transform="translate(302.742188 0)"/>
     <use xlink:href="#DejaVuSans-72" transform="translate(363.923828 0)"/>
     <use xlink:href="#DejaVuSans-20" transform="translate(405.037109 0)"/>
     <use xlink:href="#DejaVuSans-30" transform="translate(436.824219 0)"/>
     <use xlink:href="#DejaVuSans-2e" transform="translate(500.447266 0)"/>
     <use xlink:href="#DejaVuSans-30" transform="translate(532.234375 0)"/>
    </g>
   </g>
  </g>
  <g id="axes_2">
   <g id="patch_7">
    <path d="M 525.050313 313.478125 
L 993.180313 313.478125 
L 993.180313 22.318125 
L 525.050313 22.318125 
z
" style="fill: #ffffff"/>
   </g>
   <g id="FillBetweenPolyCollection_2">
    <path d="M 546.328949 274.121608 
L 546.328949 293.80815 
L 549.185142 290.978741 
L 552.041334 291.248841 
L 554.897527 292.154208 
L 557.75372 289.138349 
L 560.609913 288.890812 
L 563.466106 286.728548 
L 566.322298 287.375218 
L 569.178491 287.63162 
L 572.034684 286.213285 
L 574.890877 281.708123 
L 577.74707 282.200824 
L 580.603262 281.024823 
L 583.459455 283.625134 
L 586.315648 285.287052 
L 589.171841 287.838898 
L 592.028034 289.622338 
L 594.884226 289.438995 
L 597.740419 291.708255 
L 600.596612 290.864872 
L 603.452805 288.531673 
L 606.308998 287.240003 
L 609.16519 284.997307 
L 612.021383 283.662131 
L 614.877576 283.953733 
L 617.733769 284.618067 
L 620.589962 285.207841 
L 623.446154 283.40173 
L 626.302347 280.343547 
L 629.15854 280.607924 
L 632.014733 277.755075 
L 634.870926 279.336842 
L 637.727118 282.649901 
L 640.583311 283.969776 
L 643.439504 289.03566 
L 646.295697 289.601535 
L 649.15189 286.837137 
L 652.008082 285.494834 
L 654.864275 285.169729 
L 657.720468 285.264572 
L 660.576661 285.612551 
L 663.432854 285.441607 
L 666.289046 285.686557 
L 669.145239 283.352015 
L 672.001432 281.460461 
L 674.857625 280.685019 
L 677.713818 281.887943 
L 680.57001 283.305065 
L 683.426203 284.14308 
L 686.282396 286.030715 
L 689.138589 287.505729 
L 691.994782 287.50715 
L 694.850974 289.265286 
L 697.707167 288.334617 
L 700.56336 286.488516 
L 703.419553 285.248226 
L 706.275746 286.458257 
L 709.131938 285.909847 
L 711.988131 284.902019 
L 714.844324 284.989918 
L 717.700517 282.725279 
L 720.55671 281.715685 
L 723.412902 280.681945 
L 726.269095 278.987307 
L 729.125288 279.489152 
L 731.981481 279.970432 
L 734.837674 280.592833 
L 737.693866 280.728287 
L 740.550059 281.169713 
L 743.406252 283.294062 
L 746.262445 281.887883 
L 749.118638 283.457147 
L 751.97483 280.69181 
L 754.831023 282.443547 
L 757.687216 283.111334 
L 760.543409 281.477001 
L 763.399602 280.048365 
L 766.255795 280.944858 
L 769.111987 282.465798 
L 771.96818 283.654715 
L 774.824373 282.661652 
L 777.680566 281.672485 
L 780.536759 282.80123 
L 783.392951 286.790592 
L 786.249144 287.530145 
L 789.105337 286.324191 
L 791.96153 285.803611 
L 794.817723 289.710554 
L 797.673915 292.829736 
L 800.530108 291.111833 
L 803.386301 291.441963 
L 806.242494 290.666247 
L 809.098687 289.759628 
L 811.954879 286.589348 
L 814.811072 286.103639 
L 817.667265 284.067075 
L 820.523458 281.328014 
L 823.379651 282.611626 
L 826.235843 284.200633 
L 829.092036 285.744658 
L 831.948229 287.835408 
L 834.804422 287.529025 
L 837.660615 285.272794 
L 840.516807 281.803878 
L 843.373 282.121785 
L 846.229193 282.445316 
L 849.085386 282.90562 
L 851.941579 284.503611 
L 854.797771 285.511345 
L 857.653964 284.015449 
L 860.510157 281.221394 
L 863.36635 280.089602 
L 866.222543 270.470625 
L 869.078735 279.003805 
L 871.934928 285.222217 
L 874.791121 286.238635 
L 877.647314 279.449564 
L 880.503507 277.026516 
L 883.359699 276.906323 
L 886.215892 283.006641 
L 889.072085 281.113906 
L 891.928278 280.682102 
L 894.784471 279.638891 
L 897.640663 280.069567 
L 900.496856 283.263428 
L 903.353049 271.038551 
L 906.209242 268.107713 
L 909.065435 272.924257 
L 911.921627 273.01717 
L 914.77782 273.878171 
L 917.634013 271.258715 
L 920.490206 276.446995 
L 923.346399 278.994784 
L 926.202591 279.387266 
L 929.058784 278.034619 
L 931.914977 279.368087 
L 934.77117 282.931081 
L 937.627363 280.803896 
L 940.483555 282.161615 
L 943.339748 288.700357 
L 946.195941 289.994652 
L 949.052134 292.105284 
L 951.908327 291.88918 
L 954.764519 288.025767 
L 957.620712 281.997766 
L 960.476905 280.584501 
L 963.333098 284.57285 
L 966.189291 285.93051 
L 969.045483 294.809843 
L 971.901676 292.54459 
L 971.901676 265.404315 
L 971.901676 265.404315 
L 969.045483 262.589251 
L 966.189291 264.936876 
L 963.333098 261.197488 
L 960.476905 253.537288 
L 957.620712 229.231569 
L 954.764519 218.64051 
L 951.908327 212.497894 
L 949.052134 209.921433 
L 946.195941 210.28356 
L 943.339748 220.025078 
L 940.483555 229.804339 
L 937.627363 223.028459 
L 934.77117 218.692144 
L 931.914977 207.442207 
L 929.058784 196.698877 
L 926.202591 187.808913 
L 923.346399 208.934567 
L 920.490206 218.173251 
L 917.634013 216.490472 
L 914.77782 215.557863 
L 911.921627 214.681188 
L 909.065435 215.925374 
L 906.209242 221.151887 
L 903.353049 212.531421 
L 900.496856 223.948944 
L 897.640663 227.175538 
L 894.784471 238.50129 
L 891.928278 239.225453 
L 889.072085 248.12365 
L 886.215892 253.965434 
L 883.359699 257.341804 
L 880.503507 258.934895 
L 877.647314 258.197574 
L 874.791121 249.035748 
L 871.934928 232.516492 
L 869.078735 229.610346 
L 866.222543 251.249001 
L 863.36635 258.601999 
L 860.510157 261.629878 
L 857.653964 264.47677 
L 854.797771 264.979429 
L 851.941579 265.821051 
L 849.085386 263.317511 
L 846.229193 257.63138 
L 843.373 253.454033 
L 840.516807 254.345993 
L 837.660615 261.502077 
L 834.804422 269.403346 
L 831.948229 271.446389 
L 829.092036 270.833144 
L 826.235843 269.443374 
L 823.379651 266.542912 
L 820.523458 263.899845 
L 817.667265 262.985566 
L 814.811072 261.818414 
L 811.954879 263.808666 
L 809.098687 265.986616 
L 806.242494 267.760136 
L 803.386301 271.974977 
L 800.530108 275.568606 
L 797.673915 278.220705 
L 794.817723 275.229195 
L 791.96153 270.603739 
L 789.105337 269.639362 
L 786.249144 270.45177 
L 783.392951 267.828338 
L 780.536759 265.532345 
L 777.680566 264.198767 
L 774.824373 262.58279 
L 771.96818 259.579093 
L 769.111987 255.35406 
L 766.255795 252.531579 
L 763.399602 253.617695 
L 760.543409 257.096514 
L 757.687216 261.215718 
L 754.831023 266.020635 
L 751.97483 269.63629 
L 749.118638 261.527132 
L 746.262445 268.523603 
L 743.406252 268.665559 
L 740.550059 263.919007 
L 737.693866 263.143091 
L 734.837674 262.505915 
L 731.981481 261.951217 
L 729.125288 262.501075 
L 726.269095 267.582011 
L 723.412902 270.443355 
L 720.55671 270.394358 
L 717.700517 269.692249 
L 714.844324 269.919904 
L 711.988131 268.954564 
L 709.131938 266.478188 
L 706.275746 263.880789 
L 703.419553 258.899059 
L 700.56336 254.34903 
L 697.707167 252.09797 
L 694.850974 254.667251 
L 691.994782 268.325034 
L 689.138589 269.603731 
L 686.282396 267.794241 
L 683.426203 266.322114 
L 680.57001 265.984394 
L 677.713818 265.17324 
L 674.857625 264.001892 
L 672.001432 268.088202 
L 669.145239 269.770704 
L 666.289046 272.018112 
L 663.432854 270.946189 
L 660.576661 270.404174 
L 657.720468 268.671165 
L 654.864275 265.161713 
L 652.008082 260.971485 
L 649.15189 255.333273 
L 646.295697 245.659011 
L 643.439504 242.210796 
L 640.583311 247.661042 
L 637.727118 255.451922 
L 634.870926 258.41063 
L 632.014733 259.615282 
L 629.15854 262.220289 
L 626.302347 260.350176 
L 623.446154 267.256203 
L 620.589962 268.781757 
L 617.733769 268.552916 
L 614.877576 267.598707 
L 612.021383 267.886732 
L 609.16519 270.117379 
L 606.308998 271.504538 
L 603.452805 272.327215 
L 600.596612 274.453905 
L 597.740419 275.74477 
L 594.884226 274.47709 
L 592.028034 273.924509 
L 589.171841 271.751433 
L 586.315648 268.295707 
L 583.459455 264.586804 
L 580.603262 262.936473 
L 577.74707 266.878829 
L 574.890877 265.790664 
L 572.034684 263.169619 
L 569.178491 263.250601 
L 566.322298 263.877837 
L 563.466106 265.504101 
L 560.609913 269.330469 
L 557.75372 272.766259 
L 554.897527 276.358899 
L 552.041334 276.682492 
L 549.185142 275.719351 
L 546.328949 274.121608 
z
" clip-path="url(#p62e56ea506)" style="fill: #1f77b4; fill-opacity: 0.3"/>
   </g>
   <g id="matplotlib.axis_3">
    <g id="xtick_10">
     <g id="line2d_17">
      <g>
       <use xlink:href="#m38198ef2e5" x="546.328949" y="313.478125" style="stroke: #000000; stroke-width: 0.8"/>
      </g>
     </g>
     <g id="text_19">
      <!-- 0 -->
      <g transform="translate(543.147699 328.076563) scale(0.1 -0.1)">
       <use xlink:href="#DejaVuSans-30"/>
      </g>
     </g>
    </g>
    <g id="xtick_11">
     <g id="line2d_18">
      <g>
       <use xlink:href="#m38198ef2e5" x="597.740419" y="313.478125" style="stroke: #000000; stroke-width: 0.8"/>
      </g>
     </g>
     <g id="text_20">
      <!-- 18 -->
      <g transform="translate(591.377919 328.076563) scale(0.1 -0.1)">
       <use xlink:href="#DejaVuSans-31"/>
       <use xlink:href="#DejaVuSans-38" transform="translate(63.623047 0)"/>
      </g>
     </g>
    </g>
    <g id="xtick_12">
     <g id="line2d_19">
      <g>
       <use xlink:href="#m38198ef2e5" x="652.008082" y="313.478125" style="stroke: #000000; stroke-width: 0.8"/>
      </g>
     </g>
     <g id="text_21">
      <!-- 37 -->
      <g transform="translate(645.645582 328.076563) scale(0.1 -0.1)">
       <use xlink:href="#DejaVuSans-33"/>
       <use xlink:href="#DejaVuSans-37" transform="translate(63.623047 0)"/>
      </g>
     </g>
    </g>
    <g id="xtick_13">
     <g id="line2d_20">
      <g>
       <use xlink:href="#m38198ef2e5" x="703.419553" y="313.478125" style="stroke: #000000; stroke-width: 0.8"/>
      </g>
     </g>
     <g id="text_22">
      <!-- 55 -->
      <g transform="translate(697.057053 328.076563) scale(0.1 -0.1)">
       <use xlink:href="#DejaVuSans-35"/>
       <use xlink:href="#DejaVuSans-35" transform="translate(63.623047 0)"/>
      </g>
     </g>
    </g>
    <g id="xtick_14">
     <g id="line2d_21">
      <g>
       <use xlink:href="#m38198ef2e5" x="757.687216" y="313.478125" style="stroke: #000000; stroke-width: 0.8"/>
      </g>
     </g>
     <g id="text_23">
      <!-- 74 -->
      <g transform="translate(751.324716 328.076563) scale(0.1 -0.1)">
       <use xlink:href="#DejaVuSans-37"/>
       <use xlink:href="#DejaVuSans-34" transform="translate(63.623047 0)"/>
      </g>
     </g>
    </g>
    <g id="xtick_15">
     <g id="line2d_22">
      <g>
       <use xlink:href="#m38198ef2e5" x="811.954879" y="313.478125" style="stroke: #000000; stroke-width: 0.8"/>
      </g>
     </g>
     <g id="text_24">
      <!-- 93 -->
      <g transform="translate(805.592379 328.076563) scale(0.1 -0.1)">
       <use xlink:href="#DejaVuSans-39"/>
       <use xlink:href="#DejaVuSans-33" transform="translate(63.623047 0)"/>
      </g>
     </g>
    </g>
    <g id="xtick_16">
     <g id="line2d_23">
      <g>
       <use xlink:href="#m38198ef2e5" x="863.36635" y="313.478125" style="stroke: #000000; stroke-width: 0.8"/>
      </g>
     </g>
     <g id="text_25">
      <!-- 111 -->
      <g transform="translate(853.8226 328.076563) scale(0.1 -0.1)">
       <use xlink:href="#DejaVuSans-31"/>
       <use xlink:href="#DejaVuSans-31" transform="translate(63.623047 0)"/>
       <use xlink:href="#DejaVuSans-31" transform="translate(127.246094 0)"/>
      </g>
     </g>
    </g>
    <g id="xtick_17">
     <g id="line2d_24">
      <g>
       <use xlink:href="#m38198ef2e5" x="917.634013" y="313.478125" style="stroke: #000000; stroke-width: 0.8"/>
      </g>
     </g>
     <g id="text_26">
      <!-- 130 -->
      <g transform="translate(908.090263 328.076563) scale(0.1 -0.1)">
       <use xlink:href="#DejaVuSans-31"/>
       <use xlink:href="#DejaVuSans-33" transform="translate(63.623047 0)"/>
       <use xlink:href="#DejaVuSans-30" transform="translate(127.246094 0)"/>
      </g>
     </g>
    </g>
    <g id="xtick_18">
     <g id="line2d_25">
      <g>
       <use xlink:href="#m38198ef2e5" x="971.901676" y="313.478125" style="stroke: #000000; stroke-width: 0.8"/>
      </g>
     </g>
     <g id="text_27">
      <!-- 149 -->
      <g transform="translate(962.357926 328.076563) scale(0.1 -0.1)">
       <use xlink:href="#DejaVuSans-31"/>
       <use xlink:href="#DejaVuSans-34" transform="translate(63.623047 0)"/>
       <use xlink:href="#DejaVuSans-39" transform="translate(127.246094 0)"/>
      </g>
     </g>
    </g>
    <g id="text_28">
     <!-- Spatial bin -->
     <g transform="translate(732.579375 341.754687) scale(0.1 -0.1)">
      <use xlink:href="#DejaVuSans-53"/>
      <use xlink:href="#DejaVuSans-70" transform="translate(63.476562 0)"/>
      <use xlink:href="#DejaVuSans-61" transform="translate(126.953125 0)"/>
      <use xlink:href="#DejaVuSans-74" transform="translate(188.232422 0)"/>
      <use xlink:href="#DejaVuSans-69" transform="translate(227.441406 0)"/>
      <use xlink:href="#DejaVuSans-61" transform="translate(255.224609 0)"/>
      <use xlink:href="#DejaVuSans-6c" transform="translate(316.503906 0)"/>
      <use xlink:href="#DejaVuSans-20" transform="translate(344.287109 0)"/>
      <use xlink:href="#DejaVuSans-62" transform="translate(376.074219 0)"/>
      <use xlink:href="#DejaVuSans-69" transform="translate(439.550781 0)"/>
      <use xlink:href="#DejaVuSans-6e" transform="translate(467.333984 0)"/>
     </g>
    </g>
   </g>
   <g id="matplotlib.axis_4">
    <g id="ytick_7">
     <g id="line2d_26">
      <g>
       <use xlink:href="#mfb17f8bfdf" x="525.050313" y="313.478125" style="stroke: #000000; stroke-width: 0.8"/>
      </g>
     </g>
    </g>
    <g id="ytick_8">
     <g id="line2d_27">
      <g>
       <use xlink:href="#mfb17f8bfdf" x="525.050313" y="255.246125" style="stroke: #000000; stroke-width: 0.8"/>
      </g>
     </g>
    </g>
    <g id="ytick_9">
     <g id="line2d_28">
      <g>
       <use xlink:href="#mfb17f8bfdf" x="525.050313" y="197.014125" style="stroke: #000000; stroke-width: 0.8"/>
      </g>
     </g>
    </g>
    <g id="ytick_10">
     <g id="line2d_29">
      <g>
       <use xlink:href="#mfb17f8bfdf" x="525.050313" y="138.782125" style="stroke: #000000; stroke-width: 0.8"/>
      </g>
     </g>
    </g>
    <g id="ytick_11">
     <g id="line2d_30">
      <g>
       <use xlink:href="#mfb17f8bfdf" x="525.050313" y="80.550125" style="stroke: #000000; stroke-width: 0.8"/>
      </g>
     </g>
    </g>
    <g id="ytick_12">
     <g id="line2d_31">
      <g>
       <use xlink:href="#mfb17f8bfdf" x="525.050313" y="22.318125" style="stroke: #000000; stroke-width: 0.8"/>
      </g>
     </g>
    </g>
   </g>
   <g id="line2d_32">
    <path d="M 546.328949 283.964879 
L 549.185142 283.349046 
L 552.041334 283.965667 
L 554.897527 284.256553 
L 557.75372 280.952304 
L 560.609913 279.11064 
L 563.466106 276.116325 
L 566.322298 275.626528 
L 569.178491 275.441111 
L 572.034684 274.691452 
L 574.890877 273.749394 
L 577.74707 274.539826 
L 580.603262 271.980648 
L 583.459455 274.105969 
L 586.315648 276.791379 
L 589.171841 279.795166 
L 592.028034 281.773424 
L 594.884226 281.958043 
L 597.740419 283.726512 
L 600.596612 282.659389 
L 603.452805 280.429444 
L 606.308998 279.37227 
L 612.021383 275.774431 
L 614.877576 275.77622 
L 617.733769 276.585491 
L 620.589962 276.994799 
L 623.446154 275.328967 
L 626.302347 270.346861 
L 629.15854 271.414106 
L 632.014733 268.685179 
L 637.727118 269.050912 
L 640.583311 265.815409 
L 643.439504 265.623228 
L 646.295697 267.630273 
L 649.15189 271.085205 
L 652.008082 273.233159 
L 657.720468 276.967869 
L 660.576661 278.008362 
L 663.432854 278.193898 
L 666.289046 278.852335 
L 669.145239 276.56136 
L 672.001432 274.774332 
L 674.857625 272.343456 
L 680.57001 274.644729 
L 683.426203 275.232597 
L 689.138589 278.55473 
L 691.994782 277.916092 
L 694.850974 271.966268 
L 697.707167 270.216294 
L 700.56336 270.418773 
L 703.419553 272.073643 
L 706.275746 275.169523 
L 709.131938 276.194018 
L 711.988131 276.928292 
L 714.844324 277.454911 
L 717.700517 276.208764 
L 720.55671 276.055022 
L 723.412902 275.56265 
L 729.125288 270.995113 
L 731.981481 270.960824 
L 734.837674 271.549374 
L 737.693866 271.935689 
L 740.550059 272.54436 
L 743.406252 275.979811 
L 746.262445 275.205743 
L 749.118638 272.49214 
L 751.97483 275.16405 
L 754.831023 274.232091 
L 757.687216 272.163526 
L 760.543409 269.286758 
L 763.399602 266.83303 
L 766.255795 266.738218 
L 769.111987 268.909929 
L 771.96818 271.616904 
L 774.824373 272.622221 
L 777.680566 272.935626 
L 780.536759 274.166787 
L 783.392951 277.309465 
L 786.249144 278.990957 
L 789.105337 277.981777 
L 791.96153 278.203675 
L 794.817723 282.469874 
L 797.673915 285.525221 
L 800.530108 283.34022 
L 803.386301 281.70847 
L 806.242494 279.213192 
L 809.098687 277.873122 
L 811.954879 275.199007 
L 814.811072 273.961027 
L 817.667265 273.526321 
L 820.523458 272.61393 
L 823.379651 274.577269 
L 826.235843 276.822004 
L 831.948229 279.640899 
L 834.804422 278.466186 
L 837.660615 273.387436 
L 840.516807 268.074936 
L 843.373 267.787909 
L 846.229193 270.038348 
L 849.085386 273.111565 
L 851.941579 275.162331 
L 854.797771 275.245387 
L 857.653964 274.246109 
L 860.510157 271.425636 
L 863.36635 269.3458 
L 866.222543 260.859813 
L 869.078735 254.307076 
L 871.934928 258.869354 
L 874.791121 267.637191 
L 877.647314 268.823569 
L 883.359699 267.124064 
L 886.215892 268.486038 
L 889.072085 264.618778 
L 891.928278 259.953777 
L 894.784471 259.070091 
L 897.640663 253.622553 
L 900.496856 253.606186 
L 903.353049 241.784986 
L 906.209242 244.6298 
L 909.065435 244.424815 
L 911.921627 243.849179 
L 914.77782 244.718017 
L 917.634013 243.874594 
L 920.490206 247.310123 
L 923.346399 243.964675 
L 926.202591 233.598089 
L 929.058784 237.366748 
L 931.914977 243.405147 
L 934.77117 250.811612 
L 937.627363 251.916177 
L 940.483555 255.982977 
L 943.339748 254.362717 
L 946.195941 250.139106 
L 949.052134 251.013359 
L 954.764519 253.333138 
L 957.620712 255.614667 
L 960.476905 267.060895 
L 963.333098 272.885169 
L 966.189291 275.433693 
L 969.045483 278.699547 
L 971.901676 278.974453 
L 971.901676 278.974453 
" clip-path="url(#p62e56ea506)" style="fill: none; stroke: #ff0000; stroke-width: 3; stroke-linecap: square"/>
   </g>
   <g id="LineCollection_2">
    <path d="M 689.138589 313.478125 
L 689.138589 22.318125 
" clip-path="url(#p62e56ea506)" style="fill: none; stroke-dasharray: 5.55,2.4; stroke-dashoffset: 0; stroke: #ff0000; stroke-width: 1.5"/>
    <path d="M 917.634013 313.478125 
L 917.634013 22.318125 
" clip-path="url(#p62e56ea506)" style="fill: none; stroke-dasharray: 5.55,2.4; stroke-dashoffset: 0; stroke: #ff0000; stroke-width: 1.5"/>
   </g>
   <g id="patch_8">
    <path d="M 525.050313 313.478125 
L 525.050313 22.318125 
" style="fill: none; stroke: #000000; stroke-width: 0.8; stroke-linejoin: miter; stroke-linecap: square"/>
   </g>
   <g id="patch_9">
    <path d="M 993.180313 313.478125 
L 993.180313 22.318125 
" style="fill: none; stroke: #000000; stroke-width: 0.8; stroke-linejoin: miter; stroke-linecap: square"/>
   </g>
   <g id="patch_10">
    <path d="M 525.050313 313.478125 
L 993.180312 313.478125 
" style="fill: none; stroke: #000000; stroke-width: 0.8; stroke-linejoin: miter; stroke-linecap: square"/>
   </g>
   <g id="patch_11">
    <path d="M 525.050313 22.318125 
L 993.180312 22.318125 
" style="fill: none; stroke: #000000; stroke-width: 0.8; stroke-linejoin: miter; stroke-linecap: square"/>
   </g>
   <g id="text_29">
    <!-- Corridor 50.5 -->
    <g transform="translate(719.54625 16.318125) scale(0.12 -0.12)">
     <use xlink:href="#DejaVuSans-43"/>
     <use xlink:href="#DejaVuSans-6f" transform="translate(69.824219 0)"/>
     <use xlink:href="#DejaVuSans-72" transform="translate(131.005859 0)"/>
     <use xlink:href="#DejaVuSans-72" transform="translate(170.369141 0)"/>
     <use xlink:href="#DejaVuSans-69" transform="translate(211.482422 0)"/>
     <use xlink:href="#DejaVuSans-64" transform="translate(239.265625 0)"/>
     <use xlink:href="#DejaVuSans-6f" transform="translate(302.742188 0)"/>
     <use xlink:href="#DejaVuSans-72" transform="translate(363.923828 0)"/>
     <use xlink:href="#DejaVuSans-20" transform="translate(405.037109 0)"/>
     <use xlink:href="#DejaVuSans-35" transform="translate(436.824219 0)"/>
     <use xlink:href="#DejaVuSans-30" transform="translate(500.447266 0)"/>
     <use xlink:href="#DejaVuSans-2e" transform="translate(564.070312 0)"/>
     <use xlink:href="#DejaVuSans-35" transform="translate(595.857422 0)"/>
    </g>
   </g>
  </g>
 </g>
 <defs>
  <clipPath id="pd1716b8062">
   <rect x="42.620313" y="22.318125" width="468.13" height="291.16"/>
  </clipPath>
  <clipPath id="p62e56ea506">
   <rect x="525.050313" y="22.318125" width="468.13" height="291.16"/>
  </clipPath>
 </defs>
</svg>
