<?xml version="1.0" encoding="utf-8" standalone="no"?>
<!DOCTYPE svg PUBLIC "-//W3C//DTD SVG 1.1//EN"
  "http://www.w3.org/Graphics/SVG/1.1/DTD/svg11.dtd">
<svg xmlns:xlink="http://www.w3.org/1999/xlink" width="1000.433125pt" height="351.034375pt" viewBox="0 0 1000.433125 351.034375" xmlns="http://www.w3.org/2000/svg" version="1.1">
 <metadata>
  <rdf:RDF xmlns:dc="http://purl.org/dc/elements/1.1/" xmlns:cc="http://creativecommons.org/ns#" xmlns:rdf="http://www.w3.org/1999/02/22-rdf-syntax-ns#">
   <cc:Work>
    <dc:type rdf:resource="http://purl.org/dc/dcmitype/StillImage"/>
    <dc:date>2025-11-24T15:20:27.313847</dc:date>
    <dc:format>image/svg+xml</dc:format>
    <dc:creator>
     <cc:Agent>
      <dc:title>Matplotlib v3.10.0, https://matplotlib.org/</dc:title>
     </cc:Agent>
    </dc:creator>
   </cc:Work>
  </rdf:RDF>
 </metadata>
 <defs>
  <style type="text/css">*{stroke-linejoin: round; stroke-linecap: butt}</style>
 </defs>
 <g id="figure_1">
  <g id="patch_1">
   <path d="M 0 351.034375 
L 1000.433125 351.034375 
L 1000.433125 0 
L 0 0 
z
" style="fill: #ffffff"/>
  </g>
  <g id="axes_1">
   <g id="patch_2">
    <path d="M 40.603125 313.478125 
L 509.768125 313.478125 
L 509.768125 22.318125 
L 40.603125 22.318125 
z
" style="fill: #ffffff"/>
   </g>
   <g id="FillBetweenPolyCollection_1">
    <path d="M 61.928807 287.531967 
L 61.928807 294.492459 
L 64.072091 293.736082 
L 66.215376 294.66179 
L 68.358661 294.921085 
L 70.501945 295.036494 
L 72.64523 296.235713 
L 74.788514 296.349978 
L 76.931799 296.421305 
L 79.075084 295.840584 
L 81.218368 296.903769 
L 83.361653 297.679773 
L 85.504937 297.768755 
L 87.648222 298.030521 
L 89.791507 300.215942 
L 91.934791 299.629188 
L 94.078076 299.953033 
L 96.22136 300.540251 
L 98.364645 300.935038 
L 100.50793 301.230324 
L 102.651214 301.097848 
L 104.794499 301.846446 
L 106.937784 301.622631 
L 109.081068 300.653948 
L 111.224353 300.288163 
L 113.367637 299.404847 
L 115.510922 297.997859 
L 117.654207 295.989505 
L 119.797491 294.52751 
L 121.940776 293.069682 
L 124.08406 292.344872 
L 126.227345 292.657561 
L 128.37063 293.35056 
L 130.513914 294.375011 
L 132.657199 295.673818 
L 134.800483 295.787252 
L 136.943768 296.402333 
L 139.087053 296.259535 
L 141.230337 296.328499 
L 143.373622 298.644725 
L 145.516906 298.366891 
L 147.660191 297.415049 
L 149.803476 297.843703 
L 151.94676 299.561107 
L 154.090045 298.155925 
L 156.233329 297.228379 
L 158.376614 295.369634 
L 160.519899 293.56242 
L 162.663183 293.838649 
L 164.806468 292.398358 
L 166.949752 292.586233 
L 169.093037 293.757105 
L 171.236322 295.277997 
L 173.379606 297.08534 
L 175.522891 296.453163 
L 177.666175 297.453443 
L 179.80946 298.86159 
L 181.952745 301.589398 
L 184.096029 301.229796 
L 186.239314 301.68664 
L 188.382599 301.158141 
L 190.525883 300.501858 
L 192.669168 298.843809 
L 194.812452 299.036132 
L 196.955737 297.482548 
L 199.099022 297.340896 
L 201.242306 295.495949 
L 203.385591 293.588135 
L 205.528875 291.920573 
L 207.67216 291.83324 
L 209.815445 293.585508 
L 211.958729 293.423567 
L 214.102014 292.570733 
L 216.245298 293.131698 
L 218.388583 294.502525 
L 220.531868 294.476808 
L 222.675152 295.12215 
L 224.818437 296.247676 
L 226.961721 296.014472 
L 229.105006 297.568623 
L 231.248291 298.476608 
L 233.391575 297.530819 
L 235.53486 296.991159 
L 237.678144 296.452625 
L 239.821429 296.549378 
L 241.964714 296.200783 
L 244.107998 296.176169 
L 246.251283 297.16132 
L 248.394567 299.991169 
L 250.537852 301.424873 
L 252.681137 303.061185 
L 254.824421 302.820658 
L 256.967706 303.212733 
L 259.11099 302.941493 
L 261.254275 302.650392 
L 263.39756 303.63637 
L 265.540844 301.482132 
L 267.684129 301.896992 
L 269.827413 300.663227 
L 271.970698 298.985947 
L 274.113983 299.818925 
L 276.257267 299.349834 
L 278.400552 300.802673 
L 280.543837 301.825512 
L 282.687121 300.730271 
L 284.830406 298.377736 
L 286.97369 297.745056 
L 289.116975 297.201428 
L 291.26026 296.156475 
L 293.403544 295.277837 
L 295.546829 296.859694 
L 297.690113 296.19582 
L 299.833398 297.435998 
L 301.976683 297.463842 
L 304.119967 298.289086 
L 306.263252 297.698226 
L 308.406536 298.428433 
L 310.549821 297.428529 
L 312.693106 296.156318 
L 314.83639 294.55591 
L 316.979675 295.513134 
L 319.122959 295.299896 
L 321.266244 294.336629 
L 323.409529 294.396646 
L 325.552813 295.45814 
L 327.696098 295.720285 
L 329.839382 295.332256 
L 331.982667 296.495803 
L 334.125952 295.825477 
L 336.269236 293.603299 
L 338.412521 294.088774 
L 340.555805 293.949485 
L 342.69909 294.545334 
L 344.842375 293.823514 
L 346.985659 294.341206 
L 349.128944 295.622719 
L 351.272228 294.499489 
L 353.415513 296.103636 
L 355.558798 297.018751 
L 357.702082 298.142632 
L 359.845367 299.13465 
L 361.988651 298.317893 
L 364.131936 298.856838 
L 366.275221 296.650326 
L 368.418505 292.475559 
L 370.56179 291.748178 
L 372.705075 291.423113 
L 374.848359 289.870888 
L 376.991644 289.815198 
L 379.134928 290.900396 
L 381.278213 291.949646 
L 383.421498 291.294652 
L 385.564782 292.256328 
L 387.708067 294.19363 
L 389.851351 293.076344 
L 391.994636 293.213532 
L 394.137921 292.095721 
L 396.281205 294.092167 
L 398.42449 294.945892 
L 400.567774 296.090382 
L 402.711059 295.399703 
L 404.854344 294.987923 
L 406.997628 294.579943 
L 409.140913 294.770095 
L 411.284197 294.818849 
L 413.427482 295.201297 
L 415.570767 295.727132 
L 417.714051 294.925301 
L 419.857336 295.295096 
L 422.00062 296.203088 
L 424.143905 297.467385 
L 426.28719 298.985122 
L 428.430474 298.829264 
L 430.573759 298.434225 
L 432.717043 297.470979 
L 434.860328 295.771152 
L 437.003613 296.168206 
L 439.146897 295.796823 
L 441.290182 296.06004 
L 443.433466 298.051276 
L 445.576751 297.783307 
L 447.720036 296.773691 
L 449.86332 298.733666 
L 452.006605 299.287006 
L 454.14989 297.707019 
L 456.293174 296.852534 
L 458.436459 295.381469 
L 460.579743 293.275086 
L 462.723028 290.99623 
L 464.866313 289.34684 
L 467.009597 288.34232 
L 469.152882 288.189369 
L 471.296166 289.076362 
L 473.439451 290.005083 
L 475.582736 290.54971 
L 477.72602 290.096726 
L 479.869305 289.952716 
L 482.012589 290.329531 
L 484.155874 290.84357 
L 486.299159 292.670289 
L 488.442443 289.626072 
L 488.442443 278.529363 
L 488.442443 278.529363 
L 486.299159 281.224175 
L 484.155874 280.319359 
L 482.012589 279.707062 
L 479.869305 279.408002 
L 477.72602 278.508035 
L 475.582736 278.632336 
L 473.439451 277.665728 
L 471.296166 277.553309 
L 469.152882 277.320391 
L 467.009597 277.281519 
L 464.866313 277.236981 
L 462.723028 280.546589 
L 460.579743 286.148016 
L 458.436459 289.534537 
L 456.293174 290.953554 
L 454.14989 291.297776 
L 452.006605 291.769264 
L 449.86332 290.822365 
L 447.720036 289.105784 
L 445.576751 289.139458 
L 443.433466 289.009169 
L 441.290182 288.906881 
L 439.146897 289.445707 
L 437.003613 288.748557 
L 434.860328 288.559878 
L 432.717043 289.833275 
L 430.573759 291.125678 
L 428.430474 291.195405 
L 426.28719 290.633842 
L 424.143905 289.862143 
L 422.00062 288.640038 
L 419.857336 287.464167 
L 417.714051 286.516752 
L 415.570767 287.019774 
L 413.427482 286.556162 
L 411.284197 286.470465 
L 409.140913 286.795502 
L 406.997628 286.366692 
L 404.854344 286.23771 
L 402.711059 286.499491 
L 400.567774 286.35745 
L 398.42449 285.21238 
L 396.281205 283.880495 
L 394.137921 282.238448 
L 391.994636 281.512923 
L 389.851351 282.106543 
L 387.708067 282.554539 
L 385.564782 281.46203 
L 383.421498 280.771524 
L 381.278213 280.715517 
L 379.134928 279.405663 
L 376.991644 278.138532 
L 374.848359 277.814779 
L 372.705075 278.272591 
L 370.56179 277.427606 
L 368.418505 276.358774 
L 366.275221 282.335205 
L 364.131936 286.277503 
L 361.988651 290.197397 
L 359.845367 291.295029 
L 357.702082 290.24627 
L 355.558798 288.767488 
L 353.415513 288.116914 
L 351.272228 287.757665 
L 349.128944 288.01092 
L 346.985659 287.10461 
L 344.842375 285.86009 
L 342.69909 285.476501 
L 340.555805 285.033793 
L 338.412521 285.160525 
L 336.269236 284.910104 
L 334.125952 286.612162 
L 331.982667 286.48643 
L 329.839382 284.573993 
L 327.696098 283.568624 
L 325.552813 283.03827 
L 323.409529 282.40557 
L 321.266244 282.454923 
L 319.122959 282.153438 
L 316.979675 280.648602 
L 314.83639 279.094157 
L 312.693106 278.908181 
L 310.549821 278.755333 
L 308.406536 278.836591 
L 306.263252 277.870415 
L 304.119967 277.627497 
L 301.976683 276.232893 
L 299.833398 275.428121 
L 297.690113 274.347487 
L 295.546829 275.25306 
L 293.403544 276.01429 
L 291.26026 280.575866 
L 289.116975 285.397291 
L 286.97369 288.231834 
L 284.830406 290.871918 
L 282.687121 294.114824 
L 280.543837 294.136779 
L 278.400552 293.409223 
L 276.257267 293.054707 
L 274.113983 293.466184 
L 271.970698 293.424691 
L 269.827413 294.576308 
L 267.684129 295.530245 
L 265.540844 296.091113 
L 263.39756 296.817703 
L 261.254275 296.869338 
L 259.11099 297.441599 
L 256.967706 297.300533 
L 254.824421 296.570511 
L 252.681137 296.82192 
L 250.537852 294.433916 
L 248.394567 292.98982 
L 246.251283 290.056603 
L 244.107998 288.272569 
L 241.964714 287.818008 
L 239.821429 287.921951 
L 237.678144 288.063962 
L 235.53486 288.65871 
L 233.391575 289.451849 
L 231.248291 290.148694 
L 229.105006 289.676533 
L 226.961721 288.364635 
L 224.818437 288.147624 
L 222.675152 286.899837 
L 220.531868 285.046302 
L 218.388583 284.077649 
L 216.245298 284.199573 
L 214.102014 284.579298 
L 211.958729 285.188122 
L 209.815445 284.593781 
L 207.67216 282.917723 
L 205.528875 282.424983 
L 203.385591 284.241793 
L 201.242306 286.995319 
L 199.099022 289.848697 
L 196.955737 290.544379 
L 194.812452 291.510123 
L 192.669168 291.730095 
L 190.525883 292.82788 
L 188.382599 292.727355 
L 186.239314 292.501015 
L 184.096029 292.817859 
L 181.952745 293.385687 
L 179.80946 292.025838 
L 177.666175 290.766122 
L 175.522891 289.476535 
L 173.379606 289.761819 
L 171.236322 288.030464 
L 169.093037 286.222695 
L 166.949752 285.042466 
L 164.806468 285.530481 
L 162.663183 286.927029 
L 160.519899 286.390637 
L 158.376614 288.137831 
L 156.233329 289.243335 
L 154.090045 290.641172 
L 151.94676 291.827504 
L 149.803476 290.612995 
L 147.660191 290.690809 
L 145.516906 291.746595 
L 143.373622 291.896414 
L 141.230337 290.166695 
L 139.087053 289.610943 
L 136.943768 289.302826 
L 134.800483 288.756086 
L 132.657199 287.93176 
L 130.513914 287.134154 
L 128.37063 286.730227 
L 126.227345 286.278609 
L 124.08406 285.71293 
L 121.940776 285.795885 
L 119.797491 287.89964 
L 117.654207 289.588693 
L 115.510922 290.615961 
L 113.367637 291.886842 
L 111.224353 292.218329 
L 109.081068 291.540627 
L 106.937784 291.11705 
L 104.794499 290.972205 
L 102.651214 290.769225 
L 100.50793 290.859374 
L 98.364645 290.871467 
L 96.22136 291.139782 
L 94.078076 291.284264 
L 91.934791 291.53316 
L 89.791507 292.020076 
L 87.648222 290.723624 
L 85.504937 288.444182 
L 83.361653 288.071572 
L 81.218368 288.77463 
L 79.075084 288.26994 
L 76.931799 289.230052 
L 74.788514 289.597527 
L 72.64523 289.234753 
L 70.501945 288.263986 
L 68.358661 287.511783 
L 66.215376 286.982312 
L 64.072091 285.839023 
L 61.928807 287.531967 
z
" clip-path="url(#pc553ad2ffa)" style="fill: #1f77b4; fill-opacity: 0.3"/>
   </g>
   <g id="matplotlib.axis_1">
    <g id="xtick_1">
     <g id="line2d_1">
      <defs>
       <path id="m4ed1c8a439" d="M 0 0 
L 0 3.5 
" style="stroke: #000000; stroke-width: 0.8"/>
      </defs>
      <g>
       <use xlink:href="#m4ed1c8a439" x="61.928807" y="313.478125" style="stroke: #000000; stroke-width: 0.8"/>
      </g>
     </g>
     <g id="text_1">
      <!-- 0 -->
      <g transform="translate(58.747557 328.076563) scale(0.1 -0.1)">
       <defs>
        <path id="DejaVuSans-30" d="M 2034 4250 
Q 1547 4250 1301 3770 
Q 1056 3291 1056 2328 
Q 1056 1369 1301 889 
Q 1547 409 2034 409 
Q 2525 409 2770 889 
Q 3016 1369 3016 2328 
Q 3016 3291 2770 3770 
Q 2525 4250 2034 4250 
z
M 2034 4750 
Q 2819 4750 3233 4129 
Q 3647 3509 3647 2328 
Q 3647 1150 3233 529 
Q 2819 -91 2034 -91 
Q 1250 -91 836 529 
Q 422 1150 422 2328 
Q 422 3509 836 4129 
Q 1250 4750 2034 4750 
z
" transform="scale(0.015625)"/>
       </defs>
       <use xlink:href="#DejaVuSans-30"/>
      </g>
     </g>
    </g>
    <g id="xtick_2">
     <g id="line2d_2">
      <g>
       <use xlink:href="#m4ed1c8a439" x="113.367637" y="313.478125" style="stroke: #000000; stroke-width: 0.8"/>
      </g>
     </g>
     <g id="text_2">
      <!-- 24 -->
      <g transform="translate(107.005137 328.076563) scale(0.1 -0.1)">
       <defs>
        <path id="DejaVuSans-32" d="M 1228 531 
L 3431 531 
L 3431 0 
L 469 0 
L 469 531 
Q 828 903 1448 1529 
Q 2069 2156 2228 2338 
Q 2531 2678 2651 2914 
Q 2772 3150 2772 3378 
Q 2772 3750 2511 3984 
Q 2250 4219 1831 4219 
Q 1534 4219 1204 4116 
Q 875 4013 500 3803 
L 500 4441 
Q 881 4594 1212 4672 
Q 1544 4750 1819 4750 
Q 2544 4750 2975 4387 
Q 3406 4025 3406 3419 
Q 3406 3131 3298 2873 
Q 3191 2616 2906 2266 
Q 2828 2175 2409 1742 
Q 1991 1309 1228 531 
z
" transform="scale(0.015625)"/>
        <path id="DejaVuSans-34" d="M 2419 4116 
L 825 1625 
L 2419 1625 
L 2419 4116 
z
M 2253 4666 
L 3047 4666 
L 3047 1625 
L 3713 1625 
L 3713 1100 
L 3047 1100 
L 3047 0 
L 2419 0 
L 2419 1100 
L 313 1100 
L 313 1709 
L 2253 4666 
z
" transform="scale(0.015625)"/>
       </defs>
       <use xlink:href="#DejaVuSans-32"/>
       <use xlink:href="#DejaVuSans-34" transform="translate(63.623047 0)"/>
      </g>
     </g>
    </g>
    <g id="xtick_3">
     <g id="line2d_3">
      <g>
       <use xlink:href="#m4ed1c8a439" x="166.949752" y="313.478125" style="stroke: #000000; stroke-width: 0.8"/>
      </g>
     </g>
     <g id="text_3">
      <!-- 49 -->
      <g transform="translate(160.587252 328.076563) scale(0.1 -0.1)">
       <defs>
        <path id="DejaVuSans-39" d="M 703 97 
L 703 672 
Q 941 559 1184 500 
Q 1428 441 1663 441 
Q 2288 441 2617 861 
Q 2947 1281 2994 2138 
Q 2813 1869 2534 1725 
Q 2256 1581 1919 1581 
Q 1219 1581 811 2004 
Q 403 2428 403 3163 
Q 403 3881 828 4315 
Q 1253 4750 1959 4750 
Q 2769 4750 3195 4129 
Q 3622 3509 3622 2328 
Q 3622 1225 3098 567 
Q 2575 -91 1691 -91 
Q 1453 -91 1209 -44 
Q 966 3 703 97 
z
M 1959 2075 
Q 2384 2075 2632 2365 
Q 2881 2656 2881 3163 
Q 2881 3666 2632 3958 
Q 2384 4250 1959 4250 
Q 1534 4250 1286 3958 
Q 1038 3666 1038 3163 
Q 1038 2656 1286 2365 
Q 1534 2075 1959 2075 
z
" transform="scale(0.015625)"/>
       </defs>
       <use xlink:href="#DejaVuSans-34"/>
       <use xlink:href="#DejaVuSans-39" transform="translate(63.623047 0)"/>
      </g>
     </g>
    </g>
    <g id="xtick_4">
     <g id="line2d_4">
      <g>
       <use xlink:href="#m4ed1c8a439" x="220.531868" y="313.478125" style="stroke: #000000; stroke-width: 0.8"/>
      </g>
     </g>
     <g id="text_4">
      <!-- 74 -->
      <g transform="translate(214.169368 328.076563) scale(0.1 -0.1)">
       <defs>
        <path id="DejaVuSans-37" d="M 525 4666 
L 3525 4666 
L 3525 4397 
L 1831 0 
L 1172 0 
L 2766 4134 
L 525 4134 
L 525 4666 
z
" transform="scale(0.015625)"/>
       </defs>
       <use xlink:href="#DejaVuSans-37"/>
       <use xlink:href="#DejaVuSans-34" transform="translate(63.623047 0)"/>
      </g>
     </g>
    </g>
    <g id="xtick_5">
     <g id="line2d_5">
      <g>
       <use xlink:href="#m4ed1c8a439" x="274.113983" y="313.478125" style="stroke: #000000; stroke-width: 0.8"/>
      </g>
     </g>
     <g id="text_5">
      <!-- 99 -->
      <g transform="translate(267.751483 328.076563) scale(0.1 -0.1)">
       <use xlink:href="#DejaVuSans-39"/>
       <use xlink:href="#DejaVuSans-39" transform="translate(63.623047 0)"/>
      </g>
     </g>
    </g>
    <g id="xtick_6">
     <g id="line2d_6">
      <g>
       <use xlink:href="#m4ed1c8a439" x="327.696098" y="313.478125" style="stroke: #000000; stroke-width: 0.8"/>
      </g>
     </g>
     <g id="text_6">
      <!-- 124 -->
      <g transform="translate(318.152348 328.076563) scale(0.1 -0.1)">
       <defs>
        <path id="DejaVuSans-31" d="M 794 531 
L 1825 531 
L 1825 4091 
L 703 3866 
L 703 4441 
L 1819 4666 
L 2450 4666 
L 2450 531 
L 3481 531 
L 3481 0 
L 794 0 
L 794 531 
z
" transform="scale(0.015625)"/>
       </defs>
       <use xlink:href="#DejaVuSans-31"/>
       <use xlink:href="#DejaVuSans-32" transform="translate(63.623047 0)"/>
       <use xlink:href="#DejaVuSans-34" transform="translate(127.246094 0)"/>
      </g>
     </g>
    </g>
    <g id="xtick_7">
     <g id="line2d_7">
      <g>
       <use xlink:href="#m4ed1c8a439" x="381.278213" y="313.478125" style="stroke: #000000; stroke-width: 0.8"/>
      </g>
     </g>
     <g id="text_7">
      <!-- 149 -->
      <g transform="translate(371.734463 328.076563) scale(0.1 -0.1)">
       <use xlink:href="#DejaVuSans-31"/>
       <use xlink:href="#DejaVuSans-34" transform="translate(63.623047 0)"/>
       <use xlink:href="#DejaVuSans-39" transform="translate(127.246094 0)"/>
      </g>
     </g>
    </g>
    <g id="xtick_8">
     <g id="line2d_8">
      <g>
       <use xlink:href="#m4ed1c8a439" x="434.860328" y="313.478125" style="stroke: #000000; stroke-width: 0.8"/>
      </g>
     </g>
     <g id="text_8">
      <!-- 174 -->
      <g transform="translate(425.316578 328.076563) scale(0.1 -0.1)">
       <use xlink:href="#DejaVuSans-31"/>
       <use xlink:href="#DejaVuSans-37" transform="translate(63.623047 0)"/>
       <use xlink:href="#DejaVuSans-34" transform="translate(127.246094 0)"/>
      </g>
     </g>
    </g>
    <g id="xtick_9">
     <g id="line2d_9">
      <g>
       <use xlink:href="#m4ed1c8a439" x="488.442443" y="313.478125" style="stroke: #000000; stroke-width: 0.8"/>
      </g>
     </g>
     <g id="text_9">
      <!-- 199 -->
      <g transform="translate(478.898693 328.076563) scale(0.1 -0.1)">
       <use xlink:href="#DejaVuSans-31"/>
       <use xlink:href="#DejaVuSans-39" transform="translate(63.623047 0)"/>
       <use xlink:href="#DejaVuSans-39" transform="translate(127.246094 0)"/>
      </g>
     </g>
    </g>
    <g id="text_10">
     <!-- Spatial bin -->
     <g transform="translate(248.649688 341.754687) scale(0.1 -0.1)">
      <defs>
       <path id="DejaVuSans-53" d="M 3425 4513 
L 3425 3897 
Q 3066 4069 2747 4153 
Q 2428 4238 2131 4238 
Q 1616 4238 1336 4038 
Q 1056 3838 1056 3469 
Q 1056 3159 1242 3001 
Q 1428 2844 1947 2747 
L 2328 2669 
Q 3034 2534 3370 2195 
Q 3706 1856 3706 1288 
Q 3706 609 3251 259 
Q 2797 -91 1919 -91 
Q 1588 -91 1214 -16 
Q 841 59 441 206 
L 441 856 
Q 825 641 1194 531 
Q 1563 422 1919 422 
Q 2459 422 2753 634 
Q 3047 847 3047 1241 
Q 3047 1584 2836 1778 
Q 2625 1972 2144 2069 
L 1759 2144 
Q 1053 2284 737 2584 
Q 422 2884 422 3419 
Q 422 4038 858 4394 
Q 1294 4750 2059 4750 
Q 2388 4750 2728 4690 
Q 3069 4631 3425 4513 
z
" transform="scale(0.015625)"/>
       <path id="DejaVuSans-70" d="M 1159 525 
L 1159 -1331 
L 581 -1331 
L 581 3500 
L 1159 3500 
L 1159 2969 
Q 1341 3281 1617 3432 
Q 1894 3584 2278 3584 
Q 2916 3584 3314 3078 
Q 3713 2572 3713 1747 
Q 3713 922 3314 415 
Q 2916 -91 2278 -91 
Q 1894 -91 1617 61 
Q 1341 213 1159 525 
z
M 3116 1747 
Q 3116 2381 2855 2742 
Q 2594 3103 2138 3103 
Q 1681 3103 1420 2742 
Q 1159 2381 1159 1747 
Q 1159 1113 1420 752 
Q 1681 391 2138 391 
Q 2594 391 2855 752 
Q 3116 1113 3116 1747 
z
" transform="scale(0.015625)"/>
       <path id="DejaVuSans-61" d="M 2194 1759 
Q 1497 1759 1228 1600 
Q 959 1441 959 1056 
Q 959 750 1161 570 
Q 1363 391 1709 391 
Q 2188 391 2477 730 
Q 2766 1069 2766 1631 
L 2766 1759 
L 2194 1759 
z
M 3341 1997 
L 3341 0 
L 2766 0 
L 2766 531 
Q 2569 213 2275 61 
Q 1981 -91 1556 -91 
Q 1019 -91 701 211 
Q 384 513 384 1019 
Q 384 1609 779 1909 
Q 1175 2209 1959 2209 
L 2766 2209 
L 2766 2266 
Q 2766 2663 2505 2880 
Q 2244 3097 1772 3097 
Q 1472 3097 1187 3025 
Q 903 2953 641 2809 
L 641 3341 
Q 956 3463 1253 3523 
Q 1550 3584 1831 3584 
Q 2591 3584 2966 3190 
Q 3341 2797 3341 1997 
z
" transform="scale(0.015625)"/>
       <path id="DejaVuSans-74" d="M 1172 4494 
L 1172 3500 
L 2356 3500 
L 2356 3053 
L 1172 3053 
L 1172 1153 
Q 1172 725 1289 603 
Q 1406 481 1766 481 
L 2356 481 
L 2356 0 
L 1766 0 
Q 1100 0 847 248 
Q 594 497 594 1153 
L 594 3053 
L 172 3053 
L 172 3500 
L 594 3500 
L 594 4494 
L 1172 4494 
z
" transform="scale(0.015625)"/>
       <path id="DejaVuSans-69" d="M 603 3500 
L 1178 3500 
L 1178 0 
L 603 0 
L 603 3500 
z
M 603 4863 
L 1178 4863 
L 1178 4134 
L 603 4134 
L 603 4863 
z
" transform="scale(0.015625)"/>
       <path id="DejaVuSans-6c" d="M 603 4863 
L 1178 4863 
L 1178 0 
L 603 0 
L 603 4863 
z
" transform="scale(0.015625)"/>
       <path id="DejaVuSans-20" transform="scale(0.015625)"/>
       <path id="DejaVuSans-62" d="M 3116 1747 
Q 3116 2381 2855 2742 
Q 2594 3103 2138 3103 
Q 1681 3103 1420 2742 
Q 1159 2381 1159 1747 
Q 1159 1113 1420 752 
Q 1681 391 2138 391 
Q 2594 391 2855 752 
Q 3116 1113 3116 1747 
z
M 1159 2969 
Q 1341 3281 1617 3432 
Q 1894 3584 2278 3584 
Q 2916 3584 3314 3078 
Q 3713 2572 3713 1747 
Q 3713 922 3314 415 
Q 2916 -91 2278 -91 
Q 1894 -91 1617 61 
Q 1341 213 1159 525 
L 1159 0 
L 581 0 
L 581 4863 
L 1159 4863 
L 1159 2969 
z
" transform="scale(0.015625)"/>
       <path id="DejaVuSans-6e" d="M 3513 2113 
L 3513 0 
L 2938 0 
L 2938 2094 
Q 2938 2591 2744 2837 
Q 2550 3084 2163 3084 
Q 1697 3084 1428 2787 
Q 1159 2491 1159 1978 
L 1159 0 
L 581 0 
L 581 3500 
L 1159 3500 
L 1159 2956 
Q 1366 3272 1645 3428 
Q 1925 3584 2291 3584 
Q 2894 3584 3203 3211 
Q 3513 2838 3513 2113 
z
" transform="scale(0.015625)"/>
      </defs>
      <use xlink:href="#DejaVuSans-53"/>
      <use xlink:href="#DejaVuSans-70" transform="translate(63.476562 0)"/>
      <use xlink:href="#DejaVuSans-61" transform="translate(126.953125 0)"/>
      <use xlink:href="#DejaVuSans-74" transform="translate(188.232422 0)"/>
      <use xlink:href="#DejaVuSans-69" transform="translate(227.441406 0)"/>
      <use xlink:href="#DejaVuSans-61" transform="translate(255.224609 0)"/>
      <use xlink:href="#DejaVuSans-6c" transform="translate(316.503906 0)"/>
      <use xlink:href="#DejaVuSans-20" transform="translate(344.287109 0)"/>
      <use xlink:href="#DejaVuSans-62" transform="translate(376.074219 0)"/>
      <use xlink:href="#DejaVuSans-69" transform="translate(439.550781 0)"/>
      <use xlink:href="#DejaVuSans-6e" transform="translate(467.333984 0)"/>
     </g>
    </g>
   </g>
   <g id="matplotlib.axis_2">
    <g id="ytick_1">
     <g id="line2d_10">
      <defs>
       <path id="mb54708cd10" d="M 0 0 
L -3.5 0 
" style="stroke: #000000; stroke-width: 0.8"/>
      </defs>
      <g>
       <use xlink:href="#mb54708cd10" x="40.603125" y="291.081202" style="stroke: #000000; stroke-width: 0.8"/>
      </g>
     </g>
     <g id="text_11">
      <!-- 0 -->
      <g transform="translate(27.240625 294.880421) scale(0.1 -0.1)">
       <use xlink:href="#DejaVuSans-30"/>
      </g>
     </g>
    </g>
    <g id="ytick_2">
     <g id="line2d_11">
      <g>
       <use xlink:href="#mb54708cd10" x="40.603125" y="246.287356" style="stroke: #000000; stroke-width: 0.8"/>
      </g>
     </g>
     <g id="text_12">
      <!-- 2 -->
      <g transform="translate(27.240625 250.086575) scale(0.1 -0.1)">
       <use xlink:href="#DejaVuSans-32"/>
      </g>
     </g>
    </g>
    <g id="ytick_3">
     <g id="line2d_12">
      <g>
       <use xlink:href="#mb54708cd10" x="40.603125" y="201.49351" style="stroke: #000000; stroke-width: 0.8"/>
      </g>
     </g>
     <g id="text_13">
      <!-- 4 -->
      <g transform="translate(27.240625 205.292728) scale(0.1 -0.1)">
       <use xlink:href="#DejaVuSans-34"/>
      </g>
     </g>
    </g>
    <g id="ytick_4">
     <g id="line2d_13">
      <g>
       <use xlink:href="#mb54708cd10" x="40.603125" y="156.699663" style="stroke: #000000; stroke-width: 0.8"/>
      </g>
     </g>
     <g id="text_14">
      <!-- 6 -->
      <g transform="translate(27.240625 160.498882) scale(0.1 -0.1)">
       <defs>
        <path id="DejaVuSans-36" d="M 2113 2584 
Q 1688 2584 1439 2293 
Q 1191 2003 1191 1497 
Q 1191 994 1439 701 
Q 1688 409 2113 409 
Q 2538 409 2786 701 
Q 3034 994 3034 1497 
Q 3034 2003 2786 2293 
Q 2538 2584 2113 2584 
z
M 3366 4563 
L 3366 3988 
Q 3128 4100 2886 4159 
Q 2644 4219 2406 4219 
Q 1781 4219 1451 3797 
Q 1122 3375 1075 2522 
Q 1259 2794 1537 2939 
Q 1816 3084 2150 3084 
Q 2853 3084 3261 2657 
Q 3669 2231 3669 1497 
Q 3669 778 3244 343 
Q 2819 -91 2113 -91 
Q 1303 -91 875 529 
Q 447 1150 447 2328 
Q 447 3434 972 4092 
Q 1497 4750 2381 4750 
Q 2619 4750 2861 4703 
Q 3103 4656 3366 4563 
z
" transform="scale(0.015625)"/>
       </defs>
       <use xlink:href="#DejaVuSans-36"/>
      </g>
     </g>
    </g>
    <g id="ytick_5">
     <g id="line2d_14">
      <g>
       <use xlink:href="#mb54708cd10" x="40.603125" y="111.905817" style="stroke: #000000; stroke-width: 0.8"/>
      </g>
     </g>
     <g id="text_15">
      <!-- 8 -->
      <g transform="translate(27.240625 115.705036) scale(0.1 -0.1)">
       <defs>
        <path id="DejaVuSans-38" d="M 2034 2216 
Q 1584 2216 1326 1975 
Q 1069 1734 1069 1313 
Q 1069 891 1326 650 
Q 1584 409 2034 409 
Q 2484 409 2743 651 
Q 3003 894 3003 1313 
Q 3003 1734 2745 1975 
Q 2488 2216 2034 2216 
z
M 1403 2484 
Q 997 2584 770 2862 
Q 544 3141 544 3541 
Q 544 4100 942 4425 
Q 1341 4750 2034 4750 
Q 2731 4750 3128 4425 
Q 3525 4100 3525 3541 
Q 3525 3141 3298 2862 
Q 3072 2584 2669 2484 
Q 3125 2378 3379 2068 
Q 3634 1759 3634 1313 
Q 3634 634 3220 271 
Q 2806 -91 2034 -91 
Q 1263 -91 848 271 
Q 434 634 434 1313 
Q 434 1759 690 2068 
Q 947 2378 1403 2484 
z
M 1172 3481 
Q 1172 3119 1398 2916 
Q 1625 2713 2034 2713 
Q 2441 2713 2670 2916 
Q 2900 3119 2900 3481 
Q 2900 3844 2670 4047 
Q 2441 4250 2034 4250 
Q 1625 4250 1398 4047 
Q 1172 3844 1172 3481 
z
" transform="scale(0.015625)"/>
       </defs>
       <use xlink:href="#DejaVuSans-38"/>
      </g>
     </g>
    </g>
    <g id="ytick_6">
     <g id="line2d_15">
      <g>
       <use xlink:href="#mb54708cd10" x="40.603125" y="67.111971" style="stroke: #000000; stroke-width: 0.8"/>
      </g>
     </g>
     <g id="text_16">
      <!-- 10 -->
      <g transform="translate(20.878125 70.91119) scale(0.1 -0.1)">
       <use xlink:href="#DejaVuSans-31"/>
       <use xlink:href="#DejaVuSans-30" transform="translate(63.623047 0)"/>
      </g>
     </g>
    </g>
    <g id="ytick_7">
     <g id="line2d_16">
      <g>
       <use xlink:href="#mb54708cd10" x="40.603125" y="22.318125" style="stroke: #000000; stroke-width: 0.8"/>
      </g>
     </g>
     <g id="text_17">
      <!-- 12 -->
      <g transform="translate(20.878125 26.117344) scale(0.1 -0.1)">
       <use xlink:href="#DejaVuSans-31"/>
       <use xlink:href="#DejaVuSans-32" transform="translate(63.623047 0)"/>
      </g>
     </g>
    </g>
    <g id="text_18">
     <!-- z-scored dF/F -->
     <g transform="translate(14.798438 201.1325) rotate(-90) scale(0.1 -0.1)">
      <defs>
       <path id="DejaVuSans-7a" d="M 353 3500 
L 3084 3500 
L 3084 2975 
L 922 459 
L 3084 459 
L 3084 0 
L 275 0 
L 275 525 
L 2438 3041 
L 353 3041 
L 353 3500 
z
" transform="scale(0.015625)"/>
       <path id="DejaVuSans-2d" d="M 313 2009 
L 1997 2009 
L 1997 1497 
L 313 1497 
L 313 2009 
z
" transform="scale(0.015625)"/>
       <path id="DejaVuSans-73" d="M 2834 3397 
L 2834 2853 
Q 2591 2978 2328 3040 
Q 2066 3103 1784 3103 
Q 1356 3103 1142 2972 
Q 928 2841 928 2578 
Q 928 2378 1081 2264 
Q 1234 2150 1697 2047 
L 1894 2003 
Q 2506 1872 2764 1633 
Q 3022 1394 3022 966 
Q 3022 478 2636 193 
Q 2250 -91 1575 -91 
Q 1294 -91 989 -36 
Q 684 19 347 128 
L 347 722 
Q 666 556 975 473 
Q 1284 391 1588 391 
Q 1994 391 2212 530 
Q 2431 669 2431 922 
Q 2431 1156 2273 1281 
Q 2116 1406 1581 1522 
L 1381 1569 
Q 847 1681 609 1914 
Q 372 2147 372 2553 
Q 372 3047 722 3315 
Q 1072 3584 1716 3584 
Q 2034 3584 2315 3537 
Q 2597 3491 2834 3397 
z
" transform="scale(0.015625)"/>
       <path id="DejaVuSans-63" d="M 3122 3366 
L 3122 2828 
Q 2878 2963 2633 3030 
Q 2388 3097 2138 3097 
Q 1578 3097 1268 2742 
Q 959 2388 959 1747 
Q 959 1106 1268 751 
Q 1578 397 2138 397 
Q 2388 397 2633 464 
Q 2878 531 3122 666 
L 3122 134 
Q 2881 22 2623 -34 
Q 2366 -91 2075 -91 
Q 1284 -91 818 406 
Q 353 903 353 1747 
Q 353 2603 823 3093 
Q 1294 3584 2113 3584 
Q 2378 3584 2631 3529 
Q 2884 3475 3122 3366 
z
" transform="scale(0.015625)"/>
       <path id="DejaVuSans-6f" d="M 1959 3097 
Q 1497 3097 1228 2736 
Q 959 2375 959 1747 
Q 959 1119 1226 758 
Q 1494 397 1959 397 
Q 2419 397 2687 759 
Q 2956 1122 2956 1747 
Q 2956 2369 2687 2733 
Q 2419 3097 1959 3097 
z
M 1959 3584 
Q 2709 3584 3137 3096 
Q 3566 2609 3566 1747 
Q 3566 888 3137 398 
Q 2709 -91 1959 -91 
Q 1206 -91 779 398 
Q 353 888 353 1747 
Q 353 2609 779 3096 
Q 1206 3584 1959 3584 
z
" transform="scale(0.015625)"/>
       <path id="DejaVuSans-72" d="M 2631 2963 
Q 2534 3019 2420 3045 
Q 2306 3072 2169 3072 
Q 1681 3072 1420 2755 
Q 1159 2438 1159 1844 
L 1159 0 
L 581 0 
L 581 3500 
L 1159 3500 
L 1159 2956 
Q 1341 3275 1631 3429 
Q 1922 3584 2338 3584 
Q 2397 3584 2469 3576 
Q 2541 3569 2628 3553 
L 2631 2963 
z
" transform="scale(0.015625)"/>
       <path id="DejaVuSans-65" d="M 3597 1894 
L 3597 1613 
L 953 1613 
Q 991 1019 1311 708 
Q 1631 397 2203 397 
Q 2534 397 2845 478 
Q 3156 559 3463 722 
L 3463 178 
Q 3153 47 2828 -22 
Q 2503 -91 2169 -91 
Q 1331 -91 842 396 
Q 353 884 353 1716 
Q 353 2575 817 3079 
Q 1281 3584 2069 3584 
Q 2775 3584 3186 3129 
Q 3597 2675 3597 1894 
z
M 3022 2063 
Q 3016 2534 2758 2815 
Q 2500 3097 2075 3097 
Q 1594 3097 1305 2825 
Q 1016 2553 972 2059 
L 3022 2063 
z
" transform="scale(0.015625)"/>
       <path id="DejaVuSans-64" d="M 2906 2969 
L 2906 4863 
L 3481 4863 
L 3481 0 
L 2906 0 
L 2906 525 
Q 2725 213 2448 61 
Q 2172 -91 1784 -91 
Q 1150 -91 751 415 
Q 353 922 353 1747 
Q 353 2572 751 3078 
Q 1150 3584 1784 3584 
Q 2172 3584 2448 3432 
Q 2725 3281 2906 2969 
z
M 947 1747 
Q 947 1113 1208 752 
Q 1469 391 1925 391 
Q 2381 391 2643 752 
Q 2906 1113 2906 1747 
Q 2906 2381 2643 2742 
Q 2381 3103 1925 3103 
Q 1469 3103 1208 2742 
Q 947 2381 947 1747 
z
" transform="scale(0.015625)"/>
       <path id="DejaVuSans-46" d="M 628 4666 
L 3309 4666 
L 3309 4134 
L 1259 4134 
L 1259 2759 
L 3109 2759 
L 3109 2228 
L 1259 2228 
L 1259 0 
L 628 0 
L 628 4666 
z
" transform="scale(0.015625)"/>
       <path id="DejaVuSans-2f" d="M 1625 4666 
L 2156 4666 
L 531 -594 
L 0 -594 
L 1625 4666 
z
" transform="scale(0.015625)"/>
      </defs>
      <use xlink:href="#DejaVuSans-7a"/>
      <use xlink:href="#DejaVuSans-2d" transform="translate(52.490234 0)"/>
      <use xlink:href="#DejaVuSans-73" transform="translate(88.574219 0)"/>
      <use xlink:href="#DejaVuSans-63" transform="translate(140.673828 0)"/>
      <use xlink:href="#DejaVuSans-6f" transform="translate(195.654297 0)"/>
      <use xlink:href="#DejaVuSans-72" transform="translate(256.835938 0)"/>
      <use xlink:href="#DejaVuSans-65" transform="translate(295.699219 0)"/>
      <use xlink:href="#DejaVuSans-64" transform="translate(357.222656 0)"/>
      <use xlink:href="#DejaVuSans-20" transform="translate(420.699219 0)"/>
      <use xlink:href="#DejaVuSans-64" transform="translate(452.486328 0)"/>
      <use xlink:href="#DejaVuSans-46" transform="translate(515.962891 0)"/>
      <use xlink:href="#DejaVuSans-2f" transform="translate(573.482422 0)"/>
      <use xlink:href="#DejaVuSans-46" transform="translate(607.173828 0)"/>
     </g>
    </g>
   </g>
   <g id="line2d_17">
    <path d="M 61.928807 291.012213 
L 64.072091 289.787553 
L 66.215376 290.822051 
L 70.501945 291.65024 
L 72.64523 292.735233 
L 74.788514 292.973752 
L 76.931799 292.825678 
L 79.075084 292.055262 
L 81.218368 292.839199 
L 83.361653 292.875672 
L 85.504937 293.106468 
L 87.648222 294.377073 
L 89.791507 296.118009 
L 91.934791 295.581174 
L 94.078076 295.618649 
L 96.22136 295.840017 
L 102.651214 295.933536 
L 104.794499 296.409326 
L 106.937784 296.36984 
L 109.081068 296.097287 
L 111.224353 296.253246 
L 113.367637 295.645844 
L 115.510922 294.30691 
L 119.797491 291.213575 
L 121.940776 289.432783 
L 124.08406 289.028901 
L 126.227345 289.468085 
L 128.37063 290.040393 
L 130.513914 290.754583 
L 132.657199 291.802789 
L 136.943768 292.852579 
L 139.087053 292.935239 
L 141.230337 293.247597 
L 143.373622 295.27057 
L 145.516906 295.056743 
L 147.660191 294.052929 
L 149.803476 294.228349 
L 151.94676 295.694305 
L 154.090045 294.398548 
L 156.233329 293.235857 
L 158.376614 291.753733 
L 160.519899 289.976529 
L 162.663183 290.382839 
L 164.806468 288.964419 
L 166.949752 288.814349 
L 169.093037 289.9899 
L 173.379606 293.42358 
L 175.522891 292.964849 
L 177.666175 294.109783 
L 179.80946 295.443714 
L 181.952745 297.487543 
L 184.096029 297.023827 
L 186.239314 297.093827 
L 188.382599 296.942748 
L 190.525883 296.664869 
L 192.669168 295.286952 
L 194.812452 295.273128 
L 196.955737 294.013464 
L 199.099022 293.594797 
L 203.385591 288.914964 
L 205.528875 287.172778 
L 207.67216 287.375482 
L 209.815445 289.089645 
L 211.958729 289.305845 
L 214.102014 288.575015 
L 216.245298 288.665635 
L 218.388583 289.290087 
L 220.531868 289.761555 
L 224.818437 292.19765 
L 226.961721 292.189553 
L 229.105006 293.622578 
L 231.248291 294.312651 
L 233.391575 293.491334 
L 237.678144 292.258293 
L 239.821429 292.235665 
L 241.964714 292.009395 
L 244.107998 292.224369 
L 246.251283 293.608962 
L 248.394567 296.490494 
L 250.537852 297.929395 
L 252.681137 299.941552 
L 254.824421 299.695584 
L 256.967706 300.256633 
L 259.11099 300.191546 
L 261.254275 299.759865 
L 263.39756 300.227036 
L 265.540844 298.786622 
L 267.684129 298.713618 
L 269.827413 297.619768 
L 271.970698 296.205319 
L 274.113983 296.642554 
L 276.257267 296.202271 
L 280.543837 297.981146 
L 282.687121 297.422548 
L 284.830406 294.624827 
L 289.116975 291.29936 
L 291.26026 288.366171 
L 293.403544 285.646064 
L 295.546829 286.056377 
L 297.690113 285.271653 
L 299.833398 286.43206 
L 301.976683 286.848367 
L 304.119967 287.958291 
L 306.263252 287.78432 
L 308.406536 288.632512 
L 312.693106 287.532249 
L 314.83639 286.825033 
L 316.979675 288.080868 
L 319.122959 288.726667 
L 321.266244 288.395776 
L 323.409529 288.401108 
L 325.552813 289.248205 
L 329.839382 289.953124 
L 331.982667 291.491116 
L 334.125952 291.21882 
L 336.269236 289.256702 
L 338.412521 289.62465 
L 340.555805 289.491639 
L 342.69909 290.010918 
L 344.842375 289.841802 
L 346.985659 290.722908 
L 349.128944 291.816819 
L 351.272228 291.128577 
L 353.415513 292.110275 
L 355.558798 292.893119 
L 357.702082 294.194451 
L 359.845367 295.214839 
L 361.988651 294.257645 
L 364.131936 292.56717 
L 366.275221 289.492766 
L 368.418505 284.417167 
L 372.705075 284.847852 
L 374.848359 283.842834 
L 376.991644 283.976865 
L 381.278213 286.332582 
L 383.421498 286.033088 
L 385.564782 286.859179 
L 387.708067 288.374085 
L 389.851351 287.591444 
L 394.137921 287.167085 
L 396.281205 288.986331 
L 400.567774 291.223916 
L 406.997628 290.473318 
L 409.140913 290.782798 
L 411.284197 290.644657 
L 413.427482 290.878729 
L 415.570767 291.373453 
L 417.714051 290.721027 
L 419.857336 291.379632 
L 422.00062 292.421563 
L 426.28719 294.809482 
L 428.430474 295.012334 
L 430.573759 294.779952 
L 432.717043 293.652127 
L 434.860328 292.165515 
L 437.003613 292.458381 
L 439.146897 292.621265 
L 441.290182 292.48346 
L 443.433466 293.530222 
L 445.576751 293.461382 
L 447.720036 292.939737 
L 449.86332 294.778015 
L 452.006605 295.528135 
L 454.14989 294.502398 
L 456.293174 293.903044 
L 458.436459 292.458003 
L 460.579743 289.711551 
L 462.723028 285.77141 
L 464.866313 283.291911 
L 467.009597 282.811919 
L 469.152882 282.75488 
L 473.439451 283.835406 
L 475.582736 284.591023 
L 477.72602 284.302381 
L 482.012589 285.018296 
L 484.155874 285.581465 
L 486.299159 286.947232 
L 488.442443 284.077717 
L 488.442443 284.077717 
" clip-path="url(#pc553ad2ffa)" style="fill: none; stroke: #ff0000; stroke-width: 3; stroke-linecap: square"/>
   </g>
   <g id="LineCollection_1">
    <path d="M 169.093037 313.478125 
L 169.093037 22.318125 
" clip-path="url(#pc553ad2ffa)" style="fill: none; stroke-dasharray: 5.55,2.4; stroke-dashoffset: 0; stroke: #ff0000; stroke-width: 1.5"/>
    <path d="M 276.257267 313.478125 
L 276.257267 22.318125 
" clip-path="url(#pc553ad2ffa)" style="fill: none; stroke-dasharray: 5.55,2.4; stroke-dashoffset: 0; stroke: #ff0000; stroke-width: 1.5"/>
   </g>
   <g id="patch_3">
    <path d="M 40.603125 313.478125 
L 40.603125 22.318125 
" style="fill: none; stroke: #000000; stroke-width: 0.8; stroke-linejoin: miter; stroke-linecap: square"/>
   </g>
   <g id="patch_4">
    <path d="M 509.768125 313.478125 
L 509.768125 22.318125 
" style="fill: none; stroke: #000000; stroke-width: 0.8; stroke-linejoin: miter; stroke-linecap: square"/>
   </g>
   <g id="patch_5">
    <path d="M 40.603125 313.478125 
L 509.768125 313.478125 
" style="fill: none; stroke: #000000; stroke-width: 0.8; stroke-linejoin: miter; stroke-linecap: square"/>
   </g>
   <g id="patch_6">
    <path d="M 40.603125 22.318125 
L 509.768125 22.318125 
" style="fill: none; stroke: #000000; stroke-width: 0.8; stroke-linejoin: miter; stroke-linecap: square"/>
   </g>
   <g id="text_19">
    <!-- Corridor -1.0 -->
    <g transform="translate(237.269375 16.318125) scale(0.12 -0.12)">
     <defs>
      <path id="DejaVuSans-43" d="M 4122 4306 
L 4122 3641 
Q 3803 3938 3442 4084 
Q 3081 4231 2675 4231 
Q 1875 4231 1450 3742 
Q 1025 3253 1025 2328 
Q 1025 1406 1450 917 
Q 1875 428 2675 428 
Q 3081 428 3442 575 
Q 3803 722 4122 1019 
L 4122 359 
Q 3791 134 3420 21 
Q 3050 -91 2638 -91 
Q 1578 -91 968 557 
Q 359 1206 359 2328 
Q 359 3453 968 4101 
Q 1578 4750 2638 4750 
Q 3056 4750 3426 4639 
Q 3797 4528 4122 4306 
z
" transform="scale(0.015625)"/>
      <path id="DejaVuSans-2e" d="M 684 794 
L 1344 794 
L 1344 0 
L 684 0 
L 684 794 
z
" transform="scale(0.015625)"/>
     </defs>
     <use xlink:href="#DejaVuSans-43"/>
     <use xlink:href="#DejaVuSans-6f" transform="translate(69.824219 0)"/>
     <use xlink:href="#DejaVuSans-72" transform="translate(131.005859 0)"/>
     <use xlink:href="#DejaVuSans-72" transform="translate(170.369141 0)"/>
     <use xlink:href="#DejaVuSans-69" transform="translate(211.482422 0)"/>
     <use xlink:href="#DejaVuSans-64" transform="translate(239.265625 0)"/>
     <use xlink:href="#DejaVuSans-6f" transform="translate(302.742188 0)"/>
     <use xlink:href="#DejaVuSans-72" transform="translate(363.923828 0)"/>
     <use xlink:href="#DejaVuSans-20" transform="translate(405.037109 0)"/>
     <use xlink:href="#DejaVuSans-2d" transform="translate(436.824219 0)"/>
     <use xlink:href="#DejaVuSans-31" transform="translate(472.908203 0)"/>
     <use xlink:href="#DejaVuSans-2e" transform="translate(536.53125 0)"/>
     <use xlink:href="#DejaVuSans-30" transform="translate(568.318359 0)"/>
    </g>
   </g>
  </g>
  <g id="axes_2">
   <g id="patch_7">
    <path d="M 524.068125 313.478125 
L 993.233125 313.478125 
L 993.233125 22.318125 
L 524.068125 22.318125 
z
" style="fill: #ffffff"/>
   </g>
   <g id="FillBetweenPolyCollection_2">
    <path d="M 545.393807 282.190514 
L 545.393807 289.571048 
L 547.537091 290.076216 
L 549.680376 291.090508 
L 551.823661 288.987769 
L 553.966945 287.354589 
L 556.11023 286.861892 
L 558.253514 283.520449 
L 560.396799 282.476018 
L 562.540084 281.376238 
L 564.683368 281.650527 
L 566.826653 279.018733 
L 568.969937 277.078389 
L 571.113222 277.371777 
L 573.256507 276.777126 
L 575.399791 277.491589 
L 577.543076 279.517398 
L 579.68636 280.434545 
L 581.829645 281.538085 
L 583.97293 280.620316 
L 586.116214 278.797349 
L 588.259499 279.82137 
L 590.402784 278.301877 
L 592.546068 279.807931 
L 594.689353 281.074276 
L 596.832637 282.209358 
L 598.975922 284.231133 
L 601.119207 284.565564 
L 603.262491 285.549459 
L 605.405776 286.112746 
L 607.54906 284.971991 
L 609.692345 285.390109 
L 611.83563 288.891234 
L 613.978914 289.468553 
L 616.122199 288.056306 
L 618.265483 288.427875 
L 620.408768 289.337157 
L 622.552053 289.480451 
L 624.695337 291.055636 
L 626.838622 291.91471 
L 628.981906 294.322894 
L 631.125191 285.425185 
L 633.268476 267.722686 
L 635.41176 240.714317 
L 637.555045 217.82375 
L 639.698329 192.936257 
L 641.841614 176.577849 
L 643.984899 168.85456 
L 646.128183 171.908355 
L 648.271468 183.410487 
L 650.414752 193.262584 
L 652.558037 204.140921 
L 654.701322 214.663423 
L 656.844606 226.651403 
L 658.987891 234.670284 
L 661.131175 240.254976 
L 663.27446 245.497818 
L 665.417745 249.582902 
L 667.561029 251.277658 
L 669.704314 256.515619 
L 671.847599 258.536089 
L 673.990883 263.003559 
L 676.134168 267.86545 
L 678.277452 271.748446 
L 680.420737 272.111226 
L 682.564022 270.019301 
L 684.707306 266.204335 
L 686.850591 266.588006 
L 688.993875 266.768253 
L 691.13716 268.700114 
L 693.280445 271.129847 
L 695.423729 273.033515 
L 697.567014 272.914172 
L 699.710298 272.194938 
L 701.853583 274.163487 
L 703.996868 273.132172 
L 706.140152 273.509493 
L 708.283437 274.623274 
L 710.426721 276.118304 
L 712.570006 279.867709 
L 714.713291 283.463232 
L 716.856575 286.015912 
L 718.99986 288.301528 
L 721.143144 287.886667 
L 723.286429 288.060409 
L 725.429714 284.871481 
L 727.572998 287.037771 
L 729.716283 289.140447 
L 731.859567 289.896794 
L 734.002852 289.136085 
L 736.146137 290.076815 
L 738.289421 289.520231 
L 740.432706 286.946312 
L 742.57599 286.931435 
L 744.719275 285.877766 
L 746.86256 282.832464 
L 749.005844 281.977662 
L 751.149129 281.65866 
L 753.292413 282.114096 
L 755.435698 280.663437 
L 757.578983 281.783851 
L 759.722267 281.858698 
L 761.865552 281.116299 
L 764.008837 279.990274 
L 766.152121 282.497445 
L 768.295406 285.344076 
L 770.43869 285.578245 
L 772.581975 285.447407 
L 774.72526 283.81164 
L 776.868544 283.932206 
L 779.011829 283.787613 
L 781.155113 285.73935 
L 783.298398 286.178489 
L 785.441683 289.285842 
L 787.584967 290.153252 
L 789.728252 290.881388 
L 791.871536 289.324053 
L 794.014821 290.505258 
L 796.158106 290.927516 
L 798.30139 290.457212 
L 800.444675 288.740647 
L 802.587959 285.892143 
L 804.731244 286.20252 
L 806.874529 287.44379 
L 809.017813 287.731841 
L 811.161098 288.877252 
L 813.304382 290.040134 
L 815.447667 289.28867 
L 817.590952 289.159308 
L 819.734236 288.375774 
L 821.877521 288.70254 
L 824.020805 289.352959 
L 826.16409 289.731002 
L 828.307375 290.652504 
L 830.450659 290.314944 
L 832.593944 292.421271 
L 834.737228 295.276827 
L 836.880513 297.69063 
L 839.023798 297.769283 
L 841.167082 298.830637 
L 843.310367 297.5631 
L 845.453651 297.942944 
L 847.596936 299.949636 
L 849.740221 302.260305 
L 851.883505 301.908264 
L 854.02679 299.934942 
L 856.170075 301.524951 
L 858.313359 302.781367 
L 860.456644 300.840103 
L 862.599928 297.366183 
L 864.743213 296.567121 
L 866.886498 296.744275 
L 869.029782 295.652606 
L 871.173067 296.871352 
L 873.316351 297.651015 
L 875.459636 299.580006 
L 877.602921 299.352157 
L 879.746205 300.06559 
L 881.88949 298.831823 
L 884.032774 298.195862 
L 886.176059 296.71042 
L 888.319344 297.966771 
L 890.462628 297.195773 
L 892.605913 295.290855 
L 894.749197 295.237506 
L 896.892482 294.992742 
L 899.035767 295.837634 
L 901.179051 295.547677 
L 903.322336 293.042017 
L 905.46562 292.887329 
L 907.608905 294.441299 
L 909.75219 294.900094 
L 911.895474 296.977322 
L 914.038759 296.33438 
L 916.182043 297.818632 
L 918.325328 296.29797 
L 920.468613 298.060548 
L 922.611897 297.414533 
L 924.755182 295.615495 
L 926.898466 296.054738 
L 929.041751 294.943506 
L 931.185036 295.58038 
L 933.32832 296.897669 
L 935.471605 296.857508 
L 937.61489 296.855284 
L 939.758174 298.089219 
L 941.901459 300.106904 
L 944.044743 301.187574 
L 946.188028 301.77883 
L 948.331313 301.608765 
L 950.474597 301.244753 
L 952.617882 300.572688 
L 954.761166 299.84671 
L 956.904451 299.663944 
L 959.047736 299.34722 
L 961.19102 299.198073 
L 963.334305 299.288004 
L 965.477589 299.803163 
L 967.620874 300.36427 
L 969.764159 300.482648 
L 971.907443 299.591475 
L 971.907443 289.657145 
L 971.907443 289.657145 
L 969.764159 289.738619 
L 967.620874 289.763953 
L 965.477589 289.767529 
L 963.334305 289.913079 
L 961.19102 291.028677 
L 959.047736 291.184947 
L 956.904451 291.870199 
L 954.761166 290.88244 
L 952.617882 290.805296 
L 950.474597 291.479848 
L 948.331313 292.729125 
L 946.188028 292.917975 
L 944.044743 292.645851 
L 941.901459 291.938872 
L 939.758174 290.331304 
L 937.61489 287.485289 
L 935.471605 288.00925 
L 933.32832 287.859109 
L 931.185036 286.502653 
L 929.041751 285.786844 
L 926.898466 285.433639 
L 924.755182 284.765374 
L 922.611897 285.336745 
L 920.468613 285.236406 
L 918.325328 286.158845 
L 916.182043 287.954592 
L 914.038759 286.559458 
L 911.895474 285.502126 
L 909.75219 283.949762 
L 907.608905 283.502627 
L 905.46562 282.802336 
L 903.322336 282.849576 
L 901.179051 284.453893 
L 899.035767 286.567394 
L 896.892482 287.415767 
L 894.749197 287.484655 
L 892.605913 286.388864 
L 890.462628 286.458681 
L 888.319344 286.25816 
L 886.176059 285.001087 
L 884.032774 287.011307 
L 881.88949 288.065137 
L 879.746205 290.444946 
L 877.602921 291.57556 
L 875.459636 290.659355 
L 873.316351 289.880386 
L 871.173067 288.190514 
L 869.029782 287.664684 
L 866.886498 287.680084 
L 864.743213 286.703601 
L 862.599928 288.823642 
L 860.456644 290.460398 
L 858.313359 291.182806 
L 856.170075 292.402319 
L 854.02679 291.717387 
L 851.883505 292.287154 
L 849.740221 291.798931 
L 847.596936 290.458187 
L 845.453651 289.068743 
L 843.310367 287.533464 
L 841.167082 287.381941 
L 839.023798 286.367096 
L 836.880513 285.78897 
L 834.737228 284.873623 
L 832.593944 282.216279 
L 830.450659 280.856174 
L 828.307375 279.622124 
L 826.16409 279.13272 
L 824.020805 278.918057 
L 821.877521 277.693746 
L 819.734236 277.755089 
L 817.590952 279.059679 
L 815.447667 280.135204 
L 813.304382 281.050847 
L 811.161098 280.130191 
L 809.017813 276.722835 
L 806.874529 275.075678 
L 804.731244 276.213309 
L 802.587959 275.904794 
L 800.444675 277.15908 
L 798.30139 279.208852 
L 796.158106 280.360453 
L 794.014821 280.293151 
L 791.871536 279.355747 
L 789.728252 278.821103 
L 787.584967 277.830984 
L 785.441683 276.52367 
L 783.298398 274.18195 
L 781.155113 272.773401 
L 779.011829 270.444813 
L 776.868544 269.694814 
L 774.72526 269.978298 
L 772.581975 270.969597 
L 770.43869 270.755066 
L 768.295406 269.038503 
L 766.152121 266.424937 
L 764.008837 266.041587 
L 761.865552 265.923526 
L 759.722267 265.61542 
L 757.578983 265.513059 
L 755.435698 265.477652 
L 753.292413 266.460348 
L 751.149129 266.553275 
L 749.005844 265.139117 
L 746.86256 263.838685 
L 744.719275 266.95365 
L 742.57599 267.98227 
L 740.432706 268.520316 
L 738.289421 269.71809 
L 736.146137 269.268887 
L 734.002852 267.65632 
L 731.859567 269.474642 
L 729.716283 269.666633 
L 727.572998 267.320745 
L 725.429714 263.428817 
L 723.286429 261.525608 
L 721.143144 258.013762 
L 718.99986 254.786247 
L 716.856575 250.99648 
L 714.713291 248.134734 
L 712.570006 244.96615 
L 710.426721 242.102862 
L 708.283437 240.866284 
L 706.140152 240.629993 
L 703.996868 240.984866 
L 701.853583 242.639499 
L 699.710298 242.252624 
L 697.567014 240.716009 
L 695.423729 237.248701 
L 693.280445 233.563116 
L 691.13716 231.381185 
L 688.993875 228.573023 
L 686.850591 225.12069 
L 684.707306 229.811181 
L 682.564022 235.759984 
L 680.420737 236.28972 
L 678.277452 233.570568 
L 676.134168 228.879048 
L 673.990883 223.572986 
L 671.847599 217.68224 
L 669.704314 213.471837 
L 667.561029 208.786335 
L 665.417745 204.283381 
L 663.27446 198.83332 
L 661.131175 191.606677 
L 658.987891 182.314889 
L 656.844606 170.816652 
L 654.701322 159.009886 
L 652.558037 148.888219 
L 650.414752 140.377842 
L 648.271468 133.69431 
L 646.128183 128.9348 
L 643.984899 129.409517 
L 641.841614 136.212594 
L 639.698329 148.738204 
L 637.555045 166.719223 
L 635.41176 186.747552 
L 633.268476 214.864394 
L 631.125191 244.541785 
L 628.981906 268.248258 
L 626.838622 283.078668 
L 624.695337 281.070331 
L 622.552053 279.70952 
L 620.408768 278.963131 
L 618.265483 277.195196 
L 616.122199 276.186202 
L 613.978914 276.796037 
L 611.83563 275.927375 
L 609.692345 273.504767 
L 607.54906 271.930095 
L 605.405776 271.720989 
L 603.262491 272.077204 
L 601.119207 272.06787 
L 598.975922 271.335807 
L 596.832637 270.149134 
L 594.689353 268.600462 
L 592.546068 267.294012 
L 590.402784 266.973911 
L 588.259499 268.526501 
L 586.116214 269.18079 
L 583.97293 269.663181 
L 581.829645 269.446213 
L 579.68636 269.617509 
L 577.543076 267.57736 
L 575.399791 267.187079 
L 573.256507 268.290845 
L 571.113222 268.0832 
L 568.969937 266.918833 
L 566.826653 267.214214 
L 564.683368 271.697518 
L 562.540084 272.148614 
L 560.396799 273.227737 
L 558.253514 274.099016 
L 556.11023 275.577366 
L 553.966945 277.319026 
L 551.823661 279.785496 
L 549.680376 281.845407 
L 547.537091 280.297884 
L 545.393807 282.190514 
z
" clip-path="url(#p1e10dcec63)" style="fill: #1f77b4; fill-opacity: 0.3"/>
   </g>
   <g id="matplotlib.axis_3">
    <g id="xtick_10">
     <g id="line2d_18">
      <g>
       <use xlink:href="#m4ed1c8a439" x="545.393807" y="313.478125" style="stroke: #000000; stroke-width: 0.8"/>
      </g>
     </g>
     <g id="text_20">
      <!-- 0 -->
      <g transform="translate(542.212557 328.076563) scale(0.1 -0.1)">
       <use xlink:href="#DejaVuSans-30"/>
      </g>
     </g>
    </g>
    <g id="xtick_11">
     <g id="line2d_19">
      <g>
       <use xlink:href="#m4ed1c8a439" x="596.832637" y="313.478125" style="stroke: #000000; stroke-width: 0.8"/>
      </g>
     </g>
     <g id="text_21">
      <!-- 24 -->
      <g transform="translate(590.470137 328.076563) scale(0.1 -0.1)">
       <use xlink:href="#DejaVuSans-32"/>
       <use xlink:href="#DejaVuSans-34" transform="translate(63.623047 0)"/>
      </g>
     </g>
    </g>
    <g id="xtick_12">
     <g id="line2d_20">
      <g>
       <use xlink:href="#m4ed1c8a439" x="650.414752" y="313.478125" style="stroke: #000000; stroke-width: 0.8"/>
      </g>
     </g>
     <g id="text_22">
      <!-- 49 -->
      <g transform="translate(644.052252 328.076563) scale(0.1 -0.1)">
       <use xlink:href="#DejaVuSans-34"/>
       <use xlink:href="#DejaVuSans-39" transform="translate(63.623047 0)"/>
      </g>
     </g>
    </g>
    <g id="xtick_13">
     <g id="line2d_21">
      <g>
       <use xlink:href="#m4ed1c8a439" x="703.996868" y="313.478125" style="stroke: #000000; stroke-width: 0.8"/>
      </g>
     </g>
     <g id="text_23">
      <!-- 74 -->
      <g transform="translate(697.634368 328.076563) scale(0.1 -0.1)">
       <use xlink:href="#DejaVuSans-37"/>
       <use xlink:href="#DejaVuSans-34" transform="translate(63.623047 0)"/>
      </g>
     </g>
    </g>
    <g id="xtick_14">
     <g id="line2d_22">
      <g>
       <use xlink:href="#m4ed1c8a439" x="757.578983" y="313.478125" style="stroke: #000000; stroke-width: 0.8"/>
      </g>
     </g>
     <g id="text_24">
      <!-- 99 -->
      <g transform="translate(751.216483 328.076563) scale(0.1 -0.1)">
       <use xlink:href="#DejaVuSans-39"/>
       <use xlink:href="#DejaVuSans-39" transform="translate(63.623047 0)"/>
      </g>
     </g>
    </g>
    <g id="xtick_15">
     <g id="line2d_23">
      <g>
       <use xlink:href="#m4ed1c8a439" x="811.161098" y="313.478125" style="stroke: #000000; stroke-width: 0.8"/>
      </g>
     </g>
     <g id="text_25">
      <!-- 124 -->
      <g transform="translate(801.617348 328.076563) scale(0.1 -0.1)">
       <use xlink:href="#DejaVuSans-31"/>
       <use xlink:href="#DejaVuSans-32" transform="translate(63.623047 0)"/>
       <use xlink:href="#DejaVuSans-34" transform="translate(127.246094 0)"/>
      </g>
     </g>
    </g>
    <g id="xtick_16">
     <g id="line2d_24">
      <g>
       <use xlink:href="#m4ed1c8a439" x="864.743213" y="313.478125" style="stroke: #000000; stroke-width: 0.8"/>
      </g>
     </g>
     <g id="text_26">
      <!-- 149 -->
      <g transform="translate(855.199463 328.076563) scale(0.1 -0.1)">
       <use xlink:href="#DejaVuSans-31"/>
       <use xlink:href="#DejaVuSans-34" transform="translate(63.623047 0)"/>
       <use xlink:href="#DejaVuSans-39" transform="translate(127.246094 0)"/>
      </g>
     </g>
    </g>
    <g id="xtick_17">
     <g id="line2d_25">
      <g>
       <use xlink:href="#m4ed1c8a439" x="918.325328" y="313.478125" style="stroke: #000000; stroke-width: 0.8"/>
      </g>
     </g>
     <g id="text_27">
      <!-- 174 -->
      <g transform="translate(908.781578 328.076563) scale(0.1 -0.1)">
       <use xlink:href="#DejaVuSans-31"/>
       <use xlink:href="#DejaVuSans-37" transform="translate(63.623047 0)"/>
       <use xlink:href="#DejaVuSans-34" transform="translate(127.246094 0)"/>
      </g>
     </g>
    </g>
    <g id="xtick_18">
     <g id="line2d_26">
      <g>
       <use xlink:href="#m4ed1c8a439" x="971.907443" y="313.478125" style="stroke: #000000; stroke-width: 0.8"/>
      </g>
     </g>
     <g id="text_28">
      <!-- 199 -->
      <g transform="translate(962.363693 328.076563) scale(0.1 -0.1)">
       <use xlink:href="#DejaVuSans-31"/>
       <use xlink:href="#DejaVuSans-39" transform="translate(63.623047 0)"/>
       <use xlink:href="#DejaVuSans-39" transform="translate(127.246094 0)"/>
      </g>
     </g>
    </g>
    <g id="text_29">
     <!-- Spatial bin -->
     <g transform="translate(732.114687 341.754687) scale(0.1 -0.1)">
      <use xlink:href="#DejaVuSans-53"/>
      <use xlink:href="#DejaVuSans-70" transform="translate(63.476562 0)"/>
      <use xlink:href="#DejaVuSans-61" transform="translate(126.953125 0)"/>
      <use xlink:href="#DejaVuSans-74" transform="translate(188.232422 0)"/>
      <use xlink:href="#DejaVuSans-69" transform="translate(227.441406 0)"/>
      <use xlink:href="#DejaVuSans-61" transform="translate(255.224609 0)"/>
      <use xlink:href="#DejaVuSans-6c" transform="translate(316.503906 0)"/>
      <use xlink:href="#DejaVuSans-20" transform="translate(344.287109 0)"/>
      <use xlink:href="#DejaVuSans-62" transform="translate(376.074219 0)"/>
      <use xlink:href="#DejaVuSans-69" transform="translate(439.550781 0)"/>
      <use xlink:href="#DejaVuSans-6e" transform="translate(467.333984 0)"/>
     </g>
    </g>
   </g>
   <g id="matplotlib.axis_4">
    <g id="ytick_8">
     <g id="line2d_27">
      <g>
       <use xlink:href="#mb54708cd10" x="524.068125" y="291.081202" style="stroke: #000000; stroke-width: 0.8"/>
      </g>
     </g>
    </g>
    <g id="ytick_9">
     <g id="line2d_28">
      <g>
       <use xlink:href="#mb54708cd10" x="524.068125" y="246.287356" style="stroke: #000000; stroke-width: 0.8"/>
      </g>
     </g>
    </g>
    <g id="ytick_10">
     <g id="line2d_29">
      <g>
       <use xlink:href="#mb54708cd10" x="524.068125" y="201.49351" style="stroke: #000000; stroke-width: 0.8"/>
      </g>
     </g>
    </g>
    <g id="ytick_11">
     <g id="line2d_30">
      <g>
       <use xlink:href="#mb54708cd10" x="524.068125" y="156.699663" style="stroke: #000000; stroke-width: 0.8"/>
      </g>
     </g>
    </g>
    <g id="ytick_12">
     <g id="line2d_31">
      <g>
       <use xlink:href="#mb54708cd10" x="524.068125" y="111.905817" style="stroke: #000000; stroke-width: 0.8"/>
      </g>
     </g>
    </g>
    <g id="ytick_13">
     <g id="line2d_32">
      <g>
       <use xlink:href="#mb54708cd10" x="524.068125" y="67.111971" style="stroke: #000000; stroke-width: 0.8"/>
      </g>
     </g>
    </g>
    <g id="ytick_14">
     <g id="line2d_33">
      <g>
       <use xlink:href="#mb54708cd10" x="524.068125" y="22.318125" style="stroke: #000000; stroke-width: 0.8"/>
      </g>
     </g>
    </g>
   </g>
   <g id="line2d_34">
    <path d="M 545.393807 285.880781 
L 547.537091 285.18705 
L 549.680376 286.467957 
L 553.966945 282.336807 
L 556.11023 281.219629 
L 558.253514 278.809733 
L 560.396799 277.851877 
L 562.540084 276.762426 
L 564.683368 276.674023 
L 566.826653 273.116474 
L 568.969937 271.998611 
L 571.113222 272.727488 
L 575.399791 272.339334 
L 577.543076 273.547379 
L 579.68636 275.026027 
L 581.829645 275.492149 
L 583.97293 275.141749 
L 586.116214 273.989069 
L 588.259499 274.173936 
L 590.402784 272.637894 
L 592.546068 273.550971 
L 596.832637 276.179246 
L 598.975922 277.78347 
L 603.262491 278.813331 
L 605.405776 278.916868 
L 607.54906 278.451043 
L 609.692345 279.447438 
L 611.83563 282.409305 
L 613.978914 283.132295 
L 616.122199 282.121254 
L 618.265483 282.811536 
L 620.408768 284.150144 
L 622.552053 284.594986 
L 626.838622 287.496689 
L 628.981906 281.285576 
L 631.125191 264.983485 
L 633.268476 241.29354 
L 635.41176 213.730935 
L 639.698329 170.83723 
L 641.841614 156.395222 
L 643.984899 149.132038 
L 646.128183 150.421578 
L 650.414752 166.820213 
L 652.558037 176.51457 
L 654.701322 186.836654 
L 656.844606 198.734027 
L 658.987891 208.492586 
L 661.131175 215.930826 
L 663.27446 222.165569 
L 665.417745 226.933142 
L 667.561029 230.031997 
L 669.704314 234.993728 
L 671.847599 238.109165 
L 676.134168 248.372249 
L 678.277452 252.659507 
L 680.420737 254.200473 
L 682.564022 252.889643 
L 684.707306 248.007758 
L 686.850591 245.854348 
L 688.993875 247.670638 
L 693.280445 252.346481 
L 695.423729 255.141108 
L 697.567014 256.81509 
L 699.710298 257.223781 
L 701.853583 258.401493 
L 703.996868 257.058519 
L 706.140152 257.069743 
L 708.283437 257.744779 
L 710.426721 259.110583 
L 714.713291 265.798983 
L 716.856575 268.506196 
L 718.99986 271.543887 
L 721.143144 272.950214 
L 723.286429 274.793008 
L 725.429714 274.150149 
L 727.572998 277.179258 
L 729.716283 279.40354 
L 731.859567 279.685718 
L 734.002852 278.396202 
L 736.146137 279.672851 
L 738.289421 279.61916 
L 740.432706 277.733314 
L 742.57599 277.456852 
L 744.719275 276.415708 
L 746.86256 273.335574 
L 749.005844 273.558389 
L 751.149129 274.105968 
L 753.292413 274.287222 
L 755.435698 273.070544 
L 757.578983 273.648455 
L 759.722267 273.737059 
L 761.865552 273.519913 
L 764.008837 273.01593 
L 766.152121 274.461191 
L 768.295406 277.19129 
L 770.43869 278.166656 
L 772.581975 278.208502 
L 774.72526 276.894969 
L 776.868544 276.81351 
L 779.011829 277.116213 
L 781.155113 279.256376 
L 783.298398 280.18022 
L 785.441683 282.904756 
L 787.584967 283.992118 
L 789.728252 284.851246 
L 791.871536 284.3399 
L 794.014821 285.399204 
L 796.158106 285.643985 
L 798.30139 284.833032 
L 800.444675 282.949864 
L 802.587959 280.898469 
L 804.731244 281.207915 
L 806.874529 281.259734 
L 809.017813 282.227338 
L 811.161098 284.503721 
L 813.304382 285.54549 
L 815.447667 284.711937 
L 817.590952 284.109494 
L 819.734236 283.065431 
L 821.877521 283.198143 
L 824.020805 284.135508 
L 826.16409 284.431861 
L 828.307375 285.137314 
L 830.450659 285.585559 
L 832.593944 287.318775 
L 834.737228 290.075225 
L 836.880513 291.7398 
L 839.023798 292.06819 
L 841.167082 293.106289 
L 843.310367 292.548282 
L 845.453651 293.505843 
L 849.740221 297.029618 
L 851.883505 297.097709 
L 854.02679 295.826164 
L 856.170075 296.963635 
L 858.313359 296.982087 
L 860.456644 295.650251 
L 862.599928 293.094912 
L 864.743213 291.635361 
L 866.886498 292.212179 
L 869.029782 291.658645 
L 871.173067 292.530933 
L 875.459636 295.119681 
L 877.602921 295.463858 
L 879.746205 295.255268 
L 881.88949 293.44848 
L 884.032774 292.603585 
L 886.176059 290.855753 
L 888.319344 292.112465 
L 890.462628 291.827227 
L 892.605913 290.83986 
L 894.749197 291.36108 
L 896.892482 291.204254 
L 899.035767 291.202514 
L 901.179051 290.000785 
L 903.322336 287.945797 
L 905.46562 287.844833 
L 907.608905 288.971963 
L 909.75219 289.424928 
L 911.895474 291.239724 
L 914.038759 291.446919 
L 916.182043 292.886612 
L 918.325328 291.228407 
L 920.468613 291.648477 
L 922.611897 291.375639 
L 924.755182 290.190435 
L 926.898466 290.744189 
L 929.041751 290.365175 
L 931.185036 291.041517 
L 933.32832 292.378389 
L 935.471605 292.433379 
L 937.61489 292.170286 
L 939.758174 294.210261 
L 941.901459 296.022888 
L 944.044743 296.916712 
L 946.188028 297.348402 
L 948.331313 297.168945 
L 950.474597 296.3623 
L 952.617882 295.688992 
L 954.761166 295.364575 
L 956.904451 295.767071 
L 959.047736 295.266083 
L 961.19102 295.113375 
L 963.334305 294.600542 
L 969.764159 295.110633 
L 971.907443 294.62431 
L 971.907443 294.62431 
" clip-path="url(#p1e10dcec63)" style="fill: none; stroke: #ff0000; stroke-width: 3; stroke-linecap: square"/>
   </g>
   <g id="LineCollection_2">
    <path d="M 652.558037 313.478125 
L 652.558037 22.318125 
" clip-path="url(#p1e10dcec63)" style="fill: none; stroke-dasharray: 5.55,2.4; stroke-dashoffset: 0; stroke: #ff0000; stroke-width: 1.5"/>
    <path d="M 759.722267 313.478125 
L 759.722267 22.318125 
" clip-path="url(#p1e10dcec63)" style="fill: none; stroke-dasharray: 5.55,2.4; stroke-dashoffset: 0; stroke: #ff0000; stroke-width: 1.5"/>
   </g>
   <g id="patch_8">
    <path d="M 524.068125 313.478125 
L 524.068125 22.318125 
" style="fill: none; stroke: #000000; stroke-width: 0.8; stroke-linejoin: miter; stroke-linecap: square"/>
   </g>
   <g id="patch_9">
    <path d="M 993.233125 313.478125 
L 993.233125 22.318125 
" style="fill: none; stroke: #000000; stroke-width: 0.8; stroke-linejoin: miter; stroke-linecap: square"/>
   </g>
   <g id="patch_10">
    <path d="M 524.068125 313.478125 
L 993.233125 313.478125 
" style="fill: none; stroke: #000000; stroke-width: 0.8; stroke-linejoin: miter; stroke-linecap: square"/>
   </g>
   <g id="patch_11">
    <path d="M 524.068125 22.318125 
L 993.233125 22.318125 
" style="fill: none; stroke: #000000; stroke-width: 0.8; stroke-linejoin: miter; stroke-linecap: square"/>
   </g>
   <g id="text_30">
    <!-- Corridor 0.0 -->
    <g transform="translate(722.899063 16.318125) scale(0.12 -0.12)">
     <use xlink:href="#DejaVuSans-43"/>
     <use xlink:href="#DejaVuSans-6f" transform="translate(69.824219 0)"/>
     <use xlink:href="#DejaVuSans-72" transform="translate(131.005859 0)"/>
     <use xlink:href="#DejaVuSans-72" transform="translate(170.369141 0)"/>
     <use xlink:href="#DejaVuSans-69" transform="translate(211.482422 0)"/>
     <use xlink:href="#DejaVuSans-64" transform="translate(239.265625 0)"/>
     <use xlink:href="#DejaVuSans-6f" transform="translate(302.742188 0)"/>
     <use xlink:href="#DejaVuSans-72" transform="translate(363.923828 0)"/>
     <use xlink:href="#DejaVuSans-20" transform="translate(405.037109 0)"/>
     <use xlink:href="#DejaVuSans-30" transform="translate(436.824219 0)"/>
     <use xlink:href="#DejaVuSans-2e" transform="translate(500.447266 0)"/>
     <use xlink:href="#DejaVuSans-30" transform="translate(532.234375 0)"/>
    </g>
   </g>
  </g>
 </g>
 <defs>
  <clipPath id="pc553ad2ffa">
   <rect x="40.603125" y="22.318125" width="469.165" height="291.16"/>
  </clipPath>
  <clipPath id="p1e10dcec63">
   <rect x="524.068125" y="22.318125" width="469.165" height="291.16"/>
  </clipPath>
 </defs>
</svg>
