<?xml version="1.0" encoding="utf-8" standalone="no"?>
<!DOCTYPE svg PUBLIC "-//W3C//DTD SVG 1.1//EN"
  "http://www.w3.org/Graphics/SVG/1.1/DTD/svg11.dtd">
<svg xmlns:xlink="http://www.w3.org/1999/xlink" width="1000.433125pt" height="351.034375pt" viewBox="0 0 1000.433125 351.034375" xmlns="http://www.w3.org/2000/svg" version="1.1">
 <metadata>
  <rdf:RDF xmlns:dc="http://purl.org/dc/elements/1.1/" xmlns:cc="http://creativecommons.org/ns#" xmlns:rdf="http://www.w3.org/1999/02/22-rdf-syntax-ns#">
   <cc:Work>
    <dc:type rdf:resource="http://purl.org/dc/dcmitype/StillImage"/>
    <dc:date>2025-11-24T15:05:14.493481</dc:date>
    <dc:format>image/svg+xml</dc:format>
    <dc:creator>
     <cc:Agent>
      <dc:title>Matplotlib v3.10.0, https://matplotlib.org/</dc:title>
     </cc:Agent>
    </dc:creator>
   </cc:Work>
  </rdf:RDF>
 </metadata>
 <defs>
  <style type="text/css">*{stroke-linejoin: round; stroke-linecap: butt}</style>
 </defs>
 <g id="figure_1">
  <g id="patch_1">
   <path d="M 0 351.034375 
L 1000.433125 351.034375 
L 1000.433125 0 
L 0 0 
z
" style="fill: #ffffff"/>
  </g>
  <g id="axes_1">
   <g id="patch_2">
    <path d="M 40.603125 313.478125 
L 509.768125 313.478125 
L 509.768125 22.318125 
L 40.603125 22.318125 
z
" style="fill: #ffffff"/>
   </g>
   <g id="FillBetweenPolyCollection_1">
    <path d="M 61.928807 299.034105 
L 61.928807 312.974078 
L 64.791314 311.62635 
L 67.653822 310.539102 
L 70.51633 310.404839 
L 73.378837 309.433655 
L 76.241345 306.561048 
L 79.103853 304.663459 
L 81.96636 304.577476 
L 84.828868 305.158337 
L 87.691375 305.630161 
L 90.553883 304.820491 
L 93.416391 301.279481 
L 96.278898 300.56235 
L 99.141406 299.784768 
L 102.003914 300.092326 
L 104.866421 299.336873 
L 107.728929 298.790069 
L 110.591436 301.174314 
L 113.453944 303.13014 
L 116.316452 303.456538 
L 119.178959 302.67929 
L 122.041467 300.942074 
L 124.903975 301.546013 
L 127.766482 301.465869 
L 130.62899 300.626289 
L 133.491497 300.932585 
L 136.354005 299.26299 
L 139.216513 298.072619 
L 142.07902 296.608069 
L 144.941528 296.727602 
L 147.804036 296.374305 
L 150.666543 296.172674 
L 153.529051 295.390573 
L 156.391558 295.332177 
L 159.254066 295.459666 
L 162.116574 294.422844 
L 164.979081 294.494487 
L 167.841589 295.395858 
L 170.704097 296.255918 
L 173.566604 296.668677 
L 176.429112 297.109845 
L 179.29162 297.869529 
L 182.154127 299.114502 
L 185.016635 300.818813 
L 187.879142 300.299657 
L 190.74165 299.078663 
L 193.604158 297.279225 
L 196.466665 294.679016 
L 199.329173 292.642616 
L 202.191681 292.393896 
L 205.054188 292.812806 
L 207.916696 293.670119 
L 210.779203 293.896063 
L 213.641711 294.401899 
L 216.504219 295.502537 
L 219.366726 295.939237 
L 222.229234 295.705659 
L 225.091742 295.918572 
L 227.954249 295.891288 
L 230.816757 297.173213 
L 233.679264 297.489934 
L 236.541772 297.582497 
L 239.40428 297.549834 
L 242.266787 300.895687 
L 245.129295 299.983533 
L 247.991803 299.812254 
L 250.85431 302.671143 
L 253.716818 304.123762 
L 256.579325 304.161966 
L 259.441833 303.391154 
L 262.304341 301.647656 
L 265.166848 301.125271 
L 268.029356 301.024251 
L 270.891864 300.42679 
L 273.754371 300.715918 
L 276.616879 301.059136 
L 279.479386 301.724254 
L 282.341894 302.403978 
L 285.204402 302.245538 
L 288.066909 304.022419 
L 290.929417 304.742348 
L 293.791925 305.218195 
L 296.654432 305.525013 
L 299.51694 306.826432 
L 302.379447 307.503091 
L 305.241955 307.321529 
L 308.104463 307.097326 
L 310.96697 306.983742 
L 313.829478 307.054831 
L 316.691986 306.09723 
L 319.554493 304.242688 
L 322.417001 304.238718 
L 325.279508 304.726372 
L 328.142016 305.219099 
L 331.004524 306.499082 
L 333.867031 306.607047 
L 336.729539 306.730139 
L 339.592047 306.135322 
L 342.454554 304.101259 
L 345.317062 306.027417 
L 348.179569 307.422034 
L 351.042077 307.960276 
L 353.904585 307.941289 
L 356.767092 307.670475 
L 359.6296 308.345023 
L 362.492108 308.896837 
L 365.354615 309.709696 
L 368.217123 308.528015 
L 371.07963 309.269833 
L 373.942138 309.309339 
L 376.804646 310.114811 
L 379.667153 309.422963 
L 382.529661 309.792568 
L 385.392169 308.972118 
L 388.254676 308.068127 
L 391.117184 307.784224 
L 393.979692 308.042415 
L 396.842199 307.752285 
L 399.704707 307.834312 
L 402.567214 307.443181 
L 405.429722 307.096494 
L 408.29223 307.768077 
L 411.154737 307.674694 
L 414.017245 312.692796 
L 416.879753 310.711978 
L 419.74226 305.112573 
L 422.604768 302.532954 
L 425.467275 301.185059 
L 428.329783 298.776363 
L 431.192291 299.400208 
L 434.054798 305.851588 
L 436.917306 304.207993 
L 439.779814 303.843336 
L 442.642321 308.460318 
L 445.504829 311.943399 
L 448.367336 314.138403 
L 451.229844 311.719191 
L 454.092352 309.017649 
L 456.954859 308.475134 
L 459.817367 308.702792 
L 462.679875 309.192154 
L 465.542382 311.413395 
L 468.40489 312.894285 
L 471.267397 312.928219 
L 474.129905 311.819437 
L 476.992413 309.243756 
L 479.85492 306.445629 
L 482.717428 304.279999 
L 485.579936 305.308447 
L 488.442443 324.875156 
L 488.442443 287.052817 
L 488.442443 287.052817 
L 485.579936 275.916042 
L 482.717428 275.720317 
L 479.85492 275.214565 
L 476.992413 274.689912 
L 474.129905 274.765841 
L 471.267397 276.548277 
L 468.40489 279.120559 
L 465.542382 279.82028 
L 462.679875 281.963766 
L 459.817367 281.493325 
L 456.954859 284.484183 
L 454.092352 284.256099 
L 451.229844 283.768606 
L 448.367336 280.920915 
L 445.504829 277.135367 
L 442.642321 275.041765 
L 439.779814 276.154786 
L 436.917306 274.330711 
L 434.054798 274.405576 
L 431.192291 276.352533 
L 428.329783 277.673424 
L 425.467275 280.280834 
L 422.604768 284.048829 
L 419.74226 285.352422 
L 416.879753 283.483219 
L 414.017245 283.262907 
L 411.154737 286.59807 
L 408.29223 288.290558 
L 405.429722 286.233105 
L 402.567214 285.537463 
L 399.704707 285.807041 
L 396.842199 286.312528 
L 393.979692 287.28243 
L 391.117184 288.43446 
L 388.254676 290.31366 
L 385.392169 291.656437 
L 382.529661 291.734621 
L 379.667153 290.92079 
L 376.804646 291.556371 
L 373.942138 290.874752 
L 371.07963 292.12447 
L 368.217123 291.886145 
L 365.354615 293.72053 
L 362.492108 292.590355 
L 359.6296 291.463704 
L 356.767092 290.370759 
L 353.904585 290.616243 
L 351.042077 290.045159 
L 348.179569 289.215502 
L 345.317062 287.203771 
L 342.454554 286.443023 
L 339.592047 287.291455 
L 336.729539 287.470194 
L 333.867031 288.417345 
L 331.004524 288.275754 
L 328.142016 287.53091 
L 325.279508 287.98472 
L 322.417001 288.691419 
L 319.554493 288.823441 
L 316.691986 288.20954 
L 313.829478 287.464716 
L 310.96697 288.181217 
L 308.104463 288.55425 
L 305.241955 287.445704 
L 302.379447 287.525909 
L 299.51694 287.961151 
L 296.654432 287.731973 
L 293.791925 287.747682 
L 290.929417 288.480145 
L 288.066909 286.325892 
L 285.204402 284.355505 
L 282.341894 284.289977 
L 279.479386 283.803574 
L 276.616879 282.841207 
L 273.754371 282.204083 
L 270.891864 281.722333 
L 268.029356 282.696767 
L 265.166848 282.256313 
L 262.304341 282.304003 
L 259.441833 283.000594 
L 256.579325 283.948 
L 253.716818 284.601051 
L 250.85431 284.150346 
L 247.991803 284.791182 
L 245.129295 285.950008 
L 242.266787 287.138838 
L 239.40428 286.519402 
L 236.541772 286.384112 
L 233.679264 287.222447 
L 230.816757 287.371186 
L 227.954249 286.826308 
L 225.091742 285.867931 
L 222.229234 283.943647 
L 219.366726 283.849432 
L 216.504219 284.720429 
L 213.641711 285.310584 
L 210.779203 285.130606 
L 207.916696 284.812835 
L 205.054188 284.657859 
L 202.191681 284.905196 
L 199.329173 284.329599 
L 196.466665 285.896658 
L 193.604158 289.109654 
L 190.74165 289.771668 
L 187.879142 290.36678 
L 185.016635 289.558301 
L 182.154127 287.517643 
L 179.29162 287.244594 
L 176.429112 287.038042 
L 173.566604 287.134715 
L 170.704097 285.989131 
L 167.841589 285.136647 
L 164.979081 284.602021 
L 162.116574 285.925292 
L 159.254066 286.935956 
L 156.391558 286.62562 
L 153.529051 285.803695 
L 150.666543 285.168189 
L 147.804036 285.671223 
L 144.941528 286.627757 
L 142.07902 287.459572 
L 139.216513 289.297855 
L 136.354005 291.3373 
L 133.491497 291.987768 
L 130.62899 291.942345 
L 127.766482 292.173863 
L 124.903975 292.187294 
L 122.041467 290.560907 
L 119.178959 287.818263 
L 116.316452 279.496499 
L 113.453944 275.43172 
L 110.591436 272.654972 
L 107.728929 283.532164 
L 104.866421 289.126169 
L 102.003914 289.705797 
L 99.141406 289.90503 
L 96.278898 290.465246 
L 93.416391 291.276915 
L 90.553883 292.312594 
L 87.691375 291.47201 
L 84.828868 292.839534 
L 81.96636 293.505044 
L 79.103853 293.194272 
L 76.241345 292.36285 
L 73.378837 293.080335 
L 70.51633 295.183229 
L 67.653822 294.065065 
L 64.791314 293.88984 
L 61.928807 299.034105 
z
" clip-path="url(#p61231803b2)" style="fill: #1f77b4; fill-opacity: 0.3"/>
   </g>
   <g id="matplotlib.axis_1">
    <g id="xtick_1">
     <g id="line2d_1">
      <defs>
       <path id="m8ac03413b3" d="M 0 0 
L 0 3.5 
" style="stroke: #000000; stroke-width: 0.8"/>
      </defs>
      <g>
       <use xlink:href="#m8ac03413b3" x="61.928807" y="313.478125" style="stroke: #000000; stroke-width: 0.8"/>
      </g>
     </g>
     <g id="text_1">
      <!-- 0 -->
      <g transform="translate(58.747557 328.076563) scale(0.1 -0.1)">
       <defs>
        <path id="DejaVuSans-30" d="M 2034 4250 
Q 1547 4250 1301 3770 
Q 1056 3291 1056 2328 
Q 1056 1369 1301 889 
Q 1547 409 2034 409 
Q 2525 409 2770 889 
Q 3016 1369 3016 2328 
Q 3016 3291 2770 3770 
Q 2525 4250 2034 4250 
z
M 2034 4750 
Q 2819 4750 3233 4129 
Q 3647 3509 3647 2328 
Q 3647 1150 3233 529 
Q 2819 -91 2034 -91 
Q 1250 -91 836 529 
Q 422 1150 422 2328 
Q 422 3509 836 4129 
Q 1250 4750 2034 4750 
z
" transform="scale(0.015625)"/>
       </defs>
       <use xlink:href="#DejaVuSans-30"/>
      </g>
     </g>
    </g>
    <g id="xtick_2">
     <g id="line2d_2">
      <g>
       <use xlink:href="#m8ac03413b3" x="113.453944" y="313.478125" style="stroke: #000000; stroke-width: 0.8"/>
      </g>
     </g>
     <g id="text_2">
      <!-- 18 -->
      <g transform="translate(107.091444 328.076563) scale(0.1 -0.1)">
       <defs>
        <path id="DejaVuSans-31" d="M 794 531 
L 1825 531 
L 1825 4091 
L 703 3866 
L 703 4441 
L 1819 4666 
L 2450 4666 
L 2450 531 
L 3481 531 
L 3481 0 
L 794 0 
L 794 531 
z
" transform="scale(0.015625)"/>
        <path id="DejaVuSans-38" d="M 2034 2216 
Q 1584 2216 1326 1975 
Q 1069 1734 1069 1313 
Q 1069 891 1326 650 
Q 1584 409 2034 409 
Q 2484 409 2743 651 
Q 3003 894 3003 1313 
Q 3003 1734 2745 1975 
Q 2488 2216 2034 2216 
z
M 1403 2484 
Q 997 2584 770 2862 
Q 544 3141 544 3541 
Q 544 4100 942 4425 
Q 1341 4750 2034 4750 
Q 2731 4750 3128 4425 
Q 3525 4100 3525 3541 
Q 3525 3141 3298 2862 
Q 3072 2584 2669 2484 
Q 3125 2378 3379 2068 
Q 3634 1759 3634 1313 
Q 3634 634 3220 271 
Q 2806 -91 2034 -91 
Q 1263 -91 848 271 
Q 434 634 434 1313 
Q 434 1759 690 2068 
Q 947 2378 1403 2484 
z
M 1172 3481 
Q 1172 3119 1398 2916 
Q 1625 2713 2034 2713 
Q 2441 2713 2670 2916 
Q 2900 3119 2900 3481 
Q 2900 3844 2670 4047 
Q 2441 4250 2034 4250 
Q 1625 4250 1398 4047 
Q 1172 3844 1172 3481 
z
" transform="scale(0.015625)"/>
       </defs>
       <use xlink:href="#DejaVuSans-31"/>
       <use xlink:href="#DejaVuSans-38" transform="translate(63.623047 0)"/>
      </g>
     </g>
    </g>
    <g id="xtick_3">
     <g id="line2d_3">
      <g>
       <use xlink:href="#m8ac03413b3" x="167.841589" y="313.478125" style="stroke: #000000; stroke-width: 0.8"/>
      </g>
     </g>
     <g id="text_3">
      <!-- 37 -->
      <g transform="translate(161.479089 328.076563) scale(0.1 -0.1)">
       <defs>
        <path id="DejaVuSans-33" d="M 2597 2516 
Q 3050 2419 3304 2112 
Q 3559 1806 3559 1356 
Q 3559 666 3084 287 
Q 2609 -91 1734 -91 
Q 1441 -91 1130 -33 
Q 819 25 488 141 
L 488 750 
Q 750 597 1062 519 
Q 1375 441 1716 441 
Q 2309 441 2620 675 
Q 2931 909 2931 1356 
Q 2931 1769 2642 2001 
Q 2353 2234 1838 2234 
L 1294 2234 
L 1294 2753 
L 1863 2753 
Q 2328 2753 2575 2939 
Q 2822 3125 2822 3475 
Q 2822 3834 2567 4026 
Q 2313 4219 1838 4219 
Q 1578 4219 1281 4162 
Q 984 4106 628 3988 
L 628 4550 
Q 988 4650 1302 4700 
Q 1616 4750 1894 4750 
Q 2613 4750 3031 4423 
Q 3450 4097 3450 3541 
Q 3450 3153 3228 2886 
Q 3006 2619 2597 2516 
z
" transform="scale(0.015625)"/>
        <path id="DejaVuSans-37" d="M 525 4666 
L 3525 4666 
L 3525 4397 
L 1831 0 
L 1172 0 
L 2766 4134 
L 525 4134 
L 525 4666 
z
" transform="scale(0.015625)"/>
       </defs>
       <use xlink:href="#DejaVuSans-33"/>
       <use xlink:href="#DejaVuSans-37" transform="translate(63.623047 0)"/>
      </g>
     </g>
    </g>
    <g id="xtick_4">
     <g id="line2d_4">
      <g>
       <use xlink:href="#m8ac03413b3" x="219.366726" y="313.478125" style="stroke: #000000; stroke-width: 0.8"/>
      </g>
     </g>
     <g id="text_4">
      <!-- 55 -->
      <g transform="translate(213.004226 328.076563) scale(0.1 -0.1)">
       <defs>
        <path id="DejaVuSans-35" d="M 691 4666 
L 3169 4666 
L 3169 4134 
L 1269 4134 
L 1269 2991 
Q 1406 3038 1543 3061 
Q 1681 3084 1819 3084 
Q 2600 3084 3056 2656 
Q 3513 2228 3513 1497 
Q 3513 744 3044 326 
Q 2575 -91 1722 -91 
Q 1428 -91 1123 -41 
Q 819 9 494 109 
L 494 744 
Q 775 591 1075 516 
Q 1375 441 1709 441 
Q 2250 441 2565 725 
Q 2881 1009 2881 1497 
Q 2881 1984 2565 2268 
Q 2250 2553 1709 2553 
Q 1456 2553 1204 2497 
Q 953 2441 691 2322 
L 691 4666 
z
" transform="scale(0.015625)"/>
       </defs>
       <use xlink:href="#DejaVuSans-35"/>
       <use xlink:href="#DejaVuSans-35" transform="translate(63.623047 0)"/>
      </g>
     </g>
    </g>
    <g id="xtick_5">
     <g id="line2d_5">
      <g>
       <use xlink:href="#m8ac03413b3" x="273.754371" y="313.478125" style="stroke: #000000; stroke-width: 0.8"/>
      </g>
     </g>
     <g id="text_5">
      <!-- 74 -->
      <g transform="translate(267.391871 328.076563) scale(0.1 -0.1)">
       <defs>
        <path id="DejaVuSans-34" d="M 2419 4116 
L 825 1625 
L 2419 1625 
L 2419 4116 
z
M 2253 4666 
L 3047 4666 
L 3047 1625 
L 3713 1625 
L 3713 1100 
L 3047 1100 
L 3047 0 
L 2419 0 
L 2419 1100 
L 313 1100 
L 313 1709 
L 2253 4666 
z
" transform="scale(0.015625)"/>
       </defs>
       <use xlink:href="#DejaVuSans-37"/>
       <use xlink:href="#DejaVuSans-34" transform="translate(63.623047 0)"/>
      </g>
     </g>
    </g>
    <g id="xtick_6">
     <g id="line2d_6">
      <g>
       <use xlink:href="#m8ac03413b3" x="328.142016" y="313.478125" style="stroke: #000000; stroke-width: 0.8"/>
      </g>
     </g>
     <g id="text_6">
      <!-- 93 -->
      <g transform="translate(321.779516 328.076563) scale(0.1 -0.1)">
       <defs>
        <path id="DejaVuSans-39" d="M 703 97 
L 703 672 
Q 941 559 1184 500 
Q 1428 441 1663 441 
Q 2288 441 2617 861 
Q 2947 1281 2994 2138 
Q 2813 1869 2534 1725 
Q 2256 1581 1919 1581 
Q 1219 1581 811 2004 
Q 403 2428 403 3163 
Q 403 3881 828 4315 
Q 1253 4750 1959 4750 
Q 2769 4750 3195 4129 
Q 3622 3509 3622 2328 
Q 3622 1225 3098 567 
Q 2575 -91 1691 -91 
Q 1453 -91 1209 -44 
Q 966 3 703 97 
z
M 1959 2075 
Q 2384 2075 2632 2365 
Q 2881 2656 2881 3163 
Q 2881 3666 2632 3958 
Q 2384 4250 1959 4250 
Q 1534 4250 1286 3958 
Q 1038 3666 1038 3163 
Q 1038 2656 1286 2365 
Q 1534 2075 1959 2075 
z
" transform="scale(0.015625)"/>
       </defs>
       <use xlink:href="#DejaVuSans-39"/>
       <use xlink:href="#DejaVuSans-33" transform="translate(63.623047 0)"/>
      </g>
     </g>
    </g>
    <g id="xtick_7">
     <g id="line2d_7">
      <g>
       <use xlink:href="#m8ac03413b3" x="379.667153" y="313.478125" style="stroke: #000000; stroke-width: 0.8"/>
      </g>
     </g>
     <g id="text_7">
      <!-- 111 -->
      <g transform="translate(370.123403 328.076563) scale(0.1 -0.1)">
       <use xlink:href="#DejaVuSans-31"/>
       <use xlink:href="#DejaVuSans-31" transform="translate(63.623047 0)"/>
       <use xlink:href="#DejaVuSans-31" transform="translate(127.246094 0)"/>
      </g>
     </g>
    </g>
    <g id="xtick_8">
     <g id="line2d_8">
      <g>
       <use xlink:href="#m8ac03413b3" x="434.054798" y="313.478125" style="stroke: #000000; stroke-width: 0.8"/>
      </g>
     </g>
     <g id="text_8">
      <!-- 130 -->
      <g transform="translate(424.511048 328.076563) scale(0.1 -0.1)">
       <use xlink:href="#DejaVuSans-31"/>
       <use xlink:href="#DejaVuSans-33" transform="translate(63.623047 0)"/>
       <use xlink:href="#DejaVuSans-30" transform="translate(127.246094 0)"/>
      </g>
     </g>
    </g>
    <g id="xtick_9">
     <g id="line2d_9">
      <g>
       <use xlink:href="#m8ac03413b3" x="488.442443" y="313.478125" style="stroke: #000000; stroke-width: 0.8"/>
      </g>
     </g>
     <g id="text_9">
      <!-- 149 -->
      <g transform="translate(478.898693 328.076563) scale(0.1 -0.1)">
       <use xlink:href="#DejaVuSans-31"/>
       <use xlink:href="#DejaVuSans-34" transform="translate(63.623047 0)"/>
       <use xlink:href="#DejaVuSans-39" transform="translate(127.246094 0)"/>
      </g>
     </g>
    </g>
    <g id="text_10">
     <!-- Spatial bin -->
     <g transform="translate(248.649688 341.754687) scale(0.1 -0.1)">
      <defs>
       <path id="DejaVuSans-53" d="M 3425 4513 
L 3425 3897 
Q 3066 4069 2747 4153 
Q 2428 4238 2131 4238 
Q 1616 4238 1336 4038 
Q 1056 3838 1056 3469 
Q 1056 3159 1242 3001 
Q 1428 2844 1947 2747 
L 2328 2669 
Q 3034 2534 3370 2195 
Q 3706 1856 3706 1288 
Q 3706 609 3251 259 
Q 2797 -91 1919 -91 
Q 1588 -91 1214 -16 
Q 841 59 441 206 
L 441 856 
Q 825 641 1194 531 
Q 1563 422 1919 422 
Q 2459 422 2753 634 
Q 3047 847 3047 1241 
Q 3047 1584 2836 1778 
Q 2625 1972 2144 2069 
L 1759 2144 
Q 1053 2284 737 2584 
Q 422 2884 422 3419 
Q 422 4038 858 4394 
Q 1294 4750 2059 4750 
Q 2388 4750 2728 4690 
Q 3069 4631 3425 4513 
z
" transform="scale(0.015625)"/>
       <path id="DejaVuSans-70" d="M 1159 525 
L 1159 -1331 
L 581 -1331 
L 581 3500 
L 1159 3500 
L 1159 2969 
Q 1341 3281 1617 3432 
Q 1894 3584 2278 3584 
Q 2916 3584 3314 3078 
Q 3713 2572 3713 1747 
Q 3713 922 3314 415 
Q 2916 -91 2278 -91 
Q 1894 -91 1617 61 
Q 1341 213 1159 525 
z
M 3116 1747 
Q 3116 2381 2855 2742 
Q 2594 3103 2138 3103 
Q 1681 3103 1420 2742 
Q 1159 2381 1159 1747 
Q 1159 1113 1420 752 
Q 1681 391 2138 391 
Q 2594 391 2855 752 
Q 3116 1113 3116 1747 
z
" transform="scale(0.015625)"/>
       <path id="DejaVuSans-61" d="M 2194 1759 
Q 1497 1759 1228 1600 
Q 959 1441 959 1056 
Q 959 750 1161 570 
Q 1363 391 1709 391 
Q 2188 391 2477 730 
Q 2766 1069 2766 1631 
L 2766 1759 
L 2194 1759 
z
M 3341 1997 
L 3341 0 
L 2766 0 
L 2766 531 
Q 2569 213 2275 61 
Q 1981 -91 1556 -91 
Q 1019 -91 701 211 
Q 384 513 384 1019 
Q 384 1609 779 1909 
Q 1175 2209 1959 2209 
L 2766 2209 
L 2766 2266 
Q 2766 2663 2505 2880 
Q 2244 3097 1772 3097 
Q 1472 3097 1187 3025 
Q 903 2953 641 2809 
L 641 3341 
Q 956 3463 1253 3523 
Q 1550 3584 1831 3584 
Q 2591 3584 2966 3190 
Q 3341 2797 3341 1997 
z
" transform="scale(0.015625)"/>
       <path id="DejaVuSans-74" d="M 1172 4494 
L 1172 3500 
L 2356 3500 
L 2356 3053 
L 1172 3053 
L 1172 1153 
Q 1172 725 1289 603 
Q 1406 481 1766 481 
L 2356 481 
L 2356 0 
L 1766 0 
Q 1100 0 847 248 
Q 594 497 594 1153 
L 594 3053 
L 172 3053 
L 172 3500 
L 594 3500 
L 594 4494 
L 1172 4494 
z
" transform="scale(0.015625)"/>
       <path id="DejaVuSans-69" d="M 603 3500 
L 1178 3500 
L 1178 0 
L 603 0 
L 603 3500 
z
M 603 4863 
L 1178 4863 
L 1178 4134 
L 603 4134 
L 603 4863 
z
" transform="scale(0.015625)"/>
       <path id="DejaVuSans-6c" d="M 603 4863 
L 1178 4863 
L 1178 0 
L 603 0 
L 603 4863 
z
" transform="scale(0.015625)"/>
       <path id="DejaVuSans-20" transform="scale(0.015625)"/>
       <path id="DejaVuSans-62" d="M 3116 1747 
Q 3116 2381 2855 2742 
Q 2594 3103 2138 3103 
Q 1681 3103 1420 2742 
Q 1159 2381 1159 1747 
Q 1159 1113 1420 752 
Q 1681 391 2138 391 
Q 2594 391 2855 752 
Q 3116 1113 3116 1747 
z
M 1159 2969 
Q 1341 3281 1617 3432 
Q 1894 3584 2278 3584 
Q 2916 3584 3314 3078 
Q 3713 2572 3713 1747 
Q 3713 922 3314 415 
Q 2916 -91 2278 -91 
Q 1894 -91 1617 61 
Q 1341 213 1159 525 
L 1159 0 
L 581 0 
L 581 4863 
L 1159 4863 
L 1159 2969 
z
" transform="scale(0.015625)"/>
       <path id="DejaVuSans-6e" d="M 3513 2113 
L 3513 0 
L 2938 0 
L 2938 2094 
Q 2938 2591 2744 2837 
Q 2550 3084 2163 3084 
Q 1697 3084 1428 2787 
Q 1159 2491 1159 1978 
L 1159 0 
L 581 0 
L 581 3500 
L 1159 3500 
L 1159 2956 
Q 1366 3272 1645 3428 
Q 1925 3584 2291 3584 
Q 2894 3584 3203 3211 
Q 3513 2838 3513 2113 
z
" transform="scale(0.015625)"/>
      </defs>
      <use xlink:href="#DejaVuSans-53"/>
      <use xlink:href="#DejaVuSans-70" transform="translate(63.476562 0)"/>
      <use xlink:href="#DejaVuSans-61" transform="translate(126.953125 0)"/>
      <use xlink:href="#DejaVuSans-74" transform="translate(188.232422 0)"/>
      <use xlink:href="#DejaVuSans-69" transform="translate(227.441406 0)"/>
      <use xlink:href="#DejaVuSans-61" transform="translate(255.224609 0)"/>
      <use xlink:href="#DejaVuSans-6c" transform="translate(316.503906 0)"/>
      <use xlink:href="#DejaVuSans-20" transform="translate(344.287109 0)"/>
      <use xlink:href="#DejaVuSans-62" transform="translate(376.074219 0)"/>
      <use xlink:href="#DejaVuSans-69" transform="translate(439.550781 0)"/>
      <use xlink:href="#DejaVuSans-6e" transform="translate(467.333984 0)"/>
     </g>
    </g>
   </g>
   <g id="matplotlib.axis_2">
    <g id="ytick_1">
     <g id="line2d_10">
      <defs>
       <path id="m15ae5dcd89" d="M 0 0 
L -3.5 0 
" style="stroke: #000000; stroke-width: 0.8"/>
      </defs>
      <g>
       <use xlink:href="#m15ae5dcd89" x="40.603125" y="291.081202" style="stroke: #000000; stroke-width: 0.8"/>
      </g>
     </g>
     <g id="text_11">
      <!-- 0 -->
      <g transform="translate(27.240625 294.880421) scale(0.1 -0.1)">
       <use xlink:href="#DejaVuSans-30"/>
      </g>
     </g>
    </g>
    <g id="ytick_2">
     <g id="line2d_11">
      <g>
       <use xlink:href="#m15ae5dcd89" x="40.603125" y="246.287356" style="stroke: #000000; stroke-width: 0.8"/>
      </g>
     </g>
     <g id="text_12">
      <!-- 2 -->
      <g transform="translate(27.240625 250.086575) scale(0.1 -0.1)">
       <defs>
        <path id="DejaVuSans-32" d="M 1228 531 
L 3431 531 
L 3431 0 
L 469 0 
L 469 531 
Q 828 903 1448 1529 
Q 2069 2156 2228 2338 
Q 2531 2678 2651 2914 
Q 2772 3150 2772 3378 
Q 2772 3750 2511 3984 
Q 2250 4219 1831 4219 
Q 1534 4219 1204 4116 
Q 875 4013 500 3803 
L 500 4441 
Q 881 4594 1212 4672 
Q 1544 4750 1819 4750 
Q 2544 4750 2975 4387 
Q 3406 4025 3406 3419 
Q 3406 3131 3298 2873 
Q 3191 2616 2906 2266 
Q 2828 2175 2409 1742 
Q 1991 1309 1228 531 
z
" transform="scale(0.015625)"/>
       </defs>
       <use xlink:href="#DejaVuSans-32"/>
      </g>
     </g>
    </g>
    <g id="ytick_3">
     <g id="line2d_12">
      <g>
       <use xlink:href="#m15ae5dcd89" x="40.603125" y="201.49351" style="stroke: #000000; stroke-width: 0.8"/>
      </g>
     </g>
     <g id="text_13">
      <!-- 4 -->
      <g transform="translate(27.240625 205.292728) scale(0.1 -0.1)">
       <use xlink:href="#DejaVuSans-34"/>
      </g>
     </g>
    </g>
    <g id="ytick_4">
     <g id="line2d_13">
      <g>
       <use xlink:href="#m15ae5dcd89" x="40.603125" y="156.699663" style="stroke: #000000; stroke-width: 0.8"/>
      </g>
     </g>
     <g id="text_14">
      <!-- 6 -->
      <g transform="translate(27.240625 160.498882) scale(0.1 -0.1)">
       <defs>
        <path id="DejaVuSans-36" d="M 2113 2584 
Q 1688 2584 1439 2293 
Q 1191 2003 1191 1497 
Q 1191 994 1439 701 
Q 1688 409 2113 409 
Q 2538 409 2786 701 
Q 3034 994 3034 1497 
Q 3034 2003 2786 2293 
Q 2538 2584 2113 2584 
z
M 3366 4563 
L 3366 3988 
Q 3128 4100 2886 4159 
Q 2644 4219 2406 4219 
Q 1781 4219 1451 3797 
Q 1122 3375 1075 2522 
Q 1259 2794 1537 2939 
Q 1816 3084 2150 3084 
Q 2853 3084 3261 2657 
Q 3669 2231 3669 1497 
Q 3669 778 3244 343 
Q 2819 -91 2113 -91 
Q 1303 -91 875 529 
Q 447 1150 447 2328 
Q 447 3434 972 4092 
Q 1497 4750 2381 4750 
Q 2619 4750 2861 4703 
Q 3103 4656 3366 4563 
z
" transform="scale(0.015625)"/>
       </defs>
       <use xlink:href="#DejaVuSans-36"/>
      </g>
     </g>
    </g>
    <g id="ytick_5">
     <g id="line2d_14">
      <g>
       <use xlink:href="#m15ae5dcd89" x="40.603125" y="111.905817" style="stroke: #000000; stroke-width: 0.8"/>
      </g>
     </g>
     <g id="text_15">
      <!-- 8 -->
      <g transform="translate(27.240625 115.705036) scale(0.1 -0.1)">
       <use xlink:href="#DejaVuSans-38"/>
      </g>
     </g>
    </g>
    <g id="ytick_6">
     <g id="line2d_15">
      <g>
       <use xlink:href="#m15ae5dcd89" x="40.603125" y="67.111971" style="stroke: #000000; stroke-width: 0.8"/>
      </g>
     </g>
     <g id="text_16">
      <!-- 10 -->
      <g transform="translate(20.878125 70.91119) scale(0.1 -0.1)">
       <use xlink:href="#DejaVuSans-31"/>
       <use xlink:href="#DejaVuSans-30" transform="translate(63.623047 0)"/>
      </g>
     </g>
    </g>
    <g id="ytick_7">
     <g id="line2d_16">
      <g>
       <use xlink:href="#m15ae5dcd89" x="40.603125" y="22.318125" style="stroke: #000000; stroke-width: 0.8"/>
      </g>
     </g>
     <g id="text_17">
      <!-- 12 -->
      <g transform="translate(20.878125 26.117344) scale(0.1 -0.1)">
       <use xlink:href="#DejaVuSans-31"/>
       <use xlink:href="#DejaVuSans-32" transform="translate(63.623047 0)"/>
      </g>
     </g>
    </g>
    <g id="text_18">
     <!-- z-scored dF/F -->
     <g transform="translate(14.798438 201.1325) rotate(-90) scale(0.1 -0.1)">
      <defs>
       <path id="DejaVuSans-7a" d="M 353 3500 
L 3084 3500 
L 3084 2975 
L 922 459 
L 3084 459 
L 3084 0 
L 275 0 
L 275 525 
L 2438 3041 
L 353 3041 
L 353 3500 
z
" transform="scale(0.015625)"/>
       <path id="DejaVuSans-2d" d="M 313 2009 
L 1997 2009 
L 1997 1497 
L 313 1497 
L 313 2009 
z
" transform="scale(0.015625)"/>
       <path id="DejaVuSans-73" d="M 2834 3397 
L 2834 2853 
Q 2591 2978 2328 3040 
Q 2066 3103 1784 3103 
Q 1356 3103 1142 2972 
Q 928 2841 928 2578 
Q 928 2378 1081 2264 
Q 1234 2150 1697 2047 
L 1894 2003 
Q 2506 1872 2764 1633 
Q 3022 1394 3022 966 
Q 3022 478 2636 193 
Q 2250 -91 1575 -91 
Q 1294 -91 989 -36 
Q 684 19 347 128 
L 347 722 
Q 666 556 975 473 
Q 1284 391 1588 391 
Q 1994 391 2212 530 
Q 2431 669 2431 922 
Q 2431 1156 2273 1281 
Q 2116 1406 1581 1522 
L 1381 1569 
Q 847 1681 609 1914 
Q 372 2147 372 2553 
Q 372 3047 722 3315 
Q 1072 3584 1716 3584 
Q 2034 3584 2315 3537 
Q 2597 3491 2834 3397 
z
" transform="scale(0.015625)"/>
       <path id="DejaVuSans-63" d="M 3122 3366 
L 3122 2828 
Q 2878 2963 2633 3030 
Q 2388 3097 2138 3097 
Q 1578 3097 1268 2742 
Q 959 2388 959 1747 
Q 959 1106 1268 751 
Q 1578 397 2138 397 
Q 2388 397 2633 464 
Q 2878 531 3122 666 
L 3122 134 
Q 2881 22 2623 -34 
Q 2366 -91 2075 -91 
Q 1284 -91 818 406 
Q 353 903 353 1747 
Q 353 2603 823 3093 
Q 1294 3584 2113 3584 
Q 2378 3584 2631 3529 
Q 2884 3475 3122 3366 
z
" transform="scale(0.015625)"/>
       <path id="DejaVuSans-6f" d="M 1959 3097 
Q 1497 3097 1228 2736 
Q 959 2375 959 1747 
Q 959 1119 1226 758 
Q 1494 397 1959 397 
Q 2419 397 2687 759 
Q 2956 1122 2956 1747 
Q 2956 2369 2687 2733 
Q 2419 3097 1959 3097 
z
M 1959 3584 
Q 2709 3584 3137 3096 
Q 3566 2609 3566 1747 
Q 3566 888 3137 398 
Q 2709 -91 1959 -91 
Q 1206 -91 779 398 
Q 353 888 353 1747 
Q 353 2609 779 3096 
Q 1206 3584 1959 3584 
z
" transform="scale(0.015625)"/>
       <path id="DejaVuSans-72" d="M 2631 2963 
Q 2534 3019 2420 3045 
Q 2306 3072 2169 3072 
Q 1681 3072 1420 2755 
Q 1159 2438 1159 1844 
L 1159 0 
L 581 0 
L 581 3500 
L 1159 3500 
L 1159 2956 
Q 1341 3275 1631 3429 
Q 1922 3584 2338 3584 
Q 2397 3584 2469 3576 
Q 2541 3569 2628 3553 
L 2631 2963 
z
" transform="scale(0.015625)"/>
       <path id="DejaVuSans-65" d="M 3597 1894 
L 3597 1613 
L 953 1613 
Q 991 1019 1311 708 
Q 1631 397 2203 397 
Q 2534 397 2845 478 
Q 3156 559 3463 722 
L 3463 178 
Q 3153 47 2828 -22 
Q 2503 -91 2169 -91 
Q 1331 -91 842 396 
Q 353 884 353 1716 
Q 353 2575 817 3079 
Q 1281 3584 2069 3584 
Q 2775 3584 3186 3129 
Q 3597 2675 3597 1894 
z
M 3022 2063 
Q 3016 2534 2758 2815 
Q 2500 3097 2075 3097 
Q 1594 3097 1305 2825 
Q 1016 2553 972 2059 
L 3022 2063 
z
" transform="scale(0.015625)"/>
       <path id="DejaVuSans-64" d="M 2906 2969 
L 2906 4863 
L 3481 4863 
L 3481 0 
L 2906 0 
L 2906 525 
Q 2725 213 2448 61 
Q 2172 -91 1784 -91 
Q 1150 -91 751 415 
Q 353 922 353 1747 
Q 353 2572 751 3078 
Q 1150 3584 1784 3584 
Q 2172 3584 2448 3432 
Q 2725 3281 2906 2969 
z
M 947 1747 
Q 947 1113 1208 752 
Q 1469 391 1925 391 
Q 2381 391 2643 752 
Q 2906 1113 2906 1747 
Q 2906 2381 2643 2742 
Q 2381 3103 1925 3103 
Q 1469 3103 1208 2742 
Q 947 2381 947 1747 
z
" transform="scale(0.015625)"/>
       <path id="DejaVuSans-46" d="M 628 4666 
L 3309 4666 
L 3309 4134 
L 1259 4134 
L 1259 2759 
L 3109 2759 
L 3109 2228 
L 1259 2228 
L 1259 0 
L 628 0 
L 628 4666 
z
" transform="scale(0.015625)"/>
       <path id="DejaVuSans-2f" d="M 1625 4666 
L 2156 4666 
L 531 -594 
L 0 -594 
L 1625 4666 
z
" transform="scale(0.015625)"/>
      </defs>
      <use xlink:href="#DejaVuSans-7a"/>
      <use xlink:href="#DejaVuSans-2d" transform="translate(52.490234 0)"/>
      <use xlink:href="#DejaVuSans-73" transform="translate(88.574219 0)"/>
      <use xlink:href="#DejaVuSans-63" transform="translate(140.673828 0)"/>
      <use xlink:href="#DejaVuSans-6f" transform="translate(195.654297 0)"/>
      <use xlink:href="#DejaVuSans-72" transform="translate(256.835938 0)"/>
      <use xlink:href="#DejaVuSans-65" transform="translate(295.699219 0)"/>
      <use xlink:href="#DejaVuSans-64" transform="translate(357.222656 0)"/>
      <use xlink:href="#DejaVuSans-20" transform="translate(420.699219 0)"/>
      <use xlink:href="#DejaVuSans-64" transform="translate(452.486328 0)"/>
      <use xlink:href="#DejaVuSans-46" transform="translate(515.962891 0)"/>
      <use xlink:href="#DejaVuSans-2f" transform="translate(573.482422 0)"/>
      <use xlink:href="#DejaVuSans-46" transform="translate(607.173828 0)"/>
     </g>
    </g>
   </g>
   <g id="line2d_17">
    <path d="M 61.928807 306.004092 
L 64.791314 302.758095 
L 67.653822 302.302083 
L 70.51633 302.794034 
L 73.378837 301.256995 
L 76.241345 299.461949 
L 79.103853 298.928865 
L 81.96636 299.04126 
L 84.828868 298.998935 
L 87.691375 298.551085 
L 90.553883 298.566542 
L 93.416391 296.278198 
L 99.141406 294.844899 
L 102.003914 294.899061 
L 104.866421 294.231521 
L 107.728929 291.161117 
L 110.591436 286.914643 
L 113.453944 289.28093 
L 116.316452 291.476519 
L 119.178959 295.248777 
L 122.041467 295.751491 
L 124.903975 296.866653 
L 127.766482 296.819866 
L 130.62899 296.284317 
L 133.491497 296.460176 
L 136.354005 295.300145 
L 142.07902 292.03382 
L 144.941528 291.677679 
L 147.804036 291.022764 
L 150.666543 290.670431 
L 153.529051 290.597134 
L 156.391558 290.978899 
L 159.254066 291.197811 
L 162.116574 290.174068 
L 164.979081 289.548254 
L 167.841589 290.266253 
L 173.566604 291.901696 
L 176.429112 292.073943 
L 179.29162 292.557061 
L 182.154127 293.316072 
L 185.016635 295.188557 
L 187.879142 295.333219 
L 190.74165 294.425166 
L 193.604158 293.19444 
L 196.466665 290.287837 
L 199.329173 288.486107 
L 205.054188 288.735333 
L 207.916696 289.241477 
L 216.504219 290.111483 
L 219.366726 289.894335 
L 222.229234 289.824653 
L 225.091742 290.893251 
L 227.954249 291.358798 
L 230.816757 292.272199 
L 233.679264 292.35619 
L 236.541772 291.983305 
L 239.40428 292.034618 
L 242.266787 294.017263 
L 245.129295 292.966771 
L 247.991803 292.301718 
L 250.85431 293.410745 
L 253.716818 294.362407 
L 256.579325 294.054983 
L 259.441833 293.195874 
L 262.304341 291.97583 
L 265.166848 291.690792 
L 268.029356 291.860509 
L 270.891864 291.074561 
L 276.616879 291.950172 
L 279.479386 292.763914 
L 282.341894 293.346978 
L 285.204402 293.300522 
L 288.066909 295.174156 
L 290.929417 296.611246 
L 293.791925 296.482939 
L 296.654432 296.628493 
L 299.51694 297.393791 
L 302.379447 297.5145 
L 305.241955 297.383617 
L 308.104463 297.825788 
L 316.691986 297.153385 
L 319.554493 296.533065 
L 328.142016 296.375005 
L 331.004524 297.387418 
L 333.867031 297.512196 
L 339.592047 296.713389 
L 342.454554 295.272141 
L 345.317062 296.615594 
L 348.179569 298.318768 
L 351.042077 299.002718 
L 353.904585 299.278766 
L 356.767092 299.020617 
L 365.354615 301.715113 
L 368.217123 300.20708 
L 371.07963 300.697152 
L 373.942138 300.092046 
L 376.804646 300.835591 
L 379.667153 300.171877 
L 382.529661 300.763595 
L 385.392169 300.314277 
L 391.117184 298.109342 
L 393.979692 297.662422 
L 396.842199 297.032406 
L 399.704707 296.820676 
L 402.567214 296.490322 
L 405.429722 296.664799 
L 408.29223 298.029318 
L 411.154737 297.136382 
L 414.017245 297.977851 
L 416.879753 297.097599 
L 422.604768 293.290891 
L 428.329783 288.224894 
L 431.192291 287.876371 
L 434.054798 290.128582 
L 436.917306 289.269352 
L 439.779814 289.999061 
L 442.642321 291.751041 
L 445.504829 294.539383 
L 448.367336 297.529659 
L 451.229844 297.743899 
L 454.092352 296.636874 
L 456.954859 296.479659 
L 459.817367 295.098059 
L 462.679875 295.57796 
L 465.542382 295.616838 
L 468.40489 296.007422 
L 471.267397 294.738248 
L 476.992413 291.966834 
L 479.85492 290.830097 
L 482.717428 290.000158 
L 485.579936 290.612244 
L 488.442443 305.963987 
L 488.442443 305.963987 
" clip-path="url(#p61231803b2)" style="fill: none; stroke: #ff0000; stroke-width: 3; stroke-linecap: square"/>
   </g>
   <g id="LineCollection_1">
    <path d="M 205.054188 313.478125 
L 205.054188 22.318125 
" clip-path="url(#p61231803b2)" style="fill: none; stroke-dasharray: 5.55,2.4; stroke-dashoffset: 0; stroke: #ff0000; stroke-width: 1.5"/>
    <path d="M 348.179569 313.478125 
L 348.179569 22.318125 
" clip-path="url(#p61231803b2)" style="fill: none; stroke-dasharray: 5.55,2.4; stroke-dashoffset: 0; stroke: #ff0000; stroke-width: 1.5"/>
   </g>
   <g id="patch_3">
    <path d="M 40.603125 313.478125 
L 40.603125 22.318125 
" style="fill: none; stroke: #000000; stroke-width: 0.8; stroke-linejoin: miter; stroke-linecap: square"/>
   </g>
   <g id="patch_4">
    <path d="M 509.768125 313.478125 
L 509.768125 22.318125 
" style="fill: none; stroke: #000000; stroke-width: 0.8; stroke-linejoin: miter; stroke-linecap: square"/>
   </g>
   <g id="patch_5">
    <path d="M 40.603125 313.478125 
L 509.768125 313.478125 
" style="fill: none; stroke: #000000; stroke-width: 0.8; stroke-linejoin: miter; stroke-linecap: square"/>
   </g>
   <g id="patch_6">
    <path d="M 40.603125 22.318125 
L 509.768125 22.318125 
" style="fill: none; stroke: #000000; stroke-width: 0.8; stroke-linejoin: miter; stroke-linecap: square"/>
   </g>
   <g id="text_19">
    <!-- Corridor -0.0 -->
    <g transform="translate(237.269375 16.318125) scale(0.12 -0.12)">
     <defs>
      <path id="DejaVuSans-43" d="M 4122 4306 
L 4122 3641 
Q 3803 3938 3442 4084 
Q 3081 4231 2675 4231 
Q 1875 4231 1450 3742 
Q 1025 3253 1025 2328 
Q 1025 1406 1450 917 
Q 1875 428 2675 428 
Q 3081 428 3442 575 
Q 3803 722 4122 1019 
L 4122 359 
Q 3791 134 3420 21 
Q 3050 -91 2638 -91 
Q 1578 -91 968 557 
Q 359 1206 359 2328 
Q 359 3453 968 4101 
Q 1578 4750 2638 4750 
Q 3056 4750 3426 4639 
Q 3797 4528 4122 4306 
z
" transform="scale(0.015625)"/>
      <path id="DejaVuSans-2e" d="M 684 794 
L 1344 794 
L 1344 0 
L 684 0 
L 684 794 
z
" transform="scale(0.015625)"/>
     </defs>
     <use xlink:href="#DejaVuSans-43"/>
     <use xlink:href="#DejaVuSans-6f" transform="translate(69.824219 0)"/>
     <use xlink:href="#DejaVuSans-72" transform="translate(131.005859 0)"/>
     <use xlink:href="#DejaVuSans-72" transform="translate(170.369141 0)"/>
     <use xlink:href="#DejaVuSans-69" transform="translate(211.482422 0)"/>
     <use xlink:href="#DejaVuSans-64" transform="translate(239.265625 0)"/>
     <use xlink:href="#DejaVuSans-6f" transform="translate(302.742188 0)"/>
     <use xlink:href="#DejaVuSans-72" transform="translate(363.923828 0)"/>
     <use xlink:href="#DejaVuSans-20" transform="translate(405.037109 0)"/>
     <use xlink:href="#DejaVuSans-2d" transform="translate(436.824219 0)"/>
     <use xlink:href="#DejaVuSans-30" transform="translate(472.908203 0)"/>
     <use xlink:href="#DejaVuSans-2e" transform="translate(536.53125 0)"/>
     <use xlink:href="#DejaVuSans-30" transform="translate(568.318359 0)"/>
    </g>
   </g>
  </g>
  <g id="axes_2">
   <g id="patch_7">
    <path d="M 524.068125 313.478125 
L 993.233125 313.478125 
L 993.233125 22.318125 
L 524.068125 22.318125 
z
" style="fill: #ffffff"/>
   </g>
   <g id="FillBetweenPolyCollection_2">
    <path d="M 545.393807 302.400582 
L 545.393807 313.259835 
L 548.256314 309.767182 
L 551.118822 309.406245 
L 553.98133 307.05156 
L 556.843837 304.67629 
L 559.706345 303.741024 
L 562.568853 301.961492 
L 565.43136 301.830488 
L 568.293868 300.210452 
L 571.156375 299.027359 
L 574.018883 297.53882 
L 576.881391 296.054872 
L 579.743898 295.283213 
L 582.606406 294.049877 
L 585.468914 294.396298 
L 588.331421 292.044008 
L 591.193929 291.517706 
L 594.056436 292.172918 
L 596.918944 293.03538 
L 599.781452 294.04443 
L 602.643959 293.836898 
L 605.506467 294.453628 
L 608.368975 295.209999 
L 611.231482 295.493576 
L 614.09399 296.134664 
L 616.956497 296.938226 
L 619.819005 297.943844 
L 622.681513 298.615538 
L 625.54402 298.582529 
L 628.406528 298.893815 
L 631.269036 299.22304 
L 634.131543 299.677626 
L 636.994051 299.584108 
L 639.856558 299.628266 
L 642.719066 300.439021 
L 645.581574 301.648498 
L 648.444081 301.913779 
L 651.306589 300.701395 
L 654.169097 297.533636 
L 657.031604 295.595991 
L 659.894112 290.160145 
L 662.75662 287.038202 
L 665.619127 283.658123 
L 668.481635 270.726158 
L 671.344142 261.894122 
L 674.20665 255.670908 
L 677.069158 241.871808 
L 679.931665 225.191949 
L 682.794173 213.813002 
L 685.656681 204.471668 
L 688.519188 205.544308 
L 691.381696 196.625604 
L 694.244203 194.369441 
L 697.106711 201.303348 
L 699.969219 211.533103 
L 702.831726 223.283569 
L 705.694234 236.463501 
L 708.556742 246.447588 
L 711.419249 255.632452 
L 714.281757 261.277892 
L 717.144264 266.306311 
L 720.006772 273.224496 
L 722.86928 275.610618 
L 725.731787 276.582245 
L 728.594295 277.781532 
L 731.456803 278.294742 
L 734.31931 279.921093 
L 737.181818 282.266761 
L 740.044325 288.073338 
L 742.906833 292.933401 
L 745.769341 297.126853 
L 748.631848 296.717805 
L 751.494356 290.409538 
L 754.356864 289.365829 
L 757.219371 290.801071 
L 760.081879 295.478923 
L 762.944386 294.332726 
L 765.806894 297.802427 
L 768.669402 294.939746 
L 771.531909 293.012694 
L 774.394417 294.211052 
L 777.256925 292.86439 
L 780.119432 292.695239 
L 782.98194 293.605763 
L 785.844447 295.737616 
L 788.706955 297.645325 
L 791.569463 298.971929 
L 794.43197 298.659853 
L 797.294478 298.341199 
L 800.156986 297.552415 
L 803.019493 297.007079 
L 805.882001 297.9393 
L 808.744508 298.567366 
L 811.607016 298.706082 
L 814.469524 299.029201 
L 817.332031 298.981213 
L 820.194539 299.510616 
L 823.057047 299.498134 
L 825.919554 301.107177 
L 828.782062 299.704579 
L 831.644569 297.373875 
L 834.507077 296.564948 
L 837.369585 296.128777 
L 840.232092 302.292936 
L 843.0946 294.390378 
L 845.957108 295.98386 
L 848.819615 293.516118 
L 851.682123 292.721115 
L 854.54463 292.817959 
L 857.407138 292.990696 
L 860.269646 294.193181 
L 863.132153 294.617873 
L 865.994661 293.840632 
L 868.857169 294.101937 
L 871.719676 294.900951 
L 874.582184 295.241909 
L 877.444692 295.249753 
L 880.307199 295.371005 
L 883.169707 295.702834 
L 886.032214 300.205963 
L 888.894722 302.696859 
L 891.75723 303.002147 
L 894.619737 303.846451 
L 897.482245 304.239744 
L 900.344753 304.058511 
L 903.20726 303.00609 
L 906.069768 303.06749 
L 908.932275 304.383004 
L 911.794783 300.75092 
L 914.657291 297.446713 
L 917.519798 296.983036 
L 920.382306 297.308702 
L 923.244814 299.197549 
L 926.107321 298.222369 
L 928.969829 298.6179 
L 931.832336 299.05806 
L 934.694844 298.318075 
L 937.557352 297.306554 
L 940.419859 296.885128 
L 943.282367 297.084982 
L 946.144875 297.739054 
L 949.007382 298.460823 
L 951.86989 299.904796 
L 954.732397 302.725027 
L 957.594905 301.438267 
L 960.457413 302.277093 
L 963.31992 305.702389 
L 966.182428 306.17082 
L 969.044936 308.065173 
L 971.907443 316.289979 
L 971.907443 298.60985 
L 971.907443 298.60985 
L 969.044936 289.322813 
L 966.182428 289.049264 
L 963.31992 284.75965 
L 960.457413 281.368592 
L 957.594905 278.48352 
L 954.732397 282.316903 
L 951.86989 275.166277 
L 949.007382 272.916937 
L 946.144875 272.194885 
L 943.282367 271.875688 
L 940.419859 272.007477 
L 937.557352 272.379206 
L 934.694844 271.703266 
L 931.832336 271.171739 
L 928.969829 275.81757 
L 926.107321 276.010316 
L 923.244814 274.49885 
L 920.382306 270.371709 
L 917.519798 267.370716 
L 914.657291 263.496459 
L 911.794783 257.433033 
L 908.932275 247.999723 
L 906.069768 251.722372 
L 903.20726 253.708848 
L 900.344753 254.715037 
L 897.482245 254.14137 
L 894.619737 256.125512 
L 891.75723 253.329748 
L 888.894722 250.960557 
L 886.032214 256.361515 
L 883.169707 271.455576 
L 880.307199 276.366422 
L 877.444692 276.164957 
L 874.582184 276.827835 
L 871.719676 276.081016 
L 868.857169 274.717832 
L 865.994661 274.226359 
L 863.132153 274.697841 
L 860.269646 276.96232 
L 857.407138 276.038643 
L 854.54463 275.078666 
L 851.682123 274.808933 
L 848.819615 275.735897 
L 845.957108 277.081982 
L 843.0946 278.829492 
L 840.232092 280.184482 
L 837.369585 279.708713 
L 834.507077 280.873139 
L 831.644569 282.369577 
L 828.782062 283.936317 
L 825.919554 284.601437 
L 823.057047 283.015939 
L 820.194539 283.128953 
L 817.332031 281.504584 
L 814.469524 281.803299 
L 811.607016 281.467622 
L 808.744508 280.93489 
L 805.882001 279.854035 
L 803.019493 277.30341 
L 800.156986 275.508699 
L 797.294478 274.274046 
L 794.43197 271.8626 
L 791.569463 269.447399 
L 788.706955 268.562053 
L 785.844447 264.941129 
L 782.98194 261.163431 
L 780.119432 258.071783 
L 777.256925 254.614087 
L 774.394417 252.397599 
L 771.531909 250.603318 
L 768.669402 252.645654 
L 765.806894 255.769889 
L 762.944386 251.81355 
L 760.081879 250.619438 
L 757.219371 250.424511 
L 754.356864 251.287162 
L 751.494356 251.47922 
L 748.631848 248.014586 
L 745.769341 244.532639 
L 742.906833 240.530781 
L 740.044325 237.214128 
L 737.181818 232.440231 
L 734.31931 228.919203 
L 731.456803 226.156558 
L 728.594295 223.11245 
L 725.731787 218.743002 
L 722.86928 212.133585 
L 720.006772 201.911421 
L 717.144264 190.060204 
L 714.281757 190.239872 
L 711.419249 183.737863 
L 708.556742 173.699714 
L 705.694234 160.842802 
L 702.831726 146.403367 
L 699.969219 134.428289 
L 697.106711 123.020104 
L 694.244203 114.008436 
L 691.381696 111.942664 
L 688.519188 115.299058 
L 685.656681 113.793967 
L 682.794173 116.93604 
L 679.931665 118.976338 
L 677.069158 131.02976 
L 674.20665 144.572536 
L 671.344142 159.331114 
L 668.481635 185.112518 
L 665.619127 218.227909 
L 662.75662 234.277211 
L 659.894112 255.170953 
L 657.031604 279.053019 
L 654.169097 287.761173 
L 651.306589 289.59006 
L 648.444081 290.272335 
L 645.581574 289.198235 
L 642.719066 288.376122 
L 639.856558 288.186667 
L 636.994051 288.561978 
L 634.131543 289.656542 
L 631.269036 289.00441 
L 628.406528 287.846754 
L 625.54402 287.471423 
L 622.681513 288.361772 
L 619.819005 288.400889 
L 616.956497 287.259647 
L 614.09399 286.242814 
L 611.231482 285.726904 
L 608.368975 286.223034 
L 605.506467 285.663192 
L 602.643959 285.037593 
L 599.781452 284.064077 
L 596.918944 282.577001 
L 594.056436 282.274915 
L 591.193929 281.853598 
L 588.331421 282.735587 
L 585.468914 285.339818 
L 582.606406 285.204685 
L 579.743898 284.733629 
L 576.881391 285.773662 
L 574.018883 287.415506 
L 571.156375 288.401361 
L 568.293868 288.555759 
L 565.43136 290.370169 
L 562.568853 290.618878 
L 559.706345 292.70348 
L 556.843837 293.694189 
L 553.98133 296.44927 
L 551.118822 298.712051 
L 548.256314 298.878622 
L 545.393807 302.400582 
z
" clip-path="url(#pbc01565f91)" style="fill: #1f77b4; fill-opacity: 0.3"/>
   </g>
   <g id="matplotlib.axis_3">
    <g id="xtick_10">
     <g id="line2d_18">
      <g>
       <use xlink:href="#m8ac03413b3" x="545.393807" y="313.478125" style="stroke: #000000; stroke-width: 0.8"/>
      </g>
     </g>
     <g id="text_20">
      <!-- 0 -->
      <g transform="translate(542.212557 328.076563) scale(0.1 -0.1)">
       <use xlink:href="#DejaVuSans-30"/>
      </g>
     </g>
    </g>
    <g id="xtick_11">
     <g id="line2d_19">
      <g>
       <use xlink:href="#m8ac03413b3" x="596.918944" y="313.478125" style="stroke: #000000; stroke-width: 0.8"/>
      </g>
     </g>
     <g id="text_21">
      <!-- 18 -->
      <g transform="translate(590.556444 328.076563) scale(0.1 -0.1)">
       <use xlink:href="#DejaVuSans-31"/>
       <use xlink:href="#DejaVuSans-38" transform="translate(63.623047 0)"/>
      </g>
     </g>
    </g>
    <g id="xtick_12">
     <g id="line2d_20">
      <g>
       <use xlink:href="#m8ac03413b3" x="651.306589" y="313.478125" style="stroke: #000000; stroke-width: 0.8"/>
      </g>
     </g>
     <g id="text_22">
      <!-- 37 -->
      <g transform="translate(644.944089 328.076563) scale(0.1 -0.1)">
       <use xlink:href="#DejaVuSans-33"/>
       <use xlink:href="#DejaVuSans-37" transform="translate(63.623047 0)"/>
      </g>
     </g>
    </g>
    <g id="xtick_13">
     <g id="line2d_21">
      <g>
       <use xlink:href="#m8ac03413b3" x="702.831726" y="313.478125" style="stroke: #000000; stroke-width: 0.8"/>
      </g>
     </g>
     <g id="text_23">
      <!-- 55 -->
      <g transform="translate(696.469226 328.076563) scale(0.1 -0.1)">
       <use xlink:href="#DejaVuSans-35"/>
       <use xlink:href="#DejaVuSans-35" transform="translate(63.623047 0)"/>
      </g>
     </g>
    </g>
    <g id="xtick_14">
     <g id="line2d_22">
      <g>
       <use xlink:href="#m8ac03413b3" x="757.219371" y="313.478125" style="stroke: #000000; stroke-width: 0.8"/>
      </g>
     </g>
     <g id="text_24">
      <!-- 74 -->
      <g transform="translate(750.856871 328.076563) scale(0.1 -0.1)">
       <use xlink:href="#DejaVuSans-37"/>
       <use xlink:href="#DejaVuSans-34" transform="translate(63.623047 0)"/>
      </g>
     </g>
    </g>
    <g id="xtick_15">
     <g id="line2d_23">
      <g>
       <use xlink:href="#m8ac03413b3" x="811.607016" y="313.478125" style="stroke: #000000; stroke-width: 0.8"/>
      </g>
     </g>
     <g id="text_25">
      <!-- 93 -->
      <g transform="translate(805.244516 328.076563) scale(0.1 -0.1)">
       <use xlink:href="#DejaVuSans-39"/>
       <use xlink:href="#DejaVuSans-33" transform="translate(63.623047 0)"/>
      </g>
     </g>
    </g>
    <g id="xtick_16">
     <g id="line2d_24">
      <g>
       <use xlink:href="#m8ac03413b3" x="863.132153" y="313.478125" style="stroke: #000000; stroke-width: 0.8"/>
      </g>
     </g>
     <g id="text_26">
      <!-- 111 -->
      <g transform="translate(853.588403 328.076563) scale(0.1 -0.1)">
       <use xlink:href="#DejaVuSans-31"/>
       <use xlink:href="#DejaVuSans-31" transform="translate(63.623047 0)"/>
       <use xlink:href="#DejaVuSans-31" transform="translate(127.246094 0)"/>
      </g>
     </g>
    </g>
    <g id="xtick_17">
     <g id="line2d_25">
      <g>
       <use xlink:href="#m8ac03413b3" x="917.519798" y="313.478125" style="stroke: #000000; stroke-width: 0.8"/>
      </g>
     </g>
     <g id="text_27">
      <!-- 130 -->
      <g transform="translate(907.976048 328.076563) scale(0.1 -0.1)">
       <use xlink:href="#DejaVuSans-31"/>
       <use xlink:href="#DejaVuSans-33" transform="translate(63.623047 0)"/>
       <use xlink:href="#DejaVuSans-30" transform="translate(127.246094 0)"/>
      </g>
     </g>
    </g>
    <g id="xtick_18">
     <g id="line2d_26">
      <g>
       <use xlink:href="#m8ac03413b3" x="971.907443" y="313.478125" style="stroke: #000000; stroke-width: 0.8"/>
      </g>
     </g>
     <g id="text_28">
      <!-- 149 -->
      <g transform="translate(962.363693 328.076563) scale(0.1 -0.1)">
       <use xlink:href="#DejaVuSans-31"/>
       <use xlink:href="#DejaVuSans-34" transform="translate(63.623047 0)"/>
       <use xlink:href="#DejaVuSans-39" transform="translate(127.246094 0)"/>
      </g>
     </g>
    </g>
    <g id="text_29">
     <!-- Spatial bin -->
     <g transform="translate(732.114688 341.754687) scale(0.1 -0.1)">
      <use xlink:href="#DejaVuSans-53"/>
      <use xlink:href="#DejaVuSans-70" transform="translate(63.476562 0)"/>
      <use xlink:href="#DejaVuSans-61" transform="translate(126.953125 0)"/>
      <use xlink:href="#DejaVuSans-74" transform="translate(188.232422 0)"/>
      <use xlink:href="#DejaVuSans-69" transform="translate(227.441406 0)"/>
      <use xlink:href="#DejaVuSans-61" transform="translate(255.224609 0)"/>
      <use xlink:href="#DejaVuSans-6c" transform="translate(316.503906 0)"/>
      <use xlink:href="#DejaVuSans-20" transform="translate(344.287109 0)"/>
      <use xlink:href="#DejaVuSans-62" transform="translate(376.074219 0)"/>
      <use xlink:href="#DejaVuSans-69" transform="translate(439.550781 0)"/>
      <use xlink:href="#DejaVuSans-6e" transform="translate(467.333984 0)"/>
     </g>
    </g>
   </g>
   <g id="matplotlib.axis_4">
    <g id="ytick_8">
     <g id="line2d_27">
      <g>
       <use xlink:href="#m15ae5dcd89" x="524.068125" y="291.081202" style="stroke: #000000; stroke-width: 0.8"/>
      </g>
     </g>
    </g>
    <g id="ytick_9">
     <g id="line2d_28">
      <g>
       <use xlink:href="#m15ae5dcd89" x="524.068125" y="246.287356" style="stroke: #000000; stroke-width: 0.8"/>
      </g>
     </g>
    </g>
    <g id="ytick_10">
     <g id="line2d_29">
      <g>
       <use xlink:href="#m15ae5dcd89" x="524.068125" y="201.49351" style="stroke: #000000; stroke-width: 0.8"/>
      </g>
     </g>
    </g>
    <g id="ytick_11">
     <g id="line2d_30">
      <g>
       <use xlink:href="#m15ae5dcd89" x="524.068125" y="156.699663" style="stroke: #000000; stroke-width: 0.8"/>
      </g>
     </g>
    </g>
    <g id="ytick_12">
     <g id="line2d_31">
      <g>
       <use xlink:href="#m15ae5dcd89" x="524.068125" y="111.905817" style="stroke: #000000; stroke-width: 0.8"/>
      </g>
     </g>
    </g>
    <g id="ytick_13">
     <g id="line2d_32">
      <g>
       <use xlink:href="#m15ae5dcd89" x="524.068125" y="67.111971" style="stroke: #000000; stroke-width: 0.8"/>
      </g>
     </g>
    </g>
    <g id="ytick_14">
     <g id="line2d_33">
      <g>
       <use xlink:href="#m15ae5dcd89" x="524.068125" y="22.318125" style="stroke: #000000; stroke-width: 0.8"/>
      </g>
     </g>
    </g>
   </g>
   <g id="line2d_34">
    <path d="M 545.393807 307.830209 
L 548.256314 304.322902 
L 551.118822 304.059148 
L 553.98133 301.750415 
L 556.843837 299.185239 
L 559.706345 298.222252 
L 562.568853 296.290185 
L 565.43136 296.100328 
L 568.293868 294.383106 
L 571.156375 293.71436 
L 574.018883 292.477163 
L 576.881391 290.914267 
L 579.743898 290.008421 
L 582.606406 289.627281 
L 585.468914 289.868058 
L 588.331421 287.389798 
L 591.193929 286.685652 
L 596.918944 287.80619 
L 599.781452 289.054254 
L 602.643959 289.437245 
L 608.368975 290.716517 
L 611.231482 290.61024 
L 614.09399 291.188739 
L 616.956497 292.098936 
L 619.819005 293.172367 
L 622.681513 293.488655 
L 625.54402 293.026976 
L 628.406528 293.370284 
L 631.269036 294.113725 
L 634.131543 294.667084 
L 636.994051 294.073043 
L 639.856558 293.907467 
L 642.719066 294.407571 
L 645.581574 295.423366 
L 648.444081 296.093057 
L 651.306589 295.145728 
L 654.169097 292.647404 
L 657.031604 287.324505 
L 659.894112 272.665549 
L 662.75662 260.657707 
L 665.619127 250.943016 
L 668.481635 227.919338 
L 671.344142 210.612618 
L 674.20665 200.121722 
L 677.069158 186.450784 
L 679.931665 172.084143 
L 682.794173 165.374521 
L 685.656681 159.132818 
L 688.519188 160.421683 
L 691.381696 154.284134 
L 694.244203 154.188938 
L 697.106711 162.161726 
L 699.969219 172.980696 
L 702.831726 184.843468 
L 705.694234 198.653152 
L 708.556742 210.073651 
L 711.419249 219.685157 
L 714.281757 225.758882 
L 717.144264 228.183257 
L 720.006772 237.567958 
L 722.86928 243.872102 
L 725.731787 247.662623 
L 728.594295 250.446991 
L 731.456803 252.22565 
L 734.31931 254.420148 
L 737.181818 257.353496 
L 740.044325 262.643733 
L 745.769341 270.829746 
L 748.631848 272.366196 
L 751.494356 270.944379 
L 754.356864 270.326495 
L 757.219371 270.612791 
L 760.081879 273.04918 
L 762.944386 273.073138 
L 765.806894 276.786158 
L 768.669402 273.7927 
L 771.531909 271.808006 
L 774.394417 273.304326 
L 777.256925 273.739239 
L 780.119432 275.383511 
L 782.98194 277.384597 
L 785.844447 280.339372 
L 788.706955 283.103689 
L 797.294478 286.307623 
L 800.156986 286.530557 
L 803.019493 287.155245 
L 805.882001 288.896667 
L 808.744508 289.751128 
L 814.469524 290.41625 
L 817.332031 290.242899 
L 820.194539 291.319784 
L 823.057047 291.257037 
L 825.919554 292.854307 
L 828.782062 291.820448 
L 831.644569 289.871726 
L 834.507077 288.719043 
L 837.369585 287.918745 
L 840.232092 291.238709 
L 843.0946 286.609935 
L 845.957108 286.532921 
L 848.819615 284.626007 
L 851.682123 283.765024 
L 854.54463 283.948312 
L 857.407138 284.51467 
L 860.269646 285.577751 
L 863.132153 284.657857 
L 865.994661 284.033496 
L 868.857169 284.409884 
L 871.719676 285.490984 
L 874.582184 286.034872 
L 877.444692 285.707355 
L 880.307199 285.868713 
L 883.169707 283.579205 
L 886.032214 278.283739 
L 888.894722 276.828708 
L 891.75723 278.165947 
L 894.619737 279.985981 
L 897.482245 279.190557 
L 900.344753 279.386774 
L 908.932275 276.191364 
L 911.794783 279.091976 
L 914.657291 280.471586 
L 920.382306 283.840205 
L 923.244814 286.8482 
L 926.107321 287.116343 
L 928.969829 287.217735 
L 931.832336 285.114899 
L 937.557352 284.84288 
L 940.419859 284.446302 
L 943.282367 284.480335 
L 946.144875 284.966969 
L 949.007382 285.68888 
L 951.86989 287.535536 
L 954.732397 292.520965 
L 957.594905 289.960893 
L 960.457413 291.822843 
L 963.31992 295.23102 
L 966.182428 297.610042 
L 969.044936 298.693993 
L 971.907443 307.449915 
L 971.907443 307.449915 
" clip-path="url(#pbc01565f91)" style="fill: none; stroke: #ff0000; stroke-width: 3; stroke-linecap: square"/>
   </g>
   <g id="LineCollection_2">
    <path d="M 688.519188 313.478125 
L 688.519188 22.318125 
" clip-path="url(#pbc01565f91)" style="fill: none; stroke-dasharray: 5.55,2.4; stroke-dashoffset: 0; stroke: #ff0000; stroke-width: 1.5"/>
    <path d="M 831.644569 313.478125 
L 831.644569 22.318125 
" clip-path="url(#pbc01565f91)" style="fill: none; stroke-dasharray: 5.55,2.4; stroke-dashoffset: 0; stroke: #ff0000; stroke-width: 1.5"/>
   </g>
   <g id="patch_8">
    <path d="M 524.068125 313.478125 
L 524.068125 22.318125 
" style="fill: none; stroke: #000000; stroke-width: 0.8; stroke-linejoin: miter; stroke-linecap: square"/>
   </g>
   <g id="patch_9">
    <path d="M 993.233125 313.478125 
L 993.233125 22.318125 
" style="fill: none; stroke: #000000; stroke-width: 0.8; stroke-linejoin: miter; stroke-linecap: square"/>
   </g>
   <g id="patch_10">
    <path d="M 524.068125 313.478125 
L 993.233125 313.478125 
" style="fill: none; stroke: #000000; stroke-width: 0.8; stroke-linejoin: miter; stroke-linecap: square"/>
   </g>
   <g id="patch_11">
    <path d="M 524.068125 22.318125 
L 993.233125 22.318125 
" style="fill: none; stroke: #000000; stroke-width: 0.8; stroke-linejoin: miter; stroke-linecap: square"/>
   </g>
   <g id="text_30">
    <!-- Corridor 50.5 -->
    <g transform="translate(719.081563 16.318125) scale(0.12 -0.12)">
     <use xlink:href="#DejaVuSans-43"/>
     <use xlink:href="#DejaVuSans-6f" transform="translate(69.824219 0)"/>
     <use xlink:href="#DejaVuSans-72" transform="translate(131.005859 0)"/>
     <use xlink:href="#DejaVuSans-72" transform="translate(170.369141 0)"/>
     <use xlink:href="#DejaVuSans-69" transform="translate(211.482422 0)"/>
     <use xlink:href="#DejaVuSans-64" transform="translate(239.265625 0)"/>
     <use xlink:href="#DejaVuSans-6f" transform="translate(302.742188 0)"/>
     <use xlink:href="#DejaVuSans-72" transform="translate(363.923828 0)"/>
     <use xlink:href="#DejaVuSans-20" transform="translate(405.037109 0)"/>
     <use xlink:href="#DejaVuSans-35" transform="translate(436.824219 0)"/>
     <use xlink:href="#DejaVuSans-30" transform="translate(500.447266 0)"/>
     <use xlink:href="#DejaVuSans-2e" transform="translate(564.070312 0)"/>
     <use xlink:href="#DejaVuSans-35" transform="translate(595.857422 0)"/>
    </g>
   </g>
  </g>
 </g>
 <defs>
  <clipPath id="p61231803b2">
   <rect x="40.603125" y="22.318125" width="469.165" height="291.16"/>
  </clipPath>
  <clipPath id="pbc01565f91">
   <rect x="524.068125" y="22.318125" width="469.165" height="291.16"/>
  </clipPath>
 </defs>
</svg>
