<?xml version="1.0" encoding="utf-8" standalone="no"?>
<!DOCTYPE svg PUBLIC "-//W3C//DTD SVG 1.1//EN"
  "http://www.w3.org/Graphics/SVG/1.1/DTD/svg11.dtd">
<svg xmlns:xlink="http://www.w3.org/1999/xlink" width="1000.46125pt" height="351.034375pt" viewBox="0 0 1000.46125 351.034375" xmlns="http://www.w3.org/2000/svg" version="1.1">
 <metadata>
  <rdf:RDF xmlns:dc="http://purl.org/dc/elements/1.1/" xmlns:cc="http://creativecommons.org/ns#" xmlns:rdf="http://www.w3.org/1999/02/22-rdf-syntax-ns#">
   <cc:Work>
    <dc:type rdf:resource="http://purl.org/dc/dcmitype/StillImage"/>
    <dc:date>2025-10-10T12:40:14.502801</dc:date>
    <dc:format>image/svg+xml</dc:format>
    <dc:creator>
     <cc:Agent>
      <dc:title>Matplotlib v3.10.0, https://matplotlib.org/</dc:title>
     </cc:Agent>
    </dc:creator>
   </cc:Work>
  </rdf:RDF>
 </metadata>
 <defs>
  <style type="text/css">*{stroke-linejoin: round; stroke-linecap: butt}</style>
 </defs>
 <g id="figure_1">
  <g id="patch_1">
   <path d="M 0 351.034375 
L 1000.46125 351.034375 
L 1000.46125 0 
L 0 0 
z
" style="fill: #ffffff"/>
  </g>
  <g id="axes_1">
   <g id="patch_2">
    <path d="M 43.78125 313.478125 
L 511.37125 313.478125 
L 511.37125 22.318125 
L 43.78125 22.318125 
z
" style="fill: #ffffff"/>
   </g>
   <g id="FillBetweenPolyCollection_1">
    <path d="M 65.035341 275.3766 
L 65.035341 285.89471 
L 67.888239 287.501626 
L 70.741137 290.501019 
L 73.594035 284.586744 
L 76.446933 280.482569 
L 79.299831 278.708393 
L 82.15273 278.024073 
L 85.005628 278.170408 
L 87.858526 278.312367 
L 90.711424 278.740735 
L 93.564322 277.220463 
L 96.41722 272.111331 
L 99.270118 271.180268 
L 102.123016 270.208702 
L 104.975914 267.970582 
L 107.828813 265.79778 
L 110.681711 264.673098 
L 113.534609 266.008704 
L 116.387507 268.7511 
L 119.240405 271.193658 
L 122.093303 271.024885 
L 124.946201 268.823898 
L 127.799099 268.974141 
L 130.651997 268.954649 
L 133.504896 269.754899 
L 136.357794 270.291225 
L 139.210692 271.300873 
L 142.06359 272.771813 
L 144.916488 271.868078 
L 147.769386 271.536112 
L 150.622284 270.364261 
L 153.475182 270.981441 
L 156.32808 272.094221 
L 159.180978 273.395129 
L 162.033877 271.420432 
L 164.886775 271.428142 
L 167.739673 271.63712 
L 170.592571 271.759122 
L 173.445469 272.078249 
L 176.298367 273.431666 
L 179.151265 275.349539 
L 182.004163 277.26253 
L 184.857061 278.526656 
L 187.70996 280.212996 
L 190.562858 280.024169 
L 193.415756 274.618908 
L 196.268654 268.03966 
L 199.121552 261.884407 
L 201.97445 256.80505 
L 204.827348 255.844523 
L 207.680246 255.736441 
L 210.533144 255.378319 
L 213.386043 255.916312 
L 216.238941 256.820228 
L 219.091839 259.127468 
L 221.944737 261.243234 
L 224.797635 262.77137 
L 227.650533 264.062993 
L 230.503431 265.47629 
L 233.356329 267.895316 
L 236.209227 270.185111 
L 239.062126 269.899818 
L 241.915024 269.719182 
L 244.767922 268.608558 
L 247.62082 269.561176 
L 250.473718 271.974182 
L 253.326616 271.427175 
L 256.179514 272.18141 
L 259.032412 273.100462 
L 261.88531 273.230808 
L 264.738209 273.276161 
L 267.591107 273.922282 
L 270.444005 273.738676 
L 273.296903 273.351357 
L 276.149801 273.788191 
L 279.002699 274.342261 
L 281.855597 275.490255 
L 284.708495 277.294313 
L 287.561393 278.14949 
L 290.414291 279.21546 
L 293.26719 279.113711 
L 296.120088 279.259348 
L 298.972986 279.871581 
L 301.825884 280.650101 
L 304.678782 280.505133 
L 307.53168 281.078992 
L 310.384578 281.555079 
L 313.237476 282.046449 
L 316.090374 281.670328 
L 318.943273 281.379761 
L 321.796171 280.562519 
L 324.649069 281.49772 
L 327.501967 280.651639 
L 330.354865 279.335737 
L 333.207763 279.122383 
L 336.060661 279.261532 
L 338.913559 280.563746 
L 341.766457 280.989957 
L 344.619356 279.676339 
L 347.472254 280.136974 
L 350.325152 280.852202 
L 353.17805 281.444147 
L 356.030948 281.261424 
L 358.883846 281.275709 
L 361.736744 282.011041 
L 364.589642 282.543806 
L 367.44254 282.607748 
L 370.295439 283.709647 
L 373.148337 283.483788 
L 376.001235 283.273593 
L 378.854133 282.719615 
L 381.707031 283.628858 
L 384.559929 283.638711 
L 387.412827 282.96635 
L 390.265725 283.400653 
L 393.118623 282.567738 
L 395.971522 282.169908 
L 398.82442 282.322162 
L 401.677318 282.659572 
L 404.530216 283.350875 
L 407.383114 283.794716 
L 410.236012 283.838652 
L 413.08891 284.137988 
L 415.941808 286.36021 
L 418.794706 287.322234 
L 421.647604 287.197219 
L 424.500503 286.777405 
L 427.353401 286.299794 
L 430.206299 282.796744 
L 433.059197 286.569797 
L 435.912095 281.686788 
L 438.764993 281.597874 
L 441.617891 283.126446 
L 444.470789 285.862527 
L 447.323687 285.763108 
L 450.176586 284.338598 
L 453.029484 280.240848 
L 455.882382 279.026489 
L 458.73528 278.760831 
L 461.588178 277.603724 
L 464.441076 278.008339 
L 467.293974 275.248135 
L 470.146872 275.201685 
L 472.99977 276.2696 
L 475.852669 276.151397 
L 478.705567 275.397701 
L 481.558465 275.007229 
L 484.411363 274.795037 
L 487.264261 276.203994 
L 490.117159 290.474889 
L 490.117159 265.768655 
L 490.117159 265.768655 
L 487.264261 255.859418 
L 484.411363 255.011424 
L 481.558465 255.049184 
L 478.705567 255.609621 
L 475.852669 256.620163 
L 472.99977 256.730154 
L 470.146872 254.733741 
L 467.293974 253.603051 
L 464.441076 255.83017 
L 461.588178 252.849376 
L 458.73528 254.983957 
L 455.882382 256.675479 
L 453.029484 258.827842 
L 450.176586 262.176882 
L 447.323687 261.271733 
L 444.470789 259.902441 
L 441.617891 260.663074 
L 438.764993 259.868436 
L 435.912095 259.395856 
L 433.059197 262.535148 
L 430.206299 263.068794 
L 427.353401 266.232433 
L 424.500503 266.809568 
L 421.647604 267.03045 
L 418.794706 267.097556 
L 415.941808 266.783514 
L 413.08891 267.433638 
L 410.236012 266.594313 
L 407.383114 266.103014 
L 404.530216 265.889409 
L 401.677318 265.917183 
L 398.82442 266.102745 
L 395.971522 266.048447 
L 393.118623 266.1929 
L 390.265725 266.19689 
L 387.412827 265.503576 
L 384.559929 265.778571 
L 381.707031 265.702831 
L 378.854133 264.618277 
L 376.001235 265.025356 
L 373.148337 265.189387 
L 370.295439 265.108551 
L 367.44254 263.978705 
L 364.589642 263.187762 
L 361.736744 262.769264 
L 358.883846 262.599303 
L 356.030948 263.411953 
L 353.17805 263.787043 
L 350.325152 263.221844 
L 347.472254 261.261672 
L 344.619356 261.977779 
L 341.766457 261.361346 
L 338.913559 260.64924 
L 336.060661 259.389642 
L 333.207763 259.268111 
L 330.354865 258.813662 
L 327.501967 258.716568 
L 324.649069 258.86083 
L 321.796171 258.059405 
L 318.943273 257.144774 
L 316.090374 257.229519 
L 313.237476 259.857624 
L 310.384578 263.457047 
L 307.53168 264.238728 
L 304.678782 263.17586 
L 301.825884 263.183971 
L 298.972986 261.363989 
L 296.120088 259.692456 
L 293.26719 259.374162 
L 290.414291 257.660355 
L 287.561393 257.427154 
L 284.708495 257.046049 
L 281.855597 257.908893 
L 279.002699 257.5882 
L 276.149801 256.688466 
L 273.296903 255.405754 
L 270.444005 255.489395 
L 267.591107 256.279802 
L 264.738209 256.807593 
L 261.88531 258.201809 
L 259.032412 258.345205 
L 256.179514 257.362247 
L 253.326616 255.448917 
L 250.473718 257.364579 
L 247.62082 255.259135 
L 244.767922 252.431276 
L 241.915024 251.858961 
L 239.062126 250.424669 
L 236.209227 250.081096 
L 233.356329 247.976728 
L 230.503431 245.168465 
L 227.650533 243.243946 
L 224.797635 240.716273 
L 221.944737 237.065132 
L 219.091839 233.164037 
L 216.238941 229.82767 
L 213.386043 228.605823 
L 210.533144 226.362532 
L 207.680246 224.630631 
L 204.827348 222.636839 
L 201.97445 221.109021 
L 199.121552 225.579537 
L 196.268654 238.668888 
L 193.415756 253.056875 
L 190.562858 265.671216 
L 187.70996 266.512724 
L 184.857061 264.667344 
L 182.004163 263.414677 
L 179.151265 258.602879 
L 176.298367 255.635365 
L 173.445469 254.421655 
L 170.592571 254.639449 
L 167.739673 254.910617 
L 164.886775 254.991804 
L 162.033877 256.589724 
L 159.180978 259.946698 
L 156.32808 259.330796 
L 153.475182 259.333657 
L 150.622284 258.971072 
L 147.769386 259.940619 
L 144.916488 259.426855 
L 142.06359 260.571464 
L 139.210692 258.468432 
L 136.357794 256.82737 
L 133.504896 255.226329 
L 130.651997 253.389395 
L 127.799099 252.948891 
L 124.946201 254.802678 
L 122.093303 256.297367 
L 119.240405 255.68549 
L 116.387507 253.530351 
L 113.534609 250.525197 
L 110.681711 248.301202 
L 107.828813 250.473077 
L 104.975914 254.51086 
L 102.123016 256.936701 
L 99.270118 255.441522 
L 96.41722 258.4922 
L 93.564322 262.955989 
L 90.711424 265.216624 
L 87.858526 267.988498 
L 85.005628 268.27502 
L 82.15273 267.544159 
L 79.299831 266.103544 
L 76.446933 263.72068 
L 73.594035 258.158701 
L 70.741137 250.966002 
L 67.888239 255.545778 
L 65.035341 275.3766 
z
" clip-path="url(#p4c28247bf9)" style="fill: #1f77b4; fill-opacity: 0.3"/>
   </g>
   <g id="matplotlib.axis_1">
    <g id="xtick_1">
     <g id="line2d_1">
      <defs>
       <path id="mf57ec37d23" d="M 0 0 
L 0 3.5 
" style="stroke: #000000; stroke-width: 0.8"/>
      </defs>
      <g>
       <use xlink:href="#mf57ec37d23" x="65.035341" y="313.478125" style="stroke: #000000; stroke-width: 0.8"/>
      </g>
     </g>
     <g id="text_1">
      <!-- 0 -->
      <g transform="translate(61.854091 328.076563) scale(0.1 -0.1)">
       <defs>
        <path id="DejaVuSans-30" d="M 2034 4250 
Q 1547 4250 1301 3770 
Q 1056 3291 1056 2328 
Q 1056 1369 1301 889 
Q 1547 409 2034 409 
Q 2525 409 2770 889 
Q 3016 1369 3016 2328 
Q 3016 3291 2770 3770 
Q 2525 4250 2034 4250 
z
M 2034 4750 
Q 2819 4750 3233 4129 
Q 3647 3509 3647 2328 
Q 3647 1150 3233 529 
Q 2819 -91 2034 -91 
Q 1250 -91 836 529 
Q 422 1150 422 2328 
Q 422 3509 836 4129 
Q 1250 4750 2034 4750 
z
" transform="scale(0.015625)"/>
       </defs>
       <use xlink:href="#DejaVuSans-30"/>
      </g>
     </g>
    </g>
    <g id="xtick_2">
     <g id="line2d_2">
      <g>
       <use xlink:href="#mf57ec37d23" x="116.387507" y="313.478125" style="stroke: #000000; stroke-width: 0.8"/>
      </g>
     </g>
     <g id="text_2">
      <!-- 18 -->
      <g transform="translate(110.025007 328.076563) scale(0.1 -0.1)">
       <defs>
        <path id="DejaVuSans-31" d="M 794 531 
L 1825 531 
L 1825 4091 
L 703 3866 
L 703 4441 
L 1819 4666 
L 2450 4666 
L 2450 531 
L 3481 531 
L 3481 0 
L 794 0 
L 794 531 
z
" transform="scale(0.015625)"/>
        <path id="DejaVuSans-38" d="M 2034 2216 
Q 1584 2216 1326 1975 
Q 1069 1734 1069 1313 
Q 1069 891 1326 650 
Q 1584 409 2034 409 
Q 2484 409 2743 651 
Q 3003 894 3003 1313 
Q 3003 1734 2745 1975 
Q 2488 2216 2034 2216 
z
M 1403 2484 
Q 997 2584 770 2862 
Q 544 3141 544 3541 
Q 544 4100 942 4425 
Q 1341 4750 2034 4750 
Q 2731 4750 3128 4425 
Q 3525 4100 3525 3541 
Q 3525 3141 3298 2862 
Q 3072 2584 2669 2484 
Q 3125 2378 3379 2068 
Q 3634 1759 3634 1313 
Q 3634 634 3220 271 
Q 2806 -91 2034 -91 
Q 1263 -91 848 271 
Q 434 634 434 1313 
Q 434 1759 690 2068 
Q 947 2378 1403 2484 
z
M 1172 3481 
Q 1172 3119 1398 2916 
Q 1625 2713 2034 2713 
Q 2441 2713 2670 2916 
Q 2900 3119 2900 3481 
Q 2900 3844 2670 4047 
Q 2441 4250 2034 4250 
Q 1625 4250 1398 4047 
Q 1172 3844 1172 3481 
z
" transform="scale(0.015625)"/>
       </defs>
       <use xlink:href="#DejaVuSans-31"/>
       <use xlink:href="#DejaVuSans-38" transform="translate(63.623047 0)"/>
      </g>
     </g>
    </g>
    <g id="xtick_3">
     <g id="line2d_3">
      <g>
       <use xlink:href="#mf57ec37d23" x="170.592571" y="313.478125" style="stroke: #000000; stroke-width: 0.8"/>
      </g>
     </g>
     <g id="text_3">
      <!-- 37 -->
      <g transform="translate(164.230071 328.076563) scale(0.1 -0.1)">
       <defs>
        <path id="DejaVuSans-33" d="M 2597 2516 
Q 3050 2419 3304 2112 
Q 3559 1806 3559 1356 
Q 3559 666 3084 287 
Q 2609 -91 1734 -91 
Q 1441 -91 1130 -33 
Q 819 25 488 141 
L 488 750 
Q 750 597 1062 519 
Q 1375 441 1716 441 
Q 2309 441 2620 675 
Q 2931 909 2931 1356 
Q 2931 1769 2642 2001 
Q 2353 2234 1838 2234 
L 1294 2234 
L 1294 2753 
L 1863 2753 
Q 2328 2753 2575 2939 
Q 2822 3125 2822 3475 
Q 2822 3834 2567 4026 
Q 2313 4219 1838 4219 
Q 1578 4219 1281 4162 
Q 984 4106 628 3988 
L 628 4550 
Q 988 4650 1302 4700 
Q 1616 4750 1894 4750 
Q 2613 4750 3031 4423 
Q 3450 4097 3450 3541 
Q 3450 3153 3228 2886 
Q 3006 2619 2597 2516 
z
" transform="scale(0.015625)"/>
        <path id="DejaVuSans-37" d="M 525 4666 
L 3525 4666 
L 3525 4397 
L 1831 0 
L 1172 0 
L 2766 4134 
L 525 4134 
L 525 4666 
z
" transform="scale(0.015625)"/>
       </defs>
       <use xlink:href="#DejaVuSans-33"/>
       <use xlink:href="#DejaVuSans-37" transform="translate(63.623047 0)"/>
      </g>
     </g>
    </g>
    <g id="xtick_4">
     <g id="line2d_4">
      <g>
       <use xlink:href="#mf57ec37d23" x="221.944737" y="313.478125" style="stroke: #000000; stroke-width: 0.8"/>
      </g>
     </g>
     <g id="text_4">
      <!-- 55 -->
      <g transform="translate(215.582237 328.076563) scale(0.1 -0.1)">
       <defs>
        <path id="DejaVuSans-35" d="M 691 4666 
L 3169 4666 
L 3169 4134 
L 1269 4134 
L 1269 2991 
Q 1406 3038 1543 3061 
Q 1681 3084 1819 3084 
Q 2600 3084 3056 2656 
Q 3513 2228 3513 1497 
Q 3513 744 3044 326 
Q 2575 -91 1722 -91 
Q 1428 -91 1123 -41 
Q 819 9 494 109 
L 494 744 
Q 775 591 1075 516 
Q 1375 441 1709 441 
Q 2250 441 2565 725 
Q 2881 1009 2881 1497 
Q 2881 1984 2565 2268 
Q 2250 2553 1709 2553 
Q 1456 2553 1204 2497 
Q 953 2441 691 2322 
L 691 4666 
z
" transform="scale(0.015625)"/>
       </defs>
       <use xlink:href="#DejaVuSans-35"/>
       <use xlink:href="#DejaVuSans-35" transform="translate(63.623047 0)"/>
      </g>
     </g>
    </g>
    <g id="xtick_5">
     <g id="line2d_5">
      <g>
       <use xlink:href="#mf57ec37d23" x="276.149801" y="313.478125" style="stroke: #000000; stroke-width: 0.8"/>
      </g>
     </g>
     <g id="text_5">
      <!-- 74 -->
      <g transform="translate(269.787301 328.076563) scale(0.1 -0.1)">
       <defs>
        <path id="DejaVuSans-34" d="M 2419 4116 
L 825 1625 
L 2419 1625 
L 2419 4116 
z
M 2253 4666 
L 3047 4666 
L 3047 1625 
L 3713 1625 
L 3713 1100 
L 3047 1100 
L 3047 0 
L 2419 0 
L 2419 1100 
L 313 1100 
L 313 1709 
L 2253 4666 
z
" transform="scale(0.015625)"/>
       </defs>
       <use xlink:href="#DejaVuSans-37"/>
       <use xlink:href="#DejaVuSans-34" transform="translate(63.623047 0)"/>
      </g>
     </g>
    </g>
    <g id="xtick_6">
     <g id="line2d_6">
      <g>
       <use xlink:href="#mf57ec37d23" x="330.354865" y="313.478125" style="stroke: #000000; stroke-width: 0.8"/>
      </g>
     </g>
     <g id="text_6">
      <!-- 93 -->
      <g transform="translate(323.992365 328.076563) scale(0.1 -0.1)">
       <defs>
        <path id="DejaVuSans-39" d="M 703 97 
L 703 672 
Q 941 559 1184 500 
Q 1428 441 1663 441 
Q 2288 441 2617 861 
Q 2947 1281 2994 2138 
Q 2813 1869 2534 1725 
Q 2256 1581 1919 1581 
Q 1219 1581 811 2004 
Q 403 2428 403 3163 
Q 403 3881 828 4315 
Q 1253 4750 1959 4750 
Q 2769 4750 3195 4129 
Q 3622 3509 3622 2328 
Q 3622 1225 3098 567 
Q 2575 -91 1691 -91 
Q 1453 -91 1209 -44 
Q 966 3 703 97 
z
M 1959 2075 
Q 2384 2075 2632 2365 
Q 2881 2656 2881 3163 
Q 2881 3666 2632 3958 
Q 2384 4250 1959 4250 
Q 1534 4250 1286 3958 
Q 1038 3666 1038 3163 
Q 1038 2656 1286 2365 
Q 1534 2075 1959 2075 
z
" transform="scale(0.015625)"/>
       </defs>
       <use xlink:href="#DejaVuSans-39"/>
       <use xlink:href="#DejaVuSans-33" transform="translate(63.623047 0)"/>
      </g>
     </g>
    </g>
    <g id="xtick_7">
     <g id="line2d_7">
      <g>
       <use xlink:href="#mf57ec37d23" x="381.707031" y="313.478125" style="stroke: #000000; stroke-width: 0.8"/>
      </g>
     </g>
     <g id="text_7">
      <!-- 111 -->
      <g transform="translate(372.163281 328.076563) scale(0.1 -0.1)">
       <use xlink:href="#DejaVuSans-31"/>
       <use xlink:href="#DejaVuSans-31" transform="translate(63.623047 0)"/>
       <use xlink:href="#DejaVuSans-31" transform="translate(127.246094 0)"/>
      </g>
     </g>
    </g>
    <g id="xtick_8">
     <g id="line2d_8">
      <g>
       <use xlink:href="#mf57ec37d23" x="435.912095" y="313.478125" style="stroke: #000000; stroke-width: 0.8"/>
      </g>
     </g>
     <g id="text_8">
      <!-- 130 -->
      <g transform="translate(426.368345 328.076563) scale(0.1 -0.1)">
       <use xlink:href="#DejaVuSans-31"/>
       <use xlink:href="#DejaVuSans-33" transform="translate(63.623047 0)"/>
       <use xlink:href="#DejaVuSans-30" transform="translate(127.246094 0)"/>
      </g>
     </g>
    </g>
    <g id="xtick_9">
     <g id="line2d_9">
      <g>
       <use xlink:href="#mf57ec37d23" x="490.117159" y="313.478125" style="stroke: #000000; stroke-width: 0.8"/>
      </g>
     </g>
     <g id="text_9">
      <!-- 149 -->
      <g transform="translate(480.573409 328.076563) scale(0.1 -0.1)">
       <use xlink:href="#DejaVuSans-31"/>
       <use xlink:href="#DejaVuSans-34" transform="translate(63.623047 0)"/>
       <use xlink:href="#DejaVuSans-39" transform="translate(127.246094 0)"/>
      </g>
     </g>
    </g>
    <g id="text_10">
     <!-- Spatial bin -->
     <g transform="translate(251.040313 341.754687) scale(0.1 -0.1)">
      <defs>
       <path id="DejaVuSans-53" d="M 3425 4513 
L 3425 3897 
Q 3066 4069 2747 4153 
Q 2428 4238 2131 4238 
Q 1616 4238 1336 4038 
Q 1056 3838 1056 3469 
Q 1056 3159 1242 3001 
Q 1428 2844 1947 2747 
L 2328 2669 
Q 3034 2534 3370 2195 
Q 3706 1856 3706 1288 
Q 3706 609 3251 259 
Q 2797 -91 1919 -91 
Q 1588 -91 1214 -16 
Q 841 59 441 206 
L 441 856 
Q 825 641 1194 531 
Q 1563 422 1919 422 
Q 2459 422 2753 634 
Q 3047 847 3047 1241 
Q 3047 1584 2836 1778 
Q 2625 1972 2144 2069 
L 1759 2144 
Q 1053 2284 737 2584 
Q 422 2884 422 3419 
Q 422 4038 858 4394 
Q 1294 4750 2059 4750 
Q 2388 4750 2728 4690 
Q 3069 4631 3425 4513 
z
" transform="scale(0.015625)"/>
       <path id="DejaVuSans-70" d="M 1159 525 
L 1159 -1331 
L 581 -1331 
L 581 3500 
L 1159 3500 
L 1159 2969 
Q 1341 3281 1617 3432 
Q 1894 3584 2278 3584 
Q 2916 3584 3314 3078 
Q 3713 2572 3713 1747 
Q 3713 922 3314 415 
Q 2916 -91 2278 -91 
Q 1894 -91 1617 61 
Q 1341 213 1159 525 
z
M 3116 1747 
Q 3116 2381 2855 2742 
Q 2594 3103 2138 3103 
Q 1681 3103 1420 2742 
Q 1159 2381 1159 1747 
Q 1159 1113 1420 752 
Q 1681 391 2138 391 
Q 2594 391 2855 752 
Q 3116 1113 3116 1747 
z
" transform="scale(0.015625)"/>
       <path id="DejaVuSans-61" d="M 2194 1759 
Q 1497 1759 1228 1600 
Q 959 1441 959 1056 
Q 959 750 1161 570 
Q 1363 391 1709 391 
Q 2188 391 2477 730 
Q 2766 1069 2766 1631 
L 2766 1759 
L 2194 1759 
z
M 3341 1997 
L 3341 0 
L 2766 0 
L 2766 531 
Q 2569 213 2275 61 
Q 1981 -91 1556 -91 
Q 1019 -91 701 211 
Q 384 513 384 1019 
Q 384 1609 779 1909 
Q 1175 2209 1959 2209 
L 2766 2209 
L 2766 2266 
Q 2766 2663 2505 2880 
Q 2244 3097 1772 3097 
Q 1472 3097 1187 3025 
Q 903 2953 641 2809 
L 641 3341 
Q 956 3463 1253 3523 
Q 1550 3584 1831 3584 
Q 2591 3584 2966 3190 
Q 3341 2797 3341 1997 
z
" transform="scale(0.015625)"/>
       <path id="DejaVuSans-74" d="M 1172 4494 
L 1172 3500 
L 2356 3500 
L 2356 3053 
L 1172 3053 
L 1172 1153 
Q 1172 725 1289 603 
Q 1406 481 1766 481 
L 2356 481 
L 2356 0 
L 1766 0 
Q 1100 0 847 248 
Q 594 497 594 1153 
L 594 3053 
L 172 3053 
L 172 3500 
L 594 3500 
L 594 4494 
L 1172 4494 
z
" transform="scale(0.015625)"/>
       <path id="DejaVuSans-69" d="M 603 3500 
L 1178 3500 
L 1178 0 
L 603 0 
L 603 3500 
z
M 603 4863 
L 1178 4863 
L 1178 4134 
L 603 4134 
L 603 4863 
z
" transform="scale(0.015625)"/>
       <path id="DejaVuSans-6c" d="M 603 4863 
L 1178 4863 
L 1178 0 
L 603 0 
L 603 4863 
z
" transform="scale(0.015625)"/>
       <path id="DejaVuSans-20" transform="scale(0.015625)"/>
       <path id="DejaVuSans-62" d="M 3116 1747 
Q 3116 2381 2855 2742 
Q 2594 3103 2138 3103 
Q 1681 3103 1420 2742 
Q 1159 2381 1159 1747 
Q 1159 1113 1420 752 
Q 1681 391 2138 391 
Q 2594 391 2855 752 
Q 3116 1113 3116 1747 
z
M 1159 2969 
Q 1341 3281 1617 3432 
Q 1894 3584 2278 3584 
Q 2916 3584 3314 3078 
Q 3713 2572 3713 1747 
Q 3713 922 3314 415 
Q 2916 -91 2278 -91 
Q 1894 -91 1617 61 
Q 1341 213 1159 525 
L 1159 0 
L 581 0 
L 581 4863 
L 1159 4863 
L 1159 2969 
z
" transform="scale(0.015625)"/>
       <path id="DejaVuSans-6e" d="M 3513 2113 
L 3513 0 
L 2938 0 
L 2938 2094 
Q 2938 2591 2744 2837 
Q 2550 3084 2163 3084 
Q 1697 3084 1428 2787 
Q 1159 2491 1159 1978 
L 1159 0 
L 581 0 
L 581 3500 
L 1159 3500 
L 1159 2956 
Q 1366 3272 1645 3428 
Q 1925 3584 2291 3584 
Q 2894 3584 3203 3211 
Q 3513 2838 3513 2113 
z
" transform="scale(0.015625)"/>
      </defs>
      <use xlink:href="#DejaVuSans-53"/>
      <use xlink:href="#DejaVuSans-70" transform="translate(63.476562 0)"/>
      <use xlink:href="#DejaVuSans-61" transform="translate(126.953125 0)"/>
      <use xlink:href="#DejaVuSans-74" transform="translate(188.232422 0)"/>
      <use xlink:href="#DejaVuSans-69" transform="translate(227.441406 0)"/>
      <use xlink:href="#DejaVuSans-61" transform="translate(255.224609 0)"/>
      <use xlink:href="#DejaVuSans-6c" transform="translate(316.503906 0)"/>
      <use xlink:href="#DejaVuSans-20" transform="translate(344.287109 0)"/>
      <use xlink:href="#DejaVuSans-62" transform="translate(376.074219 0)"/>
      <use xlink:href="#DejaVuSans-69" transform="translate(439.550781 0)"/>
      <use xlink:href="#DejaVuSans-6e" transform="translate(467.333984 0)"/>
     </g>
    </g>
   </g>
   <g id="matplotlib.axis_2">
    <g id="ytick_1">
     <g id="line2d_10">
      <defs>
       <path id="m6cc6b7cded" d="M 0 0 
L -3.5 0 
" style="stroke: #000000; stroke-width: 0.8"/>
      </defs>
      <g>
       <use xlink:href="#m6cc6b7cded" x="43.78125" y="287.009034" style="stroke: #000000; stroke-width: 0.8"/>
      </g>
     </g>
     <g id="text_11">
      <!-- 0.0 -->
      <g transform="translate(20.878125 290.808253) scale(0.1 -0.1)">
       <defs>
        <path id="DejaVuSans-2e" d="M 684 794 
L 1344 794 
L 1344 0 
L 684 0 
L 684 794 
z
" transform="scale(0.015625)"/>
       </defs>
       <use xlink:href="#DejaVuSans-30"/>
       <use xlink:href="#DejaVuSans-2e" transform="translate(63.623047 0)"/>
       <use xlink:href="#DejaVuSans-30" transform="translate(95.410156 0)"/>
      </g>
     </g>
    </g>
    <g id="ytick_2">
     <g id="line2d_11">
      <g>
       <use xlink:href="#m6cc6b7cded" x="43.78125" y="234.070852" style="stroke: #000000; stroke-width: 0.8"/>
      </g>
     </g>
     <g id="text_12">
      <!-- 0.2 -->
      <g transform="translate(20.878125 237.870071) scale(0.1 -0.1)">
       <defs>
        <path id="DejaVuSans-32" d="M 1228 531 
L 3431 531 
L 3431 0 
L 469 0 
L 469 531 
Q 828 903 1448 1529 
Q 2069 2156 2228 2338 
Q 2531 2678 2651 2914 
Q 2772 3150 2772 3378 
Q 2772 3750 2511 3984 
Q 2250 4219 1831 4219 
Q 1534 4219 1204 4116 
Q 875 4013 500 3803 
L 500 4441 
Q 881 4594 1212 4672 
Q 1544 4750 1819 4750 
Q 2544 4750 2975 4387 
Q 3406 4025 3406 3419 
Q 3406 3131 3298 2873 
Q 3191 2616 2906 2266 
Q 2828 2175 2409 1742 
Q 1991 1309 1228 531 
z
" transform="scale(0.015625)"/>
       </defs>
       <use xlink:href="#DejaVuSans-30"/>
       <use xlink:href="#DejaVuSans-2e" transform="translate(63.623047 0)"/>
       <use xlink:href="#DejaVuSans-32" transform="translate(95.410156 0)"/>
      </g>
     </g>
    </g>
    <g id="ytick_3">
     <g id="line2d_12">
      <g>
       <use xlink:href="#m6cc6b7cded" x="43.78125" y="181.13267" style="stroke: #000000; stroke-width: 0.8"/>
      </g>
     </g>
     <g id="text_13">
      <!-- 0.4 -->
      <g transform="translate(20.878125 184.931889) scale(0.1 -0.1)">
       <use xlink:href="#DejaVuSans-30"/>
       <use xlink:href="#DejaVuSans-2e" transform="translate(63.623047 0)"/>
       <use xlink:href="#DejaVuSans-34" transform="translate(95.410156 0)"/>
      </g>
     </g>
    </g>
    <g id="ytick_4">
     <g id="line2d_13">
      <g>
       <use xlink:href="#m6cc6b7cded" x="43.78125" y="128.194489" style="stroke: #000000; stroke-width: 0.8"/>
      </g>
     </g>
     <g id="text_14">
      <!-- 0.6 -->
      <g transform="translate(20.878125 131.993707) scale(0.1 -0.1)">
       <defs>
        <path id="DejaVuSans-36" d="M 2113 2584 
Q 1688 2584 1439 2293 
Q 1191 2003 1191 1497 
Q 1191 994 1439 701 
Q 1688 409 2113 409 
Q 2538 409 2786 701 
Q 3034 994 3034 1497 
Q 3034 2003 2786 2293 
Q 2538 2584 2113 2584 
z
M 3366 4563 
L 3366 3988 
Q 3128 4100 2886 4159 
Q 2644 4219 2406 4219 
Q 1781 4219 1451 3797 
Q 1122 3375 1075 2522 
Q 1259 2794 1537 2939 
Q 1816 3084 2150 3084 
Q 2853 3084 3261 2657 
Q 3669 2231 3669 1497 
Q 3669 778 3244 343 
Q 2819 -91 2113 -91 
Q 1303 -91 875 529 
Q 447 1150 447 2328 
Q 447 3434 972 4092 
Q 1497 4750 2381 4750 
Q 2619 4750 2861 4703 
Q 3103 4656 3366 4563 
z
" transform="scale(0.015625)"/>
       </defs>
       <use xlink:href="#DejaVuSans-30"/>
       <use xlink:href="#DejaVuSans-2e" transform="translate(63.623047 0)"/>
       <use xlink:href="#DejaVuSans-36" transform="translate(95.410156 0)"/>
      </g>
     </g>
    </g>
    <g id="ytick_5">
     <g id="line2d_14">
      <g>
       <use xlink:href="#m6cc6b7cded" x="43.78125" y="75.256307" style="stroke: #000000; stroke-width: 0.8"/>
      </g>
     </g>
     <g id="text_15">
      <!-- 0.8 -->
      <g transform="translate(20.878125 79.055526) scale(0.1 -0.1)">
       <use xlink:href="#DejaVuSans-30"/>
       <use xlink:href="#DejaVuSans-2e" transform="translate(63.623047 0)"/>
       <use xlink:href="#DejaVuSans-38" transform="translate(95.410156 0)"/>
      </g>
     </g>
    </g>
    <g id="ytick_6">
     <g id="line2d_15">
      <g>
       <use xlink:href="#m6cc6b7cded" x="43.78125" y="22.318125" style="stroke: #000000; stroke-width: 0.8"/>
      </g>
     </g>
     <g id="text_16">
      <!-- 1.0 -->
      <g transform="translate(20.878125 26.117344) scale(0.1 -0.1)">
       <use xlink:href="#DejaVuSans-31"/>
       <use xlink:href="#DejaVuSans-2e" transform="translate(63.623047 0)"/>
       <use xlink:href="#DejaVuSans-30" transform="translate(95.410156 0)"/>
      </g>
     </g>
    </g>
    <g id="text_17">
     <!-- dF/F -->
     <g transform="translate(14.798438 178.508281) rotate(-90) scale(0.1 -0.1)">
      <defs>
       <path id="DejaVuSans-64" d="M 2906 2969 
L 2906 4863 
L 3481 4863 
L 3481 0 
L 2906 0 
L 2906 525 
Q 2725 213 2448 61 
Q 2172 -91 1784 -91 
Q 1150 -91 751 415 
Q 353 922 353 1747 
Q 353 2572 751 3078 
Q 1150 3584 1784 3584 
Q 2172 3584 2448 3432 
Q 2725 3281 2906 2969 
z
M 947 1747 
Q 947 1113 1208 752 
Q 1469 391 1925 391 
Q 2381 391 2643 752 
Q 2906 1113 2906 1747 
Q 2906 2381 2643 2742 
Q 2381 3103 1925 3103 
Q 1469 3103 1208 2742 
Q 947 2381 947 1747 
z
" transform="scale(0.015625)"/>
       <path id="DejaVuSans-46" d="M 628 4666 
L 3309 4666 
L 3309 4134 
L 1259 4134 
L 1259 2759 
L 3109 2759 
L 3109 2228 
L 1259 2228 
L 1259 0 
L 628 0 
L 628 4666 
z
" transform="scale(0.015625)"/>
       <path id="DejaVuSans-2f" d="M 1625 4666 
L 2156 4666 
L 531 -594 
L 0 -594 
L 1625 4666 
z
" transform="scale(0.015625)"/>
      </defs>
      <use xlink:href="#DejaVuSans-64"/>
      <use xlink:href="#DejaVuSans-46" transform="translate(63.476562 0)"/>
      <use xlink:href="#DejaVuSans-2f" transform="translate(120.996094 0)"/>
      <use xlink:href="#DejaVuSans-46" transform="translate(154.6875 0)"/>
     </g>
    </g>
   </g>
   <g id="line2d_16">
    <path d="M 65.035341 280.635655 
L 67.888239 271.523702 
L 70.741137 270.73351 
L 76.446933 272.101625 
L 82.15273 272.784116 
L 85.005628 273.222714 
L 87.858526 273.150433 
L 90.711424 271.978679 
L 93.564322 270.088226 
L 96.41722 265.301765 
L 99.270118 263.310895 
L 102.123016 263.572702 
L 104.975914 261.240721 
L 107.828813 258.135428 
L 110.681711 256.48715 
L 113.534609 258.26695 
L 116.387507 261.140725 
L 119.240405 263.439574 
L 122.093303 263.661126 
L 124.946201 261.813288 
L 127.799099 260.961516 
L 130.651997 261.172022 
L 133.504896 262.490614 
L 136.357794 263.559298 
L 139.210692 264.884652 
L 142.06359 266.671639 
L 144.916488 265.647467 
L 147.769386 265.738366 
L 150.622284 264.667667 
L 156.32808 265.712508 
L 159.180978 266.670913 
L 162.033877 264.005078 
L 164.886775 263.209973 
L 167.739673 263.273868 
L 170.592571 263.199286 
L 173.445469 263.249952 
L 176.298367 264.533515 
L 179.151265 266.976209 
L 182.004163 270.338603 
L 184.857061 271.597 
L 187.70996 273.36286 
L 190.562858 272.847693 
L 193.415756 263.837891 
L 196.268654 253.354274 
L 199.121552 243.731972 
L 201.97445 238.957035 
L 204.827348 239.240681 
L 207.680246 240.183536 
L 210.533144 240.870425 
L 213.386043 242.261068 
L 216.238941 243.323949 
L 219.091839 246.145753 
L 221.944737 249.154183 
L 224.797635 251.743821 
L 227.650533 253.65347 
L 230.503431 255.322378 
L 233.356329 257.936022 
L 236.209227 260.133103 
L 239.062126 260.162244 
L 241.915024 260.789072 
L 244.767922 260.519917 
L 247.62082 262.410156 
L 250.473718 264.66938 
L 253.326616 263.438046 
L 256.179514 264.771829 
L 259.032412 265.722834 
L 261.88531 265.716308 
L 264.738209 265.041877 
L 267.591107 265.101042 
L 270.444005 264.614036 
L 273.296903 264.378556 
L 276.149801 265.238329 
L 281.855597 266.699574 
L 284.708495 267.170181 
L 290.414291 268.437907 
L 293.26719 269.243937 
L 296.120088 269.475902 
L 298.972986 270.617785 
L 301.825884 271.917036 
L 304.678782 271.840497 
L 307.53168 272.65886 
L 310.384578 272.506063 
L 316.090374 269.449924 
L 318.943273 269.262267 
L 321.796171 269.310962 
L 324.649069 270.179275 
L 327.501967 269.684103 
L 330.354865 269.074699 
L 336.060661 269.325587 
L 338.913559 270.606493 
L 341.766457 271.175652 
L 344.619356 270.827059 
L 347.472254 270.699323 
L 350.325152 272.037023 
L 353.17805 272.615595 
L 356.030948 272.336689 
L 358.883846 271.937506 
L 367.44254 273.293226 
L 370.295439 274.409099 
L 373.148337 274.336588 
L 376.001235 274.149474 
L 378.854133 273.668946 
L 381.707031 274.665844 
L 384.559929 274.708641 
L 387.412827 274.234963 
L 390.265725 274.798771 
L 393.118623 274.380319 
L 395.971522 274.109177 
L 401.677318 274.288378 
L 410.236012 275.216482 
L 413.08891 275.785813 
L 415.941808 276.571862 
L 418.794706 277.209895 
L 421.647604 277.113835 
L 424.500503 276.793487 
L 427.353401 276.266114 
L 430.206299 272.932769 
L 433.059197 274.552473 
L 435.912095 270.541322 
L 438.764993 270.733155 
L 441.617891 271.89476 
L 444.470789 272.882484 
L 447.323687 273.517421 
L 450.176586 273.25774 
L 453.029484 269.534345 
L 455.882382 267.850984 
L 458.73528 266.872394 
L 461.588178 265.22655 
L 464.441076 266.919255 
L 467.293974 264.425593 
L 470.146872 264.967713 
L 472.99977 266.499877 
L 475.852669 266.38578 
L 478.705567 265.503661 
L 481.558465 265.028207 
L 484.411363 264.903231 
L 487.264261 266.031706 
L 490.117159 278.121772 
L 490.117159 278.121772 
" clip-path="url(#p4c28247bf9)" style="fill: none; stroke: #ff0000; stroke-width: 3; stroke-linecap: square"/>
   </g>
   <g id="patch_3">
    <path d="M 43.78125 313.478125 
L 43.78125 22.318125 
" style="fill: none; stroke: #000000; stroke-width: 0.8; stroke-linejoin: miter; stroke-linecap: square"/>
   </g>
   <g id="patch_4">
    <path d="M 511.37125 313.478125 
L 511.37125 22.318125 
" style="fill: none; stroke: #000000; stroke-width: 0.8; stroke-linejoin: miter; stroke-linecap: square"/>
   </g>
   <g id="patch_5">
    <path d="M 43.78125 313.478125 
L 511.37125 313.478125 
" style="fill: none; stroke: #000000; stroke-width: 0.8; stroke-linejoin: miter; stroke-linecap: square"/>
   </g>
   <g id="patch_6">
    <path d="M 43.78125 22.318125 
L 511.37125 22.318125 
" style="fill: none; stroke: #000000; stroke-width: 0.8; stroke-linejoin: miter; stroke-linecap: square"/>
   </g>
   <g id="text_18">
    <!-- Corridor -0.0 -->
    <g transform="translate(239.66 16.318125) scale(0.12 -0.12)">
     <defs>
      <path id="DejaVuSans-43" d="M 4122 4306 
L 4122 3641 
Q 3803 3938 3442 4084 
Q 3081 4231 2675 4231 
Q 1875 4231 1450 3742 
Q 1025 3253 1025 2328 
Q 1025 1406 1450 917 
Q 1875 428 2675 428 
Q 3081 428 3442 575 
Q 3803 722 4122 1019 
L 4122 359 
Q 3791 134 3420 21 
Q 3050 -91 2638 -91 
Q 1578 -91 968 557 
Q 359 1206 359 2328 
Q 359 3453 968 4101 
Q 1578 4750 2638 4750 
Q 3056 4750 3426 4639 
Q 3797 4528 4122 4306 
z
" transform="scale(0.015625)"/>
      <path id="DejaVuSans-6f" d="M 1959 3097 
Q 1497 3097 1228 2736 
Q 959 2375 959 1747 
Q 959 1119 1226 758 
Q 1494 397 1959 397 
Q 2419 397 2687 759 
Q 2956 1122 2956 1747 
Q 2956 2369 2687 2733 
Q 2419 3097 1959 3097 
z
M 1959 3584 
Q 2709 3584 3137 3096 
Q 3566 2609 3566 1747 
Q 3566 888 3137 398 
Q 2709 -91 1959 -91 
Q 1206 -91 779 398 
Q 353 888 353 1747 
Q 353 2609 779 3096 
Q 1206 3584 1959 3584 
z
" transform="scale(0.015625)"/>
      <path id="DejaVuSans-72" d="M 2631 2963 
Q 2534 3019 2420 3045 
Q 2306 3072 2169 3072 
Q 1681 3072 1420 2755 
Q 1159 2438 1159 1844 
L 1159 0 
L 581 0 
L 581 3500 
L 1159 3500 
L 1159 2956 
Q 1341 3275 1631 3429 
Q 1922 3584 2338 3584 
Q 2397 3584 2469 3576 
Q 2541 3569 2628 3553 
L 2631 2963 
z
" transform="scale(0.015625)"/>
      <path id="DejaVuSans-2d" d="M 313 2009 
L 1997 2009 
L 1997 1497 
L 313 1497 
L 313 2009 
z
" transform="scale(0.015625)"/>
     </defs>
     <use xlink:href="#DejaVuSans-43"/>
     <use xlink:href="#DejaVuSans-6f" transform="translate(69.824219 0)"/>
     <use xlink:href="#DejaVuSans-72" transform="translate(131.005859 0)"/>
     <use xlink:href="#DejaVuSans-72" transform="translate(170.369141 0)"/>
     <use xlink:href="#DejaVuSans-69" transform="translate(211.482422 0)"/>
     <use xlink:href="#DejaVuSans-64" transform="translate(239.265625 0)"/>
     <use xlink:href="#DejaVuSans-6f" transform="translate(302.742188 0)"/>
     <use xlink:href="#DejaVuSans-72" transform="translate(363.923828 0)"/>
     <use xlink:href="#DejaVuSans-20" transform="translate(405.037109 0)"/>
     <use xlink:href="#DejaVuSans-2d" transform="translate(436.824219 0)"/>
     <use xlink:href="#DejaVuSans-30" transform="translate(472.908203 0)"/>
     <use xlink:href="#DejaVuSans-2e" transform="translate(536.53125 0)"/>
     <use xlink:href="#DejaVuSans-30" transform="translate(568.318359 0)"/>
    </g>
   </g>
  </g>
  <g id="axes_2">
   <g id="patch_7">
    <path d="M 525.67125 313.478125 
L 993.26125 313.478125 
L 993.26125 22.318125 
L 525.67125 22.318125 
z
" style="fill: #ffffff"/>
   </g>
   <g id="FillBetweenPolyCollection_2">
    <path d="M 546.925341 275.366471 
L 546.925341 286.131297 
L 549.778239 285.702902 
L 552.631137 285.938492 
L 555.484035 285.244018 
L 558.336933 284.354372 
L 561.189831 283.771558 
L 564.04273 283.077696 
L 566.895628 283.020078 
L 569.748526 283.401208 
L 572.601424 281.871276 
L 575.454322 280.624938 
L 578.30722 280.524996 
L 581.160118 279.598314 
L 584.013016 279.871459 
L 586.865914 279.408974 
L 589.718813 278.529342 
L 592.571711 278.717212 
L 595.424609 278.958365 
L 598.277507 279.733038 
L 601.130405 279.837788 
L 603.983303 280.173396 
L 606.836201 280.565092 
L 609.689099 281.031842 
L 612.541997 281.281109 
L 615.394896 281.175054 
L 618.247794 281.453167 
L 621.100692 281.984795 
L 623.95359 281.056194 
L 626.806488 280.471799 
L 629.659386 279.971501 
L 632.512284 279.968593 
L 635.365182 279.832493 
L 638.21808 280.310691 
L 641.070978 280.290534 
L 643.923877 281.034973 
L 646.776775 280.928521 
L 649.629673 281.372116 
L 652.482571 281.811214 
L 655.335469 279.031273 
L 658.188367 274.269233 
L 661.041265 271.826253 
L 663.894163 271.695069 
L 666.747061 273.740699 
L 669.59996 275.140413 
L 672.452858 275.94759 
L 675.305756 276.108261 
L 678.158654 276.054763 
L 681.011552 275.105521 
L 683.86445 273.257042 
L 686.717348 273.021605 
L 689.570246 273.387739 
L 692.423144 273.663174 
L 695.276043 274.327 
L 698.128941 275.184084 
L 700.981839 275.704584 
L 703.834737 276.187812 
L 706.687635 275.938869 
L 709.540533 275.152431 
L 712.393431 276.358867 
L 715.246329 276.757186 
L 718.099227 276.516081 
L 720.952126 276.985185 
L 723.805024 276.546469 
L 726.657922 276.892774 
L 729.51082 277.769057 
L 732.363718 278.338274 
L 735.216616 278.558503 
L 738.069514 279.631452 
L 740.922412 279.819494 
L 743.77531 278.747904 
L 746.628209 278.778778 
L 749.481107 280.035198 
L 752.334005 279.836191 
L 755.186903 279.881442 
L 758.039801 280.2943 
L 760.892699 280.129977 
L 763.745597 280.159954 
L 766.598495 280.202067 
L 769.451393 280.26593 
L 772.304291 280.339953 
L 775.15719 280.754181 
L 778.010088 281.208689 
L 780.862986 281.755838 
L 783.715884 281.802524 
L 786.568782 281.989052 
L 789.42168 283.100991 
L 792.274578 283.815695 
L 795.127476 282.696303 
L 797.980374 282.429058 
L 800.833273 281.912774 
L 803.686171 281.304096 
L 806.539069 281.397598 
L 809.391967 280.501775 
L 812.244865 280.211355 
L 815.097763 280.069624 
L 817.950661 279.767817 
L 820.803559 279.99763 
L 823.656457 280.7433 
L 826.509356 281.717281 
L 829.362254 281.865247 
L 832.215152 281.955004 
L 835.06805 281.331174 
L 837.920948 280.149902 
L 840.773846 281.669032 
L 843.626744 276.148135 
L 846.479642 277.495028 
L 849.33254 275.620364 
L 852.185439 275.121576 
L 855.038337 275.328572 
L 857.891235 276.121465 
L 860.744133 277.718096 
L 863.597031 278.739175 
L 866.449929 278.960881 
L 869.302827 278.95699 
L 872.155725 279.088573 
L 875.008623 279.515996 
L 877.861522 279.502692 
L 880.71442 279.526652 
L 883.567318 280.042874 
L 886.420216 279.77464 
L 889.273114 279.795951 
L 892.126012 280.371838 
L 894.97891 280.658763 
L 897.831808 279.682454 
L 900.684706 279.212828 
L 903.537604 278.552027 
L 906.390503 278.483772 
L 909.243401 278.967634 
L 912.096299 277.535057 
L 914.949197 276.875416 
L 917.802095 275.771825 
L 920.654993 276.114241 
L 923.507891 276.608256 
L 926.360789 277.417755 
L 929.213687 277.414993 
L 932.066586 276.339208 
L 934.919484 276.594868 
L 937.772382 278.51024 
L 940.62528 278.945927 
L 943.478178 279.13488 
L 946.331076 279.200379 
L 949.183974 279.603374 
L 952.036872 280.094269 
L 954.88977 280.862209 
L 957.742669 280.929032 
L 960.595567 281.679781 
L 963.448465 282.343271 
L 966.301363 282.13346 
L 969.154261 283.803142 
L 972.007159 287.663356 
L 972.007159 277.374938 
L 972.007159 277.374938 
L 969.154261 272.982842 
L 966.301363 272.304737 
L 963.448465 271.178842 
L 960.595567 272.239707 
L 957.742669 271.811296 
L 954.88977 271.466387 
L 952.036872 270.309469 
L 949.183974 268.905245 
L 946.331076 267.68355 
L 943.478178 266.511607 
L 940.62528 265.625319 
L 937.772382 264.80815 
L 934.919484 262.9981 
L 932.066586 263.270266 
L 929.213687 264.761065 
L 926.360789 263.855788 
L 923.507891 263.743433 
L 920.654993 263.887991 
L 917.802095 263.862836 
L 914.949197 264.784604 
L 912.096299 265.915057 
L 909.243401 268.14069 
L 906.390503 268.196617 
L 903.537604 266.813971 
L 900.684706 268.046488 
L 897.831808 267.825638 
L 894.97891 268.307914 
L 892.126012 267.43474 
L 889.273114 266.346248 
L 886.420216 265.797339 
L 883.567318 266.103141 
L 880.71442 265.859699 
L 877.861522 266.873546 
L 875.008623 267.178407 
L 872.155725 266.376936 
L 869.302827 266.156457 
L 866.449929 266.280349 
L 863.597031 265.845766 
L 860.744133 265.143769 
L 857.891235 264.160341 
L 855.038337 263.473938 
L 852.185439 263.110132 
L 849.33254 262.787433 
L 846.479642 262.213137 
L 843.626744 263.846183 
L 840.773846 267.467788 
L 837.920948 266.847418 
L 835.06805 267.638257 
L 832.215152 268.530778 
L 829.362254 269.064299 
L 826.509356 269.641888 
L 823.656457 269.468371 
L 820.803559 269.788421 
L 817.950661 268.599173 
L 815.097763 269.086299 
L 812.244865 268.682967 
L 809.391967 267.997195 
L 806.539069 267.438198 
L 803.686171 266.033798 
L 800.833273 265.929817 
L 797.980374 266.613566 
L 795.127476 268.218974 
L 792.274578 270.343735 
L 789.42168 271.208413 
L 786.568782 270.622283 
L 783.715884 270.574292 
L 780.862986 270.894311 
L 778.010088 270.713273 
L 775.15719 269.896696 
L 772.304291 269.362575 
L 769.451393 268.104761 
L 766.598495 267.599944 
L 763.745597 265.97884 
L 760.892699 264.283458 
L 758.039801 264.914574 
L 755.186903 264.456027 
L 752.334005 264.31741 
L 749.481107 263.968809 
L 746.628209 264.084869 
L 743.77531 263.346477 
L 740.922412 268.166924 
L 738.069514 266.782362 
L 735.216616 265.182009 
L 732.363718 264.318698 
L 729.51082 263.699899 
L 726.657922 262.427006 
L 723.805024 261.742538 
L 720.952126 262.24343 
L 718.099227 261.773685 
L 715.246329 261.761892 
L 712.393431 260.957583 
L 709.540533 259.404496 
L 706.687635 258.540725 
L 703.834737 256.381846 
L 700.981839 254.654337 
L 698.128941 253.395407 
L 695.276043 252.253229 
L 692.423144 250.791255 
L 689.570246 248.445301 
L 686.717348 244.677475 
L 683.86445 241.347444 
L 681.011552 242.110252 
L 678.158654 242.155328 
L 675.305756 239.118934 
L 672.452858 234.743158 
L 669.59996 229.842181 
L 666.747061 228.254791 
L 663.894163 220.782292 
L 661.041265 218.720709 
L 658.188367 219.085987 
L 655.335469 229.378248 
L 652.482571 256.764098 
L 649.629673 267.691808 
L 646.776775 270.848439 
L 643.923877 273.38927 
L 641.070978 271.945697 
L 638.21808 271.590839 
L 635.365182 272.116672 
L 632.512284 272.787385 
L 629.659386 272.563026 
L 626.806488 271.506335 
L 623.95359 270.760833 
L 621.100692 270.862922 
L 618.247794 270.094261 
L 615.394896 270.118816 
L 612.541997 270.402537 
L 609.689099 271.871884 
L 606.836201 272.801577 
L 603.983303 272.734854 
L 601.130405 271.565994 
L 598.277507 271.196087 
L 595.424609 270.810397 
L 592.571711 270.48035 
L 589.718813 270.378478 
L 586.865914 271.975513 
L 584.013016 271.832178 
L 581.160118 271.613842 
L 578.30722 271.905395 
L 575.454322 271.482304 
L 572.601424 272.330099 
L 569.748526 273.110912 
L 566.895628 273.241756 
L 564.04273 272.290008 
L 561.189831 271.752405 
L 558.336933 271.182538 
L 555.484035 271.989947 
L 552.631137 273.535002 
L 549.778239 272.390444 
L 546.925341 275.366471 
z
" clip-path="url(#p67f89e7440)" style="fill: #1f77b4; fill-opacity: 0.3"/>
   </g>
   <g id="matplotlib.axis_3">
    <g id="xtick_10">
     <g id="line2d_17">
      <g>
       <use xlink:href="#mf57ec37d23" x="546.925341" y="313.478125" style="stroke: #000000; stroke-width: 0.8"/>
      </g>
     </g>
     <g id="text_19">
      <!-- 0 -->
      <g transform="translate(543.744091 328.076563) scale(0.1 -0.1)">
       <use xlink:href="#DejaVuSans-30"/>
      </g>
     </g>
    </g>
    <g id="xtick_11">
     <g id="line2d_18">
      <g>
       <use xlink:href="#mf57ec37d23" x="598.277507" y="313.478125" style="stroke: #000000; stroke-width: 0.8"/>
      </g>
     </g>
     <g id="text_20">
      <!-- 18 -->
      <g transform="translate(591.915007 328.076563) scale(0.1 -0.1)">
       <use xlink:href="#DejaVuSans-31"/>
       <use xlink:href="#DejaVuSans-38" transform="translate(63.623047 0)"/>
      </g>
     </g>
    </g>
    <g id="xtick_12">
     <g id="line2d_19">
      <g>
       <use xlink:href="#mf57ec37d23" x="652.482571" y="313.478125" style="stroke: #000000; stroke-width: 0.8"/>
      </g>
     </g>
     <g id="text_21">
      <!-- 37 -->
      <g transform="translate(646.120071 328.076563) scale(0.1 -0.1)">
       <use xlink:href="#DejaVuSans-33"/>
       <use xlink:href="#DejaVuSans-37" transform="translate(63.623047 0)"/>
      </g>
     </g>
    </g>
    <g id="xtick_13">
     <g id="line2d_20">
      <g>
       <use xlink:href="#mf57ec37d23" x="703.834737" y="313.478125" style="stroke: #000000; stroke-width: 0.8"/>
      </g>
     </g>
     <g id="text_22">
      <!-- 55 -->
      <g transform="translate(697.472237 328.076563) scale(0.1 -0.1)">
       <use xlink:href="#DejaVuSans-35"/>
       <use xlink:href="#DejaVuSans-35" transform="translate(63.623047 0)"/>
      </g>
     </g>
    </g>
    <g id="xtick_14">
     <g id="line2d_21">
      <g>
       <use xlink:href="#mf57ec37d23" x="758.039801" y="313.478125" style="stroke: #000000; stroke-width: 0.8"/>
      </g>
     </g>
     <g id="text_23">
      <!-- 74 -->
      <g transform="translate(751.677301 328.076563) scale(0.1 -0.1)">
       <use xlink:href="#DejaVuSans-37"/>
       <use xlink:href="#DejaVuSans-34" transform="translate(63.623047 0)"/>
      </g>
     </g>
    </g>
    <g id="xtick_15">
     <g id="line2d_22">
      <g>
       <use xlink:href="#mf57ec37d23" x="812.244865" y="313.478125" style="stroke: #000000; stroke-width: 0.8"/>
      </g>
     </g>
     <g id="text_24">
      <!-- 93 -->
      <g transform="translate(805.882365 328.076563) scale(0.1 -0.1)">
       <use xlink:href="#DejaVuSans-39"/>
       <use xlink:href="#DejaVuSans-33" transform="translate(63.623047 0)"/>
      </g>
     </g>
    </g>
    <g id="xtick_16">
     <g id="line2d_23">
      <g>
       <use xlink:href="#mf57ec37d23" x="863.597031" y="313.478125" style="stroke: #000000; stroke-width: 0.8"/>
      </g>
     </g>
     <g id="text_25">
      <!-- 111 -->
      <g transform="translate(854.053281 328.076563) scale(0.1 -0.1)">
       <use xlink:href="#DejaVuSans-31"/>
       <use xlink:href="#DejaVuSans-31" transform="translate(63.623047 0)"/>
       <use xlink:href="#DejaVuSans-31" transform="translate(127.246094 0)"/>
      </g>
     </g>
    </g>
    <g id="xtick_17">
     <g id="line2d_24">
      <g>
       <use xlink:href="#mf57ec37d23" x="917.802095" y="313.478125" style="stroke: #000000; stroke-width: 0.8"/>
      </g>
     </g>
     <g id="text_26">
      <!-- 130 -->
      <g transform="translate(908.258345 328.076563) scale(0.1 -0.1)">
       <use xlink:href="#DejaVuSans-31"/>
       <use xlink:href="#DejaVuSans-33" transform="translate(63.623047 0)"/>
       <use xlink:href="#DejaVuSans-30" transform="translate(127.246094 0)"/>
      </g>
     </g>
    </g>
    <g id="xtick_18">
     <g id="line2d_25">
      <g>
       <use xlink:href="#mf57ec37d23" x="972.007159" y="313.478125" style="stroke: #000000; stroke-width: 0.8"/>
      </g>
     </g>
     <g id="text_27">
      <!-- 149 -->
      <g transform="translate(962.463409 328.076563) scale(0.1 -0.1)">
       <use xlink:href="#DejaVuSans-31"/>
       <use xlink:href="#DejaVuSans-34" transform="translate(63.623047 0)"/>
       <use xlink:href="#DejaVuSans-39" transform="translate(127.246094 0)"/>
      </g>
     </g>
    </g>
    <g id="text_28">
     <!-- Spatial bin -->
     <g transform="translate(732.930312 341.754687) scale(0.1 -0.1)">
      <use xlink:href="#DejaVuSans-53"/>
      <use xlink:href="#DejaVuSans-70" transform="translate(63.476562 0)"/>
      <use xlink:href="#DejaVuSans-61" transform="translate(126.953125 0)"/>
      <use xlink:href="#DejaVuSans-74" transform="translate(188.232422 0)"/>
      <use xlink:href="#DejaVuSans-69" transform="translate(227.441406 0)"/>
      <use xlink:href="#DejaVuSans-61" transform="translate(255.224609 0)"/>
      <use xlink:href="#DejaVuSans-6c" transform="translate(316.503906 0)"/>
      <use xlink:href="#DejaVuSans-20" transform="translate(344.287109 0)"/>
      <use xlink:href="#DejaVuSans-62" transform="translate(376.074219 0)"/>
      <use xlink:href="#DejaVuSans-69" transform="translate(439.550781 0)"/>
      <use xlink:href="#DejaVuSans-6e" transform="translate(467.333984 0)"/>
     </g>
    </g>
   </g>
   <g id="matplotlib.axis_4">
    <g id="ytick_7">
     <g id="line2d_26">
      <g>
       <use xlink:href="#m6cc6b7cded" x="525.67125" y="287.009034" style="stroke: #000000; stroke-width: 0.8"/>
      </g>
     </g>
    </g>
    <g id="ytick_8">
     <g id="line2d_27">
      <g>
       <use xlink:href="#m6cc6b7cded" x="525.67125" y="234.070852" style="stroke: #000000; stroke-width: 0.8"/>
      </g>
     </g>
    </g>
    <g id="ytick_9">
     <g id="line2d_28">
      <g>
       <use xlink:href="#m6cc6b7cded" x="525.67125" y="181.13267" style="stroke: #000000; stroke-width: 0.8"/>
      </g>
     </g>
    </g>
    <g id="ytick_10">
     <g id="line2d_29">
      <g>
       <use xlink:href="#m6cc6b7cded" x="525.67125" y="128.194489" style="stroke: #000000; stroke-width: 0.8"/>
      </g>
     </g>
    </g>
    <g id="ytick_11">
     <g id="line2d_30">
      <g>
       <use xlink:href="#m6cc6b7cded" x="525.67125" y="75.256307" style="stroke: #000000; stroke-width: 0.8"/>
      </g>
     </g>
    </g>
    <g id="ytick_12">
     <g id="line2d_31">
      <g>
       <use xlink:href="#m6cc6b7cded" x="525.67125" y="22.318125" style="stroke: #000000; stroke-width: 0.8"/>
      </g>
     </g>
    </g>
   </g>
   <g id="line2d_32">
    <path d="M 546.925341 280.748884 
L 549.778239 279.046673 
L 552.631137 279.736747 
L 555.484035 278.616983 
L 558.336933 277.768455 
L 564.04273 277.683852 
L 566.895628 278.130917 
L 569.748526 278.25606 
L 575.454322 276.053621 
L 578.30722 276.215195 
L 581.160118 275.606078 
L 584.013016 275.851818 
L 586.865914 275.692244 
L 589.718813 274.45391 
L 592.571711 274.598781 
L 595.424609 274.884381 
L 598.277507 275.464563 
L 601.130405 275.701891 
L 603.983303 276.454125 
L 606.836201 276.683334 
L 609.689099 276.451863 
L 612.541997 275.841823 
L 615.394896 275.646935 
L 618.247794 275.773714 
L 621.100692 276.423859 
L 623.95359 275.908514 
L 626.806488 275.989067 
L 629.659386 276.267263 
L 632.512284 276.377989 
L 635.365182 275.974582 
L 638.21808 275.950765 
L 641.070978 276.118115 
L 643.923877 277.212122 
L 649.629673 274.531962 
L 652.482571 269.287656 
L 655.335469 254.20476 
L 658.188367 246.67761 
L 661.041265 245.273481 
L 663.894163 246.238681 
L 666.747061 250.997745 
L 669.59996 252.491297 
L 672.452858 255.345374 
L 675.305756 257.613598 
L 678.158654 259.105045 
L 681.011552 258.607887 
L 683.86445 257.302243 
L 686.717348 258.84954 
L 689.570246 260.91652 
L 692.423144 262.227214 
L 698.128941 264.289746 
L 700.981839 265.17946 
L 703.834737 266.284829 
L 706.687635 267.239797 
L 709.540533 267.278464 
L 712.393431 268.658225 
L 715.246329 269.259539 
L 718.099227 269.144883 
L 720.952126 269.614307 
L 723.805024 269.144504 
L 726.657922 269.65989 
L 729.51082 270.734478 
L 735.216616 271.870256 
L 738.069514 273.206907 
L 740.922412 273.993209 
L 743.77531 271.04719 
L 746.628209 271.431823 
L 749.481107 272.002004 
L 755.186903 272.168735 
L 758.039801 272.604437 
L 760.892699 272.206717 
L 766.598495 273.901006 
L 769.451393 274.185346 
L 772.304291 274.851264 
L 775.15719 275.325439 
L 778.010088 275.960981 
L 780.862986 276.325075 
L 783.715884 276.188408 
L 786.568782 276.305667 
L 789.42168 277.154702 
L 792.274578 277.079715 
L 795.127476 275.457639 
L 797.980374 274.521312 
L 800.833273 273.921295 
L 803.686171 273.668947 
L 806.539069 274.417898 
L 809.391967 274.249485 
L 815.097763 274.577962 
L 817.950661 274.183495 
L 820.803559 274.893025 
L 823.656457 275.105836 
L 826.509356 275.679584 
L 832.215152 275.242891 
L 835.06805 274.484716 
L 837.920948 273.49866 
L 840.773846 274.56841 
L 843.626744 269.997159 
L 846.479642 269.854082 
L 849.33254 269.203899 
L 852.185439 269.115854 
L 855.038337 269.401255 
L 857.891235 270.140903 
L 860.744133 271.430932 
L 863.597031 272.29247 
L 866.449929 272.620615 
L 869.302827 272.556723 
L 872.155725 272.732754 
L 875.008623 273.347202 
L 877.861522 273.188119 
L 880.71442 272.693176 
L 883.567318 273.073007 
L 886.420216 272.78599 
L 889.273114 273.0711 
L 892.126012 273.903289 
L 894.97891 274.483338 
L 897.831808 273.754046 
L 900.684706 273.629658 
L 903.537604 272.682999 
L 906.390503 273.340195 
L 909.243401 273.554162 
L 912.096299 271.725057 
L 914.949197 270.83001 
L 917.802095 269.817331 
L 923.507891 270.175844 
L 929.213687 271.088029 
L 932.066586 269.804737 
L 934.919484 269.796484 
L 937.772382 271.659195 
L 949.183974 274.25431 
L 954.88977 276.164298 
L 957.742669 276.370164 
L 960.595567 276.959744 
L 963.448465 276.761057 
L 966.301363 277.219099 
L 969.154261 278.392992 
L 972.007159 282.519147 
L 972.007159 282.519147 
" clip-path="url(#p67f89e7440)" style="fill: none; stroke: #ff0000; stroke-width: 3; stroke-linecap: square"/>
   </g>
   <g id="patch_8">
    <path d="M 525.67125 313.478125 
L 525.67125 22.318125 
" style="fill: none; stroke: #000000; stroke-width: 0.8; stroke-linejoin: miter; stroke-linecap: square"/>
   </g>
   <g id="patch_9">
    <path d="M 993.26125 313.478125 
L 993.26125 22.318125 
" style="fill: none; stroke: #000000; stroke-width: 0.8; stroke-linejoin: miter; stroke-linecap: square"/>
   </g>
   <g id="patch_10">
    <path d="M 525.67125 313.478125 
L 993.26125 313.478125 
" style="fill: none; stroke: #000000; stroke-width: 0.8; stroke-linejoin: miter; stroke-linecap: square"/>
   </g>
   <g id="patch_11">
    <path d="M 525.67125 22.318125 
L 993.26125 22.318125 
" style="fill: none; stroke: #000000; stroke-width: 0.8; stroke-linejoin: miter; stroke-linecap: square"/>
   </g>
   <g id="text_29">
    <!-- Corridor 50.5 -->
    <g transform="translate(719.897187 16.318125) scale(0.12 -0.12)">
     <use xlink:href="#DejaVuSans-43"/>
     <use xlink:href="#DejaVuSans-6f" transform="translate(69.824219 0)"/>
     <use xlink:href="#DejaVuSans-72" transform="translate(131.005859 0)"/>
     <use xlink:href="#DejaVuSans-72" transform="translate(170.369141 0)"/>
     <use xlink:href="#DejaVuSans-69" transform="translate(211.482422 0)"/>
     <use xlink:href="#DejaVuSans-64" transform="translate(239.265625 0)"/>
     <use xlink:href="#DejaVuSans-6f" transform="translate(302.742188 0)"/>
     <use xlink:href="#DejaVuSans-72" transform="translate(363.923828 0)"/>
     <use xlink:href="#DejaVuSans-20" transform="translate(405.037109 0)"/>
     <use xlink:href="#DejaVuSans-35" transform="translate(436.824219 0)"/>
     <use xlink:href="#DejaVuSans-30" transform="translate(500.447266 0)"/>
     <use xlink:href="#DejaVuSans-2e" transform="translate(564.070312 0)"/>
     <use xlink:href="#DejaVuSans-35" transform="translate(595.857422 0)"/>
    </g>
   </g>
  </g>
 </g>
 <defs>
  <clipPath id="p4c28247bf9">
   <rect x="43.78125" y="22.318125" width="467.59" height="291.16"/>
  </clipPath>
  <clipPath id="p67f89e7440">
   <rect x="525.67125" y="22.318125" width="467.59" height="291.16"/>
  </clipPath>
 </defs>
</svg>
