<?xml version="1.0" encoding="utf-8" standalone="no"?>
<!DOCTYPE svg PUBLIC "-//W3C//DTD SVG 1.1//EN"
  "http://www.w3.org/Graphics/SVG/1.1/DTD/svg11.dtd">
<svg xmlns:xlink="http://www.w3.org/1999/xlink" width="1000.46125pt" height="351.034375pt" viewBox="0 0 1000.46125 351.034375" xmlns="http://www.w3.org/2000/svg" version="1.1">
 <metadata>
  <rdf:RDF xmlns:dc="http://purl.org/dc/elements/1.1/" xmlns:cc="http://creativecommons.org/ns#" xmlns:rdf="http://www.w3.org/1999/02/22-rdf-syntax-ns#">
   <cc:Work>
    <dc:type rdf:resource="http://purl.org/dc/dcmitype/StillImage"/>
    <dc:date>2025-10-10T12:40:12.319040</dc:date>
    <dc:format>image/svg+xml</dc:format>
    <dc:creator>
     <cc:Agent>
      <dc:title>Matplotlib v3.10.0, https://matplotlib.org/</dc:title>
     </cc:Agent>
    </dc:creator>
   </cc:Work>
  </rdf:RDF>
 </metadata>
 <defs>
  <style type="text/css">*{stroke-linejoin: round; stroke-linecap: butt}</style>
 </defs>
 <g id="figure_1">
  <g id="patch_1">
   <path d="M 0 351.034375 
L 1000.46125 351.034375 
L 1000.46125 0 
L 0 0 
z
" style="fill: #ffffff"/>
  </g>
  <g id="axes_1">
   <g id="patch_2">
    <path d="M 43.78125 313.478125 
L 511.37125 313.478125 
L 511.37125 22.318125 
L 43.78125 22.318125 
z
" style="fill: #ffffff"/>
   </g>
   <g id="FillBetweenPolyCollection_1">
    <path d="M 65.035341 280.193072 
L 65.035341 291.158278 
L 67.888239 291.592237 
L 70.741137 291.109244 
L 73.594035 288.78043 
L 76.446933 287.517748 
L 79.299831 284.908716 
L 82.15273 284.787512 
L 85.005628 285.071632 
L 87.858526 284.473133 
L 90.711424 283.730841 
L 93.564322 281.991476 
L 96.41722 280.767252 
L 99.270118 279.834349 
L 102.123016 277.90529 
L 104.975914 279.361492 
L 107.828813 279.537053 
L 110.681711 279.015049 
L 113.534609 280.114064 
L 116.387507 281.801037 
L 119.240405 281.872226 
L 122.093303 281.229803 
L 124.946201 280.013722 
L 127.799099 278.701265 
L 130.651997 277.238057 
L 133.504896 276.713645 
L 136.357794 275.983055 
L 139.210692 276.274764 
L 142.06359 277.407991 
L 144.916488 276.016762 
L 147.769386 275.990048 
L 150.622284 276.06243 
L 153.475182 275.212681 
L 156.32808 273.211142 
L 159.180978 273.137587 
L 162.033877 273.999959 
L 164.886775 274.170455 
L 167.739673 274.064877 
L 170.592571 274.00342 
L 173.445469 274.049374 
L 176.298367 273.914968 
L 179.151265 274.681085 
L 182.004163 276.672332 
L 184.857061 279.05349 
L 187.70996 280.832884 
L 190.562858 281.342116 
L 193.415756 280.829927 
L 196.268654 280.190338 
L 199.121552 278.909008 
L 201.97445 278.080162 
L 204.827348 276.105231 
L 207.680246 276.417326 
L 210.533144 277.215225 
L 213.386043 276.474242 
L 216.238941 276.193975 
L 219.091839 273.409065 
L 221.944737 271.389996 
L 224.797635 274.230836 
L 227.650533 277.399591 
L 230.503431 279.49821 
L 233.356329 281.351548 
L 236.209227 279.865381 
L 239.062126 279.624042 
L 241.915024 278.702703 
L 244.767922 278.292128 
L 247.62082 278.594793 
L 250.473718 278.769015 
L 253.326616 277.557609 
L 256.179514 279.087182 
L 259.032412 279.259574 
L 261.88531 278.86979 
L 264.738209 277.413557 
L 267.591107 276.044812 
L 270.444005 275.78471 
L 273.296903 275.397884 
L 276.149801 275.520041 
L 279.002699 275.611356 
L 281.855597 275.801203 
L 284.708495 276.452948 
L 287.561393 277.688256 
L 290.414291 277.709906 
L 293.26719 280.385995 
L 296.120088 279.785566 
L 298.972986 279.17785 
L 301.825884 279.672794 
L 304.678782 279.730913 
L 307.53168 278.825488 
L 310.384578 279.074247 
L 313.237476 280.708482 
L 316.090374 279.436876 
L 318.943273 281.780404 
L 321.796171 282.366573 
L 324.649069 282.361304 
L 327.501967 282.482997 
L 330.354865 282.785178 
L 333.207763 283.339303 
L 336.060661 283.681899 
L 338.913559 283.580436 
L 341.766457 283.003185 
L 344.619356 281.784766 
L 347.472254 281.184876 
L 350.325152 281.447079 
L 353.17805 281.4546 
L 356.030948 281.808658 
L 358.883846 283.209272 
L 361.736744 284.642908 
L 364.589642 285.916216 
L 367.44254 287.390009 
L 370.295439 288.024833 
L 373.148337 286.82855 
L 376.001235 285.210465 
L 378.854133 284.825422 
L 381.707031 284.950888 
L 384.559929 282.959538 
L 387.412827 278.896547 
L 390.265725 270.184321 
L 393.118623 259.281085 
L 395.971522 249.447099 
L 398.82442 241.411434 
L 401.677318 236.851784 
L 404.530216 235.371228 
L 407.383114 235.833797 
L 410.236012 239.037227 
L 413.08891 253.962429 
L 415.941808 255.17258 
L 418.794706 262.270499 
L 421.647604 259.964392 
L 424.500503 268.264614 
L 427.353401 273.264267 
L 430.206299 274.943732 
L 433.059197 274.342343 
L 435.912095 269.733329 
L 438.764993 269.765069 
L 441.617891 271.226359 
L 444.470789 273.888849 
L 447.323687 275.892859 
L 450.176586 277.275695 
L 453.029484 277.131046 
L 455.882382 277.21289 
L 458.73528 278.184029 
L 461.588178 279.751026 
L 464.441076 278.953734 
L 467.293974 278.511581 
L 470.146872 279.308139 
L 472.99977 279.971916 
L 475.852669 279.654641 
L 478.705567 278.53201 
L 481.558465 277.454355 
L 484.411363 276.396564 
L 487.264261 276.228251 
L 490.117159 290.67637 
L 490.117159 271.374927 
L 490.117159 271.374927 
L 487.264261 261.930682 
L 484.411363 260.599073 
L 481.558465 260.368799 
L 478.705567 259.983706 
L 475.852669 259.358398 
L 472.99977 258.306757 
L 470.146872 257.063868 
L 467.293974 255.793341 
L 464.441076 255.249284 
L 461.588178 252.211811 
L 458.73528 249.4907 
L 455.882382 248.663665 
L 453.029484 246.305892 
L 450.176586 241.978953 
L 447.323687 237.298606 
L 444.470789 233.331884 
L 441.617891 233.374993 
L 438.764993 230.302047 
L 435.912095 224.150873 
L 433.059197 218.340104 
L 430.206299 200.410183 
L 427.353401 188.352791 
L 424.500503 181.842488 
L 421.647604 145.213405 
L 418.794706 141.693885 
L 415.941808 132.955094 
L 413.08891 139.716433 
L 410.236012 146.098698 
L 407.383114 128.457691 
L 404.530216 130.676177 
L 401.677318 136.483067 
L 398.82442 146.190115 
L 395.971522 160.665419 
L 393.118623 180.40362 
L 390.265725 202.016563 
L 387.412827 221.768022 
L 384.559929 238.860441 
L 381.707031 255.3578 
L 378.854133 267.214752 
L 376.001235 274.452106 
L 373.148337 278.062386 
L 370.295439 278.792282 
L 367.44254 278.400546 
L 364.589642 276.797369 
L 361.736744 275.362466 
L 358.883846 274.249409 
L 356.030948 273.508947 
L 353.17805 272.729327 
L 350.325152 273.761589 
L 347.472254 273.778076 
L 344.619356 274.504602 
L 341.766457 274.558021 
L 338.913559 274.657619 
L 336.060661 274.033169 
L 333.207763 273.431423 
L 330.354865 271.794029 
L 327.501967 269.545275 
L 324.649069 267.498768 
L 321.796171 264.648437 
L 318.943273 263.853646 
L 316.090374 264.381167 
L 313.237476 267.813743 
L 310.384578 269.692922 
L 307.53168 270.351488 
L 304.678782 270.683437 
L 301.825884 269.551077 
L 298.972986 269.814817 
L 296.120088 270.235893 
L 293.26719 270.812611 
L 290.414291 268.64769 
L 287.561393 268.149059 
L 284.708495 266.986882 
L 281.855597 265.988449 
L 279.002699 266.338622 
L 276.149801 266.560754 
L 273.296903 266.788599 
L 270.444005 267.227124 
L 267.591107 266.422356 
L 264.738209 265.099766 
L 261.88531 265.495986 
L 259.032412 265.109741 
L 256.179514 265.573015 
L 253.326616 262.269617 
L 250.473718 256.336441 
L 247.62082 251.824127 
L 244.767922 246.518458 
L 241.915024 239.112269 
L 239.062126 234.451557 
L 236.209227 230.551569 
L 233.356329 229.889609 
L 230.503431 229.51953 
L 227.650533 231.372731 
L 224.797635 235.347798 
L 221.944737 241.363953 
L 219.091839 247.227598 
L 216.238941 249.539197 
L 213.386043 255.94369 
L 210.533144 259.401938 
L 207.680246 259.118943 
L 204.827348 260.786523 
L 201.97445 257.925128 
L 199.121552 259.686762 
L 196.268654 263.205591 
L 193.415756 266.76357 
L 190.562858 269.097682 
L 187.70996 267.104851 
L 184.857061 264.568457 
L 182.004163 262.966462 
L 179.151265 261.264608 
L 176.298367 260.993705 
L 173.445469 261.219115 
L 170.592571 261.257551 
L 167.739673 261.657912 
L 164.886775 262.027853 
L 162.033877 262.145087 
L 159.180978 262.015889 
L 156.32808 262.233024 
L 153.475182 264.329298 
L 150.622284 264.94715 
L 147.769386 265.821669 
L 144.916488 264.757387 
L 142.06359 266.849924 
L 139.210692 266.615611 
L 136.357794 266.997338 
L 133.504896 267.354155 
L 130.651997 266.613173 
L 127.799099 267.554234 
L 124.946201 269.053693 
L 122.093303 270.331368 
L 119.240405 271.169548 
L 116.387507 271.281928 
L 113.534609 269.884808 
L 110.681711 272.782427 
L 107.828813 274.253075 
L 104.975914 274.462872 
L 102.123016 272.570413 
L 99.270118 273.170911 
L 96.41722 274.351027 
L 93.564322 274.098337 
L 90.711424 272.931113 
L 87.858526 273.185809 
L 85.005628 274.386298 
L 82.15273 274.429993 
L 79.299831 274.029659 
L 76.446933 275.821102 
L 73.594035 277.17438 
L 70.741137 278.067056 
L 67.888239 277.53185 
L 65.035341 280.193072 
z
" clip-path="url(#p0103b7c3f5)" style="fill: #1f77b4; fill-opacity: 0.3"/>
   </g>
   <g id="matplotlib.axis_1">
    <g id="xtick_1">
     <g id="line2d_1">
      <defs>
       <path id="m3668d75336" d="M 0 0 
L 0 3.5 
" style="stroke: #000000; stroke-width: 0.8"/>
      </defs>
      <g>
       <use xlink:href="#m3668d75336" x="65.035341" y="313.478125" style="stroke: #000000; stroke-width: 0.8"/>
      </g>
     </g>
     <g id="text_1">
      <!-- 0 -->
      <g transform="translate(61.854091 328.076563) scale(0.1 -0.1)">
       <defs>
        <path id="DejaVuSans-30" d="M 2034 4250 
Q 1547 4250 1301 3770 
Q 1056 3291 1056 2328 
Q 1056 1369 1301 889 
Q 1547 409 2034 409 
Q 2525 409 2770 889 
Q 3016 1369 3016 2328 
Q 3016 3291 2770 3770 
Q 2525 4250 2034 4250 
z
M 2034 4750 
Q 2819 4750 3233 4129 
Q 3647 3509 3647 2328 
Q 3647 1150 3233 529 
Q 2819 -91 2034 -91 
Q 1250 -91 836 529 
Q 422 1150 422 2328 
Q 422 3509 836 4129 
Q 1250 4750 2034 4750 
z
" transform="scale(0.015625)"/>
       </defs>
       <use xlink:href="#DejaVuSans-30"/>
      </g>
     </g>
    </g>
    <g id="xtick_2">
     <g id="line2d_2">
      <g>
       <use xlink:href="#m3668d75336" x="116.387507" y="313.478125" style="stroke: #000000; stroke-width: 0.8"/>
      </g>
     </g>
     <g id="text_2">
      <!-- 18 -->
      <g transform="translate(110.025007 328.076563) scale(0.1 -0.1)">
       <defs>
        <path id="DejaVuSans-31" d="M 794 531 
L 1825 531 
L 1825 4091 
L 703 3866 
L 703 4441 
L 1819 4666 
L 2450 4666 
L 2450 531 
L 3481 531 
L 3481 0 
L 794 0 
L 794 531 
z
" transform="scale(0.015625)"/>
        <path id="DejaVuSans-38" d="M 2034 2216 
Q 1584 2216 1326 1975 
Q 1069 1734 1069 1313 
Q 1069 891 1326 650 
Q 1584 409 2034 409 
Q 2484 409 2743 651 
Q 3003 894 3003 1313 
Q 3003 1734 2745 1975 
Q 2488 2216 2034 2216 
z
M 1403 2484 
Q 997 2584 770 2862 
Q 544 3141 544 3541 
Q 544 4100 942 4425 
Q 1341 4750 2034 4750 
Q 2731 4750 3128 4425 
Q 3525 4100 3525 3541 
Q 3525 3141 3298 2862 
Q 3072 2584 2669 2484 
Q 3125 2378 3379 2068 
Q 3634 1759 3634 1313 
Q 3634 634 3220 271 
Q 2806 -91 2034 -91 
Q 1263 -91 848 271 
Q 434 634 434 1313 
Q 434 1759 690 2068 
Q 947 2378 1403 2484 
z
M 1172 3481 
Q 1172 3119 1398 2916 
Q 1625 2713 2034 2713 
Q 2441 2713 2670 2916 
Q 2900 3119 2900 3481 
Q 2900 3844 2670 4047 
Q 2441 4250 2034 4250 
Q 1625 4250 1398 4047 
Q 1172 3844 1172 3481 
z
" transform="scale(0.015625)"/>
       </defs>
       <use xlink:href="#DejaVuSans-31"/>
       <use xlink:href="#DejaVuSans-38" transform="translate(63.623047 0)"/>
      </g>
     </g>
    </g>
    <g id="xtick_3">
     <g id="line2d_3">
      <g>
       <use xlink:href="#m3668d75336" x="170.592571" y="313.478125" style="stroke: #000000; stroke-width: 0.8"/>
      </g>
     </g>
     <g id="text_3">
      <!-- 37 -->
      <g transform="translate(164.230071 328.076563) scale(0.1 -0.1)">
       <defs>
        <path id="DejaVuSans-33" d="M 2597 2516 
Q 3050 2419 3304 2112 
Q 3559 1806 3559 1356 
Q 3559 666 3084 287 
Q 2609 -91 1734 -91 
Q 1441 -91 1130 -33 
Q 819 25 488 141 
L 488 750 
Q 750 597 1062 519 
Q 1375 441 1716 441 
Q 2309 441 2620 675 
Q 2931 909 2931 1356 
Q 2931 1769 2642 2001 
Q 2353 2234 1838 2234 
L 1294 2234 
L 1294 2753 
L 1863 2753 
Q 2328 2753 2575 2939 
Q 2822 3125 2822 3475 
Q 2822 3834 2567 4026 
Q 2313 4219 1838 4219 
Q 1578 4219 1281 4162 
Q 984 4106 628 3988 
L 628 4550 
Q 988 4650 1302 4700 
Q 1616 4750 1894 4750 
Q 2613 4750 3031 4423 
Q 3450 4097 3450 3541 
Q 3450 3153 3228 2886 
Q 3006 2619 2597 2516 
z
" transform="scale(0.015625)"/>
        <path id="DejaVuSans-37" d="M 525 4666 
L 3525 4666 
L 3525 4397 
L 1831 0 
L 1172 0 
L 2766 4134 
L 525 4134 
L 525 4666 
z
" transform="scale(0.015625)"/>
       </defs>
       <use xlink:href="#DejaVuSans-33"/>
       <use xlink:href="#DejaVuSans-37" transform="translate(63.623047 0)"/>
      </g>
     </g>
    </g>
    <g id="xtick_4">
     <g id="line2d_4">
      <g>
       <use xlink:href="#m3668d75336" x="221.944737" y="313.478125" style="stroke: #000000; stroke-width: 0.8"/>
      </g>
     </g>
     <g id="text_4">
      <!-- 55 -->
      <g transform="translate(215.582237 328.076563) scale(0.1 -0.1)">
       <defs>
        <path id="DejaVuSans-35" d="M 691 4666 
L 3169 4666 
L 3169 4134 
L 1269 4134 
L 1269 2991 
Q 1406 3038 1543 3061 
Q 1681 3084 1819 3084 
Q 2600 3084 3056 2656 
Q 3513 2228 3513 1497 
Q 3513 744 3044 326 
Q 2575 -91 1722 -91 
Q 1428 -91 1123 -41 
Q 819 9 494 109 
L 494 744 
Q 775 591 1075 516 
Q 1375 441 1709 441 
Q 2250 441 2565 725 
Q 2881 1009 2881 1497 
Q 2881 1984 2565 2268 
Q 2250 2553 1709 2553 
Q 1456 2553 1204 2497 
Q 953 2441 691 2322 
L 691 4666 
z
" transform="scale(0.015625)"/>
       </defs>
       <use xlink:href="#DejaVuSans-35"/>
       <use xlink:href="#DejaVuSans-35" transform="translate(63.623047 0)"/>
      </g>
     </g>
    </g>
    <g id="xtick_5">
     <g id="line2d_5">
      <g>
       <use xlink:href="#m3668d75336" x="276.149801" y="313.478125" style="stroke: #000000; stroke-width: 0.8"/>
      </g>
     </g>
     <g id="text_5">
      <!-- 74 -->
      <g transform="translate(269.787301 328.076563) scale(0.1 -0.1)">
       <defs>
        <path id="DejaVuSans-34" d="M 2419 4116 
L 825 1625 
L 2419 1625 
L 2419 4116 
z
M 2253 4666 
L 3047 4666 
L 3047 1625 
L 3713 1625 
L 3713 1100 
L 3047 1100 
L 3047 0 
L 2419 0 
L 2419 1100 
L 313 1100 
L 313 1709 
L 2253 4666 
z
" transform="scale(0.015625)"/>
       </defs>
       <use xlink:href="#DejaVuSans-37"/>
       <use xlink:href="#DejaVuSans-34" transform="translate(63.623047 0)"/>
      </g>
     </g>
    </g>
    <g id="xtick_6">
     <g id="line2d_6">
      <g>
       <use xlink:href="#m3668d75336" x="330.354865" y="313.478125" style="stroke: #000000; stroke-width: 0.8"/>
      </g>
     </g>
     <g id="text_6">
      <!-- 93 -->
      <g transform="translate(323.992365 328.076563) scale(0.1 -0.1)">
       <defs>
        <path id="DejaVuSans-39" d="M 703 97 
L 703 672 
Q 941 559 1184 500 
Q 1428 441 1663 441 
Q 2288 441 2617 861 
Q 2947 1281 2994 2138 
Q 2813 1869 2534 1725 
Q 2256 1581 1919 1581 
Q 1219 1581 811 2004 
Q 403 2428 403 3163 
Q 403 3881 828 4315 
Q 1253 4750 1959 4750 
Q 2769 4750 3195 4129 
Q 3622 3509 3622 2328 
Q 3622 1225 3098 567 
Q 2575 -91 1691 -91 
Q 1453 -91 1209 -44 
Q 966 3 703 97 
z
M 1959 2075 
Q 2384 2075 2632 2365 
Q 2881 2656 2881 3163 
Q 2881 3666 2632 3958 
Q 2384 4250 1959 4250 
Q 1534 4250 1286 3958 
Q 1038 3666 1038 3163 
Q 1038 2656 1286 2365 
Q 1534 2075 1959 2075 
z
" transform="scale(0.015625)"/>
       </defs>
       <use xlink:href="#DejaVuSans-39"/>
       <use xlink:href="#DejaVuSans-33" transform="translate(63.623047 0)"/>
      </g>
     </g>
    </g>
    <g id="xtick_7">
     <g id="line2d_7">
      <g>
       <use xlink:href="#m3668d75336" x="381.707031" y="313.478125" style="stroke: #000000; stroke-width: 0.8"/>
      </g>
     </g>
     <g id="text_7">
      <!-- 111 -->
      <g transform="translate(372.163281 328.076563) scale(0.1 -0.1)">
       <use xlink:href="#DejaVuSans-31"/>
       <use xlink:href="#DejaVuSans-31" transform="translate(63.623047 0)"/>
       <use xlink:href="#DejaVuSans-31" transform="translate(127.246094 0)"/>
      </g>
     </g>
    </g>
    <g id="xtick_8">
     <g id="line2d_8">
      <g>
       <use xlink:href="#m3668d75336" x="435.912095" y="313.478125" style="stroke: #000000; stroke-width: 0.8"/>
      </g>
     </g>
     <g id="text_8">
      <!-- 130 -->
      <g transform="translate(426.368345 328.076563) scale(0.1 -0.1)">
       <use xlink:href="#DejaVuSans-31"/>
       <use xlink:href="#DejaVuSans-33" transform="translate(63.623047 0)"/>
       <use xlink:href="#DejaVuSans-30" transform="translate(127.246094 0)"/>
      </g>
     </g>
    </g>
    <g id="xtick_9">
     <g id="line2d_9">
      <g>
       <use xlink:href="#m3668d75336" x="490.117159" y="313.478125" style="stroke: #000000; stroke-width: 0.8"/>
      </g>
     </g>
     <g id="text_9">
      <!-- 149 -->
      <g transform="translate(480.573409 328.076563) scale(0.1 -0.1)">
       <use xlink:href="#DejaVuSans-31"/>
       <use xlink:href="#DejaVuSans-34" transform="translate(63.623047 0)"/>
       <use xlink:href="#DejaVuSans-39" transform="translate(127.246094 0)"/>
      </g>
     </g>
    </g>
    <g id="text_10">
     <!-- Spatial bin -->
     <g transform="translate(251.040313 341.754687) scale(0.1 -0.1)">
      <defs>
       <path id="DejaVuSans-53" d="M 3425 4513 
L 3425 3897 
Q 3066 4069 2747 4153 
Q 2428 4238 2131 4238 
Q 1616 4238 1336 4038 
Q 1056 3838 1056 3469 
Q 1056 3159 1242 3001 
Q 1428 2844 1947 2747 
L 2328 2669 
Q 3034 2534 3370 2195 
Q 3706 1856 3706 1288 
Q 3706 609 3251 259 
Q 2797 -91 1919 -91 
Q 1588 -91 1214 -16 
Q 841 59 441 206 
L 441 856 
Q 825 641 1194 531 
Q 1563 422 1919 422 
Q 2459 422 2753 634 
Q 3047 847 3047 1241 
Q 3047 1584 2836 1778 
Q 2625 1972 2144 2069 
L 1759 2144 
Q 1053 2284 737 2584 
Q 422 2884 422 3419 
Q 422 4038 858 4394 
Q 1294 4750 2059 4750 
Q 2388 4750 2728 4690 
Q 3069 4631 3425 4513 
z
" transform="scale(0.015625)"/>
       <path id="DejaVuSans-70" d="M 1159 525 
L 1159 -1331 
L 581 -1331 
L 581 3500 
L 1159 3500 
L 1159 2969 
Q 1341 3281 1617 3432 
Q 1894 3584 2278 3584 
Q 2916 3584 3314 3078 
Q 3713 2572 3713 1747 
Q 3713 922 3314 415 
Q 2916 -91 2278 -91 
Q 1894 -91 1617 61 
Q 1341 213 1159 525 
z
M 3116 1747 
Q 3116 2381 2855 2742 
Q 2594 3103 2138 3103 
Q 1681 3103 1420 2742 
Q 1159 2381 1159 1747 
Q 1159 1113 1420 752 
Q 1681 391 2138 391 
Q 2594 391 2855 752 
Q 3116 1113 3116 1747 
z
" transform="scale(0.015625)"/>
       <path id="DejaVuSans-61" d="M 2194 1759 
Q 1497 1759 1228 1600 
Q 959 1441 959 1056 
Q 959 750 1161 570 
Q 1363 391 1709 391 
Q 2188 391 2477 730 
Q 2766 1069 2766 1631 
L 2766 1759 
L 2194 1759 
z
M 3341 1997 
L 3341 0 
L 2766 0 
L 2766 531 
Q 2569 213 2275 61 
Q 1981 -91 1556 -91 
Q 1019 -91 701 211 
Q 384 513 384 1019 
Q 384 1609 779 1909 
Q 1175 2209 1959 2209 
L 2766 2209 
L 2766 2266 
Q 2766 2663 2505 2880 
Q 2244 3097 1772 3097 
Q 1472 3097 1187 3025 
Q 903 2953 641 2809 
L 641 3341 
Q 956 3463 1253 3523 
Q 1550 3584 1831 3584 
Q 2591 3584 2966 3190 
Q 3341 2797 3341 1997 
z
" transform="scale(0.015625)"/>
       <path id="DejaVuSans-74" d="M 1172 4494 
L 1172 3500 
L 2356 3500 
L 2356 3053 
L 1172 3053 
L 1172 1153 
Q 1172 725 1289 603 
Q 1406 481 1766 481 
L 2356 481 
L 2356 0 
L 1766 0 
Q 1100 0 847 248 
Q 594 497 594 1153 
L 594 3053 
L 172 3053 
L 172 3500 
L 594 3500 
L 594 4494 
L 1172 4494 
z
" transform="scale(0.015625)"/>
       <path id="DejaVuSans-69" d="M 603 3500 
L 1178 3500 
L 1178 0 
L 603 0 
L 603 3500 
z
M 603 4863 
L 1178 4863 
L 1178 4134 
L 603 4134 
L 603 4863 
z
" transform="scale(0.015625)"/>
       <path id="DejaVuSans-6c" d="M 603 4863 
L 1178 4863 
L 1178 0 
L 603 0 
L 603 4863 
z
" transform="scale(0.015625)"/>
       <path id="DejaVuSans-20" transform="scale(0.015625)"/>
       <path id="DejaVuSans-62" d="M 3116 1747 
Q 3116 2381 2855 2742 
Q 2594 3103 2138 3103 
Q 1681 3103 1420 2742 
Q 1159 2381 1159 1747 
Q 1159 1113 1420 752 
Q 1681 391 2138 391 
Q 2594 391 2855 752 
Q 3116 1113 3116 1747 
z
M 1159 2969 
Q 1341 3281 1617 3432 
Q 1894 3584 2278 3584 
Q 2916 3584 3314 3078 
Q 3713 2572 3713 1747 
Q 3713 922 3314 415 
Q 2916 -91 2278 -91 
Q 1894 -91 1617 61 
Q 1341 213 1159 525 
L 1159 0 
L 581 0 
L 581 4863 
L 1159 4863 
L 1159 2969 
z
" transform="scale(0.015625)"/>
       <path id="DejaVuSans-6e" d="M 3513 2113 
L 3513 0 
L 2938 0 
L 2938 2094 
Q 2938 2591 2744 2837 
Q 2550 3084 2163 3084 
Q 1697 3084 1428 2787 
Q 1159 2491 1159 1978 
L 1159 0 
L 581 0 
L 581 3500 
L 1159 3500 
L 1159 2956 
Q 1366 3272 1645 3428 
Q 1925 3584 2291 3584 
Q 2894 3584 3203 3211 
Q 3513 2838 3513 2113 
z
" transform="scale(0.015625)"/>
      </defs>
      <use xlink:href="#DejaVuSans-53"/>
      <use xlink:href="#DejaVuSans-70" transform="translate(63.476562 0)"/>
      <use xlink:href="#DejaVuSans-61" transform="translate(126.953125 0)"/>
      <use xlink:href="#DejaVuSans-74" transform="translate(188.232422 0)"/>
      <use xlink:href="#DejaVuSans-69" transform="translate(227.441406 0)"/>
      <use xlink:href="#DejaVuSans-61" transform="translate(255.224609 0)"/>
      <use xlink:href="#DejaVuSans-6c" transform="translate(316.503906 0)"/>
      <use xlink:href="#DejaVuSans-20" transform="translate(344.287109 0)"/>
      <use xlink:href="#DejaVuSans-62" transform="translate(376.074219 0)"/>
      <use xlink:href="#DejaVuSans-69" transform="translate(439.550781 0)"/>
      <use xlink:href="#DejaVuSans-6e" transform="translate(467.333984 0)"/>
     </g>
    </g>
   </g>
   <g id="matplotlib.axis_2">
    <g id="ytick_1">
     <g id="line2d_10">
      <defs>
       <path id="mecbdfad02e" d="M 0 0 
L -3.5 0 
" style="stroke: #000000; stroke-width: 0.8"/>
      </defs>
      <g>
       <use xlink:href="#mecbdfad02e" x="43.78125" y="287.009034" style="stroke: #000000; stroke-width: 0.8"/>
      </g>
     </g>
     <g id="text_11">
      <!-- 0.0 -->
      <g transform="translate(20.878125 290.808253) scale(0.1 -0.1)">
       <defs>
        <path id="DejaVuSans-2e" d="M 684 794 
L 1344 794 
L 1344 0 
L 684 0 
L 684 794 
z
" transform="scale(0.015625)"/>
       </defs>
       <use xlink:href="#DejaVuSans-30"/>
       <use xlink:href="#DejaVuSans-2e" transform="translate(63.623047 0)"/>
       <use xlink:href="#DejaVuSans-30" transform="translate(95.410156 0)"/>
      </g>
     </g>
    </g>
    <g id="ytick_2">
     <g id="line2d_11">
      <g>
       <use xlink:href="#mecbdfad02e" x="43.78125" y="234.070852" style="stroke: #000000; stroke-width: 0.8"/>
      </g>
     </g>
     <g id="text_12">
      <!-- 0.2 -->
      <g transform="translate(20.878125 237.870071) scale(0.1 -0.1)">
       <defs>
        <path id="DejaVuSans-32" d="M 1228 531 
L 3431 531 
L 3431 0 
L 469 0 
L 469 531 
Q 828 903 1448 1529 
Q 2069 2156 2228 2338 
Q 2531 2678 2651 2914 
Q 2772 3150 2772 3378 
Q 2772 3750 2511 3984 
Q 2250 4219 1831 4219 
Q 1534 4219 1204 4116 
Q 875 4013 500 3803 
L 500 4441 
Q 881 4594 1212 4672 
Q 1544 4750 1819 4750 
Q 2544 4750 2975 4387 
Q 3406 4025 3406 3419 
Q 3406 3131 3298 2873 
Q 3191 2616 2906 2266 
Q 2828 2175 2409 1742 
Q 1991 1309 1228 531 
z
" transform="scale(0.015625)"/>
       </defs>
       <use xlink:href="#DejaVuSans-30"/>
       <use xlink:href="#DejaVuSans-2e" transform="translate(63.623047 0)"/>
       <use xlink:href="#DejaVuSans-32" transform="translate(95.410156 0)"/>
      </g>
     </g>
    </g>
    <g id="ytick_3">
     <g id="line2d_12">
      <g>
       <use xlink:href="#mecbdfad02e" x="43.78125" y="181.13267" style="stroke: #000000; stroke-width: 0.8"/>
      </g>
     </g>
     <g id="text_13">
      <!-- 0.4 -->
      <g transform="translate(20.878125 184.931889) scale(0.1 -0.1)">
       <use xlink:href="#DejaVuSans-30"/>
       <use xlink:href="#DejaVuSans-2e" transform="translate(63.623047 0)"/>
       <use xlink:href="#DejaVuSans-34" transform="translate(95.410156 0)"/>
      </g>
     </g>
    </g>
    <g id="ytick_4">
     <g id="line2d_13">
      <g>
       <use xlink:href="#mecbdfad02e" x="43.78125" y="128.194489" style="stroke: #000000; stroke-width: 0.8"/>
      </g>
     </g>
     <g id="text_14">
      <!-- 0.6 -->
      <g transform="translate(20.878125 131.993707) scale(0.1 -0.1)">
       <defs>
        <path id="DejaVuSans-36" d="M 2113 2584 
Q 1688 2584 1439 2293 
Q 1191 2003 1191 1497 
Q 1191 994 1439 701 
Q 1688 409 2113 409 
Q 2538 409 2786 701 
Q 3034 994 3034 1497 
Q 3034 2003 2786 2293 
Q 2538 2584 2113 2584 
z
M 3366 4563 
L 3366 3988 
Q 3128 4100 2886 4159 
Q 2644 4219 2406 4219 
Q 1781 4219 1451 3797 
Q 1122 3375 1075 2522 
Q 1259 2794 1537 2939 
Q 1816 3084 2150 3084 
Q 2853 3084 3261 2657 
Q 3669 2231 3669 1497 
Q 3669 778 3244 343 
Q 2819 -91 2113 -91 
Q 1303 -91 875 529 
Q 447 1150 447 2328 
Q 447 3434 972 4092 
Q 1497 4750 2381 4750 
Q 2619 4750 2861 4703 
Q 3103 4656 3366 4563 
z
" transform="scale(0.015625)"/>
       </defs>
       <use xlink:href="#DejaVuSans-30"/>
       <use xlink:href="#DejaVuSans-2e" transform="translate(63.623047 0)"/>
       <use xlink:href="#DejaVuSans-36" transform="translate(95.410156 0)"/>
      </g>
     </g>
    </g>
    <g id="ytick_5">
     <g id="line2d_14">
      <g>
       <use xlink:href="#mecbdfad02e" x="43.78125" y="75.256307" style="stroke: #000000; stroke-width: 0.8"/>
      </g>
     </g>
     <g id="text_15">
      <!-- 0.8 -->
      <g transform="translate(20.878125 79.055526) scale(0.1 -0.1)">
       <use xlink:href="#DejaVuSans-30"/>
       <use xlink:href="#DejaVuSans-2e" transform="translate(63.623047 0)"/>
       <use xlink:href="#DejaVuSans-38" transform="translate(95.410156 0)"/>
      </g>
     </g>
    </g>
    <g id="ytick_6">
     <g id="line2d_15">
      <g>
       <use xlink:href="#mecbdfad02e" x="43.78125" y="22.318125" style="stroke: #000000; stroke-width: 0.8"/>
      </g>
     </g>
     <g id="text_16">
      <!-- 1.0 -->
      <g transform="translate(20.878125 26.117344) scale(0.1 -0.1)">
       <use xlink:href="#DejaVuSans-31"/>
       <use xlink:href="#DejaVuSans-2e" transform="translate(63.623047 0)"/>
       <use xlink:href="#DejaVuSans-30" transform="translate(95.410156 0)"/>
      </g>
     </g>
    </g>
    <g id="text_17">
     <!-- dF/F -->
     <g transform="translate(14.798438 178.508281) rotate(-90) scale(0.1 -0.1)">
      <defs>
       <path id="DejaVuSans-64" d="M 2906 2969 
L 2906 4863 
L 3481 4863 
L 3481 0 
L 2906 0 
L 2906 525 
Q 2725 213 2448 61 
Q 2172 -91 1784 -91 
Q 1150 -91 751 415 
Q 353 922 353 1747 
Q 353 2572 751 3078 
Q 1150 3584 1784 3584 
Q 2172 3584 2448 3432 
Q 2725 3281 2906 2969 
z
M 947 1747 
Q 947 1113 1208 752 
Q 1469 391 1925 391 
Q 2381 391 2643 752 
Q 2906 1113 2906 1747 
Q 2906 2381 2643 2742 
Q 2381 3103 1925 3103 
Q 1469 3103 1208 2742 
Q 947 2381 947 1747 
z
" transform="scale(0.015625)"/>
       <path id="DejaVuSans-46" d="M 628 4666 
L 3309 4666 
L 3309 4134 
L 1259 4134 
L 1259 2759 
L 3109 2759 
L 3109 2228 
L 1259 2228 
L 1259 0 
L 628 0 
L 628 4666 
z
" transform="scale(0.015625)"/>
       <path id="DejaVuSans-2f" d="M 1625 4666 
L 2156 4666 
L 531 -594 
L 0 -594 
L 1625 4666 
z
" transform="scale(0.015625)"/>
      </defs>
      <use xlink:href="#DejaVuSans-64"/>
      <use xlink:href="#DejaVuSans-46" transform="translate(63.476562 0)"/>
      <use xlink:href="#DejaVuSans-2f" transform="translate(120.996094 0)"/>
      <use xlink:href="#DejaVuSans-46" transform="translate(154.6875 0)"/>
     </g>
    </g>
   </g>
   <g id="line2d_16">
    <path d="M 65.035341 285.675675 
L 67.888239 284.562043 
L 70.741137 284.58815 
L 73.594035 282.977405 
L 76.446933 281.669425 
L 79.299831 279.469188 
L 85.005628 279.728965 
L 87.858526 278.829471 
L 90.711424 278.330977 
L 93.564322 278.044906 
L 96.41722 277.55914 
L 99.270118 276.50263 
L 102.123016 275.237852 
L 104.975914 276.912182 
L 107.828813 276.895064 
L 113.534609 274.999436 
L 116.387507 276.541482 
L 119.240405 276.520887 
L 122.093303 275.780585 
L 124.946201 274.533707 
L 127.799099 273.127749 
L 130.651997 271.925615 
L 133.504896 272.0339 
L 136.357794 271.490196 
L 139.210692 271.445187 
L 142.06359 272.128957 
L 144.916488 270.387075 
L 147.769386 270.905858 
L 150.622284 270.50479 
L 153.475182 269.770989 
L 156.32808 267.722083 
L 159.180978 267.576738 
L 162.033877 268.072523 
L 164.886775 268.099154 
L 170.592571 267.630486 
L 173.445469 267.634244 
L 176.298367 267.454336 
L 179.151265 267.972846 
L 182.004163 269.819397 
L 184.857061 271.810973 
L 187.70996 273.968867 
L 190.562858 275.219899 
L 193.415756 273.796748 
L 196.268654 271.697964 
L 199.121552 269.297885 
L 201.97445 268.002645 
L 204.827348 268.445877 
L 207.680246 267.768135 
L 210.533144 268.308581 
L 213.386043 266.208966 
L 216.238941 262.866586 
L 219.091839 260.318331 
L 221.944737 256.376974 
L 224.797635 254.789317 
L 227.650533 254.386161 
L 230.503431 254.50887 
L 233.356329 255.620578 
L 236.209227 255.208475 
L 241.915024 258.907486 
L 244.767922 262.405293 
L 247.62082 265.20946 
L 256.179514 272.330099 
L 259.032412 272.184658 
L 261.88531 272.182888 
L 264.738209 271.256662 
L 267.591107 271.233584 
L 270.444005 271.505917 
L 273.296903 271.093242 
L 281.855597 270.894826 
L 284.708495 271.719915 
L 287.561393 272.918657 
L 290.414291 273.178798 
L 293.26719 275.599303 
L 298.972986 274.496334 
L 301.825884 274.611935 
L 304.678782 275.207175 
L 307.53168 274.588488 
L 313.237476 274.261112 
L 316.090374 271.909022 
L 318.943273 272.817025 
L 321.796171 273.507505 
L 324.649069 274.930036 
L 327.501967 276.014136 
L 330.354865 277.289604 
L 333.207763 278.385363 
L 336.060661 278.857534 
L 338.913559 279.119028 
L 341.766457 278.780603 
L 347.472254 277.481476 
L 350.325152 277.604334 
L 353.17805 277.091964 
L 356.030948 277.658803 
L 358.883846 278.72934 
L 364.589642 281.356793 
L 367.44254 282.895278 
L 370.295439 283.408557 
L 373.148337 282.445468 
L 376.001235 279.831285 
L 378.854133 276.020087 
L 381.707031 270.154344 
L 384.559929 260.909989 
L 387.412827 250.332285 
L 390.265725 236.100442 
L 393.118623 219.842353 
L 395.971522 205.056259 
L 398.82442 193.800774 
L 401.677318 186.667426 
L 404.530216 183.023703 
L 407.383114 182.145744 
L 410.236012 192.567963 
L 413.08891 196.839431 
L 415.941808 194.063837 
L 418.794706 201.982192 
L 421.647604 202.588898 
L 424.500503 225.053551 
L 427.353401 230.808529 
L 430.206299 237.676958 
L 433.059197 246.341223 
L 435.912095 246.942101 
L 438.764993 250.033558 
L 441.617891 252.300676 
L 444.470789 253.610366 
L 450.176586 259.627324 
L 453.029484 261.718469 
L 455.882382 262.938278 
L 458.73528 263.837364 
L 461.588178 265.981419 
L 464.441076 267.101509 
L 467.293974 267.152461 
L 472.99977 269.139336 
L 475.852669 269.506519 
L 481.558465 268.911577 
L 484.411363 268.497819 
L 487.264261 269.079467 
L 490.117159 281.025648 
L 490.117159 281.025648 
" clip-path="url(#p0103b7c3f5)" style="fill: none; stroke: #ff0000; stroke-width: 3; stroke-linecap: square"/>
   </g>
   <g id="patch_3">
    <path d="M 43.78125 313.478125 
L 43.78125 22.318125 
" style="fill: none; stroke: #000000; stroke-width: 0.8; stroke-linejoin: miter; stroke-linecap: square"/>
   </g>
   <g id="patch_4">
    <path d="M 511.37125 313.478125 
L 511.37125 22.318125 
" style="fill: none; stroke: #000000; stroke-width: 0.8; stroke-linejoin: miter; stroke-linecap: square"/>
   </g>
   <g id="patch_5">
    <path d="M 43.78125 313.478125 
L 511.37125 313.478125 
" style="fill: none; stroke: #000000; stroke-width: 0.8; stroke-linejoin: miter; stroke-linecap: square"/>
   </g>
   <g id="patch_6">
    <path d="M 43.78125 22.318125 
L 511.37125 22.318125 
" style="fill: none; stroke: #000000; stroke-width: 0.8; stroke-linejoin: miter; stroke-linecap: square"/>
   </g>
   <g id="text_18">
    <!-- Corridor -0.0 -->
    <g transform="translate(239.66 16.318125) scale(0.12 -0.12)">
     <defs>
      <path id="DejaVuSans-43" d="M 4122 4306 
L 4122 3641 
Q 3803 3938 3442 4084 
Q 3081 4231 2675 4231 
Q 1875 4231 1450 3742 
Q 1025 3253 1025 2328 
Q 1025 1406 1450 917 
Q 1875 428 2675 428 
Q 3081 428 3442 575 
Q 3803 722 4122 1019 
L 4122 359 
Q 3791 134 3420 21 
Q 3050 -91 2638 -91 
Q 1578 -91 968 557 
Q 359 1206 359 2328 
Q 359 3453 968 4101 
Q 1578 4750 2638 4750 
Q 3056 4750 3426 4639 
Q 3797 4528 4122 4306 
z
" transform="scale(0.015625)"/>
      <path id="DejaVuSans-6f" d="M 1959 3097 
Q 1497 3097 1228 2736 
Q 959 2375 959 1747 
Q 959 1119 1226 758 
Q 1494 397 1959 397 
Q 2419 397 2687 759 
Q 2956 1122 2956 1747 
Q 2956 2369 2687 2733 
Q 2419 3097 1959 3097 
z
M 1959 3584 
Q 2709 3584 3137 3096 
Q 3566 2609 3566 1747 
Q 3566 888 3137 398 
Q 2709 -91 1959 -91 
Q 1206 -91 779 398 
Q 353 888 353 1747 
Q 353 2609 779 3096 
Q 1206 3584 1959 3584 
z
" transform="scale(0.015625)"/>
      <path id="DejaVuSans-72" d="M 2631 2963 
Q 2534 3019 2420 3045 
Q 2306 3072 2169 3072 
Q 1681 3072 1420 2755 
Q 1159 2438 1159 1844 
L 1159 0 
L 581 0 
L 581 3500 
L 1159 3500 
L 1159 2956 
Q 1341 3275 1631 3429 
Q 1922 3584 2338 3584 
Q 2397 3584 2469 3576 
Q 2541 3569 2628 3553 
L 2631 2963 
z
" transform="scale(0.015625)"/>
      <path id="DejaVuSans-2d" d="M 313 2009 
L 1997 2009 
L 1997 1497 
L 313 1497 
L 313 2009 
z
" transform="scale(0.015625)"/>
     </defs>
     <use xlink:href="#DejaVuSans-43"/>
     <use xlink:href="#DejaVuSans-6f" transform="translate(69.824219 0)"/>
     <use xlink:href="#DejaVuSans-72" transform="translate(131.005859 0)"/>
     <use xlink:href="#DejaVuSans-72" transform="translate(170.369141 0)"/>
     <use xlink:href="#DejaVuSans-69" transform="translate(211.482422 0)"/>
     <use xlink:href="#DejaVuSans-64" transform="translate(239.265625 0)"/>
     <use xlink:href="#DejaVuSans-6f" transform="translate(302.742188 0)"/>
     <use xlink:href="#DejaVuSans-72" transform="translate(363.923828 0)"/>
     <use xlink:href="#DejaVuSans-20" transform="translate(405.037109 0)"/>
     <use xlink:href="#DejaVuSans-2d" transform="translate(436.824219 0)"/>
     <use xlink:href="#DejaVuSans-30" transform="translate(472.908203 0)"/>
     <use xlink:href="#DejaVuSans-2e" transform="translate(536.53125 0)"/>
     <use xlink:href="#DejaVuSans-30" transform="translate(568.318359 0)"/>
    </g>
   </g>
  </g>
  <g id="axes_2">
   <g id="patch_7">
    <path d="M 525.67125 313.478125 
L 993.26125 313.478125 
L 993.26125 22.318125 
L 525.67125 22.318125 
z
" style="fill: #ffffff"/>
   </g>
   <g id="FillBetweenPolyCollection_2">
    <path d="M 546.925341 281.881188 
L 546.925341 288.541376 
L 549.778239 288.365961 
L 552.631137 288.371927 
L 555.484035 287.260632 
L 558.336933 285.865734 
L 561.189831 284.978169 
L 564.04273 284.092802 
L 566.895628 283.296982 
L 569.748526 282.642316 
L 572.601424 282.671727 
L 575.454322 282.443819 
L 578.30722 282.565606 
L 581.160118 281.191605 
L 584.013016 281.722886 
L 586.865914 282.248179 
L 589.718813 281.28406 
L 592.571711 280.696962 
L 595.424609 280.417762 
L 598.277507 280.715878 
L 601.130405 281.709391 
L 603.983303 281.341306 
L 606.836201 280.521181 
L 609.689099 280.356862 
L 612.541997 280.202551 
L 615.394896 280.273426 
L 618.247794 280.452275 
L 621.100692 280.673415 
L 623.95359 280.942605 
L 626.806488 281.098397 
L 629.659386 281.249114 
L 632.512284 281.505024 
L 635.365182 281.87438 
L 638.21808 282.249816 
L 641.070978 281.733692 
L 643.923877 281.668423 
L 646.776775 281.464912 
L 649.629673 281.460786 
L 652.482571 281.358968 
L 655.335469 280.670948 
L 658.188367 279.636797 
L 661.041265 279.729983 
L 663.894163 280.016348 
L 666.747061 279.909347 
L 669.59996 280.802106 
L 672.452858 280.329356 
L 675.305756 279.569937 
L 678.158654 278.432021 
L 681.011552 276.742213 
L 683.86445 275.318517 
L 686.717348 274.611508 
L 689.570246 273.341211 
L 692.423144 273.346346 
L 695.276043 273.72963 
L 698.128941 274.85394 
L 700.981839 276.480149 
L 703.834737 278.231595 
L 706.687635 279.641974 
L 709.540533 280.359176 
L 712.393431 282.072583 
L 715.246329 282.815527 
L 718.099227 282.959191 
L 720.952126 282.959085 
L 723.805024 281.901306 
L 726.657922 281.212761 
L 729.51082 281.459534 
L 732.363718 282.080416 
L 735.216616 282.987395 
L 738.069514 284.069803 
L 740.922412 283.903463 
L 743.77531 284.919121 
L 746.628209 285.912828 
L 749.481107 286.760173 
L 752.334005 286.127994 
L 755.186903 284.932809 
L 758.039801 284.574474 
L 760.892699 283.515015 
L 763.745597 284.23635 
L 766.598495 285.216998 
L 769.451393 284.245616 
L 772.304291 283.369606 
L 775.15719 283.4521 
L 778.010088 283.974505 
L 780.862986 284.491718 
L 783.715884 285.211173 
L 786.568782 285.566326 
L 789.42168 286.29964 
L 792.274578 286.729007 
L 795.127476 286.369866 
L 797.980374 285.98459 
L 800.833273 285.252727 
L 803.686171 285.088843 
L 806.539069 284.839671 
L 809.391967 284.441932 
L 812.244865 284.643271 
L 815.097763 284.749266 
L 817.950661 284.587243 
L 820.803559 284.320887 
L 823.656457 284.613769 
L 826.509356 284.004562 
L 829.362254 282.956955 
L 832.215152 281.960874 
L 835.06805 281.487482 
L 837.920948 280.800631 
L 840.773846 283.487016 
L 843.626744 278.633247 
L 846.479642 280.739528 
L 849.33254 278.906871 
L 852.185439 278.541785 
L 855.038337 278.697843 
L 857.891235 279.112414 
L 860.744133 279.636319 
L 863.597031 280.246128 
L 866.449929 279.784644 
L 869.302827 279.756855 
L 872.155725 279.907228 
L 875.008623 279.904067 
L 877.861522 279.780001 
L 880.71442 279.824537 
L 883.567318 279.57644 
L 886.420216 279.3254 
L 889.273114 279.451619 
L 892.126012 280.170266 
L 894.97891 281.446007 
L 897.831808 282.172988 
L 900.684706 282.226575 
L 903.537604 281.170665 
L 906.390503 280.166763 
L 909.243401 280.128672 
L 912.096299 278.8862 
L 914.949197 277.377787 
L 917.802095 277.029936 
L 920.654993 277.965524 
L 923.507891 278.017928 
L 926.360789 278.203996 
L 929.213687 278.612146 
L 932.066586 278.848875 
L 934.919484 279.242332 
L 937.772382 279.741967 
L 940.62528 280.012588 
L 943.478178 280.297766 
L 946.331076 280.374531 
L 949.183974 280.740864 
L 952.036872 281.139598 
L 954.88977 281.731005 
L 957.742669 281.287442 
L 960.595567 281.596122 
L 963.448465 282.277463 
L 966.301363 284.793126 
L 969.154261 287.040749 
L 972.007159 292.383162 
L 972.007159 280.111178 
L 972.007159 280.111178 
L 969.154261 273.523572 
L 966.301363 273.26275 
L 963.448465 269.728421 
L 960.595567 270.077609 
L 957.742669 269.585789 
L 954.88977 268.389398 
L 952.036872 269.191081 
L 949.183974 267.834495 
L 946.331076 266.916757 
L 943.478178 266.430512 
L 940.62528 266.494452 
L 937.772382 267.243491 
L 934.919484 267.250283 
L 932.066586 266.316481 
L 929.213687 265.687774 
L 926.360789 265.959038 
L 923.507891 263.334737 
L 920.654993 258.817401 
L 917.802095 257.310338 
L 914.949197 258.289984 
L 912.096299 262.284786 
L 909.243401 264.890789 
L 906.390503 265.993932 
L 903.537604 267.874108 
L 900.684706 268.776356 
L 897.831808 268.204167 
L 894.97891 268.598299 
L 892.126012 267.139974 
L 889.273114 266.430834 
L 886.420216 266.044906 
L 883.567318 265.38513 
L 880.71442 265.731209 
L 877.861522 265.912835 
L 875.008623 266.343798 
L 872.155725 266.706036 
L 869.302827 266.90856 
L 866.449929 267.372128 
L 863.597031 267.824532 
L 860.744133 267.813874 
L 857.891235 268.473591 
L 855.038337 269.442707 
L 852.185439 268.851928 
L 849.33254 268.678556 
L 846.479642 269.524311 
L 843.626744 268.292617 
L 840.773846 269.188726 
L 837.920948 268.516588 
L 835.06805 269.125062 
L 832.215152 269.965076 
L 829.362254 270.833701 
L 826.509356 271.426268 
L 823.656457 271.64711 
L 820.803559 272.498584 
L 817.950661 271.643502 
L 815.097763 272.220763 
L 812.244865 272.422948 
L 809.391967 272.513467 
L 806.539069 273.61905 
L 803.686171 273.851705 
L 800.833273 273.944428 
L 797.980374 274.75091 
L 795.127476 275.057208 
L 792.274578 275.002471 
L 789.42168 274.981149 
L 786.568782 273.717358 
L 783.715884 272.899915 
L 780.862986 272.074726 
L 778.010088 271.980371 
L 775.15719 272.266116 
L 772.304291 273.096412 
L 769.451393 273.958054 
L 766.598495 274.982934 
L 763.745597 274.34215 
L 760.892699 273.33141 
L 758.039801 274.116365 
L 755.186903 274.163063 
L 752.334005 274.092606 
L 749.481107 273.153974 
L 746.628209 272.979645 
L 743.77531 272.980947 
L 740.922412 274.278102 
L 738.069514 274.795793 
L 735.216616 274.530199 
L 732.363718 273.798994 
L 729.51082 273.44747 
L 726.657922 273.539769 
L 723.805024 273.620261 
L 720.952126 273.562327 
L 718.099227 272.418505 
L 715.246329 271.241035 
L 712.393431 270.625776 
L 709.540533 269.489875 
L 706.687635 269.701207 
L 703.834737 268.26823 
L 700.981839 267.279915 
L 698.128941 265.649146 
L 695.276043 264.585068 
L 692.423144 263.962161 
L 689.570246 263.616488 
L 686.717348 264.838037 
L 683.86445 265.789022 
L 681.011552 268.317554 
L 678.158654 270.810584 
L 675.305756 272.056282 
L 672.452858 272.580757 
L 669.59996 272.533537 
L 666.747061 273.644171 
L 663.894163 273.138677 
L 661.041265 272.423682 
L 658.188367 271.742967 
L 655.335469 272.623739 
L 652.482571 272.948923 
L 649.629673 274.078274 
L 646.776775 275.565087 
L 643.923877 275.540755 
L 641.070978 275.255559 
L 638.21808 275.869583 
L 635.365182 275.706913 
L 632.512284 274.546453 
L 629.659386 274.046526 
L 626.806488 274.130486 
L 623.95359 273.583497 
L 621.100692 273.628489 
L 618.247794 273.816642 
L 615.394896 273.667931 
L 612.541997 273.516828 
L 609.689099 273.845534 
L 606.836201 274.00009 
L 603.983303 274.408417 
L 601.130405 273.995452 
L 598.277507 273.750085 
L 595.424609 273.889687 
L 592.571711 274.195845 
L 589.718813 274.806639 
L 586.865914 276.126499 
L 584.013016 275.634621 
L 581.160118 275.616081 
L 578.30722 276.424241 
L 575.454322 276.410293 
L 572.601424 276.694762 
L 569.748526 276.645732 
L 566.895628 277.761152 
L 564.04273 278.520554 
L 561.189831 278.973848 
L 558.336933 279.012702 
L 555.484035 279.868048 
L 552.631137 280.68975 
L 549.778239 281.161346 
L 546.925341 281.881188 
z
" clip-path="url(#p93c6052bf1)" style="fill: #1f77b4; fill-opacity: 0.3"/>
   </g>
   <g id="matplotlib.axis_3">
    <g id="xtick_10">
     <g id="line2d_17">
      <g>
       <use xlink:href="#m3668d75336" x="546.925341" y="313.478125" style="stroke: #000000; stroke-width: 0.8"/>
      </g>
     </g>
     <g id="text_19">
      <!-- 0 -->
      <g transform="translate(543.744091 328.076563) scale(0.1 -0.1)">
       <use xlink:href="#DejaVuSans-30"/>
      </g>
     </g>
    </g>
    <g id="xtick_11">
     <g id="line2d_18">
      <g>
       <use xlink:href="#m3668d75336" x="598.277507" y="313.478125" style="stroke: #000000; stroke-width: 0.8"/>
      </g>
     </g>
     <g id="text_20">
      <!-- 18 -->
      <g transform="translate(591.915007 328.076563) scale(0.1 -0.1)">
       <use xlink:href="#DejaVuSans-31"/>
       <use xlink:href="#DejaVuSans-38" transform="translate(63.623047 0)"/>
      </g>
     </g>
    </g>
    <g id="xtick_12">
     <g id="line2d_19">
      <g>
       <use xlink:href="#m3668d75336" x="652.482571" y="313.478125" style="stroke: #000000; stroke-width: 0.8"/>
      </g>
     </g>
     <g id="text_21">
      <!-- 37 -->
      <g transform="translate(646.120071 328.076563) scale(0.1 -0.1)">
       <use xlink:href="#DejaVuSans-33"/>
       <use xlink:href="#DejaVuSans-37" transform="translate(63.623047 0)"/>
      </g>
     </g>
    </g>
    <g id="xtick_13">
     <g id="line2d_20">
      <g>
       <use xlink:href="#m3668d75336" x="703.834737" y="313.478125" style="stroke: #000000; stroke-width: 0.8"/>
      </g>
     </g>
     <g id="text_22">
      <!-- 55 -->
      <g transform="translate(697.472237 328.076563) scale(0.1 -0.1)">
       <use xlink:href="#DejaVuSans-35"/>
       <use xlink:href="#DejaVuSans-35" transform="translate(63.623047 0)"/>
      </g>
     </g>
    </g>
    <g id="xtick_14">
     <g id="line2d_21">
      <g>
       <use xlink:href="#m3668d75336" x="758.039801" y="313.478125" style="stroke: #000000; stroke-width: 0.8"/>
      </g>
     </g>
     <g id="text_23">
      <!-- 74 -->
      <g transform="translate(751.677301 328.076563) scale(0.1 -0.1)">
       <use xlink:href="#DejaVuSans-37"/>
       <use xlink:href="#DejaVuSans-34" transform="translate(63.623047 0)"/>
      </g>
     </g>
    </g>
    <g id="xtick_15">
     <g id="line2d_22">
      <g>
       <use xlink:href="#m3668d75336" x="812.244865" y="313.478125" style="stroke: #000000; stroke-width: 0.8"/>
      </g>
     </g>
     <g id="text_24">
      <!-- 93 -->
      <g transform="translate(805.882365 328.076563) scale(0.1 -0.1)">
       <use xlink:href="#DejaVuSans-39"/>
       <use xlink:href="#DejaVuSans-33" transform="translate(63.623047 0)"/>
      </g>
     </g>
    </g>
    <g id="xtick_16">
     <g id="line2d_23">
      <g>
       <use xlink:href="#m3668d75336" x="863.597031" y="313.478125" style="stroke: #000000; stroke-width: 0.8"/>
      </g>
     </g>
     <g id="text_25">
      <!-- 111 -->
      <g transform="translate(854.053281 328.076563) scale(0.1 -0.1)">
       <use xlink:href="#DejaVuSans-31"/>
       <use xlink:href="#DejaVuSans-31" transform="translate(63.623047 0)"/>
       <use xlink:href="#DejaVuSans-31" transform="translate(127.246094 0)"/>
      </g>
     </g>
    </g>
    <g id="xtick_17">
     <g id="line2d_24">
      <g>
       <use xlink:href="#m3668d75336" x="917.802095" y="313.478125" style="stroke: #000000; stroke-width: 0.8"/>
      </g>
     </g>
     <g id="text_26">
      <!-- 130 -->
      <g transform="translate(908.258345 328.076563) scale(0.1 -0.1)">
       <use xlink:href="#DejaVuSans-31"/>
       <use xlink:href="#DejaVuSans-33" transform="translate(63.623047 0)"/>
       <use xlink:href="#DejaVuSans-30" transform="translate(127.246094 0)"/>
      </g>
     </g>
    </g>
    <g id="xtick_18">
     <g id="line2d_25">
      <g>
       <use xlink:href="#m3668d75336" x="972.007159" y="313.478125" style="stroke: #000000; stroke-width: 0.8"/>
      </g>
     </g>
     <g id="text_27">
      <!-- 149 -->
      <g transform="translate(962.463409 328.076563) scale(0.1 -0.1)">
       <use xlink:href="#DejaVuSans-31"/>
       <use xlink:href="#DejaVuSans-34" transform="translate(63.623047 0)"/>
       <use xlink:href="#DejaVuSans-39" transform="translate(127.246094 0)"/>
      </g>
     </g>
    </g>
    <g id="text_28">
     <!-- Spatial bin -->
     <g transform="translate(732.930312 341.754687) scale(0.1 -0.1)">
      <use xlink:href="#DejaVuSans-53"/>
      <use xlink:href="#DejaVuSans-70" transform="translate(63.476562 0)"/>
      <use xlink:href="#DejaVuSans-61" transform="translate(126.953125 0)"/>
      <use xlink:href="#DejaVuSans-74" transform="translate(188.232422 0)"/>
      <use xlink:href="#DejaVuSans-69" transform="translate(227.441406 0)"/>
      <use xlink:href="#DejaVuSans-61" transform="translate(255.224609 0)"/>
      <use xlink:href="#DejaVuSans-6c" transform="translate(316.503906 0)"/>
      <use xlink:href="#DejaVuSans-20" transform="translate(344.287109 0)"/>
      <use xlink:href="#DejaVuSans-62" transform="translate(376.074219 0)"/>
      <use xlink:href="#DejaVuSans-69" transform="translate(439.550781 0)"/>
      <use xlink:href="#DejaVuSans-6e" transform="translate(467.333984 0)"/>
     </g>
    </g>
   </g>
   <g id="matplotlib.axis_4">
    <g id="ytick_7">
     <g id="line2d_26">
      <g>
       <use xlink:href="#mecbdfad02e" x="525.67125" y="287.009034" style="stroke: #000000; stroke-width: 0.8"/>
      </g>
     </g>
    </g>
    <g id="ytick_8">
     <g id="line2d_27">
      <g>
       <use xlink:href="#mecbdfad02e" x="525.67125" y="234.070852" style="stroke: #000000; stroke-width: 0.8"/>
      </g>
     </g>
    </g>
    <g id="ytick_9">
     <g id="line2d_28">
      <g>
       <use xlink:href="#mecbdfad02e" x="525.67125" y="181.13267" style="stroke: #000000; stroke-width: 0.8"/>
      </g>
     </g>
    </g>
    <g id="ytick_10">
     <g id="line2d_29">
      <g>
       <use xlink:href="#mecbdfad02e" x="525.67125" y="128.194489" style="stroke: #000000; stroke-width: 0.8"/>
      </g>
     </g>
    </g>
    <g id="ytick_11">
     <g id="line2d_30">
      <g>
       <use xlink:href="#mecbdfad02e" x="525.67125" y="75.256307" style="stroke: #000000; stroke-width: 0.8"/>
      </g>
     </g>
    </g>
    <g id="ytick_12">
     <g id="line2d_31">
      <g>
       <use xlink:href="#mecbdfad02e" x="525.67125" y="22.318125" style="stroke: #000000; stroke-width: 0.8"/>
      </g>
     </g>
    </g>
   </g>
   <g id="line2d_32">
    <path d="M 546.925341 285.211282 
L 549.778239 284.763653 
L 552.631137 284.530839 
L 555.484035 283.56434 
L 558.336933 282.439218 
L 561.189831 281.976008 
L 566.895628 280.529067 
L 569.748526 279.644024 
L 572.601424 279.683245 
L 575.454322 279.427056 
L 578.30722 279.494923 
L 581.160118 278.403843 
L 584.013016 278.678753 
L 586.865914 279.187339 
L 589.718813 278.045349 
L 592.571711 277.446403 
L 595.424609 277.153725 
L 598.277507 277.232981 
L 601.130405 277.852422 
L 603.983303 277.874861 
L 606.836201 277.260636 
L 612.541997 276.85969 
L 623.95359 277.263051 
L 626.806488 277.614441 
L 629.659386 277.64782 
L 632.512284 278.025738 
L 635.365182 278.790647 
L 638.21808 279.0597 
L 641.070978 278.494625 
L 643.923877 278.604589 
L 646.776775 278.515 
L 649.629673 277.76953 
L 655.335469 276.647344 
L 658.188367 275.689882 
L 661.041265 276.076832 
L 663.894163 276.577512 
L 666.747061 276.776759 
L 672.452858 276.455056 
L 675.305756 275.81311 
L 678.158654 274.621302 
L 683.86445 270.55377 
L 686.717348 269.724773 
L 689.570246 268.47885 
L 692.423144 268.654254 
L 695.276043 269.157349 
L 698.128941 270.251543 
L 700.981839 271.880032 
L 706.687635 274.671591 
L 709.540533 274.924526 
L 712.393431 276.349179 
L 718.099227 277.688848 
L 720.952126 278.260706 
L 723.805024 277.760783 
L 726.657922 277.376265 
L 729.51082 277.453502 
L 732.363718 277.939705 
L 735.216616 278.758797 
L 738.069514 279.432798 
L 740.922412 279.090783 
L 743.77531 278.950034 
L 749.481107 279.957074 
L 752.334005 280.1103 
L 755.186903 279.547936 
L 758.039801 279.34542 
L 760.892699 278.423212 
L 766.598495 280.099966 
L 769.451393 279.101835 
L 772.304291 278.233009 
L 775.15719 277.859108 
L 778.010088 277.977438 
L 780.862986 278.283222 
L 783.715884 279.055544 
L 786.568782 279.641842 
L 789.42168 280.640394 
L 792.274578 280.865739 
L 795.127476 280.713537 
L 797.980374 280.36775 
L 800.833273 279.598578 
L 803.686171 279.470274 
L 806.539069 279.229361 
L 809.391967 278.4777 
L 815.097763 278.485014 
L 817.950661 278.115372 
L 820.803559 278.409736 
L 823.656457 278.13044 
L 826.509356 277.715415 
L 835.06805 275.306272 
L 837.920948 274.658609 
L 840.773846 276.337871 
L 843.626744 273.462932 
L 846.479642 275.131919 
L 849.33254 273.792714 
L 852.185439 273.696857 
L 855.038337 274.070275 
L 857.891235 273.793003 
L 860.744133 273.725097 
L 863.597031 274.03533 
L 866.449929 273.578386 
L 869.302827 273.332708 
L 872.155725 273.306632 
L 883.567318 272.480785 
L 889.273114 272.941226 
L 892.126012 273.65512 
L 894.97891 275.022153 
L 897.831808 275.188578 
L 900.684706 275.501466 
L 903.537604 274.522386 
L 906.390503 273.080348 
L 909.243401 272.50973 
L 912.096299 270.585493 
L 914.949197 267.833886 
L 917.802095 267.170137 
L 920.654993 268.391462 
L 923.507891 270.676333 
L 926.360789 272.081517 
L 929.213687 272.14996 
L 932.066586 272.582678 
L 934.919484 273.246308 
L 937.772382 273.492729 
L 940.62528 273.25352 
L 943.478178 273.364139 
L 946.331076 273.645644 
L 949.183974 274.28768 
L 952.036872 275.16534 
L 954.88977 275.060202 
L 960.595567 275.836866 
L 963.448465 276.002942 
L 966.301363 279.027938 
L 969.154261 280.282161 
L 972.007159 286.24717 
L 972.007159 286.24717 
" clip-path="url(#p93c6052bf1)" style="fill: none; stroke: #ff0000; stroke-width: 3; stroke-linecap: square"/>
   </g>
   <g id="patch_8">
    <path d="M 525.67125 313.478125 
L 525.67125 22.318125 
" style="fill: none; stroke: #000000; stroke-width: 0.8; stroke-linejoin: miter; stroke-linecap: square"/>
   </g>
   <g id="patch_9">
    <path d="M 993.26125 313.478125 
L 993.26125 22.318125 
" style="fill: none; stroke: #000000; stroke-width: 0.8; stroke-linejoin: miter; stroke-linecap: square"/>
   </g>
   <g id="patch_10">
    <path d="M 525.67125 313.478125 
L 993.26125 313.478125 
" style="fill: none; stroke: #000000; stroke-width: 0.8; stroke-linejoin: miter; stroke-linecap: square"/>
   </g>
   <g id="patch_11">
    <path d="M 525.67125 22.318125 
L 993.26125 22.318125 
" style="fill: none; stroke: #000000; stroke-width: 0.8; stroke-linejoin: miter; stroke-linecap: square"/>
   </g>
   <g id="text_29">
    <!-- Corridor 50.5 -->
    <g transform="translate(719.897187 16.318125) scale(0.12 -0.12)">
     <use xlink:href="#DejaVuSans-43"/>
     <use xlink:href="#DejaVuSans-6f" transform="translate(69.824219 0)"/>
     <use xlink:href="#DejaVuSans-72" transform="translate(131.005859 0)"/>
     <use xlink:href="#DejaVuSans-72" transform="translate(170.369141 0)"/>
     <use xlink:href="#DejaVuSans-69" transform="translate(211.482422 0)"/>
     <use xlink:href="#DejaVuSans-64" transform="translate(239.265625 0)"/>
     <use xlink:href="#DejaVuSans-6f" transform="translate(302.742188 0)"/>
     <use xlink:href="#DejaVuSans-72" transform="translate(363.923828 0)"/>
     <use xlink:href="#DejaVuSans-20" transform="translate(405.037109 0)"/>
     <use xlink:href="#DejaVuSans-35" transform="translate(436.824219 0)"/>
     <use xlink:href="#DejaVuSans-30" transform="translate(500.447266 0)"/>
     <use xlink:href="#DejaVuSans-2e" transform="translate(564.070312 0)"/>
     <use xlink:href="#DejaVuSans-35" transform="translate(595.857422 0)"/>
    </g>
   </g>
  </g>
 </g>
 <defs>
  <clipPath id="p0103b7c3f5">
   <rect x="43.78125" y="22.318125" width="467.59" height="291.16"/>
  </clipPath>
  <clipPath id="p93c6052bf1">
   <rect x="525.67125" y="22.318125" width="467.59" height="291.16"/>
  </clipPath>
 </defs>
</svg>
