<?xml version="1.0" encoding="utf-8" standalone="no"?>
<!DOCTYPE svg PUBLIC "-//W3C//DTD SVG 1.1//EN"
  "http://www.w3.org/Graphics/SVG/1.1/DTD/svg11.dtd">
<svg xmlns:xlink="http://www.w3.org/1999/xlink" width="1000.46125pt" height="351.034375pt" viewBox="0 0 1000.46125 351.034375" xmlns="http://www.w3.org/2000/svg" version="1.1">
 <metadata>
  <rdf:RDF xmlns:dc="http://purl.org/dc/elements/1.1/" xmlns:cc="http://creativecommons.org/ns#" xmlns:rdf="http://www.w3.org/1999/02/22-rdf-syntax-ns#">
   <cc:Work>
    <dc:type rdf:resource="http://purl.org/dc/dcmitype/StillImage"/>
    <dc:date>2025-10-10T12:40:10.379046</dc:date>
    <dc:format>image/svg+xml</dc:format>
    <dc:creator>
     <cc:Agent>
      <dc:title>Matplotlib v3.10.0, https://matplotlib.org/</dc:title>
     </cc:Agent>
    </dc:creator>
   </cc:Work>
  </rdf:RDF>
 </metadata>
 <defs>
  <style type="text/css">*{stroke-linejoin: round; stroke-linecap: butt}</style>
 </defs>
 <g id="figure_1">
  <g id="patch_1">
   <path d="M 0 351.034375 
L 1000.46125 351.034375 
L 1000.46125 0 
L 0 0 
z
" style="fill: #ffffff"/>
  </g>
  <g id="axes_1">
   <g id="patch_2">
    <path d="M 43.78125 313.478125 
L 511.37125 313.478125 
L 511.37125 22.318125 
L 43.78125 22.318125 
z
" style="fill: #ffffff"/>
   </g>
   <g id="FillBetweenPolyCollection_1">
    <path d="M 65.035341 278.947472 
L 65.035341 287.052856 
L 67.888239 288.000339 
L 70.741137 288.396469 
L 73.594035 287.364968 
L 76.446933 286.484141 
L 79.299831 284.97781 
L 82.15273 284.036387 
L 85.005628 283.574708 
L 87.858526 283.825105 
L 90.711424 284.036196 
L 93.564322 282.47046 
L 96.41722 281.248227 
L 99.270118 281.405354 
L 102.123016 281.679795 
L 104.975914 282.097016 
L 107.828813 281.126497 
L 110.681711 280.609975 
L 113.534609 282.131859 
L 116.387507 283.23529 
L 119.240405 283.490664 
L 122.093303 283.331713 
L 124.946201 281.763675 
L 127.799099 282.213949 
L 130.651997 282.32693 
L 133.504896 281.961736 
L 136.357794 281.343307 
L 139.210692 280.699135 
L 142.06359 281.897517 
L 144.916488 280.554268 
L 147.769386 279.849406 
L 150.622284 279.170358 
L 153.475182 278.382722 
L 156.32808 278.979123 
L 159.180978 279.272233 
L 162.033877 279.309203 
L 164.886775 278.080686 
L 167.739673 276.869638 
L 170.592571 276.959994 
L 173.445469 277.979708 
L 176.298367 278.524185 
L 179.151265 279.449662 
L 182.004163 281.278519 
L 184.857061 282.981849 
L 187.70996 285.865853 
L 190.562858 287.35986 
L 193.415756 286.467421 
L 196.268654 284.197049 
L 199.121552 280.777798 
L 201.97445 278.632659 
L 204.827348 277.33424 
L 207.680246 277.852765 
L 210.533144 277.773887 
L 213.386043 277.874033 
L 216.238941 278.305058 
L 219.091839 278.800875 
L 221.944737 278.704907 
L 224.797635 278.496929 
L 227.650533 278.278213 
L 230.503431 278.097621 
L 233.356329 278.541319 
L 236.209227 276.411791 
L 239.062126 276.108143 
L 241.915024 276.259057 
L 244.767922 276.860847 
L 247.62082 277.519368 
L 250.473718 279.091836 
L 253.326616 280.338338 
L 256.179514 281.677805 
L 259.032412 281.150118 
L 261.88531 280.223303 
L 264.738209 279.682597 
L 267.591107 278.83186 
L 270.444005 279.258065 
L 273.296903 279.988558 
L 276.149801 280.859803 
L 279.002699 281.627067 
L 281.855597 282.521953 
L 284.708495 282.180754 
L 287.561393 281.405006 
L 290.414291 281.64569 
L 293.26719 281.953579 
L 296.120088 281.930527 
L 298.972986 280.873776 
L 301.825884 281.330702 
L 304.678782 282.43371 
L 307.53168 283.570066 
L 310.384578 284.262683 
L 313.237476 285.369363 
L 316.090374 284.659224 
L 318.943273 285.401916 
L 321.796171 284.817095 
L 324.649069 285.517227 
L 327.501967 285.19763 
L 330.354865 284.967194 
L 333.207763 284.231561 
L 336.060661 283.259285 
L 338.913559 282.796163 
L 341.766457 282.396125 
L 344.619356 280.913742 
L 347.472254 281.66 
L 350.325152 283.054246 
L 353.17805 283.497316 
L 356.030948 283.911792 
L 358.883846 284.043729 
L 361.736744 284.94064 
L 364.589642 286.153002 
L 367.44254 286.961137 
L 370.295439 286.965558 
L 373.148337 285.84458 
L 376.001235 285.516594 
L 378.854133 285.743644 
L 381.707031 285.237187 
L 384.559929 284.83878 
L 387.412827 284.350159 
L 390.265725 283.301383 
L 393.118623 282.004228 
L 395.971522 281.512511 
L 398.82442 281.111835 
L 401.677318 281.492251 
L 404.530216 282.436675 
L 407.383114 283.313139 
L 410.236012 284.504799 
L 413.08891 285.976757 
L 415.941808 287.263915 
L 418.794706 288.387852 
L 421.647604 286.250699 
L 424.500503 285.797905 
L 427.353401 287.230724 
L 430.206299 286.48098 
L 433.059197 285.297054 
L 435.912095 283.254304 
L 438.764993 285.199829 
L 441.617891 283.943152 
L 444.470789 287.683185 
L 447.323687 289.056345 
L 450.176586 289.050684 
L 453.029484 286.605951 
L 455.882382 285.100448 
L 458.73528 284.874619 
L 461.588178 285.046316 
L 464.441076 283.910679 
L 467.293974 285.352268 
L 470.146872 286.196226 
L 472.99977 286.628772 
L 475.852669 286.128983 
L 478.705567 284.838458 
L 481.558465 283.647972 
L 484.411363 282.602559 
L 487.264261 282.757822 
L 490.117159 295.546536 
L 490.117159 272.735198 
L 490.117159 272.735198 
L 487.264261 266.659542 
L 484.411363 266.833014 
L 481.558465 266.940587 
L 478.705567 266.914462 
L 475.852669 267.184815 
L 472.99977 267.633018 
L 470.146872 267.166044 
L 467.293974 266.657338 
L 464.441076 268.478764 
L 461.588178 268.794697 
L 458.73528 269.925825 
L 455.882382 270.17822 
L 453.029484 270.810337 
L 450.176586 270.347755 
L 447.323687 269.190383 
L 444.470789 268.549511 
L 441.617891 268.301483 
L 438.764993 267.263521 
L 435.912095 266.662844 
L 433.059197 268.296499 
L 430.206299 268.876439 
L 427.353401 270.099145 
L 424.500503 270.203059 
L 421.647604 270.605794 
L 418.794706 270.629942 
L 415.941808 270.023841 
L 413.08891 270.787854 
L 410.236012 268.766147 
L 407.383114 267.016543 
L 404.530216 266.163547 
L 401.677318 266.054148 
L 398.82442 266.58175 
L 395.971522 267.820395 
L 393.118623 269.432753 
L 390.265725 271.855177 
L 387.412827 273.357035 
L 384.559929 274.24328 
L 381.707031 274.860611 
L 378.854133 275.238945 
L 376.001235 274.648079 
L 373.148337 275.787446 
L 370.295439 276.464595 
L 367.44254 276.821141 
L 364.589642 275.431839 
L 361.736744 274.065833 
L 358.883846 272.730278 
L 356.030948 272.470088 
L 353.17805 272.027033 
L 350.325152 272.460863 
L 347.472254 272.238983 
L 344.619356 272.50104 
L 341.766457 272.928733 
L 338.913559 273.004672 
L 336.060661 273.040551 
L 333.207763 273.28362 
L 330.354865 273.464545 
L 327.501967 273.845559 
L 324.649069 274.005214 
L 321.796171 273.569819 
L 318.943273 272.723646 
L 316.090374 272.455814 
L 313.237476 273.281899 
L 310.384578 274.075885 
L 307.53168 272.596243 
L 304.678782 271.371547 
L 301.825884 270.443241 
L 298.972986 269.614071 
L 296.120088 270.518712 
L 293.26719 271.380094 
L 290.414291 269.450242 
L 287.561393 267.766883 
L 284.708495 267.063459 
L 281.855597 266.886232 
L 279.002699 267.817686 
L 276.149801 268.191265 
L 273.296903 267.949601 
L 270.444005 267.518031 
L 267.591107 267.255441 
L 264.738209 267.397868 
L 261.88531 267.731391 
L 259.032412 269.735889 
L 256.179514 271.279735 
L 253.326616 270.911673 
L 250.473718 270.450562 
L 247.62082 269.980931 
L 244.767922 269.888913 
L 241.915024 269.496488 
L 239.062126 270.517824 
L 236.209227 271.308302 
L 233.356329 271.3227 
L 230.503431 270.647849 
L 227.650533 269.842766 
L 224.797635 268.820323 
L 221.944737 268.094066 
L 219.091839 268.050381 
L 216.238941 267.722155 
L 213.386043 267.784024 
L 210.533144 267.866502 
L 207.680246 267.093611 
L 204.827348 266.173934 
L 201.97445 261.466208 
L 199.121552 260.485645 
L 196.268654 261.493026 
L 193.415756 261.046938 
L 190.562858 260.453605 
L 187.70996 263.375826 
L 184.857061 266.845745 
L 182.004163 267.557645 
L 179.151265 266.992603 
L 176.298367 265.959249 
L 173.445469 265.144083 
L 170.592571 266.985817 
L 167.739673 268.580773 
L 164.886775 269.927488 
L 162.033877 270.908412 
L 159.180978 271.375883 
L 156.32808 271.721149 
L 153.475182 271.967236 
L 150.622284 273.047685 
L 147.769386 274.109475 
L 144.916488 274.31433 
L 142.06359 274.850487 
L 139.210692 273.740659 
L 136.357794 274.508202 
L 133.504896 275.332293 
L 130.651997 276.285406 
L 127.799099 276.278264 
L 124.946201 274.95472 
L 122.093303 275.953909 
L 119.240405 275.305055 
L 116.387507 275.577111 
L 113.534609 275.422634 
L 110.681711 274.176919 
L 107.828813 274.746509 
L 104.975914 274.928716 
L 102.123016 274.354517 
L 99.270118 273.743579 
L 96.41722 274.240664 
L 93.564322 275.040817 
L 90.711424 274.544483 
L 87.858526 273.684259 
L 85.005628 272.639423 
L 82.15273 272.754252 
L 79.299831 273.711366 
L 76.446933 274.900814 
L 73.594035 276.393376 
L 70.741137 275.146795 
L 67.888239 274.913914 
L 65.035341 278.947472 
z
" clip-path="url(#p58f7e1a5a7)" style="fill: #1f77b4; fill-opacity: 0.3"/>
   </g>
   <g id="matplotlib.axis_1">
    <g id="xtick_1">
     <g id="line2d_1">
      <defs>
       <path id="m86b2fb717b" d="M 0 0 
L 0 3.5 
" style="stroke: #000000; stroke-width: 0.8"/>
      </defs>
      <g>
       <use xlink:href="#m86b2fb717b" x="65.035341" y="313.478125" style="stroke: #000000; stroke-width: 0.8"/>
      </g>
     </g>
     <g id="text_1">
      <!-- 0 -->
      <g transform="translate(61.854091 328.076563) scale(0.1 -0.1)">
       <defs>
        <path id="DejaVuSans-30" d="M 2034 4250 
Q 1547 4250 1301 3770 
Q 1056 3291 1056 2328 
Q 1056 1369 1301 889 
Q 1547 409 2034 409 
Q 2525 409 2770 889 
Q 3016 1369 3016 2328 
Q 3016 3291 2770 3770 
Q 2525 4250 2034 4250 
z
M 2034 4750 
Q 2819 4750 3233 4129 
Q 3647 3509 3647 2328 
Q 3647 1150 3233 529 
Q 2819 -91 2034 -91 
Q 1250 -91 836 529 
Q 422 1150 422 2328 
Q 422 3509 836 4129 
Q 1250 4750 2034 4750 
z
" transform="scale(0.015625)"/>
       </defs>
       <use xlink:href="#DejaVuSans-30"/>
      </g>
     </g>
    </g>
    <g id="xtick_2">
     <g id="line2d_2">
      <g>
       <use xlink:href="#m86b2fb717b" x="116.387507" y="313.478125" style="stroke: #000000; stroke-width: 0.8"/>
      </g>
     </g>
     <g id="text_2">
      <!-- 18 -->
      <g transform="translate(110.025007 328.076563) scale(0.1 -0.1)">
       <defs>
        <path id="DejaVuSans-31" d="M 794 531 
L 1825 531 
L 1825 4091 
L 703 3866 
L 703 4441 
L 1819 4666 
L 2450 4666 
L 2450 531 
L 3481 531 
L 3481 0 
L 794 0 
L 794 531 
z
" transform="scale(0.015625)"/>
        <path id="DejaVuSans-38" d="M 2034 2216 
Q 1584 2216 1326 1975 
Q 1069 1734 1069 1313 
Q 1069 891 1326 650 
Q 1584 409 2034 409 
Q 2484 409 2743 651 
Q 3003 894 3003 1313 
Q 3003 1734 2745 1975 
Q 2488 2216 2034 2216 
z
M 1403 2484 
Q 997 2584 770 2862 
Q 544 3141 544 3541 
Q 544 4100 942 4425 
Q 1341 4750 2034 4750 
Q 2731 4750 3128 4425 
Q 3525 4100 3525 3541 
Q 3525 3141 3298 2862 
Q 3072 2584 2669 2484 
Q 3125 2378 3379 2068 
Q 3634 1759 3634 1313 
Q 3634 634 3220 271 
Q 2806 -91 2034 -91 
Q 1263 -91 848 271 
Q 434 634 434 1313 
Q 434 1759 690 2068 
Q 947 2378 1403 2484 
z
M 1172 3481 
Q 1172 3119 1398 2916 
Q 1625 2713 2034 2713 
Q 2441 2713 2670 2916 
Q 2900 3119 2900 3481 
Q 2900 3844 2670 4047 
Q 2441 4250 2034 4250 
Q 1625 4250 1398 4047 
Q 1172 3844 1172 3481 
z
" transform="scale(0.015625)"/>
       </defs>
       <use xlink:href="#DejaVuSans-31"/>
       <use xlink:href="#DejaVuSans-38" transform="translate(63.623047 0)"/>
      </g>
     </g>
    </g>
    <g id="xtick_3">
     <g id="line2d_3">
      <g>
       <use xlink:href="#m86b2fb717b" x="170.592571" y="313.478125" style="stroke: #000000; stroke-width: 0.8"/>
      </g>
     </g>
     <g id="text_3">
      <!-- 37 -->
      <g transform="translate(164.230071 328.076563) scale(0.1 -0.1)">
       <defs>
        <path id="DejaVuSans-33" d="M 2597 2516 
Q 3050 2419 3304 2112 
Q 3559 1806 3559 1356 
Q 3559 666 3084 287 
Q 2609 -91 1734 -91 
Q 1441 -91 1130 -33 
Q 819 25 488 141 
L 488 750 
Q 750 597 1062 519 
Q 1375 441 1716 441 
Q 2309 441 2620 675 
Q 2931 909 2931 1356 
Q 2931 1769 2642 2001 
Q 2353 2234 1838 2234 
L 1294 2234 
L 1294 2753 
L 1863 2753 
Q 2328 2753 2575 2939 
Q 2822 3125 2822 3475 
Q 2822 3834 2567 4026 
Q 2313 4219 1838 4219 
Q 1578 4219 1281 4162 
Q 984 4106 628 3988 
L 628 4550 
Q 988 4650 1302 4700 
Q 1616 4750 1894 4750 
Q 2613 4750 3031 4423 
Q 3450 4097 3450 3541 
Q 3450 3153 3228 2886 
Q 3006 2619 2597 2516 
z
" transform="scale(0.015625)"/>
        <path id="DejaVuSans-37" d="M 525 4666 
L 3525 4666 
L 3525 4397 
L 1831 0 
L 1172 0 
L 2766 4134 
L 525 4134 
L 525 4666 
z
" transform="scale(0.015625)"/>
       </defs>
       <use xlink:href="#DejaVuSans-33"/>
       <use xlink:href="#DejaVuSans-37" transform="translate(63.623047 0)"/>
      </g>
     </g>
    </g>
    <g id="xtick_4">
     <g id="line2d_4">
      <g>
       <use xlink:href="#m86b2fb717b" x="221.944737" y="313.478125" style="stroke: #000000; stroke-width: 0.8"/>
      </g>
     </g>
     <g id="text_4">
      <!-- 55 -->
      <g transform="translate(215.582237 328.076563) scale(0.1 -0.1)">
       <defs>
        <path id="DejaVuSans-35" d="M 691 4666 
L 3169 4666 
L 3169 4134 
L 1269 4134 
L 1269 2991 
Q 1406 3038 1543 3061 
Q 1681 3084 1819 3084 
Q 2600 3084 3056 2656 
Q 3513 2228 3513 1497 
Q 3513 744 3044 326 
Q 2575 -91 1722 -91 
Q 1428 -91 1123 -41 
Q 819 9 494 109 
L 494 744 
Q 775 591 1075 516 
Q 1375 441 1709 441 
Q 2250 441 2565 725 
Q 2881 1009 2881 1497 
Q 2881 1984 2565 2268 
Q 2250 2553 1709 2553 
Q 1456 2553 1204 2497 
Q 953 2441 691 2322 
L 691 4666 
z
" transform="scale(0.015625)"/>
       </defs>
       <use xlink:href="#DejaVuSans-35"/>
       <use xlink:href="#DejaVuSans-35" transform="translate(63.623047 0)"/>
      </g>
     </g>
    </g>
    <g id="xtick_5">
     <g id="line2d_5">
      <g>
       <use xlink:href="#m86b2fb717b" x="276.149801" y="313.478125" style="stroke: #000000; stroke-width: 0.8"/>
      </g>
     </g>
     <g id="text_5">
      <!-- 74 -->
      <g transform="translate(269.787301 328.076563) scale(0.1 -0.1)">
       <defs>
        <path id="DejaVuSans-34" d="M 2419 4116 
L 825 1625 
L 2419 1625 
L 2419 4116 
z
M 2253 4666 
L 3047 4666 
L 3047 1625 
L 3713 1625 
L 3713 1100 
L 3047 1100 
L 3047 0 
L 2419 0 
L 2419 1100 
L 313 1100 
L 313 1709 
L 2253 4666 
z
" transform="scale(0.015625)"/>
       </defs>
       <use xlink:href="#DejaVuSans-37"/>
       <use xlink:href="#DejaVuSans-34" transform="translate(63.623047 0)"/>
      </g>
     </g>
    </g>
    <g id="xtick_6">
     <g id="line2d_6">
      <g>
       <use xlink:href="#m86b2fb717b" x="330.354865" y="313.478125" style="stroke: #000000; stroke-width: 0.8"/>
      </g>
     </g>
     <g id="text_6">
      <!-- 93 -->
      <g transform="translate(323.992365 328.076563) scale(0.1 -0.1)">
       <defs>
        <path id="DejaVuSans-39" d="M 703 97 
L 703 672 
Q 941 559 1184 500 
Q 1428 441 1663 441 
Q 2288 441 2617 861 
Q 2947 1281 2994 2138 
Q 2813 1869 2534 1725 
Q 2256 1581 1919 1581 
Q 1219 1581 811 2004 
Q 403 2428 403 3163 
Q 403 3881 828 4315 
Q 1253 4750 1959 4750 
Q 2769 4750 3195 4129 
Q 3622 3509 3622 2328 
Q 3622 1225 3098 567 
Q 2575 -91 1691 -91 
Q 1453 -91 1209 -44 
Q 966 3 703 97 
z
M 1959 2075 
Q 2384 2075 2632 2365 
Q 2881 2656 2881 3163 
Q 2881 3666 2632 3958 
Q 2384 4250 1959 4250 
Q 1534 4250 1286 3958 
Q 1038 3666 1038 3163 
Q 1038 2656 1286 2365 
Q 1534 2075 1959 2075 
z
" transform="scale(0.015625)"/>
       </defs>
       <use xlink:href="#DejaVuSans-39"/>
       <use xlink:href="#DejaVuSans-33" transform="translate(63.623047 0)"/>
      </g>
     </g>
    </g>
    <g id="xtick_7">
     <g id="line2d_7">
      <g>
       <use xlink:href="#m86b2fb717b" x="381.707031" y="313.478125" style="stroke: #000000; stroke-width: 0.8"/>
      </g>
     </g>
     <g id="text_7">
      <!-- 111 -->
      <g transform="translate(372.163281 328.076563) scale(0.1 -0.1)">
       <use xlink:href="#DejaVuSans-31"/>
       <use xlink:href="#DejaVuSans-31" transform="translate(63.623047 0)"/>
       <use xlink:href="#DejaVuSans-31" transform="translate(127.246094 0)"/>
      </g>
     </g>
    </g>
    <g id="xtick_8">
     <g id="line2d_8">
      <g>
       <use xlink:href="#m86b2fb717b" x="435.912095" y="313.478125" style="stroke: #000000; stroke-width: 0.8"/>
      </g>
     </g>
     <g id="text_8">
      <!-- 130 -->
      <g transform="translate(426.368345 328.076563) scale(0.1 -0.1)">
       <use xlink:href="#DejaVuSans-31"/>
       <use xlink:href="#DejaVuSans-33" transform="translate(63.623047 0)"/>
       <use xlink:href="#DejaVuSans-30" transform="translate(127.246094 0)"/>
      </g>
     </g>
    </g>
    <g id="xtick_9">
     <g id="line2d_9">
      <g>
       <use xlink:href="#m86b2fb717b" x="490.117159" y="313.478125" style="stroke: #000000; stroke-width: 0.8"/>
      </g>
     </g>
     <g id="text_9">
      <!-- 149 -->
      <g transform="translate(480.573409 328.076563) scale(0.1 -0.1)">
       <use xlink:href="#DejaVuSans-31"/>
       <use xlink:href="#DejaVuSans-34" transform="translate(63.623047 0)"/>
       <use xlink:href="#DejaVuSans-39" transform="translate(127.246094 0)"/>
      </g>
     </g>
    </g>
    <g id="text_10">
     <!-- Spatial bin -->
     <g transform="translate(251.040313 341.754687) scale(0.1 -0.1)">
      <defs>
       <path id="DejaVuSans-53" d="M 3425 4513 
L 3425 3897 
Q 3066 4069 2747 4153 
Q 2428 4238 2131 4238 
Q 1616 4238 1336 4038 
Q 1056 3838 1056 3469 
Q 1056 3159 1242 3001 
Q 1428 2844 1947 2747 
L 2328 2669 
Q 3034 2534 3370 2195 
Q 3706 1856 3706 1288 
Q 3706 609 3251 259 
Q 2797 -91 1919 -91 
Q 1588 -91 1214 -16 
Q 841 59 441 206 
L 441 856 
Q 825 641 1194 531 
Q 1563 422 1919 422 
Q 2459 422 2753 634 
Q 3047 847 3047 1241 
Q 3047 1584 2836 1778 
Q 2625 1972 2144 2069 
L 1759 2144 
Q 1053 2284 737 2584 
Q 422 2884 422 3419 
Q 422 4038 858 4394 
Q 1294 4750 2059 4750 
Q 2388 4750 2728 4690 
Q 3069 4631 3425 4513 
z
" transform="scale(0.015625)"/>
       <path id="DejaVuSans-70" d="M 1159 525 
L 1159 -1331 
L 581 -1331 
L 581 3500 
L 1159 3500 
L 1159 2969 
Q 1341 3281 1617 3432 
Q 1894 3584 2278 3584 
Q 2916 3584 3314 3078 
Q 3713 2572 3713 1747 
Q 3713 922 3314 415 
Q 2916 -91 2278 -91 
Q 1894 -91 1617 61 
Q 1341 213 1159 525 
z
M 3116 1747 
Q 3116 2381 2855 2742 
Q 2594 3103 2138 3103 
Q 1681 3103 1420 2742 
Q 1159 2381 1159 1747 
Q 1159 1113 1420 752 
Q 1681 391 2138 391 
Q 2594 391 2855 752 
Q 3116 1113 3116 1747 
z
" transform="scale(0.015625)"/>
       <path id="DejaVuSans-61" d="M 2194 1759 
Q 1497 1759 1228 1600 
Q 959 1441 959 1056 
Q 959 750 1161 570 
Q 1363 391 1709 391 
Q 2188 391 2477 730 
Q 2766 1069 2766 1631 
L 2766 1759 
L 2194 1759 
z
M 3341 1997 
L 3341 0 
L 2766 0 
L 2766 531 
Q 2569 213 2275 61 
Q 1981 -91 1556 -91 
Q 1019 -91 701 211 
Q 384 513 384 1019 
Q 384 1609 779 1909 
Q 1175 2209 1959 2209 
L 2766 2209 
L 2766 2266 
Q 2766 2663 2505 2880 
Q 2244 3097 1772 3097 
Q 1472 3097 1187 3025 
Q 903 2953 641 2809 
L 641 3341 
Q 956 3463 1253 3523 
Q 1550 3584 1831 3584 
Q 2591 3584 2966 3190 
Q 3341 2797 3341 1997 
z
" transform="scale(0.015625)"/>
       <path id="DejaVuSans-74" d="M 1172 4494 
L 1172 3500 
L 2356 3500 
L 2356 3053 
L 1172 3053 
L 1172 1153 
Q 1172 725 1289 603 
Q 1406 481 1766 481 
L 2356 481 
L 2356 0 
L 1766 0 
Q 1100 0 847 248 
Q 594 497 594 1153 
L 594 3053 
L 172 3053 
L 172 3500 
L 594 3500 
L 594 4494 
L 1172 4494 
z
" transform="scale(0.015625)"/>
       <path id="DejaVuSans-69" d="M 603 3500 
L 1178 3500 
L 1178 0 
L 603 0 
L 603 3500 
z
M 603 4863 
L 1178 4863 
L 1178 4134 
L 603 4134 
L 603 4863 
z
" transform="scale(0.015625)"/>
       <path id="DejaVuSans-6c" d="M 603 4863 
L 1178 4863 
L 1178 0 
L 603 0 
L 603 4863 
z
" transform="scale(0.015625)"/>
       <path id="DejaVuSans-20" transform="scale(0.015625)"/>
       <path id="DejaVuSans-62" d="M 3116 1747 
Q 3116 2381 2855 2742 
Q 2594 3103 2138 3103 
Q 1681 3103 1420 2742 
Q 1159 2381 1159 1747 
Q 1159 1113 1420 752 
Q 1681 391 2138 391 
Q 2594 391 2855 752 
Q 3116 1113 3116 1747 
z
M 1159 2969 
Q 1341 3281 1617 3432 
Q 1894 3584 2278 3584 
Q 2916 3584 3314 3078 
Q 3713 2572 3713 1747 
Q 3713 922 3314 415 
Q 2916 -91 2278 -91 
Q 1894 -91 1617 61 
Q 1341 213 1159 525 
L 1159 0 
L 581 0 
L 581 4863 
L 1159 4863 
L 1159 2969 
z
" transform="scale(0.015625)"/>
       <path id="DejaVuSans-6e" d="M 3513 2113 
L 3513 0 
L 2938 0 
L 2938 2094 
Q 2938 2591 2744 2837 
Q 2550 3084 2163 3084 
Q 1697 3084 1428 2787 
Q 1159 2491 1159 1978 
L 1159 0 
L 581 0 
L 581 3500 
L 1159 3500 
L 1159 2956 
Q 1366 3272 1645 3428 
Q 1925 3584 2291 3584 
Q 2894 3584 3203 3211 
Q 3513 2838 3513 2113 
z
" transform="scale(0.015625)"/>
      </defs>
      <use xlink:href="#DejaVuSans-53"/>
      <use xlink:href="#DejaVuSans-70" transform="translate(63.476562 0)"/>
      <use xlink:href="#DejaVuSans-61" transform="translate(126.953125 0)"/>
      <use xlink:href="#DejaVuSans-74" transform="translate(188.232422 0)"/>
      <use xlink:href="#DejaVuSans-69" transform="translate(227.441406 0)"/>
      <use xlink:href="#DejaVuSans-61" transform="translate(255.224609 0)"/>
      <use xlink:href="#DejaVuSans-6c" transform="translate(316.503906 0)"/>
      <use xlink:href="#DejaVuSans-20" transform="translate(344.287109 0)"/>
      <use xlink:href="#DejaVuSans-62" transform="translate(376.074219 0)"/>
      <use xlink:href="#DejaVuSans-69" transform="translate(439.550781 0)"/>
      <use xlink:href="#DejaVuSans-6e" transform="translate(467.333984 0)"/>
     </g>
    </g>
   </g>
   <g id="matplotlib.axis_2">
    <g id="ytick_1">
     <g id="line2d_10">
      <defs>
       <path id="mca680da1ef" d="M 0 0 
L -3.5 0 
" style="stroke: #000000; stroke-width: 0.8"/>
      </defs>
      <g>
       <use xlink:href="#mca680da1ef" x="43.78125" y="287.009034" style="stroke: #000000; stroke-width: 0.8"/>
      </g>
     </g>
     <g id="text_11">
      <!-- 0.0 -->
      <g transform="translate(20.878125 290.808253) scale(0.1 -0.1)">
       <defs>
        <path id="DejaVuSans-2e" d="M 684 794 
L 1344 794 
L 1344 0 
L 684 0 
L 684 794 
z
" transform="scale(0.015625)"/>
       </defs>
       <use xlink:href="#DejaVuSans-30"/>
       <use xlink:href="#DejaVuSans-2e" transform="translate(63.623047 0)"/>
       <use xlink:href="#DejaVuSans-30" transform="translate(95.410156 0)"/>
      </g>
     </g>
    </g>
    <g id="ytick_2">
     <g id="line2d_11">
      <g>
       <use xlink:href="#mca680da1ef" x="43.78125" y="234.070852" style="stroke: #000000; stroke-width: 0.8"/>
      </g>
     </g>
     <g id="text_12">
      <!-- 0.2 -->
      <g transform="translate(20.878125 237.870071) scale(0.1 -0.1)">
       <defs>
        <path id="DejaVuSans-32" d="M 1228 531 
L 3431 531 
L 3431 0 
L 469 0 
L 469 531 
Q 828 903 1448 1529 
Q 2069 2156 2228 2338 
Q 2531 2678 2651 2914 
Q 2772 3150 2772 3378 
Q 2772 3750 2511 3984 
Q 2250 4219 1831 4219 
Q 1534 4219 1204 4116 
Q 875 4013 500 3803 
L 500 4441 
Q 881 4594 1212 4672 
Q 1544 4750 1819 4750 
Q 2544 4750 2975 4387 
Q 3406 4025 3406 3419 
Q 3406 3131 3298 2873 
Q 3191 2616 2906 2266 
Q 2828 2175 2409 1742 
Q 1991 1309 1228 531 
z
" transform="scale(0.015625)"/>
       </defs>
       <use xlink:href="#DejaVuSans-30"/>
       <use xlink:href="#DejaVuSans-2e" transform="translate(63.623047 0)"/>
       <use xlink:href="#DejaVuSans-32" transform="translate(95.410156 0)"/>
      </g>
     </g>
    </g>
    <g id="ytick_3">
     <g id="line2d_12">
      <g>
       <use xlink:href="#mca680da1ef" x="43.78125" y="181.13267" style="stroke: #000000; stroke-width: 0.8"/>
      </g>
     </g>
     <g id="text_13">
      <!-- 0.4 -->
      <g transform="translate(20.878125 184.931889) scale(0.1 -0.1)">
       <use xlink:href="#DejaVuSans-30"/>
       <use xlink:href="#DejaVuSans-2e" transform="translate(63.623047 0)"/>
       <use xlink:href="#DejaVuSans-34" transform="translate(95.410156 0)"/>
      </g>
     </g>
    </g>
    <g id="ytick_4">
     <g id="line2d_13">
      <g>
       <use xlink:href="#mca680da1ef" x="43.78125" y="128.194489" style="stroke: #000000; stroke-width: 0.8"/>
      </g>
     </g>
     <g id="text_14">
      <!-- 0.6 -->
      <g transform="translate(20.878125 131.993707) scale(0.1 -0.1)">
       <defs>
        <path id="DejaVuSans-36" d="M 2113 2584 
Q 1688 2584 1439 2293 
Q 1191 2003 1191 1497 
Q 1191 994 1439 701 
Q 1688 409 2113 409 
Q 2538 409 2786 701 
Q 3034 994 3034 1497 
Q 3034 2003 2786 2293 
Q 2538 2584 2113 2584 
z
M 3366 4563 
L 3366 3988 
Q 3128 4100 2886 4159 
Q 2644 4219 2406 4219 
Q 1781 4219 1451 3797 
Q 1122 3375 1075 2522 
Q 1259 2794 1537 2939 
Q 1816 3084 2150 3084 
Q 2853 3084 3261 2657 
Q 3669 2231 3669 1497 
Q 3669 778 3244 343 
Q 2819 -91 2113 -91 
Q 1303 -91 875 529 
Q 447 1150 447 2328 
Q 447 3434 972 4092 
Q 1497 4750 2381 4750 
Q 2619 4750 2861 4703 
Q 3103 4656 3366 4563 
z
" transform="scale(0.015625)"/>
       </defs>
       <use xlink:href="#DejaVuSans-30"/>
       <use xlink:href="#DejaVuSans-2e" transform="translate(63.623047 0)"/>
       <use xlink:href="#DejaVuSans-36" transform="translate(95.410156 0)"/>
      </g>
     </g>
    </g>
    <g id="ytick_5">
     <g id="line2d_14">
      <g>
       <use xlink:href="#mca680da1ef" x="43.78125" y="75.256307" style="stroke: #000000; stroke-width: 0.8"/>
      </g>
     </g>
     <g id="text_15">
      <!-- 0.8 -->
      <g transform="translate(20.878125 79.055526) scale(0.1 -0.1)">
       <use xlink:href="#DejaVuSans-30"/>
       <use xlink:href="#DejaVuSans-2e" transform="translate(63.623047 0)"/>
       <use xlink:href="#DejaVuSans-38" transform="translate(95.410156 0)"/>
      </g>
     </g>
    </g>
    <g id="ytick_6">
     <g id="line2d_15">
      <g>
       <use xlink:href="#mca680da1ef" x="43.78125" y="22.318125" style="stroke: #000000; stroke-width: 0.8"/>
      </g>
     </g>
     <g id="text_16">
      <!-- 1.0 -->
      <g transform="translate(20.878125 26.117344) scale(0.1 -0.1)">
       <use xlink:href="#DejaVuSans-31"/>
       <use xlink:href="#DejaVuSans-2e" transform="translate(63.623047 0)"/>
       <use xlink:href="#DejaVuSans-30" transform="translate(95.410156 0)"/>
      </g>
     </g>
    </g>
    <g id="text_17">
     <!-- dF/F -->
     <g transform="translate(14.798438 178.508281) rotate(-90) scale(0.1 -0.1)">
      <defs>
       <path id="DejaVuSans-64" d="M 2906 2969 
L 2906 4863 
L 3481 4863 
L 3481 0 
L 2906 0 
L 2906 525 
Q 2725 213 2448 61 
Q 2172 -91 1784 -91 
Q 1150 -91 751 415 
Q 353 922 353 1747 
Q 353 2572 751 3078 
Q 1150 3584 1784 3584 
Q 2172 3584 2448 3432 
Q 2725 3281 2906 2969 
z
M 947 1747 
Q 947 1113 1208 752 
Q 1469 391 1925 391 
Q 2381 391 2643 752 
Q 2906 1113 2906 1747 
Q 2906 2381 2643 2742 
Q 2381 3103 1925 3103 
Q 1469 3103 1208 2742 
Q 947 2381 947 1747 
z
" transform="scale(0.015625)"/>
       <path id="DejaVuSans-46" d="M 628 4666 
L 3309 4666 
L 3309 4134 
L 1259 4134 
L 1259 2759 
L 3109 2759 
L 3109 2228 
L 1259 2228 
L 1259 0 
L 628 0 
L 628 4666 
z
" transform="scale(0.015625)"/>
       <path id="DejaVuSans-2f" d="M 1625 4666 
L 2156 4666 
L 531 -594 
L 0 -594 
L 1625 4666 
z
" transform="scale(0.015625)"/>
      </defs>
      <use xlink:href="#DejaVuSans-64"/>
      <use xlink:href="#DejaVuSans-46" transform="translate(63.476562 0)"/>
      <use xlink:href="#DejaVuSans-2f" transform="translate(120.996094 0)"/>
      <use xlink:href="#DejaVuSans-46" transform="translate(154.6875 0)"/>
     </g>
    </g>
   </g>
   <g id="line2d_16">
    <path d="M 65.035341 283.000164 
L 67.888239 281.457127 
L 70.741137 281.771632 
L 73.594035 281.879172 
L 76.446933 280.692477 
L 79.299831 279.344588 
L 82.15273 278.395319 
L 85.005628 278.107066 
L 90.711424 279.29034 
L 93.564322 278.755638 
L 96.41722 277.744445 
L 99.270118 277.574466 
L 104.975914 278.512866 
L 110.681711 277.393447 
L 113.534609 278.777246 
L 116.387507 279.4062 
L 119.240405 279.39786 
L 122.093303 279.642811 
L 124.946201 278.359198 
L 127.799099 279.246106 
L 130.651997 279.306168 
L 139.210692 277.219897 
L 142.06359 278.374002 
L 144.916488 277.434299 
L 147.769386 276.97944 
L 153.475182 275.174979 
L 156.32808 275.350136 
L 159.180978 275.324058 
L 162.033877 275.108807 
L 164.886775 274.004087 
L 167.739673 272.725206 
L 170.592571 271.972906 
L 173.445469 271.561896 
L 176.298367 272.241717 
L 179.151265 273.221133 
L 182.004163 274.418082 
L 184.857061 274.913797 
L 187.70996 274.62084 
L 190.562858 273.906733 
L 193.415756 273.757179 
L 196.268654 272.845037 
L 199.121552 270.631722 
L 201.97445 270.049433 
L 204.827348 271.754087 
L 207.680246 272.473188 
L 210.533144 272.820194 
L 213.386043 272.829028 
L 216.238941 273.013606 
L 219.091839 273.425628 
L 221.944737 273.399487 
L 224.797635 273.658626 
L 233.356329 274.932009 
L 236.209227 273.860046 
L 241.915024 272.877772 
L 244.767922 273.37488 
L 247.62082 273.750149 
L 250.473718 274.771199 
L 256.179514 276.47877 
L 259.032412 275.443003 
L 261.88531 273.977347 
L 267.591107 273.043651 
L 270.444005 273.388048 
L 276.149801 274.525534 
L 279.002699 274.722376 
L 287.561393 274.585945 
L 290.414291 275.547966 
L 293.26719 276.666837 
L 296.120088 276.224619 
L 298.972986 275.243923 
L 301.825884 275.886971 
L 304.678782 276.902628 
L 310.384578 279.169284 
L 313.237476 279.325631 
L 316.090374 278.557519 
L 318.943273 279.062781 
L 321.796171 279.193457 
L 324.649069 279.761221 
L 330.354865 279.215869 
L 333.207763 278.75759 
L 336.060661 278.149918 
L 341.766457 277.662429 
L 344.619356 276.707391 
L 347.472254 276.949492 
L 350.325152 277.757554 
L 353.17805 277.762175 
L 356.030948 278.19094 
L 358.883846 278.387004 
L 361.736744 279.503237 
L 364.589642 280.79242 
L 367.44254 281.891139 
L 370.295439 281.715077 
L 373.148337 280.816013 
L 376.001235 280.082337 
L 378.854133 280.491294 
L 384.559929 279.54103 
L 387.412827 278.853597 
L 390.265725 277.57828 
L 393.118623 275.718491 
L 395.971522 274.666453 
L 398.82442 273.846792 
L 401.677318 273.773199 
L 404.530216 274.300111 
L 407.383114 275.164841 
L 410.236012 276.635473 
L 413.08891 278.382305 
L 415.941808 278.643878 
L 418.794706 279.508897 
L 421.647604 278.428246 
L 424.500503 278.000482 
L 427.353401 278.664935 
L 433.059197 276.796776 
L 435.912095 274.958574 
L 438.764993 276.231675 
L 441.617891 276.122317 
L 444.470789 278.116348 
L 447.323687 279.123364 
L 450.176586 279.69922 
L 455.882382 277.639334 
L 458.73528 277.400222 
L 461.588178 276.920506 
L 464.441076 276.194722 
L 467.293974 276.004803 
L 470.146872 276.681135 
L 472.99977 277.130895 
L 475.852669 276.656899 
L 478.705567 275.87646 
L 484.411363 274.717786 
L 487.264261 274.708682 
L 490.117159 284.140867 
L 490.117159 284.140867 
" clip-path="url(#p58f7e1a5a7)" style="fill: none; stroke: #ff0000; stroke-width: 3; stroke-linecap: square"/>
   </g>
   <g id="patch_3">
    <path d="M 43.78125 313.478125 
L 43.78125 22.318125 
" style="fill: none; stroke: #000000; stroke-width: 0.8; stroke-linejoin: miter; stroke-linecap: square"/>
   </g>
   <g id="patch_4">
    <path d="M 511.37125 313.478125 
L 511.37125 22.318125 
" style="fill: none; stroke: #000000; stroke-width: 0.8; stroke-linejoin: miter; stroke-linecap: square"/>
   </g>
   <g id="patch_5">
    <path d="M 43.78125 313.478125 
L 511.37125 313.478125 
" style="fill: none; stroke: #000000; stroke-width: 0.8; stroke-linejoin: miter; stroke-linecap: square"/>
   </g>
   <g id="patch_6">
    <path d="M 43.78125 22.318125 
L 511.37125 22.318125 
" style="fill: none; stroke: #000000; stroke-width: 0.8; stroke-linejoin: miter; stroke-linecap: square"/>
   </g>
   <g id="text_18">
    <!-- Corridor -0.0 -->
    <g transform="translate(239.66 16.318125) scale(0.12 -0.12)">
     <defs>
      <path id="DejaVuSans-43" d="M 4122 4306 
L 4122 3641 
Q 3803 3938 3442 4084 
Q 3081 4231 2675 4231 
Q 1875 4231 1450 3742 
Q 1025 3253 1025 2328 
Q 1025 1406 1450 917 
Q 1875 428 2675 428 
Q 3081 428 3442 575 
Q 3803 722 4122 1019 
L 4122 359 
Q 3791 134 3420 21 
Q 3050 -91 2638 -91 
Q 1578 -91 968 557 
Q 359 1206 359 2328 
Q 359 3453 968 4101 
Q 1578 4750 2638 4750 
Q 3056 4750 3426 4639 
Q 3797 4528 4122 4306 
z
" transform="scale(0.015625)"/>
      <path id="DejaVuSans-6f" d="M 1959 3097 
Q 1497 3097 1228 2736 
Q 959 2375 959 1747 
Q 959 1119 1226 758 
Q 1494 397 1959 397 
Q 2419 397 2687 759 
Q 2956 1122 2956 1747 
Q 2956 2369 2687 2733 
Q 2419 3097 1959 3097 
z
M 1959 3584 
Q 2709 3584 3137 3096 
Q 3566 2609 3566 1747 
Q 3566 888 3137 398 
Q 2709 -91 1959 -91 
Q 1206 -91 779 398 
Q 353 888 353 1747 
Q 353 2609 779 3096 
Q 1206 3584 1959 3584 
z
" transform="scale(0.015625)"/>
      <path id="DejaVuSans-72" d="M 2631 2963 
Q 2534 3019 2420 3045 
Q 2306 3072 2169 3072 
Q 1681 3072 1420 2755 
Q 1159 2438 1159 1844 
L 1159 0 
L 581 0 
L 581 3500 
L 1159 3500 
L 1159 2956 
Q 1341 3275 1631 3429 
Q 1922 3584 2338 3584 
Q 2397 3584 2469 3576 
Q 2541 3569 2628 3553 
L 2631 2963 
z
" transform="scale(0.015625)"/>
      <path id="DejaVuSans-2d" d="M 313 2009 
L 1997 2009 
L 1997 1497 
L 313 1497 
L 313 2009 
z
" transform="scale(0.015625)"/>
     </defs>
     <use xlink:href="#DejaVuSans-43"/>
     <use xlink:href="#DejaVuSans-6f" transform="translate(69.824219 0)"/>
     <use xlink:href="#DejaVuSans-72" transform="translate(131.005859 0)"/>
     <use xlink:href="#DejaVuSans-72" transform="translate(170.369141 0)"/>
     <use xlink:href="#DejaVuSans-69" transform="translate(211.482422 0)"/>
     <use xlink:href="#DejaVuSans-64" transform="translate(239.265625 0)"/>
     <use xlink:href="#DejaVuSans-6f" transform="translate(302.742188 0)"/>
     <use xlink:href="#DejaVuSans-72" transform="translate(363.923828 0)"/>
     <use xlink:href="#DejaVuSans-20" transform="translate(405.037109 0)"/>
     <use xlink:href="#DejaVuSans-2d" transform="translate(436.824219 0)"/>
     <use xlink:href="#DejaVuSans-30" transform="translate(472.908203 0)"/>
     <use xlink:href="#DejaVuSans-2e" transform="translate(536.53125 0)"/>
     <use xlink:href="#DejaVuSans-30" transform="translate(568.318359 0)"/>
    </g>
   </g>
  </g>
  <g id="axes_2">
   <g id="patch_7">
    <path d="M 525.67125 313.478125 
L 993.26125 313.478125 
L 993.26125 22.318125 
L 525.67125 22.318125 
z
" style="fill: #ffffff"/>
   </g>
   <g id="FillBetweenPolyCollection_2">
    <path d="M 546.925341 282.952708 
L 546.925341 290.220728 
L 549.778239 289.033504 
L 552.631137 288.53127 
L 555.484035 287.76018 
L 558.336933 286.333866 
L 561.189831 285.284978 
L 564.04273 284.791909 
L 566.895628 285.047696 
L 569.748526 284.217573 
L 572.601424 284.509126 
L 575.454322 284.022222 
L 578.30722 284.12369 
L 581.160118 284.378744 
L 584.013016 284.99708 
L 586.865914 284.218614 
L 589.718813 282.993806 
L 592.571711 282.162411 
L 595.424609 282.125911 
L 598.277507 282.706375 
L 601.130405 283.302532 
L 603.983303 282.340511 
L 606.836201 281.701892 
L 609.689099 281.646925 
L 612.541997 281.97056 
L 615.394896 282.307288 
L 618.247794 282.649446 
L 621.100692 282.962336 
L 623.95359 283.808176 
L 626.806488 284.108315 
L 629.659386 284.529189 
L 632.512284 284.186511 
L 635.365182 284.725791 
L 638.21808 284.88196 
L 641.070978 284.567335 
L 643.923877 285.53288 
L 646.776775 286.093602 
L 649.629673 285.681523 
L 652.482571 284.745831 
L 655.335469 288.108051 
L 658.188367 286.845576 
L 661.041265 286.135433 
L 663.894163 286.55811 
L 666.747061 285.768025 
L 669.59996 286.124577 
L 672.452858 285.662545 
L 675.305756 284.807656 
L 678.158654 283.547167 
L 681.011552 281.580672 
L 683.86445 280.113358 
L 686.717348 279.926322 
L 689.570246 280.774919 
L 692.423144 281.67961 
L 695.276043 282.162642 
L 698.128941 280.783507 
L 700.981839 277.723661 
L 703.834737 270.128579 
L 706.687635 259.546487 
L 709.540533 246.424171 
L 712.393431 233.796267 
L 715.246329 218.895391 
L 718.099227 205.691463 
L 720.952126 195.598564 
L 723.805024 190.701059 
L 726.657922 191.996975 
L 729.51082 196.270564 
L 732.363718 200.673443 
L 735.216616 207.073938 
L 738.069514 216.124711 
L 740.922412 237.649765 
L 743.77531 246.948598 
L 746.628209 252.591688 
L 749.481107 257.882637 
L 752.334005 257.322334 
L 755.186903 257.534408 
L 758.039801 259.789316 
L 760.892699 262.945999 
L 763.745597 262.749951 
L 766.598495 265.993569 
L 769.451393 265.850134 
L 772.304291 266.713456 
L 775.15719 268.876987 
L 778.010088 269.921319 
L 780.862986 270.993032 
L 783.715884 272.414784 
L 786.568782 273.384521 
L 789.42168 275.738284 
L 792.274578 274.746061 
L 795.127476 274.27653 
L 797.980374 274.3429 
L 800.833273 274.973292 
L 803.686171 275.74943 
L 806.539069 276.433866 
L 809.391967 277.340254 
L 812.244865 278.055321 
L 815.097763 278.087934 
L 817.950661 277.830954 
L 820.803559 278.350145 
L 823.656457 278.468908 
L 826.509356 278.589204 
L 829.362254 278.498732 
L 832.215152 278.972008 
L 835.06805 278.775928 
L 837.920948 278.293401 
L 840.773846 282.83286 
L 843.626744 275.958267 
L 846.479642 277.409217 
L 849.33254 276.08134 
L 852.185439 276.22314 
L 855.038337 277.002437 
L 857.891235 277.281255 
L 860.744133 278.560288 
L 863.597031 280.272779 
L 866.449929 280.68048 
L 869.302827 280.725485 
L 872.155725 281.036207 
L 875.008623 281.36562 
L 877.861522 281.301719 
L 880.71442 281.293757 
L 883.567318 281.264996 
L 886.420216 281.653441 
L 889.273114 282.624539 
L 892.126012 282.961759 
L 894.97891 283.236338 
L 897.831808 283.437323 
L 900.684706 283.594161 
L 903.537604 282.836651 
L 906.390503 283.116361 
L 909.243401 283.421919 
L 912.096299 283.053468 
L 914.949197 281.75565 
L 917.802095 281.511048 
L 920.654993 282.465 
L 923.507891 281.906562 
L 926.360789 281.592304 
L 929.213687 281.124869 
L 932.066586 280.507039 
L 934.919484 280.994725 
L 937.772382 281.660413 
L 940.62528 282.986714 
L 943.478178 283.915497 
L 946.331076 284.767419 
L 949.183974 285.289468 
L 952.036872 285.325104 
L 954.88977 285.67395 
L 957.742669 283.985305 
L 960.595567 283.732233 
L 963.448465 284.370237 
L 966.301363 284.963449 
L 969.154261 286.359459 
L 972.007159 290.237898 
L 972.007159 278.098418 
L 972.007159 278.098418 
L 969.154261 275.123502 
L 966.301363 275.905488 
L 963.448465 274.504995 
L 960.595567 274.139793 
L 957.742669 273.341075 
L 954.88977 272.423509 
L 952.036872 272.584411 
L 949.183974 272.064011 
L 946.331076 271.281891 
L 943.478178 270.572136 
L 940.62528 270.055036 
L 937.772382 269.477192 
L 934.919484 269.473188 
L 932.066586 268.905626 
L 929.213687 268.273171 
L 926.360789 266.999956 
L 923.507891 267.648627 
L 920.654993 265.709209 
L 917.802095 263.552447 
L 914.949197 263.3682 
L 912.096299 265.058071 
L 909.243401 266.348938 
L 906.390503 266.992823 
L 903.537604 268.30367 
L 900.684706 269.988518 
L 897.831808 270.249479 
L 894.97891 271.425058 
L 892.126012 271.535066 
L 889.273114 270.698748 
L 886.420216 269.274412 
L 883.567318 267.948952 
L 880.71442 267.089402 
L 877.861522 266.733875 
L 875.008623 267.464226 
L 872.155725 267.803812 
L 869.302827 268.135443 
L 866.449929 268.571957 
L 863.597031 268.638559 
L 860.744133 266.817844 
L 857.891235 264.861044 
L 855.038337 263.671623 
L 852.185439 262.882533 
L 849.33254 262.655833 
L 846.479642 262.516369 
L 843.626744 263.619359 
L 840.773846 264.598774 
L 837.920948 263.624314 
L 835.06805 264.265632 
L 832.215152 264.194192 
L 829.362254 263.888202 
L 826.509356 263.527675 
L 823.656457 262.526929 
L 820.803559 263.313843 
L 817.950661 262.6193 
L 815.097763 263.702221 
L 812.244865 263.439523 
L 809.391967 262.089791 
L 806.539069 260.433086 
L 803.686171 257.954882 
L 800.833273 256.76555 
L 797.980374 255.329213 
L 795.127476 252.643234 
L 792.274578 249.982455 
L 789.42168 249.899142 
L 786.568782 246.932333 
L 783.715884 244.312464 
L 780.862986 241.092908 
L 778.010088 237.023129 
L 775.15719 232.746507 
L 772.304291 227.610748 
L 769.451393 222.88381 
L 766.598495 221.797892 
L 763.745597 215.34151 
L 760.892699 210.17204 
L 758.039801 209.622376 
L 755.186903 205.114567 
L 752.334005 198.906183 
L 749.481107 191.516221 
L 746.628209 185.10721 
L 743.77531 180.055978 
L 740.922412 173.133762 
L 738.069514 161.697375 
L 735.216616 155.482296 
L 732.363718 151.709226 
L 729.51082 149.93667 
L 726.657922 148.839129 
L 723.805024 149.70856 
L 720.952126 153.211362 
L 718.099227 161.671343 
L 715.246329 176.077931 
L 712.393431 189.005226 
L 709.540533 197.731392 
L 706.687635 212.282709 
L 703.834737 229.362997 
L 700.981839 250.970861 
L 698.128941 264.022421 
L 695.276043 267.233332 
L 692.423144 268.664325 
L 689.570246 269.490297 
L 686.717348 268.268158 
L 683.86445 268.544569 
L 681.011552 271.404377 
L 678.158654 274.018241 
L 675.305756 275.410738 
L 672.452858 275.693631 
L 669.59996 274.974294 
L 666.747061 273.52872 
L 663.894163 272.36038 
L 661.041265 270.423766 
L 658.188367 266.646455 
L 655.335469 261.097852 
L 652.482571 270.602808 
L 649.629673 277.033273 
L 646.776775 277.902683 
L 643.923877 277.851194 
L 641.070978 277.363182 
L 638.21808 277.565087 
L 635.365182 277.948785 
L 632.512284 277.477938 
L 629.659386 277.68916 
L 626.806488 277.498145 
L 623.95359 277.211376 
L 621.100692 276.783153 
L 618.247794 276.547357 
L 615.394896 276.498778 
L 612.541997 276.137213 
L 609.689099 275.470766 
L 606.836201 275.387938 
L 603.983303 275.973098 
L 601.130405 276.546778 
L 598.277507 276.578412 
L 595.424609 276.446422 
L 592.571711 276.220748 
L 589.718813 276.884117 
L 586.865914 278.276548 
L 584.013016 278.349049 
L 581.160118 278.055067 
L 578.30722 277.66308 
L 575.454322 277.368432 
L 572.601424 278.124097 
L 569.748526 278.152043 
L 566.895628 279.450062 
L 564.04273 279.457626 
L 561.189831 280.128199 
L 558.336933 281.013237 
L 555.484035 282.227801 
L 552.631137 281.966651 
L 549.778239 282.286161 
L 546.925341 282.952708 
z
" clip-path="url(#pef6ebca322)" style="fill: #1f77b4; fill-opacity: 0.3"/>
   </g>
   <g id="matplotlib.axis_3">
    <g id="xtick_10">
     <g id="line2d_17">
      <g>
       <use xlink:href="#m86b2fb717b" x="546.925341" y="313.478125" style="stroke: #000000; stroke-width: 0.8"/>
      </g>
     </g>
     <g id="text_19">
      <!-- 0 -->
      <g transform="translate(543.744091 328.076563) scale(0.1 -0.1)">
       <use xlink:href="#DejaVuSans-30"/>
      </g>
     </g>
    </g>
    <g id="xtick_11">
     <g id="line2d_18">
      <g>
       <use xlink:href="#m86b2fb717b" x="598.277507" y="313.478125" style="stroke: #000000; stroke-width: 0.8"/>
      </g>
     </g>
     <g id="text_20">
      <!-- 18 -->
      <g transform="translate(591.915007 328.076563) scale(0.1 -0.1)">
       <use xlink:href="#DejaVuSans-31"/>
       <use xlink:href="#DejaVuSans-38" transform="translate(63.623047 0)"/>
      </g>
     </g>
    </g>
    <g id="xtick_12">
     <g id="line2d_19">
      <g>
       <use xlink:href="#m86b2fb717b" x="652.482571" y="313.478125" style="stroke: #000000; stroke-width: 0.8"/>
      </g>
     </g>
     <g id="text_21">
      <!-- 37 -->
      <g transform="translate(646.120071 328.076563) scale(0.1 -0.1)">
       <use xlink:href="#DejaVuSans-33"/>
       <use xlink:href="#DejaVuSans-37" transform="translate(63.623047 0)"/>
      </g>
     </g>
    </g>
    <g id="xtick_13">
     <g id="line2d_20">
      <g>
       <use xlink:href="#m86b2fb717b" x="703.834737" y="313.478125" style="stroke: #000000; stroke-width: 0.8"/>
      </g>
     </g>
     <g id="text_22">
      <!-- 55 -->
      <g transform="translate(697.472237 328.076563) scale(0.1 -0.1)">
       <use xlink:href="#DejaVuSans-35"/>
       <use xlink:href="#DejaVuSans-35" transform="translate(63.623047 0)"/>
      </g>
     </g>
    </g>
    <g id="xtick_14">
     <g id="line2d_21">
      <g>
       <use xlink:href="#m86b2fb717b" x="758.039801" y="313.478125" style="stroke: #000000; stroke-width: 0.8"/>
      </g>
     </g>
     <g id="text_23">
      <!-- 74 -->
      <g transform="translate(751.677301 328.076563) scale(0.1 -0.1)">
       <use xlink:href="#DejaVuSans-37"/>
       <use xlink:href="#DejaVuSans-34" transform="translate(63.623047 0)"/>
      </g>
     </g>
    </g>
    <g id="xtick_15">
     <g id="line2d_22">
      <g>
       <use xlink:href="#m86b2fb717b" x="812.244865" y="313.478125" style="stroke: #000000; stroke-width: 0.8"/>
      </g>
     </g>
     <g id="text_24">
      <!-- 93 -->
      <g transform="translate(805.882365 328.076563) scale(0.1 -0.1)">
       <use xlink:href="#DejaVuSans-39"/>
       <use xlink:href="#DejaVuSans-33" transform="translate(63.623047 0)"/>
      </g>
     </g>
    </g>
    <g id="xtick_16">
     <g id="line2d_23">
      <g>
       <use xlink:href="#m86b2fb717b" x="863.597031" y="313.478125" style="stroke: #000000; stroke-width: 0.8"/>
      </g>
     </g>
     <g id="text_25">
      <!-- 111 -->
      <g transform="translate(854.053281 328.076563) scale(0.1 -0.1)">
       <use xlink:href="#DejaVuSans-31"/>
       <use xlink:href="#DejaVuSans-31" transform="translate(63.623047 0)"/>
       <use xlink:href="#DejaVuSans-31" transform="translate(127.246094 0)"/>
      </g>
     </g>
    </g>
    <g id="xtick_17">
     <g id="line2d_24">
      <g>
       <use xlink:href="#m86b2fb717b" x="917.802095" y="313.478125" style="stroke: #000000; stroke-width: 0.8"/>
      </g>
     </g>
     <g id="text_26">
      <!-- 130 -->
      <g transform="translate(908.258345 328.076563) scale(0.1 -0.1)">
       <use xlink:href="#DejaVuSans-31"/>
       <use xlink:href="#DejaVuSans-33" transform="translate(63.623047 0)"/>
       <use xlink:href="#DejaVuSans-30" transform="translate(127.246094 0)"/>
      </g>
     </g>
    </g>
    <g id="xtick_18">
     <g id="line2d_25">
      <g>
       <use xlink:href="#m86b2fb717b" x="972.007159" y="313.478125" style="stroke: #000000; stroke-width: 0.8"/>
      </g>
     </g>
     <g id="text_27">
      <!-- 149 -->
      <g transform="translate(962.463409 328.076563) scale(0.1 -0.1)">
       <use xlink:href="#DejaVuSans-31"/>
       <use xlink:href="#DejaVuSans-34" transform="translate(63.623047 0)"/>
       <use xlink:href="#DejaVuSans-39" transform="translate(127.246094 0)"/>
      </g>
     </g>
    </g>
    <g id="text_28">
     <!-- Spatial bin -->
     <g transform="translate(732.930312 341.754687) scale(0.1 -0.1)">
      <use xlink:href="#DejaVuSans-53"/>
      <use xlink:href="#DejaVuSans-70" transform="translate(63.476562 0)"/>
      <use xlink:href="#DejaVuSans-61" transform="translate(126.953125 0)"/>
      <use xlink:href="#DejaVuSans-74" transform="translate(188.232422 0)"/>
      <use xlink:href="#DejaVuSans-69" transform="translate(227.441406 0)"/>
      <use xlink:href="#DejaVuSans-61" transform="translate(255.224609 0)"/>
      <use xlink:href="#DejaVuSans-6c" transform="translate(316.503906 0)"/>
      <use xlink:href="#DejaVuSans-20" transform="translate(344.287109 0)"/>
      <use xlink:href="#DejaVuSans-62" transform="translate(376.074219 0)"/>
      <use xlink:href="#DejaVuSans-69" transform="translate(439.550781 0)"/>
      <use xlink:href="#DejaVuSans-6e" transform="translate(467.333984 0)"/>
     </g>
    </g>
   </g>
   <g id="matplotlib.axis_4">
    <g id="ytick_7">
     <g id="line2d_26">
      <g>
       <use xlink:href="#mca680da1ef" x="525.67125" y="287.009034" style="stroke: #000000; stroke-width: 0.8"/>
      </g>
     </g>
    </g>
    <g id="ytick_8">
     <g id="line2d_27">
      <g>
       <use xlink:href="#mca680da1ef" x="525.67125" y="234.070852" style="stroke: #000000; stroke-width: 0.8"/>
      </g>
     </g>
    </g>
    <g id="ytick_9">
     <g id="line2d_28">
      <g>
       <use xlink:href="#mca680da1ef" x="525.67125" y="181.13267" style="stroke: #000000; stroke-width: 0.8"/>
      </g>
     </g>
    </g>
    <g id="ytick_10">
     <g id="line2d_29">
      <g>
       <use xlink:href="#mca680da1ef" x="525.67125" y="128.194489" style="stroke: #000000; stroke-width: 0.8"/>
      </g>
     </g>
    </g>
    <g id="ytick_11">
     <g id="line2d_30">
      <g>
       <use xlink:href="#mca680da1ef" x="525.67125" y="75.256307" style="stroke: #000000; stroke-width: 0.8"/>
      </g>
     </g>
    </g>
    <g id="ytick_12">
     <g id="line2d_31">
      <g>
       <use xlink:href="#mca680da1ef" x="525.67125" y="22.318125" style="stroke: #000000; stroke-width: 0.8"/>
      </g>
     </g>
    </g>
   </g>
   <g id="line2d_32">
    <path d="M 546.925341 286.586718 
L 549.778239 285.659832 
L 552.631137 285.24896 
L 555.484035 284.99399 
L 558.336933 283.673551 
L 561.189831 282.706589 
L 564.04273 282.124768 
L 566.895628 282.248879 
L 569.748526 281.184808 
L 572.601424 281.316611 
L 575.454322 280.695327 
L 578.30722 280.893385 
L 581.160118 281.216905 
L 584.013016 281.673064 
L 586.865914 281.247581 
L 589.718813 279.938962 
L 592.571711 279.191579 
L 595.424609 279.286166 
L 601.130405 279.924655 
L 603.983303 279.156804 
L 606.836201 278.544915 
L 609.689099 278.558845 
L 612.541997 279.053886 
L 615.394896 279.403033 
L 621.100692 279.872745 
L 623.95359 280.509776 
L 629.659386 281.109174 
L 632.512284 280.832224 
L 635.365182 281.337288 
L 638.21808 281.223524 
L 641.070978 280.965258 
L 643.923877 281.692037 
L 646.776775 281.998142 
L 649.629673 281.357398 
L 652.482571 277.674319 
L 655.335469 274.602952 
L 658.188367 276.746016 
L 661.041265 278.2796 
L 663.894163 279.459245 
L 666.747061 279.648372 
L 669.59996 280.549436 
L 672.452858 280.678088 
L 675.305756 280.109197 
L 678.158654 278.782704 
L 683.86445 274.328964 
L 686.717348 274.09724 
L 689.570246 275.132608 
L 692.423144 275.171968 
L 695.276043 274.697987 
L 698.128941 272.402964 
L 700.981839 264.347261 
L 703.834737 249.745788 
L 709.540533 222.077782 
L 712.393431 211.400747 
L 718.099227 183.681403 
L 720.952126 174.404963 
L 723.805024 170.20481 
L 726.657922 170.418052 
L 729.51082 173.103617 
L 732.363718 176.191334 
L 735.216616 181.278117 
L 738.069514 188.911043 
L 740.922412 205.391763 
L 743.77531 213.502288 
L 746.628209 218.849449 
L 749.481107 224.699429 
L 752.334005 228.114258 
L 755.186903 231.324488 
L 758.039801 234.705846 
L 760.892699 236.559019 
L 763.745597 239.04573 
L 766.598495 243.89573 
L 769.451393 244.366972 
L 772.304291 247.162102 
L 775.15719 250.811747 
L 780.862986 256.04297 
L 783.715884 258.363624 
L 786.568782 260.158427 
L 789.42168 262.818713 
L 792.274578 262.364258 
L 795.127476 263.459882 
L 797.980374 264.836057 
L 803.686171 266.852156 
L 806.539069 268.433476 
L 809.391967 269.715023 
L 812.244865 270.747422 
L 815.097763 270.895078 
L 817.950661 270.225127 
L 820.803559 270.831994 
L 823.656457 270.497919 
L 826.509356 271.058439 
L 829.362254 271.193467 
L 832.215152 271.5831 
L 835.06805 271.52078 
L 837.920948 270.958857 
L 840.773846 273.715817 
L 843.626744 269.788813 
L 846.479642 269.962793 
L 849.33254 269.368587 
L 852.185439 269.552836 
L 857.891235 271.071149 
L 860.744133 272.689066 
L 863.597031 274.455669 
L 866.449929 274.626218 
L 869.302827 274.430464 
L 875.008623 274.414923 
L 877.861522 274.017797 
L 880.71442 274.19158 
L 883.567318 274.606974 
L 886.420216 275.463927 
L 889.273114 276.661643 
L 892.126012 277.248413 
L 894.97891 277.330698 
L 897.831808 276.843401 
L 900.684706 276.79134 
L 903.537604 275.57016 
L 906.390503 275.054592 
L 909.243401 274.885428 
L 912.096299 274.05577 
L 914.949197 272.561925 
L 917.802095 272.531747 
L 920.654993 274.087104 
L 923.507891 274.777594 
L 926.360789 274.29613 
L 929.213687 274.69902 
L 932.066586 274.706332 
L 934.919484 275.233957 
L 937.772382 275.568803 
L 940.62528 276.520875 
L 949.183974 278.676739 
L 952.036872 278.954758 
L 954.88977 279.048729 
L 957.742669 278.66319 
L 960.595567 278.936013 
L 963.448465 279.437616 
L 966.301363 280.434469 
L 969.154261 280.741481 
L 972.007159 284.168158 
L 972.007159 284.168158 
" clip-path="url(#pef6ebca322)" style="fill: none; stroke: #ff0000; stroke-width: 3; stroke-linecap: square"/>
   </g>
   <g id="patch_8">
    <path d="M 525.67125 313.478125 
L 525.67125 22.318125 
" style="fill: none; stroke: #000000; stroke-width: 0.8; stroke-linejoin: miter; stroke-linecap: square"/>
   </g>
   <g id="patch_9">
    <path d="M 993.26125 313.478125 
L 993.26125 22.318125 
" style="fill: none; stroke: #000000; stroke-width: 0.8; stroke-linejoin: miter; stroke-linecap: square"/>
   </g>
   <g id="patch_10">
    <path d="M 525.67125 313.478125 
L 993.26125 313.478125 
" style="fill: none; stroke: #000000; stroke-width: 0.8; stroke-linejoin: miter; stroke-linecap: square"/>
   </g>
   <g id="patch_11">
    <path d="M 525.67125 22.318125 
L 993.26125 22.318125 
" style="fill: none; stroke: #000000; stroke-width: 0.8; stroke-linejoin: miter; stroke-linecap: square"/>
   </g>
   <g id="text_29">
    <!-- Corridor 50.5 -->
    <g transform="translate(719.897187 16.318125) scale(0.12 -0.12)">
     <use xlink:href="#DejaVuSans-43"/>
     <use xlink:href="#DejaVuSans-6f" transform="translate(69.824219 0)"/>
     <use xlink:href="#DejaVuSans-72" transform="translate(131.005859 0)"/>
     <use xlink:href="#DejaVuSans-72" transform="translate(170.369141 0)"/>
     <use xlink:href="#DejaVuSans-69" transform="translate(211.482422 0)"/>
     <use xlink:href="#DejaVuSans-64" transform="translate(239.265625 0)"/>
     <use xlink:href="#DejaVuSans-6f" transform="translate(302.742188 0)"/>
     <use xlink:href="#DejaVuSans-72" transform="translate(363.923828 0)"/>
     <use xlink:href="#DejaVuSans-20" transform="translate(405.037109 0)"/>
     <use xlink:href="#DejaVuSans-35" transform="translate(436.824219 0)"/>
     <use xlink:href="#DejaVuSans-30" transform="translate(500.447266 0)"/>
     <use xlink:href="#DejaVuSans-2e" transform="translate(564.070312 0)"/>
     <use xlink:href="#DejaVuSans-35" transform="translate(595.857422 0)"/>
    </g>
   </g>
  </g>
 </g>
 <defs>
  <clipPath id="p58f7e1a5a7">
   <rect x="43.78125" y="22.318125" width="467.59" height="291.16"/>
  </clipPath>
  <clipPath id="pef6ebca322">
   <rect x="525.67125" y="22.318125" width="467.59" height="291.16"/>
  </clipPath>
 </defs>
</svg>
