<?xml version="1.0" encoding="utf-8" standalone="no"?>
<!DOCTYPE svg PUBLIC "-//W3C//DTD SVG 1.1//EN"
  "http://www.w3.org/Graphics/SVG/1.1/DTD/svg11.dtd">
<svg xmlns:xlink="http://www.w3.org/1999/xlink" width="1000.380312pt" height="351.034375pt" viewBox="0 0 1000.380312 351.034375" xmlns="http://www.w3.org/2000/svg" version="1.1">
 <metadata>
  <rdf:RDF xmlns:dc="http://purl.org/dc/elements/1.1/" xmlns:cc="http://creativecommons.org/ns#" xmlns:rdf="http://www.w3.org/1999/02/22-rdf-syntax-ns#">
   <cc:Work>
    <dc:type rdf:resource="http://purl.org/dc/dcmitype/StillImage"/>
    <dc:date>2025-11-24T14:23:33.703140</dc:date>
    <dc:format>image/svg+xml</dc:format>
    <dc:creator>
     <cc:Agent>
      <dc:title>Matplotlib v3.10.0, https://matplotlib.org/</dc:title>
     </cc:Agent>
    </dc:creator>
   </cc:Work>
  </rdf:RDF>
 </metadata>
 <defs>
  <style type="text/css">*{stroke-linejoin: round; stroke-linecap: butt}</style>
 </defs>
 <g id="figure_1">
  <g id="patch_1">
   <path d="M 0 351.034375 
L 1000.380312 351.034375 
L 1000.380312 0 
L 0 0 
z
" style="fill: #ffffff"/>
  </g>
  <g id="axes_1">
   <g id="patch_2">
    <path d="M 42.620313 313.478125 
L 510.750313 313.478125 
L 510.750313 22.318125 
L 42.620313 22.318125 
z
" style="fill: #ffffff"/>
   </g>
   <g id="FillBetweenPolyCollection_1">
    <path d="M 63.898949 261.663002 
L 63.898949 274.794176 
L 66.037505 276.847323 
L 68.176062 277.038621 
L 70.314618 276.807978 
L 72.453175 276.281878 
L 74.591731 276.575354 
L 76.730287 276.478828 
L 78.868844 276.022647 
L 81.0074 275.844077 
L 83.145957 275.492575 
L 85.284513 274.832928 
L 87.423069 274.223856 
L 89.561626 274.267678 
L 91.700182 275.070702 
L 93.838739 275.211334 
L 95.977295 275.018025 
L 98.115852 275.29673 
L 100.254408 275.552451 
L 102.392964 276.76861 
L 104.531521 277.444389 
L 106.670077 277.132717 
L 108.808634 277.259165 
L 110.94719 276.694498 
L 113.085746 276.010411 
L 115.224303 275.213783 
L 117.362859 275.240259 
L 119.501416 275.322797 
L 121.639972 275.319095 
L 123.778529 275.539907 
L 125.917085 274.655599 
L 128.055641 274.281976 
L 130.194198 274.263679 
L 132.332754 274.393049 
L 134.471311 274.416706 
L 136.609867 274.460196 
L 138.748424 274.397603 
L 140.88698 273.620606 
L 143.025536 274.04373 
L 145.164093 274.335075 
L 147.302649 274.780201 
L 149.441206 275.290465 
L 151.579762 276.226537 
L 153.718318 276.332949 
L 155.856875 275.902189 
L 157.995431 275.960152 
L 160.133988 275.876588 
L 162.272544 275.283443 
L 164.411101 274.870902 
L 166.549657 274.575825 
L 168.688213 273.918298 
L 170.82677 273.900572 
L 172.965326 273.410063 
L 175.103883 273.164123 
L 177.242439 273.948894 
L 179.380995 275.063493 
L 181.519552 275.478937 
L 183.658108 276.424305 
L 185.796665 277.206539 
L 187.935221 277.632197 
L 190.073778 277.765101 
L 192.212334 277.785622 
L 194.35089 277.855373 
L 196.489447 277.406056 
L 198.628003 276.569499 
L 200.76656 276.026775 
L 202.905116 275.403904 
L 205.043672 274.841443 
L 207.182229 274.307205 
L 209.320785 273.894794 
L 211.459342 273.523014 
L 213.597898 273.641453 
L 215.736455 273.729596 
L 217.875011 274.01962 
L 220.013567 274.198711 
L 222.152124 273.977409 
L 224.29068 274.107727 
L 226.429237 273.562711 
L 228.567793 274.010669 
L 230.70635 274.373046 
L 232.844906 274.670268 
L 234.983462 275.491939 
L 237.122019 276.299574 
L 239.260575 277.56351 
L 241.399132 277.780627 
L 243.537688 278.159475 
L 245.676244 278.486728 
L 247.814801 278.376082 
L 249.953357 278.759001 
L 252.091914 279.234602 
L 254.23047 279.004619 
L 256.369027 278.562999 
L 258.507583 278.448531 
L 260.646139 277.888965 
L 262.784696 277.468402 
L 264.923252 278.133013 
L 267.061809 278.513003 
L 269.200365 279.334666 
L 271.338921 279.478161 
L 273.477478 279.856638 
L 275.616034 280.178527 
L 277.754591 280.081925 
L 279.893147 279.551033 
L 282.031704 279.253491 
L 284.17026 278.290222 
L 286.308816 277.56072 
L 288.447373 277.107256 
L 290.585929 277.115056 
L 292.724486 277.432189 
L 294.863042 277.112408 
L 297.001598 277.366296 
L 299.140155 277.173011 
L 301.278711 276.715099 
L 303.417268 276.429015 
L 305.555824 276.565869 
L 307.694381 277.40037 
L 309.832937 278.154643 
L 311.971493 278.281517 
L 314.11005 278.091376 
L 316.248606 277.505483 
L 318.387163 276.905779 
L 320.525719 276.185438 
L 322.664275 275.466038 
L 324.802832 275.162305 
L 326.941388 275.517639 
L 329.079945 275.571815 
L 331.218501 276.071603 
L 333.357058 276.588075 
L 335.495614 276.690994 
L 337.63417 276.654093 
L 339.772727 276.797591 
L 341.911283 276.950774 
L 344.04984 277.664307 
L 346.188396 278.163162 
L 348.326953 278.759178 
L 350.465509 279.453524 
L 352.604065 279.404854 
L 354.742622 278.901828 
L 356.881178 277.535598 
L 359.019735 276.05243 
L 361.158291 273.577568 
L 363.296847 271.043567 
L 365.435404 269.930127 
L 367.57396 269.252776 
L 369.712517 269.429446 
L 371.851073 270.292466 
L 373.98963 270.784883 
L 376.128186 270.771681 
L 378.266742 270.504888 
L 380.405299 270.370659 
L 382.543855 269.980309 
L 384.682412 269.266312 
L 386.820968 268.846143 
L 388.959524 269.073951 
L 391.098081 269.56132 
L 393.236637 270.222746 
L 395.375194 271.372027 
L 397.51375 272.449077 
L 399.652307 272.8115 
L 401.790863 273.158114 
L 403.929419 273.564412 
L 406.067976 273.459629 
L 408.206532 273.338076 
L 410.345089 273.417356 
L 412.483645 273.501374 
L 414.622201 273.587001 
L 416.760758 273.723014 
L 418.899314 274.231723 
L 421.037871 274.900388 
L 423.176427 275.086288 
L 425.314984 275.337898 
L 427.45354 275.648039 
L 429.592096 275.717153 
L 431.730653 276.016086 
L 433.869209 276.44387 
L 436.007766 276.913763 
L 438.146322 277.447966 
L 440.284879 277.718664 
L 442.423435 277.752657 
L 444.561991 277.616306 
L 446.700548 277.561266 
L 448.839104 277.610613 
L 450.977661 277.699379 
L 453.116217 277.778587 
L 455.254773 277.902418 
L 457.39333 277.93761 
L 459.531886 277.84342 
L 461.670443 277.751042 
L 463.808999 277.921991 
L 465.947556 278.097621 
L 468.086112 277.976949 
L 470.224668 277.842328 
L 472.363225 277.707929 
L 474.501781 277.623911 
L 476.640338 277.582341 
L 478.778894 277.571475 
L 480.91745 277.639952 
L 483.056007 277.877334 
L 485.194563 278.025455 
L 487.33312 277.913293 
L 489.471676 277.348004 
L 489.471676 271.024664 
L 489.471676 271.024664 
L 487.33312 270.429389 
L 485.194563 270.900286 
L 483.056007 270.486427 
L 480.91745 270.210099 
L 478.778894 270.496353 
L 476.640338 270.862231 
L 474.501781 271.150324 
L 472.363225 271.217525 
L 470.224668 271.210248 
L 468.086112 271.433713 
L 465.947556 271.538377 
L 463.808999 271.503078 
L 461.670443 271.485559 
L 459.531886 271.609824 
L 457.39333 271.629261 
L 455.254773 271.638555 
L 453.116217 271.417576 
L 450.977661 271.218115 
L 448.839104 271.128526 
L 446.700548 271.178514 
L 444.561991 271.29898 
L 442.423435 271.380306 
L 440.284879 271.144405 
L 438.146322 270.304582 
L 436.007766 269.405515 
L 433.869209 268.33161 
L 431.730653 267.491404 
L 429.592096 267.071372 
L 427.45354 266.845902 
L 425.314984 266.527098 
L 423.176427 266.348792 
L 421.037871 266.027609 
L 418.899314 265.139043 
L 416.760758 264.217091 
L 414.622201 263.534908 
L 412.483645 263.021859 
L 410.345089 262.586179 
L 408.206532 262.279583 
L 406.067976 262.234826 
L 403.929419 262.093842 
L 401.790863 261.430963 
L 399.652307 260.597153 
L 397.51375 259.616339 
L 395.375194 258.104239 
L 393.236637 256.340486 
L 391.098081 254.900509 
L 388.959524 253.656532 
L 386.820968 252.689603 
L 384.682412 252.250414 
L 382.543855 252.009311 
L 380.405299 251.673254 
L 378.266742 251.432215 
L 376.128186 251.54438 
L 373.98963 251.94464 
L 371.851073 252.463557 
L 369.712517 252.951516 
L 367.57396 254.036708 
L 365.435404 255.860668 
L 363.296847 258.329646 
L 361.158291 262.103268 
L 359.019735 265.551126 
L 356.881178 267.931705 
L 354.742622 269.435339 
L 352.604065 269.754055 
L 350.465509 269.16678 
L 348.326953 267.731902 
L 346.188396 266.043291 
L 344.04984 264.171543 
L 341.911283 262.087237 
L 339.772727 260.394108 
L 337.63417 258.953732 
L 335.495614 257.731393 
L 333.357058 256.893931 
L 331.218501 256.098627 
L 329.079945 255.416071 
L 326.941388 255.089082 
L 324.802832 254.524962 
L 322.664275 254.663557 
L 320.525719 255.637718 
L 318.387163 257.052153 
L 316.248606 258.77422 
L 314.11005 260.587312 
L 311.971493 261.749655 
L 309.832937 262.697856 
L 307.694381 263.142522 
L 305.555824 263.150455 
L 303.417268 263.447219 
L 301.278711 264.020514 
L 299.140155 264.773596 
L 297.001598 265.501346 
L 294.863042 266.123772 
L 292.724486 267.223744 
L 290.585929 267.923273 
L 288.447373 268.818206 
L 286.308816 269.951 
L 284.17026 271.016172 
L 282.031704 272.012209 
L 279.893147 272.362911 
L 277.754591 272.532601 
L 275.616034 272.427673 
L 273.477478 271.849187 
L 271.338921 271.203702 
L 269.200365 270.626385 
L 267.061809 269.522355 
L 264.923252 268.514075 
L 262.784696 267.083275 
L 260.646139 266.508214 
L 258.507583 266.16058 
L 256.369027 265.679024 
L 254.23047 265.503579 
L 252.091914 265.270935 
L 249.953357 264.352904 
L 247.814801 263.069892 
L 245.676244 262.04504 
L 243.537688 260.719353 
L 241.399132 259.556547 
L 239.260575 259.156315 
L 237.122019 258.731738 
L 234.983462 258.970112 
L 232.844906 259.058215 
L 230.70635 259.732004 
L 228.567793 260.375082 
L 226.429237 260.866696 
L 224.29068 261.88502 
L 222.152124 262.859142 
L 220.013567 263.828825 
L 217.875011 264.247726 
L 215.736455 264.434616 
L 213.597898 264.852599 
L 211.459342 265.106332 
L 209.320785 265.503188 
L 207.182229 266.011716 
L 205.043672 266.629675 
L 202.905116 267.490025 
L 200.76656 268.566511 
L 198.628003 269.799158 
L 196.489447 271.07297 
L 194.35089 271.836417 
L 192.212334 272.108748 
L 190.073778 272.232409 
L 187.935221 272.206299 
L 185.796665 271.750555 
L 183.658108 270.933039 
L 181.519552 270.113118 
L 179.380995 269.359029 
L 177.242439 268.415243 
L 175.103883 267.550694 
L 172.965326 267.18337 
L 170.82677 267.149158 
L 168.688213 267.129521 
L 166.549657 267.58314 
L 164.411101 268.068532 
L 162.272544 268.747216 
L 160.133988 269.463608 
L 157.995431 269.99858 
L 155.856875 270.149679 
L 153.718318 270.324657 
L 151.579762 270.116436 
L 149.441206 268.996848 
L 147.302649 268.374301 
L 145.164093 267.783688 
L 143.025536 267.219838 
L 140.88698 266.733685 
L 138.748424 267.200035 
L 136.609867 267.493023 
L 134.471311 267.697341 
L 132.332754 267.945586 
L 130.194198 267.50172 
L 128.055641 267.52688 
L 125.917085 267.7522 
L 123.778529 268.247649 
L 121.639972 268.284148 
L 119.501416 268.465949 
L 117.362859 268.647177 
L 115.224303 268.803248 
L 113.085746 269.318395 
L 110.94719 269.790477 
L 108.808634 270.099055 
L 106.670077 269.764611 
L 104.531521 269.253396 
L 102.392964 268.285993 
L 100.254408 267.146902 
L 98.115852 266.576455 
L 95.977295 266.213384 
L 93.838739 266.232335 
L 91.700182 266.246193 
L 89.561626 265.881614 
L 87.423069 266.082821 
L 85.284513 266.637856 
L 83.145957 267.164563 
L 81.0074 267.567061 
L 78.868844 267.927622 
L 76.730287 268.432619 
L 74.591731 268.642408 
L 72.453175 268.256305 
L 70.314618 268.434953 
L 68.176062 268.302126 
L 66.037505 267.744202 
L 63.898949 261.663002 
z
" clip-path="url(#p2fa793c090)" style="fill: #1f77b4; fill-opacity: 0.3"/>
   </g>
   <g id="matplotlib.axis_1">
    <g id="xtick_1">
     <g id="line2d_1">
      <defs>
       <path id="m5c87635d6c" d="M 0 0 
L 0 3.5 
" style="stroke: #000000; stroke-width: 0.8"/>
      </defs>
      <g>
       <use xlink:href="#m5c87635d6c" x="63.898949" y="313.478125" style="stroke: #000000; stroke-width: 0.8"/>
      </g>
     </g>
     <g id="text_1">
      <!-- 0 -->
      <g transform="translate(60.717699 328.076563) scale(0.1 -0.1)">
       <defs>
        <path id="DejaVuSans-30" d="M 2034 4250 
Q 1547 4250 1301 3770 
Q 1056 3291 1056 2328 
Q 1056 1369 1301 889 
Q 1547 409 2034 409 
Q 2525 409 2770 889 
Q 3016 1369 3016 2328 
Q 3016 3291 2770 3770 
Q 2525 4250 2034 4250 
z
M 2034 4750 
Q 2819 4750 3233 4129 
Q 3647 3509 3647 2328 
Q 3647 1150 3233 529 
Q 2819 -91 2034 -91 
Q 1250 -91 836 529 
Q 422 1150 422 2328 
Q 422 3509 836 4129 
Q 1250 4750 2034 4750 
z
" transform="scale(0.015625)"/>
       </defs>
       <use xlink:href="#DejaVuSans-30"/>
      </g>
     </g>
    </g>
    <g id="xtick_2">
     <g id="line2d_2">
      <g>
       <use xlink:href="#m5c87635d6c" x="115.224303" y="313.478125" style="stroke: #000000; stroke-width: 0.8"/>
      </g>
     </g>
     <g id="text_2">
      <!-- 24 -->
      <g transform="translate(108.861803 328.076563) scale(0.1 -0.1)">
       <defs>
        <path id="DejaVuSans-32" d="M 1228 531 
L 3431 531 
L 3431 0 
L 469 0 
L 469 531 
Q 828 903 1448 1529 
Q 2069 2156 2228 2338 
Q 2531 2678 2651 2914 
Q 2772 3150 2772 3378 
Q 2772 3750 2511 3984 
Q 2250 4219 1831 4219 
Q 1534 4219 1204 4116 
Q 875 4013 500 3803 
L 500 4441 
Q 881 4594 1212 4672 
Q 1544 4750 1819 4750 
Q 2544 4750 2975 4387 
Q 3406 4025 3406 3419 
Q 3406 3131 3298 2873 
Q 3191 2616 2906 2266 
Q 2828 2175 2409 1742 
Q 1991 1309 1228 531 
z
" transform="scale(0.015625)"/>
        <path id="DejaVuSans-34" d="M 2419 4116 
L 825 1625 
L 2419 1625 
L 2419 4116 
z
M 2253 4666 
L 3047 4666 
L 3047 1625 
L 3713 1625 
L 3713 1100 
L 3047 1100 
L 3047 0 
L 2419 0 
L 2419 1100 
L 313 1100 
L 313 1709 
L 2253 4666 
z
" transform="scale(0.015625)"/>
       </defs>
       <use xlink:href="#DejaVuSans-32"/>
       <use xlink:href="#DejaVuSans-34" transform="translate(63.623047 0)"/>
      </g>
     </g>
    </g>
    <g id="xtick_3">
     <g id="line2d_3">
      <g>
       <use xlink:href="#m5c87635d6c" x="168.688213" y="313.478125" style="stroke: #000000; stroke-width: 0.8"/>
      </g>
     </g>
     <g id="text_3">
      <!-- 49 -->
      <g transform="translate(162.325713 328.076563) scale(0.1 -0.1)">
       <defs>
        <path id="DejaVuSans-39" d="M 703 97 
L 703 672 
Q 941 559 1184 500 
Q 1428 441 1663 441 
Q 2288 441 2617 861 
Q 2947 1281 2994 2138 
Q 2813 1869 2534 1725 
Q 2256 1581 1919 1581 
Q 1219 1581 811 2004 
Q 403 2428 403 3163 
Q 403 3881 828 4315 
Q 1253 4750 1959 4750 
Q 2769 4750 3195 4129 
Q 3622 3509 3622 2328 
Q 3622 1225 3098 567 
Q 2575 -91 1691 -91 
Q 1453 -91 1209 -44 
Q 966 3 703 97 
z
M 1959 2075 
Q 2384 2075 2632 2365 
Q 2881 2656 2881 3163 
Q 2881 3666 2632 3958 
Q 2384 4250 1959 4250 
Q 1534 4250 1286 3958 
Q 1038 3666 1038 3163 
Q 1038 2656 1286 2365 
Q 1534 2075 1959 2075 
z
" transform="scale(0.015625)"/>
       </defs>
       <use xlink:href="#DejaVuSans-34"/>
       <use xlink:href="#DejaVuSans-39" transform="translate(63.623047 0)"/>
      </g>
     </g>
    </g>
    <g id="xtick_4">
     <g id="line2d_4">
      <g>
       <use xlink:href="#m5c87635d6c" x="222.152124" y="313.478125" style="stroke: #000000; stroke-width: 0.8"/>
      </g>
     </g>
     <g id="text_4">
      <!-- 74 -->
      <g transform="translate(215.789624 328.076563) scale(0.1 -0.1)">
       <defs>
        <path id="DejaVuSans-37" d="M 525 4666 
L 3525 4666 
L 3525 4397 
L 1831 0 
L 1172 0 
L 2766 4134 
L 525 4134 
L 525 4666 
z
" transform="scale(0.015625)"/>
       </defs>
       <use xlink:href="#DejaVuSans-37"/>
       <use xlink:href="#DejaVuSans-34" transform="translate(63.623047 0)"/>
      </g>
     </g>
    </g>
    <g id="xtick_5">
     <g id="line2d_5">
      <g>
       <use xlink:href="#m5c87635d6c" x="275.616034" y="313.478125" style="stroke: #000000; stroke-width: 0.8"/>
      </g>
     </g>
     <g id="text_5">
      <!-- 99 -->
      <g transform="translate(269.253534 328.076563) scale(0.1 -0.1)">
       <use xlink:href="#DejaVuSans-39"/>
       <use xlink:href="#DejaVuSans-39" transform="translate(63.623047 0)"/>
      </g>
     </g>
    </g>
    <g id="xtick_6">
     <g id="line2d_6">
      <g>
       <use xlink:href="#m5c87635d6c" x="329.079945" y="313.478125" style="stroke: #000000; stroke-width: 0.8"/>
      </g>
     </g>
     <g id="text_6">
      <!-- 124 -->
      <g transform="translate(319.536195 328.076563) scale(0.1 -0.1)">
       <defs>
        <path id="DejaVuSans-31" d="M 794 531 
L 1825 531 
L 1825 4091 
L 703 3866 
L 703 4441 
L 1819 4666 
L 2450 4666 
L 2450 531 
L 3481 531 
L 3481 0 
L 794 0 
L 794 531 
z
" transform="scale(0.015625)"/>
       </defs>
       <use xlink:href="#DejaVuSans-31"/>
       <use xlink:href="#DejaVuSans-32" transform="translate(63.623047 0)"/>
       <use xlink:href="#DejaVuSans-34" transform="translate(127.246094 0)"/>
      </g>
     </g>
    </g>
    <g id="xtick_7">
     <g id="line2d_7">
      <g>
       <use xlink:href="#m5c87635d6c" x="382.543855" y="313.478125" style="stroke: #000000; stroke-width: 0.8"/>
      </g>
     </g>
     <g id="text_7">
      <!-- 149 -->
      <g transform="translate(373.000105 328.076563) scale(0.1 -0.1)">
       <use xlink:href="#DejaVuSans-31"/>
       <use xlink:href="#DejaVuSans-34" transform="translate(63.623047 0)"/>
       <use xlink:href="#DejaVuSans-39" transform="translate(127.246094 0)"/>
      </g>
     </g>
    </g>
    <g id="xtick_8">
     <g id="line2d_8">
      <g>
       <use xlink:href="#m5c87635d6c" x="436.007766" y="313.478125" style="stroke: #000000; stroke-width: 0.8"/>
      </g>
     </g>
     <g id="text_8">
      <!-- 174 -->
      <g transform="translate(426.464016 328.076563) scale(0.1 -0.1)">
       <use xlink:href="#DejaVuSans-31"/>
       <use xlink:href="#DejaVuSans-37" transform="translate(63.623047 0)"/>
       <use xlink:href="#DejaVuSans-34" transform="translate(127.246094 0)"/>
      </g>
     </g>
    </g>
    <g id="xtick_9">
     <g id="line2d_9">
      <g>
       <use xlink:href="#m5c87635d6c" x="489.471676" y="313.478125" style="stroke: #000000; stroke-width: 0.8"/>
      </g>
     </g>
     <g id="text_9">
      <!-- 199 -->
      <g transform="translate(479.927926 328.076563) scale(0.1 -0.1)">
       <use xlink:href="#DejaVuSans-31"/>
       <use xlink:href="#DejaVuSans-39" transform="translate(63.623047 0)"/>
       <use xlink:href="#DejaVuSans-39" transform="translate(127.246094 0)"/>
      </g>
     </g>
    </g>
    <g id="text_10">
     <!-- Spatial bin -->
     <g transform="translate(250.149375 341.754687) scale(0.1 -0.1)">
      <defs>
       <path id="DejaVuSans-53" d="M 3425 4513 
L 3425 3897 
Q 3066 4069 2747 4153 
Q 2428 4238 2131 4238 
Q 1616 4238 1336 4038 
Q 1056 3838 1056 3469 
Q 1056 3159 1242 3001 
Q 1428 2844 1947 2747 
L 2328 2669 
Q 3034 2534 3370 2195 
Q 3706 1856 3706 1288 
Q 3706 609 3251 259 
Q 2797 -91 1919 -91 
Q 1588 -91 1214 -16 
Q 841 59 441 206 
L 441 856 
Q 825 641 1194 531 
Q 1563 422 1919 422 
Q 2459 422 2753 634 
Q 3047 847 3047 1241 
Q 3047 1584 2836 1778 
Q 2625 1972 2144 2069 
L 1759 2144 
Q 1053 2284 737 2584 
Q 422 2884 422 3419 
Q 422 4038 858 4394 
Q 1294 4750 2059 4750 
Q 2388 4750 2728 4690 
Q 3069 4631 3425 4513 
z
" transform="scale(0.015625)"/>
       <path id="DejaVuSans-70" d="M 1159 525 
L 1159 -1331 
L 581 -1331 
L 581 3500 
L 1159 3500 
L 1159 2969 
Q 1341 3281 1617 3432 
Q 1894 3584 2278 3584 
Q 2916 3584 3314 3078 
Q 3713 2572 3713 1747 
Q 3713 922 3314 415 
Q 2916 -91 2278 -91 
Q 1894 -91 1617 61 
Q 1341 213 1159 525 
z
M 3116 1747 
Q 3116 2381 2855 2742 
Q 2594 3103 2138 3103 
Q 1681 3103 1420 2742 
Q 1159 2381 1159 1747 
Q 1159 1113 1420 752 
Q 1681 391 2138 391 
Q 2594 391 2855 752 
Q 3116 1113 3116 1747 
z
" transform="scale(0.015625)"/>
       <path id="DejaVuSans-61" d="M 2194 1759 
Q 1497 1759 1228 1600 
Q 959 1441 959 1056 
Q 959 750 1161 570 
Q 1363 391 1709 391 
Q 2188 391 2477 730 
Q 2766 1069 2766 1631 
L 2766 1759 
L 2194 1759 
z
M 3341 1997 
L 3341 0 
L 2766 0 
L 2766 531 
Q 2569 213 2275 61 
Q 1981 -91 1556 -91 
Q 1019 -91 701 211 
Q 384 513 384 1019 
Q 384 1609 779 1909 
Q 1175 2209 1959 2209 
L 2766 2209 
L 2766 2266 
Q 2766 2663 2505 2880 
Q 2244 3097 1772 3097 
Q 1472 3097 1187 3025 
Q 903 2953 641 2809 
L 641 3341 
Q 956 3463 1253 3523 
Q 1550 3584 1831 3584 
Q 2591 3584 2966 3190 
Q 3341 2797 3341 1997 
z
" transform="scale(0.015625)"/>
       <path id="DejaVuSans-74" d="M 1172 4494 
L 1172 3500 
L 2356 3500 
L 2356 3053 
L 1172 3053 
L 1172 1153 
Q 1172 725 1289 603 
Q 1406 481 1766 481 
L 2356 481 
L 2356 0 
L 1766 0 
Q 1100 0 847 248 
Q 594 497 594 1153 
L 594 3053 
L 172 3053 
L 172 3500 
L 594 3500 
L 594 4494 
L 1172 4494 
z
" transform="scale(0.015625)"/>
       <path id="DejaVuSans-69" d="M 603 3500 
L 1178 3500 
L 1178 0 
L 603 0 
L 603 3500 
z
M 603 4863 
L 1178 4863 
L 1178 4134 
L 603 4134 
L 603 4863 
z
" transform="scale(0.015625)"/>
       <path id="DejaVuSans-6c" d="M 603 4863 
L 1178 4863 
L 1178 0 
L 603 0 
L 603 4863 
z
" transform="scale(0.015625)"/>
       <path id="DejaVuSans-20" transform="scale(0.015625)"/>
       <path id="DejaVuSans-62" d="M 3116 1747 
Q 3116 2381 2855 2742 
Q 2594 3103 2138 3103 
Q 1681 3103 1420 2742 
Q 1159 2381 1159 1747 
Q 1159 1113 1420 752 
Q 1681 391 2138 391 
Q 2594 391 2855 752 
Q 3116 1113 3116 1747 
z
M 1159 2969 
Q 1341 3281 1617 3432 
Q 1894 3584 2278 3584 
Q 2916 3584 3314 3078 
Q 3713 2572 3713 1747 
Q 3713 922 3314 415 
Q 2916 -91 2278 -91 
Q 1894 -91 1617 61 
Q 1341 213 1159 525 
L 1159 0 
L 581 0 
L 581 4863 
L 1159 4863 
L 1159 2969 
z
" transform="scale(0.015625)"/>
       <path id="DejaVuSans-6e" d="M 3513 2113 
L 3513 0 
L 2938 0 
L 2938 2094 
Q 2938 2591 2744 2837 
Q 2550 3084 2163 3084 
Q 1697 3084 1428 2787 
Q 1159 2491 1159 1978 
L 1159 0 
L 581 0 
L 581 3500 
L 1159 3500 
L 1159 2956 
Q 1366 3272 1645 3428 
Q 1925 3584 2291 3584 
Q 2894 3584 3203 3211 
Q 3513 2838 3513 2113 
z
" transform="scale(0.015625)"/>
      </defs>
      <use xlink:href="#DejaVuSans-53"/>
      <use xlink:href="#DejaVuSans-70" transform="translate(63.476562 0)"/>
      <use xlink:href="#DejaVuSans-61" transform="translate(126.953125 0)"/>
      <use xlink:href="#DejaVuSans-74" transform="translate(188.232422 0)"/>
      <use xlink:href="#DejaVuSans-69" transform="translate(227.441406 0)"/>
      <use xlink:href="#DejaVuSans-61" transform="translate(255.224609 0)"/>
      <use xlink:href="#DejaVuSans-6c" transform="translate(316.503906 0)"/>
      <use xlink:href="#DejaVuSans-20" transform="translate(344.287109 0)"/>
      <use xlink:href="#DejaVuSans-62" transform="translate(376.074219 0)"/>
      <use xlink:href="#DejaVuSans-69" transform="translate(439.550781 0)"/>
      <use xlink:href="#DejaVuSans-6e" transform="translate(467.333984 0)"/>
     </g>
    </g>
   </g>
   <g id="matplotlib.axis_2">
    <g id="ytick_1">
     <g id="line2d_10">
      <defs>
       <path id="m7c9f46df0a" d="M 0 0 
L -3.5 0 
" style="stroke: #000000; stroke-width: 0.8"/>
      </defs>
      <g>
       <use xlink:href="#m7c9f46df0a" x="42.620313" y="313.478125" style="stroke: #000000; stroke-width: 0.8"/>
      </g>
     </g>
     <g id="text_11">
      <!-- −1 -->
      <g transform="translate(20.878125 317.277344) scale(0.1 -0.1)">
       <defs>
        <path id="DejaVuSans-2212" d="M 678 2272 
L 4684 2272 
L 4684 1741 
L 678 1741 
L 678 2272 
z
" transform="scale(0.015625)"/>
       </defs>
       <use xlink:href="#DejaVuSans-2212"/>
       <use xlink:href="#DejaVuSans-31" transform="translate(83.789062 0)"/>
      </g>
     </g>
    </g>
    <g id="ytick_2">
     <g id="line2d_11">
      <g>
       <use xlink:href="#m7c9f46df0a" x="42.620313" y="255.246125" style="stroke: #000000; stroke-width: 0.8"/>
      </g>
     </g>
     <g id="text_12">
      <!-- 0 -->
      <g transform="translate(29.257813 259.045344) scale(0.1 -0.1)">
       <use xlink:href="#DejaVuSans-30"/>
      </g>
     </g>
    </g>
    <g id="ytick_3">
     <g id="line2d_12">
      <g>
       <use xlink:href="#m7c9f46df0a" x="42.620313" y="197.014125" style="stroke: #000000; stroke-width: 0.8"/>
      </g>
     </g>
     <g id="text_13">
      <!-- 1 -->
      <g transform="translate(29.257813 200.813344) scale(0.1 -0.1)">
       <use xlink:href="#DejaVuSans-31"/>
      </g>
     </g>
    </g>
    <g id="ytick_4">
     <g id="line2d_13">
      <g>
       <use xlink:href="#m7c9f46df0a" x="42.620313" y="138.782125" style="stroke: #000000; stroke-width: 0.8"/>
      </g>
     </g>
     <g id="text_14">
      <!-- 2 -->
      <g transform="translate(29.257813 142.581344) scale(0.1 -0.1)">
       <use xlink:href="#DejaVuSans-32"/>
      </g>
     </g>
    </g>
    <g id="ytick_5">
     <g id="line2d_14">
      <g>
       <use xlink:href="#m7c9f46df0a" x="42.620313" y="80.550125" style="stroke: #000000; stroke-width: 0.8"/>
      </g>
     </g>
     <g id="text_15">
      <!-- 3 -->
      <g transform="translate(29.257813 84.349344) scale(0.1 -0.1)">
       <defs>
        <path id="DejaVuSans-33" d="M 2597 2516 
Q 3050 2419 3304 2112 
Q 3559 1806 3559 1356 
Q 3559 666 3084 287 
Q 2609 -91 1734 -91 
Q 1441 -91 1130 -33 
Q 819 25 488 141 
L 488 750 
Q 750 597 1062 519 
Q 1375 441 1716 441 
Q 2309 441 2620 675 
Q 2931 909 2931 1356 
Q 2931 1769 2642 2001 
Q 2353 2234 1838 2234 
L 1294 2234 
L 1294 2753 
L 1863 2753 
Q 2328 2753 2575 2939 
Q 2822 3125 2822 3475 
Q 2822 3834 2567 4026 
Q 2313 4219 1838 4219 
Q 1578 4219 1281 4162 
Q 984 4106 628 3988 
L 628 4550 
Q 988 4650 1302 4700 
Q 1616 4750 1894 4750 
Q 2613 4750 3031 4423 
Q 3450 4097 3450 3541 
Q 3450 3153 3228 2886 
Q 3006 2619 2597 2516 
z
" transform="scale(0.015625)"/>
       </defs>
       <use xlink:href="#DejaVuSans-33"/>
      </g>
     </g>
    </g>
    <g id="ytick_6">
     <g id="line2d_15">
      <g>
       <use xlink:href="#m7c9f46df0a" x="42.620313" y="22.318125" style="stroke: #000000; stroke-width: 0.8"/>
      </g>
     </g>
     <g id="text_16">
      <!-- 4 -->
      <g transform="translate(29.257813 26.117344) scale(0.1 -0.1)">
       <use xlink:href="#DejaVuSans-34"/>
      </g>
     </g>
    </g>
    <g id="text_17">
     <!-- z-scored dF/F -->
     <g transform="translate(14.798438 201.1325) rotate(-90) scale(0.1 -0.1)">
      <defs>
       <path id="DejaVuSans-7a" d="M 353 3500 
L 3084 3500 
L 3084 2975 
L 922 459 
L 3084 459 
L 3084 0 
L 275 0 
L 275 525 
L 2438 3041 
L 353 3041 
L 353 3500 
z
" transform="scale(0.015625)"/>
       <path id="DejaVuSans-2d" d="M 313 2009 
L 1997 2009 
L 1997 1497 
L 313 1497 
L 313 2009 
z
" transform="scale(0.015625)"/>
       <path id="DejaVuSans-73" d="M 2834 3397 
L 2834 2853 
Q 2591 2978 2328 3040 
Q 2066 3103 1784 3103 
Q 1356 3103 1142 2972 
Q 928 2841 928 2578 
Q 928 2378 1081 2264 
Q 1234 2150 1697 2047 
L 1894 2003 
Q 2506 1872 2764 1633 
Q 3022 1394 3022 966 
Q 3022 478 2636 193 
Q 2250 -91 1575 -91 
Q 1294 -91 989 -36 
Q 684 19 347 128 
L 347 722 
Q 666 556 975 473 
Q 1284 391 1588 391 
Q 1994 391 2212 530 
Q 2431 669 2431 922 
Q 2431 1156 2273 1281 
Q 2116 1406 1581 1522 
L 1381 1569 
Q 847 1681 609 1914 
Q 372 2147 372 2553 
Q 372 3047 722 3315 
Q 1072 3584 1716 3584 
Q 2034 3584 2315 3537 
Q 2597 3491 2834 3397 
z
" transform="scale(0.015625)"/>
       <path id="DejaVuSans-63" d="M 3122 3366 
L 3122 2828 
Q 2878 2963 2633 3030 
Q 2388 3097 2138 3097 
Q 1578 3097 1268 2742 
Q 959 2388 959 1747 
Q 959 1106 1268 751 
Q 1578 397 2138 397 
Q 2388 397 2633 464 
Q 2878 531 3122 666 
L 3122 134 
Q 2881 22 2623 -34 
Q 2366 -91 2075 -91 
Q 1284 -91 818 406 
Q 353 903 353 1747 
Q 353 2603 823 3093 
Q 1294 3584 2113 3584 
Q 2378 3584 2631 3529 
Q 2884 3475 3122 3366 
z
" transform="scale(0.015625)"/>
       <path id="DejaVuSans-6f" d="M 1959 3097 
Q 1497 3097 1228 2736 
Q 959 2375 959 1747 
Q 959 1119 1226 758 
Q 1494 397 1959 397 
Q 2419 397 2687 759 
Q 2956 1122 2956 1747 
Q 2956 2369 2687 2733 
Q 2419 3097 1959 3097 
z
M 1959 3584 
Q 2709 3584 3137 3096 
Q 3566 2609 3566 1747 
Q 3566 888 3137 398 
Q 2709 -91 1959 -91 
Q 1206 -91 779 398 
Q 353 888 353 1747 
Q 353 2609 779 3096 
Q 1206 3584 1959 3584 
z
" transform="scale(0.015625)"/>
       <path id="DejaVuSans-72" d="M 2631 2963 
Q 2534 3019 2420 3045 
Q 2306 3072 2169 3072 
Q 1681 3072 1420 2755 
Q 1159 2438 1159 1844 
L 1159 0 
L 581 0 
L 581 3500 
L 1159 3500 
L 1159 2956 
Q 1341 3275 1631 3429 
Q 1922 3584 2338 3584 
Q 2397 3584 2469 3576 
Q 2541 3569 2628 3553 
L 2631 2963 
z
" transform="scale(0.015625)"/>
       <path id="DejaVuSans-65" d="M 3597 1894 
L 3597 1613 
L 953 1613 
Q 991 1019 1311 708 
Q 1631 397 2203 397 
Q 2534 397 2845 478 
Q 3156 559 3463 722 
L 3463 178 
Q 3153 47 2828 -22 
Q 2503 -91 2169 -91 
Q 1331 -91 842 396 
Q 353 884 353 1716 
Q 353 2575 817 3079 
Q 1281 3584 2069 3584 
Q 2775 3584 3186 3129 
Q 3597 2675 3597 1894 
z
M 3022 2063 
Q 3016 2534 2758 2815 
Q 2500 3097 2075 3097 
Q 1594 3097 1305 2825 
Q 1016 2553 972 2059 
L 3022 2063 
z
" transform="scale(0.015625)"/>
       <path id="DejaVuSans-64" d="M 2906 2969 
L 2906 4863 
L 3481 4863 
L 3481 0 
L 2906 0 
L 2906 525 
Q 2725 213 2448 61 
Q 2172 -91 1784 -91 
Q 1150 -91 751 415 
Q 353 922 353 1747 
Q 353 2572 751 3078 
Q 1150 3584 1784 3584 
Q 2172 3584 2448 3432 
Q 2725 3281 2906 2969 
z
M 947 1747 
Q 947 1113 1208 752 
Q 1469 391 1925 391 
Q 2381 391 2643 752 
Q 2906 1113 2906 1747 
Q 2906 2381 2643 2742 
Q 2381 3103 1925 3103 
Q 1469 3103 1208 2742 
Q 947 2381 947 1747 
z
" transform="scale(0.015625)"/>
       <path id="DejaVuSans-46" d="M 628 4666 
L 3309 4666 
L 3309 4134 
L 1259 4134 
L 1259 2759 
L 3109 2759 
L 3109 2228 
L 1259 2228 
L 1259 0 
L 628 0 
L 628 4666 
z
" transform="scale(0.015625)"/>
       <path id="DejaVuSans-2f" d="M 1625 4666 
L 2156 4666 
L 531 -594 
L 0 -594 
L 1625 4666 
z
" transform="scale(0.015625)"/>
      </defs>
      <use xlink:href="#DejaVuSans-7a"/>
      <use xlink:href="#DejaVuSans-2d" transform="translate(52.490234 0)"/>
      <use xlink:href="#DejaVuSans-73" transform="translate(88.574219 0)"/>
      <use xlink:href="#DejaVuSans-63" transform="translate(140.673828 0)"/>
      <use xlink:href="#DejaVuSans-6f" transform="translate(195.654297 0)"/>
      <use xlink:href="#DejaVuSans-72" transform="translate(256.835938 0)"/>
      <use xlink:href="#DejaVuSans-65" transform="translate(295.699219 0)"/>
      <use xlink:href="#DejaVuSans-64" transform="translate(357.222656 0)"/>
      <use xlink:href="#DejaVuSans-20" transform="translate(420.699219 0)"/>
      <use xlink:href="#DejaVuSans-64" transform="translate(452.486328 0)"/>
      <use xlink:href="#DejaVuSans-46" transform="translate(515.962891 0)"/>
      <use xlink:href="#DejaVuSans-2f" transform="translate(573.482422 0)"/>
      <use xlink:href="#DejaVuSans-46" transform="translate(607.173828 0)"/>
     </g>
    </g>
   </g>
   <g id="line2d_16">
    <path d="M 63.898949 268.228589 
L 66.037505 272.295762 
L 68.176062 272.670373 
L 70.314618 272.621466 
L 72.453175 272.269091 
L 74.591731 272.608881 
L 76.730287 272.455723 
L 78.868844 271.975134 
L 83.145957 271.328569 
L 87.423069 270.153338 
L 89.561626 270.074646 
L 91.700182 270.658448 
L 93.838739 270.721834 
L 95.977295 270.615705 
L 100.254408 271.349677 
L 102.392964 272.527301 
L 104.531521 273.348893 
L 106.670077 273.448664 
L 108.808634 273.67911 
L 110.94719 273.242488 
L 115.224303 272.008516 
L 121.639972 271.801622 
L 123.778529 271.893778 
L 125.917085 271.2039 
L 128.055641 270.904428 
L 130.194198 270.882699 
L 132.332754 271.169317 
L 138.748424 270.798819 
L 140.88698 270.177145 
L 147.302649 271.577251 
L 149.441206 272.143657 
L 151.579762 273.171487 
L 153.718318 273.328803 
L 155.856875 273.025934 
L 157.995431 272.979366 
L 160.133988 272.670098 
L 164.411101 271.469717 
L 166.549657 271.079483 
L 168.688213 270.523909 
L 170.82677 270.524865 
L 172.965326 270.296716 
L 175.103883 270.357409 
L 177.242439 271.182069 
L 179.380995 272.211261 
L 181.519552 272.796028 
L 185.796665 274.478547 
L 187.935221 274.919248 
L 190.073778 274.998755 
L 194.35089 274.845895 
L 196.489447 274.239513 
L 198.628003 273.184329 
L 202.905116 271.446964 
L 205.043672 270.735559 
L 207.182229 270.15946 
L 211.459342 269.314673 
L 220.013567 269.013768 
L 222.152124 268.418275 
L 224.29068 267.996374 
L 226.429237 267.214703 
L 228.567793 267.192875 
L 232.844906 266.864241 
L 237.122019 267.515656 
L 239.260575 268.359913 
L 241.399132 268.668587 
L 245.676244 270.265884 
L 247.814801 270.722987 
L 249.953357 271.555952 
L 252.091914 272.252768 
L 254.23047 272.254099 
L 256.369027 272.121011 
L 258.507583 272.304556 
L 260.646139 272.198589 
L 262.784696 272.275839 
L 264.923252 273.323544 
L 267.061809 274.017679 
L 269.200365 274.980525 
L 271.338921 275.340932 
L 275.616034 276.3031 
L 277.754591 276.307263 
L 282.031704 275.63285 
L 286.308816 273.75586 
L 288.447373 272.962731 
L 290.585929 272.519165 
L 292.724486 272.327967 
L 294.863042 271.61809 
L 297.001598 271.433821 
L 299.140155 270.973303 
L 301.278711 270.367807 
L 303.417268 269.938117 
L 305.555824 269.858162 
L 307.694381 270.271446 
L 309.832937 270.42625 
L 311.971493 270.015586 
L 314.11005 269.339344 
L 318.387163 266.978966 
L 320.525719 265.911578 
L 322.664275 265.064798 
L 324.802832 264.843633 
L 326.941388 265.303361 
L 329.079945 265.493943 
L 337.63417 267.803912 
L 339.772727 268.595849 
L 341.911283 269.519006 
L 344.04984 270.917925 
L 348.326953 273.24554 
L 350.465509 274.310152 
L 352.604065 274.579454 
L 354.742622 274.168584 
L 356.881178 272.733651 
L 359.019735 270.801778 
L 361.158291 267.840418 
L 363.296847 264.686606 
L 365.435404 262.895398 
L 367.57396 261.644742 
L 369.712517 261.190481 
L 371.851073 261.378012 
L 373.98963 261.364762 
L 378.266742 260.968551 
L 382.543855 260.99481 
L 384.682412 260.758363 
L 386.820968 260.767873 
L 388.959524 261.365242 
L 391.098081 262.230914 
L 393.236637 263.281616 
L 395.375194 264.738133 
L 397.51375 266.032708 
L 401.790863 267.294539 
L 403.929419 267.829127 
L 408.206532 267.80883 
L 412.483645 268.261616 
L 416.760758 268.970053 
L 421.037871 270.463999 
L 431.730653 271.753745 
L 433.869209 272.38774 
L 438.146322 273.876274 
L 440.284879 274.431535 
L 442.423435 274.566482 
L 446.700548 274.36989 
L 450.977661 274.458747 
L 457.39333 274.783436 
L 463.808999 274.712534 
L 465.947556 274.817999 
L 480.91745 273.925025 
L 485.194563 274.46287 
L 487.33312 274.171341 
L 489.471676 274.186334 
L 489.471676 274.186334 
" clip-path="url(#p2fa793c090)" style="fill: none; stroke: #ff0000; stroke-width: 3; stroke-linecap: square"/>
   </g>
   <g id="LineCollection_1">
    <path d="M 170.82677 313.478125 
L 170.82677 22.318125 
" clip-path="url(#p2fa793c090)" style="fill: none; stroke-dasharray: 5.55,2.4; stroke-dashoffset: 0; stroke: #ff0000; stroke-width: 1.5"/>
    <path d="M 384.682412 313.478125 
L 384.682412 22.318125 
" clip-path="url(#p2fa793c090)" style="fill: none; stroke-dasharray: 5.55,2.4; stroke-dashoffset: 0; stroke: #ff0000; stroke-width: 1.5"/>
   </g>
   <g id="patch_3">
    <path d="M 42.620313 313.478125 
L 42.620313 22.318125 
" style="fill: none; stroke: #000000; stroke-width: 0.8; stroke-linejoin: miter; stroke-linecap: square"/>
   </g>
   <g id="patch_4">
    <path d="M 510.750313 313.478125 
L 510.750313 22.318125 
" style="fill: none; stroke: #000000; stroke-width: 0.8; stroke-linejoin: miter; stroke-linecap: square"/>
   </g>
   <g id="patch_5">
    <path d="M 42.620313 313.478125 
L 510.750313 313.478125 
" style="fill: none; stroke: #000000; stroke-width: 0.8; stroke-linejoin: miter; stroke-linecap: square"/>
   </g>
   <g id="patch_6">
    <path d="M 42.620313 22.318125 
L 510.750313 22.318125 
" style="fill: none; stroke: #000000; stroke-width: 0.8; stroke-linejoin: miter; stroke-linecap: square"/>
   </g>
   <g id="text_18">
    <!-- Corridor -1.0 -->
    <g transform="translate(238.769063 16.318125) scale(0.12 -0.12)">
     <defs>
      <path id="DejaVuSans-43" d="M 4122 4306 
L 4122 3641 
Q 3803 3938 3442 4084 
Q 3081 4231 2675 4231 
Q 1875 4231 1450 3742 
Q 1025 3253 1025 2328 
Q 1025 1406 1450 917 
Q 1875 428 2675 428 
Q 3081 428 3442 575 
Q 3803 722 4122 1019 
L 4122 359 
Q 3791 134 3420 21 
Q 3050 -91 2638 -91 
Q 1578 -91 968 557 
Q 359 1206 359 2328 
Q 359 3453 968 4101 
Q 1578 4750 2638 4750 
Q 3056 4750 3426 4639 
Q 3797 4528 4122 4306 
z
" transform="scale(0.015625)"/>
      <path id="DejaVuSans-2e" d="M 684 794 
L 1344 794 
L 1344 0 
L 684 0 
L 684 794 
z
" transform="scale(0.015625)"/>
     </defs>
     <use xlink:href="#DejaVuSans-43"/>
     <use xlink:href="#DejaVuSans-6f" transform="translate(69.824219 0)"/>
     <use xlink:href="#DejaVuSans-72" transform="translate(131.005859 0)"/>
     <use xlink:href="#DejaVuSans-72" transform="translate(170.369141 0)"/>
     <use xlink:href="#DejaVuSans-69" transform="translate(211.482422 0)"/>
     <use xlink:href="#DejaVuSans-64" transform="translate(239.265625 0)"/>
     <use xlink:href="#DejaVuSans-6f" transform="translate(302.742188 0)"/>
     <use xlink:href="#DejaVuSans-72" transform="translate(363.923828 0)"/>
     <use xlink:href="#DejaVuSans-20" transform="translate(405.037109 0)"/>
     <use xlink:href="#DejaVuSans-2d" transform="translate(436.824219 0)"/>
     <use xlink:href="#DejaVuSans-31" transform="translate(472.908203 0)"/>
     <use xlink:href="#DejaVuSans-2e" transform="translate(536.53125 0)"/>
     <use xlink:href="#DejaVuSans-30" transform="translate(568.318359 0)"/>
    </g>
   </g>
  </g>
  <g id="axes_2">
   <g id="patch_7">
    <path d="M 525.050313 313.478125 
L 993.180312 313.478125 
L 993.180312 22.318125 
L 525.050313 22.318125 
z
" style="fill: #ffffff"/>
   </g>
   <g id="FillBetweenPolyCollection_2">
    <path d="M 546.328949 259.27537 
L 546.328949 275.911066 
L 548.467505 275.821562 
L 550.606062 275.732023 
L 552.744618 276.111623 
L 554.883175 275.573974 
L 557.021731 275.244353 
L 559.160287 274.88765 
L 561.298844 274.126159 
L 563.4374 272.909046 
L 565.575957 271.593615 
L 567.714513 270.389593 
L 569.853069 269.422618 
L 571.991626 268.766777 
L 574.130182 268.440904 
L 576.268739 268.049726 
L 578.407295 268.172659 
L 580.545852 268.753225 
L 582.684408 268.509219 
L 584.822964 268.505245 
L 586.961521 268.501789 
L 589.100077 268.802012 
L 591.238634 268.951339 
L 593.37719 269.140589 
L 595.515746 269.339019 
L 597.654303 269.133198 
L 599.792859 269.097264 
L 601.931416 270.271638 
L 604.069972 271.256012 
L 606.208529 272.137332 
L 608.347085 272.729531 
L 610.485641 273.197085 
L 612.624198 273.221138 
L 614.762754 273.323967 
L 616.901311 273.483964 
L 619.039867 273.22742 
L 621.178424 273.129079 
L 623.31698 273.202304 
L 625.455536 273.44804 
L 627.594093 273.932789 
L 629.732649 274.906346 
L 631.871206 275.418223 
L 634.009762 275.398943 
L 636.148318 274.119896 
L 638.286875 271.148612 
L 640.425431 267.274299 
L 642.563988 263.252597 
L 644.702544 259.158641 
L 646.841101 256.553112 
L 648.979657 257.067765 
L 651.118213 257.221828 
L 653.25677 258.194687 
L 655.395326 259.926763 
L 657.533883 261.422369 
L 659.672439 262.111699 
L 661.810995 262.81078 
L 663.949552 262.605956 
L 666.088108 261.708107 
L 668.226665 260.860014 
L 670.365221 260.214075 
L 672.503778 258.263183 
L 674.642334 256.827508 
L 676.78089 255.477433 
L 678.919447 254.664147 
L 681.058003 253.484872 
L 683.19656 252.10093 
L 685.335116 249.945389 
L 687.473672 248.499144 
L 689.612229 246.959196 
L 691.750785 245.354526 
L 693.889342 244.743609 
L 696.027898 244.151103 
L 698.166455 243.206613 
L 700.305011 242.697367 
L 702.443567 242.246203 
L 704.582124 242.409554 
L 706.72068 243.491667 
L 708.859237 244.602072 
L 710.997793 245.637628 
L 713.13635 247.384385 
L 715.274906 253.28911 
L 717.413462 253.826766 
L 719.552019 256.312663 
L 721.690575 258.039288 
L 723.829132 259.931221 
L 725.967688 261.781744 
L 728.106244 263.88403 
L 730.244801 265.18386 
L 732.383357 266.043206 
L 734.521914 264.800777 
L 736.66047 264.037738 
L 738.799027 261.298972 
L 740.937583 256.296773 
L 743.076139 250.675043 
L 745.214696 244.57745 
L 747.353252 239.098473 
L 749.491809 234.143314 
L 751.630365 229.614593 
L 753.768921 225.192199 
L 755.907478 221.145637 
L 758.046034 217.374057 
L 760.184591 213.977767 
L 762.323147 211.571164 
L 764.461704 210.330106 
L 766.60026 208.732547 
L 768.738816 206.648026 
L 770.877373 204.961636 
L 773.015929 203.435572 
L 775.154486 202.130093 
L 777.293042 201.088091 
L 779.431598 200.061377 
L 781.570155 198.894719 
L 783.708711 197.308797 
L 785.847268 195.2622 
L 787.985824 193.103879 
L 790.124381 191.080484 
L 792.262937 189.404752 
L 794.401493 187.210637 
L 796.54005 184.507474 
L 798.678606 181.304017 
L 800.817163 178.229053 
L 802.955719 175.939811 
L 805.094275 173.830221 
L 807.232832 171.962192 
L 809.371388 170.789446 
L 811.509945 169.983655 
L 813.648501 173.39033 
L 815.787058 173.700723 
L 817.925614 171.657066 
L 820.06417 168.720147 
L 822.202727 167.705192 
L 824.341283 169.152868 
L 826.47984 168.86294 
L 828.618396 168.445865 
L 830.756953 168.636406 
L 832.895509 169.069828 
L 835.034065 169.901827 
L 837.172622 171.173774 
L 839.311178 171.274054 
L 841.449735 172.287915 
L 843.588291 172.588194 
L 845.726847 172.458315 
L 847.865404 172.296749 
L 850.00396 173.238365 
L 852.142517 174.978945 
L 854.281073 176.055147 
L 856.41963 175.858955 
L 858.558186 175.789279 
L 860.696742 180.595959 
L 862.835299 181.525379 
L 864.973855 181.478122 
L 867.112412 180.771584 
L 869.250968 181.12219 
L 871.389524 181.889762 
L 873.528081 182.046244 
L 875.666637 181.25789 
L 877.805194 179.931018 
L 879.94375 177.627316 
L 882.082307 177.714814 
L 884.220863 176.584873 
L 886.359419 175.376426 
L 888.497976 176.568626 
L 890.636532 177.251053 
L 892.775089 176.814719 
L 894.913645 175.268682 
L 897.052201 176.785035 
L 899.190758 176.231884 
L 901.329314 176.387912 
L 903.467871 177.880866 
L 905.606427 182.129355 
L 907.744984 185.304953 
L 909.88354 188.699306 
L 912.022096 190.344265 
L 914.160653 193.038855 
L 916.299209 198.238033 
L 918.437766 204.772918 
L 920.576322 209.948986 
L 922.714879 213.261873 
L 924.853435 215.86549 
L 926.991991 217.504143 
L 929.130548 218.991692 
L 931.269104 219.971993 
L 933.407661 216.512876 
L 935.546217 213.501151 
L 937.684773 214.468362 
L 939.82333 212.337816 
L 941.961886 214.736761 
L 944.100443 219.228449 
L 946.238999 221.669397 
L 948.377556 224.092493 
L 950.516112 226.086211 
L 952.654668 228.449955 
L 954.793225 229.009883 
L 956.931781 230.374007 
L 959.070338 232.174399 
L 961.208894 234.887199 
L 963.34745 235.630887 
L 965.486007 237.56166 
L 967.624563 239.499485 
L 969.76312 240.828958 
L 971.901676 252.188494 
L 971.901676 218.685499 
L 971.901676 218.685499 
L 969.76312 193.696672 
L 967.624563 189.796202 
L 965.486007 184.372726 
L 963.34745 180.008106 
L 961.208894 179.070016 
L 959.070338 175.307326 
L 956.931781 173.763544 
L 954.793225 171.837657 
L 952.654668 172.268851 
L 950.516112 167.847203 
L 948.377556 164.244009 
L 946.238999 160.957254 
L 944.100443 157.89251 
L 941.961886 153.886909 
L 939.82333 150.672952 
L 937.684773 153.674502 
L 935.546217 152.902317 
L 933.407661 156.203921 
L 931.269104 159.859849 
L 929.130548 157.358843 
L 926.991991 154.24586 
L 924.853435 150.718542 
L 922.714879 146.381292 
L 920.576322 141.842322 
L 918.437766 136.913692 
L 916.299209 131.05336 
L 914.160653 125.352631 
L 912.022096 121.633658 
L 909.88354 118.335939 
L 907.744984 114.089064 
L 905.606427 110.557106 
L 903.467871 106.646037 
L 901.329314 105.247092 
L 899.190758 106.142047 
L 897.052201 106.750366 
L 894.913645 106.298114 
L 892.775089 107.094631 
L 890.636532 107.873003 
L 888.497976 108.493933 
L 886.359419 108.794648 
L 884.220863 110.15455 
L 882.082307 111.397714 
L 879.94375 112.167537 
L 877.805194 115.123364 
L 875.666637 117.042231 
L 873.528081 117.943088 
L 871.389524 117.990287 
L 869.250968 117.246649 
L 867.112412 116.270444 
L 864.973855 116.446004 
L 862.835299 116.670918 
L 860.696742 116.771471 
L 858.558186 111.877744 
L 856.41963 111.522551 
L 854.281073 111.462976 
L 852.142517 109.648077 
L 850.00396 107.377701 
L 847.865404 105.842064 
L 845.726847 105.626454 
L 843.588291 105.906252 
L 841.449735 105.245447 
L 839.311178 104.080997 
L 837.172622 103.063344 
L 835.034065 101.149624 
L 832.895509 99.909953 
L 830.756953 99.056587 
L 828.618396 98.952513 
L 826.47984 100.158143 
L 824.341283 101.875071 
L 822.202727 102.230866 
L 820.06417 103.608829 
L 817.925614 106.216494 
L 815.787058 108.094375 
L 813.648501 108.390765 
L 811.509945 102.546345 
L 809.371388 104.23859 
L 807.232832 106.017834 
L 805.094275 108.895596 
L 802.955719 112.672535 
L 800.817163 116.549385 
L 798.678606 121.246937 
L 796.54005 126.021001 
L 794.401493 130.246444 
L 792.262937 133.647491 
L 790.124381 136.197984 
L 787.985824 138.597959 
L 785.847268 140.856532 
L 783.708711 142.800171 
L 781.570155 144.713207 
L 779.431598 146.833006 
L 777.293042 149.247123 
L 775.154486 152.099727 
L 773.015929 155.430415 
L 770.877373 159.174984 
L 768.738816 163.046133 
L 766.60026 166.562146 
L 764.461704 169.536581 
L 762.323147 172.222808 
L 760.184591 175.423589 
L 758.046034 178.950341 
L 755.907478 182.719703 
L 753.768921 186.613685 
L 751.630365 190.985557 
L 749.491809 195.685517 
L 747.353252 200.775242 
L 745.214696 206.551012 
L 743.076139 213.020133 
L 740.937583 218.994856 
L 738.799027 224.241222 
L 736.66047 227.32189 
L 734.521914 228.42354 
L 732.383357 229.245453 
L 730.244801 228.140365 
L 728.106244 226.347791 
L 725.967688 223.212747 
L 723.829132 220.275235 
L 721.690575 217.556021 
L 719.552019 215.002043 
L 717.413462 212.043762 
L 715.274906 213.656218 
L 713.13635 206.033555 
L 710.997793 204.885988 
L 708.859237 204.698689 
L 706.72068 204.730775 
L 704.582124 204.895805 
L 702.443567 205.934602 
L 700.305011 208.058357 
L 698.166455 211.003464 
L 696.027898 214.842149 
L 693.889342 218.419021 
L 691.750785 216.90164 
L 689.612229 220.39335 
L 687.473672 223.131484 
L 685.335116 225.906137 
L 683.19656 228.744704 
L 681.058003 230.798031 
L 678.919447 232.720107 
L 676.78089 234.361701 
L 674.642334 236.428383 
L 672.503778 238.888199 
L 670.365221 241.674846 
L 668.226665 243.524493 
L 666.088108 244.97091 
L 663.949552 246.017011 
L 661.810995 246.027788 
L 659.672439 244.784081 
L 657.533883 243.170282 
L 655.395326 241.115473 
L 653.25677 238.947115 
L 651.118213 237.983386 
L 648.979657 238.880158 
L 646.841101 239.069682 
L 644.702544 242.846208 
L 642.563988 249.435775 
L 640.425431 256.178968 
L 638.286875 261.730536 
L 636.148318 265.721268 
L 634.009762 267.425715 
L 631.871206 267.618186 
L 629.732649 266.755403 
L 627.594093 265.724259 
L 625.455536 265.072048 
L 623.31698 265.026618 
L 621.178424 265.153888 
L 619.039867 265.537051 
L 616.901311 266.199083 
L 614.762754 266.601271 
L 612.624198 266.704829 
L 610.485641 266.540782 
L 608.347085 265.990757 
L 606.208529 265.052551 
L 604.069972 263.814555 
L 601.931416 262.571719 
L 599.792859 261.273872 
L 597.654303 260.925858 
L 595.515746 260.607313 
L 593.37719 259.743545 
L 591.238634 258.996274 
L 589.100077 258.578828 
L 586.961521 258.376291 
L 584.822964 258.509194 
L 582.684408 258.882654 
L 580.545852 259.230965 
L 578.407295 259.174571 
L 576.268739 259.263939 
L 574.130182 259.43468 
L 571.991626 259.624287 
L 569.853069 260.151758 
L 567.714513 260.991127 
L 565.575957 262.053968 
L 563.4374 263.146313 
L 561.298844 264.234792 
L 559.160287 265.020677 
L 557.021731 265.538854 
L 554.883175 265.997228 
L 552.744618 266.57557 
L 550.606062 266.07306 
L 548.467505 265.325581 
L 546.328949 259.27537 
z
" clip-path="url(#p1e8dda4589)" style="fill: #1f77b4; fill-opacity: 0.3"/>
   </g>
   <g id="matplotlib.axis_3">
    <g id="xtick_10">
     <g id="line2d_17">
      <g>
       <use xlink:href="#m5c87635d6c" x="546.328949" y="313.478125" style="stroke: #000000; stroke-width: 0.8"/>
      </g>
     </g>
     <g id="text_19">
      <!-- 0 -->
      <g transform="translate(543.147699 328.076563) scale(0.1 -0.1)">
       <use xlink:href="#DejaVuSans-30"/>
      </g>
     </g>
    </g>
    <g id="xtick_11">
     <g id="line2d_18">
      <g>
       <use xlink:href="#m5c87635d6c" x="597.654303" y="313.478125" style="stroke: #000000; stroke-width: 0.8"/>
      </g>
     </g>
     <g id="text_20">
      <!-- 24 -->
      <g transform="translate(591.291803 328.076563) scale(0.1 -0.1)">
       <use xlink:href="#DejaVuSans-32"/>
       <use xlink:href="#DejaVuSans-34" transform="translate(63.623047 0)"/>
      </g>
     </g>
    </g>
    <g id="xtick_12">
     <g id="line2d_19">
      <g>
       <use xlink:href="#m5c87635d6c" x="651.118213" y="313.478125" style="stroke: #000000; stroke-width: 0.8"/>
      </g>
     </g>
     <g id="text_21">
      <!-- 49 -->
      <g transform="translate(644.755713 328.076563) scale(0.1 -0.1)">
       <use xlink:href="#DejaVuSans-34"/>
       <use xlink:href="#DejaVuSans-39" transform="translate(63.623047 0)"/>
      </g>
     </g>
    </g>
    <g id="xtick_13">
     <g id="line2d_20">
      <g>
       <use xlink:href="#m5c87635d6c" x="704.582124" y="313.478125" style="stroke: #000000; stroke-width: 0.8"/>
      </g>
     </g>
     <g id="text_22">
      <!-- 74 -->
      <g transform="translate(698.219624 328.076563) scale(0.1 -0.1)">
       <use xlink:href="#DejaVuSans-37"/>
       <use xlink:href="#DejaVuSans-34" transform="translate(63.623047 0)"/>
      </g>
     </g>
    </g>
    <g id="xtick_14">
     <g id="line2d_21">
      <g>
       <use xlink:href="#m5c87635d6c" x="758.046034" y="313.478125" style="stroke: #000000; stroke-width: 0.8"/>
      </g>
     </g>
     <g id="text_23">
      <!-- 99 -->
      <g transform="translate(751.683534 328.076563) scale(0.1 -0.1)">
       <use xlink:href="#DejaVuSans-39"/>
       <use xlink:href="#DejaVuSans-39" transform="translate(63.623047 0)"/>
      </g>
     </g>
    </g>
    <g id="xtick_15">
     <g id="line2d_22">
      <g>
       <use xlink:href="#m5c87635d6c" x="811.509945" y="313.478125" style="stroke: #000000; stroke-width: 0.8"/>
      </g>
     </g>
     <g id="text_24">
      <!-- 124 -->
      <g transform="translate(801.966195 328.076563) scale(0.1 -0.1)">
       <use xlink:href="#DejaVuSans-31"/>
       <use xlink:href="#DejaVuSans-32" transform="translate(63.623047 0)"/>
       <use xlink:href="#DejaVuSans-34" transform="translate(127.246094 0)"/>
      </g>
     </g>
    </g>
    <g id="xtick_16">
     <g id="line2d_23">
      <g>
       <use xlink:href="#m5c87635d6c" x="864.973855" y="313.478125" style="stroke: #000000; stroke-width: 0.8"/>
      </g>
     </g>
     <g id="text_25">
      <!-- 149 -->
      <g transform="translate(855.430105 328.076563) scale(0.1 -0.1)">
       <use xlink:href="#DejaVuSans-31"/>
       <use xlink:href="#DejaVuSans-34" transform="translate(63.623047 0)"/>
       <use xlink:href="#DejaVuSans-39" transform="translate(127.246094 0)"/>
      </g>
     </g>
    </g>
    <g id="xtick_17">
     <g id="line2d_24">
      <g>
       <use xlink:href="#m5c87635d6c" x="918.437766" y="313.478125" style="stroke: #000000; stroke-width: 0.8"/>
      </g>
     </g>
     <g id="text_26">
      <!-- 174 -->
      <g transform="translate(908.894016 328.076563) scale(0.1 -0.1)">
       <use xlink:href="#DejaVuSans-31"/>
       <use xlink:href="#DejaVuSans-37" transform="translate(63.623047 0)"/>
       <use xlink:href="#DejaVuSans-34" transform="translate(127.246094 0)"/>
      </g>
     </g>
    </g>
    <g id="xtick_18">
     <g id="line2d_25">
      <g>
       <use xlink:href="#m5c87635d6c" x="971.901676" y="313.478125" style="stroke: #000000; stroke-width: 0.8"/>
      </g>
     </g>
     <g id="text_27">
      <!-- 199 -->
      <g transform="translate(962.357926 328.076563) scale(0.1 -0.1)">
       <use xlink:href="#DejaVuSans-31"/>
       <use xlink:href="#DejaVuSans-39" transform="translate(63.623047 0)"/>
       <use xlink:href="#DejaVuSans-39" transform="translate(127.246094 0)"/>
      </g>
     </g>
    </g>
    <g id="text_28">
     <!-- Spatial bin -->
     <g transform="translate(732.579375 341.754687) scale(0.1 -0.1)">
      <use xlink:href="#DejaVuSans-53"/>
      <use xlink:href="#DejaVuSans-70" transform="translate(63.476562 0)"/>
      <use xlink:href="#DejaVuSans-61" transform="translate(126.953125 0)"/>
      <use xlink:href="#DejaVuSans-74" transform="translate(188.232422 0)"/>
      <use xlink:href="#DejaVuSans-69" transform="translate(227.441406 0)"/>
      <use xlink:href="#DejaVuSans-61" transform="translate(255.224609 0)"/>
      <use xlink:href="#DejaVuSans-6c" transform="translate(316.503906 0)"/>
      <use xlink:href="#DejaVuSans-20" transform="translate(344.287109 0)"/>
      <use xlink:href="#DejaVuSans-62" transform="translate(376.074219 0)"/>
      <use xlink:href="#DejaVuSans-69" transform="translate(439.550781 0)"/>
      <use xlink:href="#DejaVuSans-6e" transform="translate(467.333984 0)"/>
     </g>
    </g>
   </g>
   <g id="matplotlib.axis_4">
    <g id="ytick_7">
     <g id="line2d_26">
      <g>
       <use xlink:href="#m7c9f46df0a" x="525.050313" y="313.478125" style="stroke: #000000; stroke-width: 0.8"/>
      </g>
     </g>
    </g>
    <g id="ytick_8">
     <g id="line2d_27">
      <g>
       <use xlink:href="#m7c9f46df0a" x="525.050313" y="255.246125" style="stroke: #000000; stroke-width: 0.8"/>
      </g>
     </g>
    </g>
    <g id="ytick_9">
     <g id="line2d_28">
      <g>
       <use xlink:href="#m7c9f46df0a" x="525.050313" y="197.014125" style="stroke: #000000; stroke-width: 0.8"/>
      </g>
     </g>
    </g>
    <g id="ytick_10">
     <g id="line2d_29">
      <g>
       <use xlink:href="#m7c9f46df0a" x="525.050313" y="138.782125" style="stroke: #000000; stroke-width: 0.8"/>
      </g>
     </g>
    </g>
    <g id="ytick_11">
     <g id="line2d_30">
      <g>
       <use xlink:href="#m7c9f46df0a" x="525.050313" y="80.550125" style="stroke: #000000; stroke-width: 0.8"/>
      </g>
     </g>
    </g>
    <g id="ytick_12">
     <g id="line2d_31">
      <g>
       <use xlink:href="#m7c9f46df0a" x="525.050313" y="22.318125" style="stroke: #000000; stroke-width: 0.8"/>
      </g>
     </g>
    </g>
   </g>
   <g id="line2d_32">
    <path d="M 546.328949 267.593218 
L 548.467505 270.573572 
L 552.744618 271.343596 
L 554.883175 270.785601 
L 559.160287 269.954163 
L 561.298844 269.180475 
L 567.714513 265.69036 
L 569.853069 264.787188 
L 571.991626 264.195532 
L 576.268739 263.656833 
L 578.407295 263.673615 
L 580.545852 263.992095 
L 584.822964 263.507219 
L 586.961521 263.43904 
L 591.238634 263.973806 
L 595.515746 264.973166 
L 599.792859 265.185568 
L 604.069972 267.535284 
L 606.208529 268.594942 
L 608.347085 269.360144 
L 610.485641 269.868934 
L 614.762754 269.962619 
L 616.901311 269.841524 
L 619.039867 269.382235 
L 621.178424 269.141483 
L 623.31698 269.114461 
L 625.455536 269.260044 
L 627.594093 269.828524 
L 629.732649 270.830874 
L 631.871206 271.518204 
L 634.009762 271.412329 
L 636.148318 269.920582 
L 638.286875 266.439574 
L 640.425431 261.726633 
L 644.702544 251.002424 
L 646.841101 247.811397 
L 648.979657 247.973962 
L 651.118213 247.602607 
L 653.25677 248.570901 
L 655.395326 250.521118 
L 657.533883 252.296326 
L 659.672439 253.44789 
L 661.810995 254.419284 
L 663.949552 254.311484 
L 666.088108 253.339508 
L 670.365221 250.944461 
L 672.503778 248.575691 
L 674.642334 246.627946 
L 676.78089 244.919567 
L 678.919447 243.692127 
L 681.058003 242.141451 
L 683.19656 240.422817 
L 685.335116 237.925763 
L 689.612229 233.676273 
L 691.750785 231.128083 
L 693.889342 231.581315 
L 696.027898 229.496626 
L 698.166455 227.105038 
L 700.305011 225.377862 
L 702.443567 224.090402 
L 704.582124 223.652679 
L 708.859237 224.65038 
L 710.997793 225.261808 
L 713.13635 226.70897 
L 715.274906 233.472664 
L 717.413462 232.935264 
L 719.552019 235.657353 
L 721.690575 237.797654 
L 725.967688 242.497246 
L 728.106244 245.11591 
L 730.244801 246.662113 
L 732.383357 247.64433 
L 736.66047 245.679814 
L 738.799027 242.770097 
L 740.937583 237.645815 
L 743.076139 231.847588 
L 745.214696 225.564231 
L 747.353252 219.936858 
L 749.491809 214.914415 
L 753.768921 205.902942 
L 758.046034 198.162199 
L 760.184591 194.700678 
L 762.323147 191.896986 
L 764.461704 189.933343 
L 766.60026 187.647346 
L 770.877373 182.06831 
L 773.015929 179.432994 
L 775.154486 177.11491 
L 777.293042 175.167607 
L 783.708711 170.054484 
L 785.847268 168.059366 
L 792.262937 161.526122 
L 794.401493 158.72854 
L 796.54005 155.264238 
L 800.817163 147.389219 
L 805.094275 141.362908 
L 807.232832 138.990013 
L 809.371388 137.514018 
L 811.509945 136.265 
L 813.648501 140.890547 
L 815.787058 140.897549 
L 817.925614 138.93678 
L 820.06417 136.164488 
L 822.202727 134.968029 
L 824.341283 135.51397 
L 826.47984 134.510542 
L 828.618396 133.699189 
L 830.756953 133.846497 
L 832.895509 134.48989 
L 835.034065 135.525725 
L 837.172622 137.118559 
L 839.311178 137.677525 
L 841.449735 138.766681 
L 843.588291 139.247223 
L 845.726847 139.042385 
L 847.865404 139.069407 
L 850.00396 140.308033 
L 852.142517 142.313511 
L 854.281073 143.759061 
L 856.41963 143.690753 
L 858.558186 143.833511 
L 860.696742 148.683715 
L 862.835299 149.098148 
L 864.973855 148.962063 
L 867.112412 148.521014 
L 871.389524 149.940024 
L 873.528081 149.994666 
L 875.666637 149.15006 
L 877.805194 147.527191 
L 879.94375 144.897426 
L 882.082307 144.556264 
L 886.359419 142.085537 
L 888.497976 142.531279 
L 890.636532 142.562028 
L 892.775089 141.954675 
L 894.913645 140.783398 
L 897.052201 141.7677 
L 899.190758 141.186965 
L 901.329314 140.817502 
L 903.467871 142.263451 
L 905.606427 146.34323 
L 907.744984 149.697008 
L 909.88354 153.517623 
L 912.022096 155.988961 
L 914.160653 159.195743 
L 916.299209 164.645697 
L 918.437766 170.843305 
L 920.576322 175.895654 
L 922.714879 179.821582 
L 924.853435 183.292016 
L 926.991991 185.875002 
L 929.130548 188.175267 
L 931.269104 189.915921 
L 933.407661 186.358398 
L 935.546217 183.201734 
L 937.684773 184.071432 
L 939.82333 181.505384 
L 941.961886 184.311835 
L 944.100443 188.56048 
L 950.516112 196.966707 
L 952.654668 200.359403 
L 954.793225 200.42377 
L 959.070338 203.740862 
L 961.208894 206.978608 
L 963.34745 207.819496 
L 965.486007 210.967193 
L 967.624563 214.647844 
L 969.76312 217.262815 
L 971.901676 235.436997 
L 971.901676 235.436997 
" clip-path="url(#p1e8dda4589)" style="fill: none; stroke: #ff0000; stroke-width: 3; stroke-linecap: square"/>
   </g>
   <g id="LineCollection_2">
    <path d="M 653.25677 313.478125 
L 653.25677 22.318125 
" clip-path="url(#p1e8dda4589)" style="fill: none; stroke-dasharray: 5.55,2.4; stroke-dashoffset: 0; stroke: #ff0000; stroke-width: 1.5"/>
    <path d="M 760.184591 313.478125 
L 760.184591 22.318125 
" clip-path="url(#p1e8dda4589)" style="fill: none; stroke-dasharray: 5.55,2.4; stroke-dashoffset: 0; stroke: #ff0000; stroke-width: 1.5"/>
   </g>
   <g id="patch_8">
    <path d="M 525.050313 313.478125 
L 525.050313 22.318125 
" style="fill: none; stroke: #000000; stroke-width: 0.8; stroke-linejoin: miter; stroke-linecap: square"/>
   </g>
   <g id="patch_9">
    <path d="M 993.180312 313.478125 
L 993.180312 22.318125 
" style="fill: none; stroke: #000000; stroke-width: 0.8; stroke-linejoin: miter; stroke-linecap: square"/>
   </g>
   <g id="patch_10">
    <path d="M 525.050313 313.478125 
L 993.180312 313.478125 
" style="fill: none; stroke: #000000; stroke-width: 0.8; stroke-linejoin: miter; stroke-linecap: square"/>
   </g>
   <g id="patch_11">
    <path d="M 525.050313 22.318125 
L 993.180312 22.318125 
" style="fill: none; stroke: #000000; stroke-width: 0.8; stroke-linejoin: miter; stroke-linecap: square"/>
   </g>
   <g id="text_29">
    <!-- Corridor 0.0 -->
    <g transform="translate(723.36375 16.318125) scale(0.12 -0.12)">
     <use xlink:href="#DejaVuSans-43"/>
     <use xlink:href="#DejaVuSans-6f" transform="translate(69.824219 0)"/>
     <use xlink:href="#DejaVuSans-72" transform="translate(131.005859 0)"/>
     <use xlink:href="#DejaVuSans-72" transform="translate(170.369141 0)"/>
     <use xlink:href="#DejaVuSans-69" transform="translate(211.482422 0)"/>
     <use xlink:href="#DejaVuSans-64" transform="translate(239.265625 0)"/>
     <use xlink:href="#DejaVuSans-6f" transform="translate(302.742188 0)"/>
     <use xlink:href="#DejaVuSans-72" transform="translate(363.923828 0)"/>
     <use xlink:href="#DejaVuSans-20" transform="translate(405.037109 0)"/>
     <use xlink:href="#DejaVuSans-30" transform="translate(436.824219 0)"/>
     <use xlink:href="#DejaVuSans-2e" transform="translate(500.447266 0)"/>
     <use xlink:href="#DejaVuSans-30" transform="translate(532.234375 0)"/>
    </g>
   </g>
  </g>
 </g>
 <defs>
  <clipPath id="p2fa793c090">
   <rect x="42.620313" y="22.318125" width="468.13" height="291.16"/>
  </clipPath>
  <clipPath id="p1e8dda4589">
   <rect x="525.050313" y="22.318125" width="468.13" height="291.16"/>
  </clipPath>
 </defs>
</svg>
