<?xml version="1.0" encoding="utf-8" standalone="no"?>
<!DOCTYPE svg PUBLIC "-//W3C//DTD SVG 1.1//EN"
  "http://www.w3.org/Graphics/SVG/1.1/DTD/svg11.dtd">
<svg xmlns:xlink="http://www.w3.org/1999/xlink" width="1000.380312pt" height="351.034375pt" viewBox="0 0 1000.380312 351.034375" xmlns="http://www.w3.org/2000/svg" version="1.1">
 <metadata>
  <rdf:RDF xmlns:dc="http://purl.org/dc/elements/1.1/" xmlns:cc="http://creativecommons.org/ns#" xmlns:rdf="http://www.w3.org/1999/02/22-rdf-syntax-ns#">
   <cc:Work>
    <dc:type rdf:resource="http://purl.org/dc/dcmitype/StillImage"/>
    <dc:date>2025-11-24T14:10:23.841970</dc:date>
    <dc:format>image/svg+xml</dc:format>
    <dc:creator>
     <cc:Agent>
      <dc:title>Matplotlib v3.10.0, https://matplotlib.org/</dc:title>
     </cc:Agent>
    </dc:creator>
   </cc:Work>
  </rdf:RDF>
 </metadata>
 <defs>
  <style type="text/css">*{stroke-linejoin: round; stroke-linecap: butt}</style>
 </defs>
 <g id="figure_1">
  <g id="patch_1">
   <path d="M 0 351.034375 
L 1000.380312 351.034375 
L 1000.380312 0 
L 0 0 
z
" style="fill: #ffffff"/>
  </g>
  <g id="axes_1">
   <g id="patch_2">
    <path d="M 42.620313 313.478125 
L 510.750313 313.478125 
L 510.750313 22.318125 
L 42.620313 22.318125 
z
" style="fill: #ffffff"/>
   </g>
   <g id="FillBetweenPolyCollection_1">
    <path d="M 63.898949 255.601346 
L 63.898949 274.739091 
L 66.755142 272.364501 
L 69.611334 269.804687 
L 72.467527 265.28227 
L 75.32372 261.891214 
L 78.179913 258.680995 
L 81.036106 255.603841 
L 83.892298 246.708785 
L 86.748491 241.175184 
L 89.604684 236.697281 
L 92.460877 229.574578 
L 95.31707 218.690819 
L 98.173262 209.08014 
L 101.029455 207.376682 
L 103.885648 211.488289 
L 106.741841 206.558468 
L 109.598034 204.195522 
L 112.454226 205.647225 
L 115.310419 206.903498 
L 118.166612 201.381182 
L 121.022805 198.633015 
L 123.878998 194.964151 
L 126.73519 199.427126 
L 129.591383 199.958389 
L 132.447576 204.202234 
L 135.303769 214.806764 
L 138.159962 223.884395 
L 141.016154 226.252837 
L 143.872347 232.460116 
L 146.72854 232.727444 
L 149.584733 232.585914 
L 152.440926 232.488138 
L 155.297118 234.964638 
L 158.153311 240.128409 
L 161.009504 241.143619 
L 163.865697 242.763503 
L 166.72189 246.798917 
L 169.578082 250.879392 
L 172.434275 254.687538 
L 175.290468 258.486996 
L 178.146661 263.159367 
L 181.002854 269.627202 
L 183.859046 272.592993 
L 186.715239 274.76234 
L 189.571432 275.851267 
L 192.427625 276.461816 
L 195.283818 278.22836 
L 198.14001 278.230353 
L 200.996203 277.924126 
L 203.852396 278.472865 
L 206.708589 279.985385 
L 209.564782 281.557691 
L 212.420974 282.624381 
L 215.277167 282.98249 
L 218.13336 283.070445 
L 220.989553 283.101073 
L 223.845746 282.861758 
L 226.701938 281.629232 
L 229.558131 281.563125 
L 232.414324 281.654083 
L 235.270517 281.403163 
L 238.12671 282.420558 
L 240.982902 283.630846 
L 243.839095 284.520221 
L 246.695288 284.722152 
L 249.551481 284.501584 
L 252.407674 284.748904 
L 255.263866 285.569398 
L 258.120059 286.934047 
L 260.976252 286.793943 
L 263.832445 285.86197 
L 266.688638 286.167881 
L 269.54483 286.983303 
L 272.401023 287.407205 
L 275.257216 286.432945 
L 278.113409 285.172357 
L 280.969602 284.75791 
L 283.825795 286.153889 
L 286.681987 287.625806 
L 289.53818 288.042382 
L 292.394373 287.305944 
L 295.250566 286.847962 
L 298.106759 287.071974 
L 300.962951 287.235797 
L 303.819144 286.92486 
L 306.675337 289.157925 
L 309.53153 289.278762 
L 312.387723 289.209399 
L 315.243915 289.808625 
L 318.100108 289.835103 
L 320.956301 289.746405 
L 323.812494 287.602145 
L 326.668687 286.419543 
L 329.524879 287.28452 
L 332.381072 287.818426 
L 335.237265 287.623547 
L 338.093458 287.277734 
L 340.949651 287.049 
L 343.805843 285.642074 
L 346.662036 285.123525 
L 349.518229 286.166055 
L 352.374422 287.064892 
L 355.230615 288.378916 
L 358.086807 288.513889 
L 360.943 289.096815 
L 363.799193 290.575655 
L 366.655386 291.98066 
L 369.511579 292.401522 
L 372.367771 292.778469 
L 375.223964 292.826284 
L 378.080157 291.500362 
L 380.93635 291.649847 
L 383.792543 291.300291 
L 386.648735 291.598821 
L 389.504928 291.245518 
L 392.361121 290.403939 
L 395.217314 289.494596 
L 398.073507 289.429339 
L 400.929699 289.731581 
L 403.785892 290.510335 
L 406.642085 291.026712 
L 409.498278 291.147117 
L 412.354471 291.262317 
L 415.210663 291.340756 
L 418.066856 291.061877 
L 420.923049 290.009529 
L 423.779242 288.828991 
L 426.635435 287.620514 
L 429.491627 286.396347 
L 432.34782 285.423533 
L 435.204013 286.012059 
L 438.060206 287.399034 
L 440.916399 289.484418 
L 443.772591 291.567179 
L 446.628784 290.503681 
L 449.484977 289.416763 
L 452.34117 287.947041 
L 455.197363 287.249495 
L 458.053555 285.76052 
L 460.909748 286.067467 
L 463.765941 280.902707 
L 466.622134 278.256691 
L 469.478327 270.017151 
L 472.334519 268.654482 
L 475.190712 274.658743 
L 478.046905 274.377711 
L 480.903098 273.018113 
L 483.759291 272.65486 
L 486.615483 273.084112 
L 489.471676 274.764658 
L 489.471676 256.322637 
L 489.471676 256.322637 
L 486.615483 244.172534 
L 483.759291 244.382495 
L 480.903098 253.040095 
L 478.046905 257.876932 
L 475.190712 251.866305 
L 472.334519 238.725174 
L 469.478327 250.469679 
L 466.622134 258.152386 
L 463.765941 262.437179 
L 460.909748 260.889432 
L 458.053555 268.206912 
L 455.197363 269.027504 
L 452.34117 274.629614 
L 449.484977 278.849697 
L 446.628784 279.424408 
L 443.772591 280.78458 
L 440.916399 279.323606 
L 438.060206 277.297347 
L 435.204013 276.610357 
L 432.34782 275.747775 
L 429.491627 276.67324 
L 426.635435 277.547669 
L 423.779242 278.196573 
L 420.923049 279.417109 
L 418.066856 281.124859 
L 415.210663 281.336975 
L 412.354471 280.220211 
L 409.498278 279.24422 
L 406.642085 279.800635 
L 403.785892 279.840912 
L 400.929699 279.520942 
L 398.073507 279.222109 
L 395.217314 279.033201 
L 392.361121 280.208397 
L 389.504928 281.62659 
L 386.648735 282.429825 
L 383.792543 282.654816 
L 380.93635 282.547333 
L 378.080157 281.429581 
L 375.223964 281.323165 
L 372.367771 281.228937 
L 369.511579 281.366043 
L 366.655386 281.919973 
L 363.799193 280.377847 
L 360.943 279.030844 
L 358.086807 278.160705 
L 355.230615 277.945407 
L 352.374422 276.914194 
L 349.518229 276.297519 
L 346.662036 275.786312 
L 343.805843 276.893705 
L 340.949651 277.619884 
L 338.093458 277.998604 
L 335.237265 277.918663 
L 332.381072 278.080923 
L 329.524879 277.219111 
L 326.668687 276.894622 
L 323.812494 278.564367 
L 320.956301 279.935992 
L 318.100108 279.143037 
L 315.243915 279.93437 
L 312.387723 279.825304 
L 309.53153 279.377662 
L 306.675337 279.447896 
L 303.819144 277.889673 
L 300.962951 278.718903 
L 298.106759 278.318318 
L 295.250566 277.357795 
L 292.394373 277.009403 
L 289.53818 276.115863 
L 286.681987 273.943975 
L 283.825795 272.359196 
L 280.969602 273.075695 
L 278.113409 274.437307 
L 275.257216 275.700873 
L 272.401023 277.403718 
L 269.54483 276.755111 
L 266.688638 273.414213 
L 263.832445 274.177897 
L 260.976252 274.98245 
L 258.120059 274.890665 
L 255.263866 274.398538 
L 252.407674 272.863738 
L 249.551481 271.736759 
L 246.695288 271.924335 
L 243.839095 272.318285 
L 240.982902 271.704752 
L 238.12671 270.400853 
L 235.270517 268.885676 
L 232.414324 268.443066 
L 229.558131 266.257227 
L 226.701938 265.07811 
L 223.845746 266.801804 
L 220.989553 266.447507 
L 218.13336 266.13121 
L 215.277167 265.439775 
L 212.420974 263.675798 
L 209.564782 260.900949 
L 206.708589 258.445764 
L 203.852396 256.620918 
L 200.996203 254.814148 
L 198.14001 253.704088 
L 195.283818 252.715593 
L 192.427625 250.258202 
L 189.571432 248.813977 
L 186.715239 244.549879 
L 183.859046 240.184108 
L 181.002854 235.805112 
L 178.146661 225.998679 
L 175.290468 218.021387 
L 172.434275 210.948779 
L 169.578082 205.270169 
L 166.72189 201.767586 
L 163.865697 198.892449 
L 161.009504 196.281296 
L 158.153311 191.339195 
L 155.297118 181.997249 
L 152.440926 177.924684 
L 149.584733 178.556797 
L 146.72854 180.749058 
L 143.872347 181.984474 
L 141.016154 178.279054 
L 138.159962 174.578199 
L 135.303769 160.52026 
L 132.447576 146.515075 
L 129.591383 142.43464 
L 126.73519 140.387958 
L 123.878998 137.695291 
L 121.022805 138.829188 
L 118.166612 141.711089 
L 115.310419 150.549421 
L 112.454226 145.283077 
L 109.598034 143.966113 
L 106.741841 147.079013 
L 103.885648 154.604826 
L 101.029455 149.725649 
L 98.173262 152.530294 
L 95.31707 166.524914 
L 92.460877 172.558044 
L 89.604684 184.361283 
L 86.748491 196.397715 
L 83.892298 207.910485 
L 81.036106 217.197529 
L 78.179913 221.179175 
L 75.32372 222.286444 
L 72.467527 226.984282 
L 69.611334 235.038984 
L 66.755142 243.392825 
L 63.898949 255.601346 
z
" clip-path="url(#p69580355fb)" style="fill: #1f77b4; fill-opacity: 0.3"/>
   </g>
   <g id="matplotlib.axis_1">
    <g id="xtick_1">
     <g id="line2d_1">
      <defs>
       <path id="m7ae82ac487" d="M 0 0 
L 0 3.5 
" style="stroke: #000000; stroke-width: 0.8"/>
      </defs>
      <g>
       <use xlink:href="#m7ae82ac487" x="63.898949" y="313.478125" style="stroke: #000000; stroke-width: 0.8"/>
      </g>
     </g>
     <g id="text_1">
      <!-- 0 -->
      <g transform="translate(60.717699 328.076563) scale(0.1 -0.1)">
       <defs>
        <path id="DejaVuSans-30" d="M 2034 4250 
Q 1547 4250 1301 3770 
Q 1056 3291 1056 2328 
Q 1056 1369 1301 889 
Q 1547 409 2034 409 
Q 2525 409 2770 889 
Q 3016 1369 3016 2328 
Q 3016 3291 2770 3770 
Q 2525 4250 2034 4250 
z
M 2034 4750 
Q 2819 4750 3233 4129 
Q 3647 3509 3647 2328 
Q 3647 1150 3233 529 
Q 2819 -91 2034 -91 
Q 1250 -91 836 529 
Q 422 1150 422 2328 
Q 422 3509 836 4129 
Q 1250 4750 2034 4750 
z
" transform="scale(0.015625)"/>
       </defs>
       <use xlink:href="#DejaVuSans-30"/>
      </g>
     </g>
    </g>
    <g id="xtick_2">
     <g id="line2d_2">
      <g>
       <use xlink:href="#m7ae82ac487" x="115.310419" y="313.478125" style="stroke: #000000; stroke-width: 0.8"/>
      </g>
     </g>
     <g id="text_2">
      <!-- 18 -->
      <g transform="translate(108.947919 328.076563) scale(0.1 -0.1)">
       <defs>
        <path id="DejaVuSans-31" d="M 794 531 
L 1825 531 
L 1825 4091 
L 703 3866 
L 703 4441 
L 1819 4666 
L 2450 4666 
L 2450 531 
L 3481 531 
L 3481 0 
L 794 0 
L 794 531 
z
" transform="scale(0.015625)"/>
        <path id="DejaVuSans-38" d="M 2034 2216 
Q 1584 2216 1326 1975 
Q 1069 1734 1069 1313 
Q 1069 891 1326 650 
Q 1584 409 2034 409 
Q 2484 409 2743 651 
Q 3003 894 3003 1313 
Q 3003 1734 2745 1975 
Q 2488 2216 2034 2216 
z
M 1403 2484 
Q 997 2584 770 2862 
Q 544 3141 544 3541 
Q 544 4100 942 4425 
Q 1341 4750 2034 4750 
Q 2731 4750 3128 4425 
Q 3525 4100 3525 3541 
Q 3525 3141 3298 2862 
Q 3072 2584 2669 2484 
Q 3125 2378 3379 2068 
Q 3634 1759 3634 1313 
Q 3634 634 3220 271 
Q 2806 -91 2034 -91 
Q 1263 -91 848 271 
Q 434 634 434 1313 
Q 434 1759 690 2068 
Q 947 2378 1403 2484 
z
M 1172 3481 
Q 1172 3119 1398 2916 
Q 1625 2713 2034 2713 
Q 2441 2713 2670 2916 
Q 2900 3119 2900 3481 
Q 2900 3844 2670 4047 
Q 2441 4250 2034 4250 
Q 1625 4250 1398 4047 
Q 1172 3844 1172 3481 
z
" transform="scale(0.015625)"/>
       </defs>
       <use xlink:href="#DejaVuSans-31"/>
       <use xlink:href="#DejaVuSans-38" transform="translate(63.623047 0)"/>
      </g>
     </g>
    </g>
    <g id="xtick_3">
     <g id="line2d_3">
      <g>
       <use xlink:href="#m7ae82ac487" x="169.578082" y="313.478125" style="stroke: #000000; stroke-width: 0.8"/>
      </g>
     </g>
     <g id="text_3">
      <!-- 37 -->
      <g transform="translate(163.215582 328.076563) scale(0.1 -0.1)">
       <defs>
        <path id="DejaVuSans-33" d="M 2597 2516 
Q 3050 2419 3304 2112 
Q 3559 1806 3559 1356 
Q 3559 666 3084 287 
Q 2609 -91 1734 -91 
Q 1441 -91 1130 -33 
Q 819 25 488 141 
L 488 750 
Q 750 597 1062 519 
Q 1375 441 1716 441 
Q 2309 441 2620 675 
Q 2931 909 2931 1356 
Q 2931 1769 2642 2001 
Q 2353 2234 1838 2234 
L 1294 2234 
L 1294 2753 
L 1863 2753 
Q 2328 2753 2575 2939 
Q 2822 3125 2822 3475 
Q 2822 3834 2567 4026 
Q 2313 4219 1838 4219 
Q 1578 4219 1281 4162 
Q 984 4106 628 3988 
L 628 4550 
Q 988 4650 1302 4700 
Q 1616 4750 1894 4750 
Q 2613 4750 3031 4423 
Q 3450 4097 3450 3541 
Q 3450 3153 3228 2886 
Q 3006 2619 2597 2516 
z
" transform="scale(0.015625)"/>
        <path id="DejaVuSans-37" d="M 525 4666 
L 3525 4666 
L 3525 4397 
L 1831 0 
L 1172 0 
L 2766 4134 
L 525 4134 
L 525 4666 
z
" transform="scale(0.015625)"/>
       </defs>
       <use xlink:href="#DejaVuSans-33"/>
       <use xlink:href="#DejaVuSans-37" transform="translate(63.623047 0)"/>
      </g>
     </g>
    </g>
    <g id="xtick_4">
     <g id="line2d_4">
      <g>
       <use xlink:href="#m7ae82ac487" x="220.989553" y="313.478125" style="stroke: #000000; stroke-width: 0.8"/>
      </g>
     </g>
     <g id="text_4">
      <!-- 55 -->
      <g transform="translate(214.627053 328.076563) scale(0.1 -0.1)">
       <defs>
        <path id="DejaVuSans-35" d="M 691 4666 
L 3169 4666 
L 3169 4134 
L 1269 4134 
L 1269 2991 
Q 1406 3038 1543 3061 
Q 1681 3084 1819 3084 
Q 2600 3084 3056 2656 
Q 3513 2228 3513 1497 
Q 3513 744 3044 326 
Q 2575 -91 1722 -91 
Q 1428 -91 1123 -41 
Q 819 9 494 109 
L 494 744 
Q 775 591 1075 516 
Q 1375 441 1709 441 
Q 2250 441 2565 725 
Q 2881 1009 2881 1497 
Q 2881 1984 2565 2268 
Q 2250 2553 1709 2553 
Q 1456 2553 1204 2497 
Q 953 2441 691 2322 
L 691 4666 
z
" transform="scale(0.015625)"/>
       </defs>
       <use xlink:href="#DejaVuSans-35"/>
       <use xlink:href="#DejaVuSans-35" transform="translate(63.623047 0)"/>
      </g>
     </g>
    </g>
    <g id="xtick_5">
     <g id="line2d_5">
      <g>
       <use xlink:href="#m7ae82ac487" x="275.257216" y="313.478125" style="stroke: #000000; stroke-width: 0.8"/>
      </g>
     </g>
     <g id="text_5">
      <!-- 74 -->
      <g transform="translate(268.894716 328.076563) scale(0.1 -0.1)">
       <defs>
        <path id="DejaVuSans-34" d="M 2419 4116 
L 825 1625 
L 2419 1625 
L 2419 4116 
z
M 2253 4666 
L 3047 4666 
L 3047 1625 
L 3713 1625 
L 3713 1100 
L 3047 1100 
L 3047 0 
L 2419 0 
L 2419 1100 
L 313 1100 
L 313 1709 
L 2253 4666 
z
" transform="scale(0.015625)"/>
       </defs>
       <use xlink:href="#DejaVuSans-37"/>
       <use xlink:href="#DejaVuSans-34" transform="translate(63.623047 0)"/>
      </g>
     </g>
    </g>
    <g id="xtick_6">
     <g id="line2d_6">
      <g>
       <use xlink:href="#m7ae82ac487" x="329.524879" y="313.478125" style="stroke: #000000; stroke-width: 0.8"/>
      </g>
     </g>
     <g id="text_6">
      <!-- 93 -->
      <g transform="translate(323.162379 328.076563) scale(0.1 -0.1)">
       <defs>
        <path id="DejaVuSans-39" d="M 703 97 
L 703 672 
Q 941 559 1184 500 
Q 1428 441 1663 441 
Q 2288 441 2617 861 
Q 2947 1281 2994 2138 
Q 2813 1869 2534 1725 
Q 2256 1581 1919 1581 
Q 1219 1581 811 2004 
Q 403 2428 403 3163 
Q 403 3881 828 4315 
Q 1253 4750 1959 4750 
Q 2769 4750 3195 4129 
Q 3622 3509 3622 2328 
Q 3622 1225 3098 567 
Q 2575 -91 1691 -91 
Q 1453 -91 1209 -44 
Q 966 3 703 97 
z
M 1959 2075 
Q 2384 2075 2632 2365 
Q 2881 2656 2881 3163 
Q 2881 3666 2632 3958 
Q 2384 4250 1959 4250 
Q 1534 4250 1286 3958 
Q 1038 3666 1038 3163 
Q 1038 2656 1286 2365 
Q 1534 2075 1959 2075 
z
" transform="scale(0.015625)"/>
       </defs>
       <use xlink:href="#DejaVuSans-39"/>
       <use xlink:href="#DejaVuSans-33" transform="translate(63.623047 0)"/>
      </g>
     </g>
    </g>
    <g id="xtick_7">
     <g id="line2d_7">
      <g>
       <use xlink:href="#m7ae82ac487" x="380.93635" y="313.478125" style="stroke: #000000; stroke-width: 0.8"/>
      </g>
     </g>
     <g id="text_7">
      <!-- 111 -->
      <g transform="translate(371.3926 328.076563) scale(0.1 -0.1)">
       <use xlink:href="#DejaVuSans-31"/>
       <use xlink:href="#DejaVuSans-31" transform="translate(63.623047 0)"/>
       <use xlink:href="#DejaVuSans-31" transform="translate(127.246094 0)"/>
      </g>
     </g>
    </g>
    <g id="xtick_8">
     <g id="line2d_8">
      <g>
       <use xlink:href="#m7ae82ac487" x="435.204013" y="313.478125" style="stroke: #000000; stroke-width: 0.8"/>
      </g>
     </g>
     <g id="text_8">
      <!-- 130 -->
      <g transform="translate(425.660263 328.076563) scale(0.1 -0.1)">
       <use xlink:href="#DejaVuSans-31"/>
       <use xlink:href="#DejaVuSans-33" transform="translate(63.623047 0)"/>
       <use xlink:href="#DejaVuSans-30" transform="translate(127.246094 0)"/>
      </g>
     </g>
    </g>
    <g id="xtick_9">
     <g id="line2d_9">
      <g>
       <use xlink:href="#m7ae82ac487" x="489.471676" y="313.478125" style="stroke: #000000; stroke-width: 0.8"/>
      </g>
     </g>
     <g id="text_9">
      <!-- 149 -->
      <g transform="translate(479.927926 328.076563) scale(0.1 -0.1)">
       <use xlink:href="#DejaVuSans-31"/>
       <use xlink:href="#DejaVuSans-34" transform="translate(63.623047 0)"/>
       <use xlink:href="#DejaVuSans-39" transform="translate(127.246094 0)"/>
      </g>
     </g>
    </g>
    <g id="text_10">
     <!-- Spatial bin -->
     <g transform="translate(250.149375 341.754687) scale(0.1 -0.1)">
      <defs>
       <path id="DejaVuSans-53" d="M 3425 4513 
L 3425 3897 
Q 3066 4069 2747 4153 
Q 2428 4238 2131 4238 
Q 1616 4238 1336 4038 
Q 1056 3838 1056 3469 
Q 1056 3159 1242 3001 
Q 1428 2844 1947 2747 
L 2328 2669 
Q 3034 2534 3370 2195 
Q 3706 1856 3706 1288 
Q 3706 609 3251 259 
Q 2797 -91 1919 -91 
Q 1588 -91 1214 -16 
Q 841 59 441 206 
L 441 856 
Q 825 641 1194 531 
Q 1563 422 1919 422 
Q 2459 422 2753 634 
Q 3047 847 3047 1241 
Q 3047 1584 2836 1778 
Q 2625 1972 2144 2069 
L 1759 2144 
Q 1053 2284 737 2584 
Q 422 2884 422 3419 
Q 422 4038 858 4394 
Q 1294 4750 2059 4750 
Q 2388 4750 2728 4690 
Q 3069 4631 3425 4513 
z
" transform="scale(0.015625)"/>
       <path id="DejaVuSans-70" d="M 1159 525 
L 1159 -1331 
L 581 -1331 
L 581 3500 
L 1159 3500 
L 1159 2969 
Q 1341 3281 1617 3432 
Q 1894 3584 2278 3584 
Q 2916 3584 3314 3078 
Q 3713 2572 3713 1747 
Q 3713 922 3314 415 
Q 2916 -91 2278 -91 
Q 1894 -91 1617 61 
Q 1341 213 1159 525 
z
M 3116 1747 
Q 3116 2381 2855 2742 
Q 2594 3103 2138 3103 
Q 1681 3103 1420 2742 
Q 1159 2381 1159 1747 
Q 1159 1113 1420 752 
Q 1681 391 2138 391 
Q 2594 391 2855 752 
Q 3116 1113 3116 1747 
z
" transform="scale(0.015625)"/>
       <path id="DejaVuSans-61" d="M 2194 1759 
Q 1497 1759 1228 1600 
Q 959 1441 959 1056 
Q 959 750 1161 570 
Q 1363 391 1709 391 
Q 2188 391 2477 730 
Q 2766 1069 2766 1631 
L 2766 1759 
L 2194 1759 
z
M 3341 1997 
L 3341 0 
L 2766 0 
L 2766 531 
Q 2569 213 2275 61 
Q 1981 -91 1556 -91 
Q 1019 -91 701 211 
Q 384 513 384 1019 
Q 384 1609 779 1909 
Q 1175 2209 1959 2209 
L 2766 2209 
L 2766 2266 
Q 2766 2663 2505 2880 
Q 2244 3097 1772 3097 
Q 1472 3097 1187 3025 
Q 903 2953 641 2809 
L 641 3341 
Q 956 3463 1253 3523 
Q 1550 3584 1831 3584 
Q 2591 3584 2966 3190 
Q 3341 2797 3341 1997 
z
" transform="scale(0.015625)"/>
       <path id="DejaVuSans-74" d="M 1172 4494 
L 1172 3500 
L 2356 3500 
L 2356 3053 
L 1172 3053 
L 1172 1153 
Q 1172 725 1289 603 
Q 1406 481 1766 481 
L 2356 481 
L 2356 0 
L 1766 0 
Q 1100 0 847 248 
Q 594 497 594 1153 
L 594 3053 
L 172 3053 
L 172 3500 
L 594 3500 
L 594 4494 
L 1172 4494 
z
" transform="scale(0.015625)"/>
       <path id="DejaVuSans-69" d="M 603 3500 
L 1178 3500 
L 1178 0 
L 603 0 
L 603 3500 
z
M 603 4863 
L 1178 4863 
L 1178 4134 
L 603 4134 
L 603 4863 
z
" transform="scale(0.015625)"/>
       <path id="DejaVuSans-6c" d="M 603 4863 
L 1178 4863 
L 1178 0 
L 603 0 
L 603 4863 
z
" transform="scale(0.015625)"/>
       <path id="DejaVuSans-20" transform="scale(0.015625)"/>
       <path id="DejaVuSans-62" d="M 3116 1747 
Q 3116 2381 2855 2742 
Q 2594 3103 2138 3103 
Q 1681 3103 1420 2742 
Q 1159 2381 1159 1747 
Q 1159 1113 1420 752 
Q 1681 391 2138 391 
Q 2594 391 2855 752 
Q 3116 1113 3116 1747 
z
M 1159 2969 
Q 1341 3281 1617 3432 
Q 1894 3584 2278 3584 
Q 2916 3584 3314 3078 
Q 3713 2572 3713 1747 
Q 3713 922 3314 415 
Q 2916 -91 2278 -91 
Q 1894 -91 1617 61 
Q 1341 213 1159 525 
L 1159 0 
L 581 0 
L 581 4863 
L 1159 4863 
L 1159 2969 
z
" transform="scale(0.015625)"/>
       <path id="DejaVuSans-6e" d="M 3513 2113 
L 3513 0 
L 2938 0 
L 2938 2094 
Q 2938 2591 2744 2837 
Q 2550 3084 2163 3084 
Q 1697 3084 1428 2787 
Q 1159 2491 1159 1978 
L 1159 0 
L 581 0 
L 581 3500 
L 1159 3500 
L 1159 2956 
Q 1366 3272 1645 3428 
Q 1925 3584 2291 3584 
Q 2894 3584 3203 3211 
Q 3513 2838 3513 2113 
z
" transform="scale(0.015625)"/>
      </defs>
      <use xlink:href="#DejaVuSans-53"/>
      <use xlink:href="#DejaVuSans-70" transform="translate(63.476562 0)"/>
      <use xlink:href="#DejaVuSans-61" transform="translate(126.953125 0)"/>
      <use xlink:href="#DejaVuSans-74" transform="translate(188.232422 0)"/>
      <use xlink:href="#DejaVuSans-69" transform="translate(227.441406 0)"/>
      <use xlink:href="#DejaVuSans-61" transform="translate(255.224609 0)"/>
      <use xlink:href="#DejaVuSans-6c" transform="translate(316.503906 0)"/>
      <use xlink:href="#DejaVuSans-20" transform="translate(344.287109 0)"/>
      <use xlink:href="#DejaVuSans-62" transform="translate(376.074219 0)"/>
      <use xlink:href="#DejaVuSans-69" transform="translate(439.550781 0)"/>
      <use xlink:href="#DejaVuSans-6e" transform="translate(467.333984 0)"/>
     </g>
    </g>
   </g>
   <g id="matplotlib.axis_2">
    <g id="ytick_1">
     <g id="line2d_10">
      <defs>
       <path id="m71a98af224" d="M 0 0 
L -3.5 0 
" style="stroke: #000000; stroke-width: 0.8"/>
      </defs>
      <g>
       <use xlink:href="#m71a98af224" x="42.620313" y="313.478125" style="stroke: #000000; stroke-width: 0.8"/>
      </g>
     </g>
     <g id="text_11">
      <!-- −1 -->
      <g transform="translate(20.878125 317.277344) scale(0.1 -0.1)">
       <defs>
        <path id="DejaVuSans-2212" d="M 678 2272 
L 4684 2272 
L 4684 1741 
L 678 1741 
L 678 2272 
z
" transform="scale(0.015625)"/>
       </defs>
       <use xlink:href="#DejaVuSans-2212"/>
       <use xlink:href="#DejaVuSans-31" transform="translate(83.789062 0)"/>
      </g>
     </g>
    </g>
    <g id="ytick_2">
     <g id="line2d_11">
      <g>
       <use xlink:href="#m71a98af224" x="42.620313" y="255.246125" style="stroke: #000000; stroke-width: 0.8"/>
      </g>
     </g>
     <g id="text_12">
      <!-- 0 -->
      <g transform="translate(29.257813 259.045344) scale(0.1 -0.1)">
       <use xlink:href="#DejaVuSans-30"/>
      </g>
     </g>
    </g>
    <g id="ytick_3">
     <g id="line2d_12">
      <g>
       <use xlink:href="#m71a98af224" x="42.620313" y="197.014125" style="stroke: #000000; stroke-width: 0.8"/>
      </g>
     </g>
     <g id="text_13">
      <!-- 1 -->
      <g transform="translate(29.257813 200.813344) scale(0.1 -0.1)">
       <use xlink:href="#DejaVuSans-31"/>
      </g>
     </g>
    </g>
    <g id="ytick_4">
     <g id="line2d_13">
      <g>
       <use xlink:href="#m71a98af224" x="42.620313" y="138.782125" style="stroke: #000000; stroke-width: 0.8"/>
      </g>
     </g>
     <g id="text_14">
      <!-- 2 -->
      <g transform="translate(29.257813 142.581344) scale(0.1 -0.1)">
       <defs>
        <path id="DejaVuSans-32" d="M 1228 531 
L 3431 531 
L 3431 0 
L 469 0 
L 469 531 
Q 828 903 1448 1529 
Q 2069 2156 2228 2338 
Q 2531 2678 2651 2914 
Q 2772 3150 2772 3378 
Q 2772 3750 2511 3984 
Q 2250 4219 1831 4219 
Q 1534 4219 1204 4116 
Q 875 4013 500 3803 
L 500 4441 
Q 881 4594 1212 4672 
Q 1544 4750 1819 4750 
Q 2544 4750 2975 4387 
Q 3406 4025 3406 3419 
Q 3406 3131 3298 2873 
Q 3191 2616 2906 2266 
Q 2828 2175 2409 1742 
Q 1991 1309 1228 531 
z
" transform="scale(0.015625)"/>
       </defs>
       <use xlink:href="#DejaVuSans-32"/>
      </g>
     </g>
    </g>
    <g id="ytick_5">
     <g id="line2d_14">
      <g>
       <use xlink:href="#m71a98af224" x="42.620313" y="80.550125" style="stroke: #000000; stroke-width: 0.8"/>
      </g>
     </g>
     <g id="text_15">
      <!-- 3 -->
      <g transform="translate(29.257813 84.349344) scale(0.1 -0.1)">
       <use xlink:href="#DejaVuSans-33"/>
      </g>
     </g>
    </g>
    <g id="ytick_6">
     <g id="line2d_15">
      <g>
       <use xlink:href="#m71a98af224" x="42.620313" y="22.318125" style="stroke: #000000; stroke-width: 0.8"/>
      </g>
     </g>
     <g id="text_16">
      <!-- 4 -->
      <g transform="translate(29.257813 26.117344) scale(0.1 -0.1)">
       <use xlink:href="#DejaVuSans-34"/>
      </g>
     </g>
    </g>
    <g id="text_17">
     <!-- z-scored dF/F -->
     <g transform="translate(14.798438 201.1325) rotate(-90) scale(0.1 -0.1)">
      <defs>
       <path id="DejaVuSans-7a" d="M 353 3500 
L 3084 3500 
L 3084 2975 
L 922 459 
L 3084 459 
L 3084 0 
L 275 0 
L 275 525 
L 2438 3041 
L 353 3041 
L 353 3500 
z
" transform="scale(0.015625)"/>
       <path id="DejaVuSans-2d" d="M 313 2009 
L 1997 2009 
L 1997 1497 
L 313 1497 
L 313 2009 
z
" transform="scale(0.015625)"/>
       <path id="DejaVuSans-73" d="M 2834 3397 
L 2834 2853 
Q 2591 2978 2328 3040 
Q 2066 3103 1784 3103 
Q 1356 3103 1142 2972 
Q 928 2841 928 2578 
Q 928 2378 1081 2264 
Q 1234 2150 1697 2047 
L 1894 2003 
Q 2506 1872 2764 1633 
Q 3022 1394 3022 966 
Q 3022 478 2636 193 
Q 2250 -91 1575 -91 
Q 1294 -91 989 -36 
Q 684 19 347 128 
L 347 722 
Q 666 556 975 473 
Q 1284 391 1588 391 
Q 1994 391 2212 530 
Q 2431 669 2431 922 
Q 2431 1156 2273 1281 
Q 2116 1406 1581 1522 
L 1381 1569 
Q 847 1681 609 1914 
Q 372 2147 372 2553 
Q 372 3047 722 3315 
Q 1072 3584 1716 3584 
Q 2034 3584 2315 3537 
Q 2597 3491 2834 3397 
z
" transform="scale(0.015625)"/>
       <path id="DejaVuSans-63" d="M 3122 3366 
L 3122 2828 
Q 2878 2963 2633 3030 
Q 2388 3097 2138 3097 
Q 1578 3097 1268 2742 
Q 959 2388 959 1747 
Q 959 1106 1268 751 
Q 1578 397 2138 397 
Q 2388 397 2633 464 
Q 2878 531 3122 666 
L 3122 134 
Q 2881 22 2623 -34 
Q 2366 -91 2075 -91 
Q 1284 -91 818 406 
Q 353 903 353 1747 
Q 353 2603 823 3093 
Q 1294 3584 2113 3584 
Q 2378 3584 2631 3529 
Q 2884 3475 3122 3366 
z
" transform="scale(0.015625)"/>
       <path id="DejaVuSans-6f" d="M 1959 3097 
Q 1497 3097 1228 2736 
Q 959 2375 959 1747 
Q 959 1119 1226 758 
Q 1494 397 1959 397 
Q 2419 397 2687 759 
Q 2956 1122 2956 1747 
Q 2956 2369 2687 2733 
Q 2419 3097 1959 3097 
z
M 1959 3584 
Q 2709 3584 3137 3096 
Q 3566 2609 3566 1747 
Q 3566 888 3137 398 
Q 2709 -91 1959 -91 
Q 1206 -91 779 398 
Q 353 888 353 1747 
Q 353 2609 779 3096 
Q 1206 3584 1959 3584 
z
" transform="scale(0.015625)"/>
       <path id="DejaVuSans-72" d="M 2631 2963 
Q 2534 3019 2420 3045 
Q 2306 3072 2169 3072 
Q 1681 3072 1420 2755 
Q 1159 2438 1159 1844 
L 1159 0 
L 581 0 
L 581 3500 
L 1159 3500 
L 1159 2956 
Q 1341 3275 1631 3429 
Q 1922 3584 2338 3584 
Q 2397 3584 2469 3576 
Q 2541 3569 2628 3553 
L 2631 2963 
z
" transform="scale(0.015625)"/>
       <path id="DejaVuSans-65" d="M 3597 1894 
L 3597 1613 
L 953 1613 
Q 991 1019 1311 708 
Q 1631 397 2203 397 
Q 2534 397 2845 478 
Q 3156 559 3463 722 
L 3463 178 
Q 3153 47 2828 -22 
Q 2503 -91 2169 -91 
Q 1331 -91 842 396 
Q 353 884 353 1716 
Q 353 2575 817 3079 
Q 1281 3584 2069 3584 
Q 2775 3584 3186 3129 
Q 3597 2675 3597 1894 
z
M 3022 2063 
Q 3016 2534 2758 2815 
Q 2500 3097 2075 3097 
Q 1594 3097 1305 2825 
Q 1016 2553 972 2059 
L 3022 2063 
z
" transform="scale(0.015625)"/>
       <path id="DejaVuSans-64" d="M 2906 2969 
L 2906 4863 
L 3481 4863 
L 3481 0 
L 2906 0 
L 2906 525 
Q 2725 213 2448 61 
Q 2172 -91 1784 -91 
Q 1150 -91 751 415 
Q 353 922 353 1747 
Q 353 2572 751 3078 
Q 1150 3584 1784 3584 
Q 2172 3584 2448 3432 
Q 2725 3281 2906 2969 
z
M 947 1747 
Q 947 1113 1208 752 
Q 1469 391 1925 391 
Q 2381 391 2643 752 
Q 2906 1113 2906 1747 
Q 2906 2381 2643 2742 
Q 2381 3103 1925 3103 
Q 1469 3103 1208 2742 
Q 947 2381 947 1747 
z
" transform="scale(0.015625)"/>
       <path id="DejaVuSans-46" d="M 628 4666 
L 3309 4666 
L 3309 4134 
L 1259 4134 
L 1259 2759 
L 3109 2759 
L 3109 2228 
L 1259 2228 
L 1259 0 
L 628 0 
L 628 4666 
z
" transform="scale(0.015625)"/>
       <path id="DejaVuSans-2f" d="M 1625 4666 
L 2156 4666 
L 531 -594 
L 0 -594 
L 1625 4666 
z
" transform="scale(0.015625)"/>
      </defs>
      <use xlink:href="#DejaVuSans-7a"/>
      <use xlink:href="#DejaVuSans-2d" transform="translate(52.490234 0)"/>
      <use xlink:href="#DejaVuSans-73" transform="translate(88.574219 0)"/>
      <use xlink:href="#DejaVuSans-63" transform="translate(140.673828 0)"/>
      <use xlink:href="#DejaVuSans-6f" transform="translate(195.654297 0)"/>
      <use xlink:href="#DejaVuSans-72" transform="translate(256.835938 0)"/>
      <use xlink:href="#DejaVuSans-65" transform="translate(295.699219 0)"/>
      <use xlink:href="#DejaVuSans-64" transform="translate(357.222656 0)"/>
      <use xlink:href="#DejaVuSans-20" transform="translate(420.699219 0)"/>
      <use xlink:href="#DejaVuSans-64" transform="translate(452.486328 0)"/>
      <use xlink:href="#DejaVuSans-46" transform="translate(515.962891 0)"/>
      <use xlink:href="#DejaVuSans-2f" transform="translate(573.482422 0)"/>
      <use xlink:href="#DejaVuSans-46" transform="translate(607.173828 0)"/>
     </g>
    </g>
   </g>
   <g id="line2d_16">
    <path d="M 63.898949 265.170218 
L 66.755142 257.878663 
L 69.611334 252.421836 
L 72.467527 246.133276 
L 75.32372 242.088829 
L 78.179913 239.930085 
L 81.036106 236.400685 
L 83.892298 227.309635 
L 89.604684 210.529282 
L 92.460877 201.066311 
L 95.31707 192.607867 
L 98.173262 180.805217 
L 101.029455 178.551165 
L 103.885648 183.046558 
L 106.741841 176.818741 
L 109.598034 174.080817 
L 112.454226 175.465151 
L 115.310419 178.72646 
L 118.166612 171.546136 
L 121.022805 168.731101 
L 123.878998 166.329721 
L 126.73519 169.907542 
L 129.591383 171.196514 
L 132.447576 175.358654 
L 135.303769 187.663512 
L 138.159962 199.231297 
L 141.016154 202.265945 
L 143.872347 207.222295 
L 146.72854 206.738251 
L 149.584733 205.571355 
L 152.440926 205.206411 
L 155.297118 208.480943 
L 158.153311 215.733802 
L 161.009504 218.712458 
L 163.865697 220.827976 
L 166.72189 224.283252 
L 169.578082 228.07478 
L 172.434275 232.818159 
L 175.290468 238.254192 
L 178.146661 244.579023 
L 181.002854 252.716157 
L 183.859046 256.38855 
L 186.715239 259.65611 
L 189.571432 262.332622 
L 192.427625 263.360009 
L 195.283818 265.471976 
L 200.996203 266.369137 
L 203.852396 267.546891 
L 206.708589 269.215574 
L 212.420974 273.150089 
L 215.277167 274.211133 
L 218.13336 274.600827 
L 220.989553 274.77429 
L 223.845746 274.831781 
L 226.701938 273.353671 
L 229.558131 273.910176 
L 232.414324 275.048574 
L 235.270517 275.144419 
L 240.982902 277.667799 
L 243.839095 278.419253 
L 249.551481 278.119171 
L 252.407674 278.806321 
L 255.263866 279.983968 
L 258.120059 280.912356 
L 260.976252 280.888196 
L 263.832445 280.019933 
L 266.688638 279.791047 
L 269.54483 281.869207 
L 272.401023 282.405461 
L 278.113409 279.804832 
L 280.969602 278.916803 
L 283.825795 279.256542 
L 286.681987 280.784891 
L 289.53818 282.079123 
L 292.394373 282.157674 
L 295.250566 282.102879 
L 298.106759 282.695146 
L 300.962951 282.97735 
L 303.819144 282.407267 
L 306.675337 284.30291 
L 309.53153 284.328212 
L 312.387723 284.517351 
L 315.243915 284.871498 
L 318.100108 284.48907 
L 320.956301 284.841199 
L 323.812494 283.083256 
L 326.668687 281.657082 
L 332.381072 282.949675 
L 340.949651 282.334442 
L 343.805843 281.267889 
L 346.662036 280.454918 
L 352.374422 281.989543 
L 355.230615 283.162162 
L 358.086807 283.337297 
L 360.943 284.06383 
L 366.655386 286.950316 
L 369.511579 286.883782 
L 375.223964 287.074724 
L 378.080157 286.464971 
L 380.93635 287.09859 
L 383.792543 286.977553 
L 386.648735 287.014323 
L 389.504928 286.436054 
L 395.217314 284.263898 
L 398.073507 284.325724 
L 400.929699 284.626262 
L 403.785892 285.175623 
L 406.642085 285.413674 
L 409.498278 285.195669 
L 415.210663 286.338866 
L 418.066856 286.093368 
L 420.923049 284.713319 
L 423.779242 283.512782 
L 426.635435 282.584091 
L 432.34782 280.585654 
L 435.204013 281.311208 
L 438.060206 282.348191 
L 440.916399 284.404012 
L 443.772591 286.17588 
L 446.628784 284.964045 
L 449.484977 284.13323 
L 452.34117 281.288328 
L 455.197363 278.138499 
L 458.053555 276.983716 
L 460.909748 273.47845 
L 463.765941 271.669943 
L 466.622134 268.204539 
L 469.478327 260.243415 
L 472.334519 253.689828 
L 475.190712 263.262524 
L 478.046905 266.127322 
L 480.903098 263.029104 
L 483.759291 258.518677 
L 486.615483 258.628323 
L 489.471676 265.543647 
L 489.471676 265.543647 
" clip-path="url(#p69580355fb)" style="fill: none; stroke: #ff0000; stroke-width: 3; stroke-linecap: square"/>
   </g>
   <g id="LineCollection_1">
    <path d="M 206.708589 313.478125 
L 206.708589 22.318125 
" clip-path="url(#p69580355fb)" style="fill: none; stroke-dasharray: 5.55,2.4; stroke-dashoffset: 0; stroke: #ff0000; stroke-width: 1.5"/>
    <path d="M 435.204013 313.478125 
L 435.204013 22.318125 
" clip-path="url(#p69580355fb)" style="fill: none; stroke-dasharray: 5.55,2.4; stroke-dashoffset: 0; stroke: #ff0000; stroke-width: 1.5"/>
   </g>
   <g id="patch_3">
    <path d="M 42.620313 313.478125 
L 42.620313 22.318125 
" style="fill: none; stroke: #000000; stroke-width: 0.8; stroke-linejoin: miter; stroke-linecap: square"/>
   </g>
   <g id="patch_4">
    <path d="M 510.750313 313.478125 
L 510.750313 22.318125 
" style="fill: none; stroke: #000000; stroke-width: 0.8; stroke-linejoin: miter; stroke-linecap: square"/>
   </g>
   <g id="patch_5">
    <path d="M 42.620312 313.478125 
L 510.750312 313.478125 
" style="fill: none; stroke: #000000; stroke-width: 0.8; stroke-linejoin: miter; stroke-linecap: square"/>
   </g>
   <g id="patch_6">
    <path d="M 42.620312 22.318125 
L 510.750312 22.318125 
" style="fill: none; stroke: #000000; stroke-width: 0.8; stroke-linejoin: miter; stroke-linecap: square"/>
   </g>
   <g id="text_18">
    <!-- Corridor 0.0 -->
    <g transform="translate(240.93375 16.318125) scale(0.12 -0.12)">
     <defs>
      <path id="DejaVuSans-43" d="M 4122 4306 
L 4122 3641 
Q 3803 3938 3442 4084 
Q 3081 4231 2675 4231 
Q 1875 4231 1450 3742 
Q 1025 3253 1025 2328 
Q 1025 1406 1450 917 
Q 1875 428 2675 428 
Q 3081 428 3442 575 
Q 3803 722 4122 1019 
L 4122 359 
Q 3791 134 3420 21 
Q 3050 -91 2638 -91 
Q 1578 -91 968 557 
Q 359 1206 359 2328 
Q 359 3453 968 4101 
Q 1578 4750 2638 4750 
Q 3056 4750 3426 4639 
Q 3797 4528 4122 4306 
z
" transform="scale(0.015625)"/>
      <path id="DejaVuSans-2e" d="M 684 794 
L 1344 794 
L 1344 0 
L 684 0 
L 684 794 
z
" transform="scale(0.015625)"/>
     </defs>
     <use xlink:href="#DejaVuSans-43"/>
     <use xlink:href="#DejaVuSans-6f" transform="translate(69.824219 0)"/>
     <use xlink:href="#DejaVuSans-72" transform="translate(131.005859 0)"/>
     <use xlink:href="#DejaVuSans-72" transform="translate(170.369141 0)"/>
     <use xlink:href="#DejaVuSans-69" transform="translate(211.482422 0)"/>
     <use xlink:href="#DejaVuSans-64" transform="translate(239.265625 0)"/>
     <use xlink:href="#DejaVuSans-6f" transform="translate(302.742188 0)"/>
     <use xlink:href="#DejaVuSans-72" transform="translate(363.923828 0)"/>
     <use xlink:href="#DejaVuSans-20" transform="translate(405.037109 0)"/>
     <use xlink:href="#DejaVuSans-30" transform="translate(436.824219 0)"/>
     <use xlink:href="#DejaVuSans-2e" transform="translate(500.447266 0)"/>
     <use xlink:href="#DejaVuSans-30" transform="translate(532.234375 0)"/>
    </g>
   </g>
  </g>
  <g id="axes_2">
   <g id="patch_7">
    <path d="M 525.050313 313.478125 
L 993.180313 313.478125 
L 993.180313 22.318125 
L 525.050313 22.318125 
z
" style="fill: #ffffff"/>
   </g>
   <g id="FillBetweenPolyCollection_2">
    <path d="M 546.328949 217.746375 
L 546.328949 277.660316 
L 549.185142 275.640297 
L 552.041334 278.126892 
L 554.897527 279.951978 
L 557.75372 277.866432 
L 560.609913 269.231694 
L 563.466106 262.690952 
L 566.322298 264.218192 
L 569.178491 266.888159 
L 572.034684 269.550487 
L 574.890877 266.949236 
L 577.74707 268.638302 
L 580.603262 270.432057 
L 583.459455 273.287577 
L 586.315648 268.790506 
L 589.171841 266.188472 
L 592.028034 266.107625 
L 594.884226 262.602693 
L 597.740419 265.276138 
L 600.596612 269.90767 
L 603.452805 269.186863 
L 606.308998 272.024167 
L 609.16519 273.181863 
L 612.021383 277.541411 
L 614.877576 281.72765 
L 617.733769 283.768744 
L 620.589962 285.717459 
L 623.446154 286.684109 
L 626.302347 279.981955 
L 629.15854 285.40196 
L 632.014733 284.219511 
L 634.870926 283.589457 
L 637.727118 284.582169 
L 640.583311 285.463933 
L 643.439504 287.875839 
L 646.295697 289.320555 
L 649.15189 288.009624 
L 652.008082 286.183513 
L 654.864275 283.661329 
L 657.720468 282.522381 
L 660.576661 282.9885 
L 663.432854 283.809041 
L 666.289046 284.053006 
L 669.145239 279.350658 
L 672.001432 279.774471 
L 674.857625 284.103161 
L 677.713818 285.80626 
L 680.57001 285.667601 
L 683.426203 284.868985 
L 686.282396 284.394245 
L 689.138589 283.003022 
L 691.994782 283.216456 
L 694.850974 282.320916 
L 697.707167 280.139743 
L 700.56336 282.482333 
L 703.419553 284.829853 
L 706.275746 286.813932 
L 709.131938 287.044824 
L 711.988131 286.432041 
L 714.844324 284.64484 
L 717.700517 281.524623 
L 720.55671 279.746243 
L 723.412902 280.42518 
L 726.269095 280.637296 
L 729.125288 279.917024 
L 731.981481 280.230801 
L 734.837674 279.898311 
L 737.693866 280.019827 
L 740.550059 280.837046 
L 743.406252 280.431171 
L 746.262445 280.456136 
L 749.118638 280.438723 
L 751.97483 280.187783 
L 754.831023 281.191649 
L 757.687216 280.289535 
L 760.543409 280.269143 
L 763.399602 276.329216 
L 766.255795 280.450894 
L 769.111987 280.815079 
L 771.96818 279.681762 
L 774.824373 278.804059 
L 777.680566 279.535186 
L 780.536759 280.494102 
L 783.392951 283.632586 
L 786.249144 285.735485 
L 789.105337 285.636584 
L 791.96153 286.119517 
L 794.817723 286.606319 
L 797.673915 286.244254 
L 800.530108 285.593324 
L 803.386301 283.793034 
L 806.242494 283.603865 
L 809.098687 284.46431 
L 811.954879 283.758133 
L 814.811072 282.690034 
L 817.667265 282.764958 
L 820.523458 283.221947 
L 823.379651 283.825073 
L 826.235843 283.866582 
L 829.092036 283.028169 
L 831.948229 283.141458 
L 834.804422 282.650484 
L 837.660615 282.002426 
L 840.516807 281.017984 
L 843.373 280.736657 
L 846.229193 281.143418 
L 849.085386 281.452705 
L 851.941579 280.88132 
L 854.797771 280.090393 
L 857.653964 281.137137 
L 860.510157 282.202651 
L 863.36635 282.15868 
L 866.222543 281.349297 
L 869.078735 279.030524 
L 871.934928 281.46062 
L 874.791121 283.89043 
L 877.647314 281.9373 
L 880.503507 282.406872 
L 883.359699 280.652056 
L 886.215892 282.585695 
L 889.072085 284.929125 
L 891.928278 285.947363 
L 894.784471 285.231165 
L 897.640663 285.420534 
L 900.496856 287.803578 
L 903.353049 282.033555 
L 906.209242 282.632453 
L 909.065435 282.496947 
L 911.921627 279.128814 
L 914.77782 278.211571 
L 917.634013 279.877372 
L 920.490206 279.285132 
L 923.346399 279.636179 
L 926.202591 281.52166 
L 929.058784 279.97528 
L 931.914977 277.271373 
L 934.77117 278.733611 
L 937.627363 279.330077 
L 940.483555 282.443184 
L 943.339748 283.743539 
L 946.195941 284.131097 
L 949.052134 282.596587 
L 951.908327 282.175525 
L 954.764519 281.093093 
L 957.620712 283.399308 
L 960.476905 283.755028 
L 963.333098 286.126718 
L 966.189291 284.805501 
L 969.045483 288.643345 
L 971.901676 290.580431 
L 971.901676 268.885021 
L 971.901676 268.885021 
L 969.045483 260.779878 
L 966.189291 253.344865 
L 963.333098 247.403084 
L 960.476905 247.44607 
L 957.620712 252.676051 
L 954.764519 261.317864 
L 951.908327 265.30431 
L 949.052134 264.929118 
L 946.195941 265.250515 
L 943.339748 263.994171 
L 940.483555 261.745088 
L 937.627363 259.978244 
L 934.77117 259.846499 
L 931.914977 266.963082 
L 929.058784 266.096056 
L 926.202591 263.775415 
L 923.346399 261.9839 
L 920.490206 261.047559 
L 917.634013 260.745672 
L 914.77782 253.808023 
L 911.921627 258.722585 
L 909.065435 262.877094 
L 906.209242 265.919699 
L 903.353049 267.81292 
L 900.496856 270.498619 
L 897.640663 268.908948 
L 894.784471 268.53824 
L 891.928278 268.981255 
L 889.072085 267.688218 
L 886.215892 266.160476 
L 883.359699 264.274428 
L 880.503507 263.237584 
L 877.647314 262.59012 
L 874.791121 264.200171 
L 871.934928 262.925076 
L 869.078735 263.146599 
L 866.222543 262.760173 
L 863.36635 262.305503 
L 860.510157 262.997434 
L 857.653964 264.210065 
L 854.797771 263.958141 
L 851.941579 263.365813 
L 849.085386 263.995707 
L 846.229193 264.475847 
L 843.373 264.178201 
L 840.516807 263.998518 
L 837.660615 264.145263 
L 834.804422 264.38033 
L 831.948229 265.433996 
L 829.092036 265.712128 
L 826.235843 263.947937 
L 823.379651 262.908541 
L 820.523458 262.721855 
L 817.667265 263.223963 
L 814.811072 263.541863 
L 811.954879 264.944619 
L 809.098687 264.908727 
L 806.242494 265.992213 
L 803.386301 269.799541 
L 800.530108 270.965763 
L 797.673915 272.188411 
L 794.817723 271.867085 
L 791.96153 270.692003 
L 789.105337 270.62282 
L 786.249144 271.461415 
L 783.392951 270.132973 
L 780.536759 264.659476 
L 777.680566 259.347056 
L 774.824373 256.949586 
L 771.96818 248.740568 
L 769.111987 244.810115 
L 766.255795 247.42097 
L 763.399602 265.445345 
L 760.543409 270.946421 
L 757.687216 266.917551 
L 754.831023 270.801729 
L 751.97483 268.898301 
L 749.118638 268.593893 
L 746.262445 260.961336 
L 743.406252 266.285533 
L 740.550059 270.037681 
L 737.693866 268.888963 
L 734.837674 267.907069 
L 731.981481 266.59121 
L 729.125288 265.935429 
L 726.269095 263.116915 
L 723.412902 259.127823 
L 720.55671 259.111572 
L 717.700517 258.005654 
L 714.844324 248.109733 
L 711.988131 244.635846 
L 709.131938 243.400729 
L 706.275746 243.810771 
L 703.419553 244.81638 
L 700.56336 246.495712 
L 697.707167 252.352641 
L 694.850974 240.769885 
L 691.994782 232.981022 
L 689.138589 228.420428 
L 686.282396 225.002416 
L 683.426203 220.728277 
L 680.57001 218.374285 
L 677.713818 217.840839 
L 674.857625 218.712446 
L 672.001432 218.876483 
L 669.145239 217.72025 
L 666.289046 222.330007 
L 663.432854 222.84655 
L 660.576661 223.476101 
L 657.720468 221.803248 
L 654.864275 220.506027 
L 652.008082 219.684111 
L 649.15189 217.334137 
L 646.295697 217.312471 
L 643.439504 219.584735 
L 640.583311 224.214706 
L 637.727118 222.988306 
L 634.870926 224.196899 
L 632.014733 223.834497 
L 629.15854 226.345821 
L 626.302347 217.060122 
L 623.446154 223.748545 
L 620.589962 222.24115 
L 617.733769 220.227192 
L 614.877576 218.157459 
L 612.021383 212.761537 
L 609.16519 197.400469 
L 606.308998 199.44579 
L 603.452805 192.468524 
L 600.596612 184.7473 
L 597.740419 181.647205 
L 594.884226 189.30279 
L 592.028034 197.101964 
L 589.171841 198.429827 
L 586.315648 203.090259 
L 583.459455 209.516794 
L 580.603262 211.754037 
L 577.74707 209.40506 
L 574.890877 206.588278 
L 572.034684 197.935419 
L 569.178491 186.394936 
L 566.322298 183.789692 
L 563.466106 184.566102 
L 560.609913 201.470997 
L 557.75372 213.026312 
L 554.897527 214.236671 
L 552.041334 212.909057 
L 549.185142 204.356772 
L 546.328949 217.746375 
z
" clip-path="url(#pf11b6c396a)" style="fill: #1f77b4; fill-opacity: 0.3"/>
   </g>
   <g id="matplotlib.axis_3">
    <g id="xtick_10">
     <g id="line2d_17">
      <g>
       <use xlink:href="#m7ae82ac487" x="546.328949" y="313.478125" style="stroke: #000000; stroke-width: 0.8"/>
      </g>
     </g>
     <g id="text_19">
      <!-- 0 -->
      <g transform="translate(543.147699 328.076563) scale(0.1 -0.1)">
       <use xlink:href="#DejaVuSans-30"/>
      </g>
     </g>
    </g>
    <g id="xtick_11">
     <g id="line2d_18">
      <g>
       <use xlink:href="#m7ae82ac487" x="597.740419" y="313.478125" style="stroke: #000000; stroke-width: 0.8"/>
      </g>
     </g>
     <g id="text_20">
      <!-- 18 -->
      <g transform="translate(591.377919 328.076563) scale(0.1 -0.1)">
       <use xlink:href="#DejaVuSans-31"/>
       <use xlink:href="#DejaVuSans-38" transform="translate(63.623047 0)"/>
      </g>
     </g>
    </g>
    <g id="xtick_12">
     <g id="line2d_19">
      <g>
       <use xlink:href="#m7ae82ac487" x="652.008082" y="313.478125" style="stroke: #000000; stroke-width: 0.8"/>
      </g>
     </g>
     <g id="text_21">
      <!-- 37 -->
      <g transform="translate(645.645582 328.076563) scale(0.1 -0.1)">
       <use xlink:href="#DejaVuSans-33"/>
       <use xlink:href="#DejaVuSans-37" transform="translate(63.623047 0)"/>
      </g>
     </g>
    </g>
    <g id="xtick_13">
     <g id="line2d_20">
      <g>
       <use xlink:href="#m7ae82ac487" x="703.419553" y="313.478125" style="stroke: #000000; stroke-width: 0.8"/>
      </g>
     </g>
     <g id="text_22">
      <!-- 55 -->
      <g transform="translate(697.057053 328.076563) scale(0.1 -0.1)">
       <use xlink:href="#DejaVuSans-35"/>
       <use xlink:href="#DejaVuSans-35" transform="translate(63.623047 0)"/>
      </g>
     </g>
    </g>
    <g id="xtick_14">
     <g id="line2d_21">
      <g>
       <use xlink:href="#m7ae82ac487" x="757.687216" y="313.478125" style="stroke: #000000; stroke-width: 0.8"/>
      </g>
     </g>
     <g id="text_23">
      <!-- 74 -->
      <g transform="translate(751.324716 328.076563) scale(0.1 -0.1)">
       <use xlink:href="#DejaVuSans-37"/>
       <use xlink:href="#DejaVuSans-34" transform="translate(63.623047 0)"/>
      </g>
     </g>
    </g>
    <g id="xtick_15">
     <g id="line2d_22">
      <g>
       <use xlink:href="#m7ae82ac487" x="811.954879" y="313.478125" style="stroke: #000000; stroke-width: 0.8"/>
      </g>
     </g>
     <g id="text_24">
      <!-- 93 -->
      <g transform="translate(805.592379 328.076563) scale(0.1 -0.1)">
       <use xlink:href="#DejaVuSans-39"/>
       <use xlink:href="#DejaVuSans-33" transform="translate(63.623047 0)"/>
      </g>
     </g>
    </g>
    <g id="xtick_16">
     <g id="line2d_23">
      <g>
       <use xlink:href="#m7ae82ac487" x="863.36635" y="313.478125" style="stroke: #000000; stroke-width: 0.8"/>
      </g>
     </g>
     <g id="text_25">
      <!-- 111 -->
      <g transform="translate(853.8226 328.076563) scale(0.1 -0.1)">
       <use xlink:href="#DejaVuSans-31"/>
       <use xlink:href="#DejaVuSans-31" transform="translate(63.623047 0)"/>
       <use xlink:href="#DejaVuSans-31" transform="translate(127.246094 0)"/>
      </g>
     </g>
    </g>
    <g id="xtick_17">
     <g id="line2d_24">
      <g>
       <use xlink:href="#m7ae82ac487" x="917.634013" y="313.478125" style="stroke: #000000; stroke-width: 0.8"/>
      </g>
     </g>
     <g id="text_26">
      <!-- 130 -->
      <g transform="translate(908.090263 328.076563) scale(0.1 -0.1)">
       <use xlink:href="#DejaVuSans-31"/>
       <use xlink:href="#DejaVuSans-33" transform="translate(63.623047 0)"/>
       <use xlink:href="#DejaVuSans-30" transform="translate(127.246094 0)"/>
      </g>
     </g>
    </g>
    <g id="xtick_18">
     <g id="line2d_25">
      <g>
       <use xlink:href="#m7ae82ac487" x="971.901676" y="313.478125" style="stroke: #000000; stroke-width: 0.8"/>
      </g>
     </g>
     <g id="text_27">
      <!-- 149 -->
      <g transform="translate(962.357926 328.076563) scale(0.1 -0.1)">
       <use xlink:href="#DejaVuSans-31"/>
       <use xlink:href="#DejaVuSans-34" transform="translate(63.623047 0)"/>
       <use xlink:href="#DejaVuSans-39" transform="translate(127.246094 0)"/>
      </g>
     </g>
    </g>
    <g id="text_28">
     <!-- Spatial bin -->
     <g transform="translate(732.579375 341.754687) scale(0.1 -0.1)">
      <use xlink:href="#DejaVuSans-53"/>
      <use xlink:href="#DejaVuSans-70" transform="translate(63.476562 0)"/>
      <use xlink:href="#DejaVuSans-61" transform="translate(126.953125 0)"/>
      <use xlink:href="#DejaVuSans-74" transform="translate(188.232422 0)"/>
      <use xlink:href="#DejaVuSans-69" transform="translate(227.441406 0)"/>
      <use xlink:href="#DejaVuSans-61" transform="translate(255.224609 0)"/>
      <use xlink:href="#DejaVuSans-6c" transform="translate(316.503906 0)"/>
      <use xlink:href="#DejaVuSans-20" transform="translate(344.287109 0)"/>
      <use xlink:href="#DejaVuSans-62" transform="translate(376.074219 0)"/>
      <use xlink:href="#DejaVuSans-69" transform="translate(439.550781 0)"/>
      <use xlink:href="#DejaVuSans-6e" transform="translate(467.333984 0)"/>
     </g>
    </g>
   </g>
   <g id="matplotlib.axis_4">
    <g id="ytick_7">
     <g id="line2d_26">
      <g>
       <use xlink:href="#m71a98af224" x="525.050313" y="313.478125" style="stroke: #000000; stroke-width: 0.8"/>
      </g>
     </g>
    </g>
    <g id="ytick_8">
     <g id="line2d_27">
      <g>
       <use xlink:href="#m71a98af224" x="525.050313" y="255.246125" style="stroke: #000000; stroke-width: 0.8"/>
      </g>
     </g>
    </g>
    <g id="ytick_9">
     <g id="line2d_28">
      <g>
       <use xlink:href="#m71a98af224" x="525.050313" y="197.014125" style="stroke: #000000; stroke-width: 0.8"/>
      </g>
     </g>
    </g>
    <g id="ytick_10">
     <g id="line2d_29">
      <g>
       <use xlink:href="#m71a98af224" x="525.050313" y="138.782125" style="stroke: #000000; stroke-width: 0.8"/>
      </g>
     </g>
    </g>
    <g id="ytick_11">
     <g id="line2d_30">
      <g>
       <use xlink:href="#m71a98af224" x="525.050313" y="80.550125" style="stroke: #000000; stroke-width: 0.8"/>
      </g>
     </g>
    </g>
    <g id="ytick_12">
     <g id="line2d_31">
      <g>
       <use xlink:href="#m71a98af224" x="525.050313" y="22.318125" style="stroke: #000000; stroke-width: 0.8"/>
      </g>
     </g>
    </g>
   </g>
   <g id="line2d_32">
    <path d="M 546.328949 247.703345 
L 549.185142 239.998535 
L 552.041334 245.517975 
L 554.897527 247.094325 
L 557.75372 245.446372 
L 560.609913 235.351345 
L 563.466106 223.628527 
L 566.322298 224.003942 
L 569.178491 226.641547 
L 572.034684 233.742953 
L 574.890877 236.768757 
L 577.74707 239.021681 
L 580.603262 241.093047 
L 583.459455 241.402185 
L 586.315648 235.940382 
L 589.171841 232.309149 
L 592.028034 231.604795 
L 594.884226 225.952741 
L 597.740419 223.461671 
L 600.596612 227.327485 
L 603.452805 230.827694 
L 606.308998 235.734979 
L 609.16519 235.291166 
L 612.021383 245.151474 
L 614.877576 249.942554 
L 620.589962 253.979305 
L 623.446154 255.216327 
L 626.302347 248.521039 
L 629.15854 255.873891 
L 632.014733 254.027004 
L 637.727118 253.785237 
L 640.583311 254.839319 
L 643.439504 253.730287 
L 646.295697 253.316513 
L 649.15189 252.67188 
L 652.008082 252.933812 
L 654.864275 252.083678 
L 657.720468 252.162815 
L 660.576661 253.232301 
L 663.432854 253.327795 
L 666.289046 253.191506 
L 669.145239 248.535454 
L 672.001432 249.325477 
L 674.857625 251.407803 
L 677.713818 251.82355 
L 680.57001 252.020943 
L 683.426203 252.798631 
L 686.282396 254.69833 
L 689.138589 255.711725 
L 691.994782 258.098739 
L 694.850974 261.545401 
L 697.707167 266.246192 
L 700.56336 264.489022 
L 703.419553 264.823117 
L 706.275746 265.312351 
L 709.131938 265.222777 
L 711.988131 265.533943 
L 714.844324 266.377286 
L 717.700517 269.765139 
L 720.55671 269.428907 
L 723.412902 269.776502 
L 726.269095 271.877106 
L 729.125288 272.926226 
L 737.693866 274.454395 
L 740.550059 275.437363 
L 743.406252 273.358352 
L 746.262445 270.708736 
L 749.118638 274.516308 
L 751.97483 274.543042 
L 754.831023 275.996689 
L 757.687216 273.603543 
L 760.543409 275.607782 
L 763.399602 270.887281 
L 766.255795 263.935932 
L 769.111987 262.812597 
L 771.96818 264.211165 
L 774.824373 267.876823 
L 777.680566 269.441121 
L 780.536759 272.576789 
L 783.392951 276.88278 
L 786.249144 278.59845 
L 789.105337 278.129702 
L 791.96153 278.40576 
L 794.817723 279.236702 
L 797.673915 279.216332 
L 800.530108 278.279543 
L 803.386301 276.796288 
L 806.242494 274.798039 
L 809.098687 274.686519 
L 811.954879 274.351376 
L 814.811072 273.115948 
L 820.523458 272.971901 
L 823.379651 273.366807 
L 829.092036 274.370148 
L 831.948229 274.287727 
L 834.804422 273.515407 
L 837.660615 273.073844 
L 840.516807 272.508251 
L 843.373 272.457429 
L 846.229193 272.809632 
L 849.085386 272.724206 
L 851.941579 272.123566 
L 854.797771 272.024267 
L 857.653964 272.673601 
L 860.510157 272.600042 
L 863.36635 272.232092 
L 866.222543 272.054735 
L 869.078735 271.088562 
L 871.934928 272.192848 
L 874.791121 274.0453 
L 877.647314 272.26371 
L 880.503507 272.822228 
L 883.359699 272.463242 
L 889.072085 276.308672 
L 891.928278 277.464309 
L 894.784471 276.884702 
L 897.640663 277.164741 
L 900.496856 279.151099 
L 903.353049 274.923238 
L 906.209242 274.276076 
L 909.065435 272.68702 
L 911.921627 268.9257 
L 914.77782 266.009797 
L 917.634013 270.311522 
L 920.490206 270.166346 
L 923.346399 270.81004 
L 926.202591 272.648538 
L 929.058784 273.035668 
L 931.914977 272.117227 
L 934.77117 269.290055 
L 937.627363 269.654161 
L 940.483555 272.094136 
L 943.339748 273.868855 
L 946.195941 274.690806 
L 949.052134 273.762852 
L 951.908327 273.739918 
L 954.764519 271.205478 
L 957.620712 268.037679 
L 960.476905 265.600549 
L 963.333098 266.764901 
L 966.189291 269.075183 
L 969.045483 274.711612 
L 971.901676 279.732726 
L 971.901676 279.732726 
" clip-path="url(#pf11b6c396a)" style="fill: none; stroke: #ff0000; stroke-width: 3; stroke-linecap: square"/>
   </g>
   <g id="LineCollection_2">
    <path d="M 689.138589 313.478125 
L 689.138589 22.318125 
" clip-path="url(#pf11b6c396a)" style="fill: none; stroke-dasharray: 5.55,2.4; stroke-dashoffset: 0; stroke: #ff0000; stroke-width: 1.5"/>
    <path d="M 917.634013 313.478125 
L 917.634013 22.318125 
" clip-path="url(#pf11b6c396a)" style="fill: none; stroke-dasharray: 5.55,2.4; stroke-dashoffset: 0; stroke: #ff0000; stroke-width: 1.5"/>
   </g>
   <g id="patch_8">
    <path d="M 525.050313 313.478125 
L 525.050313 22.318125 
" style="fill: none; stroke: #000000; stroke-width: 0.8; stroke-linejoin: miter; stroke-linecap: square"/>
   </g>
   <g id="patch_9">
    <path d="M 993.180313 313.478125 
L 993.180313 22.318125 
" style="fill: none; stroke: #000000; stroke-width: 0.8; stroke-linejoin: miter; stroke-linecap: square"/>
   </g>
   <g id="patch_10">
    <path d="M 525.050313 313.478125 
L 993.180312 313.478125 
" style="fill: none; stroke: #000000; stroke-width: 0.8; stroke-linejoin: miter; stroke-linecap: square"/>
   </g>
   <g id="patch_11">
    <path d="M 525.050313 22.318125 
L 993.180312 22.318125 
" style="fill: none; stroke: #000000; stroke-width: 0.8; stroke-linejoin: miter; stroke-linecap: square"/>
   </g>
   <g id="text_29">
    <!-- Corridor 50.5 -->
    <g transform="translate(719.54625 16.318125) scale(0.12 -0.12)">
     <use xlink:href="#DejaVuSans-43"/>
     <use xlink:href="#DejaVuSans-6f" transform="translate(69.824219 0)"/>
     <use xlink:href="#DejaVuSans-72" transform="translate(131.005859 0)"/>
     <use xlink:href="#DejaVuSans-72" transform="translate(170.369141 0)"/>
     <use xlink:href="#DejaVuSans-69" transform="translate(211.482422 0)"/>
     <use xlink:href="#DejaVuSans-64" transform="translate(239.265625 0)"/>
     <use xlink:href="#DejaVuSans-6f" transform="translate(302.742188 0)"/>
     <use xlink:href="#DejaVuSans-72" transform="translate(363.923828 0)"/>
     <use xlink:href="#DejaVuSans-20" transform="translate(405.037109 0)"/>
     <use xlink:href="#DejaVuSans-35" transform="translate(436.824219 0)"/>
     <use xlink:href="#DejaVuSans-30" transform="translate(500.447266 0)"/>
     <use xlink:href="#DejaVuSans-2e" transform="translate(564.070312 0)"/>
     <use xlink:href="#DejaVuSans-35" transform="translate(595.857422 0)"/>
    </g>
   </g>
  </g>
 </g>
 <defs>
  <clipPath id="p69580355fb">
   <rect x="42.620313" y="22.318125" width="468.13" height="291.16"/>
  </clipPath>
  <clipPath id="pf11b6c396a">
   <rect x="525.050313" y="22.318125" width="468.13" height="291.16"/>
  </clipPath>
 </defs>
</svg>
